<?xml version="1.0" standalone="no"?>
<!DOCTYPE svg PUBLIC "-//W3C//DTD SVG 1.1//EN" "http://www.w3.org/Graphics/SVG/1.1/DTD/svg11.dtd" >
<svg xmlns="http://www.w3.org/2000/svg">
<metadata></metadata>
<defs>
<font id="volvo_broad_proregular" horiz-adv-x="729" >
<font-face units-per-em="2048" ascent="1638" descent="-410" />
<missing-glyph horiz-adv-x="387" />
<glyph horiz-adv-x="2048" />
<glyph horiz-adv-x="2048" />
<glyph unicode="&#xd;" horiz-adv-x="2048" />
<glyph unicode=" "  horiz-adv-x="387" />
<glyph unicode="&#x09;" horiz-adv-x="387" />
<glyph unicode="&#xa0;" horiz-adv-x="387" />
<glyph unicode="!" horiz-adv-x="352" d="M57 1280q-3 86 64 86h108q38 0 52 -18.5t14 -69.5l-8 -840q0 -49 -13.5 -66.5t-48.5 -17.5h-86q-37 0 -51.5 17t-15.5 67zM61 92v58q0 53 11.5 72.5t52.5 19.5h106q41 0 52.5 -19.5t11.5 -72.5v-58q0 -53 -11.5 -72.5t-52.5 -19.5h-106q-41 0 -52.5 19.5t-11.5 72.5z" />
<glyph unicode="&#x22;" horiz-adv-x="512" d="M14 1309q-3 26 7 41.5t32 15.5h129q23 0 34.5 -16.5t8.5 -40.5l-41 -275q-4 -28 -13 -35.5t-32 -7.5h-41q-22 0 -31.5 7.5t-13.5 35.5zM287 1309q-3 24 8.5 40.5t34.5 16.5h129q22 0 32 -15.5t7 -41.5l-39 -275q-4 -28 -13.5 -35.5t-31.5 -7.5h-41q-23 0 -32 7.5 t-13 35.5z" />
<glyph unicode="#" horiz-adv-x="1306" d="M0 457l18 59q10 30 20.5 40.5t35.5 10.5h245l74 234h-233q-54 0 -37 51l18 59q10 31 20.5 42.5t35.5 11.5h249l119 370q7 23 21 30t45 7h61q58 0 43 -53l-112 -354h239l119 370q7 23 21 30t45 7h63q56 0 41 -53l-113 -354h232q27 0 35.5 -12.5t1.5 -39.5l-19 -61 q-8 -29 -19 -40t-36 -11h-246l-76 -234h236q54 0 37 -51l-19 -59q-10 -31 -20.5 -42.5t-34.5 -11.5h-250l-117 -366q-7 -23 -21 -30t-46 -7h-62q-58 0 -43 51l113 352h-240l-116 -366q-7 -23 -21.5 -30t-46.5 -7h-61q-58 0 -43 51l112 352h-231q-55 0 -37 54zM496 567h239 l76 234h-242z" />
<glyph unicode="$" horiz-adv-x="604" d="M20 1081q0 116 48.5 169t150.5 59v102q0 39 29 39h94q17 0 23 -6.5t6 -26.5v-108h98q29 0 41 -15.5t12 -52.5v-82q0 -40 -13.5 -56t-45.5 -16h-166q-45 0 -56.5 -34.5t13.5 -75.5l203 -373q71 -130 92.5 -201.5t21.5 -148.5q0 -107 -52 -154t-148 -47v-108 q0 -28 -5 -35.5t-22 -7.5h-98q-17 0 -22 7t-5 32v112h-131q-37 0 -49 15.5t-12 62.5v66q0 49 11.5 63t47.5 14h195q38 0 47 32t-9 61l-210 401q-55 105 -72 175.5t-17 137.5z" />
<glyph unicode="%" horiz-adv-x="1136" d="M12 1020q0 101 9 164t35 111t74.5 68.5t125.5 20.5t125.5 -20.5t74.5 -68.5t35 -111t9 -164q0 -215 -53 -301t-191 -86q-137 0 -190.5 86.5t-53.5 300.5zM197 1010q0 -153 9.5 -187.5t51.5 -34.5q41 0 49 33.5t8 188.5q0 147 -8 181t-49 34q-42 0 -51.5 -36t-9.5 -179z M292.5 5.5q-6.5 9.5 2.5 37.5l403 1292q6 22 14 27.5t31 5.5h62q25 0 35 -8t2 -33l-412 -1300q-6 -18 -13.5 -24.5t-21.5 -6.5h-67q-29 0 -35.5 9.5zM637 360q0 101 9 164.5t35 111.5t74.5 68.5t125.5 20.5q62 0 105 -14.5t70 -41t42 -73t20.5 -101t5.5 -135.5 q0 -214 -53 -300.5t-190 -86.5q-138 0 -191 86t-53 301zM821 350q0 -56 0.5 -87.5t3 -59.5t6 -40t11.5 -21t16.5 -11t24.5 -2q41 0 49 33t8 188q0 147 -8 181t-49 34q-15 0 -24.5 -2.5t-17 -12.5t-11 -22.5t-6 -39.5t-3 -57t-0.5 -81z" />
<glyph unicode="&#x26;" horiz-adv-x="806" d="M35 422q0 110 13.5 173t39.5 91.5t72 40.5q-39 15 -62 42t-38 99t-15 195q0 61 8 109t19.5 79.5t32 53.5t39 34t47.5 18t50 7.5t54 1.5h303q38 0 55 -16.5t17 -51.5v-108q0 -34 -18.5 -50t-61.5 -16h-232q-79 0 -79 -69v-142q0 -41 19 -60t64 -19h91v38q0 64 61 64h117 q34 0 48.5 -14t14.5 -48v-43h39q39 0 51.5 -13t12.5 -48v-117q0 -36 -14 -50.5t-46 -14.5h-43v-207q0 -71 -3 -118t-10.5 -92t-23.5 -72.5t-39.5 -51t-60.5 -35t-85 -18t-114 -6.5q-85 0 -143 17.5t-93.5 48t-54.5 87.5t-25.5 120t-6.5 161zM279 319q0 -88 86 -88 q51 0 69.5 22t18.5 71v268h-115q-28 0 -43.5 -19t-15.5 -51v-203z" />
<glyph unicode="'" horiz-adv-x="237" d="M14 1309q-3 26 7 41.5t32 15.5h129q21 0 32.5 -16.5t8.5 -40.5l-41 -275q-4 -28 -12.5 -35.5t-32.5 -7.5h-41q-22 0 -31.5 7.5t-13.5 35.5z" />
<glyph unicode="(" horiz-adv-x="331" d="M39 664q0 200 22 364t68 383q9 41 21.5 53.5t46.5 12.5h59q33 0 41 -10.5t2 -53.5q-47 -342 -47 -749q0 -408 47 -750q6 -43 -2 -53.5t-41 -10.5h-59q-34 0 -46.5 12.5t-21.5 53.5q-46 219 -68 383.5t-22 364.5z" />
<glyph unicode=")" horiz-adv-x="331" d="M33 -86q47 342 47 750q0 407 -47 749q-6 43 2 53.5t41 10.5h59q34 0 46.5 -12.5t21.5 -53.5q46 -219 68 -383t22 -364t-22 -364.5t-68 -383.5q-9 -41 -21.5 -53.5t-46.5 -12.5h-59q-33 0 -41 10.5t-2 53.5z" />
<glyph unicode="*" horiz-adv-x="430" d="M1.5 1056q2.5 11 21.5 19l127 62l-127 63q-32 15 -17 41l14 25q16 25 46 6l116 -80l-10 139q-3 39 29 39h26q18 0 24 -8.5t5 -32.5l-8 -137l114 78q30 21 48 -6l14 -23q18 -27 -23 -45l-120 -59l122 -60q39 -17 21 -45l-14 -22q-14 -28 -50 -4l-112 73l8 -139 q2 -35 -27 -35h-28q-16 0 -23 7t-6 28l10 139l-116 -78q-29 -18 -43 7l-15 24q-9 13 -6.5 24z" />
<glyph unicode="+" horiz-adv-x="880" d="M14 653v105q0 47 13.5 64.5t50.5 17.5h229v223q0 34 15 49.5t63 15.5h104q47 0 64.5 -13t17.5 -50v-225h232q37 0 50 -17.5t13 -64.5v-105q0 -48 -15.5 -63t-49.5 -15h-230v-235q0 -37 -17.5 -50.5t-64.5 -13.5h-104q-47 0 -62.5 16t-15.5 50v233h-227q-34 0 -50 15.5 t-16 62.5z" />
<glyph unicode="," horiz-adv-x="286" d="M23 51v99q0 53 11.5 72.5t51.5 19.5h115q40 0 51.5 -19.5t11.5 -72.5v-64q0 -40 -22 -98l-39 -105q-14 -41 -43 -41h-99q-20 0 -24 8t4 27l37 88q15 35 -10 35h-13q-18 0 -25 12t-7 39z" />
<glyph unicode="-" horiz-adv-x="432" d="M20 672v102q0 51 13 67.5t53 16.5h260q40 0 53 -16.5t13 -67.5v-102q0 -51 -13 -67.5t-53 -16.5h-260q-40 0 -53 16.5t-13 67.5z" />
<glyph unicode="." horiz-adv-x="286" d="M23 92v58q0 53 11.5 72.5t51.5 19.5h115q40 0 51.5 -19.5t11.5 -72.5v-58q0 -53 -11.5 -72.5t-51.5 -19.5h-115q-40 0 -51.5 19.5t-11.5 72.5z" />
<glyph unicode="/" horiz-adv-x="393" d="M13.5 -29.5q-4.5 11.5 0.5 39.5l213 1350q6 43 39 43h92q17 0 21.5 -11.5t-0.5 -39.5l-213 -1350q-6 -43 -39 -43h-92q-17 0 -21.5 11.5z" />
<glyph unicode="0" horiz-adv-x="712" d="M35 682q0 114 2 195t8.5 155.5t16.5 122.5t28 90t41 65.5t56.5 40.5t74 23t94.5 6q73 0 122 -11t86.5 -43.5t58.5 -78.5t34 -130.5t17 -183t4 -251.5t-4 -252t-17 -183.5t-34 -130.5t-58.5 -79t-86.5 -44t-122 -11q-54 0 -94.5 6t-74 23t-56.5 41t-41 66t-28 90.5 t-16.5 123t-8.5 155.5t-2 195zM274 682q0 -167 2 -245.5t12 -128t23.5 -58t44.5 -8.5t44.5 8.5t23.5 58t12 128t2 245.5q0 168 -2 246.5t-12 128.5t-23.5 58.5t-44.5 8.5t-44.5 -8.5t-23.5 -58.5t-12 -128.5t-2 -246.5z" />
<glyph unicode="1" horiz-adv-x="411" d="M23 1204v70q0 60 14.5 76t68.5 16h175q41 0 54 -17.5t13 -72.5v-1188q0 -55 -13.5 -71.5t-58.5 -16.5h-102q-41 0 -54.5 17t-13.5 71v993q0 26 -4.5 34.5t-19.5 8.5h-14q-29 0 -37 14.5t-8 65.5z" />
<glyph unicode="2" horiz-adv-x="585" d="M8 88v121q0 110 37 186l211 418q19 35 28 55.5t17 58t8 81.5q0 63 -19.5 89.5t-58.5 26.5h-116q-51 0 -64.5 14.5t-13.5 69.5v74q0 51 14 67.5t55 16.5h242q121 0 164 -84q39 -77 39 -274q0 -132 -64 -260l-231 -465q-21 -41 14 -41h236q36 0 50.5 -16t14.5 -62v-80 q0 -49 -15 -66.5t-58 -17.5h-422q-41 0 -54.5 17.5t-13.5 70.5z" />
<glyph unicode="3" horiz-adv-x="577" d="M6 84v70q0 52 14 70t54 18h162q33 0 48 11t22 45t7 105q0 79 -14.5 115.5t-50.5 36.5h-111q-37 0 -49 16.5t-12 69.5v80q0 61 37 88l147 113q41 31 51 80t-9 85.5t-54 36.5h-166q-41 0 -54.5 15.5t-13.5 62.5v74q0 54 13.5 72t54.5 18h237q60 0 100 -14.5t70.5 -51.5 t44 -103t13.5 -167q0 -219 -121 -276q55 -46 80 -82q29 -44 40 -102t11 -177q0 -217 -57.5 -305t-198.5 -88h-227q-42 0 -55 15.5t-13 68.5z" />
<glyph unicode="4" horiz-adv-x="722" d="M12 428v125q0 37 28.5 120t98.5 263q125 321 170 393q12 23 31 30t51 7h160q67 0 67 -88v-649v-5.5v-6.5t0.5 -7t1.5 -7t3 -5.5t5.5 -5t8 -3t10.5 -1.5h25q25 0 34 -15.5t9 -58.5v-100q0 -66 -39 -66h-29q-19 0 -25 -10t-6 -39v-217q0 -49 -13.5 -65.5t-53.5 -16.5h-109 q-40 0 -52.5 15.5t-12.5 66.5v221q0 28 -7 36.5t-38 8.5h-252q-35 0 -50.5 18.5t-15.5 61.5zM249.5 601.5q1.5 -13.5 18.5 -13.5h78q17 0 23 10.5t6 40.5v281q0 24 -13 24q-10 0 -14 -14l-92 -293q-8 -22 -6.5 -35.5z" />
<glyph unicode="5" horiz-adv-x="581" d="M14 88v70q0 53 13.5 68.5t56.5 15.5h160q40 0 57.5 44t17.5 142q0 102 -17 145t-58 43h-140q-42 0 -56.5 13t-14.5 49v594q0 54 14.5 74t52.5 20h383q38 0 53 -19t15 -69v-70q0 -47 -14.5 -65.5t-49.5 -18.5h-182q-19 0 -25 -8t-6 -35v-186q0 -21 6 -29t21 -8h41 q49 0 92 -19.5t66 -52.5q39 -55 54 -132t15 -232q0 -225 -55.5 -323.5t-179.5 -98.5h-250q-45 0 -57.5 15.5t-12.5 72.5z" />
<glyph unicode="6" horiz-adv-x="671" d="M20 504q0 225 25 345t113 261l139 223q7 13 10 17.5t12.5 10t24.5 5.5h205q35 0 35 -29q0 -14 -15 -39l-235 -391q43 17 94 17q111 0 166 -66q32 -39 44.5 -123.5t12.5 -255.5q0 -278 -47 -383q-27 -58 -86.5 -82t-169.5 -24q-135 0 -189 21t-91 81q-48 78 -48 412z M264 336q0 -56 15.5 -75t60.5 -19q39 0 53.5 19.5t14.5 72.5v260q0 49 -14 63.5t-60 14.5q-41 0 -55.5 -16.5t-14.5 -69.5v-250z" />
<glyph unicode="7" horiz-adv-x="589" d="M10 1210v72q0 52 13.5 68t56.5 16h434q37 0 51.5 -19.5t14.5 -66.5v-158q0 -44 -15 -112l-231 -947q-8 -34 -21.5 -48.5t-44.5 -14.5h-137q-26 0 -37.5 11t-11.5 38q0 22 8 49l240 936q12 54 12 68q0 22 -27 22h-231q-47 0 -60.5 15.5t-13.5 70.5z" />
<glyph unicode="8" horiz-adv-x="694" d="M25 420q0 153 27 228t93 104q-57 19 -81.5 85.5t-24.5 200.5q0 78 6.5 128t25 93t53 66.5t88.5 36t134 12.5q100 0 160.5 -17.5t93.5 -61.5t44 -102t11 -155q0 -134 -24.5 -200.5t-81.5 -85.5q66 -29 93.5 -104.5t27.5 -227.5q0 -80 -4.5 -135.5t-16.5 -107.5t-34.5 -84 t-58.5 -57t-87.5 -35.5t-122.5 -10.5t-122 10.5t-87 35.5t-58 57t-34 84t-16 107t-4 136zM268 938q0 -48 15.5 -65t60.5 -17q42 0 58 18t16 64v102q0 48 -16 66t-58 18q-43 0 -59.5 -18t-16.5 -64v-104zM270 299q0 -29 17.5 -43t58.5 -14q39 0 55.5 14t16.5 45v215 q0 48 -14.5 63t-61.5 15q-43 0 -57.5 -16.5t-14.5 -63.5v-215z" />
<glyph unicode="9" horiz-adv-x="671" d="M20 885q0 282 48 383q26 58 86 82t170 24q127 0 183.5 -22t96.5 -80q28 -41 37.5 -134t9.5 -259q0 -204 -22.5 -337.5t-93.5 -250.5l-158 -258q-1 -1 -6 -9.5t-7 -10t-7 -6.5t-11.5 -6t-15.5 -1h-205q-33 0 -33 29q0 17 12 39l238 393q-38 -21 -98 -21q-110 0 -166 66 q-33 39 -45.5 122.5t-12.5 256.5zM262 770q0 -49 14 -63.5t60 -14.5q41 0 56.5 17t15.5 69v250q0 56 -16.5 75t-61.5 19q-39 0 -53.5 -19.5t-14.5 -72.5v-260z" />
<glyph unicode=":" horiz-adv-x="286" d="M23 92v58q0 53 11.5 72.5t51.5 19.5h115q40 0 51.5 -19.5t11.5 -72.5v-58q0 -53 -11.5 -72.5t-51.5 -19.5h-115q-40 0 -51.5 19.5t-11.5 72.5zM23 631v57q0 53 11.5 72.5t51.5 19.5h115q40 0 51.5 -19.5t11.5 -72.5v-57q0 -53 -11.5 -72.5t-51.5 -19.5h-115 q-40 0 -51.5 19.5t-11.5 72.5z" />
<glyph unicode=";" horiz-adv-x="286" d="M23 51v99q0 53 11.5 72.5t51.5 19.5h115q40 0 51.5 -19.5t11.5 -72.5v-64q0 -40 -22 -98l-39 -105q-14 -41 -43 -41h-99q-20 0 -24 8t4 27l37 88q15 35 -10 35h-13q-18 0 -25 12t-7 39zM23 631v57q0 53 11.5 72.5t51.5 19.5h115q40 0 51.5 -19.5t11.5 -72.5v-57 q0 -53 -11.5 -72.5t-51.5 -19.5h-115q-40 0 -51.5 19.5t-11.5 72.5z" />
<glyph unicode="&#x3c;" horiz-adv-x="702" d="M20 412v106q0 17 2 27.5t8 18t10.5 10.5t17 10t20.5 12l522 332q41 26 60 20.5t20 -45.5l2 -84q2 -43 -7 -63t-46 -43l-393 -248l393 -248q34 -23 44.5 -45t8.5 -63l-2 -82q-1 -40 -20 -45.5t-60 20.5l-522 332q-8 5 -20.5 12t-17 10t-10.5 10.5t-8 18t-2 27.5z" />
<glyph unicode="=" horiz-adv-x="770" d="M20 258v57q0 53 11.5 73t52.5 20h602q41 0 52.5 -20t11.5 -73v-57q0 -53 -11.5 -72.5t-52.5 -19.5h-602q-41 0 -52.5 19.5t-11.5 72.5zM20 625v57q0 53 11.5 72.5t52.5 19.5h602q41 0 52.5 -19.5t11.5 -72.5v-57q0 -53 -11.5 -73t-52.5 -20h-602q-41 0 -52.5 20t-11.5 73 z" />
<glyph unicode="&#x3e;" horiz-adv-x="702" d="M20 109l3 -82q2 -40 20 -45.5t59 20.5l523 332q8 5 20.5 12t17 10t10.5 10.5t7.5 18t1.5 27.5v106q0 17 -1.5 27.5t-7.5 18t-10.5 10.5t-17 10t-20.5 12l-523 332q-41 26 -59 20.5t-20 -45.5l-3 -84q-2 -43 7 -63t47 -43l393 -248l-393 -248q-34 -23 -45 -45t-9 -63z" />
<glyph unicode="?" horiz-adv-x="548" d="M14 1210v70q0 86 68 86h246q56 0 89.5 -10t60 -40t37.5 -86t11 -147q0 -88 -10 -141t-43 -123l-80 -168q-13 -29 -16.5 -46.5t-3.5 -59.5v-133q0 -35 -14 -47.5t-50 -12.5h-102q-40 0 -54 16t-14 60v186q0 41 3.5 59t17.5 48l80 168q32 65 38.5 90t6.5 68 q0 42 -14.5 59.5t-53.5 17.5h-135q-68 0 -68 86zM139 92v58q0 53 11.5 72.5t52.5 19.5h106q41 0 52.5 -19.5t11.5 -72.5v-58q0 -53 -11.5 -72.5t-52.5 -19.5h-106q-41 0 -52.5 19.5t-11.5 72.5z" />
<glyph unicode="@" horiz-adv-x="991" d="M33 616q0 216 56 376t172 250.5t282 90.5q138 0 234 -70.5t141 -191.5t45 -283q0 -218 -88.5 -359.5t-217.5 -141.5q-35 0 -60.5 23t-35.5 55q-55 -76 -129 -76q-75 0 -122.5 80.5t-47.5 195.5q0 114 28 211.5t85 160t131 62.5q55 0 84 -57q16 37 43 37h59 q24 0 31.5 -14.5t7.5 -40.5l-6 -60l-47 -350q-2 -12 -2 -39q0 -13 6 -25t18 -12q17 0 34.5 22t33 64t25.5 112.5t10 156.5q0 176 -68 278.5t-196 102.5q-112 0 -190.5 -76t-115 -199.5t-36.5 -282.5q0 -107 15.5 -188.5t42.5 -133t67 -84t84.5 -45.5t99.5 -13q144 0 280 49 q8 4 19 4q19 0 29 -29l22 -78q6 -15 6 -22q0 -15 -16 -25t-72 -24q-144 -35 -278 -35q-224 0 -343.5 153.5t-119.5 470.5zM420 565q0 -75 11.5 -101t37.5 -26q40 0 70 77t30 220q0 119 -53 119q-22 0 -43 -31.5t-37 -100t-16 -157.5z" />
<glyph unicode="A" horiz-adv-x="759" d="M6 31l166 1257q6 44 24.5 61t61.5 17h238q37 0 55 -18t24 -62l179 -1255q3 -31 -31 -31h-195q-16 0 -23.5 8t-10.5 29l-39 289q-3 20 -10 26t-25 6h-86q-18 0 -25 -5.5t-10 -26.5l-33 -293q-2 -20 -8.5 -26.5t-28.5 -6.5h-188q-38 0 -35 31zM324 623q-2 -10 5 -16.5 t21 -6.5h51q32 0 29 23l-39 471q-3 30 -16 30q-14 0 -17 -32z" />
<glyph unicode="B" horiz-adv-x="739" d="M53 90v1188q0 49 14.5 68.5t51.5 19.5h370q51 0 88 -18t59 -47t34.5 -75t17 -93.5t4.5 -110.5q0 -129 -26 -201.5t-84 -107.5q129 -51 129 -344q0 -84 -10.5 -147.5t-35 -115.5t-69 -79t-107.5 -27h-370q-39 0 -52.5 18t-13.5 72zM293 283q0 -23 7 -32t28 -9h39 q61 0 80.5 34.5t19.5 135.5q0 105 -22.5 139.5t-77.5 34.5h-39q-22 0 -28.5 -8t-6.5 -33v-262zM293 868q0 -24 7 -32.5t28 -8.5h39q54 0 70 30.5t16 117.5q0 90 -21 119.5t-65 29.5h-39q-22 0 -28.5 -8t-6.5 -33v-215z" />
<glyph unicode="C" horiz-adv-x="593" d="M35 657v154t2 130t5.5 111.5t10 90.5t15.5 75t22.5 56t30 43t39 27.5t49.5 17t61 4.5h254q35 0 49.5 -16t14.5 -56v-92q0 -47 -13.5 -62.5t-54.5 -15.5h-155q-41 0 -54 -16q-24 -29 -28 -178q-2 -74 -2 -250q0 -169 2 -249.5t12 -127.5t22.5 -54t42.5 -7h160 q37 0 51.5 -16t14.5 -54v-98q0 -41 -14 -57.5t-48 -16.5h-243q-54 0 -90.5 10.5t-65 40t-45 73.5t-27.5 122t-14.5 173.5t-3.5 237.5z" />
<glyph unicode="D" horiz-adv-x="749" d="M53 88v1186q0 51 14.5 71.5t51.5 20.5h350q43 0 76 -8t58.5 -29t43.5 -46.5t30.5 -71t19.5 -91.5t11.5 -119.5t5.5 -143t1 -173.5q0 -155 -4 -257.5t-15.5 -183t-28.5 -125t-48 -72.5t-68 -37t-94 -9h-332q-45 0 -58.5 16.5t-13.5 71.5zM287 297q0 -38 11.5 -46.5 t63.5 -8.5q54 0 71 16q28 26 34 149q4 74 4 257q0 313 -11 379q-10 62 -42 75q-18 6 -62 6t-56.5 -10.5t-12.5 -50.5v-766z" />
<glyph unicode="E" horiz-adv-x="616" d="M53 90v1186q0 51 15.5 70.5t54.5 19.5h405q39 0 52.5 -15.5t13.5 -64.5v-76q0 -51 -14 -68.5t-52 -17.5h-200q-23 0 -30 -8.5t-7 -36.5v-190q0 -30 5.5 -36.5t31.5 -6.5h102q34 0 46.5 -14.5t12.5 -55.5v-104q0 -39 -13 -53.5t-46 -14.5h-102q-22 0 -29.5 -6t-7.5 -25 v-286q0 -26 8 -35.5t35 -9.5h203q41 0 57 -19t16 -69v-66q0 -47 -16 -67.5t-53 -20.5h-418q-41 0 -55.5 18t-14.5 72z" />
<glyph unicode="F" horiz-adv-x="587" d="M53 86v1186q0 56 14 75t54 19h389q40 0 56 -19.5t16 -68.5v-72q0 -46 -14.5 -64t-49.5 -18h-188q-24 0 -30.5 -9.5t-6.5 -45.5v-186q0 -22 5.5 -29.5t20.5 -7.5h115q37 0 49.5 -16.5t12.5 -65.5v-72q0 -51 -13.5 -69.5t-50.5 -18.5h-102q-24 0 -30.5 -9.5t-6.5 -43.5 v-465q0 -49 -13 -67.5t-47 -18.5h-114q-38 0 -52 17.5t-14 68.5z" />
<glyph unicode="G" d="M35 532.5v145.5q1 322 16 431q22 173 100 226q45 31 117 31h279q40 0 54.5 -16.5t14.5 -69.5v-66q0 -51 -13.5 -70.5t-49.5 -19.5h-147q-63 0 -82 -13q-31 -22 -39 -120q-6 -73 -6 -319v-299q0 -131 108 -131q43 0 70.5 28t27.5 80v201q0 31 -4.5 42t-19.5 11h-60 q-18 0 -26 9t-9 19t-1 36v94q0 48 13.5 66t61.5 18h195q38 0 50.5 -20.5t12.5 -69.5v-355q0 -86 -5.5 -142.5t-24.5 -110.5t-53 -84.5t-91.5 -49t-140.5 -18.5q-58 0 -104 8t-81 24.5t-61 41.5t-44 58t-29 75t-17.5 92.5t-9 109.5t-2.5 127.5z" />
<glyph unicode="H" horiz-adv-x="774" d="M53 90v1188q0 49 15.5 68.5t52.5 19.5h110q33 0 47.5 -20.5t14.5 -65.5v-395q0 -23 7.5 -31t23.5 -8h127q16 0 23 8t7 31v395q0 45 14.5 65.5t47.5 20.5h110q37 0 52.5 -19.5t15.5 -68.5v-1188q0 -52 -14.5 -71t-53.5 -19h-108q-38 0 -51 20.5t-13 67.5v473q0 25 -6 34 t-26 9h-123q-20 0 -26.5 -9t-6.5 -34v-473q0 -47 -13 -67.5t-51 -20.5h-108q-39 0 -53.5 19t-14.5 71z" />
<glyph unicode="I" horiz-adv-x="348" d="M53 90v1184q0 53 14.5 72.5t53.5 19.5h110q36 0 50 -20t14 -72v-1188q0 -54 -14 -70t-54 -16h-102q-43 0 -57.5 17.5t-14.5 72.5z" />
<glyph unicode="J" horiz-adv-x="471" d="M6 84v76q0 52 13.5 67t52.5 15h53q36 0 50.5 18t14.5 72v948q0 53 13.5 69.5t56.5 16.5h102q43 0 56.5 -16.5t13.5 -67.5v-932q0 -148 -47 -237q-32 -59 -81.5 -86t-125.5 -27h-100q-44 0 -58 16t-14 68z" />
<glyph unicode="K" horiz-adv-x="768" d="M53 90v1184q0 53 14.5 72.5t53.5 19.5h110q36 0 50 -20t14 -72v-305q0 -21 8 -23q7 -1 11.5 4t11.5 19l151 319q14 29 18.5 37.5t14 21.5t19.5 16t26 3h182q25 0 25 -25q0 -12 -6 -24l-203 -393q-9 -18 -12 -39q-2 -13 6 -43l207 -781q9 -40 2 -50.5t-35 -10.5h-168 q-26 0 -38 12t-19 47l-97 455q-1 6 -3 15t-3 14t-2.5 11.5t-3 10l-3 7t-4 5t-5.5 1.5q-12 0 -21.5 -12t-40.5 -72q-18 -35 -18 -115v-293q0 -54 -14 -70t-54 -16h-102q-43 0 -57.5 17.5t-14.5 72.5z" />
<glyph unicode="L" horiz-adv-x="569" d="M53 90v1188q0 47 15.5 67.5t52.5 20.5h108q39 0 52.5 -19t13.5 -69v-993q0 -24 7.5 -33.5t25.5 -9.5h166q40 0 54.5 -18t14.5 -68v-68q0 -47 -18 -67.5t-58 -20.5h-366q-41 0 -54.5 17.5t-13.5 72.5z" />
<glyph unicode="M" horiz-adv-x="954" d="M53 88v1194q0 51 13 67.5t53 16.5h112q50 0 65.5 -10.5t27.5 -52.5l137 -492q5 -18 16 -18q12 0 17 18l137 492q12 43 27 53t65 10h113q40 0 52.5 -16.5t12.5 -67.5v-1194q0 -56 -12 -72t-55 -16h-109q-39 0 -52.5 18t-13.5 68v555q0 49 -8 49q-9 0 -18 -45l-82 -405 q-7 -37 -23.5 -49.5t-50.5 -12.5t-50.5 12.5t-23.5 49.5l-81 405q-9 45 -19 45q-8 0 -8 -49v-555q0 -50 -13.5 -68t-52.5 -18h-108q-43 0 -55.5 16.5t-12.5 71.5z" />
<glyph unicode="N" horiz-adv-x="800" d="M53 92v1184q0 54 14.5 72t57.5 18h94q38 0 51.5 -10.5t28.5 -52.5l172 -508q9 -29 23 -29q10 0 10 39v471q0 49 13.5 69.5t49.5 20.5h107q38 0 56 -18t18 -74v-1182q0 -54 -14.5 -73t-57.5 -19h-94q-38 0 -51.5 10.5t-28.5 52.5l-172 510q-9 29 -23 29q-10 0 -10 -39 v-473q0 -48 -14 -69t-50 -21h-106q-38 0 -56 18t-18 74z" />
<glyph unicode="O" d="M35 679v7v7q0 89 0.5 132t3 117t8.5 110.5t17 92.5t27.5 83t41.5 62.5t57.5 51t76.5 27t98 11.5t98 -11.5t76.5 -27.5t57 -51t41 -62.5t27.5 -84t17 -93t8.5 -111t3 -118t0.5 -131.5v-4q0 -283 -16 -392q-28 -198 -133 -267q-69 -45 -180 -45q-54 0 -98 12t-76.5 28 t-57.5 52t-41.5 64t-27.5 85t-17 94t-8.5 112t-3 118t-0.5 132zM274 686q2 -290 15 -367t76 -77t76.5 78t13.5 366q-2 285 -12 349q-11 70 -48 83q-12 4 -30 4q-63 0 -77 -75.5t-14 -360.5z" />
<glyph unicode="P" horiz-adv-x="710" d="M53 88v1184q0 52 14.5 73t51.5 21h315q129 0 195.5 -110.5t66.5 -325.5q0 -206 -58.5 -314t-170.5 -108h-172v-420q0 -54 -13 -71t-53 -17h-110q-41 0 -53.5 16.5t-12.5 71.5zM295 784q0 -20 6.5 -27t24.5 -7h67q23 0 35 11t19.5 51.5t7.5 119.5q0 81 -7.5 123.5 t-21 55.5t-39.5 13h-59q-17 0 -25 -7t-8 -30v-303z" />
<glyph unicode="Q" d="M35 675v3.5v3.5v4q0 279 14 383q26 193 126 262q71 49 187 49q54 0 98 -11.5t76.5 -27t57.5 -51t41.5 -62.5t27.5 -83t17 -92.5t8.5 -110.5t3 -117t0.5 -132v-3.5v-3.5q0 -129 -1.5 -194t-9.5 -156t-27.5 -150t-51.5 -102l115 -123q18 -19 18 -34q0 -19 -28 -31l-136 -60 q-11 -5 -21 -5q-7 0 -14 3q-15 7 -38 37l-88 113q-7 0 -23.5 -1t-24.5 -1q-54 0 -97.5 12t-76 28t-57 51.5t-40.5 63.5t-27 84.5t-17 93.5t-8.5 111.5t-3 117.5t-0.5 131zM272 686q0 -288 13.5 -366t76.5 -78t78 80t15 364q0 282 -14.5 359t-78.5 77q-63 0 -76.5 -75 t-13.5 -361z" />
<glyph unicode="R" horiz-adv-x="718" d="M53 88v1186q0 52 15 72t55 20h293q142 0 211 -104t69 -318q0 -116 -25 -186t-85 -121l119 -582q4 -20 4 -26q0 -29 -37 -29h-160q-28 0 -38.5 11t-16.5 48l-84 492q-3 12 -8 15t-17 3h-29h-11.5t-6.5 -4.5t-4 -13.5v-465q0 -46 -15.5 -66t-52.5 -20h-110q-39 0 -52.5 18 t-13.5 70zM297 848q0 -37 20 -37h68q74 0 74 164q0 83 -17.5 116t-52.5 33h-65q-12 0 -19.5 -8t-7.5 -20v-248z" />
<glyph unicode="S" horiz-adv-x="618" d="M10 1118q0 136 61 192t193 56h234q31 0 44 -17t13 -57v-90q0 -42 -14.5 -60t-48.5 -18h-183q-49 0 -61 -38q-3 -11 -3 -23q0 -28 19 -59l219 -404q77 -142 101 -220t24 -161q0 -117 -57 -168t-162 -51h-305q-40 0 -54 17t-14 67v72q0 53 13 69.5t53 16.5h211q41 0 52 34 q4 12 4 24q0 21 -13 42l-232 436q-42 79 -64 148.5t-26 106t-4 85.5z" />
<glyph unicode="T" horiz-adv-x="645" d="M6 1206v70q0 54 14 72t54 18h499q37 0 51.5 -18t14.5 -64v-76q0 -49 -13.5 -66.5t-50.5 -17.5h-106q-15 0 -21 -8.5t-6 -32.5v-993q0 -54 -12.5 -72t-52.5 -18h-107q-41 0 -55 17t-14 67v999q0 25 -6.5 33t-20.5 8h-106q-37 0 -49.5 16t-12.5 66z" />
<glyph unicode="U" horiz-adv-x="741" d="M41 379v897q0 52 15.5 71t56.5 19h108q37 0 49.5 -17t12.5 -67v-934q0 -57 20.5 -81.5t69.5 -24.5q46 0 66 25t20 83v932q0 51 12.5 67.5t52.5 16.5h113q39 0 51 -16t12 -68v-893q0 -74 -6.5 -128.5t-27 -110t-56 -90t-97 -56.5t-146.5 -22q-100 0 -165.5 25.5t-100 80 t-47.5 122t-13 169.5z" />
<glyph unicode="V" horiz-adv-x="745" d="M6 1311q-2 13 -2 22q0 13 4 21q8 12 35 12h158q27 0 38 -12t17 -54l98 -778q3 -30 19 -30q15 0 18 30l98 778q6 42 17.5 54t38.5 12h157q26 0 34 -12q4 -7 5 -21q0 -10 -2 -22l-202 -1256q-4 -31 -17 -43t-39 -12h-217q-26 0 -38.5 12t-16.5 43z" />
<glyph unicode="W" horiz-adv-x="1132" d="M7 1332.5q0 15.5 9.5 22.5t18 9t24.5 2h140q25 0 35 -12t14 -47l96 -666q5 -27 18 -27q6 0 9.5 5t7.5 22l92 393l-29 258q-4 34 6 54t46 20h143q26 0 36 -12.5t15 -46.5l80 -664q3 -29 16 -29q14 0 17 29l82 670q6 53 47 53h149q30 0 40 -16q6 -9 6 -27q0 -13 -3 -31 l-213 -1233q-6 -33 -18.5 -46t-38.5 -13h-160q-31 0 -42 11.5t-15 49.5l-57 457q0 25 -11 25q-9 0 -14 -23l-113 -479q-5 -22 -17 -31.5t-38 -9.5h-133q-26 0 -36 10t-15 41l-193 1239q-1 27 -1 42.5z" />
<glyph unicode="X" horiz-adv-x="700" d="M8 18q-3 8 -4 19q0 16 6 39l135 633l-135 583q-4 17 -4 30q0 44 45 44h156q42 0 53 -55l74 -385q3 -17 6 -22t10 -5q8 0 11 5t6 22l73 385q11 55 54 55h155q45 0 45 -44q0 -13 -4 -30l-137 -583l137 -633q6 -23 6 -39q0 -12 -4 -19q-8 -18 -35 -18h-159q-47 0 -56 51 l-73 424q-6 25 -19 25q-12 0 -18 -25l-74 -424q-9 -51 -55 -51h-160q-27 0 -35 18z" />
<glyph unicode="Y" horiz-adv-x="704" d="M4 1342q9 24 39 24h137q23 0 34.5 -9t18.5 -40l105 -445q10 -21 14 -22q6 0 8 3.5t7 18.5l104 445q7 31 18.5 40t34.5 9h138q30 0 38 -24q4 -10 4 -21q0 -13 -6 -27l-225 -772v-434q0 -54 -13 -71t-54 -17h-107q-41 0 -54.5 17t-13.5 71v434l-225 772q-5 14 -5 27 q0 11 3 21z" />
<glyph unicode="Z" horiz-adv-x="636" d="M16 82v154v15.5v17t2 17.5t5.5 24.5t10 28t15.5 38.5l326 710q8 15 4 26t-21 11h-256q-44 0 -55.5 14.5t-11.5 69.5v72q0 53 12 69.5t53 16.5h457q32 0 46.5 -19t14.5 -61v-172q0 -44 -28 -104l-326 -719q-10 -19 -6 -34t25 -15h272q39 0 52.5 -17.5t13.5 -70.5v-70 q0 -49 -15.5 -66.5t-58.5 -17.5h-465q-40 0 -53 16.5t-13 65.5z" />
<glyph unicode="[" horiz-adv-x="460" d="M53 -61v1443q0 53 14.5 74t51.5 21h246q40 0 51.5 -15.5t11.5 -56.5v-49q0 -39 -11.5 -55.5t-51.5 -16.5h-119v-1243h119q39 0 51 -16.5t12 -53.5v-49q0 -40 -11.5 -56t-51.5 -16h-246q-41 0 -53.5 16.5t-12.5 72.5z" />
<glyph unicode="\" horiz-adv-x="385" d="M9.5 1391.5q4.5 11.5 21.5 11.5h92q33 0 39 -43l213 -1350q5 -28 0.5 -39.5t-21.5 -11.5h-92q-33 0 -39 43l-213 1350q-5 28 -0.5 39.5z" />
<glyph unicode="]" horiz-adv-x="460" d="M33 -29q0 37 12 53.5t51 16.5h119v1243h-119q-40 0 -51.5 16.5t-11.5 55.5v49q0 41 11.5 56.5t51.5 15.5h246q37 0 51.5 -21t14.5 -74v-1443q0 -56 -12.5 -72.5t-53.5 -16.5h-246q-40 0 -51.5 16t-11.5 56v49z" />
<glyph unicode="^" horiz-adv-x="827" d="M15 700.5q-4 17.5 18 61.5l250 547q17 38 26 46q14 11 51 11h107q21 0 33 -2t21 -12.5t11.5 -15.5t12.5 -27l250 -547q22 -44 17.5 -61.5t-42.5 -18.5l-84 -2q-20 -1 -35.5 -0.5t-28 5t-23 16t-19.5 32.5l-166 402l-166 -402q-14 -35 -38.5 -45t-70.5 -8l-82 2 q-38 1 -42 18.5z" />
<glyph unicode="_" horiz-adv-x="737" d="M0 -135h737v-123h-737v123z" />
<glyph unicode="`" horiz-adv-x="321" d="M-23 1589q0 27 29 27h180q14 0 22 -6t23 -27l93 -121q10 -12 10 -26q0 -19 -23 -19h-127q-17 0 -24 3.5t-21 15.5l-141 120q-21 18 -21 33z" />
<glyph unicode="a" horiz-adv-x="759" d="M6 31l166 1257q6 44 24.5 61t61.5 17h238q37 0 55 -18t24 -62l179 -1255q3 -31 -31 -31h-195q-16 0 -23.5 8t-10.5 29l-39 289q-3 20 -10 26t-25 6h-86q-18 0 -25 -5.5t-10 -26.5l-33 -293q-2 -20 -8.5 -26.5t-28.5 -6.5h-188q-38 0 -35 31zM324 623q-2 -10 5 -16.5 t21 -6.5h51q32 0 29 23l-39 471q-3 30 -16 30q-14 0 -17 -32z" />
<glyph unicode="b" horiz-adv-x="739" d="M53 90v1188q0 49 14.5 68.5t51.5 19.5h370q51 0 88 -18t59 -47t34.5 -75t17 -93.5t4.5 -110.5q0 -129 -26 -201.5t-84 -107.5q129 -51 129 -344q0 -84 -10.5 -147.5t-35 -115.5t-69 -79t-107.5 -27h-370q-39 0 -52.5 18t-13.5 72zM293 283q0 -23 7 -32t28 -9h39 q61 0 80.5 34.5t19.5 135.5q0 105 -22.5 139.5t-77.5 34.5h-39q-22 0 -28.5 -8t-6.5 -33v-262zM293 868q0 -24 7 -32.5t28 -8.5h39q54 0 70 30.5t16 117.5q0 90 -21 119.5t-65 29.5h-39q-22 0 -28.5 -8t-6.5 -33v-215z" />
<glyph unicode="c" horiz-adv-x="593" d="M35 657v154t2 130t5.5 111.5t10 90.5t15.5 75t22.5 56t30 43t39 27.5t49.5 17t61 4.5h254q35 0 49.5 -16t14.5 -56v-92q0 -47 -13.5 -62.5t-54.5 -15.5h-155q-41 0 -54 -16q-24 -29 -28 -178q-2 -74 -2 -250q0 -169 2 -249.5t12 -127.5t22.5 -54t42.5 -7h160 q37 0 51.5 -16t14.5 -54v-98q0 -41 -14 -57.5t-48 -16.5h-243q-54 0 -90.5 10.5t-65 40t-45 73.5t-27.5 122t-14.5 173.5t-3.5 237.5z" />
<glyph unicode="d" horiz-adv-x="749" d="M53 88v1186q0 51 14.5 71.5t51.5 20.5h350q43 0 76 -8t58.5 -29t43.5 -46.5t30.5 -71t19.5 -91.5t11.5 -119.5t5.5 -143t1 -173.5q0 -155 -4 -257.5t-15.5 -183t-28.5 -125t-48 -72.5t-68 -37t-94 -9h-332q-45 0 -58.5 16.5t-13.5 71.5zM287 297q0 -38 11.5 -46.5 t63.5 -8.5q54 0 71 16q28 26 34 149q4 74 4 257q0 313 -11 379q-10 62 -42 75q-18 6 -62 6t-56.5 -10.5t-12.5 -50.5v-766z" />
<glyph unicode="e" horiz-adv-x="616" d="M53 90v1186q0 51 15.5 70.5t54.5 19.5h405q39 0 52.5 -15.5t13.5 -64.5v-76q0 -51 -14 -68.5t-52 -17.5h-200q-23 0 -30 -8.5t-7 -36.5v-190q0 -30 5.5 -36.5t31.5 -6.5h102q34 0 46.5 -14.5t12.5 -55.5v-104q0 -39 -13 -53.5t-46 -14.5h-102q-22 0 -29.5 -6t-7.5 -25 v-286q0 -26 8 -35.5t35 -9.5h203q41 0 57 -19t16 -69v-66q0 -47 -16 -67.5t-53 -20.5h-418q-41 0 -55.5 18t-14.5 72z" />
<glyph unicode="f" horiz-adv-x="587" d="M53 86v1186q0 56 14 75t54 19h389q40 0 56 -19.5t16 -68.5v-72q0 -46 -14.5 -64t-49.5 -18h-188q-24 0 -30.5 -9.5t-6.5 -45.5v-186q0 -22 5.5 -29.5t20.5 -7.5h115q37 0 49.5 -16.5t12.5 -65.5v-72q0 -51 -13.5 -69.5t-50.5 -18.5h-102q-24 0 -30.5 -9.5t-6.5 -43.5 v-465q0 -49 -13 -67.5t-47 -18.5h-114q-38 0 -52 17.5t-14 68.5z" />
<glyph unicode="g" d="M35 532.5v145.5q1 322 16 431q22 173 100 226q45 31 117 31h279q40 0 54.5 -16.5t14.5 -69.5v-66q0 -51 -13.5 -70.5t-49.5 -19.5h-147q-63 0 -82 -13q-31 -22 -39 -120q-6 -73 -6 -319v-299q0 -131 108 -131q43 0 70.5 28t27.5 80v201q0 31 -4.5 42t-19.5 11h-60 q-18 0 -26 9t-9 19t-1 36v94q0 48 13.5 66t61.5 18h195q38 0 50.5 -20.5t12.5 -69.5v-355q0 -86 -5.5 -142.5t-24.5 -110.5t-53 -84.5t-91.5 -49t-140.5 -18.5q-58 0 -104 8t-81 24.5t-61 41.5t-44 58t-29 75t-17.5 92.5t-9 109.5t-2.5 127.5z" />
<glyph unicode="h" horiz-adv-x="774" d="M53 90v1188q0 49 15.5 68.5t52.5 19.5h110q33 0 47.5 -20.5t14.5 -65.5v-395q0 -23 7.5 -31t23.5 -8h127q16 0 23 8t7 31v395q0 45 14.5 65.5t47.5 20.5h110q37 0 52.5 -19.5t15.5 -68.5v-1188q0 -52 -14.5 -71t-53.5 -19h-108q-38 0 -51 20.5t-13 67.5v473q0 25 -6 34 t-26 9h-123q-20 0 -26.5 -9t-6.5 -34v-473q0 -47 -13 -67.5t-51 -20.5h-108q-39 0 -53.5 19t-14.5 71z" />
<glyph unicode="i" horiz-adv-x="348" d="M53 90v1184q0 53 14.5 72.5t53.5 19.5h110q36 0 50 -20t14 -72v-1188q0 -54 -14 -70t-54 -16h-102q-43 0 -57.5 17.5t-14.5 72.5z" />
<glyph unicode="j" horiz-adv-x="471" d="M6 84v76q0 52 13.5 67t52.5 15h53q36 0 50.5 18t14.5 72v948q0 53 13.5 69.5t56.5 16.5h102q43 0 56.5 -16.5t13.5 -67.5v-932q0 -148 -47 -237q-32 -59 -81.5 -86t-125.5 -27h-100q-44 0 -58 16t-14 68z" />
<glyph unicode="k" horiz-adv-x="768" d="M53 90v1184q0 53 14.5 72.5t53.5 19.5h110q36 0 50 -20t14 -72v-305q0 -21 8 -23q7 -1 11.5 4t11.5 19l151 319q14 29 18.5 37.5t14 21.5t19.5 16t26 3h182q25 0 25 -25q0 -12 -6 -24l-203 -393q-9 -18 -12 -39q-2 -13 6 -43l207 -781q9 -40 2 -50.5t-35 -10.5h-168 q-26 0 -38 12t-19 47l-97 455q-1 6 -3 15t-3 14t-2.5 11.5t-3 10l-3 7t-4 5t-5.5 1.5q-12 0 -21.5 -12t-40.5 -72q-18 -35 -18 -115v-293q0 -54 -14 -70t-54 -16h-102q-43 0 -57.5 17.5t-14.5 72.5z" />
<glyph unicode="l" horiz-adv-x="569" d="M53 90v1188q0 47 15.5 67.5t52.5 20.5h108q39 0 52.5 -19t13.5 -69v-993q0 -24 7.5 -33.5t25.5 -9.5h166q40 0 54.5 -18t14.5 -68v-68q0 -47 -18 -67.5t-58 -20.5h-366q-41 0 -54.5 17.5t-13.5 72.5z" />
<glyph unicode="m" horiz-adv-x="954" d="M53 88v1194q0 51 13 67.5t53 16.5h112q50 0 65.5 -10.5t27.5 -52.5l137 -492q5 -18 16 -18q12 0 17 18l137 492q12 43 27 53t65 10h113q40 0 52.5 -16.5t12.5 -67.5v-1194q0 -56 -12 -72t-55 -16h-109q-39 0 -52.5 18t-13.5 68v555q0 49 -8 49q-9 0 -18 -45l-82 -405 q-7 -37 -23.5 -49.5t-50.5 -12.5t-50.5 12.5t-23.5 49.5l-81 405q-9 45 -19 45q-8 0 -8 -49v-555q0 -50 -13.5 -68t-52.5 -18h-108q-43 0 -55.5 16.5t-12.5 71.5z" />
<glyph unicode="n" horiz-adv-x="800" d="M53 92v1184q0 54 14.5 72t57.5 18h94q38 0 51.5 -10.5t28.5 -52.5l172 -508q9 -29 23 -29q10 0 10 39v471q0 49 13.5 69.5t49.5 20.5h107q38 0 56 -18t18 -74v-1182q0 -54 -14.5 -73t-57.5 -19h-94q-38 0 -51.5 10.5t-28.5 52.5l-172 510q-9 29 -23 29q-10 0 -10 -39 v-473q0 -48 -14 -69t-50 -21h-106q-38 0 -56 18t-18 74z" />
<glyph unicode="o" d="M35 679v7v7q0 89 0.5 132t3 117t8.5 110.5t17 92.5t27.5 83t41.5 62.5t57.5 51t76.5 27t98 11.5t98 -11.5t76.5 -27.5t57 -51t41 -62.5t27.5 -84t17 -93t8.5 -111t3 -118t0.5 -131.5v-4q0 -283 -16 -392q-28 -198 -133 -267q-69 -45 -180 -45q-54 0 -98 12t-76.5 28 t-57.5 52t-41.5 64t-27.5 85t-17 94t-8.5 112t-3 118t-0.5 132zM274 686q2 -290 15 -367t76 -77t76.5 78t13.5 366q-2 285 -12 349q-11 70 -48 83q-12 4 -30 4q-63 0 -77 -75.5t-14 -360.5z" />
<glyph unicode="p" horiz-adv-x="710" d="M53 88v1184q0 52 14.5 73t51.5 21h315q129 0 195.5 -110.5t66.5 -325.5q0 -206 -58.5 -314t-170.5 -108h-172v-420q0 -54 -13 -71t-53 -17h-110q-41 0 -53.5 16.5t-12.5 71.5zM295 784q0 -20 6.5 -27t24.5 -7h67q23 0 35 11t19.5 51.5t7.5 119.5q0 81 -7.5 123.5 t-21 55.5t-39.5 13h-59q-17 0 -25 -7t-8 -30v-303z" />
<glyph unicode="q" d="M35 675v3.5v3.5v4q0 279 14 383q26 193 126 262q71 49 187 49q54 0 98 -11.5t76.5 -27t57.5 -51t41.5 -62.5t27.5 -83t17 -92.5t8.5 -110.5t3 -117t0.5 -132v-3.5v-3.5q0 -129 -1.5 -194t-9.5 -156t-27.5 -150t-51.5 -102l115 -123q18 -19 18 -34q0 -19 -28 -31l-136 -60 q-11 -5 -21 -5q-7 0 -14 3q-15 7 -38 37l-88 113q-7 0 -23.5 -1t-24.5 -1q-54 0 -97.5 12t-76 28t-57 51.5t-40.5 63.5t-27 84.5t-17 93.5t-8.5 111.5t-3 117.5t-0.5 131zM272 686q0 -288 13.5 -366t76.5 -78t78 80t15 364q0 282 -14.5 359t-78.5 77q-63 0 -76.5 -75 t-13.5 -361z" />
<glyph unicode="r" horiz-adv-x="718" d="M53 88v1186q0 52 15 72t55 20h293q142 0 211 -104t69 -318q0 -116 -25 -186t-85 -121l119 -582q4 -20 4 -26q0 -29 -37 -29h-160q-28 0 -38.5 11t-16.5 48l-84 492q-3 12 -8 15t-17 3h-29h-11.5t-6.5 -4.5t-4 -13.5v-465q0 -46 -15.5 -66t-52.5 -20h-110q-39 0 -52.5 18 t-13.5 70zM297 848q0 -37 20 -37h68q74 0 74 164q0 83 -17.5 116t-52.5 33h-65q-12 0 -19.5 -8t-7.5 -20v-248z" />
<glyph unicode="s" horiz-adv-x="618" d="M10 1118q0 136 61 192t193 56h234q31 0 44 -17t13 -57v-90q0 -42 -14.5 -60t-48.5 -18h-183q-49 0 -61 -38q-3 -11 -3 -23q0 -28 19 -59l219 -404q77 -142 101 -220t24 -161q0 -117 -57 -168t-162 -51h-305q-40 0 -54 17t-14 67v72q0 53 13 69.5t53 16.5h211q41 0 52 34 q4 12 4 24q0 21 -13 42l-232 436q-42 79 -64 148.5t-26 106t-4 85.5z" />
<glyph unicode="t" horiz-adv-x="645" d="M6 1206v70q0 54 14 72t54 18h499q37 0 51.5 -18t14.5 -64v-76q0 -49 -13.5 -66.5t-50.5 -17.5h-106q-15 0 -21 -8.5t-6 -32.5v-993q0 -54 -12.5 -72t-52.5 -18h-107q-41 0 -55 17t-14 67v999q0 25 -6.5 33t-20.5 8h-106q-37 0 -49.5 16t-12.5 66z" />
<glyph unicode="u" horiz-adv-x="741" d="M41 379v897q0 52 15.5 71t56.5 19h108q37 0 49.5 -17t12.5 -67v-934q0 -57 20.5 -81.5t69.5 -24.5q46 0 66 25t20 83v932q0 51 12.5 67.5t52.5 16.5h113q39 0 51 -16t12 -68v-893q0 -74 -6.5 -128.5t-27 -110t-56 -90t-97 -56.5t-146.5 -22q-100 0 -165.5 25.5t-100 80 t-47.5 122t-13 169.5z" />
<glyph unicode="v" horiz-adv-x="745" d="M6 1311q-2 13 -2 22q0 13 4 21q8 12 35 12h158q27 0 38 -12t17 -54l98 -778q3 -30 19 -30q15 0 18 30l98 778q6 42 17.5 54t38.5 12h157q26 0 34 -12q4 -7 5 -21q0 -10 -2 -22l-202 -1256q-4 -31 -17 -43t-39 -12h-217q-26 0 -38.5 12t-16.5 43z" />
<glyph unicode="w" horiz-adv-x="1132" d="M7 1332.5q0 15.5 9.5 22.5t18 9t24.5 2h140q25 0 35 -12t14 -47l96 -666q5 -27 18 -27q6 0 9.5 5t7.5 22l92 393l-29 258q-4 34 6 54t46 20h143q26 0 36 -12.5t15 -46.5l80 -664q3 -29 16 -29q14 0 17 29l82 670q6 53 47 53h149q30 0 40 -16q6 -9 6 -27q0 -13 -3 -31 l-213 -1233q-6 -33 -18.5 -46t-38.5 -13h-160q-31 0 -42 11.5t-15 49.5l-57 457q0 25 -11 25q-9 0 -14 -23l-113 -479q-5 -22 -17 -31.5t-38 -9.5h-133q-26 0 -36 10t-15 41l-193 1239q-1 27 -1 42.5z" />
<glyph unicode="x" horiz-adv-x="700" d="M8 18q-3 8 -4 19q0 16 6 39l135 633l-135 583q-4 17 -4 30q0 44 45 44h156q42 0 53 -55l74 -385q3 -17 6 -22t10 -5q8 0 11 5t6 22l73 385q11 55 54 55h155q45 0 45 -44q0 -13 -4 -30l-137 -583l137 -633q6 -23 6 -39q0 -12 -4 -19q-8 -18 -35 -18h-159q-47 0 -56 51 l-73 424q-6 25 -19 25q-12 0 -18 -25l-74 -424q-9 -51 -55 -51h-160q-27 0 -35 18z" />
<glyph unicode="y" horiz-adv-x="704" d="M4 1342q9 24 39 24h137q23 0 34.5 -9t18.5 -40l105 -445q10 -21 14 -22q6 0 8 3.5t7 18.5l104 445q7 31 18.5 40t34.5 9h138q30 0 38 -24q4 -10 4 -21q0 -13 -6 -27l-225 -772v-434q0 -54 -13 -71t-54 -17h-107q-41 0 -54.5 17t-13.5 71v434l-225 772q-5 14 -5 27 q0 11 3 21z" />
<glyph unicode="z" horiz-adv-x="636" d="M16 82v154v15.5v17t2 17.5t5.5 24.5t10 28t15.5 38.5l326 710q8 15 4 26t-21 11h-256q-44 0 -55.5 14.5t-11.5 69.5v72q0 53 12 69.5t53 16.5h457q32 0 46.5 -19t14.5 -61v-172q0 -44 -28 -104l-326 -719q-10 -19 -6 -34t25 -15h272q39 0 52.5 -17.5t13.5 -70.5v-70 q0 -49 -15.5 -66.5t-58.5 -17.5h-465q-40 0 -53 16.5t-13 65.5z" />
<glyph unicode="{" horiz-adv-x="485" d="M33 598q0 -21 8.5 -29.5t27.5 -14t29 -11.5q45 -28 45 -150v-293q0 -55 9 -97t30 -78t60 -55t96 -20q10 0 29.5 -1t29.5 -1q17 0 29 6t17.5 13.5t8.5 22t3 24t-1 28.5t-1 27q0 31 -6.5 47t-17 19.5t-23 3.5t-24.5 3.5t-22.5 14t-17 40.5t-6.5 79v219q0 41 -0.5 62t-6 62 t-16.5 64.5t-34 46t-56 29.5v5q24 7 42.5 19.5t30.5 24.5t20 34t12 36t6 42t2 41v44v244q0 49 6.5 79t17 40.5t22.5 14t24.5 3.5t23 3.5t17 19.5t6.5 47v49q0 27 -2.5 40t-15.5 22.5t-38 9.5h-71q-57 -1 -95 -20.5t-56 -56.5t-25 -77t-7 -96v-301q0 -107 -43 -144 q-9 -8 -28 -16t-29 -17.5t-10 -27.5v-123z" />
<glyph unicode="|" horiz-adv-x="348" d="M102 -264v1665q0 48 14 62t54 14h63q36 0 50 -15.5t14 -60.5v-1669q0 -43 -14 -56.5t-54 -13.5h-55q-43 0 -57.5 15t-14.5 59z" />
<glyph unicode="}" horiz-adv-x="485" d="M31 -86q0 10 1 28.5t1 26.5q0 31 6.5 47t17 19.5t22.5 3.5t24.5 3.5t23 14t17 40.5t6.5 79v219v43t2 44t6 48.5t12 42.5t19.5 40t30 27.5t42.5 18.5v5q-24 7 -42.5 19.5t-30 24.5t-19.5 34.5t-12 35.5t-6 42.5t-2 40.5v44v244q0 49 -6.5 79t-17 40.5t-22.5 14t-24.5 3.5 t-23 3.5t-17 19.5t-6.5 47v49q0 27 2.5 40t15 22.5t37.5 9.5h72q57 -1 94.5 -20.5t56 -56.5t25 -77t6.5 -96v-301q0 -107 43 -144q9 -8 28 -16t29.5 -17.5t10.5 -27.5v-123q0 -21 -8.5 -29.5t-28 -14t-29.5 -11.5q-45 -28 -45 -150v-293q0 -55 -9 -97t-30 -78t-60 -55 t-96 -20q-10 0 -29.5 -1t-29.5 -1q-17 0 -29 6t-17.5 13.5t-8 22t-2.5 24.5z" />
<glyph unicode="~" horiz-adv-x="1335" d="M0 655v84q0 42 9.5 56.5t47.5 35.5q69 38 152 60t158 22q66 0 125 -12.5t105 -30t92.5 -35t109.5 -30t135 -12.5q172 0 344 73q20 12 38.5 4t18.5 -39v-90q0 -44 -9.5 -60.5t-47.5 -33.5q-159 -65 -356 -65q-71 0 -133.5 12.5t-109.5 31t-93.5 36.5t-106 30.5 t-125.5 12.5q-72 0 -140 -22t-157 -65q-20 -12 -38.5 -3t-18.5 40z" />
<glyph unicode="&#xa1;" horiz-adv-x="352" d="M57 88l9 840q0 49 13.5 66.5t47.5 17.5h86q38 0 52.5 -17t15.5 -67l14 -842q3 -86 -64 -86h-108q-38 0 -52 18.5t-14 69.5zM57 1217v57q0 53 11.5 72.5t52.5 19.5h106q41 0 52.5 -19.5t11.5 -72.5v-57q0 -53 -11.5 -73t-52.5 -20h-106q-41 0 -52.5 20t-11.5 73z" />
<glyph unicode="&#xa2;" horiz-adv-x="403" d="M33 930q0 220 21 302.5t89 94.5v74q0 19 4.5 24t20.5 5h70q18 0 22 -5t4 -26v-68h70q20 0 28.5 -9t8.5 -32v-102q0 -26 -8 -34.5t-31 -8.5h-72q-34 0 -41.5 -30.5t-7.5 -172.5q0 -74 1.5 -111t7 -58.5t13 -25.5t23.5 -4h76q22 0 29.5 -8t7.5 -30v-107q0 -23 -7.5 -32 t-27.5 -9h-64v-61q0 -23 -6.5 -31t-23.5 -8h-62q-19 0 -26 6t-7 26v70q-65 12 -88.5 90t-23.5 281z" />
<glyph unicode="&#xa3;" horiz-adv-x="724" d="M16 717v92q0 40 10 56t35 16h80q9 0 12.5 4.5t6.5 17.5l30 236q15 116 59.5 171.5t121.5 55.5h235q35 0 49.5 -18t14.5 -64v-78q0 -45 -12 -63.5t-40 -18.5h-153q-20 0 -29 -12t-14 -43l-23 -151q-4 -15 -1 -26t18 -11h176q45 0 45 -74v-86q0 -46 -12.5 -63t-46.5 -17 h-181q-15 0 -20 -8t-8 -39l-37 -315q-3 -21 2.5 -29t25.5 -8h267q37 0 51 -19.5t14 -70.5v-66q0 -49 -14.5 -67.5t-52.5 -18.5h-435q-114 0 -110 141l8 127q8 71 47 336q6 37 -12 37h-70q-22 0 -29.5 15.5t-7.5 60.5z" />
<glyph unicode="&#xa5;" horiz-adv-x="944" d="M20 502v39q0 36 7.5 48.5t35.5 12.5h254l-41 148h-213q-28 0 -35.5 12.5t-7.5 48.5v39q0 37 7.5 50t35.5 13h164l-110 381q-10 25 -1.5 48.5t38.5 23.5h137q23 0 34.5 -9t18.5 -40l105 -445q10 -21 14 -22q5 0 7 3t7 19l105 445q7 31 18.5 40t34.5 9h137q30 0 38.5 -23.5 t-1.5 -48.5l-113 -381h172q28 0 35.5 -13t7.5 -50v-39q0 -36 -7.5 -48.5t-35.5 -12.5h-219l-43 -148h262q28 0 35.5 -12.5t7.5 -48.5v-39q0 -37 -7.5 -50.5t-35.5 -13.5h-284v-350q0 -54 -13.5 -71t-54.5 -17h-106q-41 0 -54.5 17t-13.5 71v350h-279q-28 0 -35.5 13.5 t-7.5 50.5z" />
<glyph unicode="&#xa7;" horiz-adv-x="770" d="M10 735q0 136 35 209t111 98v2q0 174 57.5 248t185.5 74h260q46 0 59 -12.5t13 -55.5v-55q0 -41 -13.5 -52t-58.5 -11h-217q-43 0 -58 -23.5t-15 -105.5q0 -29 40.5 -61t97.5 -65t114.5 -72.5t98 -99t40.5 -128.5q0 -137 -35 -208t-111 -95v-9q0 -172 -57.5 -243.5 t-185.5 -71.5h-260q-46 0 -59 12.5t-13 55.5v55q0 41 13.5 52t58.5 11h211q46 0 59.5 21.5t13.5 101.5q0 30 -28.5 59.5t-71.5 53.5t-92.5 56.5t-92.5 66t-71.5 84t-28.5 108.5zM221 741q0 -33 47 -67.5t127 -81.5t125 -88q29 17 29 114q0 38 -46 74t-127 82.5t-124 83.5 q-17 -9 -24 -35t-7 -82z" />
<glyph unicode="&#xa8;" horiz-adv-x="475" d="M20 1481v78q0 36 13 49.5t51 13.5h59q38 0 51 -13.5t13 -49.5v-78q0 -36 -13.5 -50t-50.5 -14h-59q-37 0 -50.5 14t-13.5 50zM268 1481v78q0 36 13 49.5t51 13.5h59q38 0 51 -13.5t13 -49.5v-78q0 -36 -13.5 -50t-50.5 -14h-59q-37 0 -50.5 14t-13.5 50z" />
<glyph unicode="&#xa9;" horiz-adv-x="733" d="M20 1151q0 144 102 245t245 101t244.5 -101t101.5 -245q0 -143 -101.5 -244.5t-244.5 -101.5t-245 102t-102 244zM84 1151q0 -117 83 -200t200 -83t199.5 83t82.5 200t-82.5 200t-199.5 83t-200 -83t-83 -200zM225 1147q0 229 146 229q37 0 64 -17t39.5 -43t17.5 -49.5 t4 -43.5h-68q-5 88 -57 88q-74 0 -74 -162q0 -160 74 -160q58 0 63 115h68q0 -95 -37 -138.5t-96 -43.5q-68 0 -106 60.5t-38 164.5z" />
<glyph unicode="&#xab;" horiz-adv-x="432" d="M10 524v264q0 37 5 51.5t22 26.5l125 92q33 24 33 -18v-137q0 -37 -15 -58l-65 -94l59 -84q2 -4 6.5 -10.5t6 -9t4 -7t3 -7.5t1 -8t0.5 -11v-145q0 -35 -27 -21l-125 90q-33 23 -33 86zM238 524v264q0 38 4.5 52t21.5 26l125 92q33 24 33 -18v-137q0 -33 -14 -58l-66 -94 l59 -84q2 -4 6.5 -10.5t6 -9t4 -7t3 -7.5t1 -8t0.5 -11v-145q0 -35 -27 -21l-125 90q-32 22 -32 86z" />
<glyph unicode="&#xad;" horiz-adv-x="432" d="M20 672v102q0 51 13 67.5t53 16.5h260q40 0 53 -16.5t13 -67.5v-102q0 -51 -13 -67.5t-53 -16.5h-260q-40 0 -53 16.5t-13 67.5z" />
<glyph unicode="&#xae;" horiz-adv-x="733" d="M20 1151q0 144 102 245t245 101t244.5 -101t101.5 -245q0 -143 -101.5 -244.5t-244.5 -101.5t-245 102t-102 244zM84 1151q0 -117 83 -200t200 -83t199.5 83t82.5 200t-82.5 200t-199.5 83t-200 -83t-83 -200zM268 934v432h88q65 0 92 -29.5t27 -93.5q0 -89 -49 -117 l57 -192h-67l-51 174h-33v-174h-64zM332 1180h16q34 0 47 14t13 47q0 28 -12 39.5t-42 11.5h-22v-112z" />
<glyph unicode="&#xaf;" horiz-adv-x="481" d="M10 1481v51q0 40 19.5 51.5t72.5 11.5h277q53 0 72.5 -11.5t19.5 -51.5v-51q0 -41 -19.5 -52.5t-72.5 -11.5h-277q-53 0 -72.5 11.5t-19.5 52.5z" />
<glyph unicode="&#xb0;" horiz-adv-x="772" d="M137 1229q0 112 80 192t193 80q112 0 192 -79.5t80 -192.5t-80 -193t-192 -80t-191.5 80t-81.5 193zM281 1229q2 -55 39 -92t92 -37q53 0 90 37.5t37 91.5t-37.5 91.5t-91.5 37.5t-91.5 -37.5t-37.5 -91.5z" />
<glyph unicode="&#xb1;" horiz-adv-x="880" d="M14 78v92q0 47 13.5 64.5t50.5 17.5h725q37 0 50 -17.5t13 -64.5v-92q0 -48 -15.5 -63t-49.5 -15h-721q-34 0 -50 15.5t-16 62.5zM14 662v96q0 47 13.5 64.5t50.5 17.5h229v223q0 34 15 49.5t63 15.5h104q47 0 64.5 -13t17.5 -50v-225h232q37 0 50 -17.5t13 -64.5v-96 q0 -48 -15.5 -63t-49.5 -15h-230v-215q0 -37 -17.5 -50.5t-64.5 -13.5h-104q-47 0 -62.5 16t-15.5 50v213h-227q-34 0 -50 15.5t-16 62.5z" />
<glyph unicode="&#xb4;" horiz-adv-x="380" d="M-6 1436q0 14 10 26l92 121q15 21 23 27t22 6h181q28 0 28 -27q0 -16 -20 -33l-142 -120q-10 -9 -13.5 -11.5t-11.5 -5t-20 -2.5h-127q-22 0 -22 19z" />
<glyph unicode="&#xb6;" horiz-adv-x="884" d="M33 1024q0 89 32 165t102.5 126.5t168.5 50.5h403q38 0 51 -13t13 -53v-110q0 -40 -14 -53t-48 -13v-1276q0 -29 -12.5 -40t-46.5 -11h-66q-34 0 -45.5 12.5t-11.5 38.5v1276h-106v-1276q0 -29 -12 -40t-46 -11h-67q-34 0 -45 12.5t-11 38.5v844q-75 0 -130.5 49t-82 123 t-26.5 160z" />
<glyph unicode="&#xb7;" horiz-adv-x="286" d="M20 645v121q0 53 11.5 72.5t52.5 19.5h119q40 0 51.5 -19.5t11.5 -72.5v-121q0 -53 -11.5 -72.5t-51.5 -19.5h-119q-41 0 -52.5 19.5t-11.5 72.5z" />
<glyph unicode="&#xb8;" horiz-adv-x="251" d="M0 -154q0 37 16.5 50.5t63.5 13.5h43q27 0 27 31q0 13 -29 112h98q33 -108 33 -166q0 -77 -29 -122.5t-78 -45.5h-73q-46 0 -59 15t-13 67v45z" />
<glyph unicode="&#xbb;" horiz-adv-x="432" d="M10 369v145q0 6 0.5 11t1 8t3 7.5t4 7t6 9t6.5 10.5l59 84l-65 94q-15 21 -15 58v137q0 42 33 18l125 -92q17 -12 22 -26.5t5 -51.5v-264q0 -63 -33 -86l-125 -90q-27 -14 -27 21zM238 369v145q0 18 3 26t17 27l59 84l-65 94q-14 20 -14 58v137q0 20 5.5 25t24.5 -7 l127 -92q16 -13 21.5 -28t5.5 -50v-264q0 -63 -33 -86l-127 -90q-24 -12 -24 21z" />
<glyph unicode="&#xbf;" horiz-adv-x="548" d="M23 283q0 88 10 141t43 123l80 168q13 29 16.5 46.5t3.5 59.5v133q0 35 14 47.5t50 12.5h102q40 0 54 -16t14 -60v-186q0 -41 -3.5 -59t-17.5 -48l-80 -168q-32 -65 -38.5 -90t-6.5 -68q0 -42 14.5 -59.5t53.5 -17.5h135q68 0 68 -86v-70q0 -86 -68 -86h-246 q-56 0 -89.5 10t-60 40t-37.5 86t-11 147zM176 1217v57q0 53 11.5 72.5t52.5 19.5h106q41 0 52.5 -19.5t11.5 -72.5v-57q0 -53 -11.5 -73t-52.5 -20h-106q-41 0 -52.5 20t-11.5 73z" />
<glyph unicode="&#xc0;" horiz-adv-x="759" d="M6 31l166 1257q6 44 24.5 61t61.5 17h238q37 0 55 -18t24 -62l179 -1255q3 -31 -31 -31h-195q-16 0 -23.5 8t-10.5 29l-39 289q-3 20 -10 26t-25 6h-86q-18 0 -25 -5.5t-10 -26.5l-33 -293q-2 -20 -8.5 -26.5t-28.5 -6.5h-188q-38 0 -35 31zM139 1589q0 27 29 27h180 q14 0 22 -6t23 -27l92 -121q11 -14 11 -26q0 -19 -23 -19h-127q-17 0 -24 3.5t-21 15.5l-141 120q-21 18 -21 33zM324 623q-2 -10 5 -16.5t21 -6.5h51q32 0 29 23l-39 471q-3 30 -16 30q-14 0 -17 -32z" />
<glyph unicode="&#xc1;" horiz-adv-x="759" d="M6 31l166 1257q6 44 24.5 61t61.5 17h238q37 0 55 -18t24 -62l179 -1255q3 -31 -31 -31h-195q-16 0 -23.5 8t-10.5 29l-39 289q-3 20 -10 26t-25 6h-86q-18 0 -25 -5.5t-10 -26.5l-33 -293q-2 -20 -8.5 -26.5t-28.5 -6.5h-188q-38 0 -35 31zM258 1436q0 14 10 26l92 121 q15 21 23.5 27t22.5 6h180q28 0 28 -27q0 -16 -20 -33l-141 -120q-10 -9 -13.5 -11.5t-11.5 -5t-20 -2.5h-127q-23 0 -23 19zM324 623q-2 -10 5 -16.5t21 -6.5h51q32 0 29 23l-39 471q-3 30 -16 30q-14 0 -17 -32z" />
<glyph unicode="&#xc2;" horiz-adv-x="759" d="M6 31l166 1257q6 44 24.5 61t61.5 17h238q37 0 55 -18t24 -62l179 -1255q3 -31 -31 -31h-195q-16 0 -23.5 8t-10.5 29l-39 289q-3 20 -10 26t-25 6h-86q-18 0 -25 -5.5t-10 -26.5l-33 -293q-2 -20 -8.5 -26.5t-28.5 -6.5h-188q-38 0 -35 31zM147 1432q0 3 5 18l69 133 q9 19 20 26t35 7h211q24 0 35.5 -7t20.5 -26l69 -133q4 -12 4 -18q0 -15 -18 -15h-111q-30 0 -47 21l-59 78l-57 -78q-17 -21 -48 -21h-110q-19 0 -19 15zM324 623q-2 -10 5 -16.5t21 -6.5h51q32 0 29 23l-39 471q-3 30 -16 30q-14 0 -17 -32z" />
<glyph unicode="&#xc3;" horiz-adv-x="759" d="M6 31l166 1257q6 44 24.5 61t61.5 17h238q37 0 55 -18t24 -62l179 -1255q3 -31 -31 -31h-195q-16 0 -23.5 8t-10.5 29l-39 289q-3 20 -10 26t-25 6h-86q-18 0 -25 -5.5t-10 -26.5l-33 -293q-2 -20 -8.5 -26.5t-28.5 -6.5h-188q-38 0 -35 31zM129 1470v89q0 57 51 57h82 q5 0 35 -6l145 -43q15 -6 25 -6q8 0 8 12v10q0 14 10 23.5t23 9.5h51q30 0 40.5 -11.5t10.5 -41.5v-88q0 -58 -51 -58h-82q-5 0 -35 6l-145 43q-18 7 -25 7q-8 0 -8 -13v-10q0 -14 -10 -23.5t-23 -9.5h-51q-30 0 -40.5 11.5t-10.5 41.5zM324 623q-2 -10 5 -16.5t21 -6.5h51 q32 0 29 23l-39 471q-3 30 -16 30q-14 0 -17 -32z" />
<glyph unicode="&#xc4;" horiz-adv-x="759" d="M6 31l166 1257q6 44 24.5 61t61.5 17h238q37 0 55 -18t24 -62l179 -1255q3 -31 -31 -31h-195q-16 0 -23.5 8t-10.5 29l-39 289q-3 20 -10 26t-25 6h-86q-18 0 -25 -5.5t-10 -26.5l-33 -293q-2 -20 -8.5 -26.5t-28.5 -6.5h-188q-38 0 -35 31zM162 1481v78q0 36 13 49.5 t50 13.5h60q37 0 50 -13.5t13 -49.5v-78q0 -36 -13 -50t-50 -14h-60q-37 0 -50 14t-13 50zM324 623q-2 -10 5 -16.5t21 -6.5h51q32 0 29 23l-39 471q-3 30 -16 30q-14 0 -17 -32zM410 1481v78q0 36 13 49.5t50 13.5h59q38 0 51 -13.5t13 -49.5v-78q0 -36 -13.5 -50 t-50.5 -14h-59q-37 0 -50 14t-13 50z" />
<glyph unicode="&#xc5;" horiz-adv-x="759" d="M6 31l166 1257q4 38 20 54.5t46 21.5q-26 43 -30 72q-1 9 -1 20q0 76 46.5 126t117.5 50t116 -50t45 -128q0 -49 -28 -88q31 -3 48 -21.5t23 -58.5l179 -1255q3 -31 -31 -31h-195q-16 0 -23.5 8t-10.5 29l-39 289q-3 20 -10 26t-25 6h-86q-18 0 -25 -5.5t-10 -26.5 l-33 -293q-2 -20 -8.5 -26.5t-28.5 -6.5h-188q-38 0 -35 31zM305 1454q0 -35 18.5 -56.5t47.5 -21.5q28 0 46.5 21.5t18.5 54.5q0 35 -18.5 57.5t-46.5 22.5q-30 0 -48 -21t-18 -57zM324 623q-2 -10 5 -16.5t21 -6.5h51q32 0 29 23l-39 471q-3 30 -16 30q-14 0 -17 -32z" />
<glyph unicode="&#xc6;" horiz-adv-x="1046" d="M6 31l270 1257q9 44 30.5 61t64.5 17h583q39 0 52.5 -15.5t13.5 -64.5v-76q0 -51 -14 -68.5t-52 -17.5h-200q-23 0 -30 -8.5t-7 -36.5v-190q0 -30 5.5 -36.5t31.5 -6.5h102q34 0 46.5 -14.5t12.5 -55.5v-104q0 -39 -13 -53.5t-46 -14.5h-102q-22 0 -29.5 -6t-7.5 -25 v-286q0 -26 8 -35.5t35 -9.5h203q41 0 57 -19t16 -69v-66q0 -47 -16 -67.5t-53 -20.5h-457q-31 0 -31 37v289q0 20 -6 26t-24 6h-89q-18 0 -25 -5.5t-11 -26.5l-58 -293q-5 -21 -12.5 -27t-28.5 -6h-188q-37 0 -31 31zM373 623q-2 -10 4 -16.5t20 -6.5h52q30 0 30 23v471 q0 30 -12 30q-15 0 -21 -32z" />
<glyph unicode="&#xc7;" horiz-adv-x="593" d="M35 657v154t2 130t5.5 111.5t10 90.5t15.5 75t22.5 56t30 43t39 27.5t49.5 17t61 4.5h254q35 0 49.5 -16t14.5 -56v-92q0 -47 -13.5 -62.5t-54.5 -15.5h-155q-41 0 -54 -16q-24 -29 -28 -178q-2 -74 -2 -250q0 -169 2 -249.5t12 -127.5t22.5 -54t42.5 -7h160 q37 0 51.5 -16t14.5 -54v-98q0 -41 -14 -57.5t-48 -16.5h-116q18 -66 18 -113q0 -77 -29 -122.5t-78 -45.5h-73q-46 0 -59 15t-13 67v45q0 37 16.5 50.5t63.5 13.5h43q27 0 27 31q0 9 -13 59h-30q-54 0 -90.5 10.5t-65 40t-45 73.5t-27.5 122t-14.5 173.5t-3.5 237.5z" />
<glyph unicode="&#xc8;" horiz-adv-x="616" d="M53 90v1186q0 51 15.5 70.5t54.5 19.5h405q39 0 52.5 -15.5t13.5 -64.5v-76q0 -51 -14 -68.5t-52 -17.5h-200q-23 0 -30 -8.5t-7 -36.5v-190q0 -30 5.5 -36.5t31.5 -6.5h102q34 0 46.5 -14.5t12.5 -55.5v-104q0 -39 -13 -53.5t-46 -14.5h-102q-22 0 -29.5 -6t-7.5 -25 v-286q0 -26 8 -35.5t35 -9.5h203q41 0 57 -19t16 -69v-66q0 -47 -16 -67.5t-53 -20.5h-418q-41 0 -55.5 18t-14.5 72zM88 1589q0 27 29 27h180q14 0 22 -6t23 -27l92 -121q10 -12 10 -26q0 -19 -22 -19h-127q-17 0 -24 3.5t-21 15.5l-141 120q-21 18 -21 33z" />
<glyph unicode="&#xc9;" horiz-adv-x="616" d="M53 90v1186q0 51 15.5 70.5t54.5 19.5h405q39 0 52.5 -15.5t13.5 -64.5v-76q0 -51 -14 -68.5t-52 -17.5h-200q-23 0 -30 -8.5t-7 -36.5v-190q0 -30 5.5 -36.5t31.5 -6.5h102q34 0 46.5 -14.5t12.5 -55.5v-104q0 -39 -13 -53.5t-46 -14.5h-102q-22 0 -29.5 -6t-7.5 -25 v-286q0 -26 8 -35.5t35 -9.5h203q41 0 57 -19t16 -69v-66q0 -47 -16 -67.5t-53 -20.5h-418q-41 0 -55.5 18t-14.5 72zM152 1436q0 14 10 26l92 121q15 21 23 27t22 6h180q29 0 29 -27q0 -15 -21 -33l-141 -120q-10 -9 -13.5 -11.5t-11.5 -5t-20 -2.5h-127q-22 0 -22 19z" />
<glyph unicode="&#xca;" horiz-adv-x="616" d="M53 90v1186q0 51 15.5 70.5t54.5 19.5h405q39 0 52.5 -15.5t13.5 -64.5v-76q0 -51 -14 -68.5t-52 -17.5h-200q-23 0 -30 -8.5t-7 -36.5v-190q0 -30 5.5 -36.5t31.5 -6.5h102q34 0 46.5 -14.5t12.5 -55.5v-104q0 -39 -13 -53.5t-46 -14.5h-102q-22 0 -29.5 -6t-7.5 -25 v-286q0 -26 8 -35.5t35 -9.5h203q41 0 57 -19t16 -69v-66q0 -47 -16 -67.5t-53 -20.5h-418q-41 0 -55.5 18t-14.5 72zM66 1432q0 6 4 18l69 133q9 19 20.5 26t35.5 7h211q24 0 35 -7t20 -26l69 -133q5 -15 5 -18q0 -15 -19 -15h-110q-31 0 -48 21l-59 78l-57 -78 q-17 -21 -47 -21h-111q-18 0 -18 15z" />
<glyph unicode="&#xcb;" horiz-adv-x="616" d="M53 90v1186q0 51 15.5 70.5t54.5 19.5h405q39 0 52.5 -15.5t13.5 -64.5v-76q0 -51 -14 -68.5t-52 -17.5h-200q-23 0 -30 -8.5t-7 -36.5v-190q0 -30 5.5 -36.5t31.5 -6.5h102q34 0 46.5 -14.5t12.5 -55.5v-104q0 -39 -13 -53.5t-46 -14.5h-102q-22 0 -29.5 -6t-7.5 -25 v-286q0 -26 8 -35.5t35 -9.5h203q41 0 57 -19t16 -69v-66q0 -47 -16 -67.5t-53 -20.5h-418q-41 0 -55.5 18t-14.5 72zM84 1481v78q0 36 13 49.5t50 13.5h60q37 0 50 -13.5t13 -49.5v-78q0 -36 -13 -50t-50 -14h-60q-37 0 -50 14t-13 50zM332 1481v78q0 36 13 49.5t50 13.5 h60q37 0 50 -13.5t13 -49.5v-78q0 -36 -13 -50t-50 -14h-60q-37 0 -50 14t-13 50z" />
<glyph unicode="&#xcc;" horiz-adv-x="348" d="M-39 1589q0 27 29 27h180q14 0 22 -6t23 -27l92 -121q10 -12 10 -26q0 -19 -22 -19h-127q-17 0 -24 3.5t-21 15.5l-141 120q-21 18 -21 33zM53 90v1184q0 53 14.5 72.5t53.5 19.5h110q36 0 50 -20t14 -72v-1188q0 -54 -14 -70t-54 -16h-102q-43 0 -57.5 17.5t-14.5 72.5z " />
<glyph unicode="&#xcd;" horiz-adv-x="348" d="M10 1436q0 14 10 26l93 121q15 21 23 27t22 6h180q29 0 29 -27q0 -15 -21 -33l-141 -120q-10 -9 -13.5 -11.5t-11.5 -5t-20 -2.5h-127q-23 0 -23 19zM53 90v1184q0 53 14.5 72.5t53.5 19.5h110q36 0 50 -20t14 -72v-1188q0 -54 -14 -70t-54 -16h-102q-43 0 -57.5 17.5 t-14.5 72.5z" />
<glyph unicode="&#xce;" horiz-adv-x="348" d="M-61 1432q0 6 4 18l69 133q9 19 20.5 26t35.5 7h211q24 0 35 -7t20 -26l69 -133q5 -15 5 -18q0 -15 -19 -15h-110q-31 0 -48 21l-59 78l-57 -78q-17 -21 -47 -21h-111q-18 0 -18 15zM53 90v1184q0 53 14.5 72.5t53.5 19.5h110q36 0 50 -20t14 -72v-1188q0 -54 -14 -70 t-54 -16h-102q-43 0 -57.5 17.5t-14.5 72.5z" />
<glyph unicode="&#xcf;" horiz-adv-x="348" d="M-41 1481v78q0 36 13 49.5t51 13.5h59q37 0 50 -13.5t13 -49.5v-78q0 -36 -13 -50t-50 -14h-59q-37 0 -50.5 14t-13.5 50zM53 90v1184q0 53 14.5 72.5t53.5 19.5h110q36 0 50 -20t14 -72v-1188q0 -54 -14 -70t-54 -16h-102q-43 0 -57.5 17.5t-14.5 72.5zM207 1481v78 q0 36 13 49.5t50 13.5h60q37 0 50 -13.5t13 -49.5v-78q0 -36 -13 -50t-50 -14h-60q-37 0 -50 14t-13 50z" />
<glyph unicode="&#xd0;" horiz-adv-x="749" d="M-59 700v52q0 40 19.5 51.5t72.5 11.5h20v459q0 51 14.5 71.5t51.5 20.5h350q43 0 76 -8t58.5 -29t43.5 -46.5t30.5 -71t19.5 -91.5t11.5 -119.5t5.5 -143t1 -173.5q0 -155 -4 -257.5t-15.5 -183t-28.5 -125t-48 -72.5t-68 -37t-94 -9h-332q-45 0 -58.5 16.5t-13.5 71.5 v549h-20q-53 0 -72.5 11.5t-19.5 51.5zM287 297q0 -38 11.5 -46.5t63.5 -8.5q54 0 71 16q28 26 34 149q4 74 4 257q0 313 -11 379q-10 62 -42 75q-18 6 -62 6t-56.5 -10.5t-12.5 -50.5v-248h22q53 0 72.5 -11.5t19.5 -51.5v-52q0 -40 -19.5 -51.5t-72.5 -11.5h-22v-340z" />
<glyph unicode="&#xd1;" horiz-adv-x="800" d="M53 92v1184q0 54 14.5 72t57.5 18h94q38 0 51.5 -10.5t28.5 -52.5l172 -508q9 -29 23 -29q10 0 10 39v471q0 49 13.5 69.5t49.5 20.5h107q38 0 56 -18t18 -74v-1182q0 -54 -14.5 -73t-57.5 -19h-94q-38 0 -51.5 10.5t-28.5 52.5l-172 510q-9 29 -23 29q-10 0 -10 -39 v-473q0 -48 -14 -69t-50 -21h-106q-38 0 -56 18t-18 74zM135 1470v89q0 57 51 57h82q5 0 35 -6l146 -43q15 -6 24 -6q8 0 8 12v10q0 14 10 23.5t23 9.5h51q30 0 40.5 -11.5t10.5 -41.5v-88q0 -58 -51 -58h-82q-4 0 -34 6l-146 43q-17 7 -24 7q-9 0 -9 -13v-10 q0 -14 -9.5 -23.5t-22.5 -9.5h-52q-30 0 -40.5 11.5t-10.5 41.5z" />
<glyph unicode="&#xd2;" d="M35 679v7v7q0 89 0.5 132t3 117t8.5 110.5t17 92.5t27.5 83t41.5 62.5t57.5 51t76.5 27t98 11.5t98 -11.5t76.5 -27.5t57 -51t41 -62.5t27.5 -84t17 -93t8.5 -111t3 -118t0.5 -131.5v-4q0 -283 -16 -392q-28 -198 -133 -267q-69 -45 -180 -45q-54 0 -98 12t-76.5 28 t-57.5 52t-41.5 64t-27.5 85t-17 94t-8.5 112t-3 118t-0.5 132zM133 1589q0 27 29 27h180q14 0 22 -6t23 -27l92 -121q10 -12 10 -26q0 -19 -22 -19h-127q-17 0 -24 3.5t-21 15.5l-141 120q-21 18 -21 33zM274 686q2 -290 15 -367t76 -77t76.5 78t13.5 366q-2 285 -12 349 q-11 70 -48 83q-12 4 -30 4q-63 0 -77 -75.5t-14 -360.5z" />
<glyph unicode="&#xd3;" d="M35 679v7v7q0 89 0.5 132t3 117t8.5 110.5t17 92.5t27.5 83t41.5 62.5t57.5 51t76.5 27t98 11.5t98 -11.5t76.5 -27.5t57 -51t41 -62.5t27.5 -84t17 -93t8.5 -111t3 -118t0.5 -131.5v-4q0 -283 -16 -392q-28 -198 -133 -267q-69 -45 -180 -45q-54 0 -98 12t-76.5 28 t-57.5 52t-41.5 64t-27.5 85t-17 94t-8.5 112t-3 118t-0.5 132zM213 1436q0 14 10 26l92 121q15 21 23 27t22 6h181q28 0 28 -27q0 -16 -20 -33l-141 -120q-10 -9 -14 -12t-12 -5t-20 -2h-126q-23 0 -23 19zM274 686q2 -290 15 -367t76 -77t76.5 78t13.5 366q-2 285 -12 349 q-11 70 -48 83q-12 4 -30 4q-63 0 -77 -75.5t-14 -360.5z" />
<glyph unicode="&#xd4;" d="M35 679v7v7q0 89 0.5 132t3 117t8.5 110.5t17 92.5t27.5 83t41.5 62.5t57.5 51t76.5 27t98 11.5t98 -11.5t76.5 -27.5t57 -51t41 -62.5t27.5 -84t17 -93t8.5 -111t3 -118t0.5 -131.5v-4q0 -283 -16 -392q-28 -198 -133 -267q-69 -45 -180 -45q-54 0 -98 12t-76.5 28 t-57.5 52t-41.5 64t-27.5 85t-17 94t-8.5 112t-3 118t-0.5 132zM121 1432q0 6 4 18l70 133q9 19 20 26t35 7h211q24 0 35 -7t20 -26l70 -133q4 -12 4 -18q0 -15 -19 -15h-110q-30 0 -47 21l-60 78l-57 -78q-17 -21 -47 -21h-111q-18 0 -18 15zM274 686q2 -290 15 -367 t76 -77t76.5 78t13.5 366q-2 285 -12 349q-11 70 -48 83q-12 4 -30 4q-63 0 -77 -75.5t-14 -360.5z" />
<glyph unicode="&#xd5;" d="M35 679v7v7q0 89 0.5 132t3 117t8.5 110.5t17 92.5t27.5 83t41.5 62.5t57.5 51t76.5 27t98 11.5t98 -11.5t76.5 -27.5t57 -51t41 -62.5t27.5 -84t17 -93t8.5 -111t3 -118t0.5 -131.5v-4q0 -283 -16 -392q-28 -198 -133 -267q-69 -45 -180 -45q-54 0 -98 12t-76.5 28 t-57.5 52t-41.5 64t-27.5 85t-17 94t-8.5 112t-3 118t-0.5 132zM115 1470v89q0 57 51 57h82q5 0 35 -6l145 -43q15 -6 25 -6q8 0 8 12v10q0 14 10 23.5t23 9.5h51q30 0 40.5 -11.5t10.5 -41.5v-88q0 -58 -51 -58h-82q-5 0 -35 6l-145 43q-17 7 -25 7t-8 -13v-10 q0 -14 -10 -23.5t-23 -9.5h-51q-30 0 -40.5 11.5t-10.5 41.5zM274 686q2 -290 15 -367t76 -77t76.5 78t13.5 366q-2 285 -12 349q-11 70 -48 83q-12 4 -30 4q-63 0 -77 -75.5t-14 -360.5z" />
<glyph unicode="&#xd6;" d="M35 679v7v7q0 89 0.5 132t3 117t8.5 110.5t17 92.5t27.5 83t41.5 62.5t57.5 51t76.5 27t98 11.5t98 -11.5t76.5 -27.5t57 -51t41 -62.5t27.5 -84t17 -93t8.5 -111t3 -118t0.5 -131.5v-4q0 -283 -16 -392q-28 -198 -133 -267q-69 -45 -180 -45q-54 0 -98 12t-76.5 28 t-57.5 52t-41.5 64t-27.5 85t-17 94t-8.5 112t-3 118t-0.5 132zM133 1481v78q0 36 13 49.5t51 13.5h59q37 0 50 -13.5t13 -49.5v-78q0 -36 -13 -50t-50 -14h-59q-37 0 -50.5 14t-13.5 50zM274 686q2 -290 15 -367t76 -77t76.5 78t13.5 366q-2 285 -12 349q-11 70 -48 83 q-12 4 -30 4q-63 0 -77 -75.5t-14 -360.5zM381 1481v78q0 36 13 49.5t50 13.5h60q37 0 50 -13.5t13 -49.5v-78q0 -36 -13 -50t-50 -14h-60q-37 0 -50 14t-13 50z" />
<glyph unicode="&#xd7;" horiz-adv-x="880" d="M35 471q0 19 24 43l193 193l-191 192q-24 24 -24 43q0 24 35 59l73 74q37 37 60 37q18 0 43 -25l192 -192l193 192q25 25 43 25q22 0 59 -37l74 -74q35 -35 35 -59q0 -18 -25 -43l-192 -192l194 -193q25 -25 25 -43q0 -22 -37 -59l-74 -74q-35 -35 -59 -35q-18 0 -43 25 l-193 192l-192 -192q-25 -25 -43 -25q-25 0 -60 35l-73 74q-37 37 -37 59z" />
<glyph unicode="&#xd8;" d="M-4.5 9.5q-4.5 9.5 8.5 37.5l68 146q-17 59 -25.5 146t-10 153t-1.5 194v7q0 89 0.5 132t3 117t8.5 110.5t17 92.5t27.5 83t41.5 62.5t57.5 51t76.5 27t98 11.5q149 0 227 -84l18 37q11 22 18.5 27.5t30.5 5.5h41q26 0 33.5 -6.5t-2.5 -34.5l-74 -156q17 -57 25.5 -142 t10 -149.5t1.5 -191.5q0 -283 -16 -392q-28 -198 -133 -267q-69 -45 -180 -45q-155 0 -232 90l-18 -41q-15 -31 -41 -31h-45q-29 0 -33.5 9.5zM270 906q0 -85 2 -220l2 -65l175 370q-7 76 -25.5 103.5t-58.5 27.5q-34 0 -53 -17.5t-30.5 -65.5t-11.5 -133zM281 379 q6 -77 25 -107t59 -30q63 0 76.5 78t13.5 366v59z" />
<glyph unicode="&#xd9;" horiz-adv-x="741" d="M41 379v897q0 52 15.5 71t56.5 19h108q37 0 49.5 -17t12.5 -67v-934q0 -57 20.5 -81.5t69.5 -24.5q46 0 66 25t20 83v932q0 51 12.5 67.5t52.5 16.5h113q39 0 51 -16t12 -68v-893q0 -74 -6.5 -128.5t-27 -110t-56 -90t-97 -56.5t-146.5 -22q-100 0 -165.5 25.5t-100 80 t-47.5 122t-13 169.5zM127 1589q0 27 29 27h180q14 0 22 -6t23 -27l92 -121q10 -12 10 -26q0 -19 -22 -19h-127q-17 0 -24 3.5t-21 15.5l-142 120q-20 17 -20 33z" />
<glyph unicode="&#xda;" horiz-adv-x="741" d="M41 379v897q0 52 15.5 71t56.5 19h108q37 0 49.5 -17t12.5 -67v-934q0 -57 20.5 -81.5t69.5 -24.5q46 0 66 25t20 83v932q0 51 12.5 67.5t52.5 16.5h113q39 0 51 -16t12 -68v-893q0 -74 -6.5 -128.5t-27 -110t-56 -90t-97 -56.5t-146.5 -22q-100 0 -165.5 25.5t-100 80 t-47.5 122t-13 169.5zM219 1436q0 14 10 26l93 121q15 21 23 27t22 6h180q28 0 28 -27q0 -16 -20 -33l-141 -120q-10 -9 -13.5 -11.5t-11.5 -5t-20 -2.5h-127q-23 0 -23 19z" />
<glyph unicode="&#xdb;" horiz-adv-x="741" d="M41 379v897q0 52 15.5 71t56.5 19h108q37 0 49.5 -17t12.5 -67v-934q0 -57 20.5 -81.5t69.5 -24.5q46 0 66 25t20 83v932q0 51 12.5 67.5t52.5 16.5h113q39 0 51 -16t12 -68v-893q0 -74 -6.5 -128.5t-27 -110t-56 -90t-97 -56.5t-146.5 -22q-100 0 -165.5 25.5t-100 80 t-47.5 122t-13 169.5zM125 1432q0 6 4 18l70 133q9 19 20 26t35 7h211q24 0 35 -7t20 -26l70 -133q4 -12 4 -18q0 -15 -19 -15h-110q-30 0 -47 21l-60 78l-57 -78q-17 -21 -47 -21h-111q-18 0 -18 15z" />
<glyph unicode="&#xdc;" horiz-adv-x="741" d="M41 379v897q0 52 15.5 71t56.5 19h108q37 0 49.5 -17t12.5 -67v-934q0 -57 20.5 -81.5t69.5 -24.5q46 0 66 25t20 83v932q0 51 12.5 67.5t52.5 16.5h113q39 0 51 -16t12 -68v-893q0 -74 -6.5 -128.5t-27 -110t-56 -90t-97 -56.5t-146.5 -22q-100 0 -165.5 25.5t-100 80 t-47.5 122t-13 169.5zM137 1481v78q0 36 13 49.5t51 13.5h59q38 0 51 -13.5t13 -49.5v-78q0 -36 -13.5 -50t-50.5 -14h-59q-37 0 -50.5 14t-13.5 50zM385 1481v78q0 36 13 49.5t51 13.5h59q37 0 50 -13.5t13 -49.5v-78q0 -36 -13 -50t-50 -14h-59q-37 0 -50.5 14t-13.5 50z " />
<glyph unicode="&#xdd;" horiz-adv-x="704" d="M4.5 1342.5q8.5 23.5 38.5 23.5h137q23 0 34.5 -9t18.5 -40l105 -445q10 -21 14 -22q6 0 8 3.5t7 18.5l104 445q7 31 18.5 40t34.5 9h138q30 0 38 -23.5t-2 -48.5l-225 -772v-434q0 -54 -13 -71t-54 -17h-107q-41 0 -54.5 17t-13.5 71v434l-225 772q-10 25 -1.5 48.5z M207 1436q0 9 10 26l92 121q18 22 25 27.5t20 5.5h181q13 0 21.5 -7.5t8.5 -19.5q0 -16 -20 -33l-142 -120q-3 -2 -7 -5.5t-5.5 -4.5l-4.5 -3t-5.5 -3t-6 -2t-7.5 -1h-9h-127q-10 0 -17 5t-7 14z" />
<glyph unicode="&#xde;" horiz-adv-x="702" d="M53 88l2 1190q0 54 13 71t53 17h110q41 0 53.5 -16.5t12.5 -71.5v-129h137q129 0 195.5 -110.5t66.5 -325.5q0 -206 -58.5 -314t-170.5 -108h-172v-203q0 -54 -13 -71t-53 -17h-110q-41 0 -53.5 16.5t-12.5 71.5zM295 567q0 -20 7 -27.5t24 -7.5h67q23 0 35 11.5t19.5 52 t7.5 119.5q0 81 -7.5 123.5t-21 55.5t-39.5 13h-59q-17 0 -25 -7t-8 -30v-303z" />
<glyph unicode="&#xdf;" horiz-adv-x="782" d="M53 92v1186q0 49 14.5 68.5t51.5 19.5h426q51 0 88 -18t59 -47t34.5 -75t17 -93.5t4.5 -110.5q0 -129 -26 -201.5t-85 -107.5q129 -51 129 -344q0 -84 -10.5 -147.5t-34.5 -115.5t-68.5 -79t-107.5 -27h-160q-22 0 -29.5 8t-7.5 33v149q0 52 37 52h35q61 0 80.5 34.5 t19.5 135.5q0 106 -22 141t-76 33l-12 -2q-22 0 -28.5 8t-6.5 33v151q0 27 7 39t28 12h10q54 0 71 31t17 117q0 90 -21.5 119.5t-64.5 29.5h-94q-22 0 -28.5 -8t-6.5 -33v-991q0 -54 -13 -73t-51 -19h-110q-38 0 -52 19t-14 73z" />
<glyph unicode="&#xe0;" horiz-adv-x="759" d="M6 31l166 1257q6 44 24.5 61t61.5 17h238q37 0 55 -18t24 -62l179 -1255q3 -31 -31 -31h-195q-16 0 -23.5 8t-10.5 29l-39 289q-3 20 -10 26t-25 6h-86q-18 0 -25 -5.5t-10 -26.5l-33 -293q-2 -20 -8.5 -26.5t-28.5 -6.5h-188q-38 0 -35 31zM139 1589q0 27 29 27h180 q14 0 22 -6t23 -27l92 -121q11 -14 11 -26q0 -19 -23 -19h-127q-17 0 -24 3.5t-21 15.5l-141 120q-21 18 -21 33zM324 623q-2 -10 5 -16.5t21 -6.5h51q32 0 29 23l-39 471q-3 30 -16 30q-14 0 -17 -32z" />
<glyph unicode="&#xe1;" horiz-adv-x="759" d="M6 31l166 1257q6 44 24.5 61t61.5 17h238q37 0 55 -18t24 -62l179 -1255q3 -31 -31 -31h-195q-16 0 -23.5 8t-10.5 29l-39 289q-3 20 -10 26t-25 6h-86q-18 0 -25 -5.5t-10 -26.5l-33 -293q-2 -20 -8.5 -26.5t-28.5 -6.5h-188q-38 0 -35 31zM258 1436q0 14 10 26l92 121 q15 21 23.5 27t22.5 6h180q28 0 28 -27q0 -16 -20 -33l-141 -120q-10 -9 -13.5 -11.5t-11.5 -5t-20 -2.5h-127q-23 0 -23 19zM324 623q-2 -10 5 -16.5t21 -6.5h51q32 0 29 23l-39 471q-3 30 -16 30q-14 0 -17 -32z" />
<glyph unicode="&#xe2;" horiz-adv-x="759" d="M6 31l166 1257q6 44 24.5 61t61.5 17h238q37 0 55 -18t24 -62l179 -1255q3 -31 -31 -31h-195q-16 0 -23.5 8t-10.5 29l-39 289q-3 20 -10 26t-25 6h-86q-18 0 -25 -5.5t-10 -26.5l-33 -293q-2 -20 -8.5 -26.5t-28.5 -6.5h-188q-38 0 -35 31zM147 1432q0 3 5 18l69 133 q9 19 20 26t35 7h211q24 0 35.5 -7t20.5 -26l69 -133q4 -12 4 -18q0 -15 -18 -15h-111q-30 0 -47 21l-59 78l-57 -78q-17 -21 -48 -21h-110q-19 0 -19 15zM324 623q-2 -10 5 -16.5t21 -6.5h51q32 0 29 23l-39 471q-3 30 -16 30q-14 0 -17 -32z" />
<glyph unicode="&#xe3;" horiz-adv-x="759" d="M6 31l166 1257q6 44 24.5 61t61.5 17h238q37 0 55 -18t24 -62l179 -1255q3 -31 -31 -31h-195q-16 0 -23.5 8t-10.5 29l-39 289q-3 20 -10 26t-25 6h-86q-18 0 -25 -5.5t-10 -26.5l-33 -293q-2 -20 -8.5 -26.5t-28.5 -6.5h-188q-38 0 -35 31zM129 1470v89q0 57 51 57h82 q5 0 35 -6l145 -43q15 -6 25 -6q8 0 8 12v10q0 14 10 23.5t23 9.5h51q30 0 40.5 -11.5t10.5 -41.5v-88q0 -58 -51 -58h-82q-5 0 -35 6l-145 43q-18 7 -25 7q-8 0 -8 -13v-10q0 -14 -10 -23.5t-23 -9.5h-51q-30 0 -40.5 11.5t-10.5 41.5zM324 623q-2 -10 5 -16.5t21 -6.5h51 q32 0 29 23l-39 471q-3 30 -16 30q-14 0 -17 -32z" />
<glyph unicode="&#xe4;" horiz-adv-x="759" d="M6 31l166 1257q6 44 24.5 61t61.5 17h238q37 0 55 -18t24 -62l179 -1255q3 -31 -31 -31h-195q-16 0 -23.5 8t-10.5 29l-39 289q-3 20 -10 26t-25 6h-86q-18 0 -25 -5.5t-10 -26.5l-33 -293q-2 -20 -8.5 -26.5t-28.5 -6.5h-188q-38 0 -35 31zM162 1481v78q0 36 13 49.5 t50 13.5h60q37 0 50 -13.5t13 -49.5v-78q0 -36 -13 -50t-50 -14h-60q-37 0 -50 14t-13 50zM324 623q-2 -10 5 -16.5t21 -6.5h51q32 0 29 23l-39 471q-3 30 -16 30q-14 0 -17 -32zM410 1481v78q0 36 13 49.5t50 13.5h59q38 0 51 -13.5t13 -49.5v-78q0 -36 -13.5 -50 t-50.5 -14h-59q-37 0 -50 14t-13 50z" />
<glyph unicode="&#xe5;" horiz-adv-x="759" d="M6 31l166 1257q4 38 20 54.5t46 21.5q-26 43 -30 72q-1 9 -1 20q0 76 46.5 126t117.5 50t116 -50t45 -128q0 -49 -28 -88q31 -3 48 -21.5t23 -58.5l179 -1255q3 -31 -31 -31h-195q-16 0 -23.5 8t-10.5 29l-39 289q-3 20 -10 26t-25 6h-86q-18 0 -25 -5.5t-10 -26.5 l-33 -293q-2 -20 -8.5 -26.5t-28.5 -6.5h-188q-38 0 -35 31zM305 1454q0 -35 18.5 -56.5t47.5 -21.5q28 0 46.5 21.5t18.5 54.5q0 35 -18.5 57.5t-46.5 22.5q-30 0 -48 -21t-18 -57zM324 623q-2 -10 5 -16.5t21 -6.5h51q32 0 29 23l-39 471q-3 30 -16 30q-14 0 -17 -32z" />
<glyph unicode="&#xe6;" horiz-adv-x="1046" d="M6 31l270 1257q9 44 30.5 61t64.5 17h583q39 0 52.5 -15.5t13.5 -64.5v-76q0 -51 -14 -68.5t-52 -17.5h-200q-23 0 -30 -8.5t-7 -36.5v-190q0 -30 5.5 -36.5t31.5 -6.5h102q34 0 46.5 -14.5t12.5 -55.5v-104q0 -39 -13 -53.5t-46 -14.5h-102q-22 0 -29.5 -6t-7.5 -25 v-286q0 -26 8 -35.5t35 -9.5h203q41 0 57 -19t16 -69v-66q0 -47 -16 -67.5t-53 -20.5h-457q-31 0 -31 37v289q0 20 -6 26t-24 6h-89q-18 0 -25 -5.5t-11 -26.5l-58 -293q-5 -21 -12.5 -27t-28.5 -6h-188q-37 0 -31 31zM373 623q-2 -10 4 -16.5t20 -6.5h52q30 0 30 23v471 q0 30 -12 30q-15 0 -21 -32z" />
<glyph unicode="&#xe7;" horiz-adv-x="593" d="M35 657v154t2 130t5.5 111.5t10 90.5t15.5 75t22.5 56t30 43t39 27.5t49.5 17t61 4.5h254q35 0 49.5 -16t14.5 -56v-92q0 -47 -13.5 -62.5t-54.5 -15.5h-155q-41 0 -54 -16q-24 -29 -28 -178q-2 -74 -2 -250q0 -169 2 -249.5t12 -127.5t22.5 -54t42.5 -7h160 q37 0 51.5 -16t14.5 -54v-98q0 -41 -14 -57.5t-48 -16.5h-116q18 -66 18 -113q0 -77 -29 -122.5t-78 -45.5h-73q-46 0 -59 15t-13 67v45q0 37 16.5 50.5t63.5 13.5h43q27 0 27 31q0 9 -13 59h-30q-54 0 -90.5 10.5t-65 40t-45 73.5t-27.5 122t-14.5 173.5t-3.5 237.5z" />
<glyph unicode="&#xe8;" horiz-adv-x="616" d="M53 90v1186q0 51 15.5 70.5t54.5 19.5h405q39 0 52.5 -15.5t13.5 -64.5v-76q0 -51 -14 -68.5t-52 -17.5h-200q-23 0 -30 -8.5t-7 -36.5v-190q0 -30 5.5 -36.5t31.5 -6.5h102q34 0 46.5 -14.5t12.5 -55.5v-104q0 -39 -13 -53.5t-46 -14.5h-102q-22 0 -29.5 -6t-7.5 -25 v-286q0 -26 8 -35.5t35 -9.5h203q41 0 57 -19t16 -69v-66q0 -47 -16 -67.5t-53 -20.5h-418q-41 0 -55.5 18t-14.5 72zM88 1589q0 27 29 27h180q14 0 22 -6t23 -27l92 -121q10 -12 10 -26q0 -19 -22 -19h-127q-17 0 -24 3.5t-21 15.5l-141 120q-21 18 -21 33z" />
<glyph unicode="&#xe9;" horiz-adv-x="616" d="M53 90v1186q0 51 15.5 70.5t54.5 19.5h405q39 0 52.5 -15.5t13.5 -64.5v-76q0 -51 -14 -68.5t-52 -17.5h-200q-23 0 -30 -8.5t-7 -36.5v-190q0 -30 5.5 -36.5t31.5 -6.5h102q34 0 46.5 -14.5t12.5 -55.5v-104q0 -39 -13 -53.5t-46 -14.5h-102q-22 0 -29.5 -6t-7.5 -25 v-286q0 -26 8 -35.5t35 -9.5h203q41 0 57 -19t16 -69v-66q0 -47 -16 -67.5t-53 -20.5h-418q-41 0 -55.5 18t-14.5 72zM152 1436q0 14 10 26l92 121q15 21 23 27t22 6h180q29 0 29 -27q0 -15 -21 -33l-141 -120q-10 -9 -13.5 -11.5t-11.5 -5t-20 -2.5h-127q-22 0 -22 19z" />
<glyph unicode="&#xea;" horiz-adv-x="616" d="M53 90v1186q0 51 15.5 70.5t54.5 19.5h405q39 0 52.5 -15.5t13.5 -64.5v-76q0 -51 -14 -68.5t-52 -17.5h-200q-23 0 -30 -8.5t-7 -36.5v-190q0 -30 5.5 -36.5t31.5 -6.5h102q34 0 46.5 -14.5t12.5 -55.5v-104q0 -39 -13 -53.5t-46 -14.5h-102q-22 0 -29.5 -6t-7.5 -25 v-286q0 -26 8 -35.5t35 -9.5h203q41 0 57 -19t16 -69v-66q0 -47 -16 -67.5t-53 -20.5h-418q-41 0 -55.5 18t-14.5 72zM66 1432q0 6 4 18l69 133q9 19 20.5 26t35.5 7h211q24 0 35 -7t20 -26l69 -133q5 -15 5 -18q0 -15 -19 -15h-110q-31 0 -48 21l-59 78l-57 -78 q-17 -21 -47 -21h-111q-18 0 -18 15z" />
<glyph unicode="&#xeb;" horiz-adv-x="616" d="M53 90v1186q0 51 15.5 70.5t54.5 19.5h405q39 0 52.5 -15.5t13.5 -64.5v-76q0 -51 -14 -68.5t-52 -17.5h-200q-23 0 -30 -8.5t-7 -36.5v-190q0 -30 5.5 -36.5t31.5 -6.5h102q34 0 46.5 -14.5t12.5 -55.5v-104q0 -39 -13 -53.5t-46 -14.5h-102q-22 0 -29.5 -6t-7.5 -25 v-286q0 -26 8 -35.5t35 -9.5h203q41 0 57 -19t16 -69v-66q0 -47 -16 -67.5t-53 -20.5h-418q-41 0 -55.5 18t-14.5 72zM84 1481v78q0 36 13 49.5t50 13.5h60q37 0 50 -13.5t13 -49.5v-78q0 -36 -13 -50t-50 -14h-60q-37 0 -50 14t-13 50zM332 1481v78q0 36 13 49.5t50 13.5 h60q37 0 50 -13.5t13 -49.5v-78q0 -36 -13 -50t-50 -14h-60q-37 0 -50 14t-13 50z" />
<glyph unicode="&#xec;" horiz-adv-x="348" d="M-39 1589q0 27 29 27h180q14 0 22 -6t23 -27l92 -121q10 -12 10 -26q0 -19 -22 -19h-127q-17 0 -24 3.5t-21 15.5l-141 120q-21 18 -21 33zM53 90v1184q0 53 14.5 72.5t53.5 19.5h110q36 0 50 -20t14 -72v-1188q0 -54 -14 -70t-54 -16h-102q-43 0 -57.5 17.5t-14.5 72.5z " />
<glyph unicode="&#xed;" horiz-adv-x="348" d="M10 1436q0 14 10 26l93 121q15 21 23 27t22 6h180q29 0 29 -27q0 -15 -21 -33l-141 -120q-10 -9 -13.5 -11.5t-11.5 -5t-20 -2.5h-127q-23 0 -23 19zM53 90v1184q0 53 14.5 72.5t53.5 19.5h110q36 0 50 -20t14 -72v-1188q0 -54 -14 -70t-54 -16h-102q-43 0 -57.5 17.5 t-14.5 72.5z" />
<glyph unicode="&#xee;" horiz-adv-x="348" d="M-61 1432q0 6 4 18l69 133q9 19 20.5 26t35.5 7h211q24 0 35 -7t20 -26l69 -133q5 -15 5 -18q0 -15 -19 -15h-110q-31 0 -48 21l-59 78l-57 -78q-17 -21 -47 -21h-111q-18 0 -18 15zM53 90v1184q0 53 14.5 72.5t53.5 19.5h110q36 0 50 -20t14 -72v-1188q0 -54 -14 -70 t-54 -16h-102q-43 0 -57.5 17.5t-14.5 72.5z" />
<glyph unicode="&#xef;" horiz-adv-x="348" d="M-41 1481v78q0 36 13 49.5t51 13.5h59q37 0 50 -13.5t13 -49.5v-78q0 -36 -13 -50t-50 -14h-59q-37 0 -50.5 14t-13.5 50zM53 90v1184q0 53 14.5 72.5t53.5 19.5h110q36 0 50 -20t14 -72v-1188q0 -54 -14 -70t-54 -16h-102q-43 0 -57.5 17.5t-14.5 72.5zM207 1481v78 q0 36 13 49.5t50 13.5h60q37 0 50 -13.5t13 -49.5v-78q0 -36 -13 -50t-50 -14h-60q-37 0 -50 14t-13 50z" />
<glyph unicode="&#xf0;" horiz-adv-x="749" d="M-59 700v52q0 40 19.5 51.5t72.5 11.5h20v459q0 51 14.5 71.5t51.5 20.5h350q43 0 76 -8t58.5 -29t43.5 -46.5t30.5 -71t19.5 -91.5t11.5 -119.5t5.5 -143t1 -173.5q0 -155 -4 -257.5t-15.5 -183t-28.5 -125t-48 -72.5t-68 -37t-94 -9h-332q-45 0 -58.5 16.5t-13.5 71.5 v549h-20q-53 0 -72.5 11.5t-19.5 51.5zM287 297q0 -38 11.5 -46.5t63.5 -8.5q54 0 71 16q28 26 34 149q4 74 4 257q0 313 -11 379q-10 62 -42 75q-18 6 -62 6t-56.5 -10.5t-12.5 -50.5v-248h22q53 0 72.5 -11.5t19.5 -51.5v-52q0 -40 -19.5 -51.5t-72.5 -11.5h-22v-340z" />
<glyph unicode="&#xf1;" horiz-adv-x="800" d="M53 92v1184q0 54 14.5 72t57.5 18h94q38 0 51.5 -10.5t28.5 -52.5l172 -508q9 -29 23 -29q10 0 10 39v471q0 49 13.5 69.5t49.5 20.5h107q38 0 56 -18t18 -74v-1182q0 -54 -14.5 -73t-57.5 -19h-94q-38 0 -51.5 10.5t-28.5 52.5l-172 510q-9 29 -23 29q-10 0 -10 -39 v-473q0 -48 -14 -69t-50 -21h-106q-38 0 -56 18t-18 74zM135 1470v89q0 57 51 57h82q5 0 35 -6l146 -43q15 -6 24 -6q8 0 8 12v10q0 14 10 23.5t23 9.5h51q30 0 40.5 -11.5t10.5 -41.5v-88q0 -58 -51 -58h-82q-4 0 -34 6l-146 43q-17 7 -24 7q-9 0 -9 -13v-10 q0 -14 -9.5 -23.5t-22.5 -9.5h-52q-30 0 -40.5 11.5t-10.5 41.5z" />
<glyph unicode="&#xf2;" d="M35 679v7v7q0 89 0.5 132t3 117t8.5 110.5t17 92.5t27.5 83t41.5 62.5t57.5 51t76.5 27t98 11.5t98 -11.5t76.5 -27.5t57 -51t41 -62.5t27.5 -84t17 -93t8.5 -111t3 -118t0.5 -131.5v-4q0 -283 -16 -392q-28 -198 -133 -267q-69 -45 -180 -45q-54 0 -98 12t-76.5 28 t-57.5 52t-41.5 64t-27.5 85t-17 94t-8.5 112t-3 118t-0.5 132zM133 1589q0 27 29 27h180q14 0 22 -6t23 -27l92 -121q10 -12 10 -26q0 -19 -22 -19h-127q-17 0 -24 3.5t-21 15.5l-141 120q-21 18 -21 33zM274 686q2 -290 15 -367t76 -77t76.5 78t13.5 366q-2 285 -12 349 q-11 70 -48 83q-12 4 -30 4q-63 0 -77 -75.5t-14 -360.5z" />
<glyph unicode="&#xf3;" d="M35 679v7v7q0 89 0.5 132t3 117t8.5 110.5t17 92.5t27.5 83t41.5 62.5t57.5 51t76.5 27t98 11.5t98 -11.5t76.5 -27.5t57 -51t41 -62.5t27.5 -84t17 -93t8.5 -111t3 -118t0.5 -131.5v-4q0 -283 -16 -392q-28 -198 -133 -267q-69 -45 -180 -45q-54 0 -98 12t-76.5 28 t-57.5 52t-41.5 64t-27.5 85t-17 94t-8.5 112t-3 118t-0.5 132zM213 1436q0 14 10 26l92 121q15 21 23 27t22 6h181q28 0 28 -27q0 -16 -20 -33l-141 -120q-10 -9 -14 -12t-12 -5t-20 -2h-126q-23 0 -23 19zM274 686q2 -290 15 -367t76 -77t76.5 78t13.5 366q-2 285 -12 349 q-11 70 -48 83q-12 4 -30 4q-63 0 -77 -75.5t-14 -360.5z" />
<glyph unicode="&#xf4;" d="M35 679v7v7q0 89 0.5 132t3 117t8.5 110.5t17 92.5t27.5 83t41.5 62.5t57.5 51t76.5 27t98 11.5t98 -11.5t76.5 -27.5t57 -51t41 -62.5t27.5 -84t17 -93t8.5 -111t3 -118t0.5 -131.5v-4q0 -283 -16 -392q-28 -198 -133 -267q-69 -45 -180 -45q-54 0 -98 12t-76.5 28 t-57.5 52t-41.5 64t-27.5 85t-17 94t-8.5 112t-3 118t-0.5 132zM121 1432q0 6 4 18l70 133q9 19 20 26t35 7h211q24 0 35 -7t20 -26l70 -133q4 -12 4 -18q0 -15 -19 -15h-110q-30 0 -47 21l-60 78l-57 -78q-17 -21 -47 -21h-111q-18 0 -18 15zM274 686q2 -290 15 -367 t76 -77t76.5 78t13.5 366q-2 285 -12 349q-11 70 -48 83q-12 4 -30 4q-63 0 -77 -75.5t-14 -360.5z" />
<glyph unicode="&#xf5;" d="M35 679v7v7q0 89 0.5 132t3 117t8.5 110.5t17 92.5t27.5 83t41.5 62.5t57.5 51t76.5 27t98 11.5t98 -11.5t76.5 -27.5t57 -51t41 -62.5t27.5 -84t17 -93t8.5 -111t3 -118t0.5 -131.5v-4q0 -283 -16 -392q-28 -198 -133 -267q-69 -45 -180 -45q-54 0 -98 12t-76.5 28 t-57.5 52t-41.5 64t-27.5 85t-17 94t-8.5 112t-3 118t-0.5 132zM113 1470v89q0 57 51 57h82q5 0 35 -6l145 -43q15 -6 25 -6q8 0 8 12v10q0 14 10 23.5t23 9.5h51q30 0 40.5 -11.5t10.5 -41.5v-88q0 -58 -51 -58h-82q-5 0 -35 6l-145 43q-17 7 -25 7t-8 -13v-10 q0 -14 -10 -23.5t-23 -9.5h-51q-30 0 -40.5 11.5t-10.5 41.5zM274 686q2 -290 15 -367t76 -77t76.5 78t13.5 366q-2 285 -12 349q-11 70 -48 83q-12 4 -30 4q-63 0 -77 -75.5t-14 -360.5z" />
<glyph unicode="&#xf6;" d="M35 679v7v7q0 89 0.5 132t3 117t8.5 110.5t17 92.5t27.5 83t41.5 62.5t57.5 51t76.5 27t98 11.5t98 -11.5t76.5 -27.5t57 -51t41 -62.5t27.5 -84t17 -93t8.5 -111t3 -118t0.5 -131.5v-4q0 -283 -16 -392q-28 -198 -133 -267q-69 -45 -180 -45q-54 0 -98 12t-76.5 28 t-57.5 52t-41.5 64t-27.5 85t-17 94t-8.5 112t-3 118t-0.5 132zM133 1481v78q0 36 13 49.5t51 13.5h59q37 0 50 -13.5t13 -49.5v-78q0 -36 -13 -50t-50 -14h-59q-37 0 -50.5 14t-13.5 50zM274 686q2 -290 15 -367t76 -77t76.5 78t13.5 366q-2 285 -12 349q-11 70 -48 83 q-12 4 -30 4q-63 0 -77 -75.5t-14 -360.5zM381 1481v78q0 36 13 49.5t50 13.5h60q37 0 50 -13.5t13 -49.5v-78q0 -36 -13 -50t-50 -14h-60q-37 0 -50 14t-13 50z" />
<glyph unicode="&#xf7;" horiz-adv-x="880" d="M14 653v105q0 47 13.5 64.5t50.5 17.5h725q37 0 50 -17.5t13 -64.5v-105q0 -48 -15.5 -63t-49.5 -15h-721q-34 0 -50 15.5t-16 62.5zM307 360v62q0 58 12.5 79t55.5 21h125q43 0 55 -21t12 -79v-62q0 -58 -12 -79t-55 -21h-125q-43 0 -55.5 21t-12.5 79zM307 993v62 q0 58 12 78t56 20h125q43 0 55 -20t12 -78v-62q0 -58 -12 -79t-55 -21h-125q-43 0 -55.5 21t-12.5 79z" />
<glyph unicode="&#xf8;" d="M-4.5 9.5q-4.5 9.5 8.5 37.5l68 146q-17 59 -25.5 146t-10 153t-1.5 194v7q0 89 0.5 132t3 117t8.5 110.5t17 92.5t27.5 83t41.5 62.5t57.5 51t76.5 27t98 11.5q149 0 227 -84l18 37q11 22 18.5 27.5t30.5 5.5h41q26 0 33.5 -6.5t-2.5 -34.5l-74 -156q17 -57 25.5 -142 t10 -149.5t1.5 -191.5q0 -283 -16 -392q-28 -198 -133 -267q-69 -45 -180 -45q-155 0 -232 90l-18 -41q-15 -31 -41 -31h-45q-29 0 -33.5 9.5zM270 906q0 -85 2 -220l2 -65l175 370q-7 76 -25.5 103.5t-58.5 27.5q-34 0 -53 -17.5t-30.5 -65.5t-11.5 -133zM281 379 q6 -77 25 -107t59 -30q63 0 76.5 78t13.5 366v59z" />
<glyph unicode="&#xf9;" horiz-adv-x="741" d="M41 379v897q0 52 15.5 71t56.5 19h108q37 0 49.5 -17t12.5 -67v-934q0 -57 20.5 -81.5t69.5 -24.5q46 0 66 25t20 83v932q0 51 12.5 67.5t52.5 16.5h113q39 0 51 -16t12 -68v-893q0 -74 -6.5 -128.5t-27 -110t-56 -90t-97 -56.5t-146.5 -22q-100 0 -165.5 25.5t-100 80 t-47.5 122t-13 169.5zM127 1589q0 27 29 27h180q14 0 22 -6t23 -27l92 -121q10 -12 10 -26q0 -19 -22 -19h-127q-17 0 -24 3.5t-21 15.5l-142 120q-20 17 -20 33z" />
<glyph unicode="&#xfa;" horiz-adv-x="741" d="M41 379v897q0 52 15.5 71t56.5 19h108q37 0 49.5 -17t12.5 -67v-934q0 -57 20.5 -81.5t69.5 -24.5q46 0 66 25t20 83v932q0 51 12.5 67.5t52.5 16.5h113q39 0 51 -16t12 -68v-893q0 -74 -6.5 -128.5t-27 -110t-56 -90t-97 -56.5t-146.5 -22q-100 0 -165.5 25.5t-100 80 t-47.5 122t-13 169.5zM219 1436q0 14 10 26l93 121q15 21 23 27t22 6h180q28 0 28 -27q0 -16 -20 -33l-141 -120q-10 -9 -13.5 -11.5t-11.5 -5t-20 -2.5h-127q-23 0 -23 19z" />
<glyph unicode="&#xfb;" horiz-adv-x="741" d="M41 379v897q0 52 15.5 71t56.5 19h108q37 0 49.5 -17t12.5 -67v-934q0 -57 20.5 -81.5t69.5 -24.5q46 0 66 25t20 83v932q0 51 12.5 67.5t52.5 16.5h113q39 0 51 -16t12 -68v-893q0 -74 -6.5 -128.5t-27 -110t-56 -90t-97 -56.5t-146.5 -22q-100 0 -165.5 25.5t-100 80 t-47.5 122t-13 169.5zM125 1432q0 6 4 18l70 133q9 19 20 26t35 7h211q24 0 35 -7t20 -26l70 -133q4 -12 4 -18q0 -15 -19 -15h-110q-30 0 -47 21l-60 78l-57 -78q-17 -21 -47 -21h-111q-18 0 -18 15z" />
<glyph unicode="&#xfc;" horiz-adv-x="741" d="M41 379v897q0 52 15.5 71t56.5 19h108q37 0 49.5 -17t12.5 -67v-934q0 -57 20.5 -81.5t69.5 -24.5q46 0 66 25t20 83v932q0 51 12.5 67.5t52.5 16.5h113q39 0 51 -16t12 -68v-893q0 -74 -6.5 -128.5t-27 -110t-56 -90t-97 -56.5t-146.5 -22q-100 0 -165.5 25.5t-100 80 t-47.5 122t-13 169.5zM137 1481v78q0 36 13 49.5t51 13.5h59q38 0 51 -13.5t13 -49.5v-78q0 -36 -13.5 -50t-50.5 -14h-59q-37 0 -50.5 14t-13.5 50zM385 1481v78q0 36 13 49.5t51 13.5h59q37 0 50 -13.5t13 -49.5v-78q0 -36 -13 -50t-50 -14h-59q-37 0 -50.5 14t-13.5 50z " />
<glyph unicode="&#xfd;" horiz-adv-x="704" d="M4.5 1342.5q8.5 23.5 38.5 23.5h137q23 0 34.5 -9t18.5 -40l105 -445q10 -21 14 -22q6 0 8 3.5t7 18.5l104 445q7 31 18.5 40t34.5 9h138q30 0 38 -23.5t-2 -48.5l-225 -772v-434q0 -54 -13 -71t-54 -17h-107q-41 0 -54.5 17t-13.5 71v434l-225 772q-10 25 -1.5 48.5z M207 1436q0 9 10 26l92 121q18 22 25 27.5t20 5.5h181q13 0 21.5 -7.5t8.5 -19.5q0 -16 -20 -33l-142 -120q-3 -2 -7 -5.5t-5.5 -4.5l-4.5 -3t-5.5 -3t-6 -2t-7.5 -1h-9h-127q-10 0 -17 5t-7 14z" />
<glyph unicode="&#xfe;" horiz-adv-x="702" d="M53 88l2 1190q0 54 13 71t53 17h110q41 0 53.5 -16.5t12.5 -71.5v-129h137q129 0 195.5 -110.5t66.5 -325.5q0 -206 -58.5 -314t-170.5 -108h-172v-203q0 -54 -13 -71t-53 -17h-110q-41 0 -53.5 16.5t-12.5 71.5zM295 567q0 -20 7 -27.5t24 -7.5h67q23 0 35 11.5t19.5 52 t7.5 119.5q0 81 -7.5 123.5t-21 55.5t-39.5 13h-59q-17 0 -25 -7t-8 -30v-303z" />
<glyph unicode="&#xff;" horiz-adv-x="704" d="M4.5 1342.5q8.5 23.5 38.5 23.5h137q23 0 34.5 -9t18.5 -40l105 -445q10 -21 14 -22q6 0 8 3.5t7 18.5l104 445q7 31 18.5 40t34.5 9h138q30 0 38 -23.5t-2 -48.5l-225 -772v-434q0 -54 -13 -71t-54 -17h-107q-41 0 -54.5 17t-13.5 71v434l-225 772q-10 25 -1.5 48.5z M141 1481v78q0 36 13 49.5t51 13.5h59q38 0 51 -13.5t13 -49.5v-78q0 -36 -13.5 -50t-50.5 -14h-59q-37 0 -50.5 14t-13.5 50zM389 1481v78q0 36 13 49.5t51 13.5h59q37 0 50 -13.5t13 -49.5v-78q0 -36 -13 -50t-50 -14h-59q-37 0 -50.5 14t-13.5 50z" />
<glyph unicode="&#x152;" horiz-adv-x="1030" d="M25 675v11q0 279 14 383q27 193 126 262q71 49 189 49q86 0 150 -28q14 14 47 14h387q39 0 52.5 -15.5t13.5 -64.5v-76q0 -51 -14 -68.5t-52 -17.5h-201q-23 0 -30 -8.5t-7 -36.5v-190q0 -30 5.5 -36.5t31.5 -6.5h103q34 0 46.5 -14.5t12.5 -55.5v-104q0 -39 -13 -53.5 t-46 -14.5h-103q-22 0 -29.5 -6t-7.5 -25v-286q0 -26 8 -35.5t35 -9.5h203q41 0 57.5 -19.5t16.5 -68.5v-66q0 -47 -16.5 -67.5t-53.5 -20.5h-399q-30 0 -47 10q-64 -28 -150 -28q-54 0 -98 12t-76.5 28t-57 51.5t-41 63.5t-27.5 84.5t-17 93.5t-8.5 111.5t-3 117.5 t-0.5 131zM262 686q0 -286 14.5 -365t77.5 -79t76.5 78t13.5 366q-2 285 -12 349q-11 70 -48 83q-12 4 -30 4q-63 0 -77.5 -76t-14.5 -360z" />
<glyph unicode="&#x153;" horiz-adv-x="1030" d="M25 675v11q0 279 14 383q27 193 126 262q71 49 189 49q86 0 150 -28q14 14 47 14h387q39 0 52.5 -15.5t13.5 -64.5v-76q0 -51 -14 -68.5t-52 -17.5h-201q-23 0 -30 -8.5t-7 -36.5v-190q0 -30 5.5 -36.5t31.5 -6.5h103q34 0 46.5 -14.5t12.5 -55.5v-104q0 -39 -13 -53.5 t-46 -14.5h-103q-22 0 -29.5 -6t-7.5 -25v-286q0 -26 8 -35.5t35 -9.5h203q41 0 57.5 -19.5t16.5 -68.5v-66q0 -47 -16.5 -67.5t-53.5 -20.5h-399q-30 0 -47 10q-64 -28 -150 -28q-54 0 -98 12t-76.5 28t-57 51.5t-41 63.5t-27.5 84.5t-17 93.5t-8.5 111.5t-3 117.5 t-0.5 131zM262 686q0 -286 14.5 -365t77.5 -79t76.5 78t13.5 366q-2 285 -12 349q-11 70 -48 83q-12 4 -30 4q-63 0 -77.5 -76t-14.5 -360z" />
<glyph unicode="&#x178;" horiz-adv-x="704" d="M4.5 1342.5q8.5 23.5 38.5 23.5h137q23 0 34.5 -9t18.5 -40l105 -445q10 -21 14 -22q6 0 8 3.5t7 18.5l104 445q7 31 18.5 40t34.5 9h138q30 0 38 -23.5t-2 -48.5l-225 -772v-434q0 -54 -13 -71t-54 -17h-107q-41 0 -54.5 17t-13.5 71v434l-225 772q-10 25 -1.5 48.5z M141 1481v78q0 36 13 49.5t51 13.5h59q38 0 51 -13.5t13 -49.5v-78q0 -36 -13.5 -50t-50.5 -14h-59q-37 0 -50.5 14t-13.5 50zM389 1481v78q0 36 13 49.5t51 13.5h59q37 0 50 -13.5t13 -49.5v-78q0 -36 -13 -50t-50 -14h-59q-37 0 -50.5 14t-13.5 50z" />
<glyph unicode="&#x2c6;" horiz-adv-x="485" d="M8 1432q0 6 4 18l70 133q9 19 20 26t35 7h211q24 0 35 -7t20 -26l70 -133q4 -12 4 -18q0 -15 -18 -15h-111q-30 0 -47 21l-59 78l-58 -78q-17 -21 -47 -21h-110q-19 0 -19 15z" />
<glyph unicode="&#x2dc;" horiz-adv-x="501" d="M10 1470v89q0 57 51 57h82q5 0 35 -6l146 -43q15 -6 24 -6q8 0 8 12v10q0 14 10 23.5t23 9.5h51q30 0 41 -11.5t11 -41.5v-88q0 -58 -52 -58h-82q-4 0 -34 6l-146 43q-17 7 -24 7q-9 0 -9 -13v-10q0 -14 -9.5 -23.5t-22.5 -9.5h-52q-30 0 -40.5 11.5t-10.5 41.5z" />
<glyph unicode="&#x2000;" horiz-adv-x="816" />
<glyph unicode="&#x2001;" horiz-adv-x="1632" />
<glyph unicode="&#x2002;" horiz-adv-x="816" />
<glyph unicode="&#x2003;" horiz-adv-x="1632" />
<glyph unicode="&#x2004;" horiz-adv-x="544" />
<glyph unicode="&#x2005;" horiz-adv-x="408" />
<glyph unicode="&#x2006;" horiz-adv-x="272" />
<glyph unicode="&#x2007;" horiz-adv-x="272" />
<glyph unicode="&#x2008;" horiz-adv-x="204" />
<glyph unicode="&#x2009;" horiz-adv-x="326" />
<glyph unicode="&#x200a;" horiz-adv-x="90" />
<glyph unicode="&#x2010;" horiz-adv-x="432" d="M20 672v102q0 51 13 67.5t53 16.5h260q40 0 53 -16.5t13 -67.5v-102q0 -51 -13 -67.5t-53 -16.5h-260q-40 0 -53 16.5t-13 67.5z" />
<glyph unicode="&#x2011;" horiz-adv-x="432" d="M20 672v102q0 51 13 67.5t53 16.5h260q40 0 53 -16.5t13 -67.5v-102q0 -51 -13 -67.5t-53 -16.5h-260q-40 0 -53 16.5t-13 67.5z" />
<glyph unicode="&#x2012;" horiz-adv-x="432" d="M20 672v102q0 51 13 67.5t53 16.5h260q40 0 53 -16.5t13 -67.5v-102q0 -51 -13 -67.5t-53 -16.5h-260q-40 0 -53 16.5t-13 67.5z" />
<glyph unicode="&#x2013;" horiz-adv-x="673" d="M20 645v121q0 53 11.5 72.5t52.5 19.5h506q40 0 51.5 -19.5t11.5 -72.5v-121q0 -53 -11.5 -72.5t-51.5 -19.5h-506q-41 0 -52.5 19.5t-11.5 72.5z" />
<glyph unicode="&#x2014;" horiz-adv-x="909" d="M23 645v121q0 53 11.5 72.5t51.5 19.5h737q41 0 52.5 -19.5t11.5 -72.5v-121q0 -53 -11.5 -72.5t-52.5 -19.5h-737q-40 0 -51.5 19.5t-11.5 72.5z" />
<glyph unicode="&#x2018;" horiz-adv-x="231" d="M8 1016v84q0 44 8 71l52 156q12 39 45 39h73q20 0 24.5 -6.5t-3.5 -32.5l-41 -117q-13 -36 10 -36h14q20 0 26.5 -15t6.5 -61v-76q0 -51 -14.5 -70.5t-52.5 -19.5h-84q-35 0 -49.5 19t-14.5 65z" />
<glyph unicode="&#x2019;" horiz-adv-x="231" d="M8 1200v76q0 51 15 70.5t53 19.5h84q35 0 49 -19t14 -65v-84q0 -45 -8 -72l-51 -155q-12 -39 -45 -39h-74q-20 0 -24 6.5t4 32.5l41 116q6 15 3.5 26t-14.5 11h-14q-20 0 -26.5 15t-6.5 61z" />
<glyph unicode="&#x201a;" horiz-adv-x="239" d="M12 76v76q0 50 15.5 70t52.5 20h84q35 0 49 -19t14 -65v-84q0 -45 -8 -72l-49 -156q-11 -39 -45 -39h-76q-20 0 -24 7t4 32l43 117q5 12 2.5 24.5t-13.5 12.5h-14q-20 0 -27.5 15.5t-7.5 60.5z" />
<glyph unicode="&#x201c;" horiz-adv-x="516" d="M12 1016v84q0 44 8 71l52 156q12 39 45 39h73q20 0 24.5 -6.5t-3.5 -32.5l-41 -117q-13 -36 10 -36h15q20 0 26 -15t6 -61v-76q0 -51 -14.5 -70.5t-52.5 -19.5h-84q-35 0 -49.5 19t-14.5 65zM289 1016v84q0 44 8 71l49 156q12 39 45 39h76q20 0 24 -7t-4 -32l-43 -117 q-5 -12 -2.5 -24t13.5 -12h14q20 0 27.5 -15.5t7.5 -60.5v-76q0 -50 -15.5 -70t-52.5 -20h-84q-35 0 -49 19t-14 65z" />
<glyph unicode="&#x201d;" horiz-adv-x="516" d="M12 1200v76q0 50 15.5 70t52.5 20h84q35 0 49 -19t14 -65v-84q0 -45 -8 -72l-49 -155q-11 -39 -45 -39h-76q-20 0 -24 7t4 32l43 116q5 12 2.5 24.5t-13.5 12.5h-14q-20 0 -27.5 15.5t-7.5 60.5zM289 1200v76q0 51 14.5 70.5t52.5 19.5h84q35 0 49.5 -19t14.5 -65v-84 q0 -45 -8 -72l-52 -155q-12 -39 -45 -39h-73q-20 0 -24.5 6.5t3.5 32.5l41 116q6 15 4 26t-14 11h-14q-20 0 -26.5 15t-6.5 61z" />
<glyph unicode="&#x201e;" horiz-adv-x="516" d="M12 76v76q0 50 15.5 70t52.5 20h84q35 0 49 -19t14 -65v-84q0 -45 -8 -72l-49 -156q-11 -39 -45 -39h-76q-20 0 -24 7t4 32l43 117q5 12 2.5 24.5t-13.5 12.5h-14q-20 0 -27.5 15.5t-7.5 60.5zM289 76v76q0 51 14.5 70.5t52.5 19.5h84q35 0 49.5 -19t14.5 -65v-84 q0 -48 -8 -72l-52 -156q-12 -39 -45 -39h-73q-20 0 -24.5 6.5t3.5 32.5l41 117q6 15 4 26t-14 11h-14q-20 0 -26.5 15t-6.5 61z" />
<glyph unicode="&#x2022;" horiz-adv-x="387" d="M20 635v194q0 72 18.5 94.5t78.5 22.5h153q60 0 78.5 -22.5t18.5 -94.5v-194q0 -72 -18.5 -94.5t-78.5 -22.5h-153q-60 0 -78.5 22.5t-18.5 94.5z" />
<glyph unicode="&#x2026;" horiz-adv-x="899" d="M35 92v58q0 53 11.5 72.5t51.5 19.5h115q40 0 51.5 -19.5t11.5 -72.5v-58q0 -53 -11.5 -72.5t-51.5 -19.5h-115q-40 0 -51.5 19.5t-11.5 72.5zM328 92v58q0 53 11.5 72.5t51.5 19.5h115q40 0 51.5 -19.5t11.5 -72.5v-58q0 -53 -11.5 -72.5t-51.5 -19.5h-115 q-40 0 -51.5 19.5t-11.5 72.5zM621 92v58q0 53 11.5 72.5t51.5 19.5h115q40 0 51.5 -19.5t11.5 -72.5v-58q0 -53 -11.5 -72.5t-51.5 -19.5h-115q-40 0 -51.5 19.5t-11.5 72.5z" />
<glyph unicode="&#x202f;" horiz-adv-x="326" />
<glyph unicode="&#x2039;" horiz-adv-x="204" d="M10 524v264q0 37 5 51.5t22 26.5l125 92q33 24 33 -18v-137q0 -37 -15 -58l-65 -94l59 -84q2 -4 6.5 -10.5t6 -9t4 -7t3 -7.5t1 -8t0.5 -11v-145q0 -35 -27 -21l-125 90q-33 23 -33 86z" />
<glyph unicode="&#x203a;" horiz-adv-x="204" d="M10 369v145q0 6 0.5 11t1 8t3 7.5t4 7t6 9t6.5 10.5l59 84l-65 94q-15 21 -15 58v137q0 42 33 18l125 -92q17 -12 22 -26.5t5 -51.5v-264q0 -63 -33 -86l-125 -90q-27 -14 -27 21z" />
<glyph unicode="&#x205f;" horiz-adv-x="408" />
<glyph unicode="&#x20ac;" horiz-adv-x="854" d="M18 782l25 95q5 16 11 22t22 6h57q17 106 51.5 189.5t78 136t99 86.5t109.5 47.5t113 13.5q102 0 204 -35q41 -13 41 -32q0 -24 -14 -64l-29 -88q-1 -2 -2.5 -7.5t-2 -7.5t-2 -6.5t-2.5 -6t-2.5 -5t-3 -4.5t-3.5 -3t-4.5 -3t-5.5 -1.5t-6 -0.5q-11 0 -60 15.5t-94 15.5 q-90 0 -144 -52.5t-75 -187.5h274q28 0 37.5 -5.5t5.5 -20.5l-24 -99q-3 -10 -4 -13t-5 -7t-11 -5t-19 -1h-262q-2 -23 -2 -74q0 -57 2 -84h202q28 0 37.5 -6t5.5 -21l-24 -98l-3.5 -10.5t-3 -7t-6 -6t-10 -2t-16.5 -1.5h-168q10 -128 52.5 -180.5t119.5 -52.5 q63 0 123 13.5t76 13.5q41 0 41 -52v-90q0 -24 -1 -36t-8 -26t-22 -20q-76 -32 -227 -32q-354 0 -406 462h-74q-22 0 -32.5 7t-6.5 22l25 94q7 22 13 25q7 4 20 4h43q-2 18 -2 70q0 59 2 88h-64q-23 0 -33 7t-6 21z" />
<glyph unicode="&#x2122;" horiz-adv-x="618" d="M10 1288v78h209v-78h-72v-352h-67v352h-70zM270 934l33 432h82l57 -301q5 30 58 301h82l26 -432h-61l-17 307l-61 -307h-61l-58 303l-16 -303h-64z" />
<glyph unicode="&#x25fc;" horiz-adv-x="1361" d="M0 0v1362h1362v-1362h-1362z" />
</font>
</defs>
</svg>
