<?xml version="1.0" standalone="no"?>
<!DOCTYPE svg PUBLIC "-//W3C//DTD SVG 1.1//EN" "http://www.w3.org/Graphics/SVG/1.1/DTD/svg11.dtd" >
<svg>
<metadata>
Created by FontForge 20110222 at Tue Aug 12 07:55:29 2014
 By Orthosie Webhosting
Copyright (c) Generated by Fontographer, 1999. All rights reserved.
</metadata>
<defs>
<font id="CorporateAHeadlineRegular" horiz-adv-x="415" >
  <font-face 
    font-family="CorporateAHeadlineRegular"
    font-weight="400"
    font-stretch="normal"
    units-per-em="1000"
    panose-1="2 0 5 3 0 0 0 0 0 0"
    ascent="800"
    descent="-200"
    x-height="472"
    cap-height="670"
    bbox="-154 -264 734 879"
    underline-thickness="20"
    underline-position="-133"
    unicode-range="U+0020-FB02"
  />
<missing-glyph horiz-adv-x="500" 
d="M63 0h375v800h-375v-800zM125 63v675h250v-675h-250z" />
    <glyph glyph-name=".notdef" horiz-adv-x="500" 
d="M63 0h375v800h-375v-800zM125 63v675h250v-675h-250z" />
    <glyph glyph-name=".null" horiz-adv-x="0" 
 />
    <glyph glyph-name="nonmarkingreturn" horiz-adv-x="333" 
 />
    <glyph glyph-name="space" unicode=" " horiz-adv-x="208" 
 />
    <glyph glyph-name="exclam" unicode="!" horiz-adv-x="206" 
d="M124 200l14 454h-70l14 -454h42zM54 50q0 -24 14.5 -41t34.5 -17t34.5 17t14.5 41q0 25 -14.5 42t-34.5 17t-34.5 -17t-14.5 -42z" />
    <glyph glyph-name="quotedbl" unicode="&#x22;" horiz-adv-x="313" 
d="M130 667h-63l9 -268h45zM246 667h-63l9 -268h45z" />
    <glyph glyph-name="numbersign" unicode="#" horiz-adv-x="504" 
d="M354 267l20 145h92l8 55h-94l27 200h-52l-26 -200h-121l27 200h-52l-26 -200h-94l-7 -55h93l-19 -145h-93l-7 -55h94l-29 -212h52l28 212h120l-28 -212h53l27 212h94l6 55h-93zM302 267h-119l19 145h119z" />
    <glyph glyph-name="dollar" unicode="$" horiz-adv-x="434" 
d="M59 202h-18v-216h11l33 63q52 -52 118 -58v-80h26v79q73 4 119 58q46 52 46 134q0 92 -57 140q-34 28 -95 56l-13 6v263q50 -6 78 -41.5t42 -110.5h17v185h-12l-25 -56q-43 47 -100 53v80h-26v-80q-69 -4 -113 -54q-43 -49 -43 -127q0 -96 61 -139q52 -30 81 -45l14 -7
v-286q-121 11 -144 183zM229 292q59 -27 83 -58q22 -28 22 -81q0 -119 -105 -133v272zM203 396l-5 3q-54 32 -71 53q-20 25 -20 67q0 51 26 85.5t70 41.5v-250z" />
    <glyph glyph-name="percent" unicode="%" horiz-adv-x="504" 
d="M135 353q48 0 79 45.5t31 115.5t-30 114t-77 44q-49 0 -80 -44.5t-31 -115.5t30 -115t78 -44zM107 0l325 667h-35l-325 -667h35zM369 -5q47 0 77.5 45t30.5 115t-29.5 114.5t-76.5 44.5q-49 0 -80 -45t-31 -116q0 -70 30.5 -114t78.5 -44zM137 648q58 0 58 -135
q0 -136 -60 -136q-59 0 -59 135q0 136 61 136zM369 290q58 0 58 -135t-58 -136q-59 -2 -59 135q0 136 59 136z" />
    <glyph glyph-name="ampersand" unicode="&#x26;" horiz-adv-x="490" 
d="M315 531q0 56 -30 90.5t-78 34.5q-53 0 -87 -39q-35 -38 -35 -95q0 -45 30 -101l21 -39l9 -15q-42 -36 -65 -62q-53 -61 -53 -136q0 -80 49 -129q50 -50 127 -50q72 0 136 61l31 -53q25 1 52 3q16 0 53 -3v19q-30 2 -42 8q-10 5 -29 39l-22 38q30 55 40 129q4 29 10 37
t28 10l10 1v28q-33 -4 -61 -4q-27 0 -60 4v-28q44 -3 44 -33q0 -56 -32 -111l-136 223q51 56 70.5 93.5t19.5 79.5zM183 427q-44 67 -44 115q0 37 19.5 61.5t48.5 24.5q26 0 43 -23t17 -59q0 -58 -74 -134zM320 80q-59 -55 -111 -55t-84.5 39t-32.5 100q0 46 19 79.5
t66 71.5z" />
    <glyph glyph-name="quotesingle" unicode="'" horiz-adv-x="198" 
d="M130 667h-63l9 -268h45z" />
    <glyph glyph-name="parenleft" unicode="(" horiz-adv-x="256" 
d="M60 236q0 -268 123 -446h26q-83 190 -83 446q0 258 83 447h-26q-123 -179 -123 -447z" />
    <glyph glyph-name="parenright" unicode=")" horiz-adv-x="256" 
d="M197 236q0 268 -123 447h-27q83 -189 83 -447q0 -256 -83 -446h27q123 178 123 446z" />
    <glyph glyph-name="asterisk" unicode="*" horiz-adv-x="434" 
d="M105 571l-13 -49l96 -33l-61 -94l35 -31l55 99l56 -99l35 31l-61 94l95 33l-13 49l-94 -41l4 120h-43l3 -120z" />
    <glyph glyph-name="plus" unicode="+" horiz-adv-x="434" 
d="M192 308v-175h50v175h147v59h-147v175h-50v-175h-147v-59h147z" />
    <glyph glyph-name="comma" unicode="," horiz-adv-x="194" 
d="M149 31q0 68 -49 68q-22 0 -35.5 -15.5t-13.5 -39.5q0 -49 42 -49l7 2h3q-9 -82 -72 -163h41q77 113 77 197z" />
    <glyph glyph-name="hyphen" unicode="-" horiz-adv-x="213" 
d="M213 245v45h-213v-45h213z" />
    <glyph glyph-name="period" unicode="." horiz-adv-x="191" 
d="M48 48q0 -23 14 -39.5t33 -16.5q20 0 34 16t14 40t-14 40.5t-34 16.5q-19 0 -33 -17t-14 -40z" />
    <glyph glyph-name="slash" unicode="/" horiz-adv-x="334" 
d="M-25 -193l351 860h-45l-351 -860h45z" />
    <glyph glyph-name="zero" unicode="0" horiz-adv-x="434" 
d="M217 -8q82 0 128 88.5t46 245.5q0 155 -49 253q-40 82 -124 82q-82 0 -128.5 -89.5t-46.5 -248.5q0 -156 46 -243.5t128 -87.5zM218 632q102 0 102 -305q0 -307 -103 -307q-49 0 -76 78.5t-27 222.5q0 311 104 311z" />
    <glyph glyph-name="one" unicode="1" horiz-adv-x="434" 
d="M234 683q-30 -100 -139 -112v-24h93v-459q0 -38 -10.5 -50t-48.5 -16l-9 -1v-23q58 5 102 5q45 0 103 -5v23l-10 1q-38 4 -48.5 16.5t-10.5 49.5v595h-22z" />
    <glyph glyph-name="two" unicode="2" horiz-adv-x="434" 
d="M117 70l14 20q91 130 129 183q106 155 106 238q0 63 -42 107q-40 43 -103 43q-67 0 -110 -45q-39 -40 -48 -150h27q8 52 22 81q28 58 92 58q40 0 65 -30t25 -77q0 -52 -42 -131q-71 -135 -186 -293l-13 -18v-56h310l8 70h-254z" />
    <glyph glyph-name="three" unicode="3" horiz-adv-x="434" 
d="M62 90q35 -98 144 -98q74 0 123 55t49 139q0 88 -53 133q-27 23 -72 36q102 38 102 149q0 71 -39.5 114t-103.5 43q-136 0 -151 -174h25q21 123 110 123q41 0 65.5 -31t24.5 -84q0 -129 -117 -129h-10v-35h10q138 0 138 -144q0 -67 -32 -106t-87 -39q-102 0 -113 143h-29
q1 -55 16 -95z" />
    <glyph glyph-name="four" unicode="4" horiz-adv-x="434" 
d="M308 -14v187h92v63h-92v432h-67l-225 -495h223v-187h69zM73 236l169 376l-1 -376h-168z" />
    <glyph glyph-name="five" unicode="5" horiz-adv-x="434" 
d="M352 652h-240l-47 -328l25 -2q36 75 103 75q52 0 82.5 -46t30.5 -125q0 -83 -33 -133.5t-88 -50.5q-89 0 -101 115h-28q12 -165 144 -165q78 0 128 66q50 67 50 170q0 98 -45 157q-45 60 -118 60q-67 0 -112 -56l28 194h213z" />
    <glyph glyph-name="six" unicode="6" horiz-adv-x="434" 
d="M202 578q-157 -194 -157 -355q0 -102 48 -167q48 -64 124 -64q74 0 121 65q48 65 48 168q0 99 -45 162q-43 63 -113 63q-25 0 -58 -13q27 55 62 106q57 85 114 150h-42q-51 -51 -102 -115zM216 417q96 0 96 -198q0 -199 -98 -199q-97 0 -97 201q0 196 99 196z" />
    <glyph glyph-name="seven" unicode="7" horiz-adv-x="434" 
d="M144 0l244 652h-343v-73h277l-240 -579h62z" />
    <glyph glyph-name="eight" unicode="8" horiz-adv-x="434" 
d="M366 491q0 77 -39.5 123.5t-106.5 46.5q-68 0 -110.5 -48t-42.5 -126q0 -103 82 -146q-94 -49 -94 -162q0 -86 44 -136.5t118 -50.5q73 0 117.5 51.5t44.5 137.5q0 121 -95 160q82 48 82 150zM219 325q43 0 67 -40t24 -110q0 -71 -25 -113t-68 -42t-67.5 42t-24.5 113
q0 69 25.5 109.5t68.5 40.5zM137 494q0 65 22 101.5t60 36.5q78 0 78 -140q0 -64 -21.5 -100.5t-58.5 -36.5q-80 0 -80 134v5z" />
    <glyph glyph-name="nine" unicode="9" horiz-adv-x="434" 
d="M235 74q79 105 113 187.5t34 166.5q0 104 -46 168q-47 65 -119 65q-71 0 -116 -65q-45 -64 -45 -168q0 -98 42 -163q44 -63 109 -63q24 0 57 14q-24 -55 -57 -107q-50 -79 -110 -150h42q48 50 96 115zM219 235q-92 0 -92 203q0 194 92 194q93 0 93 -205q0 -192 -93 -192z
" />
    <glyph glyph-name="colon" unicode=":" horiz-adv-x="191" 
d="M48 48q0 -23 14 -39.5t33 -16.5q20 0 34 16t14 40t-14 40.5t-34 16.5q-19 0 -33 -17t-14 -40zM48 379q0 -23 14 -40t33 -17q20 0 34 17t14 40q0 24 -14 40.5t-34 16.5t-33.5 -16.5t-13.5 -40.5z" />
    <glyph glyph-name="semicolon" unicode=";" horiz-adv-x="194" 
d="M51 379q0 -23 14 -40t34 -17q19 0 33 17t14 40q0 24 -13.5 40.5t-33.5 16.5t-34 -16.5t-14 -40.5zM149 31q0 68 -49 68q-22 0 -35.5 -15.5t-13.5 -39.5q0 -49 42 -49l7 2h3q-9 -82 -72 -163h41q77 113 77 197z" />
    <glyph glyph-name="less" unicode="&#x3c;" 
d="M37 344v-6l342 -276v91l-266 214l266 209v34z" />
    <glyph glyph-name="equal" unicode="=" horiz-adv-x="434" 
d="M389 373v59h-344v-59h344zM389 243v58h-344v-58h344z" />
    <glyph glyph-name="greater" unicode="&#x3e;" 
d="M379 329v6l-342 275v-91l265 -213l-265 -209v-35z" />
    <glyph glyph-name="question" unicode="?" horiz-adv-x="318" 
d="M150 213q0 49 15 81.5t55 70.5q44 43 61 75q17 34 17 78q0 64 -34 103.5t-89 39.5q-67 0 -105 -46.5t-38 -128.5h23q10 118 100 118q34 0 55 -24t21 -63q0 -47 -48 -107l-24 -30q-46 -56 -46 -137q0 -27 3 -52h35q-1 7 -1 22zM91 50q0 -24 14.5 -41t34.5 -17
q21 0 35 16.5t14 41.5t-14 42t-35 17q-20 0 -34.5 -17.5t-14.5 -41.5z" />
    <glyph glyph-name="at" unicode="@" horiz-adv-x="587" 
d="M448 80q-59 -49 -129 -49q-114 0 -187 85q-74 86 -74 215q0 130 72 217t180 87q92 0 157 -69q65 -68 65 -167q0 -73 -30 -137q-21 -43 -49.5 -71.5t-52.5 -28.5q-26 0 -26 36q0 6 2 18l61 274h-56l-15 -66q-14 75 -70 75q-67 0 -119 -66q-51 -66 -51 -152q0 -59 30 -98
t76 -39q48 0 93 69q7 -75 63 -75q67 0 123 80q55 80 55 181q0 118 -74 198t-183 80q-121 0 -205 -101q-83 -101 -83 -246q0 -144 84 -242q84 -97 209 -97q92 0 166 67q48 43 82 116h-39q-32 -59 -75 -94zM241 166q-25 0 -41 25.5t-16 65.5q0 60 28 125q41 95 92 95
q48 0 48 -74l-1 -5q-2 -89 -36 -161q-35 -71 -74 -71z" />
    <glyph glyph-name="A" unicode="A" horiz-adv-x="534" 
d="M371 85l3 -17q2 -14 2 -15q0 -27 -53 -32v-23q57 7 101 7t101 -7v23q-42 5 -54 14t-23 46l-171 607l-189 -596q-14 -44 -27 -56q-14 -11 -53 -15v-23q41 4 79 4t79 -4v23q-55 4 -55 32q0 7 11 46l27 94h194zM254 530l80 -306h-175z" />
    <glyph glyph-name="B" unicode="B" horiz-adv-x="475" 
d="M409 504q0 82 -50 127q-41 36 -114 36h-218v-25q44 -3 56 -15q12 -11 12 -51v-485q0 -41 -11 -52q-10 -11 -57 -15v-24h210q82 0 129 35q69 53 69 156q0 85 -52 133q-27 23 -65 32q91 40 91 148zM164 636h71q100 0 100 -134q0 -68 -27 -105q-22 -33 -87 -33h-57v272z
M243 333q62 0 88 -32q30 -36 30 -114q0 -156 -115 -156h-30q-22 0 -32 3q-20 8 -20 49v250h79z" />
    <glyph glyph-name="C" unicode="C" horiz-adv-x="498" 
d="M274 32q-76 0 -116 78.5t-40 224.5q0 312 158 312q110 0 144 -166h19v196h-15l-29 -58q-53 60 -129 60q-101 0 -163 -95q-60 -94 -60 -252q0 -154 60 -249q60 -94 160 -94q82 0 130.5 62.5t52.5 173.5h-30q-5 -92 -42 -142.5t-100 -50.5z" />
    <glyph glyph-name="D" unicode="D" horiz-adv-x="527" 
d="M91 576v-485q0 -41 -11 -52q-10 -11 -57 -15v-24h203q107 0 170 64q42 43 66.5 116t24.5 154q0 168 -90 268q-59 65 -170 65h-204v-25q45 -3 56 -14q12 -10 12 -52zM228 636q87 0 131 -62q55 -79 55 -239q0 -171 -61 -250q-44 -56 -136 -56q-36 0 -45.5 8.5t-9.5 43.5
v555h66z" />
    <glyph glyph-name="E" unicode="E" horiz-adv-x="451" 
d="M393 161q-17 -77 -40 -103q-24 -27 -73 -27h-59q-34 0 -45 11.5t-11 47.5v241h115q36 0 46 -27q5 -12 7 -56h21v196h-21q-2 -50 -11.5 -66t-37.5 -16h-119v274h121q42 0 62 -24q20 -25 35 -95h20l-15 150h-361v-25q44 -3 56 -15q12 -11 12 -51v-485q0 -41 -11 -52
q-10 -11 -57 -15v-24h366l18 161h-18z" />
    <glyph glyph-name="F" unicode="F" horiz-adv-x="432" 
d="M283 331q35 0 46 -26q5 -14 7 -57h21v196h-21q-1 -50 -10.5 -66t-37.5 -16h-120v274h121q43 0 62 -24q19 -22 36 -95h19l-15 150h-361v-25q44 -3 57 -14q12 -10 12 -52v-488q0 -37 -10.5 -49.5t-48.5 -16.5l-10 -1v-23q63 7 104 7q40 0 103 -7v23l-10 1q-38 4 -48.5 16.5
t-10.5 49.5v243h115z" />
    <glyph glyph-name="G" unicode="G" horiz-adv-x="527" 
d="M430 679l-34 -58q-58 57 -130 57q-104 0 -165 -93q-61 -91 -61 -249q0 -159 61 -253q61 -93 165 -93q88 0 185 70v163q0 31 9 39q9 7 50 12v25q-56 -6 -95 -6t-95 6v-25q41 -3 53 -12t12 -37v-169q-59 -38 -112 -38q-158 0 -158 318q0 312 160 312q81 0 120 -77
q18 -35 31 -90h19v198h-15z" />
    <glyph glyph-name="H" unicode="H" horiz-adv-x="563" 
d="M164 579q0 41 12 51t57 15v25q-72 -8 -104 -8q-30 0 -102 8v-25q47 -5 57 -15q11 -11 11 -51v-491q0 -37 -10.5 -49.5t-48.5 -16.5l-9 -1v-23q63 7 102 7q38 0 104 -7v23l-10 1q-38 4 -48.5 16.5t-10.5 49.5v245h234v-245q0 -37 -10.5 -49.5t-48.5 -16.5l-9 -1v-23
q64 7 103 7q40 0 103 -7v23l-10 1q-38 4 -48.5 16.5t-10.5 49.5v491q0 41 12 51t57 15v25q-72 -8 -103 -8t-103 8v-25q46 -5 56 -15q12 -10 12 -51v-216h-234v216z" />
    <glyph glyph-name="I" unicode="I" horiz-adv-x="261" 
d="M224 22q-38 4 -48.5 16t-10.5 50v491q0 41 12 51t57 15v25q-72 -8 -104 -8q-31 0 -103 8v-25q47 -5 57 -15q11 -11 11 -51v-491q0 -37 -10.5 -49.5t-48.5 -16.5l-9 -1v-23q64 7 103 7q38 0 104 -7v23z" />
    <glyph glyph-name="J" unicode="J" horiz-adv-x="259" 
d="M22 -70q46 0 80.5 21t48.5 59q15 38 15 110v459q0 40 11 51q12 10 57 15v25q-72 -8 -103 -8q-30 0 -104 8v-25q46 -5 56 -15q12 -10 12 -51v-494q0 -71 -17.5 -97.5t-64.5 -26.5h-17v-29q6 0 12.5 -0.5t9.5 -1t4 -0.5z" />
    <glyph glyph-name="K" unicode="K" horiz-adv-x="529" 
d="M163 579q0 41 12 51t57 15v25q-69 -8 -101 -8q-30 0 -104 8v-25q44 -5 56 -15t12 -51v-491q0 -42 -12 -52q-10 -10 -56 -15v-23q63 7 104 7t98 -7v23q-44 5 -56 15q-11 13 -11 52v218l34 44l149 -267l8 -14q6 -11 6 -21q0 -16 -22 -22q-6 -2 -35 -5v-23q63 7 109 7
q45 0 108 -7v23q-37 3 -55.5 15.5t-39.5 48.5l-184 318l143 190q22 29 41.5 39.5t57.5 12.5v25q-55 -5 -85 -5t-85 5v-25q29 -2 32 -3q19 -4 19 -19q0 -7 -12 -24l-188 -250v230z" />
    <glyph glyph-name="L" unicode="L" horiz-adv-x="419" 
d="M393 161q-17 -75 -40 -101q-24 -26 -73 -26h-59q-34 0 -45 11.5t-11 47.5v486q0 41 12 51t57 15v25q-72 -8 -104 -8q-31 0 -103 8v-25q47 -5 57 -15q11 -11 11 -51v-488q0 -41 -11 -52q-10 -11 -57 -15v-24h366l18 161h-18z" />
    <glyph glyph-name="M" unicode="M" horiz-adv-x="681" 
d="M276 164l21 -74l12 -39l9 -32h12l179 587l7 -518v-5q0 -35 -13 -47t-56 -15v-23q66 7 104 7q40 0 104 -7v23q-46 5 -56 15t-12 52l-9 491v7q0 34 13 45t56 14v25q-39 -4 -66 -4q-28 0 -80 5l-157 -506l-154 506q-43 -5 -79 -5q-29 0 -68 4v-25q43 -3 56 -14.5t13 -45.5
v-6l-17 -491q-1 -41 -13 -52q-10 -10 -55 -15v-23q48 4 83 4q34 0 82 -4v23q-44 4 -56.5 14.5t-12.5 43.5v9l16 519z" />
    <glyph glyph-name="N" unicode="N" horiz-adv-x="559" 
d="M466 579q0 40 11 51q12 10 57 15v25q-60 -5 -81 -5q-19 0 -84 5v-25q46 -5 56 -15q12 -10 12 -51v-416l-281 507q-31 -4 -61 -4q-33 0 -69 4v-25q49 -5 69 -29v-528q0 -41 -11 -52q-10 -10 -57 -15v-23q49 4 80 4t84 -4v23q-47 5 -57 15q-11 11 -11 52v495l245 -444
l20 -37l24 -43l41 -78h13v598z" />
    <glyph glyph-name="O" unicode="O" horiz-adv-x="525" 
d="M262 679q-101 0 -162 -94q-60 -95 -60 -250q0 -159 60 -253q62 -93 164 -93q101 0 161 94q60 95 60 252q0 156 -61 250t-162 94zM264 16q-71 0 -110 84.5t-39 235.5q0 150 39 232.5t110 82.5q69 0 107.5 -82.5t38.5 -230.5q0 -155 -38 -238.5t-108 -83.5z" />
    <glyph glyph-name="P" unicode="P" horiz-adv-x="452" 
d="M253 301q81 0 128.5 49t47.5 132q0 97 -61 149q-42 36 -123 36h-218v-25q44 -3 56 -15q12 -11 12 -51v-488q0 -37 -10.5 -49.5t-48.5 -16.5l-9 -1v-23q64 7 103 7q38 0 104 -7v23l-10 1q-38 4 -48.5 16t-10.5 50v213h88zM165 636h72q61 0 90 -35q32 -40 32 -115
q0 -154 -127 -154h-67v304z" />
    <glyph glyph-name="Q" unicode="Q" horiz-adv-x="522" 
d="M440 114q43 95 43 219q0 158 -61 252q-60 94 -161 94t-161 -94q-60 -93 -60 -249q0 -160 60 -254q62 -93 163 -93q78 0 134 59l6 -7q45 -51 104 -51h28v25q-25 2 -45.5 23.5t-49.5 75.5zM263 16q-71 0 -110 84.5t-39 237.5q0 149 39 231t109 82t108.5 -83t38.5 -232
q0 -154 -38 -237t-108 -83z" />
    <glyph glyph-name="R" unicode="R" horiz-adv-x="495" 
d="M196 317q40 0 59 -16q20 -17 36 -64l63 -179q22 -57 23 -60q52 2 55 2q2 0 54 -2v23q-32 2 -43 11q-10 10 -24 47l-58 158q-25 69 -70 86q41 9 65 25q32 20 51.5 59t19.5 84q0 93 -63 143q-42 33 -115 33h-222v-25q44 -3 56 -15q12 -11 12 -51v-488q0 -37 -10.5 -49.5
t-48.5 -16.5l-9 -1v-23q64 7 103 7q40 0 103 -7v23l-10 1q-38 4 -48.5 16.5t-10.5 49.5v229h32zM165 636h74q117 0 117 -141q0 -147 -122 -147h-69v288z" />
    <glyph glyph-name="S" unicode="S" horiz-adv-x="431" 
d="M48 -14h15l30 63q59 -57 131 -57q74 0 120 52t46 138q0 85 -50 132q-30 26 -94 65l-38 23q-53 32 -73 57q-18 25 -18 64q0 52 30.5 87t74.5 35q93 0 122 -149h20v184h-15l-25 -56q-46 52 -109 52q-71 0 -114.5 -48.5t-43.5 -127.5q0 -57 23 -94q23 -35 132 -103
q63 -40 80 -55q37 -33 37 -94q0 -58 -32.5 -95t-82.5 -37q-122 0 -146 180h-20v-216z" />
    <glyph glyph-name="T" unicode="T" horiz-adv-x="439" 
d="M305 636q43 0 62 -24t36 -98h21l-23 153h-364l-22 -153h21q18 73 38 98q21 24 65 24h44v-548q0 -39 -10 -50q-10 -12 -49 -16l-9 -1v-23q63 7 102 7q41 0 104 -7v23q-47 5 -57 15q-11 11 -11 52v548h52z" />
    <glyph glyph-name="U" unicode="U" horiz-adv-x="552" 
d="M433 579v-371q0 -74 -19 -109q-34 -66 -122 -66q-69 0 -105 47q-26 35 -26 117v382q0 40 11 51q10 10 57 15v25q-72 -8 -104 -8q-31 0 -103 8v-25q46 -5 57 -15q11 -11 11 -51v-374q0 -95 39 -148q49 -67 147 -67q107 0 157 83q28 46 28 140v366q0 41 12 51t57 15v25
q-60 -5 -81 -5q-19 0 -84 5v-25q47 -5 57 -15q11 -11 11 -51z" />
    <glyph glyph-name="V" unicode="V" horiz-adv-x="532" 
d="M451 594q8 26 23.5 37t49.5 14v25q-46 -6 -81 -6q-33 0 -74 6v-25q55 -4 55 -31q0 -10 -9 -41l-129 -445l-127 456q-2 5 -3 10l-2 6v8q-1 3 -1 7q0 26 55 30v25q-53 -8 -100 -8t-100 8v-25q38 -4 52 -15q13 -10 24 -49l169 -592h21z" />
    <glyph glyph-name="W" unicode="W" horiz-adv-x="728" 
d="M364 527l127 -537h15l141 603q7 29 20 39.5t48 12.5v25q-41 -6 -73 -6t-73 6v-25q52 -3 52 -30q0 -7 -5 -32l-95 -413l-124 512h-19l-128 -511l-93 415q-4 16 -4 28q0 15 11 21.5t44 9.5v25q-51 -8 -97 -8q-45 0 -96 8v-25q34 -3 47.5 -14.5t20.5 -44.5l134 -597h16z" />
    <glyph glyph-name="X" unicode="X" horiz-adv-x="515" 
d="M91 2q34 0 82 -4v23q-20 1 -35 4q-18 6 -18 24q0 9 16 40l108 210l90 -202q15 -34 15 -47q0 -18 -22 -24q-7 -2 -36 -5v-23q60 6 106 6q47 0 106 -6v23q-39 3 -55 14q-14 11 -32 52l-130 291l114 216q15 28 31 37.5t53 13.5v25q-38 -5 -81 -5q-42 0 -80 5v-25
q52 -3 52 -26q0 -11 -8 -27l-96 -180l-78 175q-8 19 -8 30q0 14 11 19.5t44 8.5v25q-48 -7 -102 -7t-103 7v-25q40 -5 52 -14q14 -11 30 -46l113 -252l-124 -236q-24 -43 -44 -59t-53 -17v-23q26 2 82 4z" />
    <glyph glyph-name="Y" unicode="Y" horiz-adv-x="491" 
d="M212 88q0 -41 -11 -52q-11 -10 -57 -15v-23q64 7 103 7t103 -7v23l-9 1q-39 4 -49 16q-10 11 -10 50v203l126 300q12 29 25.5 39t49.5 15v25q-52 -5 -77 -5q-24 0 -76 5v-25q55 -4 55 -27q0 -14 -7 -29l-107 -255l-105 254q-9 22 -9 30q0 23 58 27v25q-52 -7 -102 -7
q-52 0 -102 7v-25q37 -5 50 -15q15 -12 28 -44l123 -295v-203z" />
    <glyph glyph-name="Z" unicode="Z" horiz-adv-x="447" 
d="M396 0l25 162h-20q-14 -43 -26 -70q-18 -37 -37 -49q-20 -12 -62 -12h-157l299 636h-337l-22 -148h22q14 68 36.5 92.5t69.5 24.5h139l-300 -636h370z" />
    <glyph glyph-name="bracketleft" unicode="[" horiz-adv-x="256" 
d="M233 667h-143v-860h143v30h-84v800h84v30z" />
    <glyph glyph-name="backslash" unicode="\" horiz-adv-x="334" 
d="M54 667h-46l352 -860h46z" />
    <glyph glyph-name="bracketright" unicode="]" horiz-adv-x="256" 
d="M23 -193h144v860h-144v-30h85v-800h-85v-30z" />
    <glyph glyph-name="asciicircum" unicode="^" 
d="M213 700h-5l-227 -413h75l177 320l174 -320h28z" />
    <glyph glyph-name="underscore" unicode="_" 
d="M21 -125h373v39h-373v-39z" />
    <glyph glyph-name="grave" unicode="`" 
d="M177 698h-92l136 -147h37z" />
    <glyph glyph-name="a" unicode="a" horiz-adv-x="387" 
d="M349 23q-19 0 -26.5 19.5t-7.5 69.5v204q0 60 -10 89q-12 34 -44.5 55t-73.5 21q-55 0 -96 -36q-40 -34 -40 -83q0 -34 28 -34q33 0 33 45v22q0 26 19 42.5t50 16.5q68 0 68 -100v-59q-217 -34 -217 -175q0 -57 32.5 -92.5t82.5 -35.5q40 0 64.5 19t47.5 68q7 -85 65 -85
q16 0 45 6v26q-15 -3 -20 -3zM249 182q0 -148 -81 -148q-68 0 -68 91q0 59 35 93t114 51v-87z" />
    <glyph glyph-name="b" unicode="b" horiz-adv-x="422" 
d="M88 -10l36 88q35 -86 108 -86q69 0 113 68t44 176q0 109 -43 176q-44 69 -110 69q-35 0 -57.5 -17t-44.5 -60v274q-60 -19 -125 -27v-17q20 0 27 -1q21 -3 29 -21q3 -9 3 -37v-585h20zM228 454q92 0 92 -216q0 -219 -94 -219q-93 0 -93 211q0 224 95 224z" />
    <glyph glyph-name="c" unicode="c" horiz-adv-x="362" 
d="M305 493l-22 -51q-38 42 -85 42q-73 0 -119 -70q-45 -69 -45 -181q0 -109 45 -176t117 -67q116 0 133 164h-34q-15 -132 -92 -132q-97 0 -97 211q0 107 26 165.5t73 58.5q73 0 96 -129h19v165h-15z" />
    <glyph glyph-name="d" unicode="d" horiz-adv-x="425" 
d="M350 101v577q-57 -18 -125 -27v-17q20 0 27 -1q21 -3 29 -21q3 -9 3 -37v-175q-23 45 -44.5 61.5t-55.5 16.5q-67 0 -109 -69q-42 -67 -42 -176t43 -176q44 -68 111 -68q69 0 103 81q6 -54 11 -79q44 15 97 23l13 2v17q-41 1 -52 12q-9 11 -9 56zM194 16q-91 0 -91 218
q0 216 89 216q93 0 93 -223q0 -211 -91 -211z" />
    <glyph glyph-name="e" unicode="e" horiz-adv-x="380" 
d="M209 22q-109 0 -109 226h247q-3 236 -152 236q-75 0 -118.5 -67.5t-43.5 -183.5t44.5 -179.5t125.5 -63.5q61 0 99 43t46 120h-33q-15 -131 -106 -131zM101 284q13 174 93 174t87 -174h-180z" />
    <glyph glyph-name="f" unicode="f" horiz-adv-x="246" 
d="M149 539q0 116 50 116q26 0 26 -30v-6q-1 -3 -1 -7l-2 -14q0 -29 30 -29q31 0 31 37q0 33 -23 54t-58 21q-59 0 -91 -47q-20 -32 -23 -105q-2 -43 -11 -52q-10 -8 -51 -10v-32h57v-364q0 -32 -11 -42t-49 -12v-19q62 5 92 5q33 0 93 -5v19q-37 2 -48 11.5t-11 42.5v364
h95v37h-95v67z" />
    <glyph glyph-name="g" unicode="g" horiz-adv-x="408" 
d="M201 481q-68 0 -107 -40t-39 -111q0 -108 95 -143q-89 -27 -89 -82q0 -35 44 -58q-80 -33 -80 -106q0 -62 47.5 -100t125.5 -38q80 0 130 42.5t50 111.5q0 76 -64 107q-36 17 -129 25q-44 3 -46 4q-29 8 -29 28q0 25 64 47q15 6 45.5 16.5t46.5 15.5q72 38 72 134
q0 45 -20 83l79 -2v40h-111q-37 26 -85 26zM198 456q77 0 77 -123q0 -127 -78 -127q-37 0 -58 33t-21 91q0 126 80 126zM59 -67q0 84 128 84q140 0 140 -86q0 -44 -35 -70.5t-94 -26.5q-61 0 -100 28t-39 71z" />
    <glyph glyph-name="h" unicode="h" horiz-adv-x="448" 
d="M77 575v-504q0 -33 -11 -42.5t-48 -11.5v-19q58 5 91 5q31 0 89 -5v19q-32 1 -43 11t-11 41v242q0 125 87 125q74 0 74 -122v-245q0 -30 -11 -40t-45 -12v-19q58 5 90 5q33 0 91 -5v19q-37 2 -48 11.5t-11 42.5v240q4 78 -29.5 123t-92.5 47q-66 0 -105 -66v263
q-62 -20 -125 -27v-17q38 0 48 -10q10 -9 10 -49z" />
    <glyph glyph-name="i" unicode="i" horiz-adv-x="232" 
d="M25 463v-17q41 -2 49 -11q10 -9 10 -48v-316q0 -33 -11 -42.5t-48 -11.5v-19q62 5 92 5q31 0 93 -5v19q-38 2 -49 12t-11 42v419q-59 -20 -125 -27zM159 613q0 23 -13 39.5t-32 16.5t-31.5 -16.5t-12.5 -39.5t13 -39t31 -16q19 0 32 16t13 39z" />
    <glyph glyph-name="j" unicode="j" horiz-adv-x="225" 
d="M23 463v-17q41 -2 49 -11q9 -9 9 -48v-414q0 -84 -34 -117q-25 -23 -63 -31v-26q66 0 108 39q56 53 56 176v476q-60 -19 -125 -27zM156 613q0 23 -13 39.5t-32 16.5t-31.5 -16.5t-12.5 -39.5t12.5 -39t31.5 -16t32 16t13 39z" />
    <glyph glyph-name="k" unicode="k" horiz-adv-x="443" 
d="M143 678q-54 -18 -124 -27v-17q38 0 48 -10q10 -9 10 -49v-504q0 -33 -11 -42.5t-48 -11.5v-19q60 5 92 5q30 0 92 -5v19q-37 2 -48 11.5t-11 42.5v116l58 72l123 -261q36 3 54 3q16 0 57 -3v19q-32 2 -46 11q-12 10 -29 43l-117 236l79 101q21 27 35 35q15 8 49 12v20
q-55 -5 -82 -5q-30 0 -78 5v-20q45 -3 45 -24q0 -9 -15 -28l-133 -170v445z" />
    <glyph glyph-name="l" unicode="l" horiz-adv-x="227" 
d="M24 651v-17q20 0 27 -1q21 -3 29 -21q3 -9 3 -37v-504q0 -32 -11 -42t-49 -12v-19q62 5 93 5q30 0 92 -5v19q-37 2 -48 11.5t-11 42.5v607q-58 -19 -125 -27z" />
    <glyph glyph-name="m" unicode="m" horiz-adv-x="662" 
d="M58 441q20 -1 24 -15q2 -10 2 -31v-324q0 -33 -10.5 -42.5t-49.5 -11.5v-19q58 5 91 5q35 0 90 -5v19q-33 2 -44 12t-11 40v238q0 128 84 128q35 0 50.5 -25.5t15.5 -84.5v-256q0 -31 -11 -41t-43 -11v-19q58 5 88 5q29 0 87 -5v19q-33 2 -43.5 12t-10.5 40v249
q0 117 82 117q37 0 52.5 -24.5t15.5 -84.5v-257q0 -30 -11 -40t-44 -12v-19q58 5 90 5q33 0 91 -5v19q-38 2 -49 12t-11 42v253q0 46 -8 80q-20 77 -106 77q-72 0 -114 -78q-27 78 -101 78q-70 0 -110 -76q-3 43 -9 85q-40 -18 -110 -30v-17z" />
    <glyph glyph-name="n" unicode="n" horiz-adv-x="455" 
d="M26 443q16 0 34 -2q24 -5 24 -46v-324q0 -33 -11 -42.5t-48 -11.5v-19q58 5 90 5q31 0 89 -5v19q-33 2 -43.5 12t-10.5 40v242q0 125 87 125q40 0 57 -28.5t17 -93.5v-245q0 -30 -11 -40t-44 -12v-19q58 5 90 5q33 0 91 -5v19q-37 2 -48 11.5t-11 42.5v240q0 51 -13 90
q-12 36 -42 58t-67 22q-70 0 -112 -78q-3 51 -9 87q-47 -20 -109 -30v-17z" />
    <glyph glyph-name="o" unicode="o" horiz-adv-x="389" 
d="M198 484q-73 0 -119 -69q-46 -68 -46 -179q0 -109 45 -178q45 -68 116 -68t116 69q46 68 46 179q0 109 -44 177q-44 69 -114 69zM193 15q-90 0 -90 221q0 222 94 222q89 0 89 -223q0 -220 -93 -220z" />
    <glyph glyph-name="p" unicode="p" horiz-adv-x="432" 
d="M30 447q31 -3 39.5 -14.5t8.5 -45.5v-512q0 -32 -11 -42t-49 -12v-20q56 6 92 6q39 0 93 -6v20q-37 2 -48 11.5t-11 42.5v194q23 -44 45 -60.5t57 -16.5q67 0 111 68q43 67 43 176q0 107 -45 176q-43 69 -112 69q-68 0 -105 -82l-1 14q-1 26 -10 70q-62 -14 -96 -17
l-13 -1v-17zM236 454q94 0 94 -220q0 -215 -92 -215q-95 0 -95 223q0 212 93 212z" />
    <glyph glyph-name="q" unicode="q" horiz-adv-x="432" 
d="M402 466q-52 5 -96 17q-6 -25 -11 -84q-34 82 -105 82q-69 0 -113 -69q-44 -68 -44 -176q0 -109 43 -176q44 -68 111 -68q34 0 56.5 16.5t45.5 60.5v-194q0 -33 -10.5 -42.5t-49.5 -11.5v-20q55 6 93 6t92 -6v20q-38 2 -49 12t-11 42v512q0 40 14 51q11 8 35 9q9 0 11 1
v17zM194 19q-91 0 -91 215q0 220 95 220q92 0 92 -212q0 -223 -96 -223z" />
    <glyph glyph-name="r" unicode="r" horiz-adv-x="315" 
d="M36 447q31 0 39.5 -8t8.5 -41v-327q0 -32 -11 -42t-49 -12v-19q62 5 93 5q32 0 92 -5v19q-37 2 -48 11.5t-11 42.5v209q0 74 19.5 118t51.5 44q25 0 25 -24v-9l-2 -10l-2 -10q0 -34 34 -34q35 0 35 48q0 36 -20 58.5t-52 22.5q-69 0 -97 -90v11q0 21 -8 83
q-43 -15 -109 -23v-18h11z" />
    <glyph glyph-name="s" unicode="s" horiz-adv-x="354" 
d="M59 -11l20 44q44 -41 99 -41q59 0 96.5 40t37.5 103q0 44 -19 72t-66 52l-35 18q-53 27 -72 46q-16 16 -16 47q0 35 22.5 59t55.5 24q75 0 87 -118h19v155h-15l-14 -41q-40 32 -85 32q-55 0 -89.5 -37t-34.5 -96q0 -44 17 -70t62 -50l70 -38q57 -31 57 -79
q0 -38 -24.5 -64t-61.5 -26q-86 0 -108 135l-18 -1v-166h15z" />
    <glyph glyph-name="t" unicode="t" horiz-adv-x="256" 
d="M193 30q-28 0 -38.5 24t-10.5 90v291h96v37h-96v143h-21q-12 -77 -35 -111t-64 -37l-1 -32h54l-3 -279v-20q0 -78 21.5 -111t70.5 -33q39 0 81 30v29q-35 -21 -54 -21z" />
    <glyph glyph-name="u" unicode="u" horiz-adv-x="447" 
d="M71 387v-229q0 -56 14 -93q29 -72 108 -72q77 0 114 88q2 -60 5 -90q58 18 115 25v18h-11q-17 0 -29 2q-22 4 -22 47v407q-61 -19 -125 -27v-17q41 -2 49 -11q10 -9 10 -48v-217q0 -133 -86 -133q-41 0 -58 27.5t-17 91.5v334q-61 -19 -125 -27v-17q41 -2 49 -11
q9 -9 9 -48z" />
    <glyph glyph-name="v" unicode="v" horiz-adv-x="403" 
d="M228 40l113 367q8 28 20 37t42 11v20l-12 -1q-36 -3 -49 -3q-9 0 -51 3l-14 1v-20q42 -1 42 -20q0 -8 -7 -29l-90 -301l-88 304q-5 18 -5 23q0 20 44 23v20l-15 -1q-53 -4 -69 -4q-13 0 -73 4l-16 1v-20q31 -2 42 -10t19 -35l98 -317l24 -82l7 -22h22q12 34 16 51z" />
    <glyph glyph-name="w" unicode="w" horiz-adv-x="588" 
d="M372 74l16 -64l6 -21h22q8 31 12 48q3 12 6 23.5t4 16.5l1 5l85 325q7 26 19 36t41 12v20q-33 -4 -61 -4q-27 0 -66 4v-20q23 -2 29 -3q15 -4 15 -20q0 -10 -4 -25l-73 -287l-97 365h-22l-102 -363l-70 286l-4 14q-1 2 -1 10q0 20 47 23v20q-57 -5 -84 -5t-84 5v-20
q30 -2 40 -11t18 -40l84 -323q1 -7 5 -25q8 -33 12 -44l5 -23h22q0 2 2.5 7t2.5 7q0 1 8 33q10 34 11 40l79 284z" />
    <glyph glyph-name="x" unicode="x" horiz-adv-x="423" 
d="M90 75q-22 -36 -35 -46q-13 -11 -42 -12v-19l19 2q13 1 49 1t49 -1l19 -2v19q-44 3 -44 23q0 8 14 33l76 132l68 -141q8 -18 8 -25q0 -19 -42 -22v-19q58 5 90 5q31 0 91 -5v19q-31 1 -45 11q-12 8 -29 41l-99 205l82 138q15 25 28 33t43 10v20q-40 -4 -67 -4
q-28 0 -68 4v-20q41 -2 41 -20q0 -11 -10 -27l-63 -107l-53 111q-7 14 -7 24q0 17 38 19v20q-58 -5 -86 -5q-25 0 -87 5v-20q29 -2 42 -10t25 -32l87 -180z" />
    <glyph glyph-name="y" unicode="y" horiz-adv-x="414" 
d="M168 -57q-32 -87 -100 -87l-9 1v-51h12q85 0 121 113l156 487q13 41 63 49v20q-39 -4 -72 -4q-29 0 -61 4v-20q11 0 23 -2q24 -3 24 -21q0 -8 -6 -28l-91 -285l-87 288l-4 14q-3 8 -3 13q0 18 44 21v20q-55 -5 -85 -5t-85 5v-20q32 -2 43.5 -10.5t19.5 -35.5l123 -393z
" />
    <glyph glyph-name="z" unicode="z" horiz-adv-x="371" 
d="M314 0l21 144h-17q-20 -70 -41 -94t-64 -24h-97l226 446h-276l-19 -130h17q22 67 40 86q16 18 57 18h92l-225 -446h286z" />
    <glyph glyph-name="braceleft" unicode="{" horiz-adv-x="256" 
d="M159 -121v267q0 42 -9.5 62t-41.5 40q32 20 42 42q9 20 9 60v244q0 73 55 89h-16q-54 0 -76 -25t-22 -88v-239q0 -36 -11 -53.5t-41 -29.5q30 -12 41 -30t11 -53v-262q0 -62 22 -87.5t76 -25.5h16q-55 16 -55 89z" />
    <glyph glyph-name="bar" unicode="|" 
d="M188 -244h39v989h-39v-989z" />
    <glyph glyph-name="braceright" unicode="}" horiz-adv-x="256" 
d="M98 594v-244q0 -40 9 -60q11 -22 42 -42q-32 -20 -41.5 -40t-9.5 -62v-267q0 -69 -56 -89h17q53 0 75 25.5t22 87.5v262q0 35 11 53t41 30q-30 12 -41 29.5t-11 53.5v239q0 63 -22 88t-75 25h-17q56 -17 56 -89z" />
    <glyph glyph-name="asciitilde" unicode="~" horiz-adv-x="554" 
d="M358 678q-22 0 -66 18l-7 3q-47 19 -69 19q-65 0 -116 -95l12 -9l7 10q35 50 69 50q26 0 73 -18q5 -2 11 -4.5t9 -4t5 -1.5q38 -15 53 -15q30 0 62 26.5t51 67.5l-10 8q-37 -55 -84 -55z" />
    <glyph glyph-name="nbspace" unicode="&#xa0;" horiz-adv-x="276" 
 />
    <glyph glyph-name="exclamdown" unicode="&#xa1;" horiz-adv-x="206" 
d="M82 272l-14 -453h70l-14 453h-42zM152 422q0 24 -14.5 41.5t-34.5 17.5t-34.5 -17t-14.5 -42t14.5 -42t34.5 -17t34.5 17.5t14.5 41.5z" />
    <glyph glyph-name="cent" unicode="&#xa2;" horiz-adv-x="434" 
d="M333 423h18v163h-14l-22 -50q-29 35 -67 41v77h-26v-76q-70 -8 -111.5 -74t-41.5 -171t41.5 -171.5t111.5 -73.5v-76h26v78q96 18 111 161h-31q-14 -114 -80 -129v428q65 -11 85 -127zM222 122q-83 17 -83 215q0 192 83 213v-428z" />
    <glyph glyph-name="sterling" unicode="&#xa3;" horiz-adv-x="434" 
d="M184 465q6 63 16 95q23 83 86 83q56 0 66 -90h33q-12 125 -102 125q-69 0 -112.5 -61t-54.5 -174l-8 -82h-63v-37h59l-15 -155q-12 -119 -44 -169h215q64 0 92.5 31.5t37.5 113.5h-29q-17 -99 -74 -99q-22 0 -47 7q-37 10 -54 10q-37 0 -88 -30q50 75 60 177l11 114h111
v37h-107z" />
    <glyph glyph-name="currency" unicode="&#xa4;" horiz-adv-x="554" 
d="M81 77l77 93q58 -52 120 -52t120 52l77 -93l30 35l-78 94q42 68 42 142q0 76 -43 143l77 93l-29 35l-78 -92q-55 52 -120 52q-62 0 -120 -52l-77 93l-30 -36l79 -93q-43 -67 -43 -142q0 -77 42 -143l-76 -94zM421 348q0 -73 -43 -123q-42 -50 -101 -50t-102 51
q-42 51 -42 123t42 123t101 51q60 0 102 -51q43 -50 43 -124z" />
    <glyph glyph-name="yen" unicode="&#xa5;" horiz-adv-x="434" 
d="M43 327v-36h139v-203q0 -40 -12 -51q-13 -12 -57 -16v-23q64 7 104 7q39 0 103 -7v23q-44 4 -57 16q-12 11 -12 51v203h137v36h-124l25 75h99v37h-87l51 152q9 28 23 39t45 15v25q-45 -5 -70 -5q-26 0 -69 5v-25q49 -4 49 -26q0 -10 -7 -30l-84 -252l-80 251q-8 27 -8 30
q0 23 52 27v25q-52 -7 -93 -7t-93 7v-25q29 -3 44 -15.5t25 -43.5l48 -147h-91v-37h104l25 -75h-129z" />
    <glyph glyph-name="section" unicode="&#xa7;" horiz-adv-x="434" 
d="M213 -146q65 0 107 43t42 108q0 71 -73 128q83 44 83 129q0 75 -72 124l-99 68q-37 25 -50.5 45t-13.5 49q0 38 25 62.5t65 24.5q95 0 103 -117h30q-3 74 -41.5 117t-102.5 43q-61 0 -100 -41t-39 -102q0 -40 16 -65q18 -28 62 -62q-51 -16 -72 -43t-21 -75
q0 -74 67 -122l114 -81q59 -42 59 -94q0 -43 -27 -71t-69 -28q-98 0 -112 120h-30q5 -75 44 -117.5t105 -42.5zM275 324q53 -38 53 -82q0 -59 -64 -92l-107 76q-50 36 -50 80q0 60 78 81z" />
    <glyph glyph-name="dieresis" unicode="&#xa8;" 
d="M88 620q0 -22 13 -38t31 -16t31 16t13 38t-13 38t-31 16t-31 -16t-13 -38zM239 620q0 -22 13 -38t31 -16t31 16t13 38t-13 38t-31 16t-31 -16t-13 -38z" />
    <glyph glyph-name="copyright" unicode="&#xa9;" horiz-adv-x="646" 
d="M608 333q0 143 -84 244q-83 101 -201 101q-119 0 -203 -101q-83 -101 -83 -244t84 -243t202 -100q119 0 201 100q84 100 84 243zM66 333q0 129 75 219q75 91 182 91t182 -91q75 -90 75 -219q0 -128 -76 -219q-75 -91 -181 -91t-182 91q-75 92 -75 219zM332 159
q-95 0 -95 177q0 179 97 179q65 0 88 -98h16v123h-14l-16 -33q-34 34 -81 34q-64 0 -103 -56.5t-39 -150.5t38.5 -151t101.5 -57q53 0 84 38.5t33 108.5h-24q-4 -114 -86 -114z" />
    <glyph glyph-name="ordfeminine" unicode="&#xaa;" horiz-adv-x="290" 
d="M242 398q-18 0 -18 51v126q0 104 -84 104q-35 0 -61.5 -22.5t-26.5 -53.5q0 -25 20 -25q24 0 24 30v15q0 33 40 33q41 0 41 -58v-34q-137 -23 -137 -110q0 -36 21 -59t54 -23q47 0 69 46q8 -45 43 -45q9 0 31 5v23q-12 -3 -16 -3zM30 281h239v38h-239v-38zM177 492
q0 -87 -48 -87q-41 0 -41 52q0 66 89 84v-49z" />
    <glyph glyph-name="guillemotleft" unicode="&#xab;" horiz-adv-x="331" 
d="M45 239l100 -239h25l-69 239l69 233h-25zM158 239l100 -239h24l-68 239l68 233h-24z" />
    <glyph glyph-name="logicalnot" unicode="&#xac;" 
d="M385 0v267h-355v-37h285v-230h70z" />
    <glyph glyph-name="registered" unicode="&#xae;" 
d="M380 556q0 86 -51 147q-49 61 -121 61t-123 -61q-50 -62 -50 -147t50 -147q51 -61 123 -61t121 61q51 61 51 147zM57 556q0 75 44 128q45 53 107 53t106 -53t44 -128t-44 -128q-43 -52 -106 -52q-62 0 -107 52q-44 53 -44 128zM192 548q20 0 29 -23l22 -58l3 -7l3 -8
l2 -6q8 0 12 1h17q4 -1 13 -1v14q-17 0 -23 17l-19 50q-8 18 -18 25q40 15 40 55q0 60 -64 60h-78v-15h6q11 0 14 -3t3 -15v-156q0 -12 -5 -15q-11 -1 -18 -3v-15q19 3 38 3t38 -3v15q-9 0 -12.5 0.5t-7 2.5t-4 5t-0.5 10v70h9zM184 650h22q37 0 37 -42q0 -43 -38 -43h-21
v85z" />
    <glyph glyph-name="overscore" unicode="&#xaf;" 
d="M334 604v50h-253v-50h253z" />
    <glyph glyph-name="degree" unicode="&#xb0;" 
d="M208 404q48 0 82 40q35 41 35 98q0 56 -35 97q-34 40 -82 40q-50 0 -84 -40t-34 -97q0 -58 34 -98t84 -40zM208 635q32 0 55 -27.5t23 -65.5q0 -39 -23 -66.5t-55 -27.5q-33 0 -56 27.5t-23 66.5q0 38 23 65.5t56 27.5z" />
    <glyph glyph-name="plusminus" unicode="&#xb1;" horiz-adv-x="434" 
d="M192 308v-169h50v169h147v59h-147v175h-50v-175h-147v-59h147zM389 26v59h-344v-59h344z" />
    <glyph glyph-name="acute" unicode="&#xb4;" 
d="M217 551l136 147h-92l-82 -147h38z" />
    <glyph glyph-name="paragraph" unicode="&#xb6;" horiz-adv-x="434" 
d="M222 667q-63 0 -102 -14q-81 -30 -81 -151q0 -153 133 -175v-374q0 -41 -12 -51t-56 -15v-24q69 7 152 7q82 0 152 -7v24q-45 5 -57 15t-12 51v623q0 40 12 51q13 12 57 15v25h-186zM256 -100q-28 0 -36 21q-3 11 -3 46v602q0 40 4 48q7 18 37 18q11 0 19 -2
q18 -7 18 -65v-601q0 -39 -3 -46q-6 -21 -36 -21z" />
    <glyph glyph-name="middot" unicode="&#xb7;" horiz-adv-x="107" 
d="M0 344q0 -26 15.5 -45t37.5 -19t38 19t16 45q0 27 -16 46t-38 19t-37.5 -19t-15.5 -46z" />
    <glyph glyph-name="cedilla" unicode="&#xb8;" 
d="M167 -77q62 -3 62 -43q0 -43 -42 -43q-15 0 -43 9v-30q33 -16 63 -16q34 0 54.5 20.5t20.5 54.5q0 58 -70 67l25 58h-35z" />
    <glyph glyph-name="ordmasculine" unicode="&#xba;" horiz-adv-x="290" 
d="M147 679q-47 0 -77 -43t-30 -111q0 -67 29 -110t75 -43t75.5 43t29.5 111t-28 110.5t-74 42.5zM26 281h238v38h-238v-38zM144 394q-54 0 -54 131q0 132 56 132q54 0 54 -132q0 -131 -56 -131z" />
    <glyph glyph-name="guillemotright" unicode="&#xbb;" horiz-adv-x="331" 
d="M161 472l69 -233l-69 -239h24l101 239l-101 233h-24zM48 472l69 -233l-69 -239h25l100 239l-100 233h-25z" />
    <glyph glyph-name="questiondown" unicode="&#xbf;" horiz-adv-x="318" 
d="M168 259q0 -49 -15 -81.5t-55 -70.5q-45 -43 -63 -76q-16 -31 -16 -75q0 -64 34.5 -104t89.5 -40q67 0 105 47t38 129h-23q-10 -118 -100 -118q-35 0 -55.5 23.5t-20.5 63.5q0 50 47 106l25 29q46 52 46 137q0 15 -3 52h-35q1 -7 1 -22zM226 422q0 25 -14.5 42t-34.5 17
t-34.5 -17t-14.5 -42q0 -24 14 -41.5t35 -17.5q20 0 34.5 17.5t14.5 41.5z" />
    <glyph glyph-name="Agrave" unicode="&#xc0;" horiz-adv-x="534" 
d="M371 85l3 -17q2 -14 2 -15q0 -27 -53 -32v-23q57 7 101 7t101 -7v23q-42 5 -54 14t-23 46l-171 607l-189 -596q-14 -44 -27 -56q-14 -11 -53 -15v-23q41 4 79 4t79 -4v23q-55 4 -55 32q0 7 11 46l27 94h194zM220 861h-100l163 -137h42zM254 530l80 -306h-175z" />
    <glyph glyph-name="Aacute" unicode="&#xc1;" horiz-adv-x="534" 
d="M371 85l3 -17q2 -14 2 -15q0 -27 -53 -32v-23q57 7 101 7t101 -7v23q-42 5 -54 14t-23 46l-171 607l-189 -596q-14 -44 -27 -56q-14 -11 -53 -15v-23q41 4 79 4t79 -4v23q-55 4 -55 32q0 7 11 46l27 94h194zM284 724l163 137h-100l-105 -137h42zM254 530l80 -306h-175z
" />
    <glyph glyph-name="Acircumflex" unicode="&#xc2;" horiz-adv-x="534" 
d="M371 85l3 -17q2 -14 2 -15q0 -27 -53 -32v-23q57 7 101 7t101 -7v23q-42 5 -54 14t-23 46l-171 607l-189 -596q-14 -44 -27 -56q-14 -11 -53 -15v-23q41 4 79 4t79 -4v23q-55 4 -55 32q0 7 11 46l27 94h194zM167 725l99 84l101 -84h41l-118 136h-46l-119 -136h42z
M254 530l80 -306h-175z" />
    <glyph glyph-name="Atilde" unicode="&#xc3;" horiz-adv-x="534" 
d="M371 85l3 -17q2 -14 2 -15q0 -27 -53 -32v-23q57 7 101 7t101 -7v23q-42 5 -54 14t-23 46l-171 607l-189 -596q-14 -44 -27 -56q-14 -11 -53 -15v-23q41 4 79 4t79 -4v23q-55 4 -55 32q0 7 11 46l27 94h194zM206 792q19 0 42 -20q44 -38 72 -38q67 0 83 103l-25 6
q-13 -52 -49 -52q-19 0 -38 16l-19 15q-34 27 -60 27q-60 0 -81 -98l24 -8q16 49 51 49zM254 530l80 -306h-175z" />
    <glyph glyph-name="Adieresis" unicode="&#xc4;" horiz-adv-x="534" 
d="M371 85l3 -17q2 -14 2 -15q0 -27 -53 -32v-23q57 7 101 7t101 -7v23q-42 5 -54 14t-23 46l-171 607l-189 -596q-14 -44 -27 -56q-14 -11 -53 -15v-23q41 4 79 4t79 -4v23q-55 4 -55 32q0 7 11 46l27 94h194zM146 793q0 -23 14 -40t33 -17q20 0 33.5 16.5t13.5 40.5
q0 23 -14 40t-33 17t-33 -17t-14 -40zM294 793q0 -23 14 -40t33 -17t33 17t14 40t-14 40t-33 17t-33 -17t-14 -40zM254 530l80 -306h-175z" />
    <glyph glyph-name="Aring" unicode="&#xc5;" horiz-adv-x="534" 
d="M371 85l3 -17q2 -14 2 -15q0 -27 -53 -32v-23q57 7 101 7t101 -7v23q-42 5 -54 14t-23 46l-171 607l-189 -596q-14 -44 -27 -56q-14 -11 -53 -15v-23q41 4 79 4t79 -4v23q-55 4 -55 32q0 7 11 46l27 94h194zM198 795q0 -34 20.5 -59t49.5 -25t49.5 25t20.5 59t-20.5 59
t-49.5 25t-49.5 -25t-20.5 -59zM254 530l80 -306h-175zM308 795q0 -20 -11.5 -34.5t-28.5 -14.5t-29 14.5t-12 34.5t12 34t29 14t28.5 -14t11.5 -34z" />
    <glyph glyph-name="AE" unicode="&#xc6;" horiz-adv-x="744" 
d="M374 667l-274 -573q-20 -41 -38 -56q-15 -12 -54 -17v-23l21 2q42 2 62 2q23 0 63 -2l20 -2v23q-33 1 -45 6.5t-12 20.5q0 11 8 29l70 149h196v-135q0 -41 -12 -52t-57 -15v-24h366l19 161h-19q-16 -74 -40 -103q-22 -27 -73 -27h-58q-34 0 -45 11.5t-11 47.5v241h115
q34 0 45 -26q6 -13 8 -57h20v196h-20q-2 -50 -11.5 -66t-37.5 -16h-119v274h120q43 0 63 -24q19 -24 36 -95h19l-15 150h-310zM391 638v-381h-181z" />
    <glyph glyph-name="Ccedilla" unicode="&#xc7;" horiz-adv-x="498" 
d="M446 225h-30q-5 -92 -42 -142.5t-100 -50.5q-76 0 -116 78.5t-40 224.5q0 312 158 312q110 0 144 -166h19v196h-15l-29 -58q-53 60 -129 60q-101 0 -163 -95q-60 -94 -60 -252q0 -146 52 -238q53 -92 143 -104l-30 -69q65 -2 65 -44q0 -45 -45 -45q-19 0 -43 10v-34
q35 -16 66 -16q33 0 55 22.5t22 56.5q0 65 -73 72l20 46q78 7 122.5 68t48.5 168z" />
    <glyph glyph-name="Egrave" unicode="&#xc8;" horiz-adv-x="451" 
d="M393 161q-17 -77 -40 -103q-24 -27 -73 -27h-59q-34 0 -45 11.5t-11 47.5v241h115q36 0 46 -27q5 -12 7 -56h21v196h-21q-2 -50 -11.5 -66t-37.5 -16h-119v274h121q42 0 62 -24q20 -25 35 -95h20l-15 150h-361v-25q44 -3 56 -15q12 -11 12 -51v-485q0 -41 -11 -52
q-10 -11 -57 -15v-24h366l18 161h-18zM172 861h-101l164 -137h41z" />
    <glyph glyph-name="Eacute" unicode="&#xc9;" horiz-adv-x="451" 
d="M393 161q-17 -77 -40 -103q-24 -27 -73 -27h-59q-34 0 -45 11.5t-11 47.5v241h115q36 0 46 -27q5 -12 7 -56h21v196h-21q-2 -50 -11.5 -66t-37.5 -16h-119v274h121q42 0 62 -24q20 -25 35 -95h20l-15 150h-361v-25q44 -3 56 -15q12 -11 12 -51v-485q0 -41 -11 -52
q-10 -11 -57 -15v-24h366l18 161h-18zM233 724l164 137h-102l-104 -137h42z" />
    <glyph glyph-name="Ecircumflex" unicode="&#xca;" horiz-adv-x="451" 
d="M393 161q-17 -77 -40 -103q-24 -27 -73 -27h-59q-34 0 -45 11.5t-11 47.5v241h115q36 0 46 -27q5 -12 7 -56h21v196h-21q-2 -50 -11.5 -66t-37.5 -16h-119v274h121q42 0 62 -24q20 -25 35 -95h20l-15 150h-361v-25q44 -3 56 -15q12 -11 12 -51v-485q0 -41 -11 -52
q-10 -11 -57 -15v-24h366l18 161h-18zM119 725l100 84l100 -84h41l-118 135h-47l-117 -135h41z" />
    <glyph glyph-name="Edieresis" unicode="&#xcb;" horiz-adv-x="490" 
d="M203 446q0 66 -64 85q52 18 52 75q0 36 -20.5 57.5t-51.5 21.5q-69 0 -77 -87h13q12 62 56 62q45 0 45 -58q0 -65 -64 -65v-18q75 0 75 -72q0 -73 -60 -73q-53 0 -57 72h-15q3 -98 81 -98q36 0 61.5 28t25.5 70zM426 673h-35l-327 -672h35zM454 80v32h-46v217h-34
l-113 -249h112v-94h35v94h46zM374 301v-189h-85z" />
    <glyph glyph-name="Igrave" unicode="&#xcc;" horiz-adv-x="261" 
d="M224 22q-38 4 -48.5 16t-10.5 50v491q0 41 12 51t57 15v25q-72 -8 -104 -8q-31 0 -103 8v-25q47 -5 57 -15q11 -11 11 -51v-491q0 -37 -10.5 -49.5t-48.5 -16.5l-9 -1v-23q64 7 103 7q38 0 104 -7v23zM83 861h-99l162 -137h42z" />
    <glyph glyph-name="Iacute" unicode="&#xcd;" horiz-adv-x="261" 
d="M224 22q-38 4 -48.5 16t-10.5 50v491q0 41 12 51t57 15v25q-72 -8 -104 -8q-31 0 -103 8v-25q47 -5 57 -15q11 -11 11 -51v-491q0 -37 -10.5 -49.5t-48.5 -16.5l-9 -1v-23q64 7 103 7q38 0 104 -7v23zM144 724l164 137h-101l-104 -137h41z" />
    <glyph glyph-name="Icircumflex" unicode="&#xce;" horiz-adv-x="261" 
d="M224 22q-38 4 -48.5 16t-10.5 50v491q0 41 12 51t57 15v25q-72 -8 -104 -8q-31 0 -103 8v-25q47 -5 57 -15q11 -11 11 -51v-491q0 -37 -10.5 -49.5t-48.5 -16.5l-9 -1v-23q64 7 103 7q38 0 104 -7v23zM30 725l100 84l100 -84h41l-117 135h-47l-117 -135h40z" />
    <glyph glyph-name="Idieresis" unicode="&#xcf;" horiz-adv-x="261" 
d="M224 22q-38 4 -48.5 16t-10.5 50v491q0 41 12 51t57 15v25q-72 -8 -104 -8q-31 0 -103 8v-25q47 -5 57 -15q11 -11 11 -51v-491q0 -37 -10.5 -49.5t-48.5 -16.5l-9 -1v-23q64 7 103 7q38 0 104 -7v23zM17 793q0 -23 13.5 -39.5t33.5 -16.5q19 0 32.5 16.5t13.5 39.5
t-13.5 39.5t-32.5 16.5q-20 0 -33.5 -16.5t-13.5 -39.5zM150 793q0 -23 13.5 -39.5t33.5 -16.5q19 0 32 16.5t13 39.5t-13.5 39.5t-32.5 16.5t-32.5 -16.5t-13.5 -39.5z" />
    <glyph glyph-name="Ntilde" unicode="&#xd1;" horiz-adv-x="559" 
d="M466 579q0 40 11 51q12 10 57 15v25q-60 -5 -81 -5q-19 0 -84 5v-25q46 -5 56 -15q12 -10 12 -51v-416l-281 507q-31 -4 -61 -4q-33 0 -69 4v-25q49 -5 69 -29v-528q0 -41 -11 -52q-10 -10 -57 -15v-23q49 4 80 4t84 -4v23q-47 5 -57 15q-11 11 -11 52v495l245 -444
l20 -37l24 -43l41 -78h13v598zM218 792q18 0 43 -20q46 -38 72 -38q67 0 83 103l-24 6q-15 -52 -51 -52q-19 0 -38 16l-17 15q-32 27 -60 27q-59 0 -82 -98l24 -8q16 49 50 49z" />
    <glyph glyph-name="Ograve" unicode="&#xd2;" horiz-adv-x="525" 
d="M262 679q-101 0 -162 -94q-60 -95 -60 -250q0 -159 60 -253q62 -93 164 -93q101 0 161 94q60 95 60 252q0 156 -61 250t-162 94zM216 861h-101l163 -137h42zM264 16q-71 0 -110 84.5t-39 235.5q0 150 39 232.5t110 82.5q69 0 107.5 -82.5t38.5 -230.5q0 -155 -38 -238.5
t-108 -83.5z" />
    <glyph glyph-name="Oacute" unicode="&#xd3;" horiz-adv-x="525" 
d="M262 679q-101 0 -162 -94q-60 -95 -60 -250q0 -159 60 -253q62 -93 164 -93q101 0 161 94q60 95 60 252q0 156 -61 250t-162 94zM276 724l164 137h-101l-104 -137h41zM264 16q-71 0 -110 84.5t-39 235.5q0 150 39 232.5t110 82.5q69 0 107.5 -82.5t38.5 -230.5
q0 -155 -38 -238.5t-108 -83.5z" />
    <glyph glyph-name="Ocircumflex" unicode="&#xd4;" horiz-adv-x="525" 
d="M262 679q-101 0 -162 -94q-60 -95 -60 -250q0 -159 60 -253q62 -93 164 -93q101 0 161 94q60 95 60 252q0 156 -61 250t-162 94zM163 725l99 84l100 -84h41l-117 135h-47l-118 -135h42zM264 16q-71 0 -110 84.5t-39 235.5q0 150 39 232.5t110 82.5q69 0 107.5 -82.5
t38.5 -230.5q0 -155 -38 -238.5t-108 -83.5z" />
    <glyph glyph-name="Otilde" unicode="&#xd5;" horiz-adv-x="525" 
d="M262 679q-101 0 -162 -94q-60 -95 -60 -250q0 -159 60 -253q62 -93 164 -93q101 0 161 94q60 95 60 252q0 156 -61 250t-162 94zM201 792q18 0 43 -20q46 -38 71 -38q67 0 83 103l-24 6q-15 -52 -50 -52q-19 0 -38 16l-18 15q-32 27 -60 27q-58 0 -82 -98l25 -8
q16 49 50 49zM264 16q-71 0 -110 84.5t-39 235.5q0 150 39 232.5t110 82.5q69 0 107.5 -82.5t38.5 -230.5q0 -155 -38 -238.5t-108 -83.5z" />
    <glyph glyph-name="Odieresis" unicode="&#xd6;" horiz-adv-x="525" 
d="M262 679q-101 0 -162 -94q-60 -95 -60 -250q0 -159 60 -253q62 -93 164 -93q101 0 161 94q60 95 60 252q0 156 -61 250t-162 94zM141 793q0 -23 14 -40t33 -17q20 0 34 16.5t14 40.5q0 23 -14 40t-34 17q-19 0 -33 -17t-14 -40zM289 793q0 -23 14 -40t33 -17
q20 0 33.5 16.5t13.5 40.5t-13.5 40.5t-33.5 16.5q-19 0 -33 -17t-14 -40zM264 16q-71 0 -110 84.5t-39 235.5q0 150 39 232.5t110 82.5q69 0 107.5 -82.5t38.5 -230.5q0 -155 -38 -238.5t-108 -83.5z" />
    <glyph glyph-name="Oslash" unicode="&#xd8;" horiz-adv-x="525" 
d="M421 594q-61 85 -158 85q-102 0 -163 -97q-61 -95 -61 -255q0 -129 47 -226l-68 -101h38l49 71q60 -82 158 -82q99 0 161 96q61 95 61 256q0 134 -46 223l69 103h-38zM129 159q-18 75 -18 159q0 157 41 245t114 88q80 0 119 -104zM397 508q16 -68 16 -156
q0 -159 -40 -247.5t-112 -88.5q-85 0 -121 104z" />
    <glyph glyph-name="Ugrave" unicode="&#xd9;" horiz-adv-x="552" 
d="M433 579v-371q0 -74 -19 -109q-34 -66 -122 -66q-69 0 -105 47q-26 35 -26 117v382q0 40 11 51q10 10 57 15v25q-72 -8 -104 -8q-31 0 -103 8v-25q46 -5 57 -15q11 -11 11 -51v-374q0 -95 39 -148q49 -67 147 -67q107 0 157 83q28 46 28 140v366q0 41 12 51t57 15v25
q-60 -5 -81 -5q-19 0 -84 5v-25q47 -5 57 -15q11 -11 11 -51zM250 861h-101l164 -137h41z" />
    <glyph glyph-name="Uacute" unicode="&#xda;" horiz-adv-x="552" 
d="M433 579v-371q0 -74 -19 -109q-34 -66 -122 -66q-69 0 -105 47q-26 35 -26 117v382q0 40 11 51q10 10 57 15v25q-72 -8 -104 -8q-31 0 -103 8v-25q46 -5 57 -15q11 -11 11 -51v-374q0 -95 39 -148q49 -67 147 -67q107 0 157 83q28 46 28 140v366q0 41 12 51t57 15v25
q-60 -5 -81 -5q-19 0 -84 5v-25q47 -5 57 -15q11 -11 11 -51zM310 724l164 137h-100l-105 -137h41z" />
    <glyph glyph-name="Ucircumflex" unicode="&#xdb;" horiz-adv-x="552" 
d="M433 579v-371q0 -74 -19 -109q-34 -66 -122 -66q-69 0 -105 47q-26 35 -26 117v382q0 40 11 51q10 10 57 15v25q-72 -8 -104 -8q-31 0 -103 8v-25q46 -5 57 -15q11 -11 11 -51v-374q0 -95 39 -148q49 -67 147 -67q107 0 157 83q28 46 28 140v366q0 41 12 51t57 15v25
q-60 -5 -81 -5q-19 0 -84 5v-25q47 -5 57 -15q11 -11 11 -51zM197 725l99 84l101 -84h40l-117 135h-47l-118 -135h42z" />
    <glyph glyph-name="Udieresis" unicode="&#xdc;" horiz-adv-x="552" 
d="M433 579v-371q0 -74 -19 -109q-34 -66 -122 -66q-69 0 -105 47q-26 35 -26 117v382q0 40 11 51q10 10 57 15v25q-72 -8 -104 -8q-31 0 -103 8v-25q46 -5 57 -15q11 -11 11 -51v-374q0 -95 39 -148q49 -67 147 -67q107 0 157 83q28 46 28 140v366q0 41 12 51t57 15v25
q-60 -5 -81 -5q-19 0 -84 5v-25q47 -5 57 -15q11 -11 11 -51zM175 793q0 -23 14 -40t33 -17q20 0 34 16.5t14 40.5q0 23 -14 40t-34 17q-19 0 -33 -17t-14 -40zM324 793q0 -24 13.5 -40.5t33.5 -16.5q19 0 32.5 16.5t13.5 40.5t-13.5 40.5t-33.5 16.5q-19 0 -32.5 -17
t-13.5 -40z" />
    <glyph glyph-name="germandbls" unicode="&#xdf;" horiz-adv-x="427" 
d="M326 175q0 -64 -23.5 -102t-62.5 -38q-22 0 -47 17v-28q38 -30 71 -30q54 0 92 53t38 133q0 152 -129 193q92 51 92 145q0 66 -38 110t-97 44q-77 0 -117 -67q-28 -46 -28 -127v-407q0 -33 -11 -42.5t-48 -11.5v-19q45 3 69 3q19 0 57 -2v518q0 126 76 126q71 0 71 -123
q0 -131 -113 -136v-32q148 -6 148 -177z" />
    <glyph glyph-name="agrave" unicode="&#xe0;" horiz-adv-x="385" 
d="M348 23q-19 0 -26 19t-7 70v204q0 60 -10 89q-12 34 -44.5 55t-73.5 21q-55 0 -96 -36q-40 -34 -40 -83q0 -34 28 -34q33 0 33 45v22q0 26 19 42.5t50 16.5q68 0 68 -100v-59q-217 -34 -217 -175q0 -57 32.5 -92.5t82.5 -35.5q40 0 64.5 19t47.5 68q7 -85 65 -85
q16 0 45 6v26q-15 -3 -21 -3zM145 698h-92l136 -147h38zM249 182q0 -148 -81 -148q-68 0 -68 91q0 59 35 93t114 51v-87z" />
    <glyph glyph-name="aacute" unicode="&#xe1;" horiz-adv-x="385" 
d="M348 23q-19 0 -26 19t-7 70v204q0 60 -10 89q-12 34 -44.5 55t-73.5 21q-55 0 -96 -36q-40 -34 -40 -83q0 -34 28 -34q33 0 33 45v22q0 26 19 42.5t50 16.5q68 0 68 -100v-59q-217 -34 -217 -175q0 -57 32.5 -92.5t82.5 -35.5q40 0 64.5 19t47.5 68q7 -85 65 -85
q16 0 45 6v26q-15 -3 -21 -3zM205 551l136 147h-92l-81 -147h37zM249 182q0 -148 -81 -148q-68 0 -68 91q0 59 35 93t114 51v-87z" />
    <glyph glyph-name="acircumflex" unicode="&#xe2;" horiz-adv-x="385" 
d="M348 23q-19 0 -26 19t-7 70v204q0 60 -10 89q-12 34 -44.5 55t-73.5 21q-55 0 -96 -36q-40 -34 -40 -83q0 -34 28 -34q33 0 33 45v22q0 26 19 42.5t50 16.5q68 0 68 -100v-59q-217 -34 -217 -175q0 -57 32.5 -92.5t82.5 -35.5q40 0 64.5 19t47.5 68q7 -85 65 -85
q16 0 45 6v26q-15 -3 -21 -3zM103 552l90 86l89 -86h40l-110 147h-39l-109 -147h39zM249 182q0 -148 -81 -148q-68 0 -68 91q0 59 35 93t114 51v-87z" />
    <glyph glyph-name="atilde" unicode="&#xe3;" horiz-adv-x="385" 
d="M348 23q-19 0 -26 19t-7 70v204q0 60 -10 89q-12 34 -44.5 55t-73.5 21q-55 0 -96 -36q-40 -34 -40 -83q0 -34 28 -34q33 0 33 45v22q0 26 19 42.5t50 16.5q68 0 68 -100v-59q-217 -34 -217 -175q0 -57 32.5 -92.5t82.5 -35.5q40 0 64.5 19t47.5 68q7 -85 65 -85
q16 0 45 6v26q-15 -3 -21 -3zM134 629q18 0 41 -20q44 -38 68 -38q64 0 79 103l-23 6q-15 -52 -48 -52q-19 0 -36 16l-17 15q-32 27 -57 27q-61 0 -75 -86l-2 -12l23 -8q16 49 47 49zM249 182q0 -148 -81 -148q-68 0 -68 91q0 59 35 93t114 51v-87z" />
    <glyph glyph-name="adieresis" unicode="&#xe4;" horiz-adv-x="385" 
d="M348 23q-19 0 -26 19t-7 70v204q0 60 -10 89q-12 34 -44.5 55t-73.5 21q-55 0 -96 -36q-40 -34 -40 -83q0 -34 28 -34q33 0 33 45v22q0 26 19 42.5t50 16.5q68 0 68 -100v-59q-217 -34 -217 -175q0 -57 32.5 -92.5t82.5 -35.5q40 0 64.5 19t47.5 68q7 -85 65 -85
q16 0 45 6v26q-15 -3 -21 -3zM69 620q0 -22 13 -38t31 -16t31 16t13 38q0 23 -12.5 38.5t-31.5 15.5q-18 0 -31 -16t-13 -38zM221 620q0 -22 13 -38t31 -16t30.5 15.5t12.5 38.5t-12.5 38.5t-30.5 15.5q-19 0 -31.5 -15.5t-12.5 -38.5zM249 182q0 -148 -81 -148
q-68 0 -68 91q0 59 35 93t114 51v-87z" />
    <glyph glyph-name="aring" unicode="&#xe5;" horiz-adv-x="385" 
d="M348 23q-19 0 -26 19t-7 70v204q0 60 -10 89q-12 34 -44.5 55t-73.5 21q-55 0 -96 -36q-40 -34 -40 -83q0 -34 28 -34q33 0 33 45v22q0 26 19 42.5t50 16.5q68 0 68 -100v-59q-217 -34 -217 -175q0 -57 32.5 -92.5t82.5 -35.5q40 0 64.5 19t47.5 68q7 -85 65 -85
q16 0 45 6v26q-15 -3 -21 -3zM124 631q0 -35 20 -59.5t49 -24.5q28 0 48.5 24.5t20.5 59.5t-20 59.5t-49 24.5t-49 -24.5t-20 -59.5zM249 182q0 -148 -81 -148q-68 0 -68 91q0 59 35 93t114 51v-87zM233 631q0 -20 -11.5 -34.5t-28.5 -14.5t-28.5 14.5t-11.5 34.5t11.5 34.5
t28.5 14.5t28.5 -14.5t11.5 -34.5z" />
    <glyph glyph-name="ae" unicode="&#xe6;" horiz-adv-x="597" 
d="M424 24q-58 0 -85 56q-24 49 -24 166h248q-1 63 -8 94q-7 32 -25 67q-17 33 -49.5 53.5t-69.5 20.5q-69 0 -115 -60q-33 60 -111 60q-53 0 -94 -36q-40 -34 -40 -84q0 -33 28 -33q33 0 33 44q0 11 -1 18q0 4 -1 6v4q0 22 20.5 38.5t49.5 16.5q69 0 69 -101v-73
q-73 -9 -124 -30q-92 -39 -93 -133q0 -56 32.5 -91t83.5 -35q86 0 118 111q46 -111 148 -111q63 0 103 42.5t47 119.5h-34q-15 -130 -106 -130zM249 182q0 -148 -81 -148q-68 0 -68 89q0 56 34 85.5t115 42.5v-69zM315 283q12 173 94 173t87 -173h-181z" />
    <glyph glyph-name="ccedilla" unicode="&#xe7;" horiz-adv-x="362" 
d="M329 154h-34q-15 -132 -92 -132q-97 0 -97 211q0 107 26 165.5t73 58.5q73 0 96 -129h19v165h-15l-22 -51q-38 42 -85 42q-73 0 -119 -70q-45 -69 -45 -181q0 -103 38 -167t106 -75l-30 -68q62 -3 62 -43q0 -43 -42 -43q-13 0 -43 9v-30q33 -16 63 -16q34 0 55 20.5
t21 54.5q0 59 -71 67l22 50q99 18 114 162z" />
    <glyph glyph-name="egrave" unicode="&#xe8;" horiz-adv-x="380" 
d="M148 698h-92l137 -147h37zM209 23q-58 0 -85 60q-21 48 -24 164h247q-2 113 -41.5 174t-110.5 61q-73 0 -118 -68q-44 -68 -44 -177q0 -114 45 -180t122 -66q63 0 102 43t46 120h-33q-15 -131 -106 -131zM101 283q13 174 93 174t87 -174h-180z" />
    <glyph glyph-name="eacute" unicode="&#xe9;" horiz-adv-x="377" 
d="M212 551l137 147h-93l-81 -147h37zM209 23q-58 0 -85 60q-21 48 -24 164h247q-2 113 -41.5 174t-110.5 61q-73 0 -118 -68q-44 -68 -44 -177q0 -114 45 -180t122 -66q63 0 102 43t46 120h-33q-15 -131 -106 -131zM101 283q13 174 93 174t87 -174h-180z" />
    <glyph glyph-name="ecircumflex" unicode="&#xea;" horiz-adv-x="380" 
d="M209 23q-58 0 -85 60q-21 48 -24 164h247q-2 113 -41.5 174t-110.5 61q-73 0 -118 -68q-44 -68 -44 -177q0 -114 45 -180t122 -66q63 0 102 43t46 120h-33q-15 -131 -106 -131zM108 552l90 86l89 -86h40l-110 147h-39l-109 -147h39zM101 283q13 174 93 174t87 -174h-180z
" />
    <glyph glyph-name="edieresis" unicode="&#xeb;" horiz-adv-x="380" 
d="M209 22q-109 0 -109 226h247q-3 236 -152 236q-75 0 -118.5 -67.5t-43.5 -183.5t44.5 -179.5t125.5 -63.5q61 0 99 43t46 120h-33q-15 -131 -106 -131zM72 620q0 -22 13 -38t31 -16t31 16t13 38t-13 38t-31 16t-31 -16t-13 -38zM223 620q0 -22 13 -38t31 -16t31 16t13 38
t-13 38t-31 16t-31 -16t-13 -38zM101 284q13 174 93 174t87 -174h-180z" />
    <glyph glyph-name="igrave" unicode="&#xec;" horiz-adv-x="232" 
d="M25 463v-17q41 -2 49 -11q10 -9 10 -48v-316q0 -33 -11 -42.5t-48 -11.5v-19q62 5 92 5q31 0 93 -5v19q-38 2 -49 12t-11 42v419q-59 -20 -125 -27zM85 698h-91l135 -147h37z" />
    <glyph glyph-name="iacute" unicode="&#xed;" horiz-adv-x="232" 
d="M25 463v-17q41 -2 49 -11q10 -9 10 -48v-316q0 -33 -11 -42.5t-48 -11.5v-19q62 5 92 5q31 0 93 -5v19q-38 2 -49 12t-11 42v419q-59 -20 -125 -27zM125 551l136 147h-92l-81 -147h37z" />
    <glyph glyph-name="icircumflex" unicode="&#xee;" horiz-adv-x="232" 
d="M25 463v-17q41 -2 49 -11q10 -9 10 -48v-316q0 -33 -11 -42.5t-48 -11.5v-19q62 5 92 5q31 0 93 -5v19q-38 2 -49 12t-11 42v419q-59 -20 -125 -27zM26 552l89 86l90 -86h40l-110 147h-39l-108 -147h38z" />
    <glyph glyph-name="idieresis" unicode="&#xef;" horiz-adv-x="230" 
d="M26 463v-17q40 -2 48 -11q10 -9 10 -48v-316q0 -33 -11 -42.5t-48 -11.5v-19q62 5 92 5q31 0 93 -5v19q-38 2 -49 12t-11 42v419q-57 -20 -124 -27zM3 633q0 -22 12.5 -37t30.5 -15q17 0 29.5 15t12.5 37t-12.5 37.5t-29.5 15.5q-18 0 -30.5 -15.5t-12.5 -37.5zM125 633
q0 -22 12 -37t30 -15q17 0 29.5 15t12.5 37t-12.5 37.5t-29.5 15.5t-29.5 -15.5t-12.5 -37.5z" />
    <glyph glyph-name="ntilde" unicode="&#xf1;" horiz-adv-x="454" 
d="M36 442q18 0 23 -1q25 -4 25 -46v-324q0 -33 -10.5 -42.5t-49.5 -11.5v-19q58 5 91 5q31 0 89 -5v19q-32 1 -43 11t-11 41v242q0 125 87 125q40 0 56.5 -28t16.5 -94v-245q0 -31 -11 -41t-43 -11v-19q58 5 89 5q34 0 92 -5v19q-39 2 -49.5 11.5t-10.5 42.5v240
q4 77 -29 122.5t-92 47.5q-70 0 -112 -78q-3 57 -10 87q-45 -20 -109 -30v-17h6q3 -1 5 -1zM169 629q18 0 41 -20q43 -38 68 -38q63 0 78 103l-22 6q-16 -52 -48 -52q-17 0 -36 16l-18 15q-31 27 -56 27q-54 0 -75 -86l-3 -12l23 -8q16 49 48 49z" />
    <glyph glyph-name="ograve" unicode="&#xf2;" horiz-adv-x="389" 
d="M164 698h-93l137 -147h37zM198 481q-73 0 -119 -69q-46 -67 -46 -177q0 -109 45 -176t116 -67t116 68q46 68 46 177q0 108 -44 176t-114 68zM193 17q-90 0 -90 218q0 221 94 221q89 0 89 -221q0 -218 -93 -218z" />
    <glyph glyph-name="oacute" unicode="&#xf3;" horiz-adv-x="389" 
d="M203 551l137 147h-92l-81 -147h36zM198 481q-73 0 -119 -69q-46 -67 -46 -177q0 -109 45 -176t116 -67t116 68q46 68 46 177q0 108 -44 176t-114 68zM193 17q-90 0 -90 218q0 221 94 221q89 0 89 -221q0 -218 -93 -218z" />
    <glyph glyph-name="ocircumflex" unicode="&#xf4;" horiz-adv-x="389" 
d="M198 481q-73 0 -119 -69q-46 -67 -46 -177q0 -109 45 -176t116 -67t116 68q46 68 46 177q0 108 -44 176t-114 68zM105 552l89 86l90 -86h40l-110 147h-39l-109 -147h39zM193 17q-90 0 -90 218q0 221 94 221q89 0 89 -221q0 -218 -93 -218z" />
    <glyph glyph-name="otilde" unicode="&#xf5;" horiz-adv-x="389" 
d="M136 629q18 0 41 -20q44 -38 68 -38q64 0 79 103l-24 6q-13 -52 -47 -52q-19 0 -36 16l-17 15q-32 27 -57 27q-53 0 -74 -86l-3 -12l23 -8q15 49 47 49zM198 481q-73 0 -119 -69q-46 -67 -46 -177q0 -109 45 -176t116 -67t116 68q46 68 46 177q0 108 -44 176t-114 68z
M193 17q-90 0 -90 218q0 221 94 221q89 0 89 -221q0 -218 -93 -218z" />
    <glyph glyph-name="odieresis" unicode="&#xf6;" horiz-adv-x="389" 
d="M198 484q-73 0 -119 -69q-46 -68 -46 -179q0 -109 45 -178q45 -68 116 -68t116 69q46 68 46 179q0 109 -44 177q-44 69 -114 69zM75 620q0 -22 13 -38t31 -16t31 16t13 38q0 23 -12.5 38.5t-31.5 15.5q-18 0 -31 -16t-13 -38zM227 620q0 -22 13 -38t31 -16t30.5 15.5
t12.5 38.5t-12.5 38.5t-30.5 15.5q-19 0 -31.5 -15.5t-12.5 -38.5zM193 15q-90 0 -90 221q0 222 94 222q89 0 89 -223q0 -220 -93 -220z" />
    <glyph glyph-name="divide" unicode="&#xf7;" horiz-adv-x="434" 
d="M389 308v58h-344v-58h344zM174 200q0 -22 12.5 -37t30.5 -15t31 15t13 37t-13 37t-31 15t-30.5 -15t-12.5 -37zM174 475q0 -22 12.5 -37.5t30.5 -15.5t31 15.5t13 37.5q0 21 -13 36.5t-31 15.5t-30.5 -15.5t-12.5 -36.5z" />
    <glyph glyph-name="oslash" unicode="&#xf8;" horiz-adv-x="388" 
d="M83 47q45 -55 109 -55q71 0 116 71q46 70 46 181q0 92 -34 159l47 72h-34l-31 -46q-40 52 -104 52q-73 0 -120 -71q-46 -70 -46 -181q0 -88 34 -155l-50 -76h34zM279 347q11 -49 11 -112q0 -100 -26 -157.5t-70 -57.5q-56 0 -79 71zM107 130q-9 40 -9 94q0 229 97 229
q54 0 75 -67z" />
    <glyph glyph-name="ugrave" unicode="&#xf9;" horiz-adv-x="447" 
d="M71 387v-229q0 -56 14 -93q29 -72 108 -72q77 0 114 88q2 -60 5 -90q58 18 115 25v18h-11q-17 0 -29 2q-22 4 -22 47v407q-61 -19 -125 -27v-17q41 -2 49 -11q10 -9 10 -48v-217q0 -133 -86 -133q-41 0 -58 27.5t-17 91.5v334q-61 -19 -125 -27v-17q41 -2 49 -11
q9 -9 9 -48zM191 698h-92l137 -147h36z" />
    <glyph glyph-name="uacute" unicode="&#xfa;" horiz-adv-x="447" 
d="M71 387v-229q0 -56 14 -93q29 -72 108 -72q77 0 114 88q2 -60 5 -90q58 18 115 25v18h-11q-17 0 -29 2q-22 4 -22 47v407q-61 -19 -125 -27v-17q41 -2 49 -11q10 -9 10 -48v-217q0 -133 -86 -133q-41 0 -58 27.5t-17 91.5v334q-61 -19 -125 -27v-17q41 -2 49 -11
q9 -9 9 -48zM232 551l136 147h-92l-82 -147h38z" />
    <glyph glyph-name="ucircumflex" unicode="&#xfb;" horiz-adv-x="447" 
d="M71 387v-229q0 -56 14 -93q29 -72 108 -72q77 0 114 88q2 -60 5 -90q58 18 115 25v18h-11q-17 0 -29 2q-22 4 -22 47v407q-61 -19 -125 -27v-17q41 -2 49 -11q10 -9 10 -48v-217q0 -133 -86 -133q-41 0 -58 27.5t-17 91.5v334q-61 -19 -125 -27v-17q41 -2 49 -11
q9 -9 9 -48zM133 552l89 86l89 -86h40l-109 147h-39l-110 -147h40z" />
    <glyph glyph-name="udieresis" unicode="&#xfc;" horiz-adv-x="447" 
d="M71 387v-229q0 -56 14 -93q29 -72 108 -72q77 0 114 88q2 -60 5 -90q58 18 115 25v18h-11q-17 0 -29 2q-22 4 -22 47v407q-61 -19 -125 -27v-17q41 -2 49 -11q10 -9 10 -48v-217q0 -133 -86 -133q-41 0 -58 27.5t-17 91.5v334q-61 -19 -125 -27v-17q41 -2 49 -11
q9 -9 9 -48zM102 620q0 -22 13 -38t31 -16t30.5 15.5t12.5 38.5t-12.5 38.5t-30.5 15.5q-19 0 -31.5 -15.5t-12.5 -38.5zM253 620q0 -22 13 -38t31 -16t31 16t13 38t-13 38t-31 16t-31 -16t-13 -38z" />
    <glyph glyph-name="ydieresis" unicode="&#xff;" horiz-adv-x="414" 
d="M168 -57q-32 -87 -100 -87l-9 1v-51h12q85 0 121 113l156 487q13 41 63 49v20q-39 -4 -72 -4q-29 0 -61 4v-20q11 0 23 -2q24 -3 24 -21q0 -8 -6 -28l-91 -285l-87 288l-4 14q-3 8 -3 13q0 18 44 21v20q-55 -5 -85 -5t-85 5v-20q32 -2 43.5 -10.5t19.5 -35.5l123 -393z
M100 620q0 -22 13 -38t31 -16t31 16t13 38t-13 38t-31 16t-31 -16t-13 -38zM251 620q0 -22 13 -38t31 -16q19 0 31.5 15.5t12.5 38.5t-12.5 38.5t-31.5 15.5q-18 0 -31 -16t-13 -38z" />
    <glyph glyph-name="dotlessi" unicode="&#x131;" horiz-adv-x="232" 
d="M25 463v-17q41 -2 49 -11q10 -9 10 -48v-316q0 -33 -11 -42.5t-48 -11.5v-19q62 5 92 5q31 0 93 -5v19q-38 2 -49 12t-11 42v419q-59 -20 -125 -27z" />
    <glyph glyph-name="OE" unicode="&#x152;" horiz-adv-x="463" 
d="M155 348v12q-22 2 -28 7.5t-6 26.5v298h-11q-15 -52 -70 -56v-12h47v-230q0 -21 -6 -26t-28 -8v-12q25 3 51 3t51 -3zM398 668h-35l-325 -668h35zM418 35h-127q12 17 37.5 53t37.5 53q50 77 50 115q0 33 -21.5 54t-51.5 21q-71 0 -79 -98h14q9 70 57 70q20 0 32.5 -15
t12.5 -39q0 -49 -121 -221v-28h155z" />
    <glyph glyph-name="oe" unicode="&#x153;" horiz-adv-x="634" 
d="M461 24q-60 0 -86 59q-21 48 -24 153h249q-2 245 -153 245q-79 0 -128 -82q-46 82 -121 82q-73 0 -119 -69q-46 -67 -46 -177q0 -108 44 -176q45 -67 116 -67q76 0 125 82q52 -82 135 -82q62 0 101.5 43t46.5 119h-33q-16 -130 -107 -130zM194 17q-91 0 -91 218
q0 221 94 221q89 0 89 -221q0 -218 -92 -218zM352 274q2 18 4.5 39t2.5 23q20 122 88 122q81 0 87 -184h-182z" />
    <glyph glyph-name="Ydieresis" unicode="&#x178;" horiz-adv-x="439" 
d="M149 345v12q-21 1 -26 5q-8 6 -8 28v295h-11q-13 -48 -69 -56v-11h46v-228q0 -21 -6 -26t-28 -7v-12q25 3 51 3t51 -3zM389 662h-34l-322 -662h35zM417 78v31h-46v215h-33l-112 -246h111v-92h34v92h46zM338 296v-187h-83z" />
    <glyph glyph-name="florin" unicode="&#x192;" horiz-adv-x="434" 
d="M272 472l16 107q15 98 63 98q23 0 23 -21q0 -6 -3 -18q-3 -13 -3 -20q0 -29 30 -29q32 0 32 45q0 34 -21 54t-56 20q-43 0 -78 -30q-37 -31 -54 -124l-5 -25q-7 -42 -17 -53q-9 -9 -43 -9h-12l-1 -33h58l-58 -393q-11 -75 -26.5 -105.5t-42.5 -30.5q-26 0 -26 24
q0 9 3 18q4 12 4 21q0 29 -28 29q-33 0 -33 -45q0 -35 22.5 -56.5t59.5 -21.5q52 0 84 41q37 47 59 199l47 320h90l2 38h-86z" />
    <glyph glyph-name="circumflex" unicode="&#x2c6;" 
d="M118 552l90 86l89 -86h40l-110 146h-39l-109 -146h39z" />
    <glyph glyph-name="caron" unicode="&#x2c7;" 
d="M297 696l-89 -86l-90 86h-39l109 -145h39l110 145h-40z" />
    <glyph glyph-name="breve" unicode="&#x2d8;" 
d="M208 615q-61 0 -85 82h-28q6 -67 36 -105.5t77 -38.5q46 0 75.5 38.5t36.5 105.5h-28q-24 -82 -84 -82z" />
    <glyph glyph-name="dotaccent" unicode="&#x2d9;" 
d="M160 620q0 -24 14 -41t34 -17q19 0 33 17t14 41t-14 41t-33 17q-20 0 -34 -17t-14 -41z" />
    <glyph glyph-name="ring" unicode="&#x2da;" 
d="M138 631q0 -35 20.5 -59.5t49.5 -24.5q28 0 48.5 24.5t20.5 59.5t-20.5 59.5t-48.5 24.5q-29 0 -49.5 -24.5t-20.5 -59.5zM248 631q0 -20 -11.5 -34.5t-28.5 -14.5t-29 14.5t-12 34.5t12 34.5t29 14.5t28.5 -14.5t11.5 -34.5z" />
    <glyph glyph-name="ogonek" unicode="&#x2db;" 
d="M153 -83q0 -32 21.5 -53t54.5 -21q23 0 51 12v31q-18 -5 -28 -5q-44 0 -44 44q0 46 71 79l-26 7q-100 -31 -100 -94z" />
    <glyph glyph-name="tilde" unicode="&#x2dc;" 
d="M149 629q18 0 41 -20q43 -38 68 -38q63 0 78 103l-22 6q-16 -52 -48 -52q-17 0 -36 16l-18 15q-31 27 -56 27q-61 0 -75 -86l-2 -12l23 -8q15 49 47 49z" />
    <glyph glyph-name="hungarumlaut" unicode="&#x2dd;" 
d="M171 551l109 147h-72l-71 -147h34zM285 551l110 147h-72l-72 -147h34z" />
    <glyph glyph-name="Omega" unicode="&#x3a9;" horiz-adv-x="554" 
d="M554 115q-14 -44 -32 -57q-20 -14 -69 -15l-94 -3v5q25 12 44 23q69 41 109 120q42 81 42 172q0 72 -30 142q-73 175 -247 175q-75 0 -130 -34q-64 -39 -106 -120q-41 -80 -41 -164q0 -106 52 -191q28 -46 56 -71q28 -23 85 -52v-5l-88 2q-49 1 -68 13q-24 14 -37 60h-15
l31 -115h227v40q-31 18 -50 32q-56 42 -91 121q-33 77 -33 165q0 127 59 210t148 83q73 0 122 -49q39 -39 62.5 -106.5t23.5 -139.5q0 -93 -36 -171q-25 -55 -52 -82q-30 -30 -86 -63v-40h228l31 115h-15z" />
    <glyph glyph-name="mu" unicode="&#x3bc;" horiz-adv-x="365" 
d="M346 39q-24 0 -30 28q-2 14 -2 48v342h-52v-345q-48 -82 -106 -82q-42 0 -59.5 32.5t-17.5 108.5v286h-52v-174q0 -103 -6 -189q-4 -41 -9 -106q-6 -51 -9 -72q-4 -33 -4 -56q0 -48 28 -48t28 52q0 12 -8 90q-5 52 -5 95v25q22 -88 92 -88q32 0 58 17q28 18 73 72l1 -18
q4 -67 40 -67h2q1 1 2 1l62 45v15q-16 -12 -26 -12z" />
    <glyph glyph-name="pi" unicode="&#x3c0;" 
d="M118 466q-53 0 -75 -34l-57 -90l9 -13q31 54 58 71q28 17 76 17q-1 -59 -8 -150q-9 -120 -32 -199q-8 -29 -8 -46q0 -15 8 -26.5t18 -11.5q24 0 34 91q1 11 2.5 33.5t2.5 31.5q9 111 9 154l1 123l144 1l-7 -16l-14 -35l-17 -37q-16 -33 -16 -89v-158q0 -39 11 -67t27 -28
q2 0 5 2t4 2l82 39v17l-10 -4q-24 -8 -30 -8q-27 0 -33 35q-1 5 -1 56v162q0 27 23 108l6 21h129v47z" />
    <glyph glyph-name="endash" unicode="&#x2013;" horiz-adv-x="434" 
d="M389 308v59h-344v-59h344z" />
    <glyph glyph-name="emdash" unicode="&#x2014;" horiz-adv-x="487" 
d="M487 245v44h-487v-44h487z" />
    <glyph glyph-name="quoteleft" unicode="&#x2018;" horiz-adv-x="198" 
d="M151 616q0 62 -46 62q-20 0 -33 -14.5t-13 -37.5q0 -47 40 -47q4 0 6 1h4q-7 -63 -63 -129h40q65 94 65 165z" />
    <glyph glyph-name="quoteright" unicode="&#x2019;" horiz-adv-x="198" 
d="M151 616q0 62 -46 62q-20 0 -33 -14.5t-13 -37.5q0 -47 40 -47q4 0 6 1h4q-7 -63 -63 -129h40q65 94 65 165z" />
    <glyph glyph-name="quotesinglbase" unicode="&#x201a;" horiz-adv-x="198" 
d="M151 31q0 62 -46 62q-20 0 -33 -14.5t-13 -37.5q0 -46 20 -46q18 0 26 2h4q-7 -64 -63 -130h40q65 95 65 164z" />
    <glyph glyph-name="quotedblleft" unicode="&#x201c;" horiz-adv-x="324" 
d="M151 616q0 62 -46 62q-20 0 -33 -14.5t-13 -37.5q0 -47 40 -47q4 0 6 1h4q-7 -63 -63 -129h40q65 94 65 165zM277 616q0 62 -47 62q-19 0 -32 -14.5t-13 -37.5q0 -47 40 -47q4 0 7 1h3q-7 -64 -62 -129h39q65 94 65 165z" />
    <glyph glyph-name="quotedblright" unicode="&#x201d;" horiz-adv-x="324" 
d="M151 616q0 62 -46 62q-20 0 -33 -14.5t-13 -37.5q0 -47 40 -47q4 0 6 1h4q-7 -63 -63 -129h40q65 94 65 165zM277 616q0 62 -47 62q-19 0 -32 -14.5t-13 -37.5q0 -47 40 -47q4 0 7 1h3q-7 -64 -62 -129h39q65 94 65 165z" />
    <glyph glyph-name="quotedblbase" unicode="&#x201e;" horiz-adv-x="324" 
d="M151 31q0 62 -46 62q-20 0 -33 -14.5t-13 -37.5q0 -46 20 -46q18 0 26 2h4q-7 -64 -63 -130h40q65 95 65 164zM277 31q0 62 -47 62q-19 0 -32 -14.5t-13 -37.5q0 -46 40 -46l7 2h3q-8 -65 -62 -130h39q65 95 65 164z" />
    <glyph glyph-name="dagger" unicode="&#x2020;" horiz-adv-x="726" 
d="M548 343l-541 227v-450z" />
    <glyph glyph-name="daggerdbl" unicode="&#x2021;" horiz-adv-x="434" 
d="M193 110l-133 11v-69l133 11l-5 -181h59l-6 181l133 -11v69l-133 -11v319l133 -10v68l-133 -10l6 173h-59l5 -173l-133 10v-68l133 10v-319z" />
    <glyph glyph-name="bullet" unicode="&#x2022;" horiz-adv-x="554" 
d="M163 340q0 -58 33 -99q35 -41 81 -41q47 0 80 41q34 40 34 99t-34 99q-33 41 -80 41q-46 0 -81 -41q-33 -41 -33 -99z" />
    <glyph glyph-name="ellipsis" unicode="&#x2026;" horiz-adv-x="572" 
d="M48 48q0 -23 14 -39.5t33 -16.5q20 0 34 16t14 40t-14 40.5t-34 16.5q-19 0 -33 -17t-14 -40zM239 48q0 -24 13.5 -40t33.5 -16t34 16t14 40t-14 40.5t-34 16.5q-19 0 -33 -17t-14 -40zM429 48q0 -23 14 -39.5t33 -16.5q20 0 34 16t14 40t-14 40.5t-34 16.5
q-19 0 -33 -17t-14 -40z" />
    <glyph glyph-name="perthousand" unicode="&#x2030;" horiz-adv-x="760" 
d="M135 353q48 0 79 45.5t31 115.5t-30 114t-77 44q-49 0 -80 -44.5t-31 -115.5t30 -115t78 -44zM107 0l325 667h-35l-325 -667h35zM369 -5q47 0 77.5 45t30.5 115t-29.5 114.5t-76.5 44.5q-49 0 -80 -45t-31 -116q0 -70 30.5 -114t78.5 -44zM625 -5q47 0 78 45
q31 44 31 115q0 70 -30 114.5t-77 44.5q-49 0 -80.5 -45t-31.5 -116q0 -70 30.5 -114t79.5 -44zM137 648q58 0 58 -135q0 -136 -60 -136q-59 0 -59 135q0 136 61 136zM369 290q58 0 58 -135t-58 -136q-59 -2 -59 135q0 136 59 136zM626 290q58 0 58 -136t-60 -136
q-58 0 -58 135q0 137 60 137z" />
    <glyph glyph-name="guilsinglleft" unicode="&#x2039;" horiz-adv-x="218" 
d="M45 239l100 -239h28l-69 239l69 233h-28z" />
    <glyph glyph-name="guilsinglright" unicode="&#x203a;" horiz-adv-x="221" 
d="M48 472l69 -233l-69 -239h28l100 239l-100 233h-28z" />
    <glyph glyph-name="fraction" unicode="&#x2044;" horiz-adv-x="43" 
d="M-119 0l317 652h-35l-317 -652h35z" />
    <glyph glyph-name="euro" unicode="&#x20ac;" horiz-adv-x="498" 
d="M274 32q63 0 100 50.5t42 142.5h30q-4 -111 -52.5 -173.5t-130.5 -62.5q-100 0 -160 94q-60 95 -60 249q0 158 60 252q62 95 163 95q76 0 129 -60l29 58h15v-196h-19q-34 166 -144 166q-158 0 -158 -312q0 -146 40 -224.5t116 -78.5zM-105 252l74 64q1 -1 66 -1t129 0.5
t62 1.5q1 0 -15 -16.5t-32.5 -33t-16.5 -15.5h-267zM-58 349l74 64q1 -1 66 -1t129 0.5t62 1.5q1 0 -15 -16.5t-32.5 -33t-16.5 -15.5h-267z" />
    <glyph glyph-name="trademark" unicode="&#x2122;" horiz-adv-x="722" 
d="M196 642q26 0 37.5 -13.5t21.5 -58.5h18l-16 97h-229l-15 -97h18q11 45 23 58.5t39 13.5h24v-320q0 -23 -6 -28.5t-36 -7.5v-21q39 4 67 4t67 -4v21q-30 2 -36 7.5t-6 28.5v320h29zM466 349l17 -54l5 -17h12l106 332l4 -288v-3q0 -20 -8 -26t-34 -7v-21q39 4 67 4
q27 0 67 -4v21q-30 2 -36.5 7.5t-6.5 28.5l-5 290v3q0 20 7 25.5t35 7.5v21q-30 -3 -43 -3q-15 0 -51 3l-96 -292l-93 292q-32 -3 -52 -3q-13 0 -44 3v-21q27 -2 34.5 -8t7.5 -24l-10 -294q-1 -22 -7.5 -28t-35.5 -8v-21q44 3 55 3q13 0 53 -3v21q-28 2 -35 7.5t-7 23.5
l10 292z" />
    <glyph glyph-name="partialdiff" unicode="&#x2202;" 
d="M212 594q47 -49 83 -131q14 -31 32 -96q-27 44 -54 61.5t-67 17.5q-76 0 -128 -67q-51 -66 -51 -163t51 -163q52 -66 128 -66q79 0 130 67q52 67 52 173q0 72 -29 167q-38 119 -93 185q-54 64 -136 106l-8 -17q52 -33 90 -74zM331 221q0 -91 -36 -152t-89 -61
q-52 0 -87 60q-35 61 -35 148t36 147q37 61 89 61q53 0 88 -57q34 -56 34 -146z" />
    <glyph glyph-name="increment" unicode="&#x2206;" horiz-adv-x="1156" 
 />
    <glyph glyph-name="product" unicode="&#x220f;" horiz-adv-x="554" 
d="M18 649h21q40 0 49 -19q6 -10 6 -61v-703q0 -50 -6 -61q-9 -19 -49 -19h-18v-18h207v18h-20q-17 0 -23 1q-23 5 -29 32q-2 14 -2 47v703q0 51 6 61q10 19 50 19h135q40 0 49 -19q6 -10 6 -61v-703q0 -50 -6 -61q-9 -19 -49 -19h-18v-18h208v18h-21q-39 0 -48 20
q-5 12 -5 60v703q0 51 6 61q9 19 49 19h19v18h-517v-18z" />
    <glyph glyph-name="summation" unicode="&#x2211;" horiz-adv-x="554" 
d="M250 216l-201 -448h429l28 193h-15q-11 -51 -26 -78q-22 -41 -53.5 -57t-91.5 -16h-219l196 439l-172 393h191q75 0 104 -28t37 -105h15v158h-423z" />
    <glyph glyph-name="radical" unicode="&#x221a;" horiz-adv-x="554" 
d="M419 823l-150 -773l-66 337h-189v-26h139l72 -361h61l154 797h100v26h-121z" />
    <glyph glyph-name="infinity" unicode="&#x221e;" horiz-adv-x="554" 
d="M406 166q56 0 95 50q40 50 40 122q0 69 -37 115q-38 48 -91 48q-47 0 -82 -41q-14 -20 -49 -83q-63 124 -139 124q-54 0 -93 -51q-38 -50 -38 -120q0 -65 35 -112q36 -46 88 -46q51 0 88 51q13 18 40 69q60 -126 143 -126zM412 447q49 0 78.5 -30.5t29.5 -81.5
q0 -47 -24 -79t-60 -32q-35 0 -71 30q-33 29 -73 105q46 88 120 88zM137 226q-47 0 -76 29t-29 78q0 47 23.5 78t58.5 31q22 0 45 -12q42 -23 92 -117q-26 -49 -51 -68t-63 -19z" />
    <glyph glyph-name="integral" unicode="&#x222b;" horiz-adv-x="416" 
d="M305 657q25 0 25 -29q0 -6 -4 -21t-4 -21q0 -19 11.5 -32t28.5 -13q18 0 30 15t12 38q0 43 -28 72.5t-69 29.5q-55 0 -89 -54q-22 -34 -30 -74q-10 -47 -10 -157v-458q0 -78 -19 -128t-48 -50q-25 0 -25 29q0 6 4 21t4 21q0 19 -11.5 32t-28.5 13t-29.5 -15.5
t-12.5 -37.5q0 -42 29 -72t69 -30q54 0 88 54q18 27 29 74q11 52 11 155v445q0 87 18.5 140t48.5 53z" />
    <glyph glyph-name="approxequal" unicode="&#x2248;" 
d="M293 418q-25 0 -70 19q-52 21 -79 21q-64 0 -122 -94l13 -9l7 10q35 50 73 50q25 0 103 -29q39 -14 56 -14q68 0 119 94l-13 8q-39 -56 -87 -56zM293 264q-23 0 -70 19q-54 22 -79 22q-63 0 -122 -95l13 -9q4 7 7 10q38 50 73 50q25 0 103 -29q39 -14 56 -14q68 0 119 94
l-13 8q-38 -56 -87 -56z" />
    <glyph glyph-name="notequal" unicode="&#x2260;" 
d="M20 438v-38h194l-40 -102h-153v-38h139l-45 -115l29 -16l51 131h200v38h-186l40 102h145v38h-130l41 106l-29 15l-48 -121h-208z" />
    <glyph glyph-name="lessequal" unicode="&#x2264;" 
d="M37 345v-6l342 -275v91l-266 213l266 209v35zM37 0h342v32h-342v-32z" />
    <glyph glyph-name="greaterequal" unicode="&#x2265;" 
d="M37 0h342v32h-342v-32zM379 329v6l-342 277v-91l265 -214l-265 -209v-34z" />
    <glyph glyph-name="null" unicode="&#x2400;" horiz-adv-x="0" 
 />
    <glyph glyph-name="lozenge" unicode="&#x25ca;" horiz-adv-x="554" 
d="M61 334l215 -359l216 359l-216 359zM440 334l-164 -271l-163 271l163 270z" />
    <glyph glyph-name="fi" unicode="&#xfb01;" horiz-adv-x="469" 
d="M149 539q0 116 50 116q26 0 26 -30v-6q-1 -3 -1 -7l-2 -14q0 -29 30 -29q31 0 31 37q0 33 -23 54t-58 21q-59 0 -91 -47q-20 -32 -23 -105q-2 -43 -11 -52q-10 -8 -51 -10v-32h57v-364q0 -32 -11 -42t-49 -12v-19q62 5 92 5q33 0 93 -5v19q-37 2 -48 11.5t-11 42.5v364
h95v37h-95v67zM262 463v-17q41 -2 49 -11q10 -9 10 -48v-316q0 -33 -11 -42.5t-48 -11.5v-19q60 5 92 5q33 0 93 -5v19q-37 2 -48 11.5t-11 42.5v419q-64 -20 -126 -27zM404 613q0 23 -13 39t-32 16t-31.5 -16t-12.5 -39t12.5 -39t31.5 -16t32 16t13 39z" />
    <glyph glyph-name="fl" unicode="&#xfb02;" horiz-adv-x="464" 
d="M201 681q-58 0 -90 -47q-20 -32 -23 -105q-2 -43 -11 -52q-10 -8 -51 -10v-32h57v-364q0 -32 -11 -42t-49 -12v-19q62 5 92 5q33 0 93 -5v19q-37 2 -48 11.5t-11 42.5v364h95v37h-95v67q0 116 51 116q25 0 25 -29q0 -4 -1.5 -14t-1.5 -14q0 -29 30 -29q31 0 31 37
q0 12 -6 28q27 -2 35 -11t8 -37v-515q0 -33 -11 -42.5t-48 -11.5v-19q60 5 93 5q30 0 92 -5v19q-37 2 -48 11.5t-11 42.5v607q-55 -17 -120 -26q-24 29 -66 29z" />
    <glyph glyph-name="FL20ACh" horiz-adv-x="498" 
d="M-38 285l17 54h20h25.5h19.5q0 10 2 30h-74l27 56h52q25 117 52 159q62 95 163 95q76 0 129 -60l29 58h15v-196h-19q-34 166 -144 166q-58 0 -98.5 -62.5t-55.5 -159.5h101l-20 -56q3 1 -89 0h-4q0 -12 -1 -16t-1 -14h38.5t37.5 1h16l-21 -56h-65q9 -252 160 -252
q63 0 100 50.5t42 142.5h30q-4 -111 -52.5 -173.5t-130.5 -62.5q-100 0 -160 94q-30 47 -44.5 90.5t-16.5 109.5q-41 2 -80 2z" />
    <glyph glyph-name="CR" horiz-adv-x="208" 
 />
    <glyph glyph-name="apple" horiz-adv-x="554" 
d="M276 518q49 0 85 49q37 49 37 114v10q-56 -9 -88.5 -54.5t-33.5 -118.5zM398 528q-29 0 -77 -22q-21 -10 -35 -10t-40 12q-39 18 -64 18q-69 0 -112 -61t-43 -159q0 -130 69 -252q46 -81 92 -81q14 0 32 8l36 18q9 4 42 4q20 0 27 -3l34 -17q18 -9 34 -9q74 0 140 195
q-82 40 -82 148q0 79 66 140q-44 71 -119 71z" />
    <glyph glyph-name="Euro" horiz-adv-x="493" 
d="M296 32q63 0 100 50.5t42 142.5h30q-4 -111 -52.5 -173.5t-130.5 -62.5q-100 0 -160 94q-60 95 -60 249q0 158 60 252q62 95 163 95q76 0 129 -60l29 58h15v-196h-19q-34 166 -144 166q-158 0 -158 -312q0 -146 40 -224.5t116 -78.5zM-17 372l39 49h312l-43 -49h-308z
M-67 273l39 49h312l-43 -49h-308z" />
  </font>
</defs>
</svg>
