<?xml version="1.0" encoding="utf-8"?>
<!-- Generator: Adobe Illustrator 16.0.3, SVG Export Plug-In . SVG Version: 6.00 Build 0)  -->
<!DOCTYPE svg PUBLIC "-//W3C//DTD SVG 1.1//EN" "http://www.w3.org/Graphics/SVG/1.1/DTD/svg11.dtd">
<svg version="1.1" id="Layer_1" xmlns="http://www.w3.org/2000/svg" xmlns:xlink="http://www.w3.org/1999/xlink" x="0px" y="0px"
	 width="300px" height="300px" viewBox="0 0 300 300" enable-background="new 0 0 300 300" xml:space="preserve">
<g>
	<path fill="#FFFFFF" d="M150.341,295.867C68.542,295.832,2.25,230.236,2.25,149.36c0-80.916,66.33-146.509,148.091-146.472
		c81.873,0,148.166,65.594,148.166,146.472C298.507,230.274,232.177,295.867,150.341,295.867L150.341,295.867z M28.877,219.631
		l2.652-2.063c-7.66-14.032-10.606-23.387-13.958-33.774c-0.294-0.773-0.479-1.288-0.811-1.729c-0.221,0.588-0.11,1.106-0.074,1.768
		C18.823,195.176,23.979,209.464,28.877,219.631L28.877,219.631z M152.403,17.435l20.146,117.156l-21.066,12.338l-0.699-129.457
		c0-1.547-1.031-1.547-1.252,0l-11.896,122.791l-8.839-5.12l18.931-117.671C74.361,17.915,16.429,76.806,16.429,149.581
		c0,22.981,7.218,47.143,17.604,65.961l92.442-76.862l8.875,5.082L31.566,218.343c-2.504,1.768-1.768,2.615,0.994,1.103
		l115.903-66.955v24.088L36.537,219.299c23.423,38.267,64.968,62.647,113.436,62.647c48.357,0,90.601-24.419,114.024-62.609
		l-111.741-42.686v-24.087l111.483,64.304c2.542,1.4,3.279,0.627,0.884-1.067l-99.256-72.002l8.876-5.083l92.369,76.938
		c10.606-18.93,17.605-43.13,17.605-66.293C284.218,77.505,224.479,19.388,152.403,17.435L152.403,17.435z M291.399,122.842
		c0.258,0.7,0.479,1.289,0.81,1.694c0.221-0.589,0.036-1.104,0-1.768C280.018,56.181,222.27,6.423,150.635,6.423
		C70.458,6.423,5.6,71.428,5.6,151.569c0,18.931,4.826,36.979,11.381,53.515c3.021,7.622,12.669,25.005,15.027,28.433
		c0.516,0.735,0.736,1.103,1.325,1.544c-0.037-0.697-0.074-1.029-0.441-1.877c-0.405-0.7-8.619-16.354-13.37-27.991
		c-4.051-10.017-9.096-29.979-9.096-53.108c0-77.747,63.088-140.836,140.835-140.836c40.66,0.038,78.889,19.889,102.313,45.595
		C271.363,76.363,280.571,89.475,291.399,122.842L291.399,122.842z M33.443,220.439l-3.204,1.18
		c20.809,39.776,64.452,68.688,120.101,68.688c78.964,0.035,142.089-63.863,142.089-140.947c0-18.857-5.45-30.422-8.508-38.782
		c-2.246-6.262-7.071-15.874-9.208-19.814c-0.441-0.773-0.735-1.105-1.325-1.584c0.037,0.7,0.073,1.105,0.517,1.879
		c1.657,3.277,5.339,11.527,7.954,19.813c3.536,11.013,5.745,23.35,5.745,38.488c0,24.049-7.55,48.651-18.671,68.243
		c0.625,1.621,0.036,2.434-1.842,2.948c-24.271,39.04-67.547,64.599-116.788,64.563c-46.258,0-83.235-24.788-94.91-37.641
		C45.893,237.014,38.857,229.241,33.443,220.439L33.443,220.439z M143.012,143.393l6.114,3.573l0.774-95.058
		c0-1.915-0.59-1.988-0.737-0.073L143.012,143.393L143.012,143.393z M153.691,150.575l82.242,48.137
		c1.473,0.848,1.767,0.332,0.368-0.592l-76.349-51.154L153.691,150.575L153.691,150.575z M141.171,147.26l-20.662,16.903
		c-1.143,0.959-0.626,1.4,0.737,0.627l25.781-14.288L141.171,147.26L141.171,147.26z"/>
</g>
</svg>
