<?xml version="1.0" standalone="yes"?><svg version="1.1" xmlns = 'http://www.w3.org/2000/svg'><defs><font id='web' horiz-adv-x="1000">
<font-face font-family="web" descent="-410" cap-height="1518" units-per-em="2048" bbox="-164,-500,3142,2476" x-height="1130" ascent="1638" />
<missing-glyph horiz-adv-x="1024" d="" /><glyph horiz-adv-x="1436" d="M 106 557 L 106 702 L 1329 702 L 1329 557 L 106 557 Z" unicode="–" />
<glyph horiz-adv-x="1886" d="M 106 557 L 106 702 L 1782 702 L 1782 557 L 106 557 Z" unicode="—" />
<glyph horiz-adv-x="489" d="M 141 1036 L 141 1217 C 141 1259 143 1296 148 1327 C 153 1357 162 1384 175 1408 C 187 1431 205 1452 227 1470 C 249 1488 278 1506 313 1524 L 358 1440 C 335 1428 316 1416 302 1405 C 288 1393 277 1381 269 1369 C 260 1356 254 1342 251 1326 C 247 1310 246 1291 246 1270 L 346 1270 L 346 1036 L 141 1036 Z" unicode="‘" />
<glyph horiz-adv-x="489" d="M 176 1030 L 131 1114 C 153 1126 172 1137 186 1148 C 200 1159 212 1171 221 1184 C 229 1196 235 1210 239 1226 C 242 1242 244 1260 244 1282 L 141 1282 L 141 1518 L 346 1518 L 346 1339 C 346 1295 343 1258 339 1227 C 334 1196 325 1169 313 1146 C 300 1122 283 1101 261 1083 C 239 1065 210 1047 176 1030 Z" unicode="’" />
<glyph horiz-adv-x="489" d="M 176 -219 L 131 -135 C 153 -123 172 -111 186 -100 C 200 -89 212 -77 221 -65 C 229 -52 235 -38 239 -22 C 242 -6 244 13 244 35 L 141 35 L 141 268 L 346 268 L 346 88 C 346 47 343 11 339 -18 C 334 -48 325 -76 313 -100 C 300 -124 283 -145 261 -164 C 239 -183 210 -201 176 -219 Z" unicode="‚" />
<glyph horiz-adv-x="856" d="M 514 1038 L 514 1214 C 514 1256 516 1292 521 1322 C 525 1352 534 1379 547 1403 C 559 1425 576 1446 598 1464 C 620 1482 648 1500 682 1518 L 727 1434 C 704 1422 685 1410 671 1400 C 656 1389 645 1378 637 1366 C 628 1353 622 1339 619 1323 C 615 1307 614 1289 614 1268 L 715 1268 L 715 1038 L 514 1038 Z M 141 1038 L 141 1214 C 141 1256 143 1292 148 1322 C 153 1352 162 1379 175 1403 C 187 1425 205 1446 227 1464 C 249 1482 277 1500 311 1518 L 356 1434 C 333 1422 314 1410 300 1400 C 286 1389 275 1378 267 1366 C 258 1353 252 1339 249 1323 C 245 1307 244 1289 244 1268 L 344 1268 L 344 1038 L 141 1038 Z" unicode="“" />
<glyph horiz-adv-x="856" d="M 545 1038 L 500 1120 C 522 1132 541 1143 556 1154 C 570 1165 582 1177 591 1190 C 599 1202 605 1215 609 1231 C 612 1247 614 1266 614 1288 L 514 1288 L 514 1518 L 715 1518 L 715 1341 C 715 1298 712 1261 707 1231 C 702 1201 693 1174 681 1152 C 668 1129 651 1109 629 1091 C 607 1073 579 1055 545 1038 Z M 174 1038 L 131 1120 C 153 1132 171 1143 186 1154 C 200 1165 212 1177 221 1190 C 229 1202 234 1215 238 1231 C 242 1247 244 1266 244 1288 L 141 1288 L 141 1518 L 344 1518 L 344 1341 C 344 1298 341 1261 337 1231 C 332 1201 323 1174 311 1152 C 298 1129 281 1109 259 1091 C 237 1073 208 1055 174 1038 Z" unicode="”" />
<glyph horiz-adv-x="856" d="M 545 -215 L 500 -133 C 522 -121 541 -109 556 -99 C 570 -88 582 -77 591 -65 C 599 -52 605 -38 609 -22 C 612 -6 614 13 614 35 L 514 35 L 514 264 L 715 264 L 715 88 C 715 47 712 11 707 -18 C 702 -48 693 -75 681 -99 C 668 -122 651 -143 629 -162 C 607 -180 579 -198 545 -215 Z M 174 -215 L 131 -133 C 153 -121 171 -109 186 -99 C 200 -88 212 -77 221 -65 C 229 -52 234 -38 238 -22 C 242 -6 244 13 244 35 L 141 35 L 141 264 L 344 264 L 344 88 C 344 47 341 11 337 -18 C 332 -48 323 -75 311 -99 C 298 -122 281 -143 259 -162 C 237 -180 208 -198 174 -215 Z" unicode="„" />
<glyph horiz-adv-x="481" d="" unicode=" " />
<glyph horiz-adv-x="733" d="M 299 418 L 281 1518 L 453 1518 L 434 418 L 299 418 Z M 264 0 L 264 225 L 469 225 L 469 0 L 264 0 Z" unicode="!" />
<glyph horiz-adv-x="981" d="M 633 932 L 621 1518 L 780 1518 L 768 932 L 633 932 Z M 215 932 L 201 1518 L 360 1518 L 348 932 L 215 932 Z" unicode="&#x22;" />
<glyph horiz-adv-x="1507" d="M 547 590 L 895 590 L 961 926 L 612 926 L 547 590 Z M 293 0 L 381 455 L 135 455 L 135 596 L 408 596 L 469 918 L 135 918 L 135 1061 L 498 1061 L 586 1518 L 735 1518 L 645 1061 L 975 1061 L 1065 1518 L 1212 1518 L 1126 1061 L 1374 1061 L 1374 918 L 1098 918 L 1036 596 L 1374 596 L 1374 455 L 1010 455 L 922 0 L 772 0 L 860 455 L 532 455 L 444 0 L 293 0 Z" unicode="#" />
<glyph horiz-adv-x="1360" d="M 410 1305 C 388 1284 373 1259 364 1230 C 354 1200 350 1167 350 1130 C 350 1091 356 1058 368 1031 C 380 1004 398 981 422 963 C 445 943 473 927 507 914 C 541 901 579 889 623 879 L 623 1378 C 571 1374 528 1366 494 1354 C 459 1342 431 1325 410 1305 Z M 754 135 C 862 144 941 173 989 221 C 1037 269 1061 338 1061 426 C 1061 470 1054 508 1040 539 C 1026 569 1007 595 981 616 C 955 636 922 654 884 668 C 846 682 802 695 754 707 L 754 135 Z M 616 -193 L 616 0 C 574 1 533 4 493 10 C 452 16 412 24 372 36 C 331 47 291 62 251 80 C 211 98 171 120 133 147 L 209 264 C 245 240 280 220 314 204 C 348 188 383 175 417 165 C 451 155 485 147 519 142 C 553 137 587 134 623 133 L 623 735 C 565 747 511 760 460 776 C 409 792 364 814 326 843 C 286 871 255 907 233 952 C 210 997 199 1054 199 1124 C 199 1187 207 1242 224 1290 C 240 1337 266 1377 301 1410 C 335 1442 378 1467 430 1485 C 482 1503 544 1514 616 1518 L 616 1651 L 760 1651 L 760 1518 C 834 1512 902 1500 966 1481 C 1029 1462 1084 1437 1130 1407 L 1055 1286 C 1017 1311 971 1331 919 1347 C 866 1362 811 1372 754 1376 L 754 850 C 794 841 834 831 872 821 C 910 811 947 799 981 785 C 1015 770 1046 753 1074 733 C 1102 713 1126 689 1146 661 C 1166 633 1181 600 1193 563 C 1204 526 1210 483 1210 434 C 1210 302 1173 200 1101 127 C 1028 54 914 12 760 2 L 760 -193 L 616 -193 Z" unicode="$" />
<glyph horiz-adv-x="2271" d="M 811 716 C 778 673 736 640 685 617 C 633 593 572 582 500 582 C 426 582 363 593 311 617 C 259 640 217 673 185 716 C 151 758 127 808 112 867 C 97 925 90 990 90 1061 C 90 1131 97 1195 112 1254 C 127 1313 151 1364 185 1407 C 217 1449 259 1482 311 1506 C 363 1530 426 1542 500 1542 C 572 1542 633 1530 685 1506 C 736 1482 778 1449 811 1407 C 843 1364 866 1313 882 1254 C 897 1195 905 1131 905 1061 C 905 990 897 925 882 867 C 866 808 843 758 811 716 Z M 637 0 L 1483 1520 L 1630 1520 L 784 0 L 637 0 Z M 290 810 C 310 778 337 753 371 735 C 405 717 448 709 500 709 C 550 709 591 717 625 735 C 659 753 686 778 707 810 C 727 841 742 878 751 921 C 759 964 764 1011 764 1061 C 764 1111 759 1157 751 1200 C 742 1243 727 1280 707 1312 C 686 1342 659 1366 625 1384 C 591 1402 550 1411 500 1411 C 449 1411 406 1402 372 1385 C 338 1367 310 1343 290 1313 C 269 1281 254 1244 246 1201 C 237 1158 233 1111 233 1061 C 233 1011 237 964 246 921 C 254 878 269 841 290 810 Z M 2084 114 C 2051 71 2009 38 1958 15 C 1906 -8 1844 -20 1772 -20 C 1699 -20 1637 -8 1586 15 C 1534 38 1492 71 1460 114 C 1427 156 1403 206 1388 265 C 1373 323 1366 388 1366 459 C 1366 529 1373 593 1388 652 C 1403 711 1427 762 1460 805 C 1492 847 1534 880 1586 904 C 1637 928 1699 940 1772 940 C 1844 940 1906 928 1958 904 C 2009 880 2051 847 2084 805 C 2116 762 2140 711 2156 652 C 2171 593 2179 529 2179 459 C 2179 388 2171 323 2156 265 C 2140 206 2116 156 2084 114 Z M 1564 207 C 1584 175 1612 151 1646 133 C 1680 115 1722 106 1772 106 C 1822 106 1864 115 1898 133 C 1932 151 1959 175 1980 207 C 2000 238 2014 275 2023 319 C 2031 362 2036 409 2036 459 C 2036 508 2031 554 2023 597 C 2014 639 2000 676 1980 708 C 1959 739 1932 764 1898 782 C 1864 800 1822 809 1772 809 C 1722 809 1680 800 1646 782 C 1612 764 1584 740 1564 709 C 1543 677 1528 640 1520 598 C 1511 555 1507 509 1507 459 C 1507 409 1511 362 1520 319 C 1528 275 1543 238 1564 207 Z" unicode="%" />
<glyph horiz-adv-x="1614" d="M 662 1405 C 602 1405 557 1390 529 1360 C 501 1330 487 1285 487 1223 C 487 1177 493 1129 505 1077 C 517 1025 534 972 557 918 C 593 939 627 960 659 982 C 691 1004 719 1027 744 1052 C 768 1076 787 1102 801 1130 C 815 1158 823 1189 823 1223 C 823 1284 811 1330 787 1360 C 763 1390 722 1405 662 1405 Z M 313 190 C 338 164 374 145 420 131 C 466 117 526 111 600 111 C 668 111 728 118 781 132 C 834 146 882 169 924 201 C 901 218 878 237 854 259 C 830 280 805 303 780 328 C 718 387 661 452 610 523 C 559 593 514 666 475 741 C 443 720 414 698 386 675 C 358 651 335 626 315 599 C 294 571 278 542 266 510 C 254 478 248 444 248 406 C 248 360 252 318 261 282 C 269 246 287 215 313 190 Z M 1038 117 C 984 71 921 36 850 14 C 779 -8 696 -20 600 -20 C 506 -20 428 -11 364 5 C 300 22 248 48 209 83 C 169 117 140 161 122 214 C 104 267 96 330 96 403 C 96 459 104 510 122 556 C 140 602 164 643 194 680 C 224 716 258 749 297 779 C 335 808 376 835 418 860 C 392 924 373 986 359 1047 C 345 1108 338 1167 338 1223 C 338 1278 345 1326 360 1366 C 375 1406 397 1439 425 1465 C 453 1491 487 1510 527 1523 C 567 1535 612 1542 662 1542 C 762 1542 838 1516 888 1466 C 938 1415 963 1334 963 1223 C 963 1170 953 1123 933 1083 C 913 1042 886 1005 854 973 C 820 939 782 909 740 882 C 698 854 654 828 610 803 C 647 733 690 665 739 599 C 787 533 840 473 897 420 C 920 397 942 376 964 358 C 986 339 1007 321 1028 305 C 1074 369 1115 449 1150 545 C 1184 640 1218 751 1251 879 L 1386 846 C 1352 712 1316 594 1278 491 C 1239 387 1193 299 1141 227 C 1175 207 1207 191 1237 180 C 1267 168 1295 160 1322 154 C 1348 148 1374 144 1398 143 C 1422 141 1445 141 1468 141 L 1491 141 L 1491 0 L 1464 0 C 1428 0 1394 1 1360 4 C 1326 6 1292 12 1258 21 C 1223 29 1188 40 1152 56 C 1116 71 1078 91 1038 117 Z" unicode="&#x26;" />
<glyph horiz-adv-x="563" d="M 215 932 L 201 1520 L 360 1520 L 348 932 L 215 932 Z" unicode="'" />
<glyph horiz-adv-x="977" d="M 782 -293 L 672 -377 C 639 -349 605 -317 571 -280 C 536 -243 503 -201 471 -155 C 438 -108 407 -57 378 -1 C 349 54 324 114 303 178 C 281 242 264 310 252 383 C 239 456 233 533 233 614 C 233 692 239 767 252 839 C 264 911 281 979 303 1045 C 324 1109 349 1170 378 1227 C 407 1284 438 1337 471 1386 C 503 1434 536 1477 571 1515 C 605 1553 639 1586 672 1614 L 782 1530 C 737 1488 691 1439 645 1381 C 599 1323 557 1256 520 1180 C 482 1104 451 1018 427 924 C 403 830 391 726 391 614 C 391 500 403 396 428 302 C 452 208 484 123 523 48 C 561 -27 603 -93 649 -150 C 695 -207 739 -255 782 -293 Z" unicode="(" />
<glyph horiz-adv-x="977" d="M 303 -377 L 195 -293 C 239 -252 284 -203 330 -146 C 376 -88 418 -22 456 53 C 493 127 524 211 548 304 C 572 397 584 500 584 614 C 584 726 571 830 547 926 C 522 1021 491 1107 453 1185 C 415 1261 373 1329 327 1387 C 281 1445 237 1492 195 1530 L 303 1614 C 352 1572 402 1520 454 1457 C 506 1393 553 1320 596 1236 C 638 1151 673 1057 700 953 C 727 849 741 736 741 614 C 741 497 727 387 700 285 C 673 183 638 89 596 5 C 553 -79 506 -154 454 -219 C 402 -283 352 -336 303 -377 Z" unicode=")" />
<glyph horiz-adv-x="1178" d="M 526 549 L 541 940 L 203 735 L 139 848 L 487 1032 L 139 1221 L 203 1333 L 541 1124 L 526 1520 L 651 1520 L 637 1124 L 975 1333 L 1038 1221 L 690 1032 L 1038 848 L 975 735 L 637 942 L 651 549 L 526 549 Z" unicode="*" />
<glyph horiz-adv-x="1425" d="M 635 231 L 635 649 L 217 649 L 217 797 L 635 797 L 635 1212 L 788 1212 L 788 797 L 1206 797 L 1206 649 L 788 649 L 788 231 L 635 231 Z" unicode="+" />
<glyph horiz-adv-x="489" d="M 176 -244 L 131 -160 C 153 -148 172 -136 186 -126 C 200 -115 212 -104 221 -93 C 229 -81 235 -67 239 -53 C 242 -38 244 -20 244 0 L 141 0 L 141 227 L 346 227 L 346 55 C 346 12 343 -23 339 -53 C 334 -83 325 -109 313 -132 C 300 -154 283 -174 261 -192 C 239 -209 210 -226 176 -244 Z" unicode="," />
<glyph horiz-adv-x="926" d="M 106 557 L 106 702 L 817 702 L 817 557 L 106 557 Z" unicode="-" />
<glyph horiz-adv-x="489" d="M 141 0 L 141 227 L 346 227 L 346 0 L 141 0 Z" unicode="." />
<glyph horiz-adv-x="1012" d="M 0 0 L 850 1518 L 1012 1518 L 162 0 L 0 0 Z" unicode="/" />
<glyph horiz-adv-x="1493" d="M 1108 79 C 1064 46 1013 21 954 3 C 895 -14 826 -23 748 -23 C 668 -23 599 -14 539 3 C 479 21 427 46 384 79 C 340 111 304 150 276 197 C 248 243 225 296 209 354 C 192 412 180 475 174 543 C 167 611 164 684 164 760 C 164 875 172 980 188 1076 C 204 1172 233 1254 277 1324 C 319 1392 379 1446 455 1484 C 531 1522 628 1542 748 1542 C 826 1542 895 1533 954 1516 C 1013 1498 1064 1474 1108 1442 C 1151 1409 1187 1370 1215 1324 C 1243 1278 1266 1226 1283 1168 C 1299 1110 1311 1046 1318 978 C 1325 909 1329 836 1329 760 C 1329 684 1325 611 1318 543 C 1311 475 1299 412 1283 354 C 1266 296 1243 243 1215 197 C 1187 150 1151 111 1108 79 Z M 399 305 C 429 247 471 202 527 170 C 583 137 656 121 748 121 C 808 121 860 128 905 143 C 949 157 987 178 1019 206 C 1050 233 1075 266 1095 304 C 1115 342 1130 385 1142 433 C 1153 480 1161 531 1165 586 C 1169 641 1171 699 1171 760 C 1171 851 1166 935 1156 1013 C 1146 1091 1126 1158 1096 1215 C 1065 1271 1022 1315 967 1347 C 911 1379 838 1395 748 1395 C 656 1395 583 1379 527 1347 C 471 1315 429 1271 399 1215 C 369 1158 349 1091 339 1013 C 329 935 324 851 324 760 C 324 669 329 585 339 507 C 349 429 369 361 399 305 Z" unicode="0" />
<glyph horiz-adv-x="764" d="M 365 0 L 365 1370 L 76 1370 L 76 1518 L 518 1518 L 518 0 L 365 0 Z" unicode="1" />
<glyph horiz-adv-x="1206" d="M 78 0 L 78 131 L 588 643 C 644 699 692 748 732 791 C 772 834 805 875 831 914 C 857 952 876 991 888 1030 C 900 1068 907 1111 907 1159 C 907 1200 901 1236 889 1266 C 877 1296 859 1322 833 1342 C 807 1361 773 1375 732 1385 C 691 1394 642 1399 584 1399 C 498 1399 420 1390 350 1373 C 280 1355 221 1334 174 1309 L 104 1436 C 135 1452 168 1466 202 1480 C 236 1493 274 1504 314 1514 C 354 1522 397 1529 443 1534 C 489 1539 540 1542 596 1542 C 673 1542 741 1535 799 1521 C 857 1507 905 1485 945 1455 C 983 1425 1012 1386 1032 1340 C 1051 1293 1061 1237 1061 1171 C 1061 1113 1054 1061 1040 1013 C 1026 965 1006 918 978 872 C 949 825 913 777 870 728 C 826 679 775 625 715 565 L 289 137 L 1085 137 L 1085 0 L 78 0 Z" unicode="2" />
<glyph horiz-adv-x="1251" d="M 980 72 C 936 36 881 11 817 -3 C 753 -17 679 -25 596 -25 C 543 -25 493 -22 446 -17 C 399 -12 353 -4 309 7 C 264 18 220 33 177 51 C 133 69 89 91 45 117 L 123 240 C 163 218 203 199 241 183 C 279 167 318 155 356 145 C 393 134 431 126 470 122 C 508 117 548 115 590 115 C 654 115 710 120 757 131 C 804 141 843 159 874 185 C 904 210 927 244 941 286 C 955 328 963 380 963 442 C 963 494 957 539 946 579 C 935 619 915 652 885 679 C 855 705 813 724 760 738 C 706 751 637 758 553 758 L 344 758 L 344 897 L 549 897 C 619 897 677 901 725 911 C 772 921 810 936 840 958 C 868 979 889 1006 901 1040 C 913 1074 920 1115 920 1163 C 920 1207 913 1245 901 1275 C 889 1305 869 1330 843 1349 C 816 1367 782 1381 740 1389 C 698 1397 647 1401 588 1401 C 553 1401 517 1398 480 1394 C 443 1390 407 1383 371 1375 C 334 1365 298 1354 264 1341 C 230 1327 198 1312 168 1294 L 84 1413 C 120 1435 159 1455 201 1471 C 242 1487 285 1500 329 1511 C 373 1521 417 1529 463 1534 C 508 1539 553 1542 598 1542 C 677 1542 746 1535 805 1523 C 864 1511 913 1491 953 1463 C 992 1435 1021 1398 1041 1353 C 1061 1308 1071 1253 1071 1188 C 1071 1137 1066 1092 1056 1052 C 1046 1012 1033 977 1017 949 C 999 919 979 895 955 877 C 931 859 905 846 877 838 C 961 819 1022 776 1059 709 C 1095 642 1114 550 1114 432 C 1114 344 1102 271 1080 213 C 1057 154 1024 107 980 72 Z" unicode="3" />
<glyph horiz-adv-x="1366" d="M 109 383 L 109 510 L 788 1518 L 958 1518 L 281 518 L 866 518 L 897 1020 L 1012 1020 L 1012 518 L 1294 518 L 1294 383 L 1012 383 L 1012 0 L 864 0 L 864 383 L 109 383 Z" unicode="4" />
<glyph horiz-adv-x="1303" d="M 1044 76 C 994 38 934 12 865 -2 C 796 -16 721 -23 641 -23 C 583 -23 529 -19 480 -12 C 430 -4 384 5 342 19 C 299 31 259 46 222 63 C 185 79 150 97 117 117 L 197 242 C 227 225 259 209 291 194 C 323 178 357 165 393 154 C 429 142 467 132 507 125 C 547 118 590 115 637 115 C 694 115 748 120 798 130 C 848 140 891 158 929 186 C 966 213 995 250 1017 298 C 1038 346 1049 407 1049 483 C 1049 557 1039 618 1020 666 C 1000 714 974 752 940 780 C 905 808 864 827 816 839 C 768 850 715 856 659 856 C 619 856 583 854 551 851 C 519 848 489 844 461 838 C 432 831 405 823 379 813 C 353 803 327 792 301 780 L 170 819 L 209 1518 L 1096 1518 L 1096 1376 L 348 1376 L 324 926 C 358 944 407 961 470 975 C 532 989 606 997 692 997 C 764 997 832 989 894 974 C 956 959 1011 933 1057 895 C 1103 857 1139 805 1165 739 C 1191 673 1204 589 1204 487 C 1204 383 1189 297 1161 231 C 1133 165 1094 113 1044 76 Z" unicode="5" />
<glyph horiz-adv-x="1411" d="M 1169 118 C 1127 72 1071 37 1001 13 C 931 -10 845 -23 743 -23 C 645 -23 559 -11 485 11 C 411 34 350 71 302 122 C 253 172 216 238 192 319 C 168 400 156 498 156 614 C 156 720 161 817 172 903 C 183 989 202 1065 228 1133 C 254 1199 288 1257 331 1305 C 373 1353 427 1394 491 1426 C 554 1457 629 1480 716 1495 C 802 1510 902 1518 1016 1518 L 1079 1518 L 1079 1376 L 1012 1376 C 920 1376 839 1370 771 1359 C 702 1347 643 1331 593 1310 C 543 1288 501 1263 468 1233 C 435 1203 408 1169 388 1132 C 366 1094 350 1053 339 1009 C 328 965 320 918 315 870 C 356 922 416 960 495 984 C 574 1008 670 1020 784 1020 C 880 1020 961 1008 1025 984 C 1089 960 1141 926 1180 882 C 1218 837 1246 783 1262 719 C 1278 655 1286 584 1286 504 C 1286 422 1277 349 1259 284 C 1241 218 1211 163 1169 118 Z M 429 207 C 465 173 510 148 564 134 C 617 120 677 113 745 113 C 821 113 885 122 935 140 C 985 158 1024 184 1054 218 C 1083 251 1103 291 1115 339 C 1127 387 1133 440 1133 500 C 1133 558 1126 611 1114 659 C 1102 707 1081 748 1051 782 C 1021 815 981 841 931 859 C 881 877 819 887 745 887 C 682 887 624 880 571 866 C 518 852 473 831 435 803 C 396 775 366 739 345 697 C 323 654 313 604 313 547 C 313 465 323 396 343 341 C 363 285 391 241 429 207 Z" unicode="6" />
<glyph horiz-adv-x="1094" d="M 287 0 L 893 1376 L 45 1376 L 45 1518 L 1061 1518 L 1061 1393 L 449 0 L 287 0 Z" unicode="7" />
<glyph horiz-adv-x="1423" d="M 1151 93 C 1104 54 1044 24 972 4 C 900 -16 813 -27 713 -27 C 610 -27 522 -16 450 4 C 377 24 318 54 272 93 C 226 131 192 179 171 235 C 149 291 139 354 139 424 C 139 530 160 619 203 691 C 245 763 309 810 393 834 C 358 844 328 860 302 881 C 276 901 255 926 239 956 C 222 984 210 1016 202 1052 C 194 1088 190 1126 190 1167 C 190 1223 198 1275 215 1321 C 232 1367 261 1406 302 1439 C 342 1471 395 1497 462 1515 C 529 1533 613 1542 713 1542 C 813 1542 896 1533 963 1515 C 1029 1497 1083 1471 1123 1439 C 1163 1406 1191 1367 1208 1321 C 1224 1275 1233 1223 1233 1167 C 1233 1126 1229 1087 1221 1051 C 1213 1015 1200 982 1184 954 C 1167 924 1146 899 1120 879 C 1094 858 1064 843 1030 834 C 1074 821 1113 802 1145 778 C 1177 754 1204 724 1226 690 C 1246 654 1261 614 1271 570 C 1281 525 1286 476 1286 424 C 1286 354 1275 291 1253 235 C 1231 179 1197 131 1151 93 Z M 424 959 C 453 937 491 920 539 909 C 586 898 644 893 713 893 C 781 893 838 898 885 909 C 932 920 970 937 1000 959 C 1029 981 1050 1008 1063 1040 C 1076 1072 1083 1109 1083 1151 C 1083 1193 1076 1230 1063 1262 C 1050 1294 1029 1321 1000 1343 C 970 1365 932 1381 885 1392 C 838 1403 781 1409 713 1409 C 644 1409 586 1403 539 1392 C 491 1381 453 1365 424 1343 C 394 1321 372 1294 359 1262 C 346 1230 340 1193 340 1151 C 340 1109 346 1072 359 1040 C 372 1008 394 981 424 959 Z M 295 434 C 295 325 328 244 395 190 C 461 136 567 109 713 109 C 855 109 960 136 1027 190 C 1094 244 1128 325 1128 434 C 1128 542 1094 624 1027 679 C 960 734 855 762 713 762 C 567 762 461 734 395 679 C 328 624 295 542 295 434 Z" unicode="8" />
<glyph horiz-adv-x="1411" d="M 336 0 L 336 137 L 403 137 C 495 137 576 142 646 154 C 715 166 775 183 825 205 C 875 227 916 253 949 284 C 982 314 1009 349 1030 387 C 1050 424 1065 465 1076 509 C 1086 553 1094 599 1100 647 C 1058 595 998 557 920 533 C 842 509 746 498 633 498 C 536 498 455 510 391 534 C 327 558 275 593 237 639 C 198 683 171 737 155 801 C 139 864 131 935 131 1014 C 131 1094 140 1167 158 1232 C 176 1297 206 1353 248 1399 C 290 1445 345 1480 415 1505 C 484 1529 570 1542 674 1542 C 772 1542 857 1530 931 1507 C 1004 1484 1065 1447 1115 1397 C 1163 1346 1200 1280 1225 1200 C 1249 1119 1262 1021 1262 905 C 1262 798 1256 702 1245 616 C 1234 530 1216 453 1190 387 C 1164 319 1129 261 1086 213 C 1043 164 990 124 927 93 C 863 61 787 37 701 22 C 614 7 514 0 401 0 L 336 0 Z M 365 732 C 395 698 434 672 484 654 C 534 636 596 627 670 627 C 733 627 791 634 844 648 C 897 662 943 683 981 712 C 1019 740 1048 775 1070 817 C 1091 859 1102 909 1102 967 C 1102 1049 1092 1117 1072 1173 C 1052 1228 1024 1273 988 1307 C 950 1340 905 1364 853 1379 C 800 1393 740 1401 674 1401 C 597 1401 533 1391 483 1373 C 433 1355 393 1329 364 1296 C 334 1262 313 1221 301 1173 C 289 1125 283 1072 283 1014 C 283 954 289 901 301 853 C 313 805 335 765 365 732 Z" unicode="9" />
<glyph horiz-adv-x="530" d="M 162 907 L 162 1130 L 367 1130 L 367 907 L 162 907 Z M 162 0 L 162 223 L 367 223 L 367 0 L 162 0 Z" unicode=":" />
<glyph horiz-adv-x="530" d="M 162 907 L 162 1130 L 367 1130 L 367 907 L 162 907 Z M 197 -244 L 152 -160 C 174 -148 193 -136 207 -126 C 221 -115 233 -104 242 -93 C 250 -81 255 -67 259 -53 C 262 -38 264 -20 264 0 L 162 0 L 162 223 L 367 223 L 367 55 C 367 12 364 -23 360 -53 C 355 -83 346 -109 334 -132 C 321 -154 304 -174 282 -192 C 260 -209 231 -226 197 -244 Z" unicode=";" />
<glyph horiz-adv-x="1425" d="M 1130 186 L 213 649 L 213 768 L 1130 1227 L 1130 1081 L 371 709 L 1130 336 L 1130 186 Z" unicode="&#x3C;" />
<glyph horiz-adv-x="1425" d="M 229 870 L 229 1014 L 1196 1014 L 1196 870 L 229 870 Z M 229 428 L 229 573 L 1196 573 L 1196 428 L 229 428 Z" unicode="=" />
<glyph horiz-adv-x="1425" d="M 295 186 L 295 336 L 1055 707 L 295 1079 L 295 1227 L 1212 766 L 1212 647 L 295 186 Z" unicode="&#x3E;" />
<glyph horiz-adv-x="1360" d="M 715 403 L 561 403 C 554 470 552 527 556 575 C 559 622 569 664 586 700 C 602 735 627 767 659 795 C 691 823 734 853 786 883 C 833 909 872 933 904 953 C 935 973 960 994 980 1015 C 998 1035 1012 1057 1020 1081 C 1028 1105 1032 1135 1032 1169 C 1032 1203 1028 1235 1020 1263 C 1012 1291 995 1316 971 1336 C 946 1355 911 1370 866 1381 C 820 1391 760 1397 686 1397 C 604 1397 526 1387 450 1368 C 374 1349 304 1323 242 1290 L 174 1425 C 207 1443 244 1460 286 1474 C 327 1488 370 1501 416 1511 C 461 1521 507 1528 555 1534 C 603 1539 650 1542 696 1542 C 792 1542 872 1534 936 1519 C 1000 1503 1050 1481 1088 1451 C 1125 1421 1151 1383 1167 1338 C 1182 1293 1190 1241 1190 1182 C 1190 1130 1183 1086 1171 1049 C 1158 1011 1140 978 1116 949 C 1091 919 1061 892 1026 868 C 990 843 950 818 905 793 C 859 767 822 743 795 721 C 767 699 747 674 734 647 C 720 619 713 586 711 548 C 709 510 710 461 715 403 Z M 535 0 L 535 209 L 739 209 L 739 0 L 535 0 Z" unicode="?" />
<glyph horiz-adv-x="2222" d="M 1735 -207 C 1655 -247 1565 -278 1463 -302 C 1361 -326 1248 -338 1124 -338 C 964 -338 825 -318 707 -278 C 589 -238 492 -179 415 -101 C 337 -22 280 75 242 192 C 204 308 186 444 186 598 C 186 910 264 1146 420 1305 C 576 1464 806 1544 1110 1544 C 1416 1544 1648 1464 1805 1305 C 1961 1146 2040 910 2040 598 C 2040 498 2035 415 2025 347 C 2015 279 1997 225 1971 184 C 1945 142 1910 113 1866 95 C 1822 77 1766 68 1698 68 C 1640 68 1595 73 1561 84 C 1527 94 1501 108 1483 126 C 1465 142 1453 161 1447 181 C 1441 201 1437 220 1436 240 C 1419 212 1399 187 1376 167 C 1352 146 1324 129 1292 116 C 1259 102 1221 91 1179 85 C 1136 79 1087 76 1032 76 C 952 76 884 88 828 113 C 772 138 726 174 692 221 C 656 267 631 322 615 388 C 599 454 592 527 592 608 C 592 688 600 760 616 826 C 632 891 658 947 694 994 C 729 1040 775 1075 832 1101 C 888 1126 957 1139 1038 1139 C 1092 1139 1139 1136 1181 1130 C 1222 1124 1258 1115 1289 1103 C 1319 1090 1345 1074 1366 1054 C 1387 1034 1405 1011 1419 983 L 1452 1130 L 1552 1124 L 1552 344 C 1552 321 1553 299 1557 277 C 1560 255 1568 236 1580 220 C 1592 202 1609 188 1632 178 C 1654 167 1685 162 1724 162 C 1770 162 1807 169 1835 185 C 1863 200 1885 225 1901 260 C 1916 294 1926 338 1931 394 C 1936 449 1939 517 1939 598 C 1939 877 1871 1088 1735 1231 C 1599 1374 1390 1446 1110 1446 C 834 1446 628 1374 492 1231 C 355 1088 287 877 287 598 C 287 461 304 340 338 236 C 372 132 423 44 493 -26 C 561 -96 648 -150 753 -186 C 858 -222 982 -240 1124 -240 C 1238 -240 1343 -228 1439 -206 C 1535 -184 1619 -155 1692 -121 L 1735 -207 Z M 809 310 C 834 274 867 247 908 229 C 949 210 999 201 1059 201 C 1117 201 1168 207 1212 221 C 1256 235 1293 258 1323 290 C 1352 321 1374 363 1389 415 C 1403 467 1411 531 1411 608 C 1411 684 1403 747 1389 798 C 1375 848 1353 889 1324 920 C 1294 950 1258 971 1214 984 C 1170 997 1118 1004 1059 1004 C 999 1004 949 995 908 977 C 867 959 834 933 809 899 C 783 865 764 823 752 774 C 740 725 735 670 735 608 C 735 544 740 487 752 437 C 764 387 783 344 809 310 Z" unicode="@" />
<glyph horiz-adv-x="1481" d="M 403 498 L 1069 498 L 737 1333 L 403 498 Z M 51 0 L 659 1528 L 821 1528 L 1430 0 L 1266 0 L 1126 350 L 348 350 L 211 0 L 51 0 Z" unicode="A" />
<glyph horiz-adv-x="1440" d="M 178 0 L 178 1518 L 838 1518 C 1004 1518 1126 1487 1204 1425 C 1282 1363 1321 1271 1321 1149 C 1321 1105 1316 1065 1307 1027 C 1298 989 1285 955 1268 925 C 1250 894 1228 868 1202 846 C 1176 824 1146 809 1112 799 C 1195 778 1257 736 1297 674 C 1337 612 1358 527 1358 420 C 1358 343 1346 278 1324 225 C 1301 171 1267 128 1223 95 C 1177 61 1121 37 1054 22 C 987 7 909 0 821 0 L 178 0 Z M 336 860 L 842 860 C 904 860 956 866 997 880 C 1037 894 1070 913 1094 937 C 1117 961 1133 989 1143 1022 C 1152 1054 1157 1090 1157 1128 C 1157 1167 1151 1202 1139 1232 C 1127 1262 1109 1288 1084 1309 C 1058 1329 1026 1344 986 1354 C 946 1364 898 1370 842 1370 L 336 1370 L 336 860 Z M 336 145 L 838 145 C 899 145 952 150 997 161 C 1042 172 1079 189 1109 213 C 1138 236 1160 266 1174 302 C 1188 338 1196 382 1196 434 C 1196 530 1167 601 1109 646 C 1051 690 959 713 834 713 L 336 713 L 336 145 Z" unicode="B" />
<glyph horiz-adv-x="1477" d="M 1184 38 C 1140 19 1089 4 1033 -6 C 977 -17 912 -23 838 -23 C 710 -23 600 -6 506 27 C 412 60 334 110 273 176 C 211 241 165 322 135 420 C 105 518 90 631 90 760 C 90 892 106 1008 140 1106 C 174 1204 223 1285 288 1350 C 352 1414 431 1462 525 1494 C 619 1526 726 1542 846 1542 C 954 1542 1052 1526 1142 1495 C 1231 1463 1309 1416 1376 1352 L 1262 1237 C 1207 1286 1144 1324 1074 1350 C 1004 1376 927 1389 844 1389 C 648 1389 501 1336 401 1231 C 301 1125 252 968 252 758 C 252 654 263 563 287 485 C 311 406 347 340 397 288 C 445 235 507 195 582 169 C 656 142 744 129 846 129 C 902 129 952 133 996 141 C 1039 149 1078 161 1112 176 C 1145 190 1175 206 1201 225 C 1227 243 1251 263 1274 285 L 1386 176 C 1360 150 1330 126 1298 102 C 1265 78 1227 56 1184 38 Z" unicode="C" />
<glyph horiz-adv-x="1540" d="M 178 0 L 178 1518 L 674 1518 C 816 1518 936 1506 1035 1482 C 1134 1458 1215 1417 1277 1359 C 1338 1301 1382 1223 1410 1126 C 1438 1028 1452 906 1452 760 C 1452 616 1436 496 1406 399 C 1376 301 1328 223 1264 165 C 1199 105 1116 63 1014 38 C 912 12 789 0 647 0 L 178 0 Z M 340 147 L 653 147 C 773 147 873 157 955 179 C 1036 201 1102 236 1152 285 C 1201 333 1236 396 1258 474 C 1279 552 1290 647 1290 760 C 1290 836 1286 904 1278 964 C 1270 1024 1256 1076 1238 1121 C 1219 1165 1194 1203 1163 1235 C 1132 1266 1094 1291 1049 1311 C 1003 1330 950 1344 888 1353 C 826 1361 756 1366 676 1366 L 340 1366 L 340 147 Z" unicode="D" />
<glyph horiz-adv-x="1309" d="M 178 0 L 178 1518 L 1182 1518 L 1182 1364 L 340 1364 L 340 862 L 1161 862 L 1161 711 L 340 711 L 340 147 L 1190 147 L 1190 0 L 178 0 Z" unicode="E" />
<glyph horiz-adv-x="1229" d="M 178 0 L 178 1518 L 1155 1518 L 1155 1364 L 340 1364 L 340 850 L 1137 850 L 1137 698 L 340 698 L 340 0 L 178 0 Z" unicode="F" />
<glyph horiz-adv-x="1591" d="M 1256 62 C 1206 34 1147 13 1078 -1 C 1009 -15 928 -23 836 -23 C 701 -23 586 -6 492 26 C 397 59 320 108 261 174 C 201 239 158 321 131 419 C 103 517 90 630 90 760 C 90 896 106 1014 139 1113 C 172 1211 221 1292 285 1356 C 349 1419 427 1466 521 1496 C 615 1526 722 1542 844 1542 C 916 1542 981 1536 1039 1526 C 1096 1515 1147 1501 1193 1484 C 1237 1466 1276 1445 1310 1423 C 1343 1400 1372 1377 1397 1354 L 1282 1237 C 1258 1257 1231 1277 1203 1296 C 1175 1314 1143 1331 1108 1345 C 1072 1358 1033 1369 990 1377 C 946 1385 898 1389 844 1389 C 646 1389 498 1337 399 1234 C 299 1131 250 972 250 758 C 250 650 260 557 282 477 C 304 397 338 330 386 278 C 432 225 493 186 568 160 C 643 134 734 121 842 121 C 944 121 1027 131 1091 153 C 1155 175 1206 207 1243 250 C 1279 292 1304 345 1318 409 C 1332 473 1339 547 1339 631 L 1339 680 L 827 680 L 827 829 L 1499 829 L 1499 657 C 1499 588 1495 524 1488 464 C 1481 404 1469 348 1451 298 C 1433 247 1408 202 1376 162 C 1344 122 1304 89 1256 62 Z" unicode="G" />
<glyph horiz-adv-x="1591" d="M 178 0 L 178 1518 L 340 1518 L 340 870 L 1251 870 L 1251 1518 L 1411 1518 L 1411 0 L 1251 0 L 1251 713 L 340 713 L 340 0 L 178 0 Z" unicode="H" />
<glyph horiz-adv-x="547" d="M 195 0 L 195 1518 L 352 1518 L 352 0 L 195 0 Z" unicode="I" />
<glyph horiz-adv-x="819" d="M 540 97 C 503 62 458 37 404 21 C 350 5 287 -2 215 -2 L 133 -2 C 121 -2 110 -1 99 -1 C 88 -1 75 0 61 0 L 61 147 L 199 147 C 253 147 298 152 335 164 C 372 175 402 192 426 216 C 449 239 466 269 476 305 C 486 341 492 384 492 434 L 492 1518 L 649 1518 L 649 428 C 649 350 639 283 621 229 C 603 175 576 131 540 97 Z" unicode="J" />
<glyph horiz-adv-x="1442" d="M 1182 0 L 639 805 L 336 473 L 336 0 L 178 0 L 178 1518 L 336 1518 L 336 680 L 1104 1518 L 1290 1518 L 745 922 L 1364 0 L 1182 0 Z" unicode="K" />
<glyph horiz-adv-x="1202" d="M 178 0 L 178 1518 L 340 1518 L 340 147 L 1147 147 L 1147 0 L 178 0 Z" unicode="L" />
<glyph horiz-adv-x="1872" d="M 178 0 L 178 1518 L 387 1518 L 936 223 L 1489 1518 L 1694 1518 L 1694 0 L 1536 0 L 1536 1249 L 1001 0 L 866 0 L 332 1249 L 332 0 L 178 0 Z" unicode="M" />
<glyph horiz-adv-x="1595" d="M 178 0 L 178 1518 L 354 1518 L 1262 266 L 1262 1518 L 1417 1518 L 1417 0 L 1270 0 L 334 1288 L 334 0 L 178 0 Z" unicode="N" />
<glyph horiz-adv-x="1708" d="M 1418 164 C 1352 100 1272 52 1177 21 C 1082 -9 974 -25 852 -25 C 730 -25 622 -9 528 21 C 434 52 354 100 290 164 C 224 228 175 309 141 408 C 107 506 90 624 90 760 C 90 894 107 1011 141 1109 C 175 1207 224 1289 290 1353 C 354 1417 434 1464 528 1495 C 622 1526 730 1542 852 1542 C 974 1542 1082 1526 1177 1495 C 1272 1464 1352 1417 1418 1353 C 1483 1289 1533 1207 1567 1109 C 1601 1011 1618 894 1618 760 C 1618 624 1601 506 1567 408 C 1533 309 1483 228 1418 164 Z M 398 287 C 446 233 508 193 584 166 C 659 138 748 125 852 125 C 955 125 1045 138 1121 166 C 1197 193 1260 233 1310 287 C 1359 340 1396 406 1420 485 C 1444 563 1456 654 1456 758 C 1456 860 1444 950 1420 1029 C 1396 1107 1359 1173 1310 1227 C 1260 1280 1197 1320 1121 1348 C 1045 1375 955 1389 852 1389 C 748 1389 659 1375 584 1348 C 508 1320 446 1280 398 1227 C 348 1173 312 1107 288 1029 C 264 950 252 860 252 758 C 252 654 264 563 288 485 C 312 406 348 340 398 287 Z" unicode="O" />
<glyph horiz-adv-x="1446" d="M 178 0 L 178 1518 L 844 1518 C 1020 1518 1149 1481 1232 1408 C 1314 1334 1356 1220 1356 1065 C 1356 986 1345 917 1325 857 C 1305 797 1274 747 1232 707 C 1190 666 1136 635 1072 615 C 1007 594 930 584 842 584 L 336 584 L 336 0 L 178 0 Z M 336 733 L 846 733 C 902 733 951 738 995 750 C 1039 761 1076 780 1106 806 C 1135 832 1157 865 1173 907 C 1188 948 1196 999 1196 1059 C 1196 1118 1188 1167 1173 1207 C 1158 1247 1136 1279 1106 1303 C 1076 1326 1038 1343 994 1353 C 950 1363 898 1368 840 1368 L 336 1368 L 336 733 Z" unicode="P" />
<glyph horiz-adv-x="1708" d="M 1190 -372 C 1173 -372 1157 -372 1141 -372 C 1125 -372 1112 -373 1104 -373 C 1028 -373 964 -366 914 -354 C 864 -342 824 -321 796 -293 C 766 -264 746 -226 736 -180 C 726 -133 723 -76 727 -8 C 621 0 529 22 449 57 C 369 91 303 140 250 203 C 196 265 156 343 130 435 C 103 527 90 636 90 760 C 90 894 106 1011 138 1109 C 170 1207 218 1289 282 1353 C 346 1417 425 1464 520 1495 C 615 1526 726 1542 852 1542 C 978 1542 1089 1526 1185 1495 C 1281 1464 1361 1417 1425 1353 C 1489 1289 1537 1207 1569 1109 C 1601 1011 1618 894 1618 760 C 1618 626 1602 511 1571 415 C 1540 319 1494 239 1433 177 C 1371 114 1294 67 1203 36 C 1111 5 1005 -11 885 -14 C 881 -57 882 -92 887 -120 C 891 -148 902 -170 918 -187 C 934 -203 957 -215 987 -221 C 1017 -227 1056 -231 1104 -231 L 1262 -231 L 1262 -371 C 1258 -371 1249 -371 1235 -371 C 1221 -371 1206 -372 1190 -372 Z M 392 287 C 440 233 501 193 577 166 C 653 138 744 125 852 125 C 959 125 1051 138 1127 166 C 1203 193 1266 233 1315 287 C 1363 340 1399 406 1422 485 C 1444 563 1456 654 1456 758 C 1456 860 1444 950 1422 1029 C 1399 1107 1363 1173 1315 1227 C 1266 1280 1203 1320 1127 1348 C 1051 1375 959 1389 852 1389 C 744 1389 653 1375 577 1348 C 501 1320 440 1280 392 1227 C 343 1173 307 1107 285 1029 C 263 950 252 860 252 758 C 252 654 263 563 285 485 C 307 406 343 340 392 287 Z" unicode="Q" />
<glyph horiz-adv-x="1470" d="M 336 766 L 836 766 C 890 766 938 770 981 780 C 1024 789 1061 805 1091 828 C 1121 850 1144 881 1160 920 C 1176 958 1184 1007 1184 1067 C 1184 1125 1176 1174 1160 1213 C 1144 1252 1122 1283 1092 1306 C 1061 1328 1024 1344 980 1354 C 936 1363 885 1368 829 1368 L 336 1368 L 336 766 Z M 1151 0 L 788 618 L 336 618 L 336 0 L 178 0 L 178 1518 L 834 1518 C 1010 1518 1139 1481 1222 1408 C 1304 1335 1346 1223 1346 1073 C 1346 941 1314 838 1250 763 C 1186 687 1088 641 956 625 L 1323 0 L 1151 0 Z" unicode="R" />
<glyph horiz-adv-x="1440" d="M 1319 426 C 1319 275 1269 163 1171 90 C 1072 16 919 -20 713 -20 C 597 -20 488 -6 384 19 C 280 45 180 90 84 154 L 166 276 C 211 247 256 223 302 204 C 347 184 392 169 438 157 C 482 145 527 136 572 131 C 617 125 663 123 709 123 C 787 123 854 128 911 140 C 968 151 1015 169 1053 193 C 1089 217 1116 247 1134 285 C 1152 323 1161 368 1161 420 C 1161 474 1150 517 1128 550 C 1106 582 1076 609 1037 630 C 997 650 950 666 894 678 C 838 690 777 703 709 715 C 654 724 602 734 554 744 C 506 754 461 767 421 781 C 380 795 343 811 311 831 C 279 850 252 874 230 902 C 207 930 190 963 178 1001 C 166 1039 160 1083 160 1135 C 160 1207 171 1269 195 1321 C 218 1373 253 1415 299 1448 C 345 1480 402 1504 471 1519 C 539 1534 619 1542 709 1542 C 827 1542 930 1529 1016 1505 C 1102 1480 1176 1447 1237 1407 L 1151 1276 C 1123 1294 1093 1310 1060 1325 C 1026 1339 991 1352 954 1363 C 916 1373 876 1380 835 1386 C 793 1392 751 1395 709 1395 C 641 1395 582 1390 533 1380 C 483 1370 443 1355 412 1335 C 380 1313 356 1286 341 1254 C 326 1222 319 1183 319 1139 C 319 1091 328 1051 348 1021 C 367 990 395 965 432 946 C 468 926 513 909 566 897 C 619 884 680 872 748 860 C 830 845 907 829 977 813 C 1047 796 1107 773 1158 743 C 1208 713 1248 673 1276 623 C 1304 573 1319 507 1319 426 Z" unicode="S" />
<glyph horiz-adv-x="1409" d="M 625 0 L 625 1364 L 55 1364 L 55 1518 L 1356 1518 L 1356 1364 L 786 1364 L 786 0 L 625 0 Z" unicode="T" />
<glyph horiz-adv-x="1593" d="M 1197 57 C 1150 31 1094 10 1028 -3 C 962 -17 884 -25 795 -25 C 705 -25 627 -17 561 -3 C 495 10 439 31 393 57 C 346 82 308 112 279 148 C 250 184 227 223 211 266 C 194 308 183 352 177 400 C 171 448 168 497 168 547 L 168 1518 L 330 1518 L 330 565 C 330 500 336 441 349 387 C 361 333 385 287 419 249 C 453 209 500 179 560 157 C 620 135 699 125 795 125 C 891 125 970 135 1032 157 C 1094 178 1142 208 1178 247 C 1212 285 1236 332 1250 386 C 1263 440 1270 499 1270 565 L 1270 1518 L 1425 1518 L 1425 547 C 1425 497 1421 448 1415 400 C 1409 352 1397 307 1381 265 C 1363 222 1340 183 1311 148 C 1281 112 1243 82 1197 57 Z" unicode="U" />
<glyph horiz-adv-x="1481" d="M 659 -10 L 55 1518 L 221 1518 L 743 193 L 1262 1518 L 1427 1518 L 821 -10 L 659 -10 Z" unicode="V" />
<glyph horiz-adv-x="2218" d="M 561 -10 L 72 1518 L 238 1518 L 637 262 L 1044 1518 L 1184 1518 L 1589 262 L 1991 1518 L 2146 1518 L 1659 -10 L 1520 -10 L 1110 1253 L 702 -10 L 561 -10 Z" unicode="W" />
<glyph horiz-adv-x="1452" d="M 1192 0 L 719 674 L 258 0 L 82 0 L 637 793 L 131 1518 L 307 1518 L 731 911 L 1147 1518 L 1325 1518 L 815 793 L 1372 0 L 1192 0 Z" unicode="X" />
<glyph horiz-adv-x="1434" d="M 637 0 L 637 590 L 27 1518 L 203 1518 L 719 735 L 1239 1518 L 1405 1518 L 797 592 L 797 0 L 637 0 Z" unicode="Y" />
<glyph horiz-adv-x="1362" d="M 92 0 L 92 129 L 1042 1364 L 127 1364 L 127 1518 L 1241 1518 L 1241 1378 L 295 147 L 1264 147 L 1264 0 L 92 0 Z" unicode="Z" />
<glyph horiz-adv-x="946" d="M 252 -338 L 252 1589 L 739 1589 L 739 1448 L 410 1448 L 410 -201 L 745 -201 L 745 -338 L 252 -338 Z" unicode="[" />
<glyph horiz-adv-x="1012" d="M 850 0 L 0 1518 L 162 1518 L 1012 0 L 850 0 Z" unicode="\" />
<glyph horiz-adv-x="946" d="M 205 -338 L 205 -201 L 537 -201 L 537 1448 L 201 1448 L 201 1589 L 692 1589 L 692 -338 L 205 -338 Z" unicode="]" />
<glyph horiz-adv-x="1208" d="M 205 1231 L 516 1550 L 690 1550 L 1001 1231 L 846 1231 L 600 1450 L 358 1231 L 205 1231 Z" unicode="^" />
<glyph horiz-adv-x="928" d="M -76 -248 L -76 -121 L 1004 -121 L 1004 -248 L -76 -248 Z" unicode="_" />
<glyph horiz-adv-x="1208" d="M 614 1249 L 262 1569 L 453 1569 L 762 1249 L 614 1249 Z" unicode="`" />
<glyph horiz-adv-x="1270" d="M 297 169 C 317 150 345 136 380 127 C 414 117 458 113 510 113 C 581 113 642 120 693 136 C 743 152 785 176 818 209 C 850 241 873 282 888 332 C 903 382 911 441 911 510 L 911 592 L 852 592 C 770 592 698 590 636 587 C 574 583 520 578 475 571 C 429 563 391 552 361 539 C 331 525 307 509 289 490 C 271 470 258 446 251 419 C 243 392 240 361 240 326 C 240 292 244 261 253 235 C 261 209 276 187 297 169 Z M 779 20 C 743 6 701 -3 653 -10 C 605 -16 550 -20 487 -20 C 407 -20 342 -11 291 5 C 239 22 199 46 170 76 C 140 106 119 141 107 182 C 95 223 90 267 90 315 C 90 395 102 462 127 516 C 151 570 193 613 252 645 C 310 677 387 699 484 713 C 580 726 700 733 844 733 L 911 733 C 909 781 905 822 898 858 C 890 893 876 922 855 945 C 833 967 802 984 762 995 C 722 1006 670 1012 606 1012 C 570 1012 535 1009 503 1003 C 470 997 439 990 411 981 C 381 971 355 960 331 948 C 307 936 286 925 268 913 L 186 1034 C 204 1046 228 1060 258 1074 C 288 1088 322 1102 360 1115 C 397 1127 437 1137 481 1145 C 525 1153 570 1157 618 1157 C 713 1157 790 1148 848 1131 C 906 1113 951 1086 983 1050 C 1014 1013 1035 966 1045 908 C 1055 850 1061 780 1061 700 L 1061 274 C 1061 244 1062 220 1064 202 C 1066 184 1071 170 1079 161 C 1086 151 1097 144 1113 141 C 1129 138 1150 137 1178 137 L 1178 2 C 1172 0 1164 -1 1154 -1 C 1144 -1 1131 -2 1116 -2 C 1083 -2 1056 0 1034 6 C 1012 11 995 19 982 31 C 968 42 957 56 950 74 C 942 92 936 113 932 139 C 914 112 893 89 869 69 C 844 49 814 33 779 20 Z" unicode="a" />
<glyph horiz-adv-x="1325" d="M 1122 141 C 1084 89 1033 50 970 22 C 907 -6 828 -20 733 -20 C 670 -20 615 -17 569 -11 C 522 -5 481 3 447 16 C 412 28 382 44 358 63 C 334 82 313 105 295 133 L 266 -6 L 156 4 L 156 1589 L 311 1589 L 311 1001 C 327 1028 347 1051 371 1071 C 395 1091 425 1107 461 1120 C 495 1132 536 1142 582 1148 C 628 1154 681 1157 741 1157 C 835 1157 913 1142 975 1114 C 1037 1086 1087 1046 1125 995 C 1161 943 1187 881 1202 809 C 1217 736 1225 655 1225 567 C 1225 478 1217 398 1201 326 C 1185 254 1159 192 1122 141 Z M 403 215 C 435 180 476 155 527 141 C 577 126 639 119 711 119 C 780 119 838 129 884 149 C 930 169 966 199 994 237 C 1020 275 1039 321 1050 376 C 1061 430 1067 492 1067 561 C 1067 631 1061 693 1051 749 C 1040 804 1021 851 995 890 C 967 928 931 958 885 979 C 839 999 781 1010 711 1010 C 639 1010 578 1002 528 987 C 477 971 436 946 404 912 C 372 876 348 830 333 773 C 318 715 311 645 311 561 C 311 477 318 407 333 351 C 347 294 371 249 403 215 Z" unicode="b" />
<glyph horiz-adv-x="1153" d="M 875 21 C 842 7 806 -2 768 -9 C 730 -16 687 -20 641 -20 C 535 -20 448 -6 378 21 C 308 49 253 88 212 140 C 170 190 141 252 125 324 C 108 396 100 477 100 567 C 100 657 108 738 125 811 C 141 883 171 945 213 997 C 254 1048 310 1087 380 1115 C 450 1143 538 1157 645 1157 C 695 1157 741 1152 783 1144 C 824 1135 861 1123 895 1109 C 927 1094 957 1077 983 1057 C 1009 1037 1032 1017 1053 995 L 940 889 C 926 903 910 917 892 931 C 874 945 853 957 829 969 C 805 980 777 989 747 997 C 717 1004 683 1008 645 1008 C 571 1008 509 998 459 978 C 409 958 369 930 339 892 C 309 854 287 807 275 752 C 262 696 256 633 256 563 C 256 493 262 431 274 376 C 286 321 308 275 338 237 C 367 199 407 169 457 149 C 507 129 569 119 645 119 C 677 119 706 121 734 126 C 762 131 788 139 813 149 C 837 159 860 171 882 186 C 904 201 926 218 948 238 L 1053 139 C 1025 113 996 91 967 71 C 938 51 907 34 875 21 Z" unicode="c" />
<glyph horiz-adv-x="1325" d="M 331 243 C 357 204 394 174 440 154 C 486 133 544 123 614 123 C 685 123 746 130 797 146 C 847 161 889 186 921 222 C 953 256 976 302 991 359 C 1006 416 1014 487 1014 571 C 1014 653 1006 723 992 779 C 978 835 955 881 923 915 C 891 949 849 973 799 988 C 748 1002 686 1010 614 1010 C 544 1010 486 1000 440 980 C 394 960 357 931 331 894 C 303 856 284 809 274 755 C 263 701 258 639 258 571 C 258 501 263 439 274 384 C 284 328 303 281 331 243 Z M 875 19 C 839 5 798 -4 751 -10 C 703 -16 648 -20 586 -20 C 492 -20 413 -5 351 22 C 288 50 238 90 202 142 C 164 193 138 255 123 328 C 107 400 100 481 100 571 C 100 659 107 739 123 811 C 139 883 165 944 203 996 C 240 1046 290 1085 353 1113 C 416 1141 495 1155 590 1155 C 651 1155 705 1152 751 1146 C 797 1140 838 1131 872 1119 C 906 1106 934 1090 957 1071 C 979 1052 998 1030 1014 1004 L 1014 1589 L 1169 1589 L 1169 6 L 1049 -4 L 1030 141 C 1012 113 990 88 965 68 C 940 48 910 31 875 19 Z" unicode="d" />
<glyph horiz-adv-x="1214" d="M 903 16 C 867 3 827 -6 785 -13 C 742 -19 695 -23 643 -23 C 567 -23 500 -16 444 -2 C 388 12 340 31 300 57 C 260 82 227 112 201 148 C 175 184 154 224 140 268 C 124 311 114 358 108 409 C 102 459 100 512 100 567 C 100 649 107 725 122 797 C 137 869 165 931 205 985 C 244 1038 298 1080 368 1111 C 438 1141 527 1157 637 1157 C 713 1157 777 1148 830 1132 C 882 1116 926 1093 961 1064 C 995 1034 1022 999 1042 959 C 1061 919 1075 875 1085 828 C 1093 780 1098 729 1100 676 C 1102 622 1102 568 1102 514 L 250 514 C 252 454 258 400 270 351 C 282 301 302 259 332 224 C 360 188 400 161 450 142 C 500 122 564 113 643 113 C 689 113 730 115 766 121 C 801 127 833 135 862 146 C 890 156 915 168 939 182 C 962 196 985 211 1008 227 L 1092 119 C 1064 97 1034 78 1003 60 C 972 42 939 28 903 16 Z M 846 969 C 822 984 793 996 759 1005 C 724 1013 682 1018 633 1018 C 561 1018 502 1009 455 992 C 408 974 370 950 342 918 C 312 886 291 847 278 803 C 264 758 256 709 252 655 L 954 655 C 952 688 949 720 947 751 C 944 782 939 811 932 839 C 924 865 914 890 901 912 C 887 934 869 953 846 969 Z" unicode="e" />
<glyph horiz-adv-x="786" d="M 63 989 L 63 1130 L 276 1130 L 276 1235 C 276 1287 281 1334 291 1378 C 301 1422 318 1459 344 1491 C 369 1521 403 1545 447 1563 C 490 1580 545 1589 612 1589 L 735 1589 L 735 1452 L 629 1452 C 589 1452 556 1446 530 1435 C 504 1424 484 1409 470 1390 C 454 1370 444 1347 438 1321 C 432 1295 430 1266 430 1235 L 430 1130 L 735 1130 L 735 989 L 430 989 L 430 0 L 276 0 L 276 989 L 63 989 Z" unicode="f" />
<glyph horiz-adv-x="1223" d="M 351 604 C 375 585 407 571 447 562 C 486 553 534 549 590 549 C 646 549 693 553 733 562 C 773 571 805 585 831 604 C 855 622 873 645 885 674 C 897 703 903 738 903 778 C 903 859 876 918 824 956 C 771 993 693 1012 590 1012 C 534 1012 486 1007 447 998 C 407 988 375 974 351 956 C 325 936 307 912 296 883 C 284 853 279 818 279 778 C 279 738 284 703 296 674 C 307 645 325 622 351 604 Z M 1057 778 C 1057 652 1019 560 944 502 C 868 443 750 414 590 414 C 552 414 517 415 485 418 C 453 421 422 426 393 432 C 383 420 374 406 368 392 C 361 377 358 362 358 348 C 358 330 361 315 369 304 C 376 292 389 284 407 278 C 425 272 449 267 480 265 C 510 263 549 262 596 262 C 698 262 783 257 853 249 C 923 241 979 226 1022 205 C 1064 183 1094 153 1113 116 C 1131 78 1141 31 1141 -27 C 1141 -85 1131 -135 1112 -178 C 1092 -220 1061 -256 1018 -284 C 974 -312 916 -332 845 -346 C 774 -360 687 -367 584 -367 C 493 -367 415 -362 349 -354 C 283 -346 228 -331 186 -311 C 143 -289 111 -260 91 -224 C 71 -187 61 -140 61 -84 C 61 -51 64 -20 71 10 C 77 40 89 67 107 93 C 123 117 146 139 175 157 C 204 175 241 188 285 197 C 261 207 243 223 231 247 C 219 271 213 298 213 330 C 213 358 217 385 227 411 C 236 437 249 460 266 481 C 218 511 183 550 161 599 C 138 647 127 707 127 778 C 127 841 136 896 154 944 C 172 991 199 1031 237 1063 C 274 1094 322 1117 380 1133 C 438 1149 508 1157 590 1157 C 608 1157 627 1156 646 1155 C 664 1154 682 1153 700 1151 L 1094 1198 L 1094 1069 L 905 1069 C 955 1042 992 1006 1018 960 C 1044 914 1057 853 1057 778 Z M 307 -202 C 337 -215 375 -224 422 -230 C 468 -235 524 -238 588 -238 C 668 -238 733 -233 785 -225 C 836 -216 876 -203 906 -187 C 935 -169 955 -148 966 -123 C 977 -98 983 -69 983 -37 C 983 -3 976 24 963 46 C 949 67 927 84 897 96 C 865 108 824 116 774 120 C 724 124 662 127 588 127 C 506 127 441 122 392 112 C 343 102 306 88 280 72 C 254 54 237 34 229 11 C 221 -11 217 -35 217 -61 C 217 -95 224 -124 239 -147 C 253 -169 276 -188 307 -202 Z" unicode="g" />
<glyph horiz-adv-x="1270" d="M 156 0 L 156 1589 L 311 1589 L 311 1018 C 321 1036 336 1054 356 1071 C 376 1088 402 1103 434 1116 C 465 1128 503 1138 549 1146 C 595 1153 649 1157 713 1157 C 803 1157 876 1145 930 1123 C 984 1101 1025 1069 1053 1029 C 1081 987 1099 938 1107 881 C 1115 823 1120 760 1120 690 L 1120 0 L 965 0 L 965 664 C 965 714 962 759 957 801 C 952 843 940 879 921 909 C 901 939 871 962 831 979 C 791 995 737 1004 668 1004 C 592 1004 531 994 485 976 C 438 958 402 932 377 900 C 351 866 333 827 324 782 C 315 737 311 688 311 635 L 311 0 L 156 0 Z" unicode="h" />
<glyph horiz-adv-x="487" d="M 166 1280 L 166 1501 L 322 1501 L 322 1280 L 166 1280 Z M 166 0 L 166 1130 L 319 1130 L 319 0 L 166 0 Z" unicode="i" />
<glyph horiz-adv-x="487" d="M 166 1280 L 166 1501 L 322 1501 L 322 1280 L 166 1280 Z M 4 -342 L 4 -213 L 16 -213 C 48 -212 73 -209 93 -203 C 113 -197 128 -188 139 -175 C 149 -161 156 -143 160 -121 C 164 -99 166 -71 166 -37 L 166 1130 L 319 1130 L 319 -37 C 319 -94 315 -142 307 -181 C 299 -220 285 -252 264 -276 C 242 -299 213 -316 176 -326 C 138 -336 90 -342 31 -342 L 4 -342 Z" unicode="j" />
<glyph horiz-adv-x="1110" d="M 156 0 L 156 1589 L 309 1589 L 309 508 L 854 1130 L 1026 1130 L 616 657 L 1069 0 L 897 0 L 514 545 L 309 313 L 309 0 L 156 0 Z" unicode="k" />
<glyph horiz-adv-x="598" d="M 500 2 C 491 0 478 0 460 -1 C 442 -1 422 -2 401 -2 C 355 -2 316 3 286 13 C 256 23 232 40 215 62 C 197 84 184 112 177 146 C 169 180 166 222 166 270 L 166 1589 L 319 1589 L 319 287 C 319 259 320 235 323 216 C 325 197 331 182 341 171 C 350 159 363 150 381 145 C 398 139 421 137 451 137 L 500 137 L 500 2 Z" unicode="l" />
<glyph horiz-adv-x="2034" d="M 156 0 L 156 1122 L 279 1130 L 293 1012 C 303 1031 319 1049 339 1067 C 359 1085 385 1100 418 1114 C 450 1127 489 1137 535 1145 C 581 1153 636 1157 700 1157 C 762 1157 814 1153 856 1145 C 898 1137 932 1127 959 1114 C 985 1100 1005 1084 1019 1066 C 1033 1047 1043 1026 1051 1004 C 1063 1026 1081 1046 1104 1065 C 1127 1083 1156 1100 1192 1114 C 1227 1127 1269 1137 1318 1145 C 1366 1153 1423 1157 1489 1157 C 1579 1157 1651 1145 1704 1123 C 1757 1101 1797 1069 1824 1029 C 1850 987 1867 938 1875 881 C 1882 823 1886 760 1886 690 L 1886 0 L 1731 0 L 1731 664 C 1731 714 1729 759 1725 801 C 1721 843 1710 879 1692 909 C 1673 939 1644 962 1606 979 C 1567 995 1513 1004 1444 1004 C 1368 1004 1308 994 1263 976 C 1217 958 1182 932 1158 900 C 1133 866 1117 827 1109 782 C 1101 737 1098 688 1098 635 L 1098 0 L 944 0 L 944 664 C 944 714 942 759 938 801 C 934 843 923 879 905 909 C 886 939 857 962 819 979 C 781 995 727 1004 657 1004 C 581 1004 521 994 476 976 C 430 958 395 932 371 900 C 346 866 330 827 322 782 C 314 737 311 688 311 635 L 311 0 L 156 0 Z" unicode="m" />
<glyph horiz-adv-x="1270" d="M 156 0 L 156 1122 L 279 1130 L 293 1012 C 305 1031 321 1049 342 1067 C 363 1085 390 1100 424 1114 C 456 1127 496 1137 544 1145 C 591 1153 647 1157 713 1157 C 803 1157 876 1145 930 1123 C 984 1101 1025 1069 1053 1029 C 1081 987 1099 938 1107 881 C 1115 823 1120 760 1120 690 L 1120 0 L 965 0 L 965 664 C 965 714 962 759 957 801 C 952 843 940 879 921 909 C 901 939 871 962 831 979 C 791 995 737 1004 668 1004 C 592 1004 531 994 485 976 C 438 958 402 932 377 900 C 351 866 333 827 324 782 C 315 737 311 688 311 635 L 311 0 L 156 0 Z" unicode="n" />
<glyph horiz-adv-x="1292" d="M 1065 126 C 1021 76 964 39 895 14 C 826 -10 743 -23 645 -23 C 547 -23 463 -10 394 14 C 325 39 269 76 226 126 C 182 175 150 236 130 310 C 110 384 100 469 100 567 C 100 664 110 749 130 823 C 150 897 182 958 226 1008 C 269 1057 325 1094 394 1119 C 463 1144 547 1157 645 1157 C 743 1157 826 1144 895 1119 C 964 1094 1021 1057 1065 1008 C 1109 958 1141 897 1161 823 C 1181 749 1192 664 1192 567 C 1192 469 1181 384 1161 310 C 1141 236 1109 175 1065 126 Z M 344 233 C 374 195 414 166 464 147 C 513 128 573 119 645 119 C 716 119 776 128 826 147 C 875 166 915 195 947 233 C 977 270 999 316 1013 372 C 1027 427 1034 491 1034 563 C 1034 635 1027 699 1013 755 C 999 811 977 858 947 896 C 915 933 875 961 826 981 C 776 1000 716 1010 645 1010 C 573 1010 513 1000 464 981 C 414 961 374 933 344 896 C 312 858 290 811 276 755 C 262 699 256 635 256 563 C 256 491 262 427 276 372 C 290 316 312 270 344 233 Z" unicode="o" />
<glyph horiz-adv-x="1325" d="M 403 218 C 435 184 476 159 527 145 C 577 130 639 123 711 123 C 780 123 838 133 884 153 C 930 173 966 202 994 240 C 1020 277 1039 323 1050 377 C 1061 431 1067 493 1067 563 C 1067 632 1061 694 1051 750 C 1040 805 1021 852 995 891 C 967 929 931 958 885 979 C 839 999 781 1010 711 1010 C 639 1010 578 1002 528 987 C 477 972 436 947 404 913 C 372 877 348 831 333 774 C 318 717 311 647 311 563 C 311 479 318 409 333 353 C 347 297 371 252 403 218 Z M 156 -338 L 156 1122 L 279 1130 L 293 995 C 308 1022 328 1046 352 1066 C 376 1086 407 1103 443 1117 C 479 1130 521 1140 570 1147 C 619 1153 676 1157 741 1157 C 835 1157 913 1143 975 1115 C 1037 1087 1087 1047 1125 996 C 1161 944 1187 882 1202 810 C 1217 737 1225 656 1225 567 C 1225 479 1217 399 1202 327 C 1186 255 1160 193 1123 143 C 1085 91 1035 52 972 24 C 909 -4 830 -18 735 -18 C 673 -18 619 -15 573 -9 C 527 -3 487 6 453 19 C 419 31 390 46 367 65 C 344 84 325 107 311 133 L 311 -338 L 156 -338 Z" unicode="p" />
<glyph horiz-adv-x="1325" d="M 1014 -338 L 1014 131 C 994 103 972 80 947 61 C 922 42 893 27 860 15 C 826 3 786 -5 742 -11 C 697 -17 645 -20 586 -20 C 492 -20 413 -6 351 22 C 288 50 238 90 202 142 C 164 193 138 255 123 327 C 107 399 100 480 100 569 C 100 657 107 738 123 810 C 139 882 165 944 203 996 C 240 1047 290 1087 353 1115 C 416 1143 495 1157 590 1157 C 652 1157 707 1154 755 1148 C 802 1142 843 1134 879 1122 C 913 1109 943 1093 967 1074 C 991 1055 1012 1032 1030 1006 L 1059 1149 L 1169 1139 L 1169 -338 L 1014 -338 Z M 331 243 C 357 204 394 174 440 154 C 486 133 544 123 614 123 C 685 123 746 130 797 146 C 847 161 889 186 921 222 C 953 256 976 302 991 359 C 1006 415 1014 485 1014 569 C 1014 652 1006 722 992 778 C 978 834 955 880 923 915 C 891 949 849 973 799 988 C 748 1002 686 1010 614 1010 C 544 1010 486 1000 440 980 C 394 960 357 931 331 894 C 303 856 284 809 274 755 C 263 700 258 638 258 569 C 258 499 263 437 274 382 C 284 327 303 281 331 243 Z" unicode="q" />
<glyph horiz-adv-x="735" d="M 156 0 L 156 1122 L 279 1130 L 295 979 C 305 1001 322 1022 345 1042 C 367 1062 395 1079 429 1095 C 461 1109 499 1121 543 1130 C 586 1139 634 1144 686 1145 L 686 989 C 616 989 558 979 510 961 C 462 942 424 916 395 883 C 365 849 344 808 331 762 C 317 716 311 665 311 610 L 311 0 L 156 0 Z" unicode="r" />
<glyph horiz-adv-x="1069" d="M 878 53 C 840 26 793 7 736 -3 C 678 -14 610 -20 532 -20 C 494 -20 456 -18 417 -14 C 377 -10 338 -4 298 6 C 258 15 218 28 178 44 C 138 60 99 80 61 106 L 143 227 C 176 205 210 187 244 173 C 278 159 313 147 347 139 C 381 130 414 124 447 120 C 479 116 511 115 541 115 C 591 115 635 117 673 123 C 711 129 742 139 767 155 C 791 169 810 189 822 215 C 834 240 840 273 840 313 C 840 345 834 371 824 391 C 813 411 796 428 772 442 C 748 456 717 467 679 477 C 641 487 595 497 541 508 C 475 520 416 534 364 548 C 311 562 266 582 230 606 C 192 630 164 661 144 699 C 124 737 115 786 115 848 C 115 896 122 940 137 978 C 152 1016 177 1048 211 1075 C 245 1101 289 1122 343 1136 C 397 1150 463 1157 541 1157 C 626 1157 703 1148 772 1131 C 841 1113 902 1089 954 1059 L 881 932 C 837 955 787 974 731 990 C 674 1006 611 1014 543 1014 C 489 1014 445 1010 410 1002 C 374 994 346 984 326 970 C 304 955 289 937 281 917 C 272 896 268 873 268 848 C 268 816 273 790 284 770 C 294 749 311 732 334 718 C 356 704 385 692 421 682 C 456 672 499 663 549 653 C 617 639 679 625 733 611 C 787 597 834 579 872 556 C 910 532 939 502 959 465 C 979 428 989 379 989 319 C 989 254 979 200 961 157 C 943 113 915 79 878 53 Z" unicode="s" />
<glyph horiz-adv-x="831" d="M 63 989 L 63 1130 L 270 1130 L 297 1470 L 420 1493 L 420 1130 L 731 1130 L 731 989 L 420 989 L 420 309 C 420 283 421 259 424 238 C 427 216 435 198 447 184 C 458 168 475 157 498 149 C 521 141 552 137 592 137 L 731 137 L 731 0 C 727 0 717 -1 702 -1 C 686 -1 670 -2 652 -2 L 567 -2 C 503 -2 452 4 413 17 C 373 29 343 48 322 73 C 300 97 285 128 277 164 C 269 200 266 243 266 291 L 266 989 L 63 989 Z" unicode="t" />
<glyph horiz-adv-x="1257" d="M 950 39 C 914 19 871 5 819 -5 C 767 -15 705 -20 633 -20 C 559 -20 497 -15 445 -5 C 393 5 349 19 313 39 C 277 58 248 82 227 110 C 205 138 189 170 178 206 C 166 241 159 280 155 324 C 151 368 150 415 150 465 L 150 1130 L 303 1130 L 303 461 C 303 429 303 399 304 371 C 305 342 309 315 315 290 C 321 264 330 241 344 221 C 357 200 376 182 401 168 C 425 152 455 141 493 133 C 531 125 577 121 633 121 C 687 121 733 125 771 133 C 808 141 839 152 863 168 C 886 182 904 200 917 221 C 930 242 940 266 946 292 C 951 318 954 345 955 375 C 955 405 956 436 956 469 L 956 1130 L 1108 1130 L 1108 471 C 1108 419 1106 372 1103 328 C 1099 284 1092 244 1082 208 C 1070 171 1054 138 1034 110 C 1013 82 985 58 950 39 Z" unicode="u" />
<glyph horiz-adv-x="1112" d="M 473 -10 L 23 1130 L 186 1130 L 557 174 L 930 1130 L 1090 1130 L 639 -10 L 473 -10 Z" unicode="v" />
<glyph horiz-adv-x="1794" d="M 438 -10 L 31 1130 L 193 1130 L 518 215 L 823 1130 L 977 1130 L 1280 217 L 1606 1130 L 1763 1130 L 1356 -10 L 1202 -10 L 897 897 L 592 -10 L 438 -10 Z" unicode="w" />
<glyph horiz-adv-x="1108" d="M 893 0 L 547 479 L 209 0 L 41 0 L 467 590 L 78 1130 L 248 1130 L 559 700 L 864 1130 L 1032 1130 L 639 588 L 1067 0 L 893 0 Z" unicode="x" />
<glyph horiz-adv-x="1085" d="M 460 -288 C 434 -306 405 -320 373 -329 C 340 -337 302 -342 258 -342 L 210 -342 C 200 -342 190 -341 181 -341 C 171 -341 164 -340 160 -340 L 160 -213 L 248 -213 C 274 -213 296 -211 315 -207 C 333 -203 350 -196 364 -188 C 377 -178 388 -166 398 -151 C 407 -136 416 -118 424 -96 L 465 8 L 23 1130 L 186 1130 L 547 190 L 903 1130 L 1063 1130 L 575 -113 C 559 -153 542 -187 524 -216 C 506 -245 484 -269 460 -288 Z" unicode="y" />
<glyph horiz-adv-x="1028" d="M 68 0 L 68 117 L 743 989 L 102 989 L 102 1130 L 942 1130 L 942 1012 L 266 133 L 965 133 L 965 0 L 68 0 Z" unicode="z" />
<glyph horiz-adv-x="1022" d="M 821 -338 L 664 -338 C 600 -338 546 -332 502 -321 C 458 -310 422 -294 395 -272 C 367 -250 347 -222 335 -189 C 323 -155 317 -116 317 -72 C 317 -50 319 -25 325 3 C 331 32 338 63 347 96 C 355 128 363 162 373 196 C 383 230 392 262 401 294 C 409 325 415 354 421 381 C 427 408 430 431 430 449 C 430 471 425 490 416 504 C 406 518 391 529 371 537 C 349 545 322 550 289 553 C 255 555 215 557 168 557 L 168 692 C 212 692 251 693 284 695 C 316 697 344 703 366 711 C 387 719 403 730 414 745 C 424 759 430 779 430 805 C 430 823 427 845 421 871 C 415 897 409 926 401 958 C 392 989 383 1021 373 1055 C 363 1089 355 1122 347 1155 C 338 1187 331 1218 325 1247 C 319 1276 317 1301 317 1323 C 317 1367 323 1406 335 1440 C 347 1473 367 1501 395 1523 C 422 1545 458 1561 502 1572 C 546 1583 600 1589 664 1589 L 821 1589 L 821 1448 L 692 1448 C 648 1448 613 1444 585 1438 C 557 1432 535 1422 519 1410 C 502 1396 490 1379 484 1359 C 478 1338 475 1314 475 1286 C 475 1269 477 1248 483 1222 C 488 1196 495 1168 503 1138 C 511 1107 519 1075 529 1042 C 539 1008 548 976 556 944 C 564 912 570 881 576 853 C 581 825 584 800 584 780 C 584 740 574 708 556 682 C 537 656 508 638 469 627 C 510 613 539 594 557 568 C 575 542 584 510 584 471 C 584 450 581 425 576 397 C 570 369 564 339 556 307 C 548 275 539 242 529 208 C 519 174 511 142 503 112 C 495 81 488 53 483 27 C 477 1 475 -20 475 -37 C 475 -65 478 -90 484 -111 C 490 -131 502 -148 519 -162 C 535 -175 557 -185 585 -191 C 613 -197 648 -201 692 -201 L 821 -201 L 821 -338 Z" unicode="{" />
<glyph horiz-adv-x="664" d="M 252 -338 L 252 1589 L 410 1589 L 410 -338 L 252 -338 Z" unicode="|" />
<glyph horiz-adv-x="1022" d="M 201 -338 L 201 -201 L 332 -201 C 375 -201 411 -197 439 -191 C 467 -185 489 -175 505 -162 C 521 -148 532 -131 538 -111 C 544 -90 547 -65 547 -37 C 547 -20 544 1 539 27 C 533 53 527 81 519 112 C 511 142 502 174 492 208 C 482 242 474 275 466 307 C 458 339 451 369 446 397 C 440 425 438 450 438 471 C 438 511 447 544 467 570 C 486 596 515 615 553 627 C 511 639 482 658 464 684 C 446 710 438 742 438 780 C 438 800 440 825 446 853 C 451 881 458 912 466 944 C 474 976 482 1008 492 1042 C 502 1075 511 1107 519 1138 C 527 1168 533 1196 539 1222 C 544 1248 547 1269 547 1286 C 547 1314 544 1338 538 1359 C 532 1379 521 1396 505 1410 C 489 1422 467 1432 439 1438 C 411 1444 375 1448 332 1448 L 201 1448 L 201 1589 L 358 1589 C 422 1589 477 1583 521 1572 C 565 1561 601 1545 629 1523 C 656 1501 676 1473 688 1440 C 700 1406 707 1367 707 1323 C 707 1301 704 1276 698 1247 C 692 1218 685 1187 677 1155 C 668 1122 659 1089 649 1055 C 639 1021 630 989 622 958 C 613 926 606 897 600 871 C 594 844 592 822 592 805 C 592 781 596 762 606 748 C 616 734 631 723 653 715 C 673 707 700 701 733 698 C 766 695 806 694 854 694 L 854 559 C 809 559 770 557 738 555 C 705 553 678 548 657 541 C 635 533 618 521 608 507 C 597 493 592 473 592 449 C 592 431 594 408 600 381 C 606 354 613 325 622 294 C 630 262 639 230 649 196 C 659 162 668 128 677 96 C 685 63 692 32 698 3 C 704 -25 707 -50 707 -72 C 707 -116 700 -155 688 -189 C 676 -222 656 -250 629 -272 C 601 -294 565 -310 521 -321 C 477 -332 422 -338 358 -338 L 201 -338 Z" unicode="}" />
<glyph horiz-adv-x="1208" d="M 309 868 L 211 944 C 227 964 246 984 266 1003 C 286 1021 306 1038 328 1052 C 349 1065 371 1076 393 1084 C 415 1092 438 1096 461 1096 C 495 1096 525 1090 549 1080 C 573 1070 596 1059 617 1047 C 637 1034 657 1022 677 1012 C 697 1002 719 997 745 997 C 758 997 771 1000 785 1006 C 799 1012 812 1020 826 1031 C 839 1041 852 1052 866 1066 C 879 1079 892 1093 905 1108 L 999 1032 C 981 1010 963 990 944 970 C 924 950 904 932 883 917 C 861 901 839 889 817 880 C 794 870 771 866 748 866 C 717 866 689 871 665 882 C 641 892 618 904 597 917 C 575 929 553 940 532 951 C 510 961 487 967 463 967 C 438 967 412 958 384 940 C 356 922 331 898 309 868 Z" unicode="~" />
<glyph horiz-adv-x="1092" d="M 835 123 C 807 80 770 47 723 23 C 676 0 617 -12 545 -12 C 473 -12 413 0 367 23 C 320 47 283 80 257 123 C 229 165 210 215 200 274 C 189 332 184 397 184 467 C 184 536 189 600 200 658 C 210 716 229 767 257 809 C 283 851 320 883 367 907 C 413 930 473 942 545 942 C 617 942 676 930 723 907 C 770 883 807 851 835 809 C 861 767 880 716 891 658 C 901 600 907 536 907 467 C 907 397 901 332 891 274 C 880 215 861 165 835 123 Z M 349 199 C 365 166 388 141 420 123 C 451 105 493 96 545 96 C 597 96 638 105 670 123 C 701 141 725 166 742 199 C 758 231 769 269 774 315 C 779 361 782 411 782 467 C 782 521 779 570 774 615 C 769 659 758 698 742 730 C 725 761 701 785 670 803 C 638 820 597 829 545 829 C 493 829 451 820 420 803 C 388 785 365 761 349 730 C 332 698 321 659 316 615 C 311 570 309 521 309 467 C 309 411 311 361 316 315 C 321 269 332 231 349 199 Z" unicode="₀" />
<glyph horiz-adv-x="672" d="M 311 0 L 311 813 L 127 813 L 127 926 L 436 926 L 436 0 L 311 0 Z" unicode="₁" />
<glyph horiz-adv-x="903" d="M 131 0 L 131 94 L 424 385 C 462 422 493 454 517 480 C 541 506 561 530 575 552 C 589 573 598 594 604 616 C 609 637 612 662 612 690 C 612 737 597 772 568 795 C 539 817 490 829 422 829 C 372 829 326 824 285 814 C 244 804 209 792 180 778 L 125 874 C 163 893 206 908 254 920 C 302 932 362 938 434 938 C 535 938 611 919 661 882 C 711 845 737 784 737 700 C 737 663 732 630 724 601 C 716 571 703 543 685 515 C 667 487 644 458 616 428 C 588 398 554 364 516 326 L 297 104 L 748 104 L 748 0 L 131 0 Z" unicode="₂" />
<glyph horiz-adv-x="944" d="M 711 49 C 683 27 648 11 606 2 C 564 -7 514 -12 457 -12 C 422 -12 390 -10 360 -7 C 330 -4 301 0 273 7 C 245 13 217 22 191 33 C 164 44 137 58 109 74 L 172 168 C 218 141 262 122 306 111 C 350 99 396 94 446 94 C 484 94 518 96 546 102 C 574 108 597 118 615 132 C 633 146 646 164 655 188 C 663 212 668 242 668 279 C 668 308 664 334 658 356 C 651 378 639 396 622 411 C 604 425 579 436 548 444 C 516 451 476 455 426 455 L 295 455 L 295 555 L 422 555 C 462 555 497 557 525 562 C 553 566 575 574 592 586 C 608 596 620 611 628 629 C 635 647 639 670 639 698 C 639 747 623 781 593 800 C 562 819 512 829 444 829 C 398 829 353 823 309 813 C 265 802 225 786 190 766 L 129 860 C 151 873 175 885 201 895 C 227 905 254 913 283 920 C 311 926 340 931 370 935 C 400 938 429 940 459 940 C 513 940 559 935 598 927 C 637 919 669 906 694 888 C 718 870 736 847 748 819 C 760 791 766 759 766 721 C 766 663 755 617 735 584 C 714 551 681 527 635 512 C 691 498 732 471 756 430 C 780 388 793 334 793 266 C 793 214 786 170 772 134 C 758 98 738 70 711 49 Z" unicode="₃" />
<glyph horiz-adv-x="1012" d="M 147 211 L 147 313 L 561 926 L 698 926 L 285 315 L 608 315 L 631 610 L 729 610 L 729 315 L 887 315 L 887 211 L 729 211 L 729 0 L 608 0 L 608 211 L 147 211 Z" unicode="₄" />
<glyph horiz-adv-x="997" d="M 754 48 C 722 25 683 10 639 2 C 594 -6 545 -10 492 -10 C 454 -10 420 -7 388 -3 C 356 1 326 8 299 16 C 271 23 245 32 221 42 C 197 52 174 64 154 76 L 219 174 C 256 153 295 135 337 120 C 379 105 427 98 483 98 C 521 98 555 100 586 106 C 616 111 642 121 664 137 C 685 151 701 172 713 200 C 725 227 731 263 731 307 C 731 349 725 384 714 412 C 703 439 688 460 668 476 C 648 491 623 501 595 507 C 566 513 534 516 498 516 C 454 516 418 513 388 507 C 358 501 329 492 301 479 L 201 506 L 225 926 L 786 926 L 786 817 L 332 817 L 317 588 C 345 598 375 606 409 612 C 442 618 480 621 522 621 C 568 621 612 617 653 609 C 693 601 729 585 759 563 C 789 539 812 507 830 466 C 847 425 856 372 856 307 C 856 239 847 185 829 144 C 811 102 786 70 754 48 Z" unicode="₅" />
<glyph horiz-adv-x="1044" d="M 813 76 C 787 47 752 25 709 10 C 665 -4 611 -12 547 -12 C 485 -12 432 -5 386 8 C 340 22 301 44 271 76 C 240 106 217 147 201 197 C 185 247 178 309 178 383 C 178 477 186 559 203 627 C 219 695 248 752 288 797 C 328 841 381 873 447 894 C 513 915 596 926 696 926 L 739 926 L 739 817 L 692 817 C 620 817 561 811 515 799 C 468 787 430 770 401 747 C 371 723 349 694 335 658 C 320 622 309 580 303 532 C 328 569 364 595 410 611 C 456 627 510 635 573 635 C 633 635 684 627 724 613 C 764 598 797 577 821 550 C 844 522 860 488 870 449 C 880 409 885 365 885 315 C 885 264 879 218 868 178 C 857 138 839 104 813 76 Z M 368 144 C 388 124 413 109 443 101 C 473 92 507 88 547 88 C 591 88 627 93 655 104 C 683 114 705 129 721 149 C 736 168 747 192 753 220 C 759 248 762 279 762 313 C 762 347 759 377 753 405 C 747 433 736 456 720 476 C 704 495 682 510 654 521 C 626 531 590 537 547 537 C 510 537 477 533 447 525 C 417 517 392 505 372 489 C 350 473 334 452 322 428 C 310 403 305 374 305 340 C 305 292 310 253 321 221 C 331 189 347 163 368 144 Z" unicode="₆" />
<glyph horiz-adv-x="844" d="M 244 0 L 600 813 L 109 813 L 109 926 L 739 926 L 739 827 L 377 0 L 244 0 Z" unicode="₇" />
<glyph horiz-adv-x="1063" d="M 809 61 C 779 37 742 18 696 6 C 650 -5 594 -12 530 -12 C 465 -12 410 -5 364 6 C 318 18 281 37 253 61 C 223 85 202 114 188 148 C 174 182 168 222 168 266 C 168 328 180 380 204 421 C 228 462 268 492 326 512 C 301 520 280 531 264 544 C 248 556 235 571 226 588 C 216 604 209 623 205 644 C 201 664 199 687 199 713 C 199 748 204 780 215 808 C 225 836 243 861 269 881 C 294 901 328 916 371 927 C 413 938 466 944 530 944 C 593 944 646 938 689 927 C 731 916 766 901 792 881 C 818 861 836 836 847 808 C 858 780 864 748 864 713 C 864 687 861 664 857 643 C 853 622 846 603 836 587 C 826 569 812 554 796 542 C 779 529 758 518 733 510 C 791 491 833 461 858 420 C 882 379 895 328 895 266 C 895 222 888 182 874 148 C 860 114 838 85 809 61 Z M 367 587 C 383 574 404 564 431 558 C 457 552 490 549 530 549 C 569 549 602 552 629 558 C 656 564 678 574 695 587 C 711 599 722 614 730 633 C 737 651 741 673 741 698 C 741 722 737 743 730 761 C 722 779 711 795 695 808 C 678 820 656 829 629 835 C 602 841 569 844 530 844 C 490 844 457 841 431 835 C 404 829 383 820 367 808 C 351 795 339 779 332 761 C 325 743 322 722 322 698 C 322 673 325 651 332 633 C 339 614 351 599 367 587 Z M 293 274 C 293 210 311 163 349 132 C 387 101 447 86 530 86 C 612 86 673 101 712 132 C 750 162 770 210 770 274 C 770 336 750 383 712 413 C 673 443 612 459 530 459 C 447 459 387 443 349 413 C 311 383 293 336 293 274 Z" unicode="₈" />
<glyph horiz-adv-x="1044" d="M 309 0 L 309 106 L 356 106 C 426 106 485 112 533 124 C 580 136 618 155 648 180 C 677 204 699 234 715 270 C 730 306 741 349 748 397 C 720 359 684 331 639 315 C 593 299 539 291 475 291 C 413 291 363 298 323 313 C 283 327 251 349 227 377 C 203 404 186 437 176 477 C 166 517 162 562 162 612 C 162 662 167 708 178 749 C 189 789 208 824 235 853 C 261 881 295 902 339 917 C 382 932 436 940 502 940 C 562 940 616 933 662 919 C 708 905 746 882 777 852 C 807 820 830 779 846 729 C 862 679 870 617 870 545 C 870 449 861 367 845 299 C 828 230 800 174 761 130 C 721 85 667 52 601 31 C 535 10 452 0 354 0 L 309 0 Z M 329 447 C 345 427 367 412 395 402 C 423 392 458 387 502 387 C 538 387 570 391 600 399 C 630 407 655 419 676 435 C 696 451 712 471 724 495 C 735 519 741 548 741 582 C 741 629 735 669 725 701 C 715 733 700 760 680 780 C 659 800 634 814 604 823 C 574 831 540 836 502 836 C 458 836 422 830 394 820 C 366 809 344 794 328 775 C 311 755 300 731 294 703 C 288 675 285 644 285 610 C 285 576 288 545 294 517 C 300 489 312 466 329 447 Z" unicode="₉" />
<glyph horiz-adv-x="489" d="" unicode="" />
<glyph horiz-adv-x="481" d="" unicode=" " />
<glyph horiz-adv-x="733" d="M 264 1292 L 264 1518 L 471 1518 L 471 1292 L 264 1292 Z M 281 0 L 299 1100 L 436 1100 L 453 0 L 281 0 Z" unicode="¡" />
<glyph horiz-adv-x="1143" d="M 323 871 C 298 833 280 789 270 737 C 259 685 254 627 254 563 C 254 499 259 441 269 389 C 279 337 297 292 322 254 C 346 216 379 185 420 162 C 461 139 512 125 573 119 L 573 1006 C 513 999 462 984 421 961 C 380 938 347 908 323 871 Z M 565 -193 L 565 -12 C 475 -6 401 11 341 41 C 281 71 234 111 199 161 C 163 211 138 270 124 339 C 109 407 102 483 102 567 C 102 649 109 725 123 794 C 137 862 163 922 199 973 C 234 1023 281 1063 341 1093 C 400 1123 475 1142 565 1149 L 565 1278 L 713 1278 L 713 1149 C 753 1145 790 1139 824 1130 C 857 1120 887 1109 915 1096 C 941 1082 966 1066 988 1049 C 1010 1031 1030 1013 1049 995 L 938 891 C 926 903 912 915 898 927 C 883 939 866 950 847 961 C 827 971 806 981 782 989 C 758 997 732 1002 702 1006 L 702 117 C 727 119 750 124 772 131 C 794 137 815 146 835 156 C 854 166 873 177 891 191 C 909 204 928 219 948 236 L 1049 139 C 1025 117 1000 97 976 80 C 951 62 925 47 899 35 C 872 22 843 12 813 4 C 782 -4 749 -9 713 -12 L 713 -193 L 565 -193 Z" unicode="¢" />
<glyph horiz-adv-x="1251" d="M 1099 64 C 1074 36 1041 15 1000 3 C 959 -9 908 -16 846 -16 C 806 -16 767 -13 729 -8 C 690 -2 653 5 618 15 C 582 24 547 35 515 48 C 483 60 453 74 426 88 C 394 59 351 37 297 22 C 243 7 173 0 88 0 L 88 135 C 152 135 203 139 241 148 C 279 157 307 171 326 191 C 344 210 356 235 361 265 C 366 295 369 331 369 373 C 369 420 362 474 349 534 C 336 594 321 656 305 721 L 72 721 L 72 852 L 270 852 C 256 905 245 957 236 1009 C 227 1060 223 1107 223 1151 C 223 1209 230 1263 246 1311 C 261 1359 286 1401 321 1436 C 355 1470 401 1496 457 1515 C 513 1534 583 1544 666 1544 C 744 1544 815 1537 879 1524 C 942 1511 1004 1492 1065 1466 L 1004 1331 C 953 1354 899 1371 842 1381 C 784 1391 725 1397 664 1397 C 608 1397 562 1390 525 1378 C 488 1365 459 1347 437 1325 C 415 1301 399 1273 390 1241 C 381 1209 377 1173 377 1133 C 377 1093 381 1050 390 1002 C 398 954 409 904 422 852 L 893 852 L 893 721 L 455 721 C 469 658 482 597 494 538 C 506 478 512 424 512 375 C 512 341 510 311 508 283 C 506 255 501 229 494 205 C 541 182 595 163 656 147 C 716 131 779 123 844 123 C 883 123 914 127 938 135 C 962 143 980 155 994 172 C 1006 188 1015 210 1019 236 C 1023 262 1026 293 1026 330 L 1026 379 L 1165 379 L 1165 326 C 1165 264 1160 212 1150 169 C 1140 126 1123 91 1099 64 Z" unicode="£" />
<glyph horiz-adv-x="1280" d="M 135 481 L 135 618 L 563 618 L 563 653 L 33 1518 L 197 1518 L 641 788 L 1083 1518 L 1247 1518 L 717 655 L 717 618 L 1147 618 L 1147 481 L 717 481 L 717 309 L 1147 309 L 1147 172 L 717 172 L 717 0 L 563 0 L 563 172 L 135 172 L 135 309 L 563 309 L 563 481 L 135 481 Z" unicode="¥" />
<glyph horiz-adv-x="664" d="M 252 786 L 252 1589 L 410 1589 L 410 786 L 252 786 Z M 252 -338 L 252 465 L 410 465 L 410 -338 L 252 -338 Z" unicode="¦" />
<glyph horiz-adv-x="1114" d="M 590 86 C 566 54 532 28 488 10 C 443 -8 383 -18 307 -18 C 299 -18 288 -17 276 -17 C 264 -17 252 -17 240 -17 C 227 -17 215 -16 205 -16 C 195 -16 188 -16 184 -16 L 184 115 L 293 115 C 337 115 373 120 399 131 C 425 142 445 158 459 178 C 471 197 479 220 483 246 C 487 272 489 301 489 332 L 489 467 C 364 473 270 499 206 546 C 142 593 111 665 111 762 C 111 854 140 923 198 970 C 256 1017 343 1046 459 1057 L 459 1180 C 459 1228 462 1274 469 1317 C 475 1360 490 1398 514 1430 C 537 1462 571 1487 615 1506 C 659 1524 719 1534 795 1534 L 863 1534 C 875 1534 887 1533 898 1533 C 908 1533 916 1532 920 1532 L 920 1397 L 811 1397 C 765 1397 729 1391 703 1380 C 676 1369 656 1354 643 1335 C 629 1315 621 1292 617 1266 C 613 1240 612 1212 612 1182 L 612 1059 C 740 1053 838 1027 904 979 C 970 931 1004 859 1004 762 C 1004 668 973 598 912 552 C 850 505 761 477 645 469 L 645 336 C 645 287 641 241 635 198 C 628 155 613 118 590 86 Z M 242 760 C 242 694 268 648 320 620 C 372 592 450 578 555 578 C 660 578 739 592 792 620 C 845 648 872 694 872 760 C 872 824 845 870 793 897 C 740 924 661 938 555 938 C 449 938 371 924 319 897 C 267 870 242 824 242 760 Z" unicode="§" />
<glyph horiz-adv-x="1208" d="M 750 1253 L 750 1462 L 891 1462 L 891 1253 L 750 1253 Z M 317 1253 L 317 1462 L 461 1462 L 461 1253 L 317 1253 Z" unicode="¨" />
<glyph horiz-adv-x="1704" d="M 1420 195 C 1356 125 1277 71 1182 33 C 1086 -5 975 -25 848 -25 C 720 -25 609 -5 515 33 C 420 71 341 125 279 195 C 215 264 168 347 137 443 C 105 539 90 644 90 760 C 90 875 105 981 137 1077 C 168 1173 215 1255 279 1325 C 341 1394 420 1448 515 1486 C 609 1524 720 1544 848 1544 C 975 1544 1086 1524 1182 1486 C 1277 1448 1356 1394 1420 1325 C 1483 1255 1530 1173 1562 1077 C 1594 981 1610 875 1610 760 C 1610 644 1594 539 1562 443 C 1530 347 1483 264 1420 195 Z M 333 249 C 388 186 458 137 544 103 C 629 68 730 51 848 51 C 966 51 1068 68 1154 103 C 1240 137 1311 186 1368 249 C 1424 311 1465 385 1493 472 C 1520 559 1534 655 1534 760 C 1534 864 1520 960 1493 1047 C 1465 1133 1424 1208 1368 1271 C 1311 1333 1240 1381 1154 1416 C 1068 1450 966 1468 848 1468 C 730 1468 629 1450 544 1416 C 458 1381 388 1333 333 1271 C 277 1208 235 1133 208 1047 C 181 960 168 864 168 760 C 168 655 181 559 208 472 C 235 385 277 311 333 249 Z M 1092 281 C 1062 268 1028 258 991 251 C 953 243 911 240 864 240 C 699 240 574 284 488 373 C 402 462 360 594 360 768 C 360 856 372 934 396 1000 C 420 1066 454 1120 498 1164 C 542 1206 595 1238 658 1260 C 720 1281 790 1292 868 1292 C 937 1292 1002 1281 1064 1260 C 1126 1238 1179 1207 1225 1165 L 1147 1085 C 1111 1117 1068 1141 1020 1159 C 971 1177 920 1186 866 1186 C 804 1186 749 1177 701 1159 C 652 1141 611 1115 578 1081 C 544 1045 518 1001 500 949 C 482 897 473 836 473 768 C 473 629 506 524 574 454 C 641 383 739 348 868 348 C 904 348 937 350 966 356 C 995 361 1021 369 1045 379 C 1068 388 1089 399 1107 411 C 1125 423 1142 437 1157 451 L 1231 375 C 1213 357 1192 340 1170 324 C 1147 308 1121 293 1092 281 Z" unicode="©" />
<glyph horiz-adv-x="1206" d="M 260 870 C 260 816 277 773 311 743 C 345 713 401 698 479 698 C 585 698 664 723 716 775 C 768 826 795 908 795 1020 L 795 1090 L 756 1090 C 663 1090 585 1086 522 1080 C 458 1073 407 1061 369 1045 C 330 1027 302 1004 285 976 C 268 948 260 912 260 870 Z M 685 625 C 656 611 623 600 585 594 C 547 587 503 584 453 584 C 394 584 344 590 304 604 C 263 617 230 636 205 661 C 179 685 161 714 150 748 C 138 782 133 820 133 862 C 133 926 145 980 169 1023 C 193 1066 231 1101 282 1127 C 332 1152 395 1170 473 1180 C 550 1190 642 1196 748 1196 L 795 1196 C 793 1236 790 1271 784 1299 C 778 1327 766 1351 750 1369 C 732 1386 708 1399 678 1407 C 647 1415 607 1419 557 1419 C 529 1419 501 1416 475 1411 C 449 1406 424 1400 401 1393 C 377 1385 356 1377 337 1368 C 318 1358 302 1349 289 1341 L 217 1444 C 232 1454 252 1464 276 1476 C 300 1487 328 1498 359 1508 C 389 1517 421 1525 457 1531 C 492 1537 529 1540 567 1540 C 643 1540 705 1533 752 1519 C 798 1505 835 1484 861 1455 C 886 1425 903 1386 911 1340 C 919 1293 924 1237 924 1171 L 924 831 C 924 805 924 785 926 771 C 928 756 932 745 939 738 C 945 730 955 724 968 722 C 980 720 998 719 1020 719 L 1020 600 C 1014 600 1008 599 1001 599 C 994 598 985 598 973 598 C 943 598 918 599 898 603 C 878 607 861 614 849 626 C 835 636 825 652 819 672 C 813 692 809 719 807 752 C 793 723 776 698 756 677 C 736 656 713 639 685 625 Z M 219 307 L 219 428 L 928 428 L 928 307 L 219 307 Z" unicode="ª" />
<glyph horiz-adv-x="1386" d="M 1001 0 L 692 563 L 1001 1130 L 1143 1130 L 842 563 L 1143 0 L 1001 0 Z M 504 0 L 195 563 L 504 1130 L 643 1130 L 344 563 L 643 0 L 504 0 Z" unicode="«" />
<glyph horiz-adv-x="1425" d="M 217 797 L 1206 797 L 1206 231 L 1051 231 L 1051 649 L 217 649 L 217 797 Z" unicode="¬" />
<glyph horiz-adv-x="1704" d="M 1420 195 C 1356 125 1277 71 1182 33 C 1086 -5 975 -25 848 -25 C 720 -25 609 -5 515 33 C 420 71 341 125 279 195 C 215 264 168 347 137 443 C 105 539 90 644 90 760 C 90 875 105 981 137 1077 C 168 1173 215 1255 279 1325 C 341 1394 420 1448 515 1486 C 609 1524 720 1544 848 1544 C 975 1544 1086 1524 1182 1486 C 1277 1448 1356 1394 1420 1325 C 1483 1255 1530 1173 1562 1077 C 1594 981 1610 875 1610 760 C 1610 644 1594 539 1562 443 C 1530 347 1483 264 1420 195 Z M 333 249 C 388 186 458 137 544 103 C 629 68 730 51 848 51 C 966 51 1068 68 1154 103 C 1240 137 1311 186 1368 249 C 1424 311 1465 385 1493 472 C 1520 559 1534 655 1534 760 C 1534 864 1520 960 1493 1047 C 1465 1133 1424 1208 1368 1271 C 1311 1333 1240 1381 1154 1416 C 1068 1450 966 1468 848 1468 C 730 1468 629 1450 544 1416 C 458 1381 388 1333 333 1271 C 277 1208 235 1133 208 1047 C 181 960 168 864 168 760 C 168 655 181 559 208 472 C 235 385 277 311 333 249 Z M 594 766 L 922 766 C 960 766 993 769 1021 775 C 1049 781 1073 793 1093 809 C 1112 824 1126 844 1136 870 C 1146 895 1151 927 1151 965 C 1151 1002 1146 1033 1137 1058 C 1127 1083 1113 1103 1095 1119 C 1075 1134 1051 1145 1022 1151 C 993 1157 959 1161 920 1161 L 594 1161 L 594 766 Z M 1141 250 L 897 670 L 594 670 L 594 250 L 487 250 L 487 1260 L 922 1260 C 984 1260 1036 1254 1078 1242 C 1120 1230 1155 1212 1182 1188 C 1208 1163 1227 1132 1239 1096 C 1251 1059 1257 1016 1257 967 C 1257 879 1237 811 1199 763 C 1160 714 1096 684 1006 674 L 1255 250 L 1141 250 Z" unicode="®" />
<glyph horiz-adv-x="1208" d="M 236 1241 L 236 1374 L 973 1374 L 973 1241 L 236 1241 Z" unicode="¯" />
<glyph horiz-adv-x="1165" d="M 923 708 C 887 664 840 631 784 607 C 728 583 660 571 582 571 C 502 571 435 583 379 607 C 323 631 277 664 241 708 C 205 750 178 801 162 861 C 145 920 137 985 137 1057 C 137 1127 145 1192 162 1252 C 178 1311 205 1362 241 1406 C 277 1448 323 1482 379 1506 C 435 1530 502 1542 582 1542 C 660 1542 728 1530 784 1506 C 840 1482 887 1448 923 1406 C 959 1362 985 1311 1002 1252 C 1019 1192 1028 1127 1028 1057 C 1028 985 1019 920 1002 861 C 985 801 959 750 923 708 Z M 339 796 C 363 764 396 739 436 722 C 476 704 524 696 582 696 C 639 696 688 704 728 722 C 768 739 800 764 826 796 C 850 827 868 865 880 909 C 891 953 897 1001 897 1055 C 897 1107 891 1155 880 1199 C 868 1243 850 1280 826 1312 C 800 1343 768 1367 728 1385 C 688 1402 639 1411 582 1411 C 524 1411 476 1402 436 1385 C 396 1367 363 1343 339 1312 C 313 1280 295 1243 284 1199 C 273 1155 268 1107 268 1055 C 268 1001 273 953 284 909 C 295 865 313 827 339 796 Z" unicode="°" />
<glyph horiz-adv-x="1425" d="M 635 231 L 635 649 L 217 649 L 217 797 L 635 797 L 635 1212 L 788 1212 L 788 797 L 1206 797 L 1206 649 L 788 649 L 788 231 L 635 231 Z M 217 35 L 217 180 L 1206 180 L 1206 35 L 217 35 Z" unicode="±" />
<glyph horiz-adv-x="944" d="M 711 641 C 683 619 648 603 606 594 C 564 584 514 580 457 580 C 422 580 390 581 360 584 C 330 587 301 592 273 599 C 245 605 217 614 191 625 C 164 636 137 650 109 666 L 172 760 C 218 733 262 714 306 703 C 350 691 396 686 446 686 C 484 686 518 688 546 694 C 574 700 597 710 615 724 C 633 738 646 756 655 780 C 663 804 668 834 668 870 C 668 900 664 926 658 948 C 651 970 639 988 622 1003 C 604 1017 579 1028 548 1036 C 516 1043 476 1047 426 1047 L 295 1047 L 295 1147 L 422 1147 C 462 1147 497 1149 525 1154 C 553 1158 575 1166 592 1178 C 608 1188 620 1203 628 1221 C 635 1239 639 1262 639 1290 C 639 1339 623 1373 593 1392 C 562 1411 512 1421 444 1421 C 398 1421 353 1415 309 1405 C 265 1394 225 1378 190 1358 L 129 1452 C 151 1465 175 1477 201 1487 C 227 1497 254 1505 283 1512 C 311 1518 340 1523 370 1527 C 400 1530 429 1532 459 1532 C 513 1532 559 1527 598 1519 C 637 1511 669 1498 694 1480 C 718 1462 736 1439 748 1411 C 760 1383 766 1351 766 1313 C 766 1255 755 1209 735 1176 C 714 1143 681 1119 635 1104 C 691 1090 732 1063 756 1022 C 780 980 793 926 793 858 C 793 806 786 762 772 726 C 758 690 738 662 711 641 Z" unicode="³" />
<glyph horiz-adv-x="1208" d="M 446 1249 L 756 1569 L 946 1569 L 594 1249 L 446 1249 Z" unicode="´" />
<glyph horiz-adv-x="1274" d="M 842 22 C 808 8 769 -3 723 -11 C 677 -19 625 -23 565 -23 C 505 -23 453 -17 410 -7 C 367 2 331 17 301 37 L 301 -338 L 156 -338 L 156 1130 L 309 1130 L 309 477 C 309 425 311 377 317 334 C 322 290 335 253 355 222 C 375 190 404 165 444 147 C 483 129 537 121 606 121 C 681 121 742 130 788 150 C 834 170 871 197 897 231 C 922 265 939 305 948 351 C 956 397 961 448 961 502 L 961 1130 L 1116 1130 L 1116 6 L 997 -4 L 979 129 C 965 108 947 88 925 70 C 903 52 875 36 842 22 Z" unicode="µ" />
<glyph horiz-adv-x="1268" d="M 614 729 L 928 729 L 928 1374 L 621 1374 C 557 1374 502 1368 457 1358 C 412 1348 376 1330 348 1306 C 319 1281 298 1249 285 1209 C 272 1169 266 1119 266 1059 C 266 998 272 947 286 905 C 299 863 320 829 348 803 C 376 777 412 758 456 746 C 500 734 552 729 614 729 Z M 526 0 L 526 600 C 448 606 383 620 330 642 C 277 664 235 695 203 734 C 170 772 146 819 132 874 C 118 929 111 993 111 1065 C 111 1143 119 1210 137 1267 C 155 1323 184 1370 224 1408 C 264 1445 316 1473 382 1491 C 447 1509 527 1518 623 1518 L 1075 1518 L 1075 0 L 928 0 L 928 596 L 674 596 L 674 0 L 526 0 Z" unicode="¶" />
<glyph horiz-adv-x="489" d="M 141 561 L 141 793 L 346 793 L 346 561 L 141 561 Z" unicode="·" />
<glyph horiz-adv-x="1208" d="M 831 -406 C 809 -423 782 -436 748 -446 C 714 -456 671 -461 621 -461 C 569 -461 524 -455 486 -444 C 448 -432 413 -418 383 -401 L 430 -315 C 456 -329 485 -341 516 -349 C 547 -357 580 -362 614 -362 C 648 -362 676 -359 697 -353 C 718 -347 735 -339 747 -329 C 758 -319 766 -307 770 -294 C 774 -281 776 -268 776 -254 C 776 -235 773 -219 767 -207 C 761 -194 750 -184 736 -177 C 721 -169 701 -164 677 -162 C 652 -160 621 -160 584 -162 L 539 -129 L 567 14 L 668 14 L 649 -92 C 679 -90 709 -90 738 -92 C 767 -94 793 -102 816 -114 C 838 -126 855 -143 869 -167 C 882 -191 889 -223 889 -264 C 889 -292 884 -319 875 -343 C 866 -367 851 -388 831 -406 Z" unicode="¸" />
<glyph horiz-adv-x="1212" d="M 1047 1067 C 1047 910 1010 791 937 711 C 863 630 753 590 606 590 C 456 590 346 630 274 711 C 202 791 166 910 166 1067 C 166 1223 202 1342 274 1422 C 346 1502 456 1542 606 1542 C 753 1542 863 1502 937 1422 C 1010 1342 1047 1223 1047 1067 Z M 299 1065 C 299 949 324 861 374 801 C 424 741 501 711 606 711 C 710 711 787 741 837 801 C 887 861 913 949 913 1065 C 913 1180 887 1267 837 1326 C 787 1385 710 1415 606 1415 C 501 1415 424 1385 374 1326 C 324 1266 299 1179 299 1065 Z M 221 305 L 221 428 L 991 428 L 991 305 L 221 305 Z" unicode="º" />
<glyph horiz-adv-x="1386" d="M 743 0 L 1042 565 L 743 1130 L 885 1130 L 1194 565 L 885 0 L 743 0 Z M 248 0 L 547 565 L 248 1130 L 385 1130 L 694 565 L 385 0 L 248 0 Z" unicode="»" />
<glyph horiz-adv-x="1786" d="M 362 0 L 1208 1518 L 1350 1518 L 504 0 L 362 0 Z M 299 588 L 299 1401 L 115 1401 L 115 1518 L 428 1518 L 428 588 L 299 588 Z M 1423 0 L 1423 217 L 969 217 L 969 315 L 1382 930 L 1522 930 L 1112 324 L 1423 324 L 1446 575 L 1546 575 L 1546 324 L 1700 324 L 1700 217 L 1546 217 L 1546 0 L 1423 0 Z" unicode="¼" />
<glyph horiz-adv-x="1925" d="M 362 0 L 1208 1518 L 1350 1518 L 504 0 L 362 0 Z M 299 588 L 299 1401 L 115 1401 L 115 1518 L 428 1518 L 428 588 L 299 588 Z M 1151 0 L 1151 98 L 1444 387 C 1482 425 1513 457 1538 483 C 1562 509 1582 532 1597 554 C 1611 575 1620 596 1626 616 C 1631 636 1634 660 1634 688 C 1634 735 1619 770 1590 793 C 1561 815 1512 827 1444 827 C 1393 827 1347 821 1307 811 C 1266 801 1231 788 1202 774 L 1145 877 C 1183 895 1227 910 1276 922 C 1324 934 1384 940 1456 940 C 1557 940 1632 921 1682 884 C 1732 847 1757 786 1757 700 C 1757 663 1753 630 1745 601 C 1737 572 1724 544 1707 517 C 1689 489 1666 460 1638 430 C 1610 400 1577 365 1538 326 L 1323 109 L 1755 109 L 1755 0 L 1151 0 Z" unicode="½" />
<glyph horiz-adv-x="1978" d="M 557 0 L 1403 1518 L 1544 1518 L 696 0 L 557 0 Z M 1616 0 L 1616 217 L 1163 217 L 1163 315 L 1575 930 L 1716 930 L 1305 324 L 1618 324 L 1640 575 L 1741 575 L 1741 324 L 1892 324 L 1892 217 L 1741 217 L 1741 0 L 1616 0 Z M 680 647 C 652 625 617 609 575 600 C 533 590 483 586 426 586 C 392 586 360 587 330 590 C 300 593 271 598 243 606 C 215 612 187 621 160 633 C 133 644 106 658 78 674 L 145 772 C 192 745 237 726 279 715 C 321 703 366 698 416 698 C 454 698 486 700 514 705 C 542 710 565 720 583 734 C 601 747 614 765 622 789 C 630 812 635 842 635 879 C 635 908 631 933 625 955 C 618 977 606 995 589 1009 C 571 1023 546 1033 515 1040 C 484 1047 444 1051 395 1051 L 266 1051 L 266 1159 L 391 1159 C 432 1159 467 1161 495 1165 C 523 1169 545 1177 563 1188 C 579 1198 591 1212 599 1230 C 606 1248 610 1270 610 1298 C 610 1322 606 1343 598 1360 C 590 1376 579 1390 563 1400 C 547 1410 526 1417 502 1421 C 477 1425 448 1427 414 1427 C 368 1427 324 1421 280 1410 C 236 1399 196 1383 162 1362 L 98 1460 C 142 1488 193 1508 251 1522 C 309 1535 368 1542 428 1542 C 482 1542 528 1537 567 1529 C 606 1521 638 1508 663 1490 C 687 1472 705 1449 717 1421 C 729 1393 735 1359 735 1321 C 735 1263 724 1217 702 1185 C 680 1153 647 1128 602 1112 C 656 1098 697 1071 723 1031 C 749 990 762 935 762 866 C 762 813 755 769 741 733 C 727 697 707 669 680 647 Z" unicode="¾" />
<glyph horiz-adv-x="1360" d="M 618 1319 L 618 1528 L 823 1528 L 823 1319 L 618 1319 Z M 942 17 C 896 7 850 0 802 -6 C 754 -11 708 -14 662 -14 C 564 -14 484 -6 421 9 C 357 24 307 47 270 78 C 232 108 205 146 190 191 C 175 236 168 288 168 348 C 168 398 174 442 187 480 C 199 517 218 550 242 580 C 266 609 295 636 331 660 C 366 684 407 709 453 735 C 499 761 536 785 564 807 C 591 829 611 854 625 882 C 638 909 645 942 647 980 C 649 1018 647 1066 643 1124 L 797 1124 C 803 1056 805 999 803 952 C 800 905 790 864 774 829 C 756 793 731 760 699 732 C 666 704 623 675 571 645 C 524 619 485 595 454 575 C 423 555 398 534 380 514 C 361 493 348 470 340 446 C 332 422 328 392 328 358 C 328 324 331 293 339 265 C 347 237 363 213 388 194 C 412 174 446 159 492 149 C 537 138 597 133 672 133 C 753 133 832 142 908 160 C 984 178 1054 204 1116 238 L 1184 102 C 1150 84 1113 67 1072 53 C 1030 39 987 27 942 17 Z" unicode="¿" />
<glyph horiz-adv-x="1487" d="M 750 1608 L 397 1927 L 588 1927 L 897 1608 L 750 1608 Z M 403 498 L 1069 498 L 737 1333 L 403 498 Z M 51 0 L 659 1528 L 821 1528 L 1430 0 L 1266 0 L 1126 350 L 348 350 L 211 0 L 51 0 Z" unicode="À" />
<glyph horiz-adv-x="1487" d="M 582 1608 L 891 1927 L 1081 1927 L 729 1608 L 582 1608 Z M 403 498 L 1069 498 L 737 1333 L 403 498 Z M 51 0 L 659 1528 L 821 1528 L 1430 0 L 1266 0 L 1126 350 L 348 350 L 211 0 L 51 0 Z" unicode="Á" />
<glyph horiz-adv-x="1487" d="M 340 1608 L 651 1927 L 825 1927 L 1137 1608 L 981 1608 L 735 1827 L 494 1608 L 340 1608 Z M 403 498 L 1069 498 L 737 1333 L 403 498 Z M 51 0 L 659 1528 L 821 1528 L 1430 0 L 1266 0 L 1126 350 L 348 350 L 211 0 L 51 0 Z" unicode="Â" />
<glyph horiz-adv-x="1487" d="M 444 1614 L 346 1690 C 362 1710 381 1730 401 1749 C 421 1767 441 1783 463 1797 C 484 1810 506 1821 528 1829 C 550 1837 573 1841 596 1841 C 630 1841 660 1835 684 1825 C 708 1815 731 1804 752 1792 C 772 1780 792 1768 812 1758 C 832 1748 855 1743 881 1743 C 894 1743 907 1746 921 1752 C 934 1758 947 1766 961 1776 C 974 1786 987 1797 1001 1811 C 1014 1824 1027 1838 1040 1853 L 1135 1778 C 1117 1756 1099 1736 1079 1716 C 1059 1696 1039 1678 1018 1663 C 996 1647 974 1635 952 1626 C 929 1616 906 1612 883 1612 C 852 1612 824 1617 800 1627 C 776 1637 753 1649 732 1662 C 710 1674 688 1686 667 1696 C 645 1706 622 1712 598 1712 C 573 1712 547 1703 519 1685 C 491 1667 466 1644 444 1614 Z M 403 498 L 1069 498 L 737 1333 L 403 498 Z M 51 0 L 659 1528 L 821 1528 L 1430 0 L 1266 0 L 1126 350 L 348 350 L 211 0 L 51 0 Z" unicode="Ã" />
<glyph horiz-adv-x="1487" d="M 885 1612 L 885 1821 L 1026 1821 L 1026 1612 L 885 1612 Z M 453 1612 L 453 1821 L 596 1821 L 596 1612 L 453 1612 Z M 403 498 L 1069 498 L 737 1333 L 403 498 Z M 51 0 L 659 1528 L 821 1528 L 1430 0 L 1266 0 L 1126 350 L 348 350 L 211 0 L 51 0 Z" unicode="Ä" />
<glyph horiz-adv-x="1487" d="M 624 1557 C 636 1542 652 1531 671 1523 C 690 1515 713 1511 741 1511 C 768 1511 791 1515 811 1523 C 830 1531 846 1542 859 1557 C 871 1571 880 1587 886 1607 C 892 1626 895 1647 895 1671 C 895 1693 892 1714 886 1734 C 880 1753 871 1770 859 1785 C 846 1799 830 1810 811 1818 C 791 1826 768 1831 741 1831 C 713 1831 690 1826 671 1818 C 652 1810 636 1799 624 1785 C 611 1770 602 1753 596 1734 C 590 1714 588 1693 588 1671 C 588 1647 590 1626 596 1607 C 602 1587 611 1571 624 1557 Z M 406 496 L 1073 496 L 739 1333 L 406 496 Z M 53 0 L 627 1442 C 581 1460 548 1490 528 1530 C 508 1570 498 1617 498 1671 C 498 1705 502 1738 512 1768 C 521 1798 535 1825 555 1848 C 574 1870 599 1888 630 1901 C 660 1914 697 1921 741 1921 C 782 1921 818 1914 849 1901 C 880 1888 906 1870 927 1848 C 947 1825 962 1798 972 1768 C 982 1738 987 1705 987 1671 C 987 1619 976 1572 954 1532 C 932 1491 900 1461 856 1442 L 1432 0 L 1270 0 L 1130 348 L 348 348 L 213 0 L 53 0 Z" unicode="Å" />
<glyph horiz-adv-x="2191" d="M 502 483 L 1069 483 L 1069 1372 L 502 483 Z M 41 0 L 995 1518 L 2066 1518 L 2066 1364 L 1223 1364 L 1223 862 L 2046 862 L 2046 715 L 1223 715 L 1223 147 L 2075 147 L 2075 0 L 1069 0 L 1069 344 L 420 344 L 201 0 L 41 0 Z" unicode="Æ" />
<glyph horiz-adv-x="1477" d="M 964 -406 C 942 -423 915 -436 881 -446 C 847 -456 804 -461 754 -461 C 702 -461 657 -455 619 -444 C 581 -432 547 -418 516 -401 L 563 -315 C 589 -329 618 -341 650 -349 C 681 -357 714 -362 748 -362 C 782 -362 809 -359 831 -353 C 852 -347 868 -339 880 -329 C 891 -319 899 -307 903 -294 C 907 -281 909 -268 909 -254 C 909 -235 906 -219 900 -207 C 894 -194 883 -184 869 -177 C 854 -169 834 -164 810 -162 C 785 -160 754 -160 717 -162 L 672 -129 L 694 -14 C 488 9 336 86 238 217 C 139 347 90 528 90 760 C 90 892 106 1008 140 1106 C 174 1204 223 1285 288 1350 C 352 1414 431 1462 525 1494 C 619 1526 726 1542 846 1542 C 954 1542 1052 1526 1142 1495 C 1231 1463 1309 1416 1376 1352 L 1262 1237 C 1207 1286 1144 1324 1074 1350 C 1004 1376 927 1389 844 1389 C 648 1389 501 1336 401 1231 C 301 1125 252 968 252 758 C 252 654 263 563 287 485 C 311 406 347 340 397 288 C 445 235 507 195 582 169 C 656 142 744 129 846 129 C 902 129 952 133 996 141 C 1039 149 1078 161 1112 176 C 1145 190 1175 206 1201 225 C 1227 243 1251 263 1274 285 L 1386 176 C 1360 150 1330 126 1298 102 C 1265 78 1227 56 1184 38 C 1140 19 1089 4 1033 -6 C 977 -17 912 -23 838 -23 L 795 -23 L 782 -92 C 812 -90 842 -90 871 -92 C 900 -94 926 -102 949 -114 C 971 -126 988 -143 1002 -167 C 1015 -191 1022 -223 1022 -264 C 1022 -292 1017 -319 1008 -343 C 999 -367 984 -388 964 -406 Z" unicode="Ç" />
<glyph horiz-adv-x="1309" d="M 662 1608 L 309 1927 L 500 1927 L 809 1608 L 662 1608 Z M 178 0 L 178 1518 L 1182 1518 L 1182 1364 L 340 1364 L 340 862 L 1161 862 L 1161 711 L 340 711 L 340 147 L 1190 147 L 1190 0 L 178 0 Z" unicode="È" />
<glyph horiz-adv-x="1309" d="M 494 1608 L 803 1927 L 993 1927 L 641 1608 L 494 1608 Z M 178 0 L 178 1518 L 1182 1518 L 1182 1364 L 340 1364 L 340 862 L 1161 862 L 1161 711 L 340 711 L 340 147 L 1190 147 L 1190 0 L 178 0 Z" unicode="É" />
<glyph horiz-adv-x="1309" d="M 252 1608 L 563 1927 L 737 1927 L 1049 1608 L 893 1608 L 647 1827 L 406 1608 L 252 1608 Z M 178 0 L 178 1518 L 1182 1518 L 1182 1364 L 340 1364 L 340 862 L 1161 862 L 1161 711 L 340 711 L 340 147 L 1190 147 L 1190 0 L 178 0 Z" unicode="Ê" />
<glyph horiz-adv-x="1309" d="M 797 1612 L 797 1821 L 938 1821 L 938 1612 L 797 1612 Z M 365 1612 L 365 1821 L 508 1821 L 508 1612 L 365 1612 Z M 178 0 L 178 1518 L 1182 1518 L 1182 1364 L 340 1364 L 340 862 L 1161 862 L 1161 711 L 340 711 L 340 147 L 1190 147 L 1190 0 L 178 0 Z" unicode="Ë" />
<glyph horiz-adv-x="547" d="M 203 1608 L -111 1927 L 84 1927 L 352 1608 L 203 1608 Z M 195 0 L 195 1518 L 352 1518 L 352 0 L 195 0 Z" unicode="Ì" />
<glyph horiz-adv-x="547" d="M 195 1608 L 461 1927 L 655 1927 L 344 1608 L 195 1608 Z M 195 0 L 195 1518 L 352 1518 L 352 0 L 195 0 Z" unicode="Í" />
<glyph horiz-adv-x="547" d="M -76 1608 L 188 1927 L 356 1927 L 618 1608 L 465 1608 L 270 1831 L 76 1608 L -76 1608 Z M 195 0 L 195 1518 L 352 1518 L 352 0 L 195 0 Z" unicode="Î" />
<glyph horiz-adv-x="547" d="M 420 1612 L 420 1821 L 561 1821 L 561 1612 L 420 1612 Z M -12 1612 L -12 1821 L 131 1821 L 131 1612 L -12 1612 Z M 195 0 L 195 1518 L 352 1518 L 352 0 L 195 0 Z" unicode="Ï" />
<glyph horiz-adv-x="1540" d="M 0 719 L 0 854 L 178 854 L 178 1518 L 674 1518 C 816 1518 936 1506 1035 1482 C 1134 1458 1215 1417 1277 1359 C 1338 1301 1382 1223 1410 1126 C 1438 1028 1452 906 1452 760 C 1452 616 1436 496 1405 399 C 1374 301 1326 223 1261 165 C 1195 105 1112 63 1011 38 C 909 12 788 0 647 0 L 178 0 L 178 719 L 0 719 Z M 340 147 L 653 147 C 773 147 873 157 955 179 C 1036 201 1102 236 1152 285 C 1201 333 1236 396 1258 474 C 1279 552 1290 647 1290 760 C 1290 836 1286 904 1278 964 C 1270 1024 1256 1076 1238 1121 C 1219 1165 1194 1203 1163 1235 C 1132 1266 1094 1291 1049 1311 C 1003 1330 950 1344 888 1353 C 826 1361 756 1366 676 1366 L 340 1366 L 340 854 L 684 854 L 684 719 L 340 719 L 340 147 Z" unicode="Ð" />
<glyph horiz-adv-x="1595" d="M 500 1614 L 401 1690 C 417 1710 436 1730 456 1749 C 476 1767 496 1783 518 1797 C 539 1810 561 1821 583 1829 C 605 1837 628 1841 651 1841 C 685 1841 715 1835 740 1825 C 764 1815 787 1804 808 1792 C 828 1780 848 1768 868 1758 C 888 1748 910 1743 936 1743 C 949 1743 962 1746 976 1752 C 989 1758 1003 1766 1017 1776 C 1030 1786 1043 1797 1056 1811 C 1069 1824 1082 1838 1096 1853 L 1190 1778 C 1172 1756 1154 1736 1134 1716 C 1114 1696 1094 1678 1073 1663 C 1051 1647 1029 1635 1007 1626 C 984 1616 961 1612 938 1612 C 907 1612 880 1617 856 1627 C 832 1637 809 1649 788 1662 C 766 1674 744 1686 723 1696 C 701 1706 678 1712 653 1712 C 628 1712 602 1703 575 1685 C 547 1667 522 1644 500 1614 Z M 178 0 L 178 1518 L 354 1518 L 1262 266 L 1262 1518 L 1417 1518 L 1417 0 L 1270 0 L 334 1288 L 334 0 L 178 0 Z" unicode="Ñ" />
<glyph horiz-adv-x="1708" d="M 862 1608 L 510 1927 L 700 1927 L 1010 1608 L 862 1608 Z M 1418 164 C 1352 100 1272 52 1177 21 C 1082 -9 974 -25 852 -25 C 730 -25 622 -9 528 21 C 434 52 354 100 290 164 C 224 228 175 309 141 408 C 107 506 90 624 90 760 C 90 894 107 1011 141 1109 C 175 1207 224 1289 290 1353 C 354 1417 434 1464 528 1495 C 622 1526 730 1542 852 1542 C 974 1542 1082 1526 1177 1495 C 1272 1464 1352 1417 1418 1353 C 1483 1289 1533 1207 1567 1109 C 1601 1011 1618 894 1618 760 C 1618 624 1601 506 1567 408 C 1533 309 1483 228 1418 164 Z M 398 287 C 446 233 508 193 584 166 C 659 138 748 125 852 125 C 955 125 1045 138 1121 166 C 1197 193 1260 233 1310 287 C 1359 340 1396 406 1420 485 C 1444 563 1456 654 1456 758 C 1456 860 1444 950 1420 1029 C 1396 1107 1359 1173 1310 1227 C 1260 1280 1197 1320 1121 1348 C 1045 1375 955 1389 852 1389 C 748 1389 659 1375 584 1348 C 508 1320 446 1280 398 1227 C 348 1173 312 1107 288 1029 C 264 950 252 860 252 758 C 252 654 264 563 288 485 C 312 406 348 340 398 287 Z" unicode="Ò" />
<glyph horiz-adv-x="1708" d="M 694 1608 L 1004 1927 L 1194 1927 L 842 1608 L 694 1608 Z M 1418 164 C 1352 100 1272 52 1177 21 C 1082 -9 974 -25 852 -25 C 730 -25 622 -9 528 21 C 434 52 354 100 290 164 C 224 228 175 309 141 408 C 107 506 90 624 90 760 C 90 894 107 1011 141 1109 C 175 1207 224 1289 290 1353 C 354 1417 434 1464 528 1495 C 622 1526 730 1542 852 1542 C 974 1542 1082 1526 1177 1495 C 1272 1464 1352 1417 1418 1353 C 1483 1289 1533 1207 1567 1109 C 1601 1011 1618 894 1618 760 C 1618 624 1601 506 1567 408 C 1533 309 1483 228 1418 164 Z M 398 287 C 446 233 508 193 584 166 C 659 138 748 125 852 125 C 955 125 1045 138 1121 166 C 1197 193 1260 233 1310 287 C 1359 340 1396 406 1420 485 C 1444 563 1456 654 1456 758 C 1456 860 1444 950 1420 1029 C 1396 1107 1359 1173 1310 1227 C 1260 1280 1197 1320 1121 1348 C 1045 1375 955 1389 852 1389 C 748 1389 659 1375 584 1348 C 508 1320 446 1280 398 1227 C 348 1173 312 1107 288 1029 C 264 950 252 860 252 758 C 252 654 264 563 288 485 C 312 406 348 340 398 287 Z" unicode="Ó" />
<glyph horiz-adv-x="1708" d="M 453 1608 L 764 1927 L 938 1927 L 1249 1608 L 1094 1608 L 848 1827 L 606 1608 L 453 1608 Z M 1418 164 C 1352 100 1272 52 1177 21 C 1082 -9 974 -25 852 -25 C 730 -25 622 -9 528 21 C 434 52 354 100 290 164 C 224 228 175 309 141 408 C 107 506 90 624 90 760 C 90 894 107 1011 141 1109 C 175 1207 224 1289 290 1353 C 354 1417 434 1464 528 1495 C 622 1526 730 1542 852 1542 C 974 1542 1082 1526 1177 1495 C 1272 1464 1352 1417 1418 1353 C 1483 1289 1533 1207 1567 1109 C 1601 1011 1618 894 1618 760 C 1618 624 1601 506 1567 408 C 1533 309 1483 228 1418 164 Z M 398 287 C 446 233 508 193 584 166 C 659 138 748 125 852 125 C 955 125 1045 138 1121 166 C 1197 193 1260 233 1310 287 C 1359 340 1396 406 1420 485 C 1444 563 1456 654 1456 758 C 1456 860 1444 950 1420 1029 C 1396 1107 1359 1173 1310 1227 C 1260 1280 1197 1320 1121 1348 C 1045 1375 955 1389 852 1389 C 748 1389 659 1375 584 1348 C 508 1320 446 1280 398 1227 C 348 1173 312 1107 288 1029 C 264 950 252 860 252 758 C 252 654 264 563 288 485 C 312 406 348 340 398 287 Z" unicode="Ô" />
<glyph horiz-adv-x="1708" d="M 557 1614 L 459 1690 C 475 1710 493 1730 513 1749 C 533 1767 553 1783 575 1797 C 596 1810 618 1821 641 1829 C 663 1837 686 1841 709 1841 C 732 1841 753 1838 771 1833 C 789 1828 806 1822 822 1816 C 837 1808 851 1800 865 1792 C 878 1783 891 1775 905 1769 C 918 1761 932 1755 946 1750 C 960 1745 975 1743 993 1743 C 1006 1743 1019 1746 1033 1752 C 1047 1758 1060 1766 1074 1776 C 1087 1786 1100 1797 1114 1811 C 1127 1824 1140 1838 1153 1853 L 1247 1778 C 1229 1756 1211 1736 1192 1716 C 1172 1696 1152 1678 1131 1663 C 1109 1647 1087 1635 1065 1626 C 1042 1616 1019 1612 995 1612 C 964 1612 937 1617 913 1627 C 889 1637 866 1649 845 1662 C 823 1674 801 1686 780 1696 C 758 1706 735 1712 711 1712 C 686 1712 660 1703 632 1685 C 604 1667 579 1644 557 1614 Z M 1418 164 C 1352 100 1272 52 1177 21 C 1082 -9 974 -25 852 -25 C 730 -25 622 -9 528 21 C 434 52 354 100 290 164 C 224 228 175 309 141 408 C 107 506 90 624 90 760 C 90 894 107 1011 141 1109 C 175 1207 224 1289 290 1353 C 354 1417 434 1464 528 1495 C 622 1526 730 1542 852 1542 C 974 1542 1082 1526 1177 1495 C 1272 1464 1352 1417 1418 1353 C 1483 1289 1533 1207 1567 1109 C 1601 1011 1618 894 1618 760 C 1618 624 1601 506 1567 408 C 1533 309 1483 228 1418 164 Z M 398 287 C 446 233 508 193 584 166 C 659 138 748 125 852 125 C 955 125 1045 138 1121 166 C 1197 193 1260 233 1310 287 C 1359 340 1396 406 1420 485 C 1444 563 1456 654 1456 758 C 1456 860 1444 950 1420 1029 C 1396 1107 1359 1173 1310 1227 C 1260 1280 1197 1320 1121 1348 C 1045 1375 955 1389 852 1389 C 748 1389 659 1375 584 1348 C 508 1320 446 1280 398 1227 C 348 1173 312 1107 288 1029 C 264 950 252 860 252 758 C 252 654 264 563 288 485 C 312 406 348 340 398 287 Z" unicode="Õ" />
<glyph horiz-adv-x="1708" d="M 997 1612 L 997 1821 L 1139 1821 L 1139 1612 L 997 1612 Z M 565 1612 L 565 1821 L 709 1821 L 709 1612 L 565 1612 Z M 1418 164 C 1352 100 1272 52 1177 21 C 1082 -9 974 -25 852 -25 C 730 -25 622 -9 528 21 C 434 52 354 100 290 164 C 224 228 175 309 141 408 C 107 506 90 624 90 760 C 90 894 107 1011 141 1109 C 175 1207 224 1289 290 1353 C 354 1417 434 1464 528 1495 C 622 1526 730 1542 852 1542 C 974 1542 1082 1526 1177 1495 C 1272 1464 1352 1417 1418 1353 C 1483 1289 1533 1207 1567 1109 C 1601 1011 1618 894 1618 760 C 1618 624 1601 506 1567 408 C 1533 309 1483 228 1418 164 Z M 398 287 C 446 233 508 193 584 166 C 659 138 748 125 852 125 C 955 125 1045 138 1121 166 C 1197 193 1260 233 1310 287 C 1359 340 1396 406 1420 485 C 1444 563 1456 654 1456 758 C 1456 860 1444 950 1420 1029 C 1396 1107 1359 1173 1310 1227 C 1260 1280 1197 1320 1121 1348 C 1045 1375 955 1389 852 1389 C 748 1389 659 1375 584 1348 C 508 1320 446 1280 398 1227 C 348 1173 312 1107 288 1029 C 264 950 252 860 252 758 C 252 654 264 563 288 485 C 312 406 348 340 398 287 Z" unicode="Ö" />
<glyph horiz-adv-x="1425" d="M 385 299 L 291 397 L 616 721 L 291 1047 L 387 1147 L 713 821 L 1036 1147 L 1133 1047 L 809 721 L 1133 397 L 1036 299 L 713 625 L 385 299 Z" unicode="×" />
<glyph horiz-adv-x="1708" d="M 388 1231 C 339 1177 303 1110 281 1031 C 259 952 248 861 248 758 C 248 630 265 520 299 429 C 333 338 389 267 465 217 L 1106 1360 C 1070 1370 1030 1378 988 1384 C 945 1390 900 1393 852 1393 C 744 1393 651 1379 575 1352 C 499 1324 436 1284 388 1231 Z M 575 162 C 614 147 656 136 702 130 C 747 124 797 121 852 121 C 960 121 1053 134 1130 162 C 1206 190 1269 231 1319 285 C 1367 338 1403 404 1426 484 C 1448 563 1460 654 1460 758 C 1460 892 1440 1005 1402 1097 C 1364 1189 1303 1260 1219 1311 L 575 162 Z M 1425 164 C 1361 100 1281 52 1185 21 C 1089 -9 978 -25 852 -25 C 785 -25 723 -20 666 -11 C 608 -2 555 10 506 27 L 444 -84 L 289 -84 L 383 84 C 285 144 212 230 163 341 C 114 452 90 592 90 760 C 90 894 106 1011 138 1109 C 170 1207 218 1289 282 1353 C 346 1417 425 1464 520 1495 C 615 1526 726 1542 852 1542 C 913 1542 971 1538 1025 1531 C 1079 1524 1129 1513 1176 1499 L 1235 1604 L 1391 1604 L 1300 1446 C 1404 1387 1483 1301 1537 1188 C 1591 1075 1618 932 1618 760 C 1618 624 1601 506 1569 408 C 1537 309 1489 228 1425 164 Z" unicode="Ø" />
<glyph horiz-adv-x="1593" d="M 805 1608 L 453 1927 L 643 1927 L 952 1608 L 805 1608 Z M 1197 57 C 1150 31 1094 10 1028 -3 C 962 -17 884 -25 795 -25 C 705 -25 627 -17 561 -3 C 495 10 439 31 393 57 C 346 82 308 112 279 148 C 250 184 227 223 211 266 C 194 308 183 352 177 400 C 171 448 168 497 168 547 L 168 1518 L 330 1518 L 330 565 C 330 500 336 441 349 387 C 361 333 385 287 419 249 C 453 209 500 179 560 157 C 620 135 699 125 795 125 C 891 125 970 135 1032 157 C 1094 178 1142 208 1178 247 C 1212 285 1236 332 1250 386 C 1263 440 1270 499 1270 565 L 1270 1518 L 1425 1518 L 1425 547 C 1425 497 1421 448 1415 400 C 1409 352 1397 307 1381 265 C 1363 222 1340 183 1311 148 C 1281 112 1243 82 1197 57 Z" unicode="Ù" />
<glyph horiz-adv-x="1593" d="M 637 1608 L 946 1927 L 1137 1927 L 784 1608 L 637 1608 Z M 1197 57 C 1150 31 1094 10 1028 -3 C 962 -17 884 -25 795 -25 C 705 -25 627 -17 561 -3 C 495 10 439 31 393 57 C 346 82 308 112 279 148 C 250 184 227 223 211 266 C 194 308 183 352 177 400 C 171 448 168 497 168 547 L 168 1518 L 330 1518 L 330 565 C 330 500 336 441 349 387 C 361 333 385 287 419 249 C 453 209 500 179 560 157 C 620 135 699 125 795 125 C 891 125 970 135 1032 157 C 1094 178 1142 208 1178 247 C 1212 285 1236 332 1250 386 C 1263 440 1270 499 1270 565 L 1270 1518 L 1425 1518 L 1425 547 C 1425 497 1421 448 1415 400 C 1409 352 1397 307 1381 265 C 1363 222 1340 183 1311 148 C 1281 112 1243 82 1197 57 Z" unicode="Ú" />
<glyph horiz-adv-x="1593" d="M 395 1608 L 707 1927 L 881 1927 L 1192 1608 L 1036 1608 L 791 1827 L 549 1608 L 395 1608 Z M 1197 57 C 1150 31 1094 10 1028 -3 C 962 -17 884 -25 795 -25 C 705 -25 627 -17 561 -3 C 495 10 439 31 393 57 C 346 82 308 112 279 148 C 250 184 227 223 211 266 C 194 308 183 352 177 400 C 171 448 168 497 168 547 L 168 1518 L 330 1518 L 330 565 C 330 500 336 441 349 387 C 361 333 385 287 419 249 C 453 209 500 179 560 157 C 620 135 699 125 795 125 C 891 125 970 135 1032 157 C 1094 178 1142 208 1178 247 C 1212 285 1236 332 1250 386 C 1263 440 1270 499 1270 565 L 1270 1518 L 1425 1518 L 1425 547 C 1425 497 1421 448 1415 400 C 1409 352 1397 307 1381 265 C 1363 222 1340 183 1311 148 C 1281 112 1243 82 1197 57 Z" unicode="Û" />
<glyph horiz-adv-x="1593" d="M 940 1612 L 940 1821 L 1081 1821 L 1081 1612 L 940 1612 Z M 508 1612 L 508 1821 L 651 1821 L 651 1612 L 508 1612 Z M 1197 57 C 1150 31 1094 10 1028 -3 C 962 -17 884 -25 795 -25 C 705 -25 627 -17 561 -3 C 495 10 439 31 393 57 C 346 82 308 112 279 148 C 250 184 227 223 211 266 C 194 308 183 352 177 400 C 171 448 168 497 168 547 L 168 1518 L 330 1518 L 330 565 C 330 500 336 441 349 387 C 361 333 385 287 419 249 C 453 209 500 179 560 157 C 620 135 699 125 795 125 C 891 125 970 135 1032 157 C 1094 178 1142 208 1178 247 C 1212 285 1236 332 1250 386 C 1263 440 1270 499 1270 565 L 1270 1518 L 1425 1518 L 1425 547 C 1425 497 1421 448 1415 400 C 1409 352 1397 307 1381 265 C 1363 222 1340 183 1311 148 C 1281 112 1243 82 1197 57 Z" unicode="Ü" />
<glyph horiz-adv-x="1434" d="M 557 1608 L 866 1927 L 1057 1927 L 705 1608 L 557 1608 Z M 637 0 L 637 590 L 27 1518 L 203 1518 L 719 735 L 1239 1518 L 1405 1518 L 797 592 L 797 0 L 637 0 Z" unicode="Ý" />
<glyph horiz-adv-x="1446" d="M 178 0 L 178 1518 L 336 1518 L 336 1268 L 844 1268 C 939 1268 1019 1259 1085 1241 C 1150 1223 1203 1195 1243 1158 C 1283 1120 1311 1073 1329 1016 C 1347 958 1356 891 1356 813 C 1356 735 1347 666 1330 606 C 1312 546 1284 497 1244 457 C 1203 417 1150 386 1084 366 C 1018 346 938 336 842 336 L 336 336 L 336 0 L 178 0 Z M 336 483 L 846 483 C 908 483 961 488 1005 500 C 1049 512 1086 531 1114 557 C 1142 583 1162 616 1176 658 C 1189 699 1196 749 1196 809 C 1196 869 1189 919 1176 959 C 1163 999 1143 1031 1115 1056 C 1086 1080 1049 1097 1004 1107 C 959 1117 904 1122 840 1122 L 336 1122 L 336 483 Z" unicode="Þ" />
<glyph horiz-adv-x="1327" d="M 156 0 L 156 1112 C 156 1178 164 1241 181 1300 C 197 1358 226 1410 266 1454 C 305 1497 357 1531 422 1557 C 487 1582 568 1595 664 1595 C 826 1595 945 1562 1021 1497 C 1097 1432 1135 1334 1135 1202 C 1135 1150 1129 1105 1119 1065 C 1109 1025 1094 991 1076 962 C 1056 932 1033 907 1006 887 C 978 867 947 852 913 840 C 969 830 1019 814 1061 794 C 1103 773 1139 747 1167 715 C 1195 682 1216 643 1230 597 C 1244 551 1251 498 1251 438 C 1251 370 1243 310 1229 256 C 1214 202 1186 156 1145 118 C 1103 80 1044 50 969 30 C 894 10 796 0 676 0 L 543 0 L 543 141 L 672 141 C 734 141 787 144 832 151 C 877 158 916 168 948 182 C 979 194 1004 210 1024 229 C 1044 247 1059 268 1071 291 C 1081 313 1088 337 1092 363 C 1096 389 1098 417 1098 446 C 1098 497 1090 542 1076 580 C 1062 618 1037 649 1003 675 C 968 700 922 719 865 731 C 807 743 735 750 649 750 L 649 881 C 757 881 840 904 896 950 C 952 996 981 1069 981 1167 C 981 1213 975 1253 963 1287 C 951 1321 932 1350 907 1373 C 881 1395 847 1412 807 1423 C 767 1434 718 1440 662 1440 C 600 1440 546 1432 502 1416 C 457 1400 421 1378 393 1350 C 364 1320 343 1285 329 1244 C 315 1203 309 1157 309 1106 L 309 0 L 156 0 Z" unicode="ß" />
<glyph horiz-adv-x="1270" d="M 647 1249 L 295 1569 L 485 1569 L 795 1249 L 647 1249 Z M 297 169 C 317 150 345 136 380 127 C 414 117 458 113 510 113 C 581 113 642 120 693 136 C 743 152 785 176 818 209 C 850 241 873 282 888 332 C 903 382 911 441 911 510 L 911 592 L 852 592 C 770 592 698 590 636 587 C 574 583 520 578 475 571 C 429 563 391 552 361 539 C 331 525 307 509 289 490 C 271 470 258 446 251 419 C 243 392 240 361 240 326 C 240 292 244 261 253 235 C 261 209 276 187 297 169 Z M 779 20 C 743 6 701 -3 653 -10 C 605 -16 550 -20 487 -20 C 407 -20 342 -11 291 5 C 239 22 199 46 170 76 C 140 106 119 141 107 182 C 95 223 90 267 90 315 C 90 395 102 462 127 516 C 151 570 193 613 252 645 C 310 677 387 699 484 713 C 580 726 700 733 844 733 L 911 733 C 909 781 905 822 898 858 C 890 893 876 922 855 945 C 833 967 802 984 762 995 C 722 1006 670 1012 606 1012 C 570 1012 535 1009 503 1003 C 470 997 439 990 411 981 C 381 971 355 960 331 948 C 307 936 286 925 268 913 L 186 1034 C 204 1046 228 1060 258 1074 C 288 1088 322 1102 360 1115 C 397 1127 437 1137 481 1145 C 525 1153 570 1157 618 1157 C 713 1157 790 1148 848 1131 C 906 1113 951 1086 983 1050 C 1014 1013 1035 966 1045 908 C 1055 850 1061 780 1061 700 L 1061 274 C 1061 244 1062 220 1064 202 C 1066 184 1071 170 1079 161 C 1086 151 1097 144 1113 141 C 1129 138 1150 137 1178 137 L 1178 2 C 1172 0 1164 -1 1154 -1 C 1144 -1 1131 -2 1116 -2 C 1083 -2 1056 0 1034 6 C 1012 11 995 19 982 31 C 968 42 957 56 950 74 C 942 92 936 113 932 139 C 914 112 893 89 869 69 C 844 49 814 33 779 20 Z" unicode="à" />
<glyph horiz-adv-x="1270" d="M 479 1249 L 788 1569 L 979 1569 L 627 1249 L 479 1249 Z M 297 169 C 317 150 345 136 380 127 C 414 117 458 113 510 113 C 581 113 642 120 693 136 C 743 152 785 176 818 209 C 850 241 873 282 888 332 C 903 382 911 441 911 510 L 911 592 L 852 592 C 770 592 698 590 636 587 C 574 583 520 578 475 571 C 429 563 391 552 361 539 C 331 525 307 509 289 490 C 271 470 258 446 251 419 C 243 392 240 361 240 326 C 240 292 244 261 253 235 C 261 209 276 187 297 169 Z M 779 20 C 743 6 701 -3 653 -10 C 605 -16 550 -20 487 -20 C 407 -20 342 -11 291 5 C 239 22 199 46 170 76 C 140 106 119 141 107 182 C 95 223 90 267 90 315 C 90 395 102 462 127 516 C 151 570 193 613 252 645 C 310 677 387 699 484 713 C 580 726 700 733 844 733 L 911 733 C 909 781 905 822 898 858 C 890 893 876 922 855 945 C 833 967 802 984 762 995 C 722 1006 670 1012 606 1012 C 570 1012 535 1009 503 1003 C 470 997 439 990 411 981 C 381 971 355 960 331 948 C 307 936 286 925 268 913 L 186 1034 C 204 1046 228 1060 258 1074 C 288 1088 322 1102 360 1115 C 397 1127 437 1137 481 1145 C 525 1153 570 1157 618 1157 C 713 1157 790 1148 848 1131 C 906 1113 951 1086 983 1050 C 1014 1013 1035 966 1045 908 C 1055 850 1061 780 1061 700 L 1061 274 C 1061 244 1062 220 1064 202 C 1066 184 1071 170 1079 161 C 1086 151 1097 144 1113 141 C 1129 138 1150 137 1178 137 L 1178 2 C 1172 0 1164 -1 1154 -1 C 1144 -1 1131 -2 1116 -2 C 1083 -2 1056 0 1034 6 C 1012 11 995 19 982 31 C 968 42 957 56 950 74 C 942 92 936 113 932 139 C 914 112 893 89 869 69 C 844 49 814 33 779 20 Z" unicode="á" />
<glyph horiz-adv-x="1270" d="M 238 1249 L 549 1569 L 723 1569 L 1034 1249 L 879 1249 L 633 1468 L 391 1249 L 238 1249 Z M 297 169 C 317 150 345 136 380 127 C 414 117 458 113 510 113 C 581 113 642 120 693 136 C 743 152 785 176 818 209 C 850 241 873 282 888 332 C 903 382 911 441 911 510 L 911 592 L 852 592 C 770 592 698 590 636 587 C 574 583 520 578 475 571 C 429 563 391 552 361 539 C 331 525 307 509 289 490 C 271 470 258 446 251 419 C 243 392 240 361 240 326 C 240 292 244 261 253 235 C 261 209 276 187 297 169 Z M 779 20 C 743 6 701 -3 653 -10 C 605 -16 550 -20 487 -20 C 407 -20 342 -11 291 5 C 239 22 199 46 170 76 C 140 106 119 141 107 182 C 95 223 90 267 90 315 C 90 395 102 462 127 516 C 151 570 193 613 252 645 C 310 677 387 699 484 713 C 580 726 700 733 844 733 L 911 733 C 909 781 905 822 898 858 C 890 893 876 922 855 945 C 833 967 802 984 762 995 C 722 1006 670 1012 606 1012 C 570 1012 535 1009 503 1003 C 470 997 439 990 411 981 C 381 971 355 960 331 948 C 307 936 286 925 268 913 L 186 1034 C 204 1046 228 1060 258 1074 C 288 1088 322 1102 360 1115 C 397 1127 437 1137 481 1145 C 525 1153 570 1157 618 1157 C 713 1157 790 1148 848 1131 C 906 1113 951 1086 983 1050 C 1014 1013 1035 966 1045 908 C 1055 850 1061 780 1061 700 L 1061 274 C 1061 244 1062 220 1064 202 C 1066 184 1071 170 1079 161 C 1086 151 1097 144 1113 141 C 1129 138 1150 137 1178 137 L 1178 2 C 1172 0 1164 -1 1154 -1 C 1144 -1 1131 -2 1116 -2 C 1083 -2 1056 0 1034 6 C 1012 11 995 19 982 31 C 968 42 957 56 950 74 C 942 92 936 113 932 139 C 914 112 893 89 869 69 C 844 49 814 33 779 20 Z" unicode="â" />
<glyph horiz-adv-x="1270" d="M 342 1255 L 244 1331 C 260 1351 278 1371 298 1390 C 318 1408 338 1425 360 1439 C 381 1452 403 1463 426 1471 C 448 1479 471 1483 494 1483 C 528 1483 558 1477 582 1467 C 606 1457 629 1446 650 1434 C 670 1421 690 1409 710 1399 C 730 1389 752 1384 778 1384 C 791 1384 804 1387 818 1393 C 831 1399 845 1407 859 1418 C 872 1428 885 1439 899 1453 C 912 1466 925 1480 938 1495 L 1032 1419 C 1014 1397 996 1377 976 1357 C 956 1337 936 1319 915 1304 C 893 1288 871 1276 849 1267 C 826 1257 803 1253 780 1253 C 749 1253 722 1258 698 1269 C 674 1279 651 1291 630 1304 C 608 1316 586 1327 565 1338 C 543 1348 520 1354 496 1354 C 470 1354 444 1345 417 1327 C 389 1309 364 1285 342 1255 Z M 297 169 C 317 150 345 136 380 127 C 414 117 458 113 510 113 C 581 113 642 120 693 136 C 743 152 785 176 818 209 C 850 241 873 282 888 332 C 903 382 911 441 911 510 L 911 592 L 852 592 C 770 592 698 590 636 587 C 574 583 520 578 475 571 C 429 563 391 552 361 539 C 331 525 307 509 289 490 C 271 470 258 446 251 419 C 243 392 240 361 240 326 C 240 292 244 261 253 235 C 261 209 276 187 297 169 Z M 779 20 C 743 6 701 -3 653 -10 C 605 -16 550 -20 487 -20 C 407 -20 342 -11 291 5 C 239 22 199 46 170 76 C 140 106 119 141 107 182 C 95 223 90 267 90 315 C 90 395 102 462 127 516 C 151 570 193 613 252 645 C 310 677 387 699 484 713 C 580 726 700 733 844 733 L 911 733 C 909 781 905 822 898 858 C 890 893 876 922 855 945 C 833 967 802 984 762 995 C 722 1006 670 1012 606 1012 C 570 1012 535 1009 503 1003 C 470 997 439 990 411 981 C 381 971 355 960 331 948 C 307 936 286 925 268 913 L 186 1034 C 204 1046 228 1060 258 1074 C 288 1088 322 1102 360 1115 C 397 1127 437 1137 481 1145 C 525 1153 570 1157 618 1157 C 713 1157 790 1148 848 1131 C 906 1113 951 1086 983 1050 C 1014 1013 1035 966 1045 908 C 1055 850 1061 780 1061 700 L 1061 274 C 1061 244 1062 220 1064 202 C 1066 184 1071 170 1079 161 C 1086 151 1097 144 1113 141 C 1129 138 1150 137 1178 137 L 1178 2 C 1172 0 1164 -1 1154 -1 C 1144 -1 1131 -2 1116 -2 C 1083 -2 1056 0 1034 6 C 1012 11 995 19 982 31 C 968 42 957 56 950 74 C 942 92 936 113 932 139 C 914 112 893 89 869 69 C 844 49 814 33 779 20 Z" unicode="ã" />
<glyph horiz-adv-x="1270" d="M 782 1253 L 782 1462 L 924 1462 L 924 1253 L 782 1253 Z M 350 1253 L 350 1462 L 494 1462 L 494 1253 L 350 1253 Z M 297 169 C 317 150 345 136 380 127 C 414 117 458 113 510 113 C 581 113 642 120 693 136 C 743 152 785 176 818 209 C 850 241 873 282 888 332 C 903 382 911 441 911 510 L 911 592 L 852 592 C 770 592 698 590 636 587 C 574 583 520 578 475 571 C 429 563 391 552 361 539 C 331 525 307 509 289 490 C 271 470 258 446 251 419 C 243 392 240 361 240 326 C 240 292 244 261 253 235 C 261 209 276 187 297 169 Z M 779 20 C 743 6 701 -3 653 -10 C 605 -16 550 -20 487 -20 C 407 -20 342 -11 291 5 C 239 22 199 46 170 76 C 140 106 119 141 107 182 C 95 223 90 267 90 315 C 90 395 102 462 127 516 C 151 570 193 613 252 645 C 310 677 387 699 484 713 C 580 726 700 733 844 733 L 911 733 C 909 781 905 822 898 858 C 890 893 876 922 855 945 C 833 967 802 984 762 995 C 722 1006 670 1012 606 1012 C 570 1012 535 1009 503 1003 C 470 997 439 990 411 981 C 381 971 355 960 331 948 C 307 936 286 925 268 913 L 186 1034 C 204 1046 228 1060 258 1074 C 288 1088 322 1102 360 1115 C 397 1127 437 1137 481 1145 C 525 1153 570 1157 618 1157 C 713 1157 790 1148 848 1131 C 906 1113 951 1086 983 1050 C 1014 1013 1035 966 1045 908 C 1055 850 1061 780 1061 700 L 1061 274 C 1061 244 1062 220 1064 202 C 1066 184 1071 170 1079 161 C 1086 151 1097 144 1113 141 C 1129 138 1150 137 1178 137 L 1178 2 C 1172 0 1164 -1 1154 -1 C 1144 -1 1131 -2 1116 -2 C 1083 -2 1056 0 1034 6 C 1012 11 995 19 982 31 C 968 42 957 56 950 74 C 942 92 936 113 932 139 C 914 112 893 89 869 69 C 844 49 814 33 779 20 Z" unicode="ä" />
<glyph horiz-adv-x="1270" d="M 821 1299 C 800 1276 774 1258 744 1246 C 713 1233 677 1227 637 1227 C 593 1227 556 1233 525 1246 C 494 1258 469 1276 449 1299 C 429 1321 414 1348 405 1379 C 395 1409 391 1443 391 1479 C 391 1515 395 1548 405 1579 C 414 1609 429 1636 449 1660 C 469 1682 494 1700 525 1713 C 556 1726 593 1733 637 1733 C 677 1733 713 1726 744 1713 C 774 1700 800 1682 821 1660 C 841 1636 856 1609 866 1579 C 876 1548 881 1515 881 1479 C 881 1443 876 1409 866 1379 C 856 1348 841 1321 821 1299 Z M 519 1366 C 531 1351 546 1339 566 1331 C 585 1323 609 1319 637 1319 C 663 1319 686 1323 705 1331 C 724 1339 740 1351 753 1366 C 765 1380 773 1396 779 1416 C 785 1435 788 1456 788 1479 C 788 1501 785 1522 779 1542 C 773 1561 765 1578 753 1593 C 740 1607 724 1618 705 1626 C 686 1634 663 1638 637 1638 C 609 1638 585 1634 566 1626 C 546 1618 531 1607 519 1593 C 506 1578 497 1561 491 1542 C 485 1522 483 1501 483 1479 C 483 1456 485 1435 491 1416 C 497 1396 506 1380 519 1366 Z M 297 169 C 317 150 345 136 380 127 C 414 117 458 113 510 113 C 581 113 642 120 693 136 C 743 152 785 176 818 209 C 850 241 873 282 888 332 C 903 382 911 441 911 510 L 911 592 L 852 592 C 770 592 698 590 636 587 C 574 583 520 578 475 571 C 429 563 391 552 361 539 C 331 525 307 509 289 490 C 271 470 258 446 251 419 C 243 392 240 361 240 326 C 240 292 244 261 253 235 C 261 209 276 187 297 169 Z M 779 20 C 743 6 701 -3 653 -10 C 605 -16 550 -20 487 -20 C 407 -20 342 -11 291 5 C 239 22 199 46 170 76 C 140 106 119 141 107 182 C 95 223 90 267 90 315 C 90 395 102 462 127 516 C 151 570 193 613 252 645 C 310 677 387 699 484 713 C 580 726 700 733 844 733 L 911 733 C 909 781 905 822 898 858 C 890 893 876 922 855 945 C 833 967 802 984 762 995 C 722 1006 670 1012 606 1012 C 570 1012 535 1009 503 1003 C 470 997 439 990 411 981 C 381 971 355 960 331 948 C 307 936 286 925 268 913 L 186 1034 C 204 1046 228 1060 258 1074 C 288 1088 322 1102 360 1115 C 397 1127 437 1137 481 1145 C 525 1153 570 1157 618 1157 C 713 1157 790 1148 848 1131 C 906 1113 951 1086 983 1050 C 1014 1013 1035 966 1045 908 C 1055 850 1061 780 1061 700 L 1061 274 C 1061 244 1062 220 1064 202 C 1066 184 1071 170 1079 161 C 1086 151 1097 144 1113 141 C 1129 138 1150 137 1178 137 L 1178 2 C 1172 0 1164 -1 1154 -1 C 1144 -1 1131 -2 1116 -2 C 1083 -2 1056 0 1034 6 C 1012 11 995 19 982 31 C 968 42 957 56 950 74 C 942 92 936 113 932 139 C 914 112 893 89 869 69 C 844 49 814 33 779 20 Z" unicode="å" />
<glyph horiz-adv-x="2017" d="M 1708 16 C 1672 3 1632 -6 1590 -13 C 1548 -19 1500 -23 1448 -23 C 1380 -23 1321 -17 1271 -7 C 1220 3 1176 19 1139 39 C 1101 58 1069 82 1043 110 C 1017 138 995 169 979 203 C 956 158 929 121 898 93 C 867 64 832 41 792 25 C 751 8 705 -3 655 -10 C 605 -16 549 -20 489 -20 C 422 -20 364 -13 314 -1 C 264 11 223 31 190 59 C 156 85 131 120 115 162 C 98 204 90 255 90 315 C 90 395 102 462 127 516 C 151 570 193 613 252 645 C 310 677 387 699 484 713 C 580 726 700 733 844 733 L 911 733 C 909 781 905 822 898 858 C 890 893 876 922 855 945 C 833 967 802 984 762 995 C 722 1006 670 1012 606 1012 C 570 1012 535 1009 502 1003 C 468 997 437 990 408 981 C 378 971 351 961 327 949 C 303 937 282 926 264 915 L 186 1034 C 204 1046 228 1060 258 1074 C 288 1088 322 1102 360 1115 C 397 1127 437 1137 481 1145 C 525 1153 570 1157 618 1157 C 677 1157 729 1153 773 1146 C 817 1138 854 1127 886 1113 C 916 1097 941 1078 961 1056 C 981 1033 996 1007 1008 977 C 1026 1004 1048 1029 1074 1051 C 1100 1073 1130 1093 1166 1109 C 1201 1124 1241 1136 1286 1144 C 1331 1152 1382 1157 1440 1157 C 1517 1157 1582 1148 1636 1132 C 1689 1116 1733 1093 1769 1064 C 1803 1034 1830 999 1849 959 C 1868 919 1882 875 1891 828 C 1899 780 1903 729 1904 676 C 1905 622 1905 568 1905 514 L 1053 514 C 1055 454 1061 400 1073 351 C 1085 301 1105 259 1135 224 C 1163 188 1203 161 1253 142 C 1303 122 1368 113 1448 113 C 1494 113 1534 115 1569 121 C 1604 127 1636 135 1664 146 C 1692 156 1717 168 1741 182 C 1764 196 1787 211 1810 227 L 1894 119 C 1865 97 1836 78 1806 60 C 1776 42 1743 28 1708 16 Z M 1650 969 C 1626 984 1597 996 1563 1005 C 1529 1013 1487 1018 1438 1018 C 1366 1018 1307 1009 1260 992 C 1212 974 1174 950 1146 918 C 1116 886 1095 847 1081 803 C 1067 758 1059 709 1055 655 L 1757 655 C 1755 688 1753 720 1751 751 C 1748 782 1743 811 1736 839 C 1728 865 1718 890 1705 912 C 1691 934 1673 953 1650 969 Z M 297 169 C 317 150 345 136 380 127 C 415 117 459 113 512 113 C 582 113 643 120 693 136 C 743 152 785 176 818 209 C 850 241 873 282 888 332 C 903 382 911 441 911 510 L 911 592 L 852 592 C 770 592 698 590 636 587 C 574 583 520 578 475 571 C 429 563 391 552 361 539 C 331 525 307 509 289 490 C 271 470 258 446 251 419 C 243 392 240 361 240 326 C 240 292 244 261 253 235 C 261 209 276 187 297 169 Z" unicode="æ" />
<glyph horiz-adv-x="1153" d="M 804 -406 C 783 -423 755 -436 721 -446 C 687 -456 644 -461 594 -461 C 542 -461 498 -455 460 -444 C 422 -432 387 -418 356 -401 L 403 -315 C 430 -329 459 -341 490 -349 C 521 -357 554 -362 588 -362 C 622 -362 649 -359 671 -353 C 692 -347 709 -339 721 -329 C 732 -319 740 -307 744 -294 C 748 -281 750 -268 750 -254 C 750 -235 747 -219 741 -207 C 735 -194 724 -184 710 -177 C 695 -169 675 -164 650 -162 C 625 -160 594 -160 557 -162 L 512 -129 L 535 -14 C 451 -4 381 15 325 46 C 269 77 225 118 192 168 C 158 218 134 276 120 343 C 106 410 100 485 100 567 C 100 657 108 738 125 811 C 141 883 171 945 213 997 C 254 1048 310 1087 380 1115 C 450 1143 538 1157 645 1157 C 695 1157 741 1152 783 1144 C 824 1135 861 1123 895 1109 C 927 1094 957 1077 983 1057 C 1009 1037 1032 1017 1053 995 L 940 889 C 926 903 910 917 892 931 C 874 945 853 957 829 969 C 805 980 777 989 747 997 C 717 1004 683 1008 645 1008 C 571 1008 509 998 459 978 C 409 958 369 930 339 892 C 309 854 287 807 275 752 C 262 696 256 633 256 563 C 256 493 262 431 274 376 C 286 321 308 275 338 237 C 367 199 407 169 457 149 C 507 129 569 119 645 119 C 677 119 706 121 734 126 C 762 131 788 139 813 149 C 837 159 860 171 882 186 C 904 201 926 218 948 238 L 1053 139 C 1025 113 996 91 967 71 C 938 51 907 34 875 21 C 842 7 806 -2 768 -9 C 730 -16 687 -20 641 -20 L 635 -20 L 623 -92 C 653 -90 683 -90 712 -92 C 740 -94 766 -102 789 -114 C 811 -126 828 -143 842 -167 C 855 -191 862 -223 862 -264 C 862 -292 857 -319 848 -343 C 839 -367 824 -388 804 -406 Z" unicode="ç" />
<glyph horiz-adv-x="1214" d="M 614 1249 L 262 1569 L 453 1569 L 762 1249 L 614 1249 Z M 903 16 C 867 3 827 -6 785 -13 C 742 -19 695 -23 643 -23 C 567 -23 500 -16 444 -2 C 388 12 340 31 300 57 C 260 82 227 112 201 148 C 175 184 154 224 140 268 C 124 311 114 358 108 409 C 102 459 100 512 100 567 C 100 649 107 725 122 797 C 137 869 165 931 205 985 C 244 1038 298 1080 368 1111 C 438 1141 527 1157 637 1157 C 713 1157 777 1148 830 1132 C 882 1116 926 1093 961 1064 C 995 1034 1022 999 1042 959 C 1061 919 1075 875 1085 828 C 1093 780 1098 729 1100 676 C 1102 622 1102 568 1102 514 L 250 514 C 252 454 258 400 270 351 C 282 301 302 259 332 224 C 360 188 400 161 450 142 C 500 122 564 113 643 113 C 689 113 730 115 766 121 C 801 127 833 135 862 146 C 890 156 915 168 939 182 C 962 196 985 211 1008 227 L 1092 119 C 1064 97 1034 78 1003 60 C 972 42 939 28 903 16 Z M 846 969 C 822 984 793 996 759 1005 C 724 1013 682 1018 633 1018 C 561 1018 502 1009 455 992 C 408 974 370 950 342 918 C 312 886 291 847 278 803 C 264 758 256 709 252 655 L 954 655 C 952 688 949 720 947 751 C 944 782 939 811 932 839 C 924 865 914 890 901 912 C 887 934 869 953 846 969 Z" unicode="è" />
<glyph horiz-adv-x="1214" d="M 446 1249 L 756 1569 L 946 1569 L 594 1249 L 446 1249 Z M 903 16 C 867 3 827 -6 785 -13 C 742 -19 695 -23 643 -23 C 567 -23 500 -16 444 -2 C 388 12 340 31 300 57 C 260 82 227 112 201 148 C 175 184 154 224 140 268 C 124 311 114 358 108 409 C 102 459 100 512 100 567 C 100 649 107 725 122 797 C 137 869 165 931 205 985 C 244 1038 298 1080 368 1111 C 438 1141 527 1157 637 1157 C 713 1157 777 1148 830 1132 C 882 1116 926 1093 961 1064 C 995 1034 1022 999 1042 959 C 1061 919 1075 875 1085 828 C 1093 780 1098 729 1100 676 C 1102 622 1102 568 1102 514 L 250 514 C 252 454 258 400 270 351 C 282 301 302 259 332 224 C 360 188 400 161 450 142 C 500 122 564 113 643 113 C 689 113 730 115 766 121 C 801 127 833 135 862 146 C 890 156 915 168 939 182 C 962 196 985 211 1008 227 L 1092 119 C 1064 97 1034 78 1003 60 C 972 42 939 28 903 16 Z M 846 969 C 822 984 793 996 759 1005 C 724 1013 682 1018 633 1018 C 561 1018 502 1009 455 992 C 408 974 370 950 342 918 C 312 886 291 847 278 803 C 264 758 256 709 252 655 L 954 655 C 952 688 949 720 947 751 C 944 782 939 811 932 839 C 924 865 914 890 901 912 C 887 934 869 953 846 969 Z" unicode="é" />
<glyph horiz-adv-x="1214" d="M 205 1249 L 516 1569 L 690 1569 L 1001 1249 L 846 1249 L 600 1468 L 358 1249 L 205 1249 Z M 903 16 C 867 3 827 -6 785 -13 C 742 -19 695 -23 643 -23 C 567 -23 500 -16 444 -2 C 388 12 340 31 300 57 C 260 82 227 112 201 148 C 175 184 154 224 140 268 C 124 311 114 358 108 409 C 102 459 100 512 100 567 C 100 649 107 725 122 797 C 137 869 165 931 205 985 C 244 1038 298 1080 368 1111 C 438 1141 527 1157 637 1157 C 713 1157 777 1148 830 1132 C 882 1116 926 1093 961 1064 C 995 1034 1022 999 1042 959 C 1061 919 1075 875 1085 828 C 1093 780 1098 729 1100 676 C 1102 622 1102 568 1102 514 L 250 514 C 252 454 258 400 270 351 C 282 301 302 259 332 224 C 360 188 400 161 450 142 C 500 122 564 113 643 113 C 689 113 730 115 766 121 C 801 127 833 135 862 146 C 890 156 915 168 939 182 C 962 196 985 211 1008 227 L 1092 119 C 1064 97 1034 78 1003 60 C 972 42 939 28 903 16 Z M 846 969 C 822 984 793 996 759 1005 C 724 1013 682 1018 633 1018 C 561 1018 502 1009 455 992 C 408 974 370 950 342 918 C 312 886 291 847 278 803 C 264 758 256 709 252 655 L 954 655 C 952 688 949 720 947 751 C 944 782 939 811 932 839 C 924 865 914 890 901 912 C 887 934 869 953 846 969 Z" unicode="ê" />
<glyph horiz-adv-x="1214" d="M 750 1253 L 750 1462 L 891 1462 L 891 1253 L 750 1253 Z M 317 1253 L 317 1462 L 461 1462 L 461 1253 L 317 1253 Z M 903 16 C 867 3 827 -6 785 -13 C 742 -19 695 -23 643 -23 C 567 -23 500 -16 444 -2 C 388 12 340 31 300 57 C 260 82 227 112 201 148 C 175 184 154 224 140 268 C 124 311 114 358 108 409 C 102 459 100 512 100 567 C 100 649 107 725 122 797 C 137 869 165 931 205 985 C 244 1038 298 1080 368 1111 C 438 1141 527 1157 637 1157 C 713 1157 777 1148 830 1132 C 882 1116 926 1093 961 1064 C 995 1034 1022 999 1042 959 C 1061 919 1075 875 1085 828 C 1093 780 1098 729 1100 676 C 1102 622 1102 568 1102 514 L 250 514 C 252 454 258 400 270 351 C 282 301 302 259 332 224 C 360 188 400 161 450 142 C 500 122 564 113 643 113 C 689 113 730 115 766 121 C 801 127 833 135 862 146 C 890 156 915 168 939 182 C 962 196 985 211 1008 227 L 1092 119 C 1064 97 1034 78 1003 60 C 972 42 939 28 903 16 Z M 846 969 C 822 984 793 996 759 1005 C 724 1013 682 1018 633 1018 C 561 1018 502 1009 455 992 C 408 974 370 950 342 918 C 312 886 291 847 278 803 C 264 758 256 709 252 655 L 954 655 C 952 688 949 720 947 751 C 944 782 939 811 932 839 C 924 865 914 890 901 912 C 887 934 869 953 846 969 Z" unicode="ë" />
<glyph horiz-adv-x="487" d="M 174 1249 L -102 1567 L 86 1567 L 319 1249 L 174 1249 Z M 166 0 L 166 1130 L 319 1130 L 319 0 L 166 0 Z" unicode="ì" />
<glyph horiz-adv-x="487" d="M 170 1249 L 401 1567 L 592 1567 L 315 1249 L 170 1249 Z M 166 0 L 166 1130 L 319 1130 L 319 0 L 166 0 Z" unicode="í" />
<glyph horiz-adv-x="487" d="M -80 1249 L 162 1567 L 324 1567 L 565 1249 L 414 1249 L 242 1470 L 66 1249 L -80 1249 Z M 166 0 L 166 1130 L 319 1130 L 319 0 L 166 0 Z" unicode="î" />
<glyph horiz-adv-x="487" d="M 371 1278 L 371 1485 L 502 1485 L 502 1278 L 371 1278 Z M -14 1278 L -14 1485 L 117 1485 L 117 1278 L -14 1278 Z M 166 0 L 166 1130 L 319 1130 L 319 0 L 166 0 Z" unicode="ï" />
<glyph horiz-adv-x="1292" d="M 616 1225 L 616 1339 L 782 1386 C 758 1413 733 1439 705 1465 C 677 1491 648 1516 616 1542 L 754 1608 C 788 1580 820 1553 852 1525 C 883 1497 913 1466 942 1432 L 1225 1509 L 1225 1395 L 1014 1335 C 1040 1293 1065 1246 1087 1196 C 1109 1146 1128 1090 1144 1030 C 1159 968 1171 901 1179 828 C 1187 754 1192 674 1192 586 C 1192 480 1181 389 1160 313 C 1138 237 1105 174 1061 124 C 1015 74 958 37 889 13 C 820 -11 738 -23 643 -23 C 545 -23 461 -10 393 15 C 324 40 268 77 225 127 C 181 175 150 235 130 306 C 110 377 100 459 100 551 C 100 639 108 719 126 790 C 144 860 173 920 213 970 C 253 1019 305 1057 370 1083 C 434 1109 514 1122 608 1122 C 661 1122 708 1119 749 1113 C 790 1107 826 1099 858 1088 C 888 1076 915 1062 938 1046 C 961 1029 981 1010 999 989 C 986 1043 968 1095 945 1145 C 921 1195 892 1244 858 1292 L 616 1225 Z M 344 229 C 374 192 414 164 464 146 C 513 128 573 119 643 119 C 714 119 774 128 824 146 C 874 164 914 192 946 229 C 976 265 999 311 1013 365 C 1027 419 1034 481 1034 553 C 1034 625 1027 688 1013 742 C 999 796 976 841 946 878 C 914 914 874 941 824 959 C 774 977 714 987 643 987 C 573 987 513 977 464 959 C 414 941 374 914 344 878 C 313 841 291 796 277 742 C 263 688 256 625 256 553 C 256 481 263 419 277 365 C 291 311 313 265 344 229 Z" unicode="ð" />
<glyph horiz-adv-x="1270" d="M 338 1255 L 240 1331 C 256 1351 274 1371 294 1390 C 314 1408 334 1425 356 1439 C 377 1452 399 1463 421 1471 C 443 1479 466 1483 489 1483 C 523 1483 553 1477 578 1467 C 602 1457 625 1446 646 1434 C 666 1421 686 1409 706 1399 C 726 1389 748 1384 774 1384 C 787 1384 800 1387 814 1393 C 827 1399 841 1407 855 1418 C 868 1428 881 1439 895 1453 C 908 1466 921 1480 934 1495 L 1028 1419 C 1010 1397 992 1377 972 1357 C 952 1337 932 1319 911 1304 C 889 1288 867 1276 845 1267 C 822 1257 799 1253 776 1253 C 745 1253 718 1258 694 1269 C 670 1279 647 1291 626 1304 C 604 1316 582 1327 561 1338 C 539 1348 516 1354 492 1354 C 466 1354 440 1345 413 1327 C 385 1309 360 1285 338 1255 Z M 156 0 L 156 1122 L 279 1130 L 293 1012 C 305 1031 321 1049 342 1067 C 363 1085 390 1100 424 1114 C 456 1127 496 1137 544 1145 C 591 1153 647 1157 713 1157 C 803 1157 876 1145 930 1123 C 984 1101 1025 1069 1053 1029 C 1081 987 1099 938 1107 881 C 1115 823 1120 760 1120 690 L 1120 0 L 965 0 L 965 664 C 965 714 962 759 957 801 C 952 843 940 879 921 909 C 901 939 871 962 831 979 C 791 995 737 1004 668 1004 C 592 1004 531 994 485 976 C 438 958 402 932 377 900 C 351 866 333 827 324 782 C 315 737 311 688 311 635 L 311 0 L 156 0 Z" unicode="ñ" />
<glyph horiz-adv-x="1292" d="M 653 1249 L 301 1569 L 492 1569 L 801 1249 L 653 1249 Z M 1065 126 C 1021 76 964 39 895 14 C 826 -10 743 -23 645 -23 C 547 -23 463 -10 394 14 C 325 39 269 76 226 126 C 182 175 150 236 130 310 C 110 384 100 469 100 567 C 100 664 110 749 130 823 C 150 897 182 958 226 1008 C 269 1057 325 1094 394 1119 C 463 1144 547 1157 645 1157 C 743 1157 826 1144 895 1119 C 964 1094 1021 1057 1065 1008 C 1109 958 1141 897 1161 823 C 1181 749 1192 664 1192 567 C 1192 469 1181 384 1161 310 C 1141 236 1109 175 1065 126 Z M 344 233 C 374 195 414 166 464 147 C 513 128 573 119 645 119 C 716 119 776 128 826 147 C 875 166 915 195 947 233 C 977 270 999 316 1013 372 C 1027 427 1034 491 1034 563 C 1034 635 1027 699 1013 755 C 999 811 977 858 947 896 C 915 933 875 961 826 981 C 776 1000 716 1010 645 1010 C 573 1010 513 1000 464 981 C 414 961 374 933 344 896 C 312 858 290 811 276 755 C 262 699 256 635 256 563 C 256 491 262 427 276 372 C 290 316 312 270 344 233 Z" unicode="ò" />
<glyph horiz-adv-x="1292" d="M 485 1249 L 795 1569 L 985 1569 L 633 1249 L 485 1249 Z M 1065 126 C 1021 76 964 39 895 14 C 826 -10 743 -23 645 -23 C 547 -23 463 -10 394 14 C 325 39 269 76 226 126 C 182 175 150 236 130 310 C 110 384 100 469 100 567 C 100 664 110 749 130 823 C 150 897 182 958 226 1008 C 269 1057 325 1094 394 1119 C 463 1144 547 1157 645 1157 C 743 1157 826 1144 895 1119 C 964 1094 1021 1057 1065 1008 C 1109 958 1141 897 1161 823 C 1181 749 1192 664 1192 567 C 1192 469 1181 384 1161 310 C 1141 236 1109 175 1065 126 Z M 344 233 C 374 195 414 166 464 147 C 513 128 573 119 645 119 C 716 119 776 128 826 147 C 875 166 915 195 947 233 C 977 270 999 316 1013 372 C 1027 427 1034 491 1034 563 C 1034 635 1027 699 1013 755 C 999 811 977 858 947 896 C 915 933 875 961 826 981 C 776 1000 716 1010 645 1010 C 573 1010 513 1000 464 981 C 414 961 374 933 344 896 C 312 858 290 811 276 755 C 262 699 256 635 256 563 C 256 491 262 427 276 372 C 290 316 312 270 344 233 Z" unicode="ó" />
<glyph horiz-adv-x="1292" d="M 244 1249 L 555 1569 L 729 1569 L 1040 1249 L 885 1249 L 639 1468 L 397 1249 L 244 1249 Z M 1065 126 C 1021 76 964 39 895 14 C 826 -10 743 -23 645 -23 C 547 -23 463 -10 394 14 C 325 39 269 76 226 126 C 182 175 150 236 130 310 C 110 384 100 469 100 567 C 100 664 110 749 130 823 C 150 897 182 958 226 1008 C 269 1057 325 1094 394 1119 C 463 1144 547 1157 645 1157 C 743 1157 826 1144 895 1119 C 964 1094 1021 1057 1065 1008 C 1109 958 1141 897 1161 823 C 1181 749 1192 664 1192 567 C 1192 469 1181 384 1161 310 C 1141 236 1109 175 1065 126 Z M 344 233 C 374 195 414 166 464 147 C 513 128 573 119 645 119 C 716 119 776 128 826 147 C 875 166 915 195 947 233 C 977 270 999 316 1013 372 C 1027 427 1034 491 1034 563 C 1034 635 1027 699 1013 755 C 999 811 977 858 947 896 C 915 933 875 961 826 981 C 776 1000 716 1010 645 1010 C 573 1010 513 1000 464 981 C 414 961 374 933 344 896 C 312 858 290 811 276 755 C 262 699 256 635 256 563 C 256 491 262 427 276 372 C 290 316 312 270 344 233 Z" unicode="ô" />
<glyph horiz-adv-x="1292" d="M 348 1255 L 250 1331 C 266 1351 284 1371 304 1390 C 324 1408 345 1425 367 1439 C 388 1452 410 1463 432 1471 C 454 1479 477 1483 500 1483 C 534 1483 564 1477 588 1467 C 612 1457 635 1446 656 1434 C 676 1421 696 1409 716 1399 C 736 1389 758 1384 784 1384 C 797 1384 810 1387 824 1393 C 838 1399 851 1407 865 1418 C 878 1428 891 1439 905 1453 C 918 1466 931 1480 944 1495 L 1038 1419 C 1020 1397 1002 1377 983 1357 C 963 1337 943 1319 922 1304 C 900 1288 878 1276 856 1267 C 833 1257 810 1253 786 1253 C 755 1253 728 1258 704 1269 C 680 1279 657 1291 636 1304 C 614 1316 592 1327 571 1338 C 549 1348 526 1354 502 1354 C 477 1354 451 1345 423 1327 C 395 1309 370 1285 348 1255 Z M 1065 126 C 1021 76 964 39 895 14 C 826 -10 743 -23 645 -23 C 547 -23 463 -10 394 14 C 325 39 269 76 226 126 C 182 175 150 236 130 310 C 110 384 100 469 100 567 C 100 664 110 749 130 823 C 150 897 182 958 226 1008 C 269 1057 325 1094 394 1119 C 463 1144 547 1157 645 1157 C 743 1157 826 1144 895 1119 C 964 1094 1021 1057 1065 1008 C 1109 958 1141 897 1161 823 C 1181 749 1192 664 1192 567 C 1192 469 1181 384 1161 310 C 1141 236 1109 175 1065 126 Z M 344 233 C 374 195 414 166 464 147 C 513 128 573 119 645 119 C 716 119 776 128 826 147 C 875 166 915 195 947 233 C 977 270 999 316 1013 372 C 1027 427 1034 491 1034 563 C 1034 635 1027 699 1013 755 C 999 811 977 858 947 896 C 915 933 875 961 826 981 C 776 1000 716 1010 645 1010 C 573 1010 513 1000 464 981 C 414 961 374 933 344 896 C 312 858 290 811 276 755 C 262 699 256 635 256 563 C 256 491 262 427 276 372 C 290 316 312 270 344 233 Z" unicode="õ" />
<glyph horiz-adv-x="1292" d="M 788 1253 L 788 1462 L 930 1462 L 930 1253 L 788 1253 Z M 356 1253 L 356 1462 L 500 1462 L 500 1253 L 356 1253 Z M 1065 126 C 1021 76 964 39 895 14 C 826 -10 743 -23 645 -23 C 547 -23 463 -10 394 14 C 325 39 269 76 226 126 C 182 175 150 236 130 310 C 110 384 100 469 100 567 C 100 664 110 749 130 823 C 150 897 182 958 226 1008 C 269 1057 325 1094 394 1119 C 463 1144 547 1157 645 1157 C 743 1157 826 1144 895 1119 C 964 1094 1021 1057 1065 1008 C 1109 958 1141 897 1161 823 C 1181 749 1192 664 1192 567 C 1192 469 1181 384 1161 310 C 1141 236 1109 175 1065 126 Z M 344 233 C 374 195 414 166 464 147 C 513 128 573 119 645 119 C 716 119 776 128 826 147 C 875 166 915 195 947 233 C 977 270 999 316 1013 372 C 1027 427 1034 491 1034 563 C 1034 635 1027 699 1013 755 C 999 811 977 858 947 896 C 915 933 875 961 826 981 C 776 1000 716 1010 645 1010 C 573 1010 513 1000 464 981 C 414 961 374 933 344 896 C 312 858 290 811 276 755 C 262 699 256 635 256 563 C 256 491 262 427 276 372 C 290 316 312 270 344 233 Z" unicode="ö" />
<glyph horiz-adv-x="1425" d="M 618 1034 L 618 1225 L 807 1225 L 807 1034 L 618 1034 Z M 217 649 L 217 797 L 1206 797 L 1206 649 L 217 649 Z M 618 221 L 618 412 L 807 412 L 807 221 L 618 221 Z" unicode="÷" />
<glyph horiz-adv-x="1292" d="M 341 898 C 310 860 288 813 274 757 C 260 701 254 636 254 563 C 254 479 262 407 280 347 C 298 286 327 237 369 201 L 821 985 C 796 993 769 999 741 1004 C 712 1009 680 1012 645 1012 C 573 1012 512 1002 462 983 C 412 963 371 935 341 898 Z M 465 143 C 489 133 516 126 546 122 C 576 117 609 115 645 115 C 717 115 777 124 827 144 C 877 163 917 192 949 230 C 980 268 1003 314 1017 370 C 1031 426 1038 490 1038 563 C 1038 647 1028 720 1010 780 C 992 840 962 890 920 928 L 465 143 Z M 1067 126 C 1023 76 966 39 897 14 C 827 -10 743 -23 645 -23 C 595 -23 550 -20 509 -14 C 468 -8 431 0 397 12 L 338 -86 L 193 -86 L 285 70 C 219 118 171 183 143 266 C 114 348 100 449 100 567 C 100 664 109 749 129 823 C 149 897 180 958 224 1008 C 267 1057 323 1094 392 1119 C 461 1144 545 1157 645 1157 C 694 1157 739 1153 780 1147 C 821 1140 859 1130 895 1118 L 954 1219 L 1098 1219 L 1008 1063 C 1072 1015 1119 949 1148 867 C 1177 785 1192 685 1192 567 C 1192 469 1182 384 1162 310 C 1142 236 1110 175 1067 126 Z" unicode="ø" />
<glyph horiz-adv-x="1257" d="M 637 1249 L 285 1569 L 475 1569 L 784 1249 L 637 1249 Z M 950 39 C 914 19 871 5 819 -5 C 767 -15 705 -20 633 -20 C 559 -20 497 -15 445 -5 C 393 5 349 19 313 39 C 277 58 248 82 227 110 C 205 138 189 170 178 206 C 166 241 159 280 155 324 C 151 368 150 415 150 465 L 150 1130 L 303 1130 L 303 461 C 303 429 303 399 304 371 C 305 342 309 315 315 290 C 321 264 330 241 344 221 C 357 200 376 182 401 168 C 425 152 455 141 493 133 C 531 125 577 121 633 121 C 687 121 733 125 771 133 C 808 141 839 152 863 168 C 886 182 904 200 917 221 C 930 242 940 266 946 292 C 951 318 954 345 955 375 C 955 405 956 436 956 469 L 956 1130 L 1108 1130 L 1108 471 C 1108 419 1106 372 1103 328 C 1099 284 1092 244 1082 208 C 1070 171 1054 138 1034 110 C 1013 82 985 58 950 39 Z" unicode="ù" />
<glyph horiz-adv-x="1257" d="M 469 1249 L 778 1569 L 969 1569 L 616 1249 L 469 1249 Z M 950 39 C 914 19 871 5 819 -5 C 767 -15 705 -20 633 -20 C 559 -20 497 -15 445 -5 C 393 5 349 19 313 39 C 277 58 248 82 227 110 C 205 138 189 170 178 206 C 166 241 159 280 155 324 C 151 368 150 415 150 465 L 150 1130 L 303 1130 L 303 461 C 303 429 303 399 304 371 C 305 342 309 315 315 290 C 321 264 330 241 344 221 C 357 200 376 182 401 168 C 425 152 455 141 493 133 C 531 125 577 121 633 121 C 687 121 733 125 771 133 C 808 141 839 152 863 168 C 886 182 904 200 917 221 C 930 242 940 266 946 292 C 951 318 954 345 955 375 C 955 405 956 436 956 469 L 956 1130 L 1108 1130 L 1108 471 C 1108 419 1106 372 1103 328 C 1099 284 1092 244 1082 208 C 1070 171 1054 138 1034 110 C 1013 82 985 58 950 39 Z" unicode="ú" />
<glyph horiz-adv-x="1257" d="M 227 1249 L 539 1569 L 713 1569 L 1024 1249 L 868 1249 L 623 1468 L 381 1249 L 227 1249 Z M 950 39 C 914 19 871 5 819 -5 C 767 -15 705 -20 633 -20 C 559 -20 497 -15 445 -5 C 393 5 349 19 313 39 C 277 58 248 82 227 110 C 205 138 189 170 178 206 C 166 241 159 280 155 324 C 151 368 150 415 150 465 L 150 1130 L 303 1130 L 303 461 C 303 429 303 399 304 371 C 305 342 309 315 315 290 C 321 264 330 241 344 221 C 357 200 376 182 401 168 C 425 152 455 141 493 133 C 531 125 577 121 633 121 C 687 121 733 125 771 133 C 808 141 839 152 863 168 C 886 182 904 200 917 221 C 930 242 940 266 946 292 C 951 318 954 345 955 375 C 955 405 956 436 956 469 L 956 1130 L 1108 1130 L 1108 471 C 1108 419 1106 372 1103 328 C 1099 284 1092 244 1082 208 C 1070 171 1054 138 1034 110 C 1013 82 985 58 950 39 Z" unicode="û" />
<glyph horiz-adv-x="1257" d="M 772 1253 L 772 1462 L 913 1462 L 913 1253 L 772 1253 Z M 340 1253 L 340 1462 L 483 1462 L 483 1253 L 340 1253 Z M 950 39 C 914 19 871 5 819 -5 C 767 -15 705 -20 633 -20 C 559 -20 497 -15 445 -5 C 393 5 349 19 313 39 C 277 58 248 82 227 110 C 205 138 189 170 178 206 C 166 241 159 280 155 324 C 151 368 150 415 150 465 L 150 1130 L 303 1130 L 303 461 C 303 429 303 399 304 371 C 305 342 309 315 315 290 C 321 264 330 241 344 221 C 357 200 376 182 401 168 C 425 152 455 141 493 133 C 531 125 577 121 633 121 C 687 121 733 125 771 133 C 808 141 839 152 863 168 C 886 182 904 200 917 221 C 930 242 940 266 946 292 C 951 318 954 345 955 375 C 955 405 956 436 956 469 L 956 1130 L 1108 1130 L 1108 471 C 1108 419 1106 372 1103 328 C 1099 284 1092 244 1082 208 C 1070 171 1054 138 1034 110 C 1013 82 985 58 950 39 Z" unicode="ü" />
<glyph horiz-adv-x="1085" d="M 387 1249 L 696 1569 L 887 1569 L 535 1249 L 387 1249 Z M 460 -288 C 434 -306 405 -320 373 -329 C 340 -337 302 -342 258 -342 L 210 -342 C 200 -342 190 -341 181 -341 C 171 -341 164 -340 160 -340 L 160 -213 L 248 -213 C 274 -213 296 -211 315 -207 C 333 -203 350 -196 364 -188 C 377 -178 388 -166 398 -151 C 407 -136 416 -118 424 -96 L 465 8 L 23 1130 L 186 1130 L 547 190 L 903 1130 L 1063 1130 L 575 -113 C 559 -153 542 -187 524 -216 C 506 -245 484 -269 460 -288 Z" unicode="ý" />
<glyph horiz-adv-x="1325" d="M 403 218 C 435 184 476 159 527 145 C 577 130 639 123 711 123 C 780 123 838 133 884 153 C 930 173 966 202 994 240 C 1020 277 1039 323 1050 377 C 1061 431 1067 493 1067 563 C 1067 632 1061 694 1051 750 C 1040 805 1021 852 995 891 C 967 929 931 958 885 979 C 839 999 781 1010 711 1010 C 639 1010 578 1002 528 987 C 477 972 436 947 404 913 C 372 877 348 831 333 774 C 318 717 311 647 311 563 C 311 479 318 409 333 353 C 347 297 371 252 403 218 Z M 156 -338 L 156 1589 L 311 1589 L 311 1004 C 341 1056 391 1095 459 1120 C 527 1144 621 1157 741 1157 C 835 1157 913 1143 975 1115 C 1037 1087 1087 1047 1125 996 C 1161 944 1187 882 1202 810 C 1217 737 1225 656 1225 567 C 1225 479 1217 399 1202 327 C 1186 255 1160 193 1123 142 C 1085 90 1035 50 972 22 C 909 -6 830 -20 735 -20 C 673 -20 619 -17 573 -11 C 527 -5 487 4 453 17 C 419 29 390 44 367 64 C 344 83 325 106 311 133 L 311 -338 L 156 -338 Z" unicode="þ" />
<glyph horiz-adv-x="1085" d="M 690 1253 L 690 1462 L 831 1462 L 831 1253 L 690 1253 Z M 258 1253 L 258 1462 L 401 1462 L 401 1253 L 258 1253 Z M 460 -288 C 434 -306 405 -320 373 -329 C 340 -337 302 -342 258 -342 L 210 -342 C 200 -342 190 -341 181 -341 C 171 -341 164 -340 160 -340 L 160 -213 L 248 -213 C 274 -213 296 -211 315 -207 C 333 -203 350 -196 364 -188 C 377 -178 388 -166 398 -151 C 407 -136 416 -118 424 -96 L 465 8 L 23 1130 L 186 1130 L 547 190 L 903 1130 L 1063 1130 L 575 -113 C 559 -153 542 -187 524 -216 C 506 -245 484 -269 460 -288 Z" unicode="ÿ" />
<glyph horiz-adv-x="1487" d="" unicode="Ā" />
<glyph horiz-adv-x="1270" d="" unicode="ā" />
<glyph horiz-adv-x="1487" d="M 1019 1678 C 989 1650 952 1627 907 1611 C 862 1595 806 1587 739 1587 C 671 1587 615 1595 570 1611 C 524 1627 487 1649 459 1677 C 429 1704 407 1736 391 1773 C 375 1809 364 1848 356 1890 L 475 1915 C 481 1887 489 1861 500 1837 C 511 1813 527 1792 547 1774 C 566 1756 591 1741 622 1731 C 653 1721 692 1716 739 1716 C 785 1716 823 1721 854 1731 C 885 1741 911 1756 931 1774 C 951 1792 966 1813 977 1837 C 988 1861 997 1887 1004 1915 L 1124 1892 C 1114 1850 1102 1811 1086 1774 C 1070 1737 1047 1705 1019 1678 Z M 403 498 L 1069 498 L 737 1333 L 403 498 Z M 51 0 L 659 1528 L 821 1528 L 1430 0 L 1266 0 L 1126 350 L 348 350 L 211 0 L 51 0 Z" unicode="Ă" />
<glyph horiz-adv-x="1270" d="M 917 1320 C 887 1292 850 1269 805 1253 C 759 1237 703 1229 637 1229 C 569 1229 513 1237 468 1253 C 422 1269 385 1291 357 1319 C 327 1346 305 1378 289 1415 C 273 1451 262 1490 254 1532 L 373 1556 C 379 1528 387 1503 398 1479 C 408 1455 424 1434 444 1416 C 464 1398 489 1383 520 1373 C 551 1363 590 1358 637 1358 C 683 1358 721 1363 752 1373 C 782 1383 808 1398 828 1416 C 848 1434 863 1455 874 1479 C 885 1503 894 1528 901 1556 L 1022 1534 C 1012 1492 1000 1453 984 1416 C 968 1379 945 1347 917 1320 Z M 297 169 C 317 150 345 136 380 127 C 414 117 458 113 510 113 C 581 113 642 120 693 136 C 743 152 785 176 818 209 C 850 241 873 282 888 332 C 903 382 911 441 911 510 L 911 592 L 852 592 C 770 592 698 590 636 587 C 574 583 520 578 475 571 C 429 563 391 552 361 539 C 331 525 307 509 289 490 C 271 470 258 446 251 419 C 243 392 240 361 240 326 C 240 292 244 261 253 235 C 261 209 276 187 297 169 Z M 779 20 C 743 6 701 -3 653 -10 C 605 -16 550 -20 487 -20 C 407 -20 342 -11 291 5 C 239 22 199 46 170 76 C 140 106 119 141 107 182 C 95 223 90 267 90 315 C 90 395 102 462 127 516 C 151 570 193 613 252 645 C 310 677 387 699 484 713 C 580 726 700 733 844 733 L 911 733 C 909 781 905 822 898 858 C 890 893 876 922 855 945 C 833 967 802 984 762 995 C 722 1006 670 1012 606 1012 C 570 1012 535 1009 503 1003 C 470 997 439 990 411 981 C 381 971 355 960 331 948 C 307 936 286 925 268 913 L 186 1034 C 204 1046 228 1060 258 1074 C 288 1088 322 1102 360 1115 C 397 1127 437 1137 481 1145 C 525 1153 570 1157 618 1157 C 713 1157 790 1148 848 1131 C 906 1113 951 1086 983 1050 C 1014 1013 1035 966 1045 908 C 1055 850 1061 780 1061 700 L 1061 274 C 1061 244 1062 220 1064 202 C 1066 184 1071 170 1079 161 C 1086 151 1097 144 1113 141 C 1129 138 1150 137 1178 137 L 1178 2 C 1172 0 1164 -1 1154 -1 C 1144 -1 1131 -2 1116 -2 C 1083 -2 1056 0 1034 6 C 1012 11 995 19 982 31 C 968 42 957 56 950 74 C 942 92 936 113 932 139 C 914 112 893 89 869 69 C 844 49 814 33 779 20 Z" unicode="ă" />
<glyph horiz-adv-x="1487" d="M 51 0 L 659 1528 L 821 1528 L 1430 0 L 1378 0 C 1315 -36 1268 -73 1237 -110 C 1205 -146 1190 -183 1190 -219 C 1190 -232 1191 -245 1194 -258 C 1197 -270 1203 -282 1212 -292 C 1220 -302 1233 -310 1249 -316 C 1265 -322 1287 -326 1313 -326 C 1343 -326 1370 -323 1395 -318 C 1419 -312 1441 -306 1460 -299 L 1507 -406 C 1484 -418 1454 -427 1417 -434 C 1379 -440 1338 -444 1292 -444 C 1244 -444 1205 -438 1175 -428 C 1144 -417 1119 -402 1101 -384 C 1082 -364 1069 -342 1062 -317 C 1054 -292 1051 -265 1051 -236 C 1051 -206 1056 -177 1067 -150 C 1078 -122 1093 -97 1111 -75 C 1129 -51 1150 -30 1174 -12 C 1198 6 1223 23 1249 37 L 1126 350 L 348 350 L 211 0 L 51 0 Z M 403 498 L 1069 498 L 737 1333 L 403 498 Z" unicode="Ą" />
<glyph horiz-adv-x="1270" d="M 779 20 C 743 6 701 -3 653 -10 C 605 -16 550 -20 487 -20 C 407 -20 342 -11 291 5 C 239 22 199 46 170 76 C 140 106 119 141 107 182 C 95 223 90 267 90 315 C 90 395 102 462 127 516 C 151 570 193 613 252 645 C 310 677 387 699 484 713 C 580 726 700 733 844 733 L 911 733 C 909 781 905 822 898 858 C 890 893 876 922 855 945 C 833 967 802 984 762 995 C 722 1006 670 1012 606 1012 C 570 1012 535 1009 503 1003 C 470 997 439 990 411 981 C 381 971 355 960 331 948 C 307 936 286 925 268 913 L 186 1034 C 204 1046 228 1060 258 1074 C 288 1088 322 1102 360 1115 C 397 1127 437 1137 481 1145 C 525 1153 570 1157 618 1157 C 713 1157 790 1148 848 1131 C 906 1113 951 1086 983 1050 C 1014 1013 1035 966 1045 908 C 1055 850 1061 780 1061 700 L 1061 274 C 1061 244 1062 220 1064 202 C 1066 184 1071 170 1079 161 C 1086 151 1097 144 1113 141 C 1129 138 1150 137 1178 137 L 1178 2 C 1178 2 1177 2 1177 2 C 1177 2 1176 1 1176 1 L 1176 0 C 1108 -37 1057 -73 1022 -109 C 986 -145 969 -181 969 -219 C 969 -232 970 -245 973 -258 C 976 -270 983 -282 993 -292 C 1002 -302 1015 -310 1033 -316 C 1050 -322 1073 -326 1102 -326 C 1132 -326 1159 -323 1184 -318 C 1208 -312 1230 -306 1249 -299 L 1296 -406 C 1273 -418 1243 -427 1206 -434 C 1169 -440 1127 -444 1081 -444 C 1029 -444 987 -438 955 -428 C 923 -417 897 -402 879 -384 C 859 -364 846 -342 839 -317 C 832 -292 829 -265 829 -236 C 829 -207 834 -180 846 -155 C 858 -129 873 -106 891 -86 C 909 -64 928 -45 950 -29 C 972 -13 992 0 1012 12 C 998 17 987 24 979 32 C 970 40 962 49 956 61 C 950 71 945 83 942 96 C 938 109 935 123 932 139 C 914 112 893 89 869 69 C 844 49 814 33 779 20 Z M 297 169 C 317 150 345 136 380 127 C 414 117 458 113 510 113 C 581 113 642 120 693 136 C 743 152 785 176 818 209 C 850 241 873 282 888 332 C 903 382 911 441 911 510 L 911 592 L 852 592 C 770 592 698 590 636 587 C 574 583 520 578 475 571 C 429 563 391 552 361 539 C 331 525 307 509 289 490 C 271 470 258 446 251 419 C 243 392 240 361 240 326 C 240 292 244 261 253 235 C 261 209 276 187 297 169 Z" unicode="ą" />
<glyph horiz-adv-x="1477" d="M 580 1608 L 889 1927 L 1079 1927 L 727 1608 L 580 1608 Z M 1184 38 C 1140 19 1089 4 1033 -6 C 977 -17 912 -23 838 -23 C 710 -23 600 -6 506 27 C 412 60 334 110 273 176 C 211 241 165 322 135 420 C 105 518 90 631 90 760 C 90 892 106 1008 140 1106 C 174 1204 223 1285 288 1350 C 352 1414 431 1462 525 1494 C 619 1526 726 1542 846 1542 C 954 1542 1052 1526 1142 1495 C 1231 1463 1309 1416 1376 1352 L 1262 1237 C 1207 1286 1144 1324 1074 1350 C 1004 1376 927 1389 844 1389 C 648 1389 501 1336 401 1231 C 301 1125 252 968 252 758 C 252 654 263 563 287 485 C 311 406 347 340 397 288 C 445 235 507 195 582 169 C 656 142 744 129 846 129 C 902 129 952 133 996 141 C 1039 149 1078 161 1112 176 C 1145 190 1175 206 1201 225 C 1227 243 1251 263 1274 285 L 1386 176 C 1360 150 1330 126 1298 102 C 1265 78 1227 56 1184 38 Z" unicode="Ć" />
<glyph horiz-adv-x="1153" d="M 420 1249 L 729 1569 L 920 1569 L 567 1249 L 420 1249 Z M 875 21 C 842 7 806 -2 768 -9 C 730 -16 687 -20 641 -20 C 535 -20 448 -6 378 21 C 308 49 253 88 212 140 C 170 190 141 252 125 324 C 108 396 100 477 100 567 C 100 657 108 738 125 811 C 141 883 171 945 213 997 C 254 1048 310 1087 380 1115 C 450 1143 538 1157 645 1157 C 695 1157 741 1152 783 1144 C 824 1135 861 1123 895 1109 C 927 1094 957 1077 983 1057 C 1009 1037 1032 1017 1053 995 L 940 889 C 926 903 910 917 892 931 C 874 945 853 957 829 969 C 805 980 777 989 747 997 C 717 1004 683 1008 645 1008 C 571 1008 509 998 459 978 C 409 958 369 930 339 892 C 309 854 287 807 275 752 C 262 696 256 633 256 563 C 256 493 262 431 274 376 C 286 321 308 275 338 237 C 367 199 407 169 457 149 C 507 129 569 119 645 119 C 677 119 706 121 734 126 C 762 131 788 139 813 149 C 837 159 860 171 882 186 C 904 201 926 218 948 238 L 1053 139 C 1025 113 996 91 967 71 C 938 51 907 34 875 21 Z" unicode="ć" />
<glyph horiz-adv-x="1477" d="" unicode="Ĉ" />
<glyph horiz-adv-x="1153" d="" unicode="ĉ" />
<glyph horiz-adv-x="1477" d="" unicode="Ċ" />
<glyph horiz-adv-x="1153" d="" unicode="ċ" />
<glyph horiz-adv-x="1477" d="M 649 1608 L 338 1927 L 494 1927 L 739 1708 L 983 1927 L 1135 1927 L 823 1608 L 649 1608 Z M 1184 38 C 1140 19 1089 4 1033 -6 C 977 -17 912 -23 838 -23 C 710 -23 600 -6 506 27 C 412 60 334 110 273 176 C 211 241 165 322 135 420 C 105 518 90 631 90 760 C 90 892 106 1008 140 1106 C 174 1204 223 1285 288 1350 C 352 1414 431 1462 525 1494 C 619 1526 726 1542 846 1542 C 954 1542 1052 1526 1142 1495 C 1231 1463 1309 1416 1376 1352 L 1262 1237 C 1207 1286 1144 1324 1074 1350 C 1004 1376 927 1389 844 1389 C 648 1389 501 1336 401 1231 C 301 1125 252 968 252 758 C 252 654 263 563 287 485 C 311 406 347 340 397 288 C 445 235 507 195 582 169 C 656 142 744 129 846 129 C 902 129 952 133 996 141 C 1039 149 1078 161 1112 176 C 1145 190 1175 206 1201 225 C 1227 243 1251 263 1274 285 L 1386 176 C 1360 150 1330 126 1298 102 C 1265 78 1227 56 1184 38 Z" unicode="Č" />
<glyph horiz-adv-x="1153" d="M 489 1249 L 178 1569 L 334 1569 L 580 1350 L 823 1569 L 975 1569 L 664 1249 L 489 1249 Z M 875 21 C 842 7 806 -2 768 -9 C 730 -16 687 -20 641 -20 C 535 -20 448 -6 378 21 C 308 49 253 88 212 140 C 170 190 141 252 125 324 C 108 396 100 477 100 567 C 100 657 108 738 125 811 C 141 883 171 945 213 997 C 254 1048 310 1087 380 1115 C 450 1143 538 1157 645 1157 C 695 1157 741 1152 783 1144 C 824 1135 861 1123 895 1109 C 927 1094 957 1077 983 1057 C 1009 1037 1032 1017 1053 995 L 940 889 C 926 903 910 917 892 931 C 874 945 853 957 829 969 C 805 980 777 989 747 997 C 717 1004 683 1008 645 1008 C 571 1008 509 998 459 978 C 409 958 369 930 339 892 C 309 854 287 807 275 752 C 262 696 256 633 256 563 C 256 493 262 431 274 376 C 286 321 308 275 338 237 C 367 199 407 169 457 149 C 507 129 569 119 645 119 C 677 119 706 121 734 126 C 762 131 788 139 813 149 C 837 159 860 171 882 186 C 904 201 926 218 948 238 L 1053 139 C 1025 113 996 91 967 71 C 938 51 907 34 875 21 Z" unicode="č" />
<glyph horiz-adv-x="1540" d="M 680 1608 L 369 1927 L 524 1927 L 770 1708 L 1014 1927 L 1165 1927 L 854 1608 L 680 1608 Z M 178 0 L 178 1518 L 674 1518 C 816 1518 936 1506 1035 1482 C 1134 1458 1215 1417 1277 1359 C 1338 1301 1382 1223 1410 1126 C 1438 1028 1452 906 1452 760 C 1452 616 1436 496 1406 399 C 1376 301 1328 223 1264 165 C 1199 105 1116 63 1014 38 C 912 12 789 0 647 0 L 178 0 Z M 340 147 L 653 147 C 773 147 873 157 955 179 C 1036 201 1102 236 1152 285 C 1201 333 1236 396 1258 474 C 1279 552 1290 647 1290 760 C 1290 836 1286 904 1278 964 C 1270 1024 1256 1076 1238 1121 C 1219 1165 1194 1203 1163 1235 C 1132 1266 1094 1291 1049 1311 C 1003 1330 950 1344 888 1353 C 826 1361 756 1366 676 1366 L 340 1366 L 340 147 Z" unicode="Ď" />
<glyph horiz-adv-x="1534" d="M 1370 1169 L 1329 1243 C 1349 1254 1366 1265 1380 1275 C 1393 1285 1404 1295 1412 1307 C 1420 1318 1425 1331 1429 1345 C 1432 1359 1434 1375 1434 1395 L 1348 1395 L 1348 1589 L 1526 1589 L 1526 1442 C 1526 1403 1523 1370 1519 1343 C 1515 1315 1507 1292 1496 1272 C 1484 1251 1468 1233 1448 1217 C 1428 1201 1402 1185 1370 1169 Z M 331 243 C 357 204 394 174 440 154 C 486 133 544 123 614 123 C 685 123 746 130 797 146 C 847 161 889 186 921 222 C 953 256 976 302 991 359 C 1006 416 1014 487 1014 571 C 1014 653 1006 723 992 779 C 978 835 955 881 923 915 C 891 949 849 973 799 988 C 748 1002 686 1010 614 1010 C 544 1010 486 1000 440 980 C 394 960 357 931 331 894 C 303 856 284 809 274 755 C 263 701 258 639 258 571 C 258 501 263 439 274 384 C 284 328 303 281 331 243 Z M 875 19 C 839 5 798 -4 751 -10 C 703 -16 648 -20 586 -20 C 492 -20 413 -5 351 22 C 288 50 238 90 202 142 C 164 193 138 255 123 328 C 107 400 100 481 100 571 C 100 659 107 739 123 811 C 139 883 165 944 203 996 C 240 1046 290 1085 353 1113 C 416 1141 495 1155 590 1155 C 651 1155 705 1152 751 1146 C 797 1140 838 1131 872 1119 C 906 1106 934 1090 957 1071 C 979 1052 998 1030 1014 1004 L 1014 1589 L 1169 1589 L 1169 6 L 1049 -4 L 1030 141 C 1012 113 990 88 965 68 C 940 48 910 31 875 19 Z" unicode="ď" />
<glyph horiz-adv-x="1540" d="M 0 719 L 0 854 L 178 854 L 178 1518 L 674 1518 C 816 1518 936 1506 1035 1482 C 1134 1458 1215 1417 1277 1359 C 1338 1301 1382 1223 1410 1126 C 1438 1028 1452 906 1452 760 C 1452 616 1436 496 1405 399 C 1374 301 1326 223 1261 165 C 1195 105 1112 63 1011 38 C 909 12 788 0 647 0 L 178 0 L 178 719 L 0 719 Z M 340 147 L 653 147 C 773 147 873 157 955 179 C 1036 201 1102 236 1152 285 C 1201 333 1236 396 1258 474 C 1279 552 1290 647 1290 760 C 1290 836 1286 904 1278 964 C 1270 1024 1256 1076 1238 1121 C 1219 1165 1194 1203 1163 1235 C 1132 1266 1094 1291 1049 1311 C 1003 1330 950 1344 888 1353 C 826 1361 756 1366 676 1366 L 340 1366 L 340 854 L 684 854 L 684 719 L 340 719 L 340 147 Z" unicode="Đ" />
<glyph horiz-adv-x="1325" d="M 331 243 C 357 204 394 174 440 154 C 486 133 544 123 614 123 C 685 123 746 130 797 146 C 847 161 889 186 921 222 C 953 256 976 302 991 359 C 1006 416 1014 487 1014 571 C 1014 653 1006 723 992 779 C 978 835 955 881 923 915 C 891 949 849 973 799 988 C 748 1002 686 1010 614 1010 C 544 1010 486 1000 440 980 C 394 960 357 931 331 894 C 303 856 284 809 274 755 C 263 701 258 639 258 571 C 258 501 263 439 274 384 C 284 328 303 281 331 243 Z M 674 1276 L 674 1413 L 1014 1413 L 1014 1589 L 1169 1589 L 1169 1413 L 1325 1413 L 1325 1276 L 1169 1276 L 1169 6 L 1049 -4 L 1030 141 C 1012 113 990 88 965 68 C 940 48 910 31 875 19 C 839 5 798 -4 751 -10 C 703 -16 648 -20 586 -20 C 492 -20 413 -5 351 22 C 288 50 238 90 202 142 C 164 193 138 255 123 328 C 107 400 100 481 100 571 C 100 659 107 739 123 811 C 139 883 165 944 203 996 C 240 1046 290 1085 353 1113 C 416 1141 495 1155 590 1155 C 651 1155 705 1152 751 1146 C 797 1140 838 1131 872 1119 C 906 1106 934 1090 957 1071 C 979 1052 998 1030 1014 1004 L 1014 1276 L 674 1276 Z" unicode="đ" />
<glyph horiz-adv-x="1309" d="" unicode="Ē" />
<glyph horiz-adv-x="1214" d="" unicode="ē" />
<glyph horiz-adv-x="1309" d="" unicode="Ĕ" />
<glyph horiz-adv-x="1214" d="" unicode="ĕ" />
<glyph horiz-adv-x="1309" d="" unicode="Ė" />
<glyph horiz-adv-x="1214" d="" unicode="ė" />
<glyph horiz-adv-x="1309" d="M 178 0 L 178 1518 L 1182 1518 L 1182 1364 L 340 1364 L 340 862 L 1161 862 L 1161 711 L 340 711 L 340 147 L 1190 147 L 1190 0 L 1028 0 C 970 -36 925 -73 894 -111 C 863 -149 848 -186 848 -221 C 848 -234 849 -247 852 -260 C 855 -272 862 -284 872 -294 C 881 -303 894 -311 912 -317 C 929 -323 952 -326 981 -326 C 1015 -326 1048 -321 1080 -313 C 1112 -305 1137 -296 1157 -287 L 1204 -393 C 1175 -408 1139 -420 1095 -430 C 1051 -439 1007 -444 961 -444 C 909 -444 867 -438 835 -428 C 802 -417 776 -403 758 -385 C 739 -366 726 -344 719 -320 C 712 -295 709 -268 709 -240 C 709 -213 714 -188 724 -164 C 734 -140 746 -119 762 -99 C 777 -78 794 -59 814 -43 C 833 -26 852 -12 870 0 L 178 0 Z" unicode="Ę" />
<glyph horiz-adv-x="1214" d="M 690 -20 C 682 -21 674 -22 666 -22 C 658 -22 651 -23 643 -23 C 567 -23 500 -16 444 -2 C 388 12 340 31 300 57 C 260 82 227 112 201 148 C 175 184 154 224 140 268 C 124 311 114 358 108 409 C 102 459 100 512 100 567 C 100 649 107 725 122 797 C 137 869 165 931 205 985 C 244 1038 298 1080 368 1111 C 438 1141 527 1157 637 1157 C 713 1157 777 1148 830 1132 C 882 1116 926 1093 961 1064 C 995 1034 1022 999 1042 959 C 1061 919 1075 875 1085 828 C 1093 780 1098 729 1100 676 C 1102 622 1102 568 1102 514 L 250 514 C 252 454 258 400 270 351 C 282 301 302 259 332 224 C 360 188 400 161 450 142 C 500 122 564 113 643 113 C 689 113 730 115 766 121 C 801 127 833 135 862 146 C 890 156 915 168 939 182 C 962 196 985 211 1008 227 L 1092 119 C 1062 97 1033 78 1003 61 C 973 43 941 28 905 16 L 907 16 C 840 -22 788 -61 752 -103 C 716 -144 698 -183 698 -221 C 698 -234 699 -247 702 -260 C 705 -272 712 -284 722 -294 C 731 -303 744 -311 762 -317 C 779 -323 802 -326 831 -326 C 865 -326 898 -321 930 -313 C 962 -305 988 -296 1008 -287 L 1055 -393 C 1025 -408 989 -420 945 -430 C 901 -439 857 -444 811 -444 C 759 -444 717 -438 685 -428 C 652 -417 626 -403 608 -385 C 589 -366 576 -344 569 -320 C 562 -295 559 -268 559 -240 C 559 -216 562 -194 570 -173 C 578 -152 588 -133 601 -115 C 613 -96 626 -79 642 -63 C 658 -47 674 -33 690 -20 Z M 846 969 C 822 984 793 996 759 1005 C 724 1013 682 1018 633 1018 C 561 1018 502 1009 455 992 C 408 974 370 950 342 918 C 312 886 291 847 278 803 C 264 758 256 709 252 655 L 954 655 C 952 688 949 720 947 751 C 944 782 939 811 932 839 C 924 865 914 890 901 912 C 887 934 869 953 846 969 Z" unicode="ę" />
<glyph horiz-adv-x="1309" d="M 563 1608 L 252 1927 L 408 1927 L 653 1708 L 897 1927 L 1049 1927 L 737 1608 L 563 1608 Z M 178 0 L 178 1518 L 1182 1518 L 1182 1364 L 340 1364 L 340 862 L 1161 862 L 1161 711 L 340 711 L 340 147 L 1190 147 L 1190 0 L 178 0 Z" unicode="Ě" />
<glyph horiz-adv-x="1214" d="M 516 1249 L 205 1569 L 360 1569 L 606 1350 L 850 1569 L 1001 1569 L 690 1249 L 516 1249 Z M 903 16 C 867 3 827 -6 785 -13 C 742 -19 695 -23 643 -23 C 567 -23 500 -16 444 -2 C 388 12 340 31 300 57 C 260 82 227 112 201 148 C 175 184 154 224 140 268 C 124 311 114 358 108 409 C 102 459 100 512 100 567 C 100 649 107 725 122 797 C 137 869 165 931 205 985 C 244 1038 298 1080 368 1111 C 438 1141 527 1157 637 1157 C 713 1157 777 1148 830 1132 C 882 1116 926 1093 961 1064 C 995 1034 1022 999 1042 959 C 1061 919 1075 875 1085 828 C 1093 780 1098 729 1100 676 C 1102 622 1102 568 1102 514 L 250 514 C 252 454 258 400 270 351 C 282 301 302 259 332 224 C 360 188 400 161 450 142 C 500 122 564 113 643 113 C 689 113 730 115 766 121 C 801 127 833 135 862 146 C 890 156 915 168 939 182 C 962 196 985 211 1008 227 L 1092 119 C 1064 97 1034 78 1003 60 C 972 42 939 28 903 16 Z M 846 969 C 822 984 793 996 759 1005 C 724 1013 682 1018 633 1018 C 561 1018 502 1009 455 992 C 408 974 370 950 342 918 C 312 886 291 847 278 803 C 264 758 256 709 252 655 L 954 655 C 952 688 949 720 947 751 C 944 782 939 811 932 839 C 924 865 914 890 901 912 C 887 934 869 953 846 969 Z" unicode="ě" />
<glyph horiz-adv-x="1591" d="" unicode="Ĝ" />
<glyph horiz-adv-x="1223" d="" unicode="ĝ" />
<glyph horiz-adv-x="1591" d="M 1075 1678 C 1045 1650 1008 1627 963 1611 C 917 1595 861 1587 795 1587 C 727 1587 670 1595 625 1611 C 579 1627 542 1649 514 1677 C 484 1704 462 1736 447 1773 C 431 1809 420 1848 412 1890 L 530 1915 C 536 1887 544 1861 555 1837 C 566 1813 582 1792 602 1774 C 622 1756 647 1741 678 1731 C 709 1721 748 1716 795 1716 C 841 1716 879 1721 910 1731 C 940 1741 966 1756 986 1774 C 1006 1792 1021 1813 1032 1837 C 1043 1861 1052 1887 1059 1915 L 1180 1892 C 1170 1850 1158 1811 1142 1774 C 1126 1737 1103 1705 1075 1678 Z M 1256 62 C 1206 34 1147 13 1078 -1 C 1009 -15 928 -23 836 -23 C 701 -23 586 -6 492 26 C 397 59 320 108 261 174 C 201 239 158 321 131 419 C 103 517 90 630 90 760 C 90 896 106 1014 139 1113 C 172 1211 221 1292 285 1356 C 349 1419 427 1466 521 1496 C 615 1526 722 1542 844 1542 C 916 1542 981 1536 1039 1526 C 1096 1515 1147 1501 1193 1484 C 1237 1466 1276 1445 1310 1423 C 1343 1400 1372 1377 1397 1354 L 1282 1237 C 1258 1257 1231 1277 1203 1296 C 1175 1314 1143 1331 1108 1345 C 1072 1358 1033 1369 990 1377 C 946 1385 898 1389 844 1389 C 646 1389 498 1337 399 1234 C 299 1131 250 972 250 758 C 250 650 260 557 282 477 C 304 397 338 330 386 278 C 432 225 493 186 568 160 C 643 134 734 121 842 121 C 944 121 1027 131 1091 153 C 1155 175 1206 207 1243 250 C 1279 292 1304 345 1318 409 C 1332 473 1339 547 1339 631 L 1339 680 L 827 680 L 827 829 L 1499 829 L 1499 657 C 1499 588 1495 524 1488 464 C 1481 404 1469 348 1451 298 C 1433 247 1408 202 1376 162 C 1344 122 1304 89 1256 62 Z" unicode="Ğ" />
<glyph horiz-adv-x="1223" d="M 888 1320 C 858 1292 821 1269 776 1253 C 731 1237 675 1229 608 1229 C 540 1229 484 1237 439 1253 C 393 1269 356 1291 328 1319 C 298 1346 276 1378 260 1415 C 244 1451 233 1490 225 1532 L 344 1556 C 350 1528 358 1503 369 1479 C 380 1455 396 1434 416 1416 C 435 1398 460 1383 491 1373 C 522 1363 561 1358 608 1358 C 654 1358 692 1363 723 1373 C 754 1383 780 1398 800 1416 C 819 1434 834 1455 845 1479 C 856 1503 865 1528 872 1556 L 993 1534 C 983 1492 971 1453 955 1416 C 939 1379 916 1347 888 1320 Z M 351 604 C 375 585 407 571 447 562 C 486 553 534 549 590 549 C 646 549 693 553 733 562 C 773 571 805 585 831 604 C 855 622 873 645 885 674 C 897 703 903 738 903 778 C 903 859 876 918 824 956 C 771 993 693 1012 590 1012 C 534 1012 486 1007 447 998 C 407 988 375 974 351 956 C 325 936 307 912 296 883 C 284 853 279 818 279 778 C 279 738 284 703 296 674 C 307 645 325 622 351 604 Z M 1057 778 C 1057 652 1019 560 944 502 C 868 443 750 414 590 414 C 552 414 517 415 485 418 C 453 421 422 426 393 432 C 383 420 374 406 368 392 C 361 377 358 362 358 348 C 358 330 361 315 369 304 C 376 292 389 284 407 278 C 425 272 449 267 480 265 C 510 263 549 262 596 262 C 698 262 783 257 853 249 C 923 241 979 226 1022 205 C 1064 183 1094 153 1113 116 C 1131 78 1141 31 1141 -27 C 1141 -85 1131 -135 1112 -178 C 1092 -220 1061 -256 1018 -284 C 974 -312 916 -332 845 -346 C 774 -360 687 -367 584 -367 C 493 -367 415 -362 349 -354 C 283 -346 228 -331 186 -311 C 143 -289 111 -260 91 -224 C 71 -187 61 -140 61 -84 C 61 -51 64 -20 71 10 C 77 40 89 67 107 93 C 123 117 146 139 175 157 C 204 175 241 188 285 197 C 261 207 243 223 231 247 C 219 271 213 298 213 330 C 213 358 217 385 227 411 C 236 437 249 460 266 481 C 218 511 183 550 161 599 C 138 647 127 707 127 778 C 127 841 136 896 154 944 C 172 991 199 1031 237 1063 C 274 1094 322 1117 380 1133 C 438 1149 508 1157 590 1157 C 608 1157 627 1156 646 1155 C 664 1154 682 1153 700 1151 L 1094 1198 L 1094 1069 L 905 1069 C 955 1042 992 1006 1018 960 C 1044 914 1057 853 1057 778 Z M 307 -202 C 337 -215 375 -224 422 -230 C 468 -235 524 -238 588 -238 C 668 -238 733 -233 785 -225 C 836 -216 876 -203 906 -187 C 935 -169 955 -148 966 -123 C 977 -98 983 -69 983 -37 C 983 -3 976 24 963 46 C 949 67 927 84 897 96 C 865 108 824 116 774 120 C 724 124 662 127 588 127 C 506 127 441 122 392 112 C 343 102 306 88 280 72 C 254 54 237 34 229 11 C 221 -11 217 -35 217 -61 C 217 -95 224 -124 239 -147 C 253 -169 276 -188 307 -202 Z" unicode="ğ" />
<glyph horiz-adv-x="1591" d="" unicode="Ġ" />
<glyph horiz-adv-x="1223" d="" unicode="ġ" />
<glyph horiz-adv-x="1591" d="" unicode="Ģ" />
<glyph horiz-adv-x="1223" d="" unicode="ģ" />
<glyph horiz-adv-x="1591" d="" unicode="Ĥ" />
<glyph horiz-adv-x="1270" d="" unicode="ĥ" />
<glyph horiz-adv-x="1591" d="" unicode="Ħ" />
<glyph horiz-adv-x="1270" d="" unicode="ħ" />
<glyph horiz-adv-x="547" d="" unicode="Ĩ" />
<glyph horiz-adv-x="487" d="" unicode="ĩ" />
<glyph horiz-adv-x="547" d="" unicode="Ī" />
<glyph horiz-adv-x="487" d="" unicode="ī" />
<glyph horiz-adv-x="547" d="" unicode="Ĭ" />
<glyph horiz-adv-x="487" d="" unicode="ĭ" />
<glyph horiz-adv-x="547" d="" unicode="Į" />
<glyph horiz-adv-x="487" d="" unicode="į" />
<glyph horiz-adv-x="547" d="M 197 1606 L 197 1825 L 352 1825 L 352 1606 L 197 1606 Z M 195 0 L 195 1518 L 352 1518 L 352 0 L 195 0 Z" unicode="İ" />
<glyph horiz-adv-x="487" d="M 166 0 L 166 1130 L 319 1130 L 319 0 L 166 0 Z" unicode="ı" />
<glyph horiz-adv-x="1364" d="" unicode="Ĳ" />
<glyph horiz-adv-x="975" d="" unicode="ĳ" />
<glyph horiz-adv-x="819" d="" unicode="Ĵ" />
<glyph horiz-adv-x="487" d="" unicode="ĵ" />
<glyph horiz-adv-x="1442" d="" unicode="Ķ" />
<glyph horiz-adv-x="1110" d="" unicode="ķ" />
<glyph horiz-adv-x="1110" d="" unicode="ĸ" />
<glyph horiz-adv-x="1202" d="M 193 1608 L 502 1927 L 692 1927 L 340 1608 L 193 1608 Z M 178 0 L 178 1518 L 340 1518 L 340 147 L 1147 147 L 1147 0 L 178 0 Z" unicode="Ĺ" />
<glyph horiz-adv-x="598" d="M 166 1659 L 475 1978 L 666 1978 L 313 1659 L 166 1659 Z M 500 2 C 491 0 478 0 460 -1 C 442 -1 422 -2 401 -2 C 355 -2 316 3 286 13 C 256 23 232 40 215 62 C 197 84 184 112 177 146 C 169 180 166 222 166 270 L 166 1589 L 319 1589 L 319 287 C 319 259 320 235 323 216 C 325 197 331 182 341 171 C 350 159 363 150 381 145 C 398 139 421 137 451 137 L 500 137 L 500 2 Z" unicode="ĺ" />
<glyph horiz-adv-x="1202" d="" unicode="Ļ" />
<glyph horiz-adv-x="598" d="" unicode="ļ" />
<glyph horiz-adv-x="1202" d="M 588 1169 L 547 1243 C 567 1254 584 1265 598 1275 C 611 1285 622 1295 630 1307 C 638 1318 643 1331 646 1345 C 649 1359 651 1375 651 1395 L 563 1395 L 563 1589 L 743 1589 L 743 1442 C 743 1403 740 1370 736 1343 C 732 1315 724 1292 713 1272 C 701 1251 686 1233 666 1217 C 646 1201 620 1185 588 1169 Z M 178 0 L 178 1518 L 340 1518 L 340 147 L 1147 147 L 1147 0 L 178 0 Z" unicode="Ľ" />
<glyph horiz-adv-x="696" d="M 500 2 C 491 0 478 0 460 -1 C 442 -1 422 -2 401 -2 C 355 -2 316 3 286 13 C 256 23 232 40 215 62 C 197 84 184 112 177 146 C 169 180 166 222 166 270 L 166 1589 L 319 1589 L 319 287 C 319 259 320 235 323 216 C 325 197 331 182 341 171 C 350 159 363 150 381 145 C 398 139 421 137 451 137 L 500 137 L 500 2 Z M 532 1169 L 492 1243 C 512 1254 528 1265 542 1275 C 555 1285 566 1295 574 1307 C 582 1318 587 1331 591 1345 C 594 1359 596 1375 596 1395 L 508 1395 L 508 1589 L 688 1589 L 688 1442 C 688 1403 685 1370 681 1343 C 677 1315 669 1292 658 1272 C 646 1251 630 1233 610 1217 C 590 1201 564 1185 532 1169 Z" unicode="ľ" />
<glyph horiz-adv-x="1268" d="" unicode="Ŀ" />
<glyph horiz-adv-x="1004" d="" unicode="ŀ" />
<glyph horiz-adv-x="1202" d="M 0 627 L 0 766 L 178 864 L 178 1518 L 340 1518 L 340 954 L 682 1147 L 682 1008 L 340 815 L 340 147 L 1147 147 L 1147 0 L 178 0 L 178 725 L 0 627 Z" unicode="Ł" />
<glyph horiz-adv-x="723" d="M 45 799 L 45 932 L 250 1051 L 250 1589 L 406 1589 L 406 1141 L 635 1274 L 635 1139 L 406 1006 L 406 283 C 406 255 407 231 410 212 C 412 192 418 177 428 166 C 436 154 449 145 466 140 C 483 135 506 133 535 133 L 584 133 L 584 2 C 575 0 562 0 545 -1 C 527 -1 507 -2 485 -2 C 439 -2 400 3 370 13 C 340 23 316 40 299 62 C 281 84 268 112 261 146 C 253 180 250 220 250 268 L 250 915 L 45 799 Z" unicode="ł" />
<glyph horiz-adv-x="1595" d="M 637 1608 L 946 1927 L 1137 1927 L 784 1608 L 637 1608 Z M 178 0 L 178 1518 L 354 1518 L 1262 266 L 1262 1518 L 1417 1518 L 1417 0 L 1270 0 L 334 1288 L 334 0 L 178 0 Z" unicode="Ń" />
<glyph horiz-adv-x="1270" d="M 475 1249 L 784 1569 L 975 1569 L 623 1249 L 475 1249 Z M 156 0 L 156 1122 L 279 1130 L 293 1012 C 305 1031 321 1049 342 1067 C 363 1085 390 1100 424 1114 C 456 1127 496 1137 544 1145 C 591 1153 647 1157 713 1157 C 803 1157 876 1145 930 1123 C 984 1101 1025 1069 1053 1029 C 1081 987 1099 938 1107 881 C 1115 823 1120 760 1120 690 L 1120 0 L 965 0 L 965 664 C 965 714 962 759 957 801 C 952 843 940 879 921 909 C 901 939 871 962 831 979 C 791 995 737 1004 668 1004 C 592 1004 531 994 485 976 C 438 958 402 932 377 900 C 351 866 333 827 324 782 C 315 737 311 688 311 635 L 311 0 L 156 0 Z" unicode="ń" />
<glyph horiz-adv-x="1595" d="" unicode="Ņ" />
<glyph horiz-adv-x="1270" d="" unicode="ņ" />
<glyph horiz-adv-x="1595" d="M 707 1608 L 395 1927 L 551 1927 L 797 1708 L 1040 1927 L 1192 1927 L 881 1608 L 707 1608 Z M 178 0 L 178 1518 L 354 1518 L 1262 266 L 1262 1518 L 1417 1518 L 1417 0 L 1270 0 L 334 1288 L 334 0 L 178 0 Z" unicode="Ň" />
<glyph horiz-adv-x="1270" d="M 545 1249 L 233 1569 L 389 1569 L 635 1350 L 879 1569 L 1030 1569 L 719 1249 L 545 1249 Z M 156 0 L 156 1122 L 279 1130 L 293 1012 C 305 1031 321 1049 342 1067 C 363 1085 390 1100 424 1114 C 456 1127 496 1137 544 1145 C 591 1153 647 1157 713 1157 C 803 1157 876 1145 930 1123 C 984 1101 1025 1069 1053 1029 C 1081 987 1099 938 1107 881 C 1115 823 1120 760 1120 690 L 1120 0 L 965 0 L 965 664 C 965 714 962 759 957 801 C 952 843 940 879 921 909 C 901 939 871 962 831 979 C 791 995 737 1004 668 1004 C 592 1004 531 994 485 976 C 438 958 402 932 377 900 C 351 866 333 827 324 782 C 315 737 311 688 311 635 L 311 0 L 156 0 Z" unicode="ň" />
<glyph horiz-adv-x="1724" d="" unicode="ŉ" />
<glyph horiz-adv-x="1595" d="" unicode="Ŋ" />
<glyph horiz-adv-x="1270" d="" unicode="ŋ" />
<glyph horiz-adv-x="1708" d="" unicode="Ō" />
<glyph horiz-adv-x="1292" d="" unicode="ō" />
<glyph horiz-adv-x="1708" d="" unicode="Ŏ" />
<glyph horiz-adv-x="1292" d="" unicode="ŏ" />
<glyph horiz-adv-x="1708" d="M 938 1608 L 1196 1925 L 1378 1925 L 1077 1608 L 938 1608 Z M 473 1608 L 731 1925 L 915 1925 L 612 1608 L 473 1608 Z M 1418 164 C 1352 100 1272 52 1177 21 C 1082 -9 974 -25 852 -25 C 730 -25 622 -9 528 21 C 434 52 354 100 290 164 C 224 228 175 309 141 408 C 107 506 90 624 90 760 C 90 894 107 1011 141 1109 C 175 1207 224 1289 290 1353 C 354 1417 434 1464 528 1495 C 622 1526 730 1542 852 1542 C 974 1542 1082 1526 1177 1495 C 1272 1464 1352 1417 1418 1353 C 1483 1289 1533 1207 1567 1109 C 1601 1011 1618 894 1618 760 C 1618 624 1601 506 1567 408 C 1533 309 1483 228 1418 164 Z M 398 287 C 446 233 508 193 584 166 C 659 138 748 125 852 125 C 955 125 1045 138 1121 166 C 1197 193 1260 233 1310 287 C 1359 340 1396 406 1420 485 C 1444 563 1456 654 1456 758 C 1456 860 1444 950 1420 1029 C 1396 1107 1359 1173 1310 1227 C 1260 1280 1197 1320 1121 1348 C 1045 1375 955 1389 852 1389 C 748 1389 659 1375 584 1348 C 508 1320 446 1280 398 1227 C 348 1173 312 1107 288 1029 C 264 950 252 860 252 758 C 252 654 264 563 288 485 C 312 406 348 340 398 287 Z" unicode="Ő" />
<glyph horiz-adv-x="1292" d="M 729 1249 L 987 1567 L 1169 1567 L 868 1249 L 729 1249 Z M 264 1249 L 522 1567 L 707 1567 L 403 1249 L 264 1249 Z M 1065 126 C 1021 76 964 39 895 14 C 826 -10 743 -23 645 -23 C 547 -23 463 -10 394 14 C 325 39 269 76 226 126 C 182 175 150 236 130 310 C 110 384 100 469 100 567 C 100 664 110 749 130 823 C 150 897 182 958 226 1008 C 269 1057 325 1094 394 1119 C 463 1144 547 1157 645 1157 C 743 1157 826 1144 895 1119 C 964 1094 1021 1057 1065 1008 C 1109 958 1141 897 1161 823 C 1181 749 1192 664 1192 567 C 1192 469 1181 384 1161 310 C 1141 236 1109 175 1065 126 Z M 344 233 C 374 195 414 166 464 147 C 513 128 573 119 645 119 C 716 119 776 128 826 147 C 875 166 915 195 947 233 C 977 270 999 316 1013 372 C 1027 427 1034 491 1034 563 C 1034 635 1027 699 1013 755 C 999 811 977 858 947 896 C 915 933 875 961 826 981 C 776 1000 716 1010 645 1010 C 573 1010 513 1000 464 981 C 414 961 374 933 344 896 C 312 858 290 811 276 755 C 262 699 256 635 256 563 C 256 491 262 427 276 372 C 290 316 312 270 344 233 Z" unicode="ő" />
<glyph horiz-adv-x="2580" d="M 392 287 C 440 233 501 193 577 166 C 653 138 744 125 852 125 C 959 125 1051 138 1127 166 C 1203 193 1266 233 1315 287 C 1363 340 1399 406 1422 485 C 1444 563 1456 654 1456 758 C 1456 860 1444 950 1422 1029 C 1399 1107 1363 1173 1315 1227 C 1266 1280 1203 1320 1127 1348 C 1051 1375 959 1389 852 1389 C 744 1389 653 1375 577 1348 C 501 1320 440 1280 392 1227 C 343 1173 307 1107 285 1029 C 263 950 252 860 252 758 C 252 654 263 563 285 485 C 307 406 343 340 392 287 Z M 1466 0 L 1466 248 C 1409 157 1329 89 1227 43 C 1125 -2 1000 -25 852 -25 C 726 -25 615 -9 520 21 C 425 52 346 100 282 164 C 218 228 170 309 138 408 C 106 506 90 624 90 760 C 90 894 106 1011 138 1109 C 170 1207 218 1289 282 1353 C 346 1417 425 1464 520 1495 C 615 1526 726 1542 852 1542 C 1000 1542 1125 1519 1227 1474 C 1329 1429 1409 1362 1466 1272 L 1466 1518 L 2454 1518 L 2454 1364 L 1612 1364 L 1612 862 L 2433 862 L 2433 715 L 1612 715 L 1612 147 L 2462 147 L 2462 0 L 1466 0 Z" unicode="Œ" />
<glyph horiz-adv-x="2146" d="M 1839 16 C 1803 3 1763 -6 1721 -13 C 1678 -19 1630 -23 1577 -23 C 1509 -23 1450 -17 1399 -6 C 1348 4 1304 20 1267 40 C 1229 60 1197 84 1171 112 C 1145 140 1124 171 1108 205 C 1070 129 1013 72 938 34 C 863 -3 765 -23 645 -23 C 545 -23 461 -10 392 14 C 323 39 267 76 224 126 C 180 175 149 236 129 310 C 109 384 100 469 100 567 C 100 664 109 749 129 823 C 149 897 180 958 224 1008 C 267 1057 323 1094 392 1119 C 461 1144 545 1157 645 1157 C 767 1157 865 1137 940 1098 C 1015 1058 1072 1001 1110 926 C 1126 961 1147 993 1173 1021 C 1199 1049 1230 1074 1268 1094 C 1305 1114 1348 1129 1398 1140 C 1448 1151 1505 1157 1571 1157 C 1648 1157 1713 1148 1767 1132 C 1820 1116 1864 1093 1899 1064 C 1933 1034 1960 999 1979 959 C 1998 919 2012 875 2021 828 C 2029 780 2034 729 2035 676 C 2036 622 2036 568 2036 514 L 1184 514 C 1186 454 1192 400 1204 351 C 1216 301 1236 259 1266 224 C 1294 188 1334 161 1384 142 C 1434 122 1498 113 1577 113 C 1623 113 1664 115 1700 121 C 1735 127 1767 135 1796 146 C 1824 156 1849 168 1873 182 C 1896 196 1919 211 1942 227 L 2028 119 C 1999 97 1969 78 1939 60 C 1908 42 1875 28 1839 16 Z M 1779 968 C 1755 984 1726 996 1692 1005 C 1658 1013 1616 1018 1567 1018 C 1495 1018 1435 1009 1388 991 C 1340 973 1302 949 1274 917 C 1245 885 1224 846 1211 801 C 1197 756 1189 707 1186 653 L 1888 653 C 1886 686 1883 718 1881 749 C 1878 780 1873 809 1866 837 C 1858 864 1848 889 1834 911 C 1820 933 1802 952 1779 968 Z M 344 233 C 374 195 414 166 464 147 C 513 128 573 119 645 119 C 716 119 776 128 826 147 C 875 166 915 195 947 233 C 977 270 999 316 1013 372 C 1027 427 1034 491 1034 563 C 1034 635 1027 699 1013 755 C 999 811 977 858 947 896 C 915 933 875 961 826 981 C 776 1000 716 1010 645 1010 C 573 1010 513 1000 464 981 C 414 961 374 933 344 896 C 312 858 290 811 276 755 C 262 699 256 635 256 563 C 256 491 262 427 276 372 C 290 316 312 270 344 233 Z" unicode="œ" />
<glyph horiz-adv-x="1470" d="M 573 1608 L 883 1927 L 1073 1927 L 721 1608 L 573 1608 Z M 336 766 L 836 766 C 890 766 938 770 981 780 C 1024 789 1061 805 1091 828 C 1121 850 1144 881 1160 920 C 1176 958 1184 1007 1184 1067 C 1184 1125 1176 1174 1160 1213 C 1144 1252 1122 1283 1092 1306 C 1061 1328 1024 1344 980 1354 C 936 1363 885 1368 829 1368 L 336 1368 L 336 766 Z M 1151 0 L 788 618 L 336 618 L 336 0 L 178 0 L 178 1518 L 834 1518 C 1010 1518 1139 1481 1222 1408 C 1304 1335 1346 1223 1346 1073 C 1346 941 1314 838 1250 763 C 1186 687 1088 641 956 625 L 1323 0 L 1151 0 Z" unicode="Ŕ" />
<glyph horiz-adv-x="735" d="M 231 1249 L 541 1569 L 731 1569 L 379 1249 L 231 1249 Z M 156 0 L 156 1122 L 279 1130 L 295 979 C 305 1001 322 1022 345 1042 C 367 1062 395 1079 429 1095 C 461 1109 499 1121 543 1130 C 586 1139 634 1144 686 1145 L 686 989 C 616 989 558 979 510 961 C 462 942 424 916 395 883 C 365 849 344 808 331 762 C 317 716 311 665 311 610 L 311 0 L 156 0 Z" unicode="ŕ" />
<glyph horiz-adv-x="1470" d="" unicode="Ŗ" />
<glyph horiz-adv-x="735" d="" unicode="ŗ" />
<glyph horiz-adv-x="1470" d="M 643 1608 L 332 1927 L 487 1927 L 733 1708 L 977 1927 L 1128 1927 L 817 1608 L 643 1608 Z M 336 766 L 836 766 C 890 766 938 770 981 780 C 1024 789 1061 805 1091 828 C 1121 850 1144 881 1160 920 C 1176 958 1184 1007 1184 1067 C 1184 1125 1176 1174 1160 1213 C 1144 1252 1122 1283 1092 1306 C 1061 1328 1024 1344 980 1354 C 936 1363 885 1368 829 1368 L 336 1368 L 336 766 Z M 1151 0 L 788 618 L 336 618 L 336 0 L 178 0 L 178 1518 L 834 1518 C 1010 1518 1139 1481 1222 1408 C 1304 1335 1346 1223 1346 1073 C 1346 941 1314 838 1250 763 C 1186 687 1088 641 956 625 L 1323 0 L 1151 0 Z" unicode="Ř" />
<glyph horiz-adv-x="719" d="M 272 1249 L -39 1569 L 117 1569 L 362 1350 L 606 1569 L 758 1569 L 446 1249 L 272 1249 Z M 156 0 L 156 1122 L 279 1130 L 295 979 C 305 1001 322 1022 345 1042 C 367 1062 395 1079 429 1095 C 461 1109 499 1121 543 1130 C 586 1139 634 1144 686 1145 L 686 989 C 616 989 558 979 510 961 C 462 942 424 916 395 883 C 365 849 344 808 331 762 C 317 716 311 665 311 610 L 311 0 L 156 0 Z" unicode="ř" />
<glyph horiz-adv-x="1440" d="M 559 1608 L 868 1927 L 1059 1927 L 707 1608 L 559 1608 Z M 1319 426 C 1319 275 1269 163 1171 90 C 1072 16 919 -20 713 -20 C 597 -20 488 -6 384 19 C 280 45 180 90 84 154 L 166 276 C 211 247 256 223 302 204 C 347 184 392 169 438 157 C 482 145 527 136 572 131 C 617 125 663 123 709 123 C 787 123 854 128 911 140 C 968 151 1015 169 1053 193 C 1089 217 1116 247 1134 285 C 1152 323 1161 368 1161 420 C 1161 474 1150 517 1128 550 C 1106 582 1076 609 1037 630 C 997 650 950 666 894 678 C 838 690 777 703 709 715 C 654 724 602 734 554 744 C 506 754 461 767 421 781 C 380 795 343 811 311 831 C 279 850 252 874 230 902 C 207 930 190 963 178 1001 C 166 1039 160 1083 160 1135 C 160 1207 171 1269 195 1321 C 218 1373 253 1415 299 1448 C 345 1480 402 1504 471 1519 C 539 1534 619 1542 709 1542 C 827 1542 930 1529 1016 1505 C 1102 1480 1176 1447 1237 1407 L 1151 1276 C 1123 1294 1093 1310 1060 1325 C 1026 1339 991 1352 954 1363 C 916 1373 876 1380 835 1386 C 793 1392 751 1395 709 1395 C 641 1395 582 1390 533 1380 C 483 1370 443 1355 412 1335 C 380 1313 356 1286 341 1254 C 326 1222 319 1183 319 1139 C 319 1091 328 1051 348 1021 C 367 990 395 965 432 946 C 468 926 513 909 566 897 C 619 884 680 872 748 860 C 830 845 907 829 977 813 C 1047 796 1107 773 1158 743 C 1208 713 1248 673 1276 623 C 1304 573 1319 507 1319 426 Z" unicode="Ś" />
<glyph horiz-adv-x="1069" d="M 377 1249 L 686 1569 L 877 1569 L 524 1249 L 377 1249 Z M 878 53 C 840 26 793 7 736 -3 C 678 -14 610 -20 532 -20 C 494 -20 456 -18 417 -14 C 377 -10 338 -4 298 6 C 258 15 218 28 178 44 C 138 60 99 80 61 106 L 143 227 C 176 205 210 187 244 173 C 278 159 313 147 347 139 C 381 130 414 124 447 120 C 479 116 511 115 541 115 C 591 115 635 117 673 123 C 711 129 742 139 767 155 C 791 169 810 189 822 215 C 834 240 840 273 840 313 C 840 345 834 371 824 391 C 813 411 796 428 772 442 C 748 456 717 467 679 477 C 641 487 595 497 541 508 C 475 520 416 534 364 548 C 311 562 266 582 230 606 C 192 630 164 661 144 699 C 124 737 115 786 115 848 C 115 896 122 940 137 978 C 152 1016 177 1048 211 1075 C 245 1101 289 1122 343 1136 C 397 1150 463 1157 541 1157 C 626 1157 703 1148 772 1131 C 841 1113 902 1089 954 1059 L 881 932 C 837 955 787 974 731 990 C 674 1006 611 1014 543 1014 C 489 1014 445 1010 410 1002 C 374 994 346 984 326 970 C 304 955 289 937 281 917 C 272 896 268 873 268 848 C 268 816 273 790 284 770 C 294 749 311 732 334 718 C 356 704 385 692 421 682 C 456 672 499 663 549 653 C 617 639 679 625 733 611 C 787 597 834 579 872 556 C 910 532 939 502 959 465 C 979 428 989 379 989 319 C 989 254 979 200 961 157 C 943 113 915 79 878 53 Z" unicode="ś" />
<glyph horiz-adv-x="1440" d="" unicode="Ŝ" />
<glyph horiz-adv-x="1069" d="" unicode="ŝ" />
<glyph horiz-adv-x="1440" d="M 943 -406 C 922 -423 894 -436 860 -446 C 826 -456 783 -461 733 -461 C 681 -461 637 -455 599 -444 C 561 -432 526 -418 496 -401 L 543 -315 C 569 -329 598 -341 629 -349 C 660 -357 693 -362 727 -362 C 761 -362 788 -359 810 -353 C 831 -347 848 -339 860 -329 C 871 -319 879 -307 883 -294 C 887 -281 889 -268 889 -254 C 889 -235 886 -219 880 -207 C 874 -194 863 -184 849 -177 C 834 -169 814 -164 789 -162 C 764 -160 733 -160 696 -162 L 651 -129 L 672 -20 C 565 -17 463 -2 365 23 C 267 49 174 93 84 154 L 166 276 C 211 247 256 223 302 204 C 347 184 392 169 438 157 C 482 145 527 136 572 131 C 617 125 663 123 709 123 C 787 123 854 128 911 140 C 968 151 1015 169 1053 193 C 1089 217 1116 247 1134 285 C 1152 323 1161 368 1161 420 C 1161 474 1150 517 1128 550 C 1106 582 1076 609 1037 630 C 997 650 950 666 894 678 C 838 690 777 703 709 715 C 654 724 602 734 554 744 C 506 754 461 767 421 781 C 380 795 343 811 311 831 C 279 850 252 874 230 902 C 207 930 190 963 178 1001 C 166 1039 160 1083 160 1135 C 160 1207 171 1269 195 1321 C 218 1373 253 1415 299 1448 C 345 1480 402 1504 471 1519 C 539 1534 619 1542 709 1542 C 827 1542 930 1529 1016 1505 C 1102 1480 1176 1447 1237 1407 L 1151 1276 C 1123 1294 1093 1310 1060 1325 C 1026 1339 991 1352 954 1363 C 916 1373 876 1380 835 1386 C 793 1392 751 1395 709 1395 C 641 1395 582 1390 533 1380 C 483 1370 443 1355 412 1335 C 380 1313 356 1286 341 1254 C 326 1222 319 1183 319 1139 C 319 1091 328 1051 348 1021 C 367 990 395 965 432 946 C 468 926 513 909 566 897 C 619 884 680 872 748 860 C 830 845 907 829 977 813 C 1047 796 1107 773 1158 743 C 1208 713 1248 673 1276 623 C 1304 573 1319 507 1319 426 C 1319 282 1274 174 1185 101 C 1096 28 959 -11 774 -18 L 762 -92 C 792 -90 822 -90 851 -92 C 879 -94 905 -102 928 -114 C 950 -126 967 -143 981 -167 C 994 -191 1001 -223 1001 -264 C 1001 -292 996 -319 987 -343 C 978 -367 963 -388 943 -406 Z" unicode="Ş" />
<glyph horiz-adv-x="1069" d="M 761 -406 C 740 -423 712 -436 678 -446 C 644 -456 601 -461 551 -461 C 499 -461 455 -455 417 -444 C 379 -432 344 -418 313 -401 L 360 -315 C 387 -329 416 -341 447 -349 C 478 -357 511 -362 545 -362 C 579 -362 606 -359 628 -353 C 649 -347 666 -339 678 -329 C 689 -319 697 -307 701 -294 C 705 -281 707 -268 707 -254 C 707 -235 704 -219 698 -207 C 692 -194 681 -184 667 -177 C 652 -169 632 -164 607 -162 C 582 -160 551 -160 514 -162 L 469 -129 L 489 -20 C 455 -18 420 -15 384 -11 C 348 -6 312 1 276 11 C 240 20 203 32 167 48 C 131 63 95 82 61 106 L 143 227 C 176 205 210 187 244 173 C 278 159 313 147 347 139 C 381 130 414 124 447 120 C 479 116 511 115 541 115 C 591 115 635 117 673 123 C 711 129 742 139 767 155 C 791 169 810 189 822 215 C 834 240 840 273 840 313 C 840 345 834 371 824 391 C 813 411 796 428 772 442 C 748 456 717 467 679 477 C 641 487 595 497 541 508 C 475 520 416 534 364 548 C 311 562 266 582 230 606 C 192 630 164 661 144 699 C 124 737 115 786 115 848 C 115 896 122 940 137 978 C 152 1016 177 1048 211 1075 C 245 1101 289 1122 343 1136 C 397 1150 463 1157 541 1157 C 626 1157 703 1148 772 1131 C 841 1113 902 1089 954 1059 L 881 932 C 837 955 787 974 731 990 C 674 1006 611 1014 543 1014 C 489 1014 445 1010 410 1002 C 374 994 346 984 326 970 C 304 955 289 937 281 917 C 272 896 268 873 268 848 C 268 816 273 790 284 770 C 294 749 311 732 334 718 C 356 704 385 692 421 682 C 456 672 499 663 549 653 C 617 639 679 625 733 611 C 787 597 834 579 872 556 C 910 532 939 502 959 465 C 979 428 989 379 989 319 C 989 259 981 208 965 166 C 949 124 925 90 893 64 C 860 37 819 17 769 5 C 719 -7 660 -15 592 -18 L 580 -92 C 610 -90 640 -90 669 -92 C 697 -94 723 -102 746 -114 C 768 -126 785 -143 799 -167 C 812 -191 819 -223 819 -264 C 819 -292 814 -319 805 -343 C 796 -367 781 -388 761 -406 Z" unicode="ş" />
<glyph horiz-adv-x="1440" d="M 629 1608 L 317 1927 L 473 1927 L 719 1708 L 963 1927 L 1114 1927 L 803 1608 L 629 1608 Z M 1319 426 C 1319 275 1269 163 1171 90 C 1072 16 919 -20 713 -20 C 597 -20 488 -6 384 19 C 280 45 180 90 84 154 L 166 276 C 211 247 256 223 302 204 C 347 184 392 169 438 157 C 482 145 527 136 572 131 C 617 125 663 123 709 123 C 787 123 854 128 911 140 C 968 151 1015 169 1053 193 C 1089 217 1116 247 1134 285 C 1152 323 1161 368 1161 420 C 1161 474 1150 517 1128 550 C 1106 582 1076 609 1037 630 C 997 650 950 666 894 678 C 838 690 777 703 709 715 C 654 724 602 734 554 744 C 506 754 461 767 421 781 C 380 795 343 811 311 831 C 279 850 252 874 230 902 C 207 930 190 963 178 1001 C 166 1039 160 1083 160 1135 C 160 1207 171 1269 195 1321 C 218 1373 253 1415 299 1448 C 345 1480 402 1504 471 1519 C 539 1534 619 1542 709 1542 C 827 1542 930 1529 1016 1505 C 1102 1480 1176 1447 1237 1407 L 1151 1276 C 1123 1294 1093 1310 1060 1325 C 1026 1339 991 1352 954 1363 C 916 1373 876 1380 835 1386 C 793 1392 751 1395 709 1395 C 641 1395 582 1390 533 1380 C 483 1370 443 1355 412 1335 C 380 1313 356 1286 341 1254 C 326 1222 319 1183 319 1139 C 319 1091 328 1051 348 1021 C 367 990 395 965 432 946 C 468 926 513 909 566 897 C 619 884 680 872 748 860 C 830 845 907 829 977 813 C 1047 796 1107 773 1158 743 C 1208 713 1248 673 1276 623 C 1304 573 1319 507 1319 426 Z" unicode="Š" />
<glyph horiz-adv-x="1069" d="M 446 1249 L 135 1569 L 291 1569 L 537 1350 L 780 1569 L 932 1569 L 621 1249 L 446 1249 Z M 878 53 C 840 26 793 7 736 -3 C 678 -14 610 -20 532 -20 C 494 -20 456 -18 417 -14 C 377 -10 338 -4 298 6 C 258 15 218 28 178 44 C 138 60 99 80 61 106 L 143 227 C 176 205 210 187 244 173 C 278 159 313 147 347 139 C 381 130 414 124 447 120 C 479 116 511 115 541 115 C 591 115 635 117 673 123 C 711 129 742 139 767 155 C 791 169 810 189 822 215 C 834 240 840 273 840 313 C 840 345 834 371 824 391 C 813 411 796 428 772 442 C 748 456 717 467 679 477 C 641 487 595 497 541 508 C 475 520 416 534 364 548 C 311 562 266 582 230 606 C 192 630 164 661 144 699 C 124 737 115 786 115 848 C 115 896 122 940 137 978 C 152 1016 177 1048 211 1075 C 245 1101 289 1122 343 1136 C 397 1150 463 1157 541 1157 C 626 1157 703 1148 772 1131 C 841 1113 902 1089 954 1059 L 881 932 C 837 955 787 974 731 990 C 674 1006 611 1014 543 1014 C 489 1014 445 1010 410 1002 C 374 994 346 984 326 970 C 304 955 289 937 281 917 C 272 896 268 873 268 848 C 268 816 273 790 284 770 C 294 749 311 732 334 718 C 356 704 385 692 421 682 C 456 672 499 663 549 653 C 617 639 679 625 733 611 C 787 597 834 579 872 556 C 910 532 939 502 959 465 C 979 428 989 379 989 319 C 989 254 979 200 961 157 C 943 113 915 79 878 53 Z" unicode="š" />
<glyph horiz-adv-x="1409" d="M 614 1608 L 303 1927 L 459 1927 L 705 1708 L 948 1927 L 1100 1927 L 788 1608 L 614 1608 Z M 625 0 L 625 1364 L 55 1364 L 55 1518 L 1356 1518 L 1356 1364 L 786 1364 L 786 0 L 625 0 Z" unicode="Ť" />
<glyph horiz-adv-x="831" d="M 631 1335 L 592 1407 C 612 1418 628 1429 641 1439 C 654 1449 665 1459 673 1471 C 681 1482 686 1495 689 1509 C 692 1523 694 1539 694 1559 L 610 1559 L 610 1747 L 784 1747 L 784 1602 C 784 1564 781 1532 777 1506 C 773 1479 765 1456 754 1436 C 742 1416 727 1398 707 1382 C 687 1366 662 1351 631 1335 Z M 63 989 L 63 1130 L 270 1130 L 297 1470 L 420 1493 L 420 1130 L 731 1130 L 731 989 L 420 989 L 420 309 C 420 283 421 259 424 238 C 427 216 435 198 447 184 C 458 168 475 157 498 149 C 521 141 552 137 592 137 L 731 137 L 731 0 C 727 0 717 -1 702 -1 C 686 -1 670 -2 652 -2 L 567 -2 C 503 -2 452 4 413 17 C 373 29 343 48 322 73 C 300 97 285 128 277 164 C 269 200 266 243 266 291 L 266 989 L 63 989 Z" unicode="ť" />
<glyph horiz-adv-x="1409" d="" unicode="Ŧ" />
<glyph horiz-adv-x="831" d="" unicode="ŧ" />
<glyph horiz-adv-x="1593" d="" unicode="Ũ" />
<glyph horiz-adv-x="1257" d="" unicode="ũ" />
<glyph horiz-adv-x="1593" d="" unicode="Ū" />
<glyph horiz-adv-x="1257" d="" unicode="ū" />
<glyph horiz-adv-x="1593" d="" unicode="Ŭ" />
<glyph horiz-adv-x="1257" d="" unicode="ŭ" />
<glyph horiz-adv-x="1593" d="M 978 1658 C 957 1635 931 1617 901 1604 C 871 1591 835 1585 795 1585 C 751 1585 714 1591 683 1604 C 652 1617 627 1635 607 1658 C 587 1680 572 1706 563 1737 C 553 1767 549 1801 549 1837 C 549 1873 553 1906 563 1937 C 572 1967 587 1994 607 2018 C 627 2040 652 2058 683 2071 C 714 2084 751 2091 795 2091 C 835 2091 871 2084 901 2071 C 931 2058 957 2040 978 2018 C 998 1994 1013 1967 1023 1937 C 1033 1906 1038 1873 1038 1837 C 1038 1801 1033 1767 1023 1737 C 1013 1706 998 1680 978 1658 Z M 677 1724 C 689 1709 704 1697 724 1689 C 743 1681 767 1677 795 1677 C 821 1677 844 1681 863 1689 C 882 1697 898 1709 911 1724 C 923 1738 931 1754 937 1774 C 943 1793 946 1814 946 1837 C 946 1859 943 1880 937 1900 C 931 1919 923 1936 911 1951 C 898 1965 882 1976 863 1984 C 844 1992 821 1997 795 1997 C 767 1997 743 1992 724 1984 C 704 1976 689 1965 677 1951 C 664 1936 655 1919 649 1900 C 643 1880 641 1859 641 1837 C 641 1814 643 1793 649 1774 C 655 1754 664 1738 677 1724 Z M 1197 57 C 1150 31 1094 10 1028 -3 C 962 -17 884 -25 795 -25 C 705 -25 627 -17 561 -3 C 495 10 439 31 393 57 C 346 82 308 112 279 148 C 250 184 227 223 211 266 C 194 308 183 352 177 400 C 171 448 168 497 168 547 L 168 1518 L 330 1518 L 330 565 C 330 500 336 441 349 387 C 361 333 385 287 419 249 C 453 209 500 179 560 157 C 620 135 699 125 795 125 C 891 125 970 135 1032 157 C 1094 178 1142 208 1178 247 C 1212 285 1236 332 1250 386 C 1263 440 1270 499 1270 565 L 1270 1518 L 1425 1518 L 1425 547 C 1425 497 1421 448 1415 400 C 1409 352 1397 307 1381 265 C 1363 222 1340 183 1311 148 C 1281 112 1243 82 1197 57 Z" unicode="Ů" />
<glyph horiz-adv-x="1257" d="M 810 1299 C 790 1276 764 1258 734 1246 C 703 1233 667 1227 627 1227 C 583 1227 546 1233 515 1246 C 484 1258 459 1276 439 1299 C 419 1321 404 1348 395 1379 C 385 1409 381 1443 381 1479 C 381 1515 385 1548 395 1579 C 404 1609 419 1636 439 1660 C 459 1682 484 1700 515 1713 C 546 1726 583 1733 627 1733 C 667 1733 703 1726 734 1713 C 764 1700 790 1682 810 1660 C 830 1636 845 1609 855 1579 C 865 1548 870 1515 870 1479 C 870 1443 865 1409 855 1379 C 845 1348 830 1321 810 1299 Z M 509 1366 C 521 1351 536 1339 556 1331 C 575 1323 599 1319 627 1319 C 653 1319 676 1323 695 1331 C 714 1339 730 1351 743 1366 C 755 1380 763 1396 769 1416 C 775 1435 778 1456 778 1479 C 778 1501 775 1522 769 1542 C 763 1561 755 1578 743 1593 C 730 1607 714 1618 695 1626 C 676 1634 653 1638 627 1638 C 599 1638 575 1634 556 1626 C 536 1618 521 1607 509 1593 C 496 1578 487 1561 481 1542 C 475 1522 473 1501 473 1479 C 473 1456 475 1435 481 1416 C 487 1396 496 1380 509 1366 Z M 950 39 C 914 19 871 5 819 -5 C 767 -15 705 -20 633 -20 C 559 -20 497 -15 445 -5 C 393 5 349 19 313 39 C 277 58 248 82 227 110 C 205 138 189 170 178 206 C 166 241 159 280 155 324 C 151 368 150 415 150 465 L 150 1130 L 303 1130 L 303 461 C 303 429 303 399 304 371 C 305 342 309 315 315 290 C 321 264 330 241 344 221 C 357 200 376 182 401 168 C 425 152 455 141 493 133 C 531 125 577 121 633 121 C 687 121 733 125 771 133 C 808 141 839 152 863 168 C 886 182 904 200 917 221 C 930 242 940 266 946 292 C 951 318 954 345 955 375 C 955 405 956 436 956 469 L 956 1130 L 1108 1130 L 1108 471 C 1108 419 1106 372 1103 328 C 1099 284 1092 244 1082 208 C 1070 171 1054 138 1034 110 C 1013 82 985 58 950 39 Z" unicode="ů" />
<glyph horiz-adv-x="1593" d="M 881 1608 L 1139 1925 L 1321 1925 L 1020 1608 L 881 1608 Z M 416 1608 L 674 1925 L 858 1925 L 555 1608 L 416 1608 Z M 1197 57 C 1150 31 1094 10 1028 -3 C 962 -17 884 -25 795 -25 C 705 -25 627 -17 561 -3 C 495 10 439 31 393 57 C 346 82 308 112 279 148 C 250 184 227 223 211 266 C 194 308 183 352 177 400 C 171 448 168 497 168 547 L 168 1518 L 330 1518 L 330 565 C 330 500 336 441 349 387 C 361 333 385 287 419 249 C 453 209 500 179 560 157 C 620 135 699 125 795 125 C 891 125 970 135 1032 157 C 1094 178 1142 208 1178 247 C 1212 285 1236 332 1250 386 C 1263 440 1270 499 1270 565 L 1270 1518 L 1425 1518 L 1425 547 C 1425 497 1421 448 1415 400 C 1409 352 1397 307 1381 265 C 1363 222 1340 183 1311 148 C 1281 112 1243 82 1197 57 Z" unicode="Ű" />
<glyph horiz-adv-x="1257" d="M 713 1249 L 971 1567 L 1153 1567 L 852 1249 L 713 1249 Z M 248 1249 L 506 1567 L 690 1567 L 387 1249 L 248 1249 Z M 950 39 C 914 19 871 5 819 -5 C 767 -15 705 -20 633 -20 C 559 -20 497 -15 445 -5 C 393 5 349 19 313 39 C 277 58 248 82 227 110 C 205 138 189 170 178 206 C 166 241 159 280 155 324 C 151 368 150 415 150 465 L 150 1130 L 303 1130 L 303 461 C 303 429 303 399 304 371 C 305 342 309 315 315 290 C 321 264 330 241 344 221 C 357 200 376 182 401 168 C 425 152 455 141 493 133 C 531 125 577 121 633 121 C 687 121 733 125 771 133 C 808 141 839 152 863 168 C 886 182 904 200 917 221 C 930 242 940 266 946 292 C 951 318 954 345 955 375 C 955 405 956 436 956 469 L 956 1130 L 1108 1130 L 1108 471 C 1108 419 1106 372 1103 328 C 1099 284 1092 244 1082 208 C 1070 171 1054 138 1034 110 C 1013 82 985 58 950 39 Z" unicode="ű" />
<glyph horiz-adv-x="1593" d="" unicode="Ų" />
<glyph horiz-adv-x="1257" d="" unicode="ų" />
<glyph horiz-adv-x="2218" d="" unicode="Ŵ" />
<glyph horiz-adv-x="1794" d="" unicode="ŵ" />
<glyph horiz-adv-x="1434" d="" unicode="Ŷ" />
<glyph horiz-adv-x="1085" d="" unicode="ŷ" />
<glyph horiz-adv-x="1434" d="M 860 1612 L 860 1821 L 1001 1821 L 1001 1612 L 860 1612 Z M 428 1612 L 428 1821 L 571 1821 L 571 1612 L 428 1612 Z M 637 0 L 637 590 L 27 1518 L 203 1518 L 719 735 L 1239 1518 L 1405 1518 L 797 592 L 797 0 L 637 0 Z" unicode="Ÿ" />
<glyph horiz-adv-x="1362" d="M 522 1608 L 831 1927 L 1022 1927 L 670 1608 L 522 1608 Z M 92 0 L 92 129 L 1042 1364 L 127 1364 L 127 1518 L 1241 1518 L 1241 1378 L 295 147 L 1264 147 L 1264 0 L 92 0 Z" unicode="Ź" />
<glyph horiz-adv-x="1028" d="M 358 1249 L 668 1569 L 858 1569 L 506 1249 L 358 1249 Z M 68 0 L 68 117 L 743 989 L 102 989 L 102 1130 L 942 1130 L 942 1012 L 266 133 L 965 133 L 965 0 L 68 0 Z" unicode="ź" />
<glyph horiz-adv-x="1362" d="M 602 1606 L 602 1825 L 758 1825 L 758 1606 L 602 1606 Z M 92 0 L 92 129 L 1042 1364 L 127 1364 L 127 1518 L 1241 1518 L 1241 1378 L 295 147 L 1264 147 L 1264 0 L 92 0 Z" unicode="Ż" />
<glyph horiz-adv-x="1028" d="M 438 1247 L 438 1466 L 594 1466 L 594 1247 L 438 1247 Z M 68 0 L 68 117 L 743 989 L 102 989 L 102 1130 L 942 1130 L 942 1012 L 266 133 L 965 133 L 965 0 L 68 0 Z" unicode="ż" />
<glyph horiz-adv-x="1362" d="M 592 1608 L 281 1927 L 436 1927 L 682 1708 L 926 1927 L 1077 1927 L 766 1608 L 592 1608 Z M 92 0 L 92 129 L 1042 1364 L 127 1364 L 127 1518 L 1241 1518 L 1241 1378 L 295 147 L 1264 147 L 1264 0 L 92 0 Z" unicode="Ž" />
<glyph horiz-adv-x="1028" d="M 428 1249 L 117 1569 L 272 1569 L 518 1350 L 762 1569 L 913 1569 L 602 1249 L 428 1249 Z M 68 0 L 68 117 L 743 989 L 102 989 L 102 1130 L 942 1130 L 942 1012 L 266 133 L 965 133 L 965 0 L 68 0 Z" unicode="ž" />
<glyph horiz-adv-x="786" d="" unicode="ſ" />
<glyph horiz-adv-x="1085" d="M 180 782 L 180 924 L 426 924 L 483 1192 C 492 1237 503 1279 516 1319 C 528 1359 548 1393 574 1423 C 600 1452 635 1475 679 1492 C 723 1509 782 1518 854 1518 L 920 1518 L 920 1372 L 862 1372 C 816 1372 780 1366 752 1354 C 724 1342 703 1326 687 1306 C 670 1285 658 1261 650 1234 C 642 1207 635 1179 629 1149 L 580 924 L 920 924 L 920 782 L 551 782 L 313 -340 L 158 -340 L 395 782 L 180 782 Z" unicode="ƒ" />
<glyph horiz-adv-x="995" d="" unicode="⁄" />
<glyph horiz-adv-x="1708" d="" unicode="Ơ" />
<glyph horiz-adv-x="1305" d="" unicode="ơ" />
<glyph horiz-adv-x="2718" d="M 2513 1067 C 2513 910 2476 791 2403 711 C 2329 630 2219 590 2073 590 C 1924 590 1814 630 1742 711 C 1670 791 1634 910 1634 1067 C 1634 1223 1670 1342 1742 1422 C 1814 1502 1924 1542 2073 1542 C 2221 1542 2331 1502 2404 1422 C 2476 1342 2513 1224 2513 1067 Z M 1767 1065 C 1767 949 1792 861 1842 801 C 1892 741 1969 711 2073 711 C 2176 711 2253 741 2304 801 C 2354 861 2380 949 2380 1065 C 2380 1180 2354 1267 2304 1326 C 2253 1385 2176 1415 2073 1415 C 1969 1415 1892 1385 1842 1326 C 1792 1267 1767 1180 1767 1065 Z M 178 0 L 178 1518 L 354 1518 L 1266 274 L 1266 1518 L 1417 1518 L 1417 0 L 1270 0 L 330 1282 L 330 0 L 178 0 Z M 1690 305 L 1690 428 L 2458 428 L 2458 305 L 1690 305 Z" unicode="№" />
<glyph horiz-adv-x="1618" d="" unicode="Ư" />
<glyph horiz-adv-x="1325" d="" unicode="ư" />
<glyph horiz-adv-x="1487" d="" unicode="Ǻ" />
<glyph horiz-adv-x="1270" d="" unicode="ǻ" />
<glyph horiz-adv-x="2191" d="" unicode="Ǽ" />
<glyph horiz-adv-x="2017" d="" unicode="ǽ" />
<glyph horiz-adv-x="1708" d="" unicode="Ǿ" />
<glyph horiz-adv-x="1292" d="" unicode="ǿ" />
<glyph horiz-adv-x="1292" d="" unicode="∂" />
<glyph horiz-adv-x="1446" d="" unicode="∏" />
<glyph horiz-adv-x="1339" d="" unicode="∑" />
<glyph horiz-adv-x="1425" d="" unicode="−" />
<glyph horiz-adv-x="1440" d="" unicode="Ș" />
<glyph horiz-adv-x="1069" d="" unicode="ș" />
<glyph horiz-adv-x="1409" d="" unicode="Ț" />
<glyph horiz-adv-x="831" d="" unicode="ț" />
<glyph horiz-adv-x="1757" d="" unicode="∞" />
<glyph horiz-adv-x="786" d="" unicode="∫" />
<glyph horiz-adv-x="1425" d="" unicode="≈" />
<glyph horiz-adv-x="1425" d="" unicode="≠" />
<glyph horiz-adv-x="1425" d="" unicode="≤" />
<glyph horiz-adv-x="1425" d="" unicode="≥" />
<glyph horiz-adv-x="1092" d="M 835 715 C 807 672 770 639 723 615 C 676 591 617 580 545 580 C 473 580 413 591 367 615 C 320 639 283 672 257 715 C 229 757 210 807 200 866 C 189 924 184 989 184 1059 C 184 1128 189 1192 200 1250 C 210 1308 229 1359 257 1401 C 283 1443 320 1475 367 1499 C 413 1522 473 1534 545 1534 C 617 1534 676 1522 723 1499 C 770 1475 807 1443 835 1401 C 861 1359 880 1308 891 1250 C 901 1192 907 1128 907 1059 C 907 989 901 924 891 866 C 880 807 861 757 835 715 Z M 349 791 C 365 758 388 733 420 715 C 451 697 493 688 545 688 C 597 688 638 697 670 715 C 701 733 725 758 742 791 C 758 823 769 861 774 907 C 779 953 782 1003 782 1059 C 782 1113 779 1162 774 1207 C 769 1251 758 1290 742 1322 C 725 1353 701 1377 670 1395 C 638 1412 597 1421 545 1421 C 493 1421 451 1412 420 1395 C 388 1377 365 1353 349 1322 C 332 1290 321 1251 316 1207 C 311 1162 309 1113 309 1059 C 309 1003 311 953 316 907 C 321 861 332 823 349 791 Z" unicode="⁰" />
<glyph horiz-adv-x="1012" d="M 147 803 L 147 905 L 561 1518 L 698 1518 L 285 907 L 608 907 L 631 1202 L 729 1202 L 729 907 L 887 907 L 887 803 L 729 803 L 729 592 L 608 592 L 608 803 L 147 803 Z" unicode="⁴" />
<glyph horiz-adv-x="997" d="M 754 640 C 722 617 683 602 639 594 C 594 586 545 582 492 582 C 454 582 420 584 388 589 C 356 593 326 600 299 608 C 271 615 245 624 221 634 C 197 644 174 656 154 668 L 219 766 C 256 745 295 727 337 712 C 379 697 427 690 483 690 C 521 690 555 692 586 698 C 616 703 642 713 664 729 C 685 743 701 764 713 792 C 725 819 731 855 731 899 C 731 941 725 976 714 1004 C 703 1031 688 1052 668 1068 C 648 1083 623 1093 595 1099 C 566 1105 534 1108 498 1108 C 454 1108 418 1105 388 1099 C 358 1093 329 1084 301 1071 L 201 1098 L 225 1518 L 786 1518 L 786 1409 L 332 1409 L 317 1180 C 345 1190 375 1197 409 1203 C 442 1209 480 1212 522 1212 C 568 1212 612 1208 653 1200 C 693 1192 729 1176 759 1154 C 789 1131 812 1099 830 1058 C 847 1017 856 964 856 899 C 856 831 847 777 829 736 C 811 694 786 662 754 640 Z" unicode="⁵" />
<glyph horiz-adv-x="1044" d="M 813 668 C 787 639 752 617 709 602 C 665 587 611 580 547 580 C 485 580 432 586 386 600 C 340 614 301 636 271 668 C 240 698 217 739 201 789 C 185 839 178 901 178 975 C 178 1069 186 1151 203 1219 C 219 1287 248 1344 288 1389 C 328 1433 381 1465 447 1486 C 513 1507 596 1518 696 1518 L 739 1518 L 739 1409 L 692 1409 C 620 1409 561 1403 515 1391 C 468 1379 430 1362 401 1339 C 371 1315 349 1286 335 1250 C 320 1214 309 1172 303 1124 C 328 1161 364 1187 410 1203 C 456 1219 510 1227 573 1227 C 633 1227 684 1219 724 1205 C 764 1190 797 1169 821 1142 C 844 1114 860 1080 870 1041 C 880 1001 885 957 885 907 C 885 856 879 810 868 770 C 857 730 839 696 813 668 Z M 368 736 C 388 716 413 701 443 693 C 473 684 507 680 547 680 C 591 680 627 685 655 696 C 683 706 705 721 721 741 C 736 760 747 784 753 812 C 759 840 762 871 762 905 C 762 939 759 969 753 997 C 747 1024 736 1047 720 1067 C 704 1086 682 1101 654 1112 C 626 1122 590 1128 547 1128 C 510 1128 477 1124 447 1116 C 417 1108 392 1097 372 1081 C 350 1065 334 1044 322 1020 C 310 995 305 966 305 932 C 305 884 310 845 321 813 C 331 781 347 755 368 736 Z" unicode="⁶" />
<glyph horiz-adv-x="1208" d="M 205 1249 L 516 1569 L 690 1569 L 1001 1249 L 846 1249 L 600 1468 L 358 1249 L 205 1249 Z" unicode="ˆ" />
<glyph horiz-adv-x="1208" d="M 516 1249 L 205 1569 L 360 1569 L 606 1350 L 850 1569 L 1001 1569 L 690 1249 L 516 1249 Z" unicode="ˇ" />
<glyph horiz-adv-x="844" d="M 244 592 L 600 1405 L 109 1405 L 109 1518 L 739 1518 L 739 1419 L 377 592 L 244 592 Z" unicode="⁷" />
<glyph horiz-adv-x="1063" d="M 809 653 C 779 629 742 610 696 598 C 650 586 594 580 530 580 C 465 580 410 586 364 598 C 318 610 281 629 253 653 C 223 677 202 706 188 740 C 174 774 168 814 168 858 C 168 920 180 972 204 1013 C 228 1054 268 1084 326 1104 C 301 1112 280 1123 264 1136 C 248 1148 235 1163 226 1180 C 216 1196 209 1215 205 1236 C 201 1256 199 1279 199 1305 C 199 1340 204 1372 215 1400 C 225 1428 243 1453 269 1473 C 294 1493 328 1508 371 1519 C 413 1530 466 1536 530 1536 C 593 1536 646 1530 689 1519 C 731 1508 766 1493 792 1473 C 818 1453 836 1428 847 1400 C 858 1372 864 1340 864 1305 C 864 1279 861 1256 857 1235 C 853 1214 846 1195 836 1179 C 826 1161 812 1146 796 1134 C 779 1121 758 1110 733 1102 C 791 1083 833 1053 858 1012 C 882 971 895 920 895 858 C 895 814 888 774 874 740 C 860 706 838 677 809 653 Z M 367 1179 C 383 1166 404 1156 431 1150 C 457 1144 490 1141 530 1141 C 569 1141 602 1144 629 1150 C 656 1156 678 1166 695 1179 C 711 1191 722 1206 730 1225 C 737 1243 741 1265 741 1290 C 741 1314 737 1335 730 1353 C 722 1371 711 1387 695 1399 C 678 1411 656 1420 629 1426 C 602 1432 569 1436 530 1436 C 490 1436 457 1432 431 1426 C 404 1420 383 1411 367 1399 C 351 1387 339 1371 332 1353 C 325 1335 322 1314 322 1290 C 322 1265 325 1243 332 1225 C 339 1206 351 1191 367 1179 Z M 293 866 C 293 802 311 755 349 724 C 387 693 447 678 530 678 C 612 678 673 693 712 724 C 750 754 770 802 770 866 C 770 928 750 975 712 1005 C 673 1035 612 1051 530 1051 C 447 1051 387 1035 349 1005 C 311 975 293 928 293 866 Z" unicode="⁸" />
<glyph horiz-adv-x="1044" d="M 309 592 L 309 698 L 356 698 C 426 698 485 704 533 716 C 580 728 618 747 648 772 C 677 796 699 826 715 862 C 730 898 741 941 748 989 C 720 951 684 923 639 907 C 593 891 539 883 475 883 C 413 883 363 890 323 905 C 283 919 251 941 227 969 C 203 996 186 1029 176 1069 C 166 1109 162 1154 162 1204 C 162 1254 167 1300 178 1341 C 189 1381 208 1416 235 1445 C 261 1473 295 1494 339 1509 C 382 1524 436 1532 502 1532 C 562 1532 616 1525 662 1511 C 708 1497 746 1474 777 1443 C 807 1411 830 1371 846 1321 C 862 1271 870 1209 870 1137 C 870 1041 861 959 845 891 C 828 822 800 766 761 722 C 721 677 667 644 601 623 C 535 602 452 592 354 592 L 309 592 Z M 329 1039 C 345 1019 367 1004 395 994 C 423 984 458 979 502 979 C 538 979 570 982 600 990 C 630 998 655 1010 676 1026 C 696 1042 712 1062 724 1087 C 735 1111 741 1140 741 1174 C 741 1221 735 1261 725 1293 C 715 1325 700 1352 680 1372 C 659 1391 634 1405 604 1414 C 574 1422 540 1427 502 1427 C 458 1427 422 1421 394 1411 C 366 1400 344 1385 328 1366 C 311 1346 300 1323 294 1295 C 288 1267 285 1236 285 1202 C 285 1168 288 1137 294 1109 C 300 1081 312 1058 329 1039 Z" unicode="⁹" />
<glyph horiz-adv-x="1208" d="M 884 1320 C 854 1292 817 1269 772 1253 C 726 1237 670 1229 604 1229 C 536 1229 480 1237 435 1253 C 389 1269 352 1291 324 1319 C 294 1346 272 1378 256 1415 C 240 1451 229 1490 221 1532 L 340 1556 C 346 1528 354 1503 365 1479 C 376 1455 392 1434 412 1416 C 431 1398 456 1383 487 1373 C 518 1363 557 1358 604 1358 C 650 1358 688 1363 719 1373 C 749 1383 775 1398 795 1416 C 815 1434 830 1455 841 1479 C 852 1503 861 1528 868 1556 L 989 1534 C 979 1492 967 1453 951 1416 C 935 1379 912 1347 884 1320 Z" unicode="˘" />
<glyph horiz-adv-x="1208" d="M 526 1247 L 526 1466 L 682 1466 L 682 1247 L 526 1247 Z" unicode="˙" />
<glyph horiz-adv-x="1208" d="" unicode="˚" />
</font>
</defs>
</svg>
