<?xml version="1.0" standalone="yes"?><svg version="1.1" xmlns = 'http://www.w3.org/2000/svg'><defs><font id='web' horiz-adv-x="1000">
<font-face font-family="web" descent="-410" cap-height="1518" units-per-em="2048" bbox="-172,-547,3205,2507" x-height="1139" ascent="1638" />
<missing-glyph horiz-adv-x="1024" d="" /><glyph horiz-adv-x="1460" d="M 98 735 L 1362 735 L 1362 549 L 98 549 L 98 735 Z" unicode="–" />
<glyph horiz-adv-x="1909" d="M 98 735 L 1810 735 L 1810 549 L 98 549 L 98 735 Z" unicode="—" />
<glyph horiz-adv-x="518" d="M 133 1174 C 133 1222 135 1264 141 1299 C 146 1334 156 1365 172 1391 C 186 1417 207 1440 233 1461 C 259 1481 294 1502 336 1524 L 389 1417 C 363 1403 342 1390 326 1378 C 309 1366 296 1354 287 1342 C 277 1328 271 1314 267 1298 C 263 1282 262 1264 262 1243 L 383 1243 L 383 969 L 133 969 L 133 1174 Z" unicode="‘" />
<glyph horiz-adv-x="518" d="M 129 1069 C 154 1082 175 1094 191 1106 C 207 1117 221 1129 231 1143 C 240 1155 246 1169 250 1185 C 254 1201 256 1219 256 1241 L 133 1241 L 133 1518 L 383 1518 L 383 1315 C 383 1265 380 1222 375 1187 C 369 1151 360 1121 346 1095 C 331 1068 310 1044 284 1024 C 258 1003 224 983 182 963 L 129 1069 Z" unicode="’" />
<glyph horiz-adv-x="518" d="M 129 -147 C 154 -133 175 -120 191 -109 C 207 -97 221 -85 231 -73 C 240 -59 246 -45 250 -29 C 254 -13 256 6 256 29 L 133 29 L 133 301 L 383 301 L 383 96 C 383 50 380 10 375 -24 C 369 -58 360 -89 346 -117 C 331 -143 310 -167 284 -189 C 258 -211 224 -232 182 -252 L 129 -147 Z" unicode="‚" />
<glyph horiz-adv-x="918" d="M 133 1174 C 133 1222 135 1263 141 1297 C 146 1331 156 1362 171 1388 C 185 1414 206 1437 232 1457 C 258 1477 292 1498 334 1518 L 385 1413 C 359 1399 338 1387 322 1376 C 306 1364 293 1353 284 1341 C 274 1328 268 1314 265 1298 C 261 1282 260 1264 260 1243 L 379 1243 L 379 975 L 133 975 L 133 1174 Z M 541 1174 C 541 1222 543 1263 548 1297 C 553 1331 563 1362 577 1388 C 591 1414 610 1437 636 1457 C 662 1477 695 1498 737 1518 L 791 1413 C 765 1399 743 1387 727 1376 C 711 1364 698 1353 689 1341 C 679 1328 673 1314 669 1298 C 665 1282 664 1264 664 1243 L 782 1243 L 782 975 L 541 975 L 541 1174 Z" unicode="“" />
<glyph horiz-adv-x="918" d="M 129 1077 C 153 1090 174 1102 190 1114 C 206 1125 219 1137 229 1150 C 238 1162 244 1176 248 1192 C 252 1208 254 1227 254 1249 L 133 1249 L 133 1518 L 379 1518 L 379 1317 C 379 1269 376 1227 371 1193 C 365 1159 356 1129 342 1104 C 327 1078 307 1055 281 1035 C 255 1015 221 995 180 975 L 129 1077 Z M 530 1077 C 556 1090 577 1102 594 1114 C 610 1125 624 1137 634 1150 C 643 1162 649 1176 653 1192 C 657 1208 659 1227 659 1249 L 541 1249 L 541 1518 L 782 1518 L 782 1317 C 782 1269 779 1227 774 1193 C 769 1159 760 1129 746 1104 C 731 1078 711 1055 685 1035 C 659 1015 626 995 586 975 L 530 1077 Z" unicode="”" />
<glyph horiz-adv-x="918" d="M 129 -143 C 153 -130 174 -118 190 -107 C 206 -96 219 -84 229 -72 C 238 -59 244 -45 248 -29 C 252 -13 254 6 254 29 L 133 29 L 133 295 L 379 295 L 379 96 C 379 50 376 11 371 -22 C 365 -56 356 -86 342 -113 C 327 -139 307 -163 281 -185 C 255 -206 221 -226 180 -246 L 129 -143 Z M 530 -143 C 556 -130 577 -118 594 -107 C 610 -96 624 -84 634 -72 C 643 -59 649 -45 653 -29 C 657 -13 659 6 659 29 L 541 29 L 541 295 L 782 295 L 782 96 C 782 50 779 11 774 -22 C 769 -56 760 -86 746 -113 C 731 -139 711 -163 685 -185 C 659 -206 626 -226 586 -246 L 530 -143 Z" unicode="„" />
<glyph horiz-adv-x="471" d="" unicode=" " />
<glyph horiz-adv-x="758" d="M 254 266 L 502 266 L 502 0 L 254 0 L 254 266 Z M 268 1518 L 487 1518 L 465 434 L 291 434 L 268 1518 Z" unicode="!" />
<glyph horiz-adv-x="1034" d="M 195 1518 L 399 1518 L 387 897 L 209 897 L 195 1518 Z M 635 1518 L 842 1518 L 827 897 L 649 897 L 635 1518 Z" unicode="&#x22;" />
<glyph horiz-adv-x="1542" d="M 371 428 L 129 428 L 129 610 L 403 610 L 457 889 L 129 889 L 129 1073 L 492 1073 L 580 1518 L 770 1518 L 682 1073 L 979 1073 L 1065 1518 L 1255 1518 L 1171 1073 L 1415 1073 L 1415 889 L 1137 889 L 1081 610 L 1415 610 L 1415 428 L 1049 428 L 965 0 L 774 0 L 856 428 L 561 428 L 479 0 L 287 0 L 371 428 Z M 901 600 L 961 901 L 639 901 L 580 600 L 901 600 Z" unicode="#" />
<glyph horiz-adv-x="1372" d="M 602 2 C 559 4 517 8 475 14 C 433 20 392 29 352 41 C 311 52 271 67 232 85 C 192 103 154 126 117 152 L 211 299 C 245 276 279 257 312 241 C 345 225 378 213 411 203 C 443 193 476 185 509 180 C 542 174 576 171 610 170 L 610 711 C 552 722 498 736 446 752 C 394 768 349 790 310 820 C 270 848 239 886 216 932 C 193 978 182 1038 182 1110 C 182 1240 216 1337 285 1402 C 353 1467 459 1505 602 1516 L 602 1655 L 784 1655 L 784 1516 C 862 1509 933 1496 995 1477 C 1057 1457 1111 1433 1157 1405 L 1063 1249 C 1027 1272 984 1291 934 1305 C 884 1319 832 1329 778 1335 L 778 860 C 818 852 858 843 897 833 C 935 823 972 811 1006 797 C 1040 783 1071 766 1099 746 C 1127 726 1151 702 1171 674 C 1191 646 1206 613 1218 575 C 1229 537 1235 494 1235 444 C 1235 312 1199 209 1127 135 C 1055 60 940 16 784 4 L 784 -193 L 602 -193 L 602 2 Z M 1044 430 C 1044 468 1038 501 1027 528 C 1015 555 999 578 977 597 C 954 615 926 631 893 644 C 859 656 821 668 778 678 L 778 172 C 873 182 941 209 982 253 C 1023 296 1044 355 1044 430 Z M 375 1118 C 375 1084 380 1055 390 1031 C 400 1007 416 986 436 970 C 456 952 480 938 509 926 C 538 914 572 904 610 895 L 610 1337 C 565 1333 528 1325 498 1314 C 468 1302 444 1287 426 1269 C 407 1250 394 1228 386 1203 C 378 1178 375 1150 375 1118 Z" unicode="$" />
<glyph horiz-adv-x="2347" d="M 514 569 C 438 569 374 580 320 603 C 266 626 221 659 187 702 C 151 744 125 795 109 855 C 92 915 84 981 84 1055 C 84 1127 92 1194 109 1254 C 125 1314 151 1365 187 1408 C 221 1450 266 1483 320 1507 C 374 1530 438 1542 514 1542 C 588 1542 651 1530 705 1507 C 758 1483 802 1450 837 1408 C 871 1365 896 1314 913 1254 C 929 1194 938 1127 938 1055 C 938 981 929 915 913 855 C 896 795 871 744 837 702 C 802 659 758 626 705 603 C 651 580 588 569 514 569 Z M 514 729 C 560 729 599 737 631 753 C 662 769 687 792 707 822 C 725 850 739 884 747 924 C 755 964 760 1007 760 1055 C 760 1101 755 1144 747 1183 C 739 1222 725 1256 706 1285 C 686 1313 661 1336 630 1352 C 598 1368 560 1376 514 1376 C 466 1376 427 1368 395 1352 C 363 1336 338 1314 319 1286 C 299 1257 284 1223 276 1184 C 268 1144 264 1101 264 1055 C 264 1007 268 964 276 924 C 284 884 298 850 318 822 C 337 792 363 769 395 753 C 427 737 466 729 514 729 Z M 1833 -20 C 1759 -20 1695 -8 1641 14 C 1587 37 1543 70 1509 113 C 1474 155 1448 206 1432 266 C 1415 326 1407 393 1407 467 C 1407 539 1415 605 1432 665 C 1448 725 1474 776 1509 819 C 1543 861 1587 894 1641 918 C 1695 942 1759 954 1833 954 C 1907 954 1971 942 2025 918 C 2079 894 2123 861 2159 819 C 2193 776 2219 725 2236 665 C 2252 605 2261 539 2261 467 C 2261 393 2252 326 2236 266 C 2219 206 2193 155 2159 113 C 2123 70 2079 37 2025 14 C 1971 -8 1907 -20 1833 -20 Z M 1833 139 C 1879 139 1918 147 1950 164 C 1982 180 2007 203 2027 233 C 2045 261 2059 296 2067 336 C 2075 376 2079 419 2079 467 C 2079 513 2075 555 2067 594 C 2059 633 2045 667 2027 696 C 2007 724 1982 746 1950 762 C 1918 778 1879 786 1833 786 C 1787 786 1748 778 1717 762 C 1685 746 1660 725 1641 697 C 1621 668 1607 634 1599 595 C 1591 556 1587 513 1587 467 C 1587 419 1591 376 1599 336 C 1607 296 1621 261 1641 233 C 1659 203 1684 180 1716 164 C 1747 147 1786 139 1833 139 Z M 1501 1520 L 1690 1520 L 842 0 L 653 0 L 1501 1520 Z" unicode="%" />
<glyph horiz-adv-x="1647" d="M 616 -20 C 521 -20 440 -11 374 4 C 307 20 253 46 211 81 C 169 115 138 160 119 214 C 99 268 90 334 90 410 C 90 467 98 518 116 564 C 134 609 157 650 187 687 C 216 723 250 755 289 783 C 327 811 368 836 410 860 C 384 918 365 976 352 1034 C 338 1091 332 1146 332 1200 C 332 1258 340 1309 357 1352 C 373 1395 397 1431 428 1459 C 458 1487 494 1507 538 1521 C 581 1535 630 1542 684 1542 C 792 1542 874 1515 928 1461 C 982 1407 1010 1320 1010 1200 C 1010 1146 1000 1098 980 1057 C 960 1016 934 979 902 947 C 869 914 832 885 790 859 C 748 833 706 808 662 784 C 696 725 734 668 777 614 C 819 560 865 510 913 465 C 937 442 959 421 981 403 C 1003 384 1024 366 1044 350 C 1088 412 1127 488 1159 578 C 1191 667 1223 771 1255 891 L 1425 850 C 1392 722 1357 609 1321 510 C 1285 410 1242 325 1192 254 C 1224 236 1253 223 1281 213 C 1309 203 1335 196 1361 192 C 1385 186 1409 183 1432 182 C 1455 180 1477 180 1499 180 L 1520 180 L 1520 0 L 1493 0 C 1455 0 1419 1 1384 4 C 1348 6 1313 12 1279 20 C 1243 28 1208 39 1172 53 C 1136 67 1098 87 1059 111 C 1003 67 939 34 867 12 C 795 -9 712 -20 616 -20 Z M 616 147 C 676 147 730 152 778 164 C 826 176 869 193 907 217 C 884 236 860 257 836 279 C 812 301 787 324 762 350 C 708 402 657 458 611 519 C 564 579 522 642 485 707 C 457 688 430 668 406 648 C 382 628 361 606 343 583 C 325 559 310 533 300 505 C 290 477 285 447 285 414 C 285 373 289 336 297 304 C 305 271 320 243 344 220 C 367 196 400 178 444 166 C 487 153 544 147 616 147 Z M 522 1200 C 522 1158 527 1115 539 1069 C 551 1023 567 976 588 928 C 622 946 653 964 683 984 C 713 1003 739 1024 762 1046 C 784 1068 801 1091 814 1117 C 827 1142 834 1170 834 1200 C 834 1228 831 1252 826 1273 C 821 1294 813 1312 802 1326 C 790 1339 774 1349 755 1356 C 735 1362 712 1366 684 1366 C 627 1366 586 1352 560 1325 C 534 1298 522 1256 522 1200 Z" unicode="&#x26;" />
<glyph horiz-adv-x="596" d="M 195 1520 L 399 1520 L 387 897 L 209 897 L 195 1520 Z" unicode="'" />
<glyph horiz-adv-x="1001" d="M 662 -381 C 612 -340 562 -288 510 -225 C 458 -162 412 -89 370 -6 C 327 78 292 172 265 276 C 238 380 225 493 225 616 C 225 732 238 841 265 945 C 292 1049 327 1144 370 1231 C 412 1317 458 1394 510 1460 C 562 1526 612 1580 662 1622 L 805 1518 C 761 1476 717 1427 673 1370 C 629 1313 589 1248 553 1174 C 517 1099 487 1015 464 923 C 441 830 430 728 430 616 C 430 503 442 400 466 307 C 490 213 520 129 557 55 C 593 -19 634 -84 678 -140 C 722 -196 764 -242 805 -279 L 662 -381 Z" unicode="(" />
<glyph horiz-adv-x="1001" d="M 199 -279 C 241 -237 283 -188 327 -132 C 371 -76 411 -11 447 62 C 483 135 512 217 535 309 C 557 401 569 503 569 616 C 569 728 557 831 533 925 C 509 1019 480 1105 444 1181 C 407 1256 367 1322 324 1378 C 280 1434 239 1481 199 1518 L 338 1622 C 386 1580 436 1528 488 1464 C 539 1400 586 1326 629 1242 C 671 1157 705 1062 733 957 C 760 852 774 738 774 616 C 774 538 767 464 755 392 C 742 320 725 252 704 188 C 682 123 657 62 629 5 C 600 -52 570 -105 538 -153 C 505 -201 471 -244 437 -282 C 403 -320 370 -353 338 -381 L 199 -279 Z" unicode=")" />
<glyph horiz-adv-x="1196" d="M 537 907 L 213 707 L 133 850 L 471 1024 L 133 1200 L 213 1343 L 537 1139 L 518 1520 L 676 1520 L 659 1139 L 983 1343 L 1063 1200 L 723 1024 L 1063 850 L 983 707 L 659 909 L 676 532 L 518 532 L 537 907 Z" unicode="*" />
<glyph horiz-adv-x="1440" d="M 621 627 L 211 627 L 211 817 L 621 817 L 621 1225 L 817 1225 L 817 817 L 1229 817 L 1229 627 L 817 627 L 817 219 L 621 219 L 621 627 Z" unicode="+" />
<glyph horiz-adv-x="518" d="M 129 -162 C 154 -148 175 -135 191 -124 C 207 -113 221 -102 231 -90 C 240 -78 246 -65 250 -51 C 254 -37 256 -20 256 0 L 133 0 L 133 270 L 383 270 L 383 70 C 383 22 380 -18 375 -52 C 369 -86 360 -115 346 -141 C 331 -165 310 -187 284 -207 C 258 -226 224 -246 182 -266 L 129 -162 Z" unicode="," />
<glyph horiz-adv-x="911" d="M 98 735 L 809 735 L 809 549 L 98 549 L 98 735 Z" unicode="-" />
<glyph horiz-adv-x="518" d="M 133 270 L 383 270 L 383 0 L 133 0 L 133 270 Z" unicode="." />
<glyph horiz-adv-x="1055" d="M 850 1518 L 1055 1518 L 205 0 L 0 0 L 850 1518 Z" unicode="/" />
<glyph horiz-adv-x="1518" d="M 760 -23 C 640 -23 541 -4 463 33 C 385 70 323 123 278 192 C 232 260 199 342 181 438 C 163 534 154 642 154 760 C 154 878 163 986 181 1082 C 199 1178 232 1261 278 1329 C 323 1397 385 1449 463 1486 C 541 1523 640 1542 760 1542 C 878 1542 975 1523 1053 1486 C 1131 1449 1193 1397 1239 1329 C 1284 1261 1316 1178 1334 1082 C 1352 986 1362 878 1362 760 C 1362 642 1352 534 1334 438 C 1316 342 1284 260 1239 192 C 1193 123 1131 70 1053 33 C 975 -4 878 -23 760 -23 Z M 760 162 C 844 162 912 176 964 206 C 1016 235 1056 276 1086 330 C 1114 382 1134 445 1144 519 C 1154 592 1159 672 1159 760 C 1159 848 1154 929 1144 1002 C 1134 1074 1114 1137 1086 1189 C 1056 1241 1016 1281 964 1309 C 912 1337 844 1352 760 1352 C 675 1352 606 1337 554 1309 C 502 1281 461 1241 433 1189 C 403 1137 383 1074 373 1002 C 363 929 358 848 358 760 C 358 672 363 592 373 519 C 383 445 403 382 433 330 C 461 276 502 235 554 206 C 606 176 675 162 760 162 Z" unicode="0" />
<glyph horiz-adv-x="786" d="M 354 1327 L 72 1327 L 72 1518 L 549 1518 L 549 0 L 354 0 L 354 1327 Z" unicode="1" />
<glyph horiz-adv-x="1237" d="M 74 166 L 582 653 C 639 707 688 755 728 797 C 768 838 800 877 826 913 C 850 949 868 984 880 1019 C 891 1054 897 1093 897 1137 C 897 1175 891 1208 881 1236 C 870 1264 853 1287 829 1305 C 805 1323 773 1336 734 1345 C 695 1353 648 1358 592 1358 C 550 1358 510 1355 471 1351 C 432 1346 395 1340 360 1332 C 324 1323 291 1313 261 1302 C 230 1290 203 1278 180 1266 L 92 1430 C 125 1448 159 1463 195 1477 C 231 1491 269 1503 311 1513 C 352 1522 397 1529 446 1534 C 494 1539 548 1542 608 1542 C 688 1542 759 1534 820 1520 C 881 1505 932 1482 974 1452 C 1014 1420 1045 1380 1065 1331 C 1085 1282 1096 1223 1096 1155 C 1096 1097 1089 1045 1076 998 C 1063 951 1043 905 1015 860 C 987 814 951 766 907 718 C 863 670 810 616 748 557 L 350 176 L 1118 176 L 1118 0 L 74 0 L 74 166 Z" unicode="2" />
<glyph horiz-adv-x="1274" d="M 608 -25 C 550 -25 497 -22 447 -16 C 397 -10 349 -2 303 10 C 257 22 212 37 168 56 C 124 74 79 97 35 123 L 135 283 C 175 261 214 241 252 225 C 290 209 327 196 365 186 C 402 175 440 167 479 162 C 517 156 558 154 600 154 C 661 154 714 158 758 168 C 802 177 839 193 868 216 C 896 238 916 268 930 306 C 943 344 950 391 950 449 C 950 497 944 538 934 574 C 924 610 905 639 877 663 C 848 686 809 703 759 715 C 709 727 645 733 567 733 L 342 733 L 342 911 L 563 911 C 627 911 682 915 726 923 C 770 931 805 945 833 965 C 859 983 878 1008 890 1038 C 901 1068 907 1105 907 1149 C 907 1189 901 1222 890 1250 C 879 1277 861 1299 837 1316 C 812 1332 780 1343 740 1351 C 700 1358 652 1362 596 1362 C 561 1362 525 1359 488 1355 C 451 1350 415 1343 379 1334 C 343 1324 308 1313 274 1300 C 240 1286 208 1271 180 1255 L 74 1409 C 110 1431 150 1451 193 1468 C 235 1484 280 1498 326 1510 C 372 1520 419 1528 467 1534 C 515 1539 564 1542 612 1542 C 693 1542 764 1535 826 1523 C 887 1511 938 1491 980 1463 C 1020 1435 1051 1398 1071 1352 C 1091 1306 1102 1250 1102 1184 C 1102 1081 1086 1002 1054 946 C 1022 890 975 854 915 836 C 955 826 990 810 1020 790 C 1049 770 1073 743 1092 711 C 1110 678 1123 639 1132 593 C 1140 547 1145 494 1145 434 C 1145 344 1132 270 1108 212 C 1084 153 1049 106 1003 71 C 956 35 899 10 833 -3 C 767 -17 692 -25 608 -25 Z" unicode="3" />
<glyph horiz-adv-x="1384" d="M 98 522 L 774 1518 L 991 1518 L 319 532 L 860 532 L 901 1014 L 1044 1014 L 1044 532 L 1317 532 L 1317 360 L 1044 360 L 1044 0 L 858 0 L 858 360 L 98 360 L 98 522 Z" unicode="4" />
<glyph horiz-adv-x="1323" d="M 651 -23 C 589 -23 533 -19 481 -11 C 429 -3 381 7 337 21 C 292 34 250 50 212 68 C 174 86 138 105 104 125 L 207 285 C 237 267 269 251 301 235 C 333 219 368 206 404 194 C 439 182 477 172 517 165 C 557 157 600 154 647 154 C 700 154 750 158 797 167 C 843 175 884 192 920 217 C 954 241 982 274 1002 318 C 1022 361 1032 417 1032 487 C 1032 555 1023 611 1005 655 C 987 699 961 733 929 759 C 896 783 857 800 813 810 C 768 820 719 825 666 825 C 628 825 594 823 564 821 C 534 818 505 814 479 809 C 451 803 425 795 401 787 C 377 778 352 768 328 756 L 160 807 L 199 1518 L 1120 1518 L 1120 1337 L 379 1337 L 356 938 C 391 955 439 970 500 984 C 560 997 631 1004 713 1004 C 785 1004 853 997 917 983 C 980 969 1035 943 1082 906 C 1128 868 1165 815 1192 749 C 1219 683 1233 598 1233 494 C 1233 422 1226 360 1213 307 C 1199 253 1181 208 1157 170 C 1132 131 1102 99 1068 75 C 1033 50 994 30 952 16 C 908 1 861 -8 811 -14 C 760 -20 707 -23 651 -23 Z" unicode="5" />
<glyph horiz-adv-x="1434" d="M 754 -23 C 650 -23 560 -10 484 14 C 408 38 345 77 295 130 C 244 182 206 250 182 332 C 157 414 145 512 145 627 C 145 733 150 828 161 913 C 172 998 191 1074 218 1140 C 244 1206 279 1262 323 1310 C 367 1358 421 1397 487 1428 C 551 1458 628 1481 717 1496 C 806 1510 909 1518 1026 1518 L 1110 1518 L 1110 1337 L 1020 1337 C 927 1337 847 1331 779 1320 C 711 1309 654 1294 606 1274 C 557 1254 517 1230 486 1202 C 455 1174 430 1144 412 1110 C 392 1076 378 1039 369 1001 C 359 962 352 922 348 881 C 387 930 445 966 523 988 C 601 1010 697 1022 813 1022 C 909 1022 990 1010 1055 986 C 1119 962 1171 929 1210 885 C 1248 840 1276 786 1292 723 C 1308 659 1317 588 1317 508 C 1317 425 1307 351 1288 285 C 1269 219 1238 164 1195 119 C 1151 73 1093 37 1021 13 C 949 -10 860 -23 754 -23 Z M 756 152 C 828 152 888 160 935 176 C 982 192 1019 216 1047 247 C 1074 277 1093 314 1104 357 C 1114 400 1120 448 1120 502 C 1120 555 1114 603 1103 647 C 1091 690 1072 727 1044 758 C 1016 788 978 812 932 829 C 885 845 826 854 756 854 C 695 854 640 847 590 834 C 540 821 498 802 463 776 C 427 750 399 717 379 678 C 359 638 350 592 350 539 C 350 466 359 405 377 356 C 395 306 422 267 457 237 C 491 206 534 184 584 171 C 634 158 692 152 756 152 Z" unicode="6" />
<glyph horiz-adv-x="1122" d="M 868 1337 L 39 1337 L 39 1518 L 1085 1518 L 1085 1360 L 489 0 L 281 0 L 868 1337 Z" unicode="7" />
<glyph horiz-adv-x="1448" d="M 723 -29 C 615 -29 524 -18 449 4 C 373 26 312 57 265 97 C 217 136 183 184 161 240 C 139 296 129 358 129 426 C 129 476 133 524 143 568 C 153 612 168 652 188 688 C 208 722 233 752 265 777 C 297 802 335 821 379 834 C 341 846 310 862 285 884 C 259 905 239 930 224 959 C 208 987 197 1018 190 1053 C 183 1087 180 1124 180 1163 C 180 1217 188 1268 205 1314 C 222 1360 251 1401 293 1435 C 334 1468 390 1494 460 1513 C 530 1532 617 1542 723 1542 C 829 1542 916 1532 986 1513 C 1056 1494 1112 1468 1154 1435 C 1195 1401 1224 1360 1241 1314 C 1257 1268 1266 1217 1266 1163 C 1266 1124 1262 1087 1255 1052 C 1248 1017 1237 985 1222 957 C 1206 927 1185 902 1160 881 C 1135 860 1105 844 1069 834 C 1114 820 1152 801 1184 776 C 1216 750 1242 720 1262 686 C 1282 650 1296 611 1305 567 C 1314 523 1319 476 1319 426 C 1319 358 1308 296 1286 240 C 1264 184 1230 136 1183 97 C 1135 57 1073 26 997 4 C 921 -18 830 -29 723 -29 Z M 723 143 C 861 143 961 168 1024 218 C 1086 268 1118 342 1118 440 C 1118 537 1086 611 1024 661 C 961 711 861 737 723 737 C 653 737 594 730 544 718 C 494 705 454 686 423 662 C 391 636 367 605 352 568 C 337 531 330 488 330 440 C 330 391 337 348 352 311 C 367 274 391 243 423 219 C 454 193 494 174 544 162 C 594 149 653 143 723 143 Z M 723 905 C 787 905 842 910 887 920 C 931 930 968 946 996 966 C 1023 986 1043 1010 1055 1040 C 1067 1069 1073 1103 1073 1141 C 1073 1178 1067 1211 1055 1240 C 1043 1268 1023 1293 996 1313 C 968 1332 931 1347 887 1357 C 842 1367 787 1372 723 1372 C 657 1372 602 1367 558 1357 C 514 1347 478 1332 451 1313 C 423 1293 403 1268 391 1240 C 379 1211 373 1178 373 1141 C 373 1103 379 1069 391 1040 C 403 1010 423 986 451 966 C 478 946 514 930 558 920 C 602 910 657 905 723 905 Z" unicode="8" />
<glyph horiz-adv-x="1434" d="M 330 176 L 420 176 C 513 176 594 181 662 193 C 730 204 789 220 838 240 C 886 260 925 284 956 312 C 987 340 1012 372 1031 406 C 1049 440 1063 476 1073 515 C 1082 553 1089 593 1094 635 C 1054 585 995 549 918 527 C 841 505 745 494 629 494 C 532 494 451 506 387 530 C 322 554 270 589 232 634 C 193 678 165 732 149 796 C 133 859 125 930 125 1008 C 125 1090 134 1164 153 1230 C 172 1296 204 1352 248 1399 C 291 1445 349 1480 421 1505 C 493 1529 582 1542 688 1542 C 791 1542 881 1529 957 1505 C 1033 1480 1097 1442 1147 1390 C 1197 1337 1234 1270 1259 1188 C 1283 1106 1296 1007 1296 893 C 1296 787 1290 691 1279 606 C 1268 520 1250 445 1224 379 C 1197 313 1162 256 1118 208 C 1074 160 1020 121 955 91 C 889 59 812 36 724 22 C 635 7 532 0 416 0 L 330 0 L 330 176 Z M 684 657 C 744 657 800 663 850 676 C 900 689 944 709 980 736 C 1015 762 1042 794 1062 834 C 1082 873 1092 919 1092 971 C 1092 1044 1082 1105 1064 1155 C 1046 1205 1019 1245 985 1276 C 950 1306 908 1327 858 1340 C 808 1353 751 1360 688 1360 C 614 1360 554 1351 507 1335 C 459 1319 422 1295 395 1265 C 367 1234 348 1197 338 1154 C 327 1111 322 1063 322 1010 C 322 956 327 907 339 864 C 350 820 370 783 398 753 C 425 722 462 698 509 682 C 555 665 614 657 684 657 Z" unicode="9" />
<glyph horiz-adv-x="559" d="M 154 262 L 403 262 L 403 0 L 154 0 L 154 262 Z M 154 1139 L 403 1139 L 403 877 L 154 877 L 154 1139 Z" unicode=":" />
<glyph horiz-adv-x="559" d="M 150 -162 C 175 -148 196 -135 212 -124 C 228 -113 241 -102 251 -90 C 260 -78 266 -65 270 -51 C 274 -37 276 -20 276 0 L 154 0 L 154 262 L 403 262 L 403 70 C 403 24 400 -15 395 -48 C 390 -81 380 -111 366 -137 C 351 -162 331 -185 305 -205 C 279 -225 245 -246 203 -266 L 150 -162 Z M 154 1139 L 403 1139 L 403 877 L 154 877 L 154 1139 Z" unicode=";" />
<glyph horiz-adv-x="1440" d="M 217 635 L 217 782 L 1141 1243 L 1141 1057 L 422 709 L 1141 362 L 1141 170 L 217 635 Z" unicode="&#x3C;" />
<glyph horiz-adv-x="1440" d="M 223 586 L 1219 586 L 1219 399 L 223 399 L 223 586 Z M 223 1042 L 1219 1042 L 1219 858 L 223 858 L 223 1042 Z" unicode="=" />
<glyph horiz-adv-x="1440" d="M 299 362 L 1018 707 L 299 1055 L 299 1243 L 1223 780 L 1223 633 L 299 170 L 299 362 Z" unicode="&#x3E;" />
<glyph horiz-adv-x="1380" d="M 551 414 C 543 482 540 539 543 587 C 546 635 556 677 574 713 C 591 748 616 780 650 808 C 684 836 728 864 782 893 C 828 917 866 939 896 957 C 926 975 951 993 969 1012 C 987 1030 999 1050 1007 1072 C 1014 1094 1018 1121 1018 1153 C 1018 1184 1014 1212 1007 1237 C 999 1261 984 1282 962 1300 C 938 1317 905 1330 863 1340 C 820 1349 764 1354 694 1354 C 611 1354 532 1344 458 1325 C 383 1306 314 1281 252 1249 L 168 1423 C 202 1441 240 1458 282 1473 C 324 1487 369 1500 417 1511 C 463 1521 512 1528 562 1534 C 612 1539 661 1542 709 1542 C 805 1542 885 1534 951 1519 C 1016 1504 1069 1481 1109 1451 C 1149 1420 1177 1381 1195 1334 C 1212 1287 1221 1232 1221 1169 C 1221 1116 1214 1070 1202 1032 C 1189 994 1171 960 1147 931 C 1123 901 1093 874 1058 850 C 1022 826 982 802 938 778 C 906 762 879 746 857 732 C 835 718 816 704 801 690 C 785 675 773 659 765 643 C 756 626 750 607 746 586 C 742 564 740 539 740 511 C 740 483 742 451 745 414 L 551 414 Z M 522 242 L 772 242 L 772 0 L 522 0 L 522 242 Z" unicode="?" />
<glyph horiz-adv-x="2210" d="M 1124 -338 C 964 -338 825 -319 707 -281 C 588 -243 489 -186 411 -110 C 331 -32 272 64 233 182 C 193 299 174 438 174 598 C 174 760 194 900 236 1019 C 277 1137 337 1236 417 1314 C 495 1391 592 1449 708 1487 C 823 1525 955 1544 1104 1544 C 1254 1544 1387 1525 1503 1487 C 1619 1449 1717 1391 1797 1314 C 1876 1236 1936 1137 1978 1019 C 2019 900 2040 760 2040 598 C 2040 497 2034 413 2023 345 C 2012 277 1993 222 1967 181 C 1939 139 1903 110 1857 92 C 1811 74 1753 66 1683 66 C 1625 66 1579 71 1545 81 C 1511 91 1484 104 1466 120 C 1446 135 1433 152 1426 172 C 1419 191 1415 210 1413 229 C 1397 203 1377 180 1355 161 C 1332 141 1305 125 1273 113 C 1241 99 1204 89 1162 83 C 1120 77 1071 74 1016 74 C 933 74 863 87 807 113 C 751 139 706 175 672 223 C 637 269 612 325 597 391 C 582 457 575 529 575 608 C 575 686 582 757 598 822 C 614 887 639 943 675 991 C 710 1037 756 1074 813 1100 C 870 1126 940 1139 1024 1139 C 1078 1139 1124 1136 1164 1130 C 1204 1124 1238 1116 1268 1105 C 1296 1093 1321 1078 1341 1060 C 1361 1042 1377 1020 1391 995 L 1434 1128 L 1559 1118 L 1559 352 C 1559 329 1560 307 1563 286 C 1566 265 1573 247 1585 231 C 1595 215 1611 202 1632 192 C 1653 182 1682 178 1718 178 C 1762 178 1797 185 1823 200 C 1849 214 1870 238 1885 272 C 1899 304 1908 347 1912 401 C 1916 454 1919 520 1919 598 C 1919 739 1901 861 1867 965 C 1833 1069 1782 1155 1714 1223 C 1646 1291 1561 1341 1459 1375 C 1357 1408 1239 1425 1104 1425 C 972 1425 856 1408 756 1375 C 655 1341 571 1291 503 1223 C 434 1155 382 1069 347 965 C 312 861 295 739 295 598 C 295 321 363 116 501 -18 C 638 -152 845 -219 1122 -219 C 1176 -219 1230 -216 1282 -210 C 1334 -204 1384 -196 1432 -186 C 1479 -175 1524 -163 1566 -149 C 1608 -135 1647 -119 1683 -102 L 1735 -207 C 1654 -247 1563 -278 1461 -302 C 1359 -326 1246 -338 1124 -338 Z M 1053 233 C 1107 233 1155 239 1196 253 C 1236 266 1270 287 1298 317 C 1324 346 1344 384 1358 432 C 1371 480 1378 538 1378 608 C 1378 676 1371 733 1359 779 C 1346 825 1326 863 1300 891 C 1273 919 1239 939 1198 951 C 1157 963 1109 969 1053 969 C 998 969 952 960 914 944 C 876 927 846 903 823 872 C 799 840 781 802 771 758 C 761 714 756 664 756 608 C 756 551 761 499 771 453 C 781 407 799 367 823 335 C 846 302 876 277 914 259 C 952 241 998 233 1053 233 Z" unicode="@" />
<glyph horiz-adv-x="1518" d="M 653 1528 L 864 1528 L 1473 0 L 1260 0 L 1135 319 L 377 319 L 252 0 L 45 0 L 653 1528 Z M 1061 510 L 754 1280 L 446 510 L 1061 510 Z" unicode="A" />
<glyph horiz-adv-x="1468" d="M 172 1518 L 842 1518 C 930 1518 1007 1510 1071 1495 C 1135 1480 1187 1457 1229 1427 C 1270 1395 1300 1356 1320 1309 C 1340 1262 1350 1207 1350 1143 C 1350 1099 1346 1058 1339 1020 C 1332 982 1321 949 1306 920 C 1290 890 1270 865 1246 844 C 1222 823 1193 807 1159 797 C 1201 786 1237 770 1267 750 C 1296 729 1320 703 1338 673 C 1356 641 1369 605 1377 563 C 1385 521 1389 473 1389 420 C 1389 340 1377 274 1353 221 C 1329 167 1294 124 1248 92 C 1200 58 1142 35 1072 21 C 1002 7 921 0 829 0 L 172 0 L 172 1518 Z M 852 186 C 964 186 1047 205 1100 244 C 1153 283 1180 348 1180 438 C 1180 524 1153 587 1100 626 C 1047 664 963 684 848 684 L 375 684 L 375 186 L 852 186 Z M 848 877 C 906 877 953 882 991 894 C 1029 905 1059 921 1081 943 C 1103 963 1118 988 1127 1017 C 1136 1046 1141 1078 1141 1114 C 1141 1149 1135 1180 1125 1207 C 1114 1233 1097 1256 1074 1274 C 1050 1292 1019 1305 982 1315 C 945 1324 900 1329 848 1329 L 375 1329 L 375 877 L 848 877 Z" unicode="B" />
<glyph horiz-adv-x="1497" d="M 842 -23 C 710 -23 596 -6 501 27 C 405 61 327 111 266 177 C 204 243 158 324 128 422 C 98 520 84 632 84 760 C 84 893 101 1009 135 1107 C 169 1205 220 1287 286 1352 C 351 1416 431 1463 526 1495 C 621 1526 730 1542 852 1542 C 968 1542 1071 1525 1162 1492 C 1252 1459 1332 1409 1401 1343 L 1251 1194 C 1199 1242 1140 1278 1074 1304 C 1008 1330 933 1343 850 1343 C 664 1343 525 1294 432 1197 C 339 1099 293 953 293 758 C 293 662 303 577 325 504 C 347 431 381 370 427 321 C 472 271 530 234 600 209 C 670 184 754 172 852 172 C 906 172 954 176 996 184 C 1037 192 1074 204 1107 218 C 1139 232 1167 248 1192 267 C 1217 286 1241 306 1264 328 L 1411 186 C 1383 158 1353 132 1319 107 C 1285 82 1246 60 1201 41 C 1155 21 1103 6 1045 -5 C 986 -17 918 -23 842 -23 Z" unicode="C" />
<glyph horiz-adv-x="1559" d="M 172 1518 L 680 1518 C 776 1518 862 1513 939 1503 C 1016 1493 1084 1476 1144 1453 C 1202 1429 1253 1398 1295 1360 C 1337 1322 1371 1275 1399 1219 C 1425 1163 1445 1097 1458 1021 C 1470 945 1477 858 1477 760 C 1477 614 1461 493 1430 396 C 1399 299 1351 221 1285 163 C 1218 103 1133 61 1029 37 C 925 12 801 0 657 0 L 172 0 L 172 1518 Z M 668 190 C 782 190 878 200 955 220 C 1032 240 1094 273 1141 319 C 1187 363 1219 422 1239 494 C 1258 566 1268 655 1268 760 C 1268 866 1259 954 1242 1026 C 1225 1098 1195 1156 1151 1200 C 1107 1243 1047 1274 971 1293 C 895 1311 799 1321 682 1321 L 379 1321 L 379 190 L 668 190 Z" unicode="D" />
<glyph horiz-adv-x="1335" d="M 172 1518 L 1210 1518 L 1210 1319 L 379 1319 L 379 883 L 1190 883 L 1190 686 L 379 686 L 379 190 L 1219 190 L 1219 0 L 172 0 L 172 1518 Z" unicode="E" />
<glyph horiz-adv-x="1257" d="M 172 1518 L 1182 1518 L 1182 1319 L 379 1319 L 379 862 L 1163 862 L 1163 666 L 379 666 L 379 0 L 172 0 L 172 1518 Z" unicode="F" />
<glyph horiz-adv-x="1604" d="M 840 -23 C 700 -23 583 -6 487 27 C 391 60 313 110 254 176 C 194 241 150 322 124 420 C 97 518 84 631 84 760 C 84 896 100 1014 134 1113 C 168 1211 217 1292 283 1356 C 347 1419 427 1466 522 1496 C 617 1526 726 1542 850 1542 C 924 1542 990 1536 1049 1526 C 1107 1515 1160 1501 1206 1483 C 1252 1465 1292 1444 1327 1420 C 1362 1396 1393 1372 1419 1346 L 1272 1194 C 1248 1214 1223 1234 1197 1252 C 1170 1270 1140 1285 1107 1299 C 1073 1312 1035 1323 993 1331 C 951 1339 903 1343 850 1343 C 660 1343 520 1294 428 1198 C 336 1102 291 955 291 758 C 291 657 300 569 320 495 C 339 420 371 358 415 309 C 459 259 516 222 587 198 C 657 174 744 162 848 162 C 942 162 1019 171 1080 190 C 1140 209 1188 238 1223 276 C 1257 313 1281 360 1295 416 C 1308 472 1315 538 1315 614 L 1315 657 L 825 657 L 825 842 L 1520 842 L 1520 651 C 1520 581 1516 516 1508 456 C 1500 395 1487 340 1468 291 C 1448 241 1421 196 1388 157 C 1355 118 1314 85 1264 59 C 1213 32 1153 12 1083 -2 C 1013 -16 932 -23 840 -23 Z" unicode="G" />
<glyph horiz-adv-x="1612" d="M 172 1518 L 379 1518 L 379 891 L 1233 891 L 1233 1518 L 1440 1518 L 1440 0 L 1233 0 L 1233 686 L 379 686 L 379 0 L 172 0 L 172 1518 Z" unicode="H" />
<glyph horiz-adv-x="582" d="M 188 1518 L 393 1518 L 393 0 L 188 0 L 188 1518 Z" unicode="I" />
<glyph horiz-adv-x="848" d="M 229 -2 C 207 -2 188 -2 173 -2 C 158 -2 145 -2 133 -2 C 120 -2 108 -1 96 -1 C 84 -1 71 0 57 0 L 57 190 L 207 190 C 257 190 300 195 335 205 C 370 215 398 230 420 252 C 441 273 456 300 466 333 C 476 365 481 405 481 451 L 481 1518 L 686 1518 L 686 442 C 686 359 676 289 656 233 C 636 176 606 130 568 96 C 528 61 480 36 424 21 C 367 5 302 -2 229 -2 Z" unicode="J" />
<glyph horiz-adv-x="1473" d="M 655 768 L 375 455 L 375 0 L 172 0 L 172 1518 L 375 1518 L 375 721 L 1090 1518 L 1327 1518 L 791 920 L 1401 0 L 1165 0 L 655 768 Z" unicode="K" />
<glyph horiz-adv-x="1219" d="M 172 1518 L 379 1518 L 379 190 L 1169 190 L 1169 0 L 172 0 L 172 1518 Z" unicode="L" />
<glyph horiz-adv-x="1907" d="M 172 1518 L 442 1518 L 954 291 L 1468 1518 L 1735 1518 L 1735 0 L 1532 0 L 1532 1171 L 1036 0 L 864 0 L 371 1169 L 371 0 L 172 0 L 172 1518 Z" unicode="M" />
<glyph horiz-adv-x="1620" d="M 172 1518 L 397 1518 L 1247 348 L 1247 1518 L 1448 1518 L 1448 0 L 1257 0 L 373 1214 L 373 0 L 172 0 L 172 1518 Z" unicode="N" />
<glyph horiz-adv-x="1718" d="M 858 -25 C 736 -25 628 -10 532 20 C 436 50 355 97 289 161 C 222 224 171 305 136 404 C 101 503 84 622 84 760 C 84 897 101 1015 136 1114 C 171 1212 222 1293 289 1357 C 355 1420 436 1467 532 1497 C 628 1527 736 1542 858 1542 C 979 1542 1087 1527 1183 1497 C 1279 1467 1360 1420 1427 1357 C 1493 1293 1544 1212 1579 1114 C 1614 1015 1632 897 1632 760 C 1632 622 1614 503 1579 404 C 1544 305 1493 224 1427 161 C 1360 97 1279 50 1183 20 C 1087 -10 979 -25 858 -25 Z M 858 168 C 956 168 1041 181 1113 207 C 1184 233 1243 271 1290 321 C 1336 371 1370 432 1392 505 C 1414 578 1425 662 1425 756 C 1425 850 1414 933 1392 1006 C 1370 1079 1336 1141 1290 1191 C 1243 1241 1184 1278 1113 1304 C 1041 1330 956 1343 858 1343 C 759 1343 674 1330 603 1304 C 531 1278 473 1241 427 1191 C 381 1141 347 1079 325 1006 C 303 933 293 850 293 756 C 293 662 303 578 325 505 C 347 432 381 371 427 321 C 473 271 531 233 603 207 C 674 181 759 168 858 168 Z" unicode="O" />
<glyph horiz-adv-x="1475" d="M 172 1518 L 854 1518 C 950 1518 1031 1508 1099 1488 C 1167 1468 1222 1439 1266 1400 C 1309 1360 1341 1311 1361 1253 C 1381 1195 1391 1127 1391 1049 C 1391 970 1381 900 1361 838 C 1341 776 1310 724 1267 682 C 1223 638 1167 605 1098 583 C 1029 560 946 549 848 549 L 375 549 L 375 0 L 172 0 L 172 1518 Z M 854 741 C 908 741 955 746 997 756 C 1038 766 1073 784 1101 808 C 1128 831 1149 861 1163 899 C 1177 937 1184 983 1184 1038 C 1184 1094 1177 1140 1163 1177 C 1149 1214 1129 1244 1102 1266 C 1074 1287 1039 1302 997 1311 C 955 1320 906 1325 850 1325 L 375 1325 L 375 741 L 854 741 Z" unicode="P" />
<glyph horiz-adv-x="1718" d="M 1108 -383 C 1024 -383 956 -376 902 -363 C 848 -349 806 -328 776 -298 C 745 -268 724 -229 714 -181 C 704 -133 701 -74 705 -4 C 603 6 514 29 437 64 C 360 99 295 148 243 210 C 190 272 150 348 124 439 C 97 529 84 636 84 760 C 84 897 100 1015 134 1114 C 168 1212 218 1293 284 1357 C 349 1420 430 1467 526 1497 C 622 1527 732 1542 858 1542 C 983 1542 1094 1527 1190 1497 C 1286 1467 1367 1420 1433 1357 C 1498 1293 1547 1212 1581 1114 C 1615 1015 1632 897 1632 760 C 1632 626 1616 511 1584 415 C 1552 319 1506 240 1445 178 C 1383 115 1307 68 1216 38 C 1125 7 1021 -9 903 -12 C 901 -50 902 -81 906 -106 C 910 -130 920 -150 936 -165 C 950 -179 971 -188 999 -194 C 1027 -200 1063 -203 1108 -203 L 1276 -203 L 1276 -381 C 1270 -381 1260 -381 1247 -381 C 1233 -381 1219 -382 1203 -382 C 1186 -382 1169 -382 1152 -382 C 1135 -382 1120 -383 1108 -383 Z M 858 168 C 960 168 1047 181 1119 207 C 1191 233 1249 271 1295 321 C 1340 371 1373 432 1394 505 C 1414 578 1425 662 1425 756 C 1425 850 1414 933 1394 1006 C 1373 1079 1340 1141 1295 1191 C 1249 1241 1191 1278 1119 1304 C 1047 1330 960 1343 858 1343 C 756 1343 669 1330 597 1304 C 525 1278 467 1241 423 1191 C 377 1141 344 1079 324 1006 C 303 933 293 850 293 756 C 293 662 303 578 324 505 C 344 432 377 371 423 321 C 467 271 525 233 597 207 C 669 181 756 168 858 168 Z" unicode="Q" />
<glyph horiz-adv-x="1499" d="M 799 584 L 375 584 L 375 0 L 172 0 L 172 1518 L 848 1518 C 944 1518 1025 1508 1093 1488 C 1161 1468 1216 1438 1259 1400 C 1301 1361 1331 1313 1351 1256 C 1370 1198 1380 1133 1380 1059 C 1380 997 1373 941 1359 890 C 1345 838 1324 793 1295 754 C 1265 714 1227 681 1181 655 C 1135 629 1079 610 1014 598 L 1358 0 L 1137 0 L 799 584 Z M 846 774 C 898 774 944 778 984 787 C 1024 795 1059 810 1087 832 C 1114 852 1135 880 1149 916 C 1163 952 1171 997 1171 1051 C 1171 1105 1164 1149 1150 1185 C 1136 1220 1115 1248 1087 1269 C 1059 1289 1024 1304 983 1312 C 941 1320 894 1325 840 1325 L 375 1325 L 375 774 L 846 774 Z" unicode="R" />
<glyph horiz-adv-x="1460" d="M 727 -20 C 602 -20 486 -6 378 22 C 270 50 168 96 74 160 L 178 319 C 266 261 356 221 446 197 C 536 173 628 162 721 162 C 798 162 864 167 918 177 C 972 187 1016 203 1050 225 C 1084 246 1108 273 1124 307 C 1139 340 1147 380 1147 426 C 1147 472 1137 510 1117 540 C 1097 569 1068 593 1032 612 C 994 630 949 644 896 655 C 843 666 784 677 719 688 C 631 702 553 717 483 735 C 413 752 354 776 306 807 C 257 837 219 877 193 927 C 167 977 154 1041 154 1120 C 154 1196 165 1260 189 1314 C 213 1368 249 1412 297 1446 C 344 1479 403 1503 474 1519 C 545 1534 628 1542 723 1542 C 787 1542 846 1538 900 1531 C 954 1524 1004 1515 1050 1503 C 1095 1490 1136 1475 1174 1458 C 1212 1441 1246 1423 1276 1403 L 1163 1233 C 1137 1250 1107 1266 1074 1281 C 1041 1295 1006 1308 968 1319 C 930 1329 890 1337 849 1343 C 807 1349 765 1352 723 1352 C 657 1352 601 1347 555 1339 C 509 1330 471 1316 442 1298 C 412 1279 391 1255 378 1227 C 364 1198 358 1164 358 1124 C 358 1080 367 1045 385 1018 C 403 991 430 969 466 952 C 500 934 543 919 595 908 C 646 896 704 885 770 874 C 826 864 880 855 931 845 C 981 835 1028 823 1072 809 C 1115 794 1154 777 1188 757 C 1222 737 1252 712 1277 684 C 1301 654 1319 619 1332 579 C 1345 538 1352 490 1352 436 C 1352 360 1340 293 1316 236 C 1292 179 1254 132 1204 94 C 1153 56 1088 27 1009 8 C 930 -10 836 -20 727 -20 Z" unicode="S" />
<glyph horiz-adv-x="1419" d="M 606 1319 L 49 1319 L 49 1518 L 1372 1518 L 1372 1319 L 815 1319 L 815 0 L 606 0 L 606 1319 Z" unicode="T" />
<glyph horiz-adv-x="1614" d="M 805 -27 C 711 -27 629 -19 561 -4 C 493 10 435 31 388 59 C 340 85 301 117 272 154 C 242 190 220 230 204 274 C 187 316 176 362 170 410 C 164 458 162 507 162 557 L 162 1518 L 369 1518 L 369 582 C 369 520 374 463 386 412 C 398 361 420 318 452 282 C 484 246 528 218 585 198 C 642 178 716 168 807 168 C 897 168 972 177 1030 197 C 1088 216 1133 244 1167 280 C 1199 316 1222 359 1234 410 C 1246 461 1253 518 1253 582 L 1253 1518 L 1454 1518 L 1454 557 C 1454 507 1451 458 1445 410 C 1439 362 1427 316 1411 273 C 1394 229 1371 189 1341 153 C 1311 116 1272 84 1224 58 C 1176 31 1117 10 1049 -4 C 980 -19 899 -27 805 -27 Z" unicode="U" />
<glyph horiz-adv-x="1513" d="M 47 1518 L 264 1518 L 760 250 L 1251 1518 L 1468 1518 L 862 -10 L 651 -10 L 47 1518 Z" unicode="V" />
<glyph horiz-adv-x="2218" d="M 63 1518 L 279 1518 L 647 336 L 1024 1518 L 1206 1518 L 1583 336 L 1952 1518 L 2154 1518 L 1673 -10 L 1491 -10 L 1110 1180 L 731 -10 L 547 -10 L 63 1518 Z" unicode="W" />
<glyph horiz-adv-x="1491" d="M 737 639 L 303 0 L 74 0 L 629 795 L 125 1518 L 354 1518 L 752 950 L 1139 1518 L 1368 1518 L 860 795 L 1419 0 L 1186 0 L 737 639 Z" unicode="X" />
<glyph horiz-adv-x="1466" d="M 631 573 L 20 1518 L 246 1518 L 735 762 L 1229 1518 L 1444 1518 L 836 578 L 836 0 L 631 0 L 631 573 Z" unicode="Y" />
<glyph horiz-adv-x="1376" d="M 86 164 L 1004 1319 L 121 1319 L 121 1518 L 1264 1518 L 1264 1337 L 350 190 L 1286 190 L 1286 0 L 86 0 L 86 164 Z" unicode="Z" />
<glyph horiz-adv-x="975" d="M 244 1589 L 776 1589 L 776 1407 L 446 1407 L 446 -162 L 782 -162 L 782 -338 L 244 -338 L 244 1589 Z" unicode="[" />
<glyph horiz-adv-x="1055" d="M 0 1518 L 205 1518 L 1055 0 L 850 0 L 0 1518 Z" unicode="\" />
<glyph horiz-adv-x="975" d="M 197 -162 L 528 -162 L 528 1407 L 195 1407 L 195 1589 L 729 1589 L 729 -338 L 197 -338 L 197 -162 Z" unicode="]" />
<glyph horiz-adv-x="1208" d="M 496 1538 L 711 1538 L 1024 1202 L 831 1202 L 600 1409 L 373 1202 L 182 1202 L 496 1538 Z" unicode="^" />
<glyph horiz-adv-x="928" d="M -76 -109 L 1004 -109 L 1004 -270 L -76 -270 L -76 -109 Z" unicode="_" />
<glyph horiz-adv-x="1208" d="M 229 1591 L 473 1591 L 776 1255 L 592 1255 L 229 1591 Z" unicode="`" />
<glyph horiz-adv-x="1284" d="M 487 -20 C 405 -20 337 -11 285 6 C 233 24 191 48 161 80 C 130 110 109 147 97 189 C 85 231 80 276 80 324 C 80 378 85 425 96 467 C 106 508 124 544 148 576 C 172 606 203 632 242 653 C 280 674 328 691 384 705 C 439 717 504 726 578 732 C 652 738 736 741 831 741 L 893 741 C 891 781 887 817 880 847 C 873 877 860 902 840 922 C 819 941 790 955 754 965 C 717 974 668 979 608 979 C 572 979 537 976 505 970 C 472 964 442 957 414 948 C 385 938 359 928 335 917 C 311 905 290 894 272 883 L 168 1038 C 186 1050 211 1064 243 1079 C 274 1094 310 1108 350 1121 C 390 1133 433 1144 480 1152 C 527 1160 576 1165 627 1165 C 724 1165 802 1156 862 1139 C 922 1121 968 1094 1002 1058 C 1034 1021 1056 974 1068 916 C 1079 858 1085 789 1085 709 L 1085 303 C 1085 275 1086 253 1088 237 C 1090 220 1095 207 1103 199 C 1110 189 1121 183 1136 180 C 1151 177 1172 176 1198 176 L 1198 2 C 1190 0 1180 -1 1167 -1 C 1153 -1 1136 -2 1116 -2 C 1084 -2 1058 0 1037 5 C 1015 9 997 17 983 28 C 968 38 956 51 946 67 C 936 83 928 103 922 127 C 904 103 883 81 859 63 C 835 45 805 30 771 18 C 735 5 694 -4 648 -10 C 601 -16 547 -20 487 -20 Z M 520 152 C 586 152 642 158 689 172 C 736 186 775 207 806 236 C 836 264 858 300 872 344 C 886 388 893 440 893 502 L 893 571 L 842 571 C 724 571 628 567 554 560 C 480 552 422 540 380 522 C 338 504 309 480 293 450 C 277 420 270 382 270 338 C 270 308 274 281 282 258 C 290 234 303 215 323 200 C 341 184 367 172 399 164 C 431 156 471 152 520 152 Z" unicode="a" />
<glyph horiz-adv-x="1343" d="M 754 -20 C 692 -20 639 -17 593 -12 C 547 -6 508 2 474 14 C 439 25 410 39 386 57 C 362 75 341 96 324 121 L 287 -8 L 147 6 L 147 1589 L 346 1589 L 346 1026 C 378 1074 427 1109 494 1131 C 560 1153 650 1165 764 1165 C 860 1165 939 1150 1002 1121 C 1064 1092 1114 1051 1152 999 C 1188 946 1214 883 1229 811 C 1243 738 1251 658 1251 571 C 1251 483 1243 403 1228 331 C 1212 259 1186 197 1148 145 C 1110 93 1059 52 995 23 C 931 -5 850 -20 754 -20 Z M 721 158 C 785 158 839 167 881 186 C 923 205 956 232 982 268 C 1006 302 1024 345 1034 395 C 1044 445 1049 501 1049 563 C 1049 625 1044 682 1034 733 C 1024 784 1007 828 983 864 C 958 899 924 926 882 946 C 840 965 786 975 721 975 C 653 975 596 967 549 953 C 502 938 464 915 434 883 C 404 850 382 807 368 755 C 354 703 348 639 348 563 C 348 487 354 424 367 372 C 380 320 402 279 432 248 C 461 216 499 193 547 179 C 594 165 652 158 721 158 Z" unicode="b" />
<glyph horiz-adv-x="1165" d="M 647 -20 C 537 -20 447 -5 376 23 C 304 51 248 92 206 144 C 164 195 134 257 117 330 C 100 402 92 483 92 571 C 92 659 100 739 117 812 C 133 885 163 948 206 1001 C 248 1053 306 1093 379 1122 C 451 1150 543 1165 655 1165 C 705 1165 752 1160 794 1152 C 836 1144 875 1132 910 1118 C 944 1102 976 1084 1004 1063 C 1032 1042 1057 1019 1079 995 L 934 858 C 920 872 905 885 888 899 C 871 913 852 925 830 937 C 807 947 781 956 753 963 C 724 969 691 973 655 973 C 585 973 526 963 480 945 C 434 927 397 900 369 866 C 341 830 321 787 310 737 C 298 687 293 630 293 567 C 293 503 298 446 309 396 C 320 345 340 302 368 267 C 395 231 432 204 478 186 C 524 167 583 158 655 158 C 685 158 714 160 740 165 C 766 170 790 178 814 188 C 836 197 858 209 880 223 C 901 237 922 254 944 274 L 1077 147 C 1047 119 1018 95 989 75 C 959 54 928 37 894 23 C 860 9 822 -1 782 -9 C 742 -16 697 -20 647 -20 Z" unicode="c" />
<glyph horiz-adv-x="1343" d="M 582 -20 C 486 -20 407 -5 344 23 C 281 52 231 93 194 146 C 156 198 130 261 115 334 C 99 407 92 487 92 575 C 92 661 99 741 115 813 C 131 885 158 947 196 999 C 234 1051 284 1091 348 1120 C 412 1148 492 1163 588 1163 C 647 1163 699 1160 744 1154 C 788 1148 827 1140 860 1129 C 892 1117 919 1103 941 1086 C 963 1068 981 1048 995 1026 L 995 1589 L 1196 1589 L 1196 8 L 1042 -6 L 1020 127 C 1002 101 980 79 955 61 C 930 43 900 28 866 16 C 830 4 789 -5 743 -11 C 696 -17 642 -20 582 -20 Z M 625 162 C 691 162 748 169 795 184 C 842 198 881 222 911 256 C 940 288 961 331 975 383 C 988 435 995 499 995 575 C 995 649 988 712 975 764 C 962 815 941 856 913 888 C 883 919 845 942 798 956 C 751 970 693 977 625 977 C 559 977 504 967 462 949 C 420 930 386 903 362 869 C 336 834 319 792 309 742 C 299 692 295 637 295 575 C 295 512 299 455 309 404 C 319 353 336 310 362 274 C 386 238 420 210 462 191 C 504 171 559 162 625 162 Z" unicode="d" />
<glyph horiz-adv-x="1229" d="M 651 -23 C 573 -23 505 -16 447 -2 C 389 12 340 32 299 58 C 257 83 222 114 196 150 C 169 186 148 227 133 271 C 117 315 107 362 101 413 C 95 463 92 516 92 571 C 92 653 99 730 115 802 C 130 874 158 937 200 991 C 240 1045 297 1087 369 1118 C 441 1149 533 1165 647 1165 C 725 1165 791 1156 845 1139 C 899 1122 945 1098 981 1068 C 1017 1037 1045 1001 1065 959 C 1085 917 1099 871 1109 822 C 1118 772 1123 719 1125 663 C 1127 607 1127 551 1126 494 L 285 494 C 287 442 295 394 307 352 C 319 310 339 274 367 244 C 394 214 430 190 476 174 C 522 158 580 150 651 150 C 697 150 737 152 773 158 C 808 164 840 172 869 182 C 897 192 922 203 946 217 C 969 231 992 246 1014 262 L 1120 123 C 1090 99 1058 78 1026 60 C 993 42 958 27 921 15 C 883 2 842 -7 798 -13 C 754 -19 705 -23 651 -23 Z M 641 989 C 575 989 521 981 478 966 C 434 950 399 929 373 902 C 345 874 325 840 312 801 C 299 761 291 718 287 670 L 938 670 C 936 700 933 728 931 756 C 928 783 923 809 917 833 C 909 856 899 877 887 897 C 874 916 857 933 836 947 C 814 960 788 970 756 978 C 724 985 685 989 641 989 Z" unicode="e" />
<glyph horiz-adv-x="819" d="M 59 1139 L 274 1139 L 274 1219 C 274 1275 279 1325 290 1371 C 301 1417 321 1456 349 1489 C 376 1521 413 1545 460 1563 C 506 1580 565 1589 637 1589 L 768 1589 L 768 1415 L 662 1415 C 624 1415 592 1410 568 1400 C 544 1390 525 1377 511 1360 C 496 1342 486 1322 481 1298 C 475 1274 473 1247 473 1219 L 473 1139 L 768 1139 L 768 958 L 473 958 L 473 0 L 274 0 L 274 958 L 59 958 L 59 1139 Z" unicode="f" />
<glyph horiz-adv-x="1251" d="M 604 416 C 568 416 534 417 504 419 C 473 421 444 424 416 430 C 407 419 400 408 396 396 C 391 384 389 372 389 360 C 389 343 392 330 399 320 C 405 310 417 302 435 297 C 452 291 475 287 504 285 C 533 283 570 283 616 283 C 722 283 811 278 883 268 C 954 258 1011 241 1055 218 C 1097 194 1128 163 1146 125 C 1164 87 1174 39 1174 -18 C 1174 -79 1163 -131 1143 -175 C 1122 -219 1089 -255 1043 -284 C 997 -312 937 -333 864 -347 C 791 -360 702 -367 598 -367 C 502 -367 419 -363 351 -355 C 283 -347 227 -332 183 -312 C 139 -290 106 -261 86 -225 C 65 -188 55 -141 55 -84 C 55 -52 58 -21 65 9 C 71 39 83 66 100 91 C 116 115 138 137 166 155 C 194 173 229 186 272 195 C 249 210 233 229 223 251 C 213 273 209 300 209 332 C 209 360 213 387 222 414 C 230 441 243 466 260 489 C 214 519 179 558 156 607 C 132 655 121 714 121 782 C 121 845 130 901 148 949 C 166 997 195 1037 235 1069 C 274 1101 324 1125 385 1141 C 445 1157 518 1165 604 1165 C 616 1165 629 1165 641 1165 C 653 1165 665 1164 678 1163 L 1126 1227 L 1126 1063 L 942 1063 C 988 1037 1025 1002 1051 958 C 1077 913 1090 854 1090 782 C 1090 656 1051 563 973 504 C 895 445 772 416 604 416 Z M 604 -209 C 678 -209 739 -205 787 -197 C 835 -189 873 -177 901 -163 C 928 -147 947 -128 957 -106 C 967 -84 973 -58 973 -29 C 973 1 966 25 954 44 C 942 62 921 77 893 88 C 863 98 825 105 778 109 C 731 113 673 115 604 115 C 526 115 465 110 419 102 C 373 94 338 82 314 68 C 290 52 274 34 267 14 C 259 -5 256 -27 256 -51 C 256 -81 262 -106 275 -126 C 287 -146 308 -163 336 -176 C 364 -188 400 -196 444 -201 C 488 -206 541 -209 604 -209 Z M 604 580 C 656 580 701 583 738 591 C 774 599 804 611 828 628 C 850 644 867 665 877 691 C 887 716 893 746 893 782 C 893 855 869 907 822 938 C 774 969 702 985 604 985 C 551 985 506 981 469 974 C 432 966 402 955 380 939 C 356 922 339 901 329 875 C 318 849 313 818 313 782 C 313 746 318 716 329 691 C 339 665 356 644 380 628 C 402 611 432 599 469 591 C 506 583 551 580 604 580 Z" unicode="g" />
<glyph horiz-adv-x="1294" d="M 147 1589 L 346 1589 L 346 1040 C 357 1056 373 1072 393 1087 C 413 1102 438 1115 470 1127 C 501 1138 539 1147 584 1154 C 628 1161 681 1165 741 1165 C 831 1165 903 1153 957 1131 C 1011 1108 1052 1076 1081 1035 C 1109 993 1128 944 1137 886 C 1146 828 1151 764 1151 694 L 1151 0 L 952 0 L 952 655 C 952 701 949 743 945 782 C 941 820 930 854 912 882 C 894 909 866 930 830 946 C 793 961 742 969 678 969 C 608 969 551 960 508 943 C 464 926 431 903 408 873 C 384 843 368 807 360 766 C 352 724 348 679 348 631 L 348 0 L 147 0 L 147 1589 Z" unicode="h" />
<glyph horiz-adv-x="516" d="M 160 1139 L 356 1139 L 356 0 L 160 0 L 160 1139 Z M 158 1518 L 358 1518 L 358 1276 L 158 1276 L 158 1518 Z" unicode="i" />
<glyph horiz-adv-x="516" d="M 4 -180 L 20 -180 C 50 -179 74 -176 92 -171 C 110 -165 125 -156 135 -144 C 145 -131 151 -114 155 -93 C 158 -71 160 -44 160 -12 L 160 1139 L 356 1139 L 356 -10 C 356 -74 351 -127 343 -170 C 334 -212 318 -247 295 -273 C 271 -299 238 -317 198 -328 C 157 -338 105 -344 41 -344 L 4 -344 L 4 -180 Z M 158 1518 L 358 1518 L 358 1276 L 158 1276 L 158 1518 Z" unicode="j" />
<glyph horiz-adv-x="1143" d="M 147 1589 L 344 1589 L 344 553 L 848 1139 L 1069 1139 L 666 666 L 1110 0 L 889 0 L 532 520 L 344 305 L 344 0 L 147 0 L 147 1589 Z" unicode="k" />
<glyph horiz-adv-x="625" d="M 416 -2 C 368 -2 327 3 295 14 C 262 24 236 41 216 65 C 196 88 181 119 173 157 C 164 195 160 241 160 295 L 160 1589 L 356 1589 L 356 317 C 356 290 357 268 360 250 C 363 232 369 217 379 207 C 387 195 400 187 417 183 C 433 178 455 176 483 176 L 528 176 L 528 2 C 518 0 503 0 483 -1 C 463 -1 440 -2 416 -2 Z" unicode="l" />
<glyph horiz-adv-x="2052" d="M 147 1128 L 305 1139 L 322 1030 C 333 1048 349 1066 370 1082 C 390 1098 417 1113 450 1126 C 482 1138 521 1147 567 1154 C 613 1161 667 1165 729 1165 C 789 1165 840 1161 881 1154 C 922 1147 956 1137 983 1125 C 1009 1112 1029 1097 1044 1079 C 1058 1061 1069 1042 1077 1022 C 1090 1042 1108 1061 1131 1079 C 1154 1096 1183 1111 1219 1124 C 1254 1136 1296 1146 1344 1154 C 1392 1161 1449 1165 1513 1165 C 1573 1165 1624 1159 1668 1149 C 1711 1139 1748 1124 1778 1105 C 1807 1085 1830 1062 1848 1034 C 1866 1006 1880 975 1890 941 C 1899 906 1905 868 1908 826 C 1911 784 1913 740 1913 694 L 1913 0 L 1712 0 L 1712 655 C 1712 701 1710 743 1707 782 C 1703 820 1693 854 1677 882 C 1660 909 1634 930 1599 946 C 1563 961 1514 969 1450 969 C 1380 969 1323 960 1281 943 C 1239 926 1206 903 1184 873 C 1161 843 1146 807 1139 766 C 1131 724 1128 679 1128 631 L 1128 0 L 932 0 L 932 655 C 932 701 930 743 926 782 C 922 820 912 854 896 882 C 878 909 852 930 817 946 C 781 961 732 969 668 969 C 598 969 541 960 499 943 C 457 926 425 903 403 873 C 380 843 365 807 358 766 C 351 724 348 679 348 631 L 348 0 L 147 0 L 147 1128 Z" unicode="m" />
<glyph horiz-adv-x="1294" d="M 147 1128 L 305 1139 L 322 1030 C 335 1048 352 1065 373 1081 C 394 1097 421 1112 455 1125 C 487 1137 527 1146 574 1154 C 620 1161 676 1165 741 1165 C 831 1165 903 1153 957 1131 C 1011 1108 1052 1076 1081 1035 C 1109 993 1128 944 1137 886 C 1146 828 1151 764 1151 694 L 1151 0 L 952 0 L 952 655 C 952 701 949 743 945 782 C 941 820 930 854 912 882 C 894 909 866 930 830 946 C 793 961 742 969 678 969 C 608 969 551 960 508 943 C 464 926 431 903 408 873 C 384 843 368 807 360 766 C 352 724 348 679 348 631 L 348 0 L 147 0 L 147 1128 Z" unicode="n" />
<glyph horiz-adv-x="1309" d="M 653 -23 C 552 -23 466 -10 395 15 C 324 40 266 78 222 128 C 176 178 143 240 123 314 C 102 388 92 473 92 571 C 92 668 102 754 123 828 C 143 902 176 964 222 1014 C 266 1064 324 1101 395 1127 C 466 1152 552 1165 653 1165 C 753 1165 839 1152 911 1127 C 983 1101 1041 1064 1087 1014 C 1131 964 1164 902 1185 828 C 1206 754 1217 668 1217 571 C 1217 473 1206 388 1185 314 C 1164 240 1131 178 1087 128 C 1041 78 983 40 911 15 C 839 -10 753 -23 653 -23 Z M 653 158 C 720 158 777 167 823 185 C 869 203 906 229 935 264 C 963 298 983 341 995 392 C 1007 443 1014 501 1014 567 C 1014 632 1007 690 995 741 C 983 791 963 834 935 869 C 906 903 869 930 823 948 C 777 966 720 975 653 975 C 585 975 529 966 483 948 C 437 930 401 903 373 869 C 344 834 323 791 311 741 C 299 690 293 632 293 567 C 293 501 299 443 311 392 C 323 341 344 298 373 264 C 401 229 437 203 483 185 C 529 167 585 158 653 158 Z" unicode="o" />
<glyph horiz-adv-x="1343" d="M 147 1128 L 305 1139 L 322 1018 C 337 1042 357 1063 381 1081 C 405 1099 435 1115 471 1128 C 506 1140 548 1149 596 1155 C 644 1161 700 1165 764 1165 C 860 1165 939 1150 1002 1121 C 1064 1092 1114 1052 1152 1000 C 1188 947 1214 884 1229 812 C 1243 739 1251 659 1251 571 C 1251 484 1243 405 1228 333 C 1212 261 1186 199 1149 147 C 1111 95 1060 54 996 25 C 932 -3 852 -18 756 -18 C 696 -18 644 -15 600 -9 C 555 -3 517 4 485 16 C 452 27 425 41 403 58 C 381 75 362 95 348 119 L 348 -338 L 147 -338 L 147 1128 Z M 721 162 C 785 162 839 171 881 190 C 923 208 956 235 982 270 C 1006 304 1024 346 1034 396 C 1044 446 1049 502 1049 565 C 1049 627 1044 684 1034 734 C 1024 784 1007 828 983 864 C 958 899 924 926 882 946 C 840 965 786 975 721 975 C 653 975 596 967 549 953 C 502 939 464 916 434 884 C 404 851 382 809 368 757 C 354 705 348 641 348 565 C 348 489 354 426 367 375 C 380 323 402 282 432 251 C 461 219 499 196 547 182 C 594 168 652 162 721 162 Z" unicode="p" />
<glyph horiz-adv-x="1343" d="M 995 115 C 976 90 955 69 931 52 C 907 34 878 20 846 10 C 812 0 774 -8 731 -13 C 688 -17 638 -20 582 -20 C 486 -20 407 -5 344 23 C 281 52 231 93 194 146 C 156 198 130 261 115 333 C 99 405 92 485 92 573 C 92 660 99 740 115 813 C 131 885 158 948 196 1000 C 234 1052 284 1092 348 1121 C 412 1150 492 1165 588 1165 C 649 1165 703 1162 749 1157 C 795 1151 836 1143 870 1132 C 904 1120 933 1106 957 1089 C 981 1071 1002 1051 1020 1028 L 1057 1153 L 1196 1141 L 1196 -338 L 995 -338 L 995 115 Z M 625 162 C 691 162 748 169 795 184 C 842 198 881 222 911 255 C 940 287 961 330 975 382 C 988 434 995 498 995 573 C 995 648 988 711 975 763 C 962 814 941 856 913 888 C 883 919 845 942 798 956 C 751 970 693 977 625 977 C 559 977 504 967 462 949 C 420 930 386 903 362 869 C 336 833 319 791 309 741 C 299 691 295 635 295 573 C 295 511 299 454 309 404 C 319 353 336 310 362 274 C 386 238 420 210 462 191 C 504 171 559 162 625 162 Z" unicode="q" />
<glyph horiz-adv-x="760" d="M 147 1128 L 305 1139 L 326 999 C 337 1019 354 1039 377 1057 C 399 1075 427 1091 460 1105 C 492 1119 530 1130 572 1138 C 614 1146 661 1151 711 1153 L 711 952 C 642 951 584 942 538 925 C 492 908 455 884 427 854 C 398 822 378 785 366 742 C 354 699 348 652 348 600 L 348 0 L 147 0 L 147 1128 Z" unicode="r" />
<glyph horiz-adv-x="1098" d="M 543 -20 C 502 -20 461 -17 419 -13 C 377 -9 336 -2 294 8 C 252 18 210 31 170 48 C 129 65 89 87 51 113 L 154 268 C 220 226 287 196 357 179 C 427 162 493 154 555 154 C 603 154 645 156 680 161 C 714 165 743 174 765 187 C 787 199 803 215 813 237 C 823 259 829 287 829 322 C 829 348 824 370 814 388 C 804 406 789 421 768 433 C 746 444 718 454 683 462 C 648 470 605 478 555 487 C 487 499 426 512 372 526 C 317 540 270 559 232 584 C 192 608 162 641 141 681 C 119 721 109 774 109 840 C 109 892 117 938 133 978 C 149 1018 174 1053 210 1081 C 245 1108 291 1129 348 1143 C 404 1157 473 1165 555 1165 C 643 1165 724 1156 798 1139 C 871 1121 935 1097 989 1065 L 895 901 C 851 924 801 943 744 958 C 687 973 625 981 559 981 C 509 981 467 977 435 971 C 403 965 377 956 359 944 C 339 931 326 916 318 899 C 310 881 307 862 307 840 C 307 813 311 791 321 773 C 330 755 345 741 366 729 C 386 717 412 706 444 698 C 476 690 516 682 563 674 C 633 661 696 648 753 635 C 809 621 858 603 898 579 C 938 555 968 523 990 484 C 1011 445 1022 394 1022 330 C 1022 264 1012 209 994 165 C 976 121 947 85 909 58 C 869 30 819 10 759 -2 C 699 -14 627 -20 543 -20 Z" unicode="s" />
<glyph horiz-adv-x="856" d="M 59 1139 L 266 1139 L 301 1462 L 459 1493 L 459 1139 L 760 1139 L 760 958 L 459 958 L 459 338 C 459 312 460 290 463 270 C 465 250 472 233 484 219 C 494 205 511 194 533 187 C 555 179 585 176 623 176 L 760 176 L 760 0 C 754 0 743 -1 727 -1 C 711 -1 694 -2 676 -2 C 658 -2 640 -2 624 -2 C 607 -2 595 -2 588 -2 C 520 -2 464 4 422 17 C 379 29 346 49 322 75 C 298 101 281 133 273 173 C 264 212 260 258 260 311 L 260 958 L 59 958 L 59 1139 Z" unicode="t" />
<glyph horiz-adv-x="1280" d="M 643 -20 C 570 -20 507 -15 454 -5 C 400 4 355 18 318 38 C 280 57 250 81 227 110 C 204 138 186 172 174 210 C 161 247 152 289 148 335 C 143 381 141 432 141 487 L 141 1139 L 340 1139 L 340 483 C 340 437 341 395 345 356 C 348 317 359 283 379 255 C 397 226 427 203 468 187 C 509 170 567 162 643 162 C 693 162 736 165 770 173 C 804 181 833 192 856 206 C 878 219 895 235 907 255 C 919 275 927 297 933 322 C 938 346 941 372 942 400 C 943 428 944 457 944 489 L 944 1139 L 1139 1139 L 1139 494 C 1139 438 1136 386 1132 339 C 1128 292 1120 250 1108 212 C 1095 173 1077 139 1055 111 C 1032 82 1002 58 966 39 C 929 19 884 4 831 -5 C 778 -15 715 -20 643 -20 Z" unicode="u" />
<glyph horiz-adv-x="1151" d="M 14 1139 L 227 1139 L 578 227 L 928 1139 L 1135 1139 L 682 -10 L 467 -10 L 14 1139 Z" unicode="v" />
<glyph horiz-adv-x="1819" d="M 27 1139 L 236 1139 L 530 279 L 813 1139 L 1010 1139 L 1292 281 L 1589 1139 L 1792 1139 L 1391 -10 L 1192 -10 L 909 838 L 627 -10 L 426 -10 L 27 1139 Z" unicode="w" />
<glyph horiz-adv-x="1139" d="M 561 451 L 250 0 L 33 0 L 457 594 L 70 1139 L 291 1139 L 575 739 L 856 1139 L 1071 1139 L 680 592 L 1106 0 L 883 0 L 561 451 Z" unicode="x" />
<glyph horiz-adv-x="1114" d="M 262 -344 C 256 -344 249 -344 240 -344 C 231 -344 222 -344 212 -344 C 201 -344 191 -343 181 -343 C 171 -343 164 -342 158 -342 L 158 -180 L 246 -180 C 273 -180 296 -178 316 -175 C 335 -172 351 -167 365 -159 C 378 -151 389 -140 398 -127 C 407 -113 415 -96 422 -76 L 457 12 L 14 1139 L 227 1139 L 561 250 L 893 1139 L 1102 1139 L 618 -96 C 602 -140 583 -177 563 -209 C 543 -240 519 -266 492 -286 C 464 -306 431 -320 394 -330 C 356 -339 312 -344 262 -344 Z" unicode="y" />
<glyph horiz-adv-x="1049" d="M 61 145 L 711 958 L 94 958 L 94 1139 L 971 1139 L 971 989 L 319 170 L 993 170 L 993 0 L 61 0 L 61 145 Z" unicode="z" />
<glyph horiz-adv-x="1051" d="M 674 -338 C 608 -338 553 -332 507 -321 C 461 -309 423 -292 395 -270 C 365 -247 344 -219 331 -185 C 317 -151 311 -111 311 -66 C 311 -44 313 -19 319 8 C 324 36 331 66 340 98 C 348 129 356 161 366 193 C 376 225 385 257 394 287 C 402 317 408 344 414 370 C 419 395 422 416 422 434 C 422 456 417 473 408 487 C 398 501 383 512 363 520 C 342 527 315 532 282 535 C 248 537 208 539 160 539 L 160 711 C 205 711 244 712 277 714 C 310 716 337 720 359 728 C 380 735 396 746 406 760 C 416 774 422 794 422 819 C 422 836 419 857 414 883 C 408 908 402 936 394 966 C 385 995 376 1026 366 1058 C 356 1090 348 1122 340 1154 C 331 1184 324 1214 319 1242 C 313 1270 311 1295 311 1317 C 311 1362 317 1402 331 1436 C 344 1470 365 1498 395 1521 C 423 1543 461 1560 507 1572 C 553 1583 608 1589 674 1589 L 858 1589 L 858 1407 L 715 1407 C 675 1407 643 1404 617 1399 C 591 1393 571 1385 557 1374 C 541 1362 531 1347 525 1329 C 519 1311 516 1289 516 1264 C 516 1248 518 1229 524 1205 C 529 1181 536 1155 544 1127 C 551 1098 559 1068 568 1036 C 577 1004 586 973 594 943 C 601 912 607 883 613 856 C 618 828 621 804 621 784 C 621 746 611 713 593 686 C 574 658 543 639 500 627 C 544 612 575 591 593 564 C 611 537 621 505 621 467 C 621 446 618 422 613 394 C 607 366 601 337 594 307 C 586 276 577 245 568 213 C 559 181 551 150 544 122 C 536 92 529 66 524 42 C 518 18 516 -1 516 -16 C 516 -42 519 -64 525 -83 C 531 -101 541 -117 557 -129 C 571 -140 591 -148 617 -154 C 643 -159 675 -162 715 -162 L 858 -162 L 858 -338 L 674 -338 Z" unicode="{" />
<glyph horiz-adv-x="692" d="M 244 1589 L 446 1589 L 446 -338 L 244 -338 L 244 1589 Z" unicode="|" />
<glyph horiz-adv-x="1051" d="M 193 -162 L 338 -162 C 377 -162 409 -159 435 -154 C 461 -148 481 -140 497 -129 C 511 -117 522 -101 528 -83 C 534 -64 537 -42 537 -16 C 537 -1 534 18 529 42 C 523 66 517 92 509 122 C 501 150 492 181 483 213 C 474 245 466 276 458 307 C 450 337 443 366 438 394 C 432 422 430 446 430 467 C 430 505 439 537 459 565 C 478 593 509 613 551 627 C 507 640 476 660 458 687 C 439 713 430 746 430 784 C 430 804 432 828 438 856 C 443 883 450 912 458 943 C 466 973 474 1004 483 1036 C 492 1068 501 1098 509 1127 C 517 1155 523 1181 529 1205 C 534 1229 537 1248 537 1264 C 537 1289 534 1311 528 1329 C 522 1347 511 1362 497 1374 C 481 1385 461 1393 435 1399 C 409 1404 377 1407 338 1407 L 193 1407 L 193 1589 L 379 1589 C 445 1589 500 1583 546 1572 C 592 1560 629 1543 658 1521 C 686 1498 707 1470 720 1436 C 732 1402 739 1362 739 1317 C 739 1295 736 1270 731 1242 C 725 1214 719 1184 711 1154 C 702 1122 693 1090 684 1058 C 674 1026 666 995 658 966 C 649 936 642 908 637 883 C 631 857 629 836 629 819 C 629 796 633 778 643 764 C 652 750 667 740 688 733 C 708 725 735 719 769 717 C 802 714 843 713 891 713 L 891 541 C 845 541 806 540 773 538 C 740 536 713 531 692 524 C 670 516 654 505 644 491 C 634 477 629 458 629 434 C 629 416 631 395 637 370 C 642 344 649 317 658 287 C 666 257 674 225 684 193 C 693 161 702 129 711 98 C 719 66 725 36 731 8 C 736 -19 739 -44 739 -66 C 739 -111 732 -151 720 -185 C 707 -219 686 -247 658 -270 C 629 -292 592 -309 546 -321 C 500 -332 445 -338 379 -338 L 193 -338 L 193 -162 Z" unicode="}" />
<glyph horiz-adv-x="1208" d="M 184 934 C 204 958 225 981 247 1002 C 269 1022 291 1040 315 1056 C 338 1070 362 1082 386 1091 C 410 1099 435 1104 459 1104 C 494 1104 524 1098 549 1088 C 573 1077 596 1065 617 1053 C 637 1039 656 1027 676 1017 C 695 1006 717 1001 743 1001 C 769 1001 795 1011 823 1033 C 850 1054 878 1081 907 1114 L 1024 1020 C 1004 994 983 971 961 949 C 939 927 916 907 893 891 C 869 873 845 860 821 850 C 797 840 772 836 748 836 C 716 836 687 841 663 852 C 639 862 616 874 595 887 C 573 899 551 911 531 922 C 510 932 487 938 463 938 C 439 938 414 929 386 912 C 358 895 332 870 307 838 L 184 934 Z" unicode="~" />
<glyph horiz-adv-x="1126" d="M 563 -12 C 489 -12 427 0 377 23 C 327 46 288 79 259 122 C 229 164 208 216 196 276 C 184 336 178 403 178 477 C 178 551 184 617 196 677 C 208 737 229 788 259 831 C 288 873 327 905 377 928 C 427 951 489 963 563 963 C 637 963 698 951 748 928 C 797 905 837 873 867 831 C 896 788 917 737 929 677 C 941 617 948 551 948 477 C 948 403 941 336 929 276 C 917 216 896 164 867 122 C 837 79 797 46 748 23 C 698 0 637 -12 563 -12 Z M 563 125 C 612 125 652 133 682 150 C 712 166 735 190 751 221 C 767 251 777 287 783 331 C 788 374 791 423 791 477 C 791 530 788 578 783 621 C 777 663 767 700 751 730 C 735 760 712 783 682 799 C 652 815 612 823 563 823 C 513 823 474 815 444 799 C 414 783 391 760 375 730 C 359 700 348 663 343 621 C 338 578 336 530 336 477 C 336 423 338 374 343 331 C 348 287 359 251 375 221 C 391 190 414 166 444 150 C 474 133 513 125 563 125 Z" unicode="₀" />
<glyph horiz-adv-x="696" d="M 307 807 L 125 807 L 125 946 L 465 946 L 465 0 L 307 0 L 307 807 Z" unicode="₁" />
<glyph horiz-adv-x="942" d="M 129 117 L 430 401 C 468 437 500 468 525 494 C 550 520 570 543 584 564 C 598 584 607 605 613 625 C 618 645 621 668 621 694 C 621 715 617 734 611 750 C 605 766 594 780 580 792 C 565 802 546 810 522 816 C 498 822 470 825 436 825 C 386 825 340 819 298 809 C 255 798 219 785 190 770 L 121 891 C 141 901 163 911 186 920 C 209 928 234 936 261 942 C 287 948 316 952 348 956 C 380 959 415 961 455 961 C 561 961 641 941 695 902 C 749 863 776 799 776 711 C 776 673 771 639 763 609 C 755 579 742 551 724 523 C 705 494 681 465 653 435 C 624 405 589 370 549 332 L 340 131 L 786 131 L 786 0 L 129 0 L 129 117 Z" unicode="₂" />
<glyph horiz-adv-x="979" d="M 473 -12 C 435 -12 399 -10 367 -6 C 335 -2 304 3 274 11 C 244 18 215 27 187 39 C 159 51 130 65 102 82 L 182 199 C 228 171 273 152 317 140 C 361 128 409 123 461 123 C 498 123 530 125 557 130 C 583 135 605 144 623 157 C 639 169 652 186 660 208 C 668 230 672 257 672 291 C 672 319 668 343 662 363 C 656 383 644 399 627 413 C 609 425 586 435 556 441 C 526 447 487 451 440 451 L 299 451 L 299 578 L 436 578 C 474 578 507 579 534 583 C 560 587 582 593 598 603 C 614 612 625 625 632 641 C 639 657 643 679 643 705 C 643 727 639 746 632 762 C 625 777 614 789 600 799 C 584 807 565 813 542 817 C 518 821 490 823 457 823 C 408 823 361 817 317 806 C 272 794 233 779 199 760 L 123 877 C 168 905 222 926 284 941 C 346 955 411 963 477 963 C 535 963 584 958 626 949 C 667 940 701 926 727 908 C 753 888 772 864 784 836 C 796 807 803 773 803 735 C 803 677 792 632 772 598 C 752 564 719 539 674 524 C 728 510 767 482 792 442 C 816 401 829 345 829 274 C 829 221 821 176 807 140 C 793 104 771 74 742 52 C 712 29 675 13 631 3 C 586 -7 533 -12 473 -12 Z" unicode="₃" />
<glyph horiz-adv-x="1044" d="M 141 328 L 561 946 L 731 946 L 313 332 L 616 332 L 643 616 L 764 616 L 764 332 L 922 332 L 922 205 L 764 205 L 764 0 L 614 0 L 614 205 L 141 205 L 141 328 Z" unicode="₄" />
<glyph horiz-adv-x="1026" d="M 508 -10 C 467 -10 429 -7 395 -2 C 360 3 328 10 299 19 C 269 27 241 36 216 47 C 190 58 167 70 147 82 L 229 205 C 265 184 305 165 349 149 C 393 133 442 125 498 125 C 534 125 567 127 596 132 C 625 137 650 147 671 161 C 691 175 706 194 717 219 C 727 244 733 277 733 317 C 733 356 728 388 718 413 C 708 438 693 458 674 472 C 654 486 631 495 603 500 C 575 505 544 508 508 508 C 466 508 431 505 403 500 C 374 494 347 485 322 473 L 197 506 L 221 946 L 815 946 L 815 811 L 354 811 L 342 604 C 368 614 398 622 432 627 C 466 632 503 635 545 635 C 591 635 636 631 678 623 C 720 615 756 600 788 578 C 818 554 843 522 861 481 C 879 439 889 385 889 317 C 889 247 879 191 861 148 C 842 105 816 72 783 49 C 749 25 709 10 662 2 C 615 -6 564 -10 508 -10 Z" unicode="₅" />
<glyph horiz-adv-x="1077" d="M 563 -12 C 497 -12 440 -4 391 10 C 342 25 301 49 269 83 C 236 115 212 157 196 209 C 180 261 172 323 172 397 C 172 493 180 576 198 646 C 216 715 246 772 289 817 C 331 861 386 893 456 914 C 526 935 613 946 717 946 L 772 946 L 772 811 L 713 811 C 640 811 580 805 533 794 C 486 782 449 766 421 744 C 392 722 371 694 357 662 C 343 629 334 591 328 549 C 353 585 388 610 434 625 C 480 639 536 647 602 647 C 664 647 715 639 757 625 C 798 610 831 589 856 562 C 880 534 898 500 908 460 C 918 420 924 376 924 326 C 924 274 917 227 905 185 C 893 143 873 107 845 79 C 817 49 780 27 734 11 C 688 -4 631 -12 563 -12 Z M 563 113 C 605 113 640 117 667 127 C 694 137 715 151 731 169 C 746 187 756 209 762 235 C 767 261 770 290 770 322 C 770 352 767 380 761 406 C 755 431 745 453 730 471 C 714 489 693 503 667 513 C 640 523 606 528 565 528 C 493 528 437 513 396 483 C 354 453 334 407 334 344 C 334 300 339 264 349 235 C 359 205 373 182 393 164 C 412 146 436 133 464 125 C 492 117 525 113 563 113 Z" unicode="₆" />
<glyph horiz-adv-x="879" d="M 598 807 L 104 807 L 104 946 L 772 946 L 772 819 L 416 0 L 248 0 L 598 807 Z" unicode="₇" />
<glyph horiz-adv-x="1096" d="M 547 -12 C 477 -12 417 -5 369 8 C 320 21 280 40 250 66 C 219 90 197 120 183 156 C 169 191 162 230 162 274 C 162 335 173 387 197 429 C 220 471 261 503 319 524 C 294 533 274 544 258 557 C 242 570 229 585 220 603 C 210 619 204 638 200 659 C 196 679 195 702 195 727 C 195 762 200 794 211 824 C 222 853 241 878 268 900 C 294 921 330 937 376 949 C 421 961 478 967 547 967 C 615 967 673 961 719 949 C 765 937 801 920 829 899 C 855 877 874 852 886 823 C 897 793 903 761 903 727 C 903 702 901 679 897 658 C 893 637 887 618 877 602 C 867 584 853 569 836 556 C 819 542 798 531 772 522 C 802 512 827 499 848 483 C 868 467 885 449 898 429 C 910 407 919 384 925 358 C 931 332 934 304 934 274 C 934 230 927 191 913 156 C 899 120 876 90 846 66 C 814 40 774 21 725 8 C 676 -5 617 -12 547 -12 Z M 547 111 C 627 111 685 125 721 155 C 757 184 776 227 776 285 C 776 341 757 384 721 414 C 685 444 627 459 547 459 C 467 459 409 444 374 414 C 339 384 322 341 322 285 C 322 227 339 184 374 155 C 409 125 467 111 547 111 Z M 547 569 C 585 569 617 572 643 578 C 669 584 689 593 705 605 C 720 616 731 630 738 648 C 744 665 748 685 748 709 C 748 730 744 749 738 766 C 731 782 720 796 705 808 C 689 819 669 827 643 833 C 617 839 585 842 547 842 C 509 842 477 839 452 833 C 426 827 406 819 391 808 C 375 796 363 782 357 766 C 351 749 348 730 348 709 C 348 685 351 665 357 648 C 363 630 375 616 391 605 C 406 593 426 584 452 578 C 477 572 509 569 547 569 Z" unicode="₈" />
<glyph horiz-adv-x="1077" d="M 311 133 L 373 133 C 445 133 504 139 551 151 C 598 163 636 180 665 204 C 693 226 714 254 728 288 C 742 321 752 359 758 403 C 732 367 697 341 651 325 C 605 309 549 301 481 301 C 419 301 368 308 327 323 C 286 337 253 359 229 387 C 203 415 185 449 175 489 C 165 529 160 575 160 627 C 160 679 166 725 178 767 C 190 808 211 843 239 873 C 267 901 304 923 350 939 C 396 955 454 963 522 963 C 587 963 644 955 693 940 C 741 924 782 900 815 868 C 847 834 871 792 887 740 C 903 688 911 626 911 553 C 911 455 902 372 884 302 C 866 232 837 175 796 131 C 754 85 698 52 629 31 C 560 10 474 0 371 0 L 311 0 L 311 133 Z M 520 418 C 591 418 647 432 688 462 C 729 491 750 537 750 600 C 750 642 745 678 735 708 C 725 738 711 762 693 780 C 673 798 649 811 621 819 C 592 827 559 831 522 831 C 478 831 443 826 416 816 C 389 806 368 793 353 776 C 337 758 327 736 321 711 C 315 685 313 657 313 625 C 313 593 316 564 322 539 C 328 513 338 492 354 474 C 369 456 390 442 417 432 C 444 422 478 418 520 418 Z" unicode="₉" />
<glyph horiz-adv-x="518" d="M 141 -457 C 165 -445 184 -434 199 -424 C 213 -414 225 -403 234 -392 C 242 -380 248 -368 251 -355 C 254 -341 256 -325 256 -307 L 147 -307 L 147 -80 L 371 -80 L 371 -250 C 371 -292 368 -327 364 -357 C 359 -386 350 -412 337 -435 C 323 -457 305 -476 281 -494 C 257 -511 227 -529 190 -547 L 141 -457 Z" unicode="" />
<glyph horiz-adv-x="471" d="" unicode=" " />
<glyph horiz-adv-x="758" d="M 291 1083 L 467 1083 L 487 0 L 268 0 L 291 1083 Z M 254 1518 L 504 1518 L 504 1251 L 254 1251 L 254 1518 Z" unicode="¡" />
<glyph horiz-adv-x="1159" d="M 551 -10 C 461 -2 387 17 329 49 C 271 80 224 121 190 172 C 155 222 131 280 117 348 C 103 416 96 490 96 571 C 96 651 102 724 116 792 C 130 860 154 919 189 970 C 223 1020 270 1062 329 1094 C 387 1126 461 1146 551 1155 L 551 1286 L 739 1286 L 739 1157 C 777 1153 813 1146 846 1136 C 878 1126 908 1115 936 1101 C 963 1087 988 1071 1010 1053 C 1032 1035 1053 1015 1073 995 L 932 862 C 920 872 908 883 895 894 C 881 905 866 916 850 926 C 833 936 814 945 794 953 C 774 961 751 967 727 971 L 727 158 C 748 160 768 165 787 171 C 805 177 823 185 841 195 C 857 204 874 215 891 227 C 907 239 924 254 942 270 L 1073 147 C 1048 125 1023 105 999 87 C 975 69 949 54 923 42 C 896 28 868 17 838 9 C 808 1 775 -4 739 -8 L 739 -193 L 551 -193 L 551 -10 Z M 289 567 C 289 511 293 459 302 413 C 311 367 326 326 348 292 C 368 256 396 227 432 205 C 467 183 511 168 563 160 L 563 971 C 511 963 467 948 432 926 C 397 904 369 876 348 842 C 326 807 311 767 302 721 C 293 675 289 623 289 567 Z" unicode="¢" />
<glyph horiz-adv-x="1284" d="M 854 -16 C 775 -16 700 -6 628 12 C 556 31 492 56 436 86 C 401 57 355 35 297 21 C 239 7 167 0 80 0 L 80 172 C 146 172 197 176 235 184 C 273 192 301 206 320 224 C 338 242 350 265 355 293 C 359 321 362 354 362 393 C 362 434 356 481 345 533 C 333 585 320 641 305 700 L 66 700 L 66 864 L 260 864 C 248 914 237 962 229 1009 C 221 1055 217 1099 217 1141 C 217 1201 224 1255 240 1305 C 256 1354 282 1396 319 1432 C 355 1467 402 1494 462 1514 C 521 1534 594 1544 682 1544 C 723 1544 762 1542 799 1539 C 836 1535 872 1530 906 1524 C 939 1517 971 1509 1003 1499 C 1035 1489 1066 1477 1098 1464 L 1020 1290 C 970 1313 915 1330 856 1340 C 797 1350 738 1356 678 1356 C 626 1356 583 1350 549 1339 C 515 1327 488 1311 468 1291 C 448 1269 434 1244 426 1215 C 418 1185 414 1152 414 1116 C 414 1081 418 1042 426 999 C 434 956 443 911 455 864 L 901 864 L 901 700 L 494 700 C 507 646 518 592 528 540 C 538 488 543 440 543 397 C 543 367 541 338 539 312 C 537 286 532 261 526 238 C 571 217 621 199 677 184 C 732 169 790 162 850 162 C 888 162 919 165 943 173 C 967 180 985 192 999 208 C 1011 224 1020 244 1024 269 C 1028 294 1030 324 1030 360 L 1030 414 L 1204 414 L 1204 354 C 1204 286 1198 229 1186 183 C 1174 136 1155 98 1128 69 C 1100 39 1064 17 1020 4 C 975 -9 920 -16 854 -16 Z" unicode="£" />
<glyph horiz-adv-x="1311" d="M 139 643 L 557 643 L 557 657 L 29 1518 L 240 1518 L 655 829 L 1071 1518 L 1282 1518 L 754 662 L 754 643 L 1171 643 L 1171 473 L 754 473 L 754 324 L 1171 324 L 1171 156 L 754 156 L 754 0 L 557 0 L 557 156 L 139 156 L 139 324 L 557 324 L 557 473 L 139 473 L 139 643 Z" unicode="¥" />
<glyph horiz-adv-x="692" d="M 244 465 L 446 465 L 446 -338 L 244 -338 L 244 465 Z M 244 1589 L 446 1589 L 446 786 L 244 786 L 244 1589 Z" unicode="¦" />
<glyph horiz-adv-x="1147" d="M 315 -16 C 303 -16 291 -15 278 -15 C 265 -15 253 -15 241 -15 C 228 -14 217 -13 207 -13 C 197 -13 189 -12 184 -12 L 184 154 L 295 154 C 337 154 371 158 396 168 C 420 178 439 191 452 209 C 464 226 472 246 476 270 C 479 294 481 320 481 348 L 481 455 C 359 464 267 493 206 541 C 145 589 115 662 115 758 C 115 851 143 923 199 973 C 255 1023 341 1053 455 1065 L 455 1159 C 455 1193 456 1227 459 1259 C 462 1291 468 1321 478 1349 C 487 1376 500 1401 517 1424 C 533 1446 555 1466 582 1482 C 608 1498 641 1510 680 1519 C 719 1527 765 1532 819 1532 C 830 1532 842 1531 856 1531 C 869 1531 882 1531 895 1531 C 907 1530 919 1529 929 1529 C 939 1529 946 1528 952 1528 L 952 1356 L 842 1356 C 798 1356 764 1351 739 1341 C 714 1331 695 1318 683 1301 C 670 1283 662 1263 658 1239 C 654 1215 653 1189 653 1161 L 653 1067 C 777 1059 872 1030 936 980 C 1000 930 1032 856 1032 758 C 1032 664 1002 592 944 544 C 885 496 797 467 680 457 L 680 356 C 680 304 676 256 668 211 C 660 165 644 126 619 93 C 593 59 556 32 508 13 C 460 -6 395 -16 315 -16 Z M 571 590 C 672 590 747 602 795 628 C 843 653 868 695 868 754 C 868 813 843 855 795 880 C 747 905 672 918 571 918 C 471 918 398 905 351 880 C 304 855 281 813 281 754 C 281 695 304 653 351 628 C 398 602 471 590 571 590 Z" unicode="§" />
<glyph horiz-adv-x="1208" d="M 293 1491 L 475 1491 L 475 1262 L 293 1262 L 293 1491 Z M 735 1491 L 915 1491 L 915 1262 L 735 1262 L 735 1491 Z" unicode="¨" />
<glyph horiz-adv-x="1692" d="M 858 250 C 692 250 566 294 482 382 C 398 470 356 598 356 768 C 356 856 368 933 392 998 C 416 1062 450 1116 495 1159 C 539 1201 592 1232 655 1253 C 717 1273 787 1284 864 1284 C 937 1284 1004 1273 1066 1252 C 1128 1230 1181 1198 1227 1155 L 1133 1055 C 1097 1085 1057 1109 1011 1127 C 965 1144 916 1153 862 1153 C 746 1153 657 1120 593 1055 C 529 990 498 894 498 768 C 498 641 528 545 590 479 C 651 413 742 381 864 381 C 898 381 930 383 958 389 C 986 394 1011 401 1034 411 C 1056 419 1075 430 1093 442 C 1111 454 1127 467 1143 481 L 1233 389 C 1214 370 1193 352 1170 336 C 1147 319 1121 304 1091 292 C 1061 279 1026 269 988 261 C 950 253 906 250 858 250 Z M 842 -25 C 714 -25 603 -5 509 33 C 414 72 335 127 273 197 C 209 266 162 349 131 445 C 99 541 84 646 84 760 C 84 873 99 978 131 1074 C 162 1170 209 1253 273 1323 C 335 1392 414 1446 509 1485 C 603 1524 714 1544 842 1544 C 969 1544 1080 1524 1176 1485 C 1271 1446 1350 1392 1414 1323 C 1477 1253 1524 1170 1556 1074 C 1588 978 1604 873 1604 760 C 1604 646 1588 541 1556 445 C 1524 349 1477 266 1414 197 C 1350 127 1271 72 1176 33 C 1080 -5 969 -25 842 -25 Z M 842 63 C 958 63 1059 80 1144 115 C 1229 149 1299 198 1355 260 C 1409 321 1450 394 1476 480 C 1502 565 1516 658 1516 760 C 1516 861 1502 954 1476 1039 C 1450 1124 1409 1198 1355 1260 C 1299 1321 1229 1369 1144 1404 C 1059 1438 958 1456 842 1456 C 725 1456 624 1438 540 1404 C 456 1369 387 1321 333 1260 C 278 1198 238 1124 212 1039 C 186 954 174 861 174 760 C 174 658 186 565 212 480 C 238 394 278 321 333 260 C 387 198 456 149 540 115 C 624 80 725 63 842 63 Z" unicode="©" />
<glyph horiz-adv-x="1221" d="M 453 578 C 392 578 341 585 300 599 C 258 613 225 632 200 658 C 174 682 156 712 145 746 C 134 780 129 818 129 860 C 129 925 141 979 165 1023 C 189 1066 227 1101 277 1127 C 327 1153 390 1171 467 1182 C 544 1192 635 1198 741 1198 L 784 1198 C 782 1231 779 1259 773 1283 C 767 1307 757 1326 741 1342 C 725 1357 702 1368 674 1375 C 645 1382 607 1386 561 1386 C 533 1386 507 1383 481 1379 C 455 1374 430 1368 408 1362 C 384 1354 363 1346 344 1337 C 325 1328 309 1319 295 1311 L 207 1438 C 222 1448 242 1460 267 1472 C 292 1484 321 1495 354 1505 C 386 1515 421 1523 459 1530 C 497 1536 536 1540 578 1540 C 656 1540 720 1533 768 1519 C 816 1505 854 1484 881 1454 C 907 1424 924 1385 933 1338 C 941 1291 946 1235 946 1169 L 946 848 C 946 824 946 806 948 792 C 950 778 954 768 961 761 C 967 753 976 748 989 746 C 1001 744 1018 743 1040 743 L 1040 594 C 1032 594 1024 593 1015 593 C 1006 592 993 592 977 592 C 947 592 922 593 902 597 C 881 600 864 607 851 617 C 837 627 826 641 818 659 C 810 677 804 701 801 731 C 787 705 771 682 753 663 C 734 643 711 628 684 616 C 656 603 623 593 585 587 C 547 581 503 578 453 578 Z M 489 721 C 587 721 661 743 710 789 C 759 834 784 906 784 1006 L 784 1065 L 752 1065 C 662 1065 587 1062 528 1056 C 468 1050 421 1040 386 1026 C 350 1011 325 991 311 966 C 296 941 289 910 289 872 C 289 824 304 786 335 760 C 366 734 417 721 489 721 Z M 215 438 L 950 438 L 950 287 L 215 287 L 215 438 Z" unicode="ª" />
<glyph horiz-adv-x="1436" d="M 199 567 L 508 1139 L 684 1139 L 387 567 L 684 0 L 508 0 L 199 567 Z M 698 567 L 1008 1139 L 1186 1139 L 891 567 L 1186 0 L 1008 0 L 698 567 Z" unicode="«" />
<glyph horiz-adv-x="1440" d="M 1229 813 L 1229 221 L 1028 221 L 1028 631 L 211 631 L 211 813 L 1229 813 Z" unicode="¬" />
<glyph horiz-adv-x="1692" d="M 842 -25 C 714 -25 603 -5 509 33 C 414 72 335 127 273 197 C 209 266 162 349 131 445 C 99 541 84 646 84 760 C 84 873 99 978 131 1074 C 162 1170 209 1253 273 1323 C 335 1392 414 1446 509 1485 C 603 1524 714 1544 842 1544 C 969 1544 1080 1524 1176 1485 C 1271 1446 1350 1392 1414 1323 C 1477 1253 1524 1170 1556 1074 C 1588 978 1604 873 1604 760 C 1604 646 1588 541 1556 445 C 1524 349 1477 266 1414 197 C 1350 127 1271 72 1176 33 C 1080 -5 969 -25 842 -25 Z M 842 63 C 958 63 1059 80 1144 115 C 1229 149 1299 198 1355 260 C 1409 321 1450 394 1476 480 C 1502 565 1516 658 1516 760 C 1516 861 1502 954 1476 1039 C 1450 1124 1409 1198 1355 1260 C 1299 1321 1229 1369 1144 1404 C 1059 1438 958 1456 842 1456 C 725 1456 624 1438 540 1404 C 456 1369 387 1321 333 1260 C 278 1198 238 1124 212 1039 C 186 954 174 861 174 760 C 174 658 186 565 212 480 C 238 394 278 321 333 260 C 387 198 456 149 540 115 C 624 80 725 63 842 63 Z M 889 653 L 608 653 L 608 262 L 477 262 L 477 1249 L 915 1249 C 981 1249 1035 1242 1079 1230 C 1123 1217 1158 1198 1184 1174 C 1210 1148 1228 1117 1239 1081 C 1249 1044 1255 1002 1255 954 C 1255 914 1251 877 1243 844 C 1235 811 1223 782 1205 758 C 1186 733 1162 712 1132 696 C 1102 680 1064 668 1020 662 L 1253 262 L 1112 262 L 889 653 Z M 913 770 C 949 770 980 772 1006 778 C 1032 784 1055 794 1073 808 C 1090 822 1103 840 1111 863 C 1119 886 1124 915 1124 950 C 1124 984 1120 1012 1112 1035 C 1104 1058 1091 1077 1074 1091 C 1056 1104 1034 1113 1007 1119 C 980 1125 948 1128 911 1128 L 608 1128 L 608 770 L 913 770 Z" unicode="®" />
<glyph horiz-adv-x="1208" d="M 219 1413 L 989 1413 L 989 1243 L 219 1243 L 219 1413 Z" unicode="¯" />
<glyph horiz-adv-x="1165" d="M 582 563 C 500 563 431 575 373 600 C 315 624 268 659 232 703 C 195 746 168 798 151 858 C 133 918 125 983 125 1053 C 125 1123 133 1187 151 1247 C 168 1307 195 1359 232 1403 C 268 1446 315 1480 373 1505 C 431 1529 500 1542 582 1542 C 662 1542 732 1529 790 1505 C 848 1480 895 1446 933 1403 C 969 1359 996 1307 1014 1247 C 1031 1187 1040 1123 1040 1053 C 1040 983 1031 918 1014 858 C 996 798 969 746 933 703 C 895 659 848 624 790 600 C 732 575 662 563 582 563 Z M 582 721 C 636 721 681 729 719 745 C 756 761 786 783 810 813 C 833 841 850 876 861 916 C 871 956 877 1001 877 1049 C 877 1096 871 1140 861 1180 C 850 1220 833 1254 810 1284 C 786 1312 756 1335 719 1351 C 681 1367 636 1376 582 1376 C 528 1376 482 1367 445 1351 C 408 1335 378 1312 355 1284 C 331 1254 314 1220 304 1180 C 294 1140 289 1096 289 1049 C 289 1001 294 956 304 916 C 314 876 331 841 355 813 C 378 783 408 761 445 745 C 482 729 528 721 582 721 Z" unicode="°" />
<glyph horiz-adv-x="1440" d="M 621 627 L 211 627 L 211 817 L 621 817 L 621 1225 L 817 1225 L 817 817 L 1229 817 L 1229 627 L 817 627 L 817 219 L 621 219 L 621 627 Z M 211 215 L 1229 215 L 1229 29 L 211 29 L 211 215 Z" unicode="±" />
<glyph horiz-adv-x="942" d="M 129 688 L 430 973 C 468 1009 500 1040 525 1066 C 550 1091 570 1114 584 1136 C 598 1156 607 1177 613 1197 C 618 1217 621 1240 621 1266 C 621 1287 617 1306 611 1322 C 605 1338 594 1352 580 1364 C 565 1374 546 1382 522 1388 C 498 1394 470 1397 436 1397 C 386 1397 340 1391 298 1380 C 255 1369 219 1356 190 1341 L 121 1462 C 141 1472 163 1482 186 1491 C 209 1499 234 1507 261 1513 C 287 1519 316 1523 348 1527 C 380 1530 415 1532 455 1532 C 561 1532 641 1512 695 1473 C 749 1434 776 1370 776 1282 C 776 1244 771 1210 763 1180 C 755 1150 742 1122 724 1094 C 705 1066 681 1036 653 1006 C 624 976 589 941 549 903 L 340 702 L 786 702 L 786 571 L 129 571 L 129 688 Z" unicode="²" />
<glyph horiz-adv-x="979" d="M 473 559 C 435 559 399 560 367 564 C 335 568 304 574 274 582 C 244 589 215 599 187 611 C 159 623 130 637 102 653 L 182 770 C 228 743 273 724 317 712 C 361 700 409 694 461 694 C 498 694 530 696 557 701 C 583 706 605 715 623 728 C 639 740 652 757 660 779 C 668 801 672 828 672 862 C 672 890 668 914 662 934 C 656 954 644 971 627 985 C 609 997 586 1007 556 1013 C 526 1019 487 1022 440 1022 L 299 1022 L 299 1149 L 436 1149 C 474 1149 507 1150 534 1154 C 560 1158 582 1164 598 1174 C 614 1183 625 1196 632 1213 C 639 1229 643 1250 643 1276 C 643 1298 639 1317 632 1333 C 625 1348 614 1360 600 1370 C 584 1379 565 1385 542 1389 C 518 1393 490 1395 457 1395 C 408 1395 361 1389 317 1377 C 272 1365 233 1350 199 1331 L 123 1448 C 168 1476 222 1497 284 1512 C 346 1526 411 1534 477 1534 C 535 1534 584 1529 626 1520 C 667 1511 701 1497 727 1479 C 753 1460 772 1436 784 1408 C 796 1379 803 1345 803 1307 C 803 1249 792 1203 772 1169 C 752 1135 719 1111 674 1096 C 728 1081 767 1053 792 1013 C 816 972 829 916 829 846 C 829 793 821 748 807 712 C 793 675 771 645 742 623 C 712 600 675 584 631 574 C 586 564 533 559 473 559 Z" unicode="³" />
<glyph horiz-adv-x="1208" d="M 735 1591 L 979 1591 L 616 1255 L 432 1255 L 735 1591 Z" unicode="´" />
<glyph horiz-adv-x="1298" d="M 561 -23 C 513 -23 470 -19 433 -12 C 395 -5 362 4 334 18 L 334 -338 L 147 -338 L 147 1139 L 346 1139 L 346 487 C 346 439 348 396 354 356 C 359 316 371 281 390 253 C 408 224 436 202 472 186 C 508 170 558 162 621 162 C 691 162 747 170 790 188 C 832 206 866 230 890 262 C 913 292 928 329 936 371 C 944 413 948 458 948 508 L 948 1139 L 1147 1139 L 1147 8 L 995 -6 L 973 119 C 958 99 939 80 915 63 C 891 45 863 30 830 18 C 796 5 756 -4 712 -12 C 667 -19 617 -23 561 -23 Z" unicode="µ" />
<glyph horiz-adv-x="1300" d="M 510 571 C 432 580 367 597 315 622 C 263 647 221 680 190 720 C 158 760 136 807 123 862 C 110 917 104 979 104 1049 C 104 1127 112 1195 130 1253 C 148 1311 177 1360 219 1400 C 260 1439 315 1468 384 1488 C 453 1508 539 1518 643 1518 L 1116 1518 L 1116 0 L 928 0 L 928 565 L 698 565 L 698 0 L 510 0 L 510 571 Z M 928 733 L 928 1333 L 639 1333 C 577 1333 525 1328 483 1318 C 441 1308 407 1292 381 1270 C 354 1247 335 1217 323 1179 C 311 1141 305 1094 305 1038 C 305 982 311 934 323 896 C 335 857 355 826 382 802 C 408 778 441 760 483 749 C 525 738 575 733 635 733 L 928 733 Z" unicode="¶" />
<glyph horiz-adv-x="518" d="M 133 836 L 383 836 L 383 561 L 133 561 L 133 836 Z" unicode="·" />
<glyph horiz-adv-x="1208" d="M 616 -475 C 564 -475 518 -469 478 -458 C 438 -447 401 -432 369 -414 L 424 -309 C 452 -323 481 -335 512 -343 C 543 -351 575 -356 608 -356 C 640 -356 666 -353 686 -348 C 706 -343 721 -336 733 -328 C 744 -318 752 -307 756 -295 C 760 -283 762 -270 762 -256 C 762 -219 747 -194 719 -182 C 690 -170 641 -166 573 -170 L 524 -135 L 553 14 L 674 14 L 655 -90 C 686 -88 716 -89 746 -92 C 775 -94 801 -102 824 -114 C 846 -126 864 -144 878 -168 C 892 -192 899 -226 899 -268 C 899 -301 893 -330 883 -356 C 872 -382 855 -404 833 -422 C 810 -439 781 -452 745 -461 C 709 -470 666 -475 616 -475 Z" unicode="¸" />
<glyph horiz-adv-x="696" d="M 307 1378 L 125 1378 L 125 1518 L 465 1518 L 465 571 L 307 571 L 307 1378 Z" unicode="¹" />
<glyph horiz-adv-x="1223" d="M 612 582 C 455 582 340 623 267 705 C 194 787 158 906 158 1063 C 158 1219 194 1338 267 1420 C 340 1501 455 1542 612 1542 C 766 1542 880 1501 954 1420 C 1028 1338 1065 1219 1065 1063 C 1065 906 1028 787 954 705 C 880 623 766 582 612 582 Z M 612 735 C 709 735 781 762 827 818 C 873 874 897 954 897 1059 C 897 1164 874 1244 828 1299 C 782 1354 710 1382 612 1382 C 512 1382 440 1354 394 1299 C 348 1244 326 1164 326 1059 C 326 954 348 874 394 818 C 440 762 512 735 612 735 Z M 215 438 L 1008 438 L 1008 283 L 215 283 L 215 438 Z" unicode="º" />
<glyph horiz-adv-x="1436" d="M 547 569 L 252 1139 L 428 1139 L 737 569 L 428 0 L 252 0 L 547 569 Z M 1047 569 L 752 1139 L 930 1139 L 1239 569 L 930 0 L 752 0 L 1047 569 Z" unicode="»" />
<glyph horiz-adv-x="1878" d="M 1493 207 L 1026 207 L 1026 330 L 1448 950 L 1622 950 L 1206 340 L 1493 340 L 1524 580 L 1647 580 L 1647 340 L 1800 340 L 1800 207 L 1647 207 L 1647 0 L 1493 0 L 1493 207 Z M 287 1372 L 104 1372 L 104 1518 L 451 1518 L 451 567 L 287 567 L 287 1372 Z M 1229 1518 L 1407 1518 L 561 0 L 381 0 L 1229 1518 Z" unicode="¼" />
<glyph horiz-adv-x="2009" d="M 1204 121 L 1503 403 C 1543 441 1575 473 1600 498 C 1625 523 1645 546 1660 566 C 1674 586 1683 605 1688 624 C 1693 642 1696 664 1696 690 C 1696 711 1692 730 1686 746 C 1680 762 1669 776 1655 787 C 1640 797 1621 805 1598 811 C 1574 816 1545 819 1511 819 C 1461 819 1416 813 1374 802 C 1332 791 1296 778 1266 764 L 1194 891 C 1216 901 1238 911 1261 920 C 1284 928 1309 936 1337 942 C 1363 948 1392 952 1424 956 C 1455 959 1490 961 1530 961 C 1636 961 1716 941 1770 902 C 1824 862 1851 797 1851 707 C 1851 669 1847 636 1839 607 C 1831 578 1818 550 1800 522 C 1782 494 1758 465 1729 435 C 1700 405 1665 370 1624 330 L 1423 135 L 1851 135 L 1851 0 L 1204 0 L 1204 121 Z M 287 1372 L 104 1372 L 104 1518 L 451 1518 L 451 567 L 287 567 L 287 1372 Z M 1229 1518 L 1407 1518 L 561 0 L 381 0 L 1229 1518 Z" unicode="½" />
<glyph horiz-adv-x="2093" d="M 449 563 C 410 563 374 565 342 569 C 309 573 278 579 249 587 C 219 595 190 605 162 617 C 134 629 105 643 76 659 L 162 782 C 184 768 206 757 228 747 C 250 737 272 730 294 724 C 316 717 338 712 361 709 C 384 706 408 705 434 705 C 471 705 503 707 530 712 C 556 716 578 725 596 737 C 612 749 625 765 633 786 C 641 807 645 834 645 868 C 645 896 641 919 635 939 C 629 959 617 975 601 988 C 583 1000 560 1009 530 1015 C 500 1021 462 1024 416 1024 L 274 1024 L 274 1159 L 412 1159 C 450 1159 483 1160 509 1164 C 535 1168 557 1174 573 1184 C 589 1193 600 1205 607 1221 C 614 1237 618 1257 618 1282 C 618 1304 614 1323 607 1338 C 600 1353 589 1365 574 1375 C 558 1383 539 1389 515 1393 C 491 1397 463 1399 430 1399 C 382 1399 336 1393 292 1381 C 248 1369 210 1353 176 1333 L 96 1456 C 142 1484 196 1506 258 1520 C 320 1534 385 1542 453 1542 C 511 1542 560 1537 601 1528 C 641 1519 675 1505 701 1487 C 727 1468 746 1444 758 1416 C 770 1387 776 1353 776 1315 C 776 1256 764 1210 742 1177 C 720 1143 687 1118 643 1102 C 697 1088 737 1061 764 1021 C 791 980 805 924 805 852 C 805 799 797 754 783 718 C 768 681 746 651 717 629 C 687 605 649 588 605 578 C 561 568 509 563 449 563 Z M 1708 207 L 1241 207 L 1241 330 L 1661 950 L 1837 950 L 1421 340 L 1710 340 L 1739 580 L 1862 580 L 1862 340 L 2013 340 L 2013 207 L 1862 207 L 1862 0 L 1708 0 L 1708 207 Z M 1444 1518 L 1622 1518 L 774 0 L 598 0 L 1444 1518 Z" unicode="¾" />
<glyph horiz-adv-x="1380" d="M 670 -20 C 574 -20 493 -12 428 2 C 362 17 310 40 270 72 C 230 102 201 141 184 188 C 166 235 158 290 158 354 C 158 406 164 451 176 489 C 188 527 207 562 231 592 C 255 621 284 648 319 672 C 354 696 394 719 440 743 C 487 768 524 791 552 811 C 579 831 599 855 613 881 C 626 906 634 936 636 972 C 638 1007 637 1052 633 1108 L 827 1108 C 835 1040 837 982 835 934 C 832 886 822 845 805 810 C 787 774 762 742 728 714 C 694 686 650 659 596 631 C 550 606 513 584 483 566 C 453 547 429 529 411 511 C 393 492 380 472 373 450 C 365 428 362 402 362 371 C 362 339 365 311 373 286 C 380 261 395 240 418 223 C 440 205 473 191 515 182 C 557 172 614 168 684 168 C 766 168 845 177 921 196 C 996 214 1064 240 1126 272 L 1210 98 C 1176 80 1137 63 1095 49 C 1053 34 1008 22 962 12 C 914 1 866 -6 816 -12 C 766 -17 718 -20 670 -20 Z M 606 1522 L 856 1522 L 856 1280 L 606 1280 L 606 1522 Z" unicode="¿" />
<glyph horiz-adv-x="1520" d="M 653 1528 L 864 1528 L 1473 0 L 1260 0 L 1135 319 L 377 319 L 252 0 L 45 0 L 653 1528 Z M 1061 510 L 754 1280 L 446 510 L 1061 510 Z M 381 1942 L 625 1942 L 928 1606 L 744 1606 L 381 1942 Z" unicode="À" />
<glyph horiz-adv-x="1520" d="M 886 1942 L 1130 1942 L 767 1606 L 583 1606 L 886 1942 Z M 653 1528 L 864 1528 L 1473 0 L 1260 0 L 1135 319 L 377 319 L 252 0 L 45 0 L 653 1528 Z M 1061 510 L 754 1280 L 446 510 L 1061 510 Z" unicode="Á" />
<glyph horiz-adv-x="1520" d="M 653 1528 L 864 1528 L 1473 0 L 1260 0 L 1135 319 L 377 319 L 252 0 L 45 0 L 653 1528 Z M 1061 510 L 754 1280 L 446 510 L 1061 510 Z M 648 1942 L 863 1942 L 1176 1606 L 983 1606 L 752 1813 L 525 1606 L 334 1606 L 648 1942 Z" unicode="Â" />
<glyph horiz-adv-x="1520" d="M 653 1528 L 864 1528 L 1473 0 L 1260 0 L 1135 319 L 377 319 L 252 0 L 45 0 L 653 1528 Z M 1061 510 L 754 1280 L 446 510 L 1061 510 Z M 336 1706 C 356 1730 377 1753 399 1774 C 421 1794 443 1812 467 1828 C 490 1842 514 1854 538 1863 C 562 1871 587 1876 611 1876 C 646 1876 676 1870 701 1860 C 725 1849 748 1837 769 1825 C 789 1811 808 1799 828 1789 C 847 1778 869 1773 895 1773 C 921 1773 947 1783 975 1804 C 1002 1825 1030 1852 1059 1886 L 1176 1792 C 1156 1766 1135 1742 1113 1720 C 1091 1698 1068 1678 1045 1662 C 1021 1644 997 1631 973 1621 C 949 1611 924 1607 900 1607 C 868 1607 839 1612 815 1623 C 791 1633 768 1645 747 1659 C 725 1671 703 1683 683 1694 C 662 1704 639 1710 615 1710 C 591 1710 566 1701 538 1684 C 510 1667 484 1642 459 1610 L 336 1706 Z" unicode="Ã" />
<glyph horiz-adv-x="1520" d="M 445 1841 L 627 1841 L 627 1612 L 445 1612 L 445 1841 Z M 887 1841 L 1067 1841 L 1067 1612 L 887 1612 L 887 1841 Z M 653 1528 L 864 1528 L 1473 0 L 1260 0 L 1135 319 L 377 319 L 252 0 L 45 0 L 653 1528 Z M 1061 510 L 754 1280 L 446 510 L 1061 510 Z" unicode="Ä" />
<glyph horiz-adv-x="1520" d="M 616 1434 C 576 1456 547 1488 529 1528 C 511 1568 502 1613 502 1665 C 502 1701 506 1736 516 1768 C 526 1800 541 1828 563 1852 C 583 1876 610 1894 642 1908 C 674 1922 712 1929 758 1929 C 802 1929 840 1922 872 1908 C 904 1894 931 1876 953 1852 C 974 1828 990 1800 1000 1768 C 1010 1736 1016 1701 1016 1665 C 1016 1615 1006 1569 988 1529 C 969 1488 940 1457 901 1436 L 1475 0 L 1264 0 L 1137 317 L 375 317 L 252 0 L 45 0 L 616 1434 Z M 1063 508 L 756 1280 L 449 508 L 1063 508 Z M 758 1511 C 784 1511 807 1514 826 1522 C 844 1530 860 1541 872 1555 C 883 1569 891 1585 897 1604 C 902 1622 905 1643 905 1665 C 905 1687 902 1707 897 1726 C 891 1745 883 1762 872 1776 C 860 1790 844 1801 826 1809 C 807 1817 784 1821 758 1821 C 732 1821 709 1817 691 1809 C 672 1801 657 1790 645 1776 C 633 1762 624 1745 618 1726 C 612 1707 610 1687 610 1665 C 610 1643 612 1622 618 1604 C 624 1585 633 1569 645 1555 C 657 1541 672 1530 691 1522 C 709 1514 732 1511 758 1511 Z" unicode="Å" />
<glyph horiz-adv-x="2234" d="M 985 1518 L 2111 1518 L 2111 1319 L 1278 1319 L 1278 879 L 2091 879 L 2091 688 L 1278 688 L 1278 190 L 2120 190 L 2120 0 L 1079 0 L 1079 319 L 440 319 L 236 0 L 31 0 L 985 1518 Z M 1079 498 L 1079 1333 L 545 498 L 1079 498 Z" unicode="Æ" />
<glyph horiz-adv-x="1497" d="M 758 -475 C 705 -475 659 -469 619 -458 C 579 -447 542 -432 510 -414 L 565 -309 C 593 -323 622 -335 653 -343 C 684 -351 716 -356 750 -356 C 782 -356 807 -353 827 -348 C 847 -343 862 -336 874 -328 C 885 -318 893 -307 897 -295 C 901 -283 903 -270 903 -256 C 903 -237 899 -222 893 -210 C 886 -198 875 -188 861 -182 C 845 -175 826 -171 802 -169 C 778 -167 749 -168 715 -170 L 666 -135 L 688 -14 C 583 -2 493 23 417 63 C 341 102 278 154 229 220 C 179 284 143 362 119 452 C 95 542 84 645 84 760 C 84 893 101 1009 135 1107 C 169 1205 220 1287 286 1352 C 351 1416 431 1463 526 1495 C 621 1526 730 1542 852 1542 C 968 1542 1071 1525 1162 1492 C 1252 1459 1332 1409 1401 1343 L 1251 1194 C 1199 1242 1140 1278 1074 1304 C 1008 1330 933 1343 850 1343 C 664 1343 525 1294 432 1197 C 339 1099 293 953 293 758 C 293 662 303 577 325 504 C 347 431 381 370 427 321 C 472 271 530 234 600 209 C 670 184 754 172 852 172 C 906 172 954 176 996 184 C 1037 192 1074 204 1107 218 C 1139 232 1167 248 1192 267 C 1217 286 1241 306 1264 328 L 1411 186 C 1383 158 1353 132 1319 107 C 1285 82 1246 60 1201 41 C 1155 21 1103 6 1045 -5 C 986 -17 918 -23 842 -23 L 809 -23 L 797 -90 C 828 -88 858 -89 888 -92 C 917 -94 943 -102 966 -114 C 988 -126 1005 -144 1019 -168 C 1033 -192 1040 -226 1040 -268 C 1040 -334 1018 -385 974 -421 C 930 -457 858 -475 758 -475 Z" unicode="Ç" />
<glyph horiz-adv-x="1335" d="M 172 1518 L 1210 1518 L 1210 1319 L 379 1319 L 379 883 L 1190 883 L 1190 686 L 379 686 L 379 190 L 1219 190 L 1219 0 L 172 0 L 172 1518 Z M 289 1942 L 533 1942 L 836 1606 L 652 1606 L 289 1942 Z" unicode="È" />
<glyph horiz-adv-x="1335" d="M 794 1942 L 1038 1942 L 675 1606 L 491 1606 L 794 1942 Z M 172 1518 L 1210 1518 L 1210 1319 L 379 1319 L 379 883 L 1190 883 L 1190 686 L 379 686 L 379 190 L 1219 190 L 1219 0 L 172 0 L 172 1518 Z" unicode="É" />
<glyph horiz-adv-x="1335" d="M 555 1942 L 770 1942 L 1083 1606 L 890 1606 L 659 1813 L 432 1606 L 241 1606 L 555 1942 Z M 172 1518 L 1210 1518 L 1210 1319 L 379 1319 L 379 883 L 1190 883 L 1190 686 L 379 686 L 379 190 L 1219 190 L 1219 0 L 172 0 L 172 1518 Z" unicode="Ê" />
<glyph horiz-adv-x="1335" d="M 353 1841 L 535 1841 L 535 1612 L 353 1612 L 353 1841 Z M 795 1841 L 975 1841 L 975 1612 L 795 1612 L 795 1841 Z M 172 1518 L 1210 1518 L 1210 1319 L 379 1319 L 379 883 L 1190 883 L 1190 686 L 379 686 L 379 190 L 1219 190 L 1219 0 L 172 0 L 172 1518 Z" unicode="Ë" />
<glyph horiz-adv-x="582" d="M -127 1939 L 123 1939 L 393 1606 L 205 1606 L -127 1939 Z M 188 1518 L 393 1518 L 393 0 L 188 0 L 188 1518 Z" unicode="Ì" />
<glyph horiz-adv-x="582" d="M 457 1939 L 707 1939 L 377 1606 L 188 1606 L 457 1939 Z M 188 1518 L 393 1518 L 393 0 L 188 0 L 188 1518 Z" unicode="Í" />
<glyph horiz-adv-x="582" d="M 184 1939 L 395 1939 L 666 1606 L 471 1606 L 287 1817 L 104 1606 L -86 1606 L 184 1939 Z M 188 1518 L 393 1518 L 393 0 L 188 0 L 188 1518 Z" unicode="Î" />
<glyph horiz-adv-x="582" d="M 188 1518 L 393 1518 L 393 0 L 188 0 L 188 1518 Z M -16 1841 L 166 1841 L 166 1612 L -16 1612 L -16 1841 Z M 426 1841 L 606 1841 L 606 1612 L 426 1612 L 426 1841 Z" unicode="Ï" />
<glyph horiz-adv-x="1559" d="M 0 866 L 172 866 L 172 1518 L 680 1518 C 776 1518 862 1513 939 1503 C 1016 1493 1084 1476 1144 1453 C 1202 1429 1253 1398 1295 1360 C 1337 1322 1371 1275 1399 1219 C 1425 1163 1445 1097 1458 1021 C 1470 945 1477 858 1477 760 C 1477 614 1461 493 1429 396 C 1397 299 1347 221 1281 163 C 1213 103 1128 61 1025 37 C 922 12 799 0 657 0 L 172 0 L 172 694 L 0 694 L 0 866 Z M 668 190 C 782 190 878 200 955 220 C 1032 240 1094 273 1141 319 C 1187 363 1219 422 1239 494 C 1258 566 1268 655 1268 760 C 1268 866 1259 954 1242 1026 C 1225 1098 1195 1156 1151 1200 C 1107 1243 1047 1274 971 1293 C 895 1311 799 1321 682 1321 L 379 1321 L 379 866 L 707 866 L 707 694 L 379 694 L 379 190 L 668 190 Z" unicode="Ð" />
<glyph horiz-adv-x="1620" d="M 385 1707 C 405 1731 426 1754 448 1775 C 470 1795 492 1813 516 1829 C 539 1843 563 1855 587 1864 C 611 1872 636 1877 660 1877 C 695 1877 725 1871 750 1861 C 774 1850 797 1838 818 1826 C 838 1812 857 1800 877 1790 C 896 1779 918 1774 944 1774 C 970 1774 996 1784 1024 1805 C 1051 1826 1079 1853 1108 1887 L 1225 1793 C 1205 1767 1184 1743 1162 1721 C 1140 1699 1117 1679 1094 1663 C 1070 1645 1046 1632 1022 1622 C 998 1612 973 1608 949 1608 C 917 1608 888 1613 864 1624 C 840 1634 817 1646 796 1660 C 774 1672 752 1684 732 1695 C 711 1705 688 1711 664 1711 C 640 1711 615 1702 587 1685 C 559 1668 533 1643 508 1611 L 385 1707 Z M 172 1518 L 397 1518 L 1247 348 L 1247 1518 L 1448 1518 L 1448 0 L 1257 0 L 373 1214 L 373 0 L 172 0 L 172 1518 Z" unicode="Ñ" />
<glyph horiz-adv-x="1718" d="M 858 -25 C 736 -25 628 -10 532 20 C 436 50 355 97 289 161 C 222 224 171 305 136 404 C 101 503 84 622 84 760 C 84 897 101 1015 136 1114 C 171 1212 222 1293 289 1357 C 355 1420 436 1467 532 1497 C 628 1527 736 1542 858 1542 C 979 1542 1087 1527 1183 1497 C 1279 1467 1360 1420 1427 1357 C 1493 1293 1544 1212 1579 1114 C 1614 1015 1632 897 1632 760 C 1632 622 1614 503 1579 404 C 1544 305 1493 224 1427 161 C 1360 97 1279 50 1183 20 C 1087 -10 979 -25 858 -25 Z M 858 168 C 956 168 1041 181 1113 207 C 1184 233 1243 271 1290 321 C 1336 371 1370 432 1392 505 C 1414 578 1425 662 1425 756 C 1425 850 1414 933 1392 1006 C 1370 1079 1336 1141 1290 1191 C 1243 1241 1184 1278 1113 1304 C 1041 1330 956 1343 858 1343 C 759 1343 674 1330 603 1304 C 531 1278 473 1241 427 1191 C 381 1141 347 1079 325 1006 C 303 933 293 850 293 756 C 293 662 303 578 325 505 C 347 432 381 371 427 321 C 473 271 531 233 603 207 C 674 181 759 168 858 168 Z M 481 1942 L 725 1942 L 1028 1606 L 844 1606 L 481 1942 Z" unicode="Ò" />
<glyph horiz-adv-x="1718" d="M 858 -25 C 736 -25 628 -10 532 20 C 436 50 355 97 289 161 C 222 224 171 305 136 404 C 101 503 84 622 84 760 C 84 897 101 1015 136 1114 C 171 1212 222 1293 289 1357 C 355 1420 436 1467 532 1497 C 628 1527 736 1542 858 1542 C 979 1542 1087 1527 1183 1497 C 1279 1467 1360 1420 1427 1357 C 1493 1293 1544 1212 1579 1114 C 1614 1015 1632 897 1632 760 C 1632 622 1614 503 1579 404 C 1544 305 1493 224 1427 161 C 1360 97 1279 50 1183 20 C 1087 -10 979 -25 858 -25 Z M 858 168 C 956 168 1041 181 1113 207 C 1184 233 1243 271 1290 321 C 1336 371 1370 432 1392 505 C 1414 578 1425 662 1425 756 C 1425 850 1414 933 1392 1006 C 1370 1079 1336 1141 1290 1191 C 1243 1241 1184 1278 1113 1304 C 1041 1330 956 1343 858 1343 C 759 1343 674 1330 603 1304 C 531 1278 473 1241 427 1191 C 381 1141 347 1079 325 1006 C 303 933 293 850 293 756 C 293 662 303 578 325 505 C 347 432 381 371 427 321 C 473 271 531 233 603 207 C 674 181 759 168 858 168 Z M 987 1942 L 1231 1942 L 868 1606 L 684 1606 L 987 1942 Z" unicode="Ó" />
<glyph horiz-adv-x="1718" d="M 858 -25 C 736 -25 628 -10 532 20 C 436 50 355 97 289 161 C 222 224 171 305 136 404 C 101 503 84 622 84 760 C 84 897 101 1015 136 1114 C 171 1212 222 1293 289 1357 C 355 1420 436 1467 532 1497 C 628 1527 736 1542 858 1542 C 979 1542 1087 1527 1183 1497 C 1279 1467 1360 1420 1427 1357 C 1493 1293 1544 1212 1579 1114 C 1614 1015 1632 897 1632 760 C 1632 622 1614 503 1579 404 C 1544 305 1493 224 1427 161 C 1360 97 1279 50 1183 20 C 1087 -10 979 -25 858 -25 Z M 858 168 C 956 168 1041 181 1113 207 C 1184 233 1243 271 1290 321 C 1336 371 1370 432 1392 505 C 1414 578 1425 662 1425 756 C 1425 850 1414 933 1392 1006 C 1370 1079 1336 1141 1290 1191 C 1243 1241 1184 1278 1113 1304 C 1041 1330 956 1343 858 1343 C 759 1343 674 1330 603 1304 C 531 1278 473 1241 427 1191 C 381 1141 347 1079 325 1006 C 303 933 293 850 293 756 C 293 662 303 578 325 505 C 347 432 381 371 427 321 C 473 271 531 233 603 207 C 674 181 759 168 858 168 Z M 748 1942 L 963 1942 L 1276 1606 L 1083 1606 L 852 1813 L 625 1606 L 434 1606 L 748 1942 Z" unicode="Ô" />
<glyph horiz-adv-x="1718" d="M 436 1707 C 456 1731 477 1754 499 1775 C 521 1795 543 1813 567 1829 C 590 1843 614 1855 638 1864 C 662 1872 687 1877 711 1877 C 746 1877 776 1871 801 1861 C 825 1850 848 1838 869 1826 C 889 1812 908 1800 928 1790 C 947 1779 969 1774 995 1774 C 1021 1774 1047 1784 1075 1805 C 1102 1826 1130 1853 1159 1887 L 1276 1793 C 1256 1767 1235 1743 1213 1721 C 1191 1699 1168 1679 1145 1663 C 1121 1645 1097 1632 1073 1622 C 1049 1612 1024 1608 1000 1608 C 968 1608 939 1613 915 1624 C 891 1634 868 1646 847 1660 C 825 1672 803 1684 783 1695 C 762 1705 739 1711 715 1711 C 691 1711 666 1702 638 1685 C 610 1668 584 1643 559 1611 L 436 1707 Z M 858 -25 C 736 -25 628 -10 532 20 C 436 50 355 97 289 161 C 222 224 171 305 136 404 C 101 503 84 622 84 760 C 84 897 101 1015 136 1114 C 171 1212 222 1293 289 1357 C 355 1420 436 1467 532 1497 C 628 1527 736 1542 858 1542 C 979 1542 1087 1527 1183 1497 C 1279 1467 1360 1420 1427 1357 C 1493 1293 1544 1212 1579 1114 C 1614 1015 1632 897 1632 760 C 1632 622 1614 503 1579 404 C 1544 305 1493 224 1427 161 C 1360 97 1279 50 1183 20 C 1087 -10 979 -25 858 -25 Z M 858 168 C 956 168 1041 181 1113 207 C 1184 233 1243 271 1290 321 C 1336 371 1370 432 1392 505 C 1414 578 1425 662 1425 756 C 1425 850 1414 933 1392 1006 C 1370 1079 1336 1141 1290 1191 C 1243 1241 1184 1278 1113 1304 C 1041 1330 956 1343 858 1343 C 759 1343 674 1330 603 1304 C 531 1278 473 1241 427 1191 C 381 1141 347 1079 325 1006 C 303 933 293 850 293 756 C 293 662 303 578 325 505 C 347 432 381 371 427 321 C 473 271 531 233 603 207 C 674 181 759 168 858 168 Z" unicode="Õ" />
<glyph horiz-adv-x="1718" d="M 858 -25 C 736 -25 628 -10 532 20 C 436 50 355 97 289 161 C 222 224 171 305 136 404 C 101 503 84 622 84 760 C 84 897 101 1015 136 1114 C 171 1212 222 1293 289 1357 C 355 1420 436 1467 532 1497 C 628 1527 736 1542 858 1542 C 979 1542 1087 1527 1183 1497 C 1279 1467 1360 1420 1427 1357 C 1493 1293 1544 1212 1579 1114 C 1614 1015 1632 897 1632 760 C 1632 622 1614 503 1579 404 C 1544 305 1493 224 1427 161 C 1360 97 1279 50 1183 20 C 1087 -10 979 -25 858 -25 Z M 858 168 C 956 168 1041 181 1113 207 C 1184 233 1243 271 1290 321 C 1336 371 1370 432 1392 505 C 1414 578 1425 662 1425 756 C 1425 850 1414 933 1392 1006 C 1370 1079 1336 1141 1290 1191 C 1243 1241 1184 1278 1113 1304 C 1041 1330 956 1343 858 1343 C 759 1343 674 1330 603 1304 C 531 1278 473 1241 427 1191 C 381 1141 347 1079 325 1006 C 303 933 293 850 293 756 C 293 662 303 578 325 505 C 347 432 381 371 427 321 C 473 271 531 233 603 207 C 674 181 759 168 858 168 Z M 545 1841 L 727 1841 L 727 1612 L 545 1612 L 545 1841 Z M 987 1841 L 1167 1841 L 1167 1612 L 987 1612 L 987 1841 Z" unicode="Ö" />
<glyph horiz-adv-x="1440" d="M 276 401 L 596 721 L 276 1040 L 399 1169 L 721 848 L 1038 1169 L 1161 1040 L 842 721 L 1161 403 L 1038 276 L 721 596 L 397 276 L 276 401 Z" unicode="×" />
<glyph horiz-adv-x="1718" d="M 858 -25 C 796 -25 737 -21 682 -14 C 626 -6 574 4 526 20 L 467 -84 L 268 -84 L 369 92 C 275 152 204 237 156 347 C 108 456 84 594 84 760 C 84 897 100 1015 134 1114 C 168 1212 218 1293 284 1357 C 349 1420 430 1467 526 1497 C 622 1527 732 1542 858 1542 C 916 1542 971 1538 1023 1532 C 1075 1525 1123 1515 1169 1501 L 1229 1604 L 1425 1604 L 1329 1436 C 1428 1377 1503 1292 1555 1181 C 1606 1070 1632 930 1632 760 C 1632 622 1615 503 1581 404 C 1547 305 1498 224 1433 161 C 1367 97 1286 50 1190 20 C 1094 -10 983 -25 858 -25 Z M 858 162 C 962 162 1050 175 1123 201 C 1195 227 1255 265 1301 316 C 1347 366 1380 428 1401 502 C 1421 576 1432 660 1432 756 C 1432 875 1415 977 1383 1062 C 1350 1146 1297 1213 1223 1262 L 616 193 C 649 183 686 175 726 170 C 766 164 810 162 858 162 Z M 287 756 C 287 641 301 542 331 460 C 360 377 408 311 475 262 L 1077 1323 C 1045 1331 1011 1337 975 1342 C 939 1347 900 1350 858 1350 C 754 1350 666 1337 594 1311 C 521 1285 462 1246 417 1196 C 371 1145 338 1083 318 1009 C 297 935 287 851 287 756 Z" unicode="Ø" />
<glyph horiz-adv-x="1614" d="M 805 -27 C 711 -27 629 -19 561 -4 C 493 10 435 31 388 59 C 340 85 301 117 272 154 C 242 190 220 230 204 274 C 187 316 176 362 170 410 C 164 458 162 507 162 557 L 162 1518 L 369 1518 L 369 582 C 369 520 374 463 386 412 C 398 361 420 318 452 282 C 484 246 528 218 585 198 C 642 178 716 168 807 168 C 897 168 972 177 1030 197 C 1088 216 1133 244 1167 280 C 1199 316 1222 359 1234 410 C 1246 461 1253 518 1253 582 L 1253 1518 L 1454 1518 L 1454 557 C 1454 507 1451 458 1445 410 C 1439 362 1427 316 1411 273 C 1394 229 1371 189 1341 153 C 1311 116 1272 84 1224 58 C 1176 31 1117 10 1049 -4 C 980 -19 899 -27 805 -27 Z M 428 1942 L 672 1942 L 975 1606 L 791 1606 L 428 1942 Z" unicode="Ù" />
<glyph horiz-adv-x="1614" d="M 805 -27 C 711 -27 629 -19 561 -4 C 493 10 435 31 388 59 C 340 85 301 117 272 154 C 242 190 220 230 204 274 C 187 316 176 362 170 410 C 164 458 162 507 162 557 L 162 1518 L 369 1518 L 369 582 C 369 520 374 463 386 412 C 398 361 420 318 452 282 C 484 246 528 218 585 198 C 642 178 716 168 807 168 C 897 168 972 177 1030 197 C 1088 216 1133 244 1167 280 C 1199 316 1222 359 1234 410 C 1246 461 1253 518 1253 582 L 1253 1518 L 1454 1518 L 1454 557 C 1454 507 1451 458 1445 410 C 1439 362 1427 316 1411 273 C 1394 229 1371 189 1341 153 C 1311 116 1272 84 1224 58 C 1176 31 1117 10 1049 -4 C 980 -19 899 -27 805 -27 Z M 934 1942 L 1178 1942 L 815 1606 L 631 1606 L 934 1942 Z" unicode="Ú" />
<glyph horiz-adv-x="1614" d="M 805 -27 C 711 -27 629 -19 561 -4 C 493 10 435 31 388 59 C 340 85 301 117 272 154 C 242 190 220 230 204 274 C 187 316 176 362 170 410 C 164 458 162 507 162 557 L 162 1518 L 369 1518 L 369 582 C 369 520 374 463 386 412 C 398 361 420 318 452 282 C 484 246 528 218 585 198 C 642 178 716 168 807 168 C 897 168 972 177 1030 197 C 1088 216 1133 244 1167 280 C 1199 316 1222 359 1234 410 C 1246 461 1253 518 1253 582 L 1253 1518 L 1454 1518 L 1454 557 C 1454 507 1451 458 1445 410 C 1439 362 1427 316 1411 273 C 1394 229 1371 189 1341 153 C 1311 116 1272 84 1224 58 C 1176 31 1117 10 1049 -4 C 980 -19 899 -27 805 -27 Z M 695 1942 L 910 1942 L 1223 1606 L 1030 1606 L 799 1813 L 572 1606 L 381 1606 L 695 1942 Z" unicode="Û" />
<glyph horiz-adv-x="1614" d="M 805 -27 C 711 -27 629 -19 561 -4 C 493 10 435 31 388 59 C 340 85 301 117 272 154 C 242 190 220 230 204 274 C 187 316 176 362 170 410 C 164 458 162 507 162 557 L 162 1518 L 369 1518 L 369 582 C 369 520 374 463 386 412 C 398 361 420 318 452 282 C 484 246 528 218 585 198 C 642 178 716 168 807 168 C 897 168 972 177 1030 197 C 1088 216 1133 244 1167 280 C 1199 316 1222 359 1234 410 C 1246 461 1253 518 1253 582 L 1253 1518 L 1454 1518 L 1454 557 C 1454 507 1451 458 1445 410 C 1439 362 1427 316 1411 273 C 1394 229 1371 189 1341 153 C 1311 116 1272 84 1224 58 C 1176 31 1117 10 1049 -4 C 980 -19 899 -27 805 -27 Z M 492 1841 L 674 1841 L 674 1612 L 492 1612 L 492 1841 Z M 934 1841 L 1114 1841 L 1114 1612 L 934 1612 L 934 1841 Z" unicode="Ü" />
<glyph horiz-adv-x="1466" d="M 631 573 L 20 1518 L 246 1518 L 735 762 L 1229 1518 L 1444 1518 L 836 578 L 836 0 L 631 0 L 631 573 Z M 860 1942 L 1104 1942 L 741 1606 L 557 1606 L 860 1942 Z" unicode="Ý" />
<glyph horiz-adv-x="1475" d="M 172 1518 L 375 1518 L 375 1282 L 854 1282 C 956 1282 1042 1272 1111 1252 C 1180 1232 1235 1202 1277 1163 C 1318 1123 1347 1074 1365 1015 C 1382 955 1391 887 1391 809 C 1391 731 1382 661 1365 600 C 1348 538 1319 487 1278 445 C 1236 402 1180 369 1110 347 C 1040 324 953 313 848 313 L 375 313 L 375 0 L 172 0 L 172 1518 Z M 854 504 C 912 504 963 509 1005 520 C 1047 530 1081 548 1108 572 C 1134 595 1153 626 1165 664 C 1177 702 1184 748 1184 803 C 1184 859 1178 905 1166 942 C 1154 979 1135 1009 1109 1032 C 1082 1054 1047 1070 1005 1080 C 962 1089 910 1094 850 1094 L 375 1094 L 375 504 L 854 504 Z" unicode="Þ" />
<glyph horiz-adv-x="1352" d="M 147 1098 C 147 1164 155 1228 171 1289 C 187 1349 216 1403 257 1449 C 297 1495 350 1531 418 1558 C 486 1585 571 1599 674 1599 C 842 1599 965 1565 1043 1498 C 1121 1430 1161 1330 1161 1198 C 1161 1146 1156 1100 1147 1061 C 1137 1021 1124 987 1107 959 C 1089 929 1067 905 1041 885 C 1015 865 985 850 952 838 C 1006 828 1053 813 1094 793 C 1135 773 1170 748 1198 717 C 1225 685 1245 647 1259 602 C 1273 556 1280 503 1280 442 C 1280 370 1272 307 1257 253 C 1241 198 1212 152 1170 115 C 1126 77 1066 48 989 29 C 911 9 810 0 686 0 L 557 0 L 557 180 L 682 180 C 769 180 839 186 892 200 C 944 214 985 233 1014 258 C 1042 282 1060 311 1069 345 C 1078 379 1083 415 1083 455 C 1083 501 1076 541 1063 575 C 1049 609 1026 637 994 659 C 960 681 915 697 859 707 C 803 717 732 723 647 723 L 647 889 C 756 889 836 909 888 951 C 939 993 965 1059 965 1149 C 965 1190 959 1226 949 1257 C 938 1288 921 1314 898 1335 C 874 1355 843 1371 806 1381 C 769 1391 724 1397 672 1397 C 614 1397 564 1390 523 1376 C 481 1362 447 1342 421 1316 C 394 1289 374 1257 362 1219 C 350 1181 344 1138 344 1090 L 344 0 L 147 0 L 147 1098 Z" unicode="ß" />
<glyph horiz-adv-x="1284" d="M 487 -20 C 405 -20 337 -11 285 6 C 233 24 191 48 161 80 C 130 110 109 147 97 189 C 85 231 80 276 80 324 C 80 378 85 425 96 467 C 106 508 124 544 148 576 C 172 606 203 632 242 653 C 280 674 328 691 384 705 C 439 717 504 726 578 732 C 652 738 736 741 831 741 L 893 741 C 891 781 887 817 880 847 C 873 877 860 902 840 922 C 819 941 790 955 754 965 C 717 974 668 979 608 979 C 572 979 537 976 505 970 C 472 964 442 957 414 948 C 385 938 359 928 335 917 C 311 905 290 894 272 883 L 168 1038 C 186 1050 211 1064 243 1079 C 274 1094 310 1108 350 1121 C 390 1133 433 1144 480 1152 C 527 1160 576 1165 627 1165 C 724 1165 802 1156 862 1139 C 922 1121 968 1094 1002 1058 C 1034 1021 1056 974 1068 916 C 1079 858 1085 789 1085 709 L 1085 303 C 1085 275 1086 253 1088 237 C 1090 220 1095 207 1103 199 C 1110 189 1121 183 1136 180 C 1151 177 1172 176 1198 176 L 1198 2 C 1190 0 1180 -1 1167 -1 C 1153 -1 1136 -2 1116 -2 C 1084 -2 1058 0 1037 5 C 1015 9 997 17 983 28 C 968 38 956 51 946 67 C 936 83 928 103 922 127 C 904 103 883 81 859 63 C 835 45 805 30 771 18 C 735 5 694 -4 648 -10 C 601 -16 547 -20 487 -20 Z M 520 152 C 586 152 642 158 689 172 C 736 186 775 207 806 236 C 836 264 858 300 872 344 C 886 388 893 440 893 502 L 893 571 L 842 571 C 724 571 628 567 554 560 C 480 552 422 540 380 522 C 338 504 309 480 293 450 C 277 420 270 382 270 338 C 270 308 274 281 282 258 C 290 234 303 215 323 200 C 341 184 367 172 399 164 C 431 156 471 152 520 152 Z M 268 1591 L 512 1591 L 815 1255 L 631 1255 L 268 1591 Z" unicode="à" />
<glyph horiz-adv-x="1284" d="M 487 -20 C 405 -20 337 -11 285 6 C 233 24 191 48 161 80 C 130 110 109 147 97 189 C 85 231 80 276 80 324 C 80 378 85 425 96 467 C 106 508 124 544 148 576 C 172 606 203 632 242 653 C 280 674 328 691 384 705 C 439 717 504 726 578 732 C 652 738 736 741 831 741 L 893 741 C 891 781 887 817 880 847 C 873 877 860 902 840 922 C 819 941 790 955 754 965 C 717 974 668 979 608 979 C 572 979 537 976 505 970 C 472 964 442 957 414 948 C 385 938 359 928 335 917 C 311 905 290 894 272 883 L 168 1038 C 186 1050 211 1064 243 1079 C 274 1094 310 1108 350 1121 C 390 1133 433 1144 480 1152 C 527 1160 576 1165 627 1165 C 724 1165 802 1156 862 1139 C 922 1121 968 1094 1002 1058 C 1034 1021 1056 974 1068 916 C 1079 858 1085 789 1085 709 L 1085 303 C 1085 275 1086 253 1088 237 C 1090 220 1095 207 1103 199 C 1110 189 1121 183 1136 180 C 1151 177 1172 176 1198 176 L 1198 2 C 1190 0 1180 -1 1167 -1 C 1153 -1 1136 -2 1116 -2 C 1084 -2 1058 0 1037 5 C 1015 9 997 17 983 28 C 968 38 956 51 946 67 C 936 83 928 103 922 127 C 904 103 883 81 859 63 C 835 45 805 30 771 18 C 735 5 694 -4 648 -10 C 601 -16 547 -20 487 -20 Z M 520 152 C 586 152 642 158 689 172 C 736 186 775 207 806 236 C 836 264 858 300 872 344 C 886 388 893 440 893 502 L 893 571 L 842 571 C 724 571 628 567 554 560 C 480 552 422 540 380 522 C 338 504 309 480 293 450 C 277 420 270 382 270 338 C 270 308 274 281 282 258 C 290 234 303 215 323 200 C 341 184 367 172 399 164 C 431 156 471 152 520 152 Z M 774 1591 L 1018 1591 L 655 1255 L 471 1255 L 774 1591 Z" unicode="á" />
<glyph horiz-adv-x="1284" d="M 487 -20 C 405 -20 337 -11 285 6 C 233 24 191 48 161 80 C 130 110 109 147 97 189 C 85 231 80 276 80 324 C 80 378 85 425 96 467 C 106 508 124 544 148 576 C 172 606 203 632 242 653 C 280 674 328 691 384 705 C 439 717 504 726 578 732 C 652 738 736 741 831 741 L 893 741 C 891 781 887 817 880 847 C 873 877 860 902 840 922 C 819 941 790 955 754 965 C 717 974 668 979 608 979 C 572 979 537 976 505 970 C 472 964 442 957 414 948 C 385 938 359 928 335 917 C 311 905 290 894 272 883 L 168 1038 C 186 1050 211 1064 243 1079 C 274 1094 310 1108 350 1121 C 390 1133 433 1144 480 1152 C 527 1160 576 1165 627 1165 C 724 1165 802 1156 862 1139 C 922 1121 968 1094 1002 1058 C 1034 1021 1056 974 1068 916 C 1079 858 1085 789 1085 709 L 1085 303 C 1085 275 1086 253 1088 237 C 1090 220 1095 207 1103 199 C 1110 189 1121 183 1136 180 C 1151 177 1172 176 1198 176 L 1198 2 C 1190 0 1180 -1 1167 -1 C 1153 -1 1136 -2 1116 -2 C 1084 -2 1058 0 1037 5 C 1015 9 997 17 983 28 C 968 38 956 51 946 67 C 936 83 928 103 922 127 C 904 103 883 81 859 63 C 835 45 805 30 771 18 C 735 5 694 -4 648 -10 C 601 -16 547 -20 487 -20 Z M 520 152 C 586 152 642 158 689 172 C 736 186 775 207 806 236 C 836 264 858 300 872 344 C 886 388 893 440 893 502 L 893 571 L 842 571 C 724 571 628 567 554 560 C 480 552 422 540 380 522 C 338 504 309 480 293 450 C 277 420 270 382 270 338 C 270 308 274 281 282 258 C 290 234 303 215 323 200 C 341 184 367 172 399 164 C 431 156 471 152 520 152 Z M 535 1591 L 750 1591 L 1063 1255 L 870 1255 L 639 1462 L 412 1255 L 221 1255 L 535 1591 Z" unicode="â" />
<glyph horiz-adv-x="1284" d="M 487 -20 C 405 -20 337 -11 285 6 C 233 24 191 48 161 80 C 130 110 109 147 97 189 C 85 231 80 276 80 324 C 80 378 85 425 96 467 C 106 508 124 544 148 576 C 172 606 203 632 242 653 C 280 674 328 691 384 705 C 439 717 504 726 578 732 C 652 738 736 741 831 741 L 893 741 C 891 781 887 817 880 847 C 873 877 860 902 840 922 C 819 941 790 955 754 965 C 717 974 668 979 608 979 C 572 979 537 976 505 970 C 472 964 442 957 414 948 C 385 938 359 928 335 917 C 311 905 290 894 272 883 L 168 1038 C 186 1050 211 1064 243 1079 C 274 1094 310 1108 350 1121 C 390 1133 433 1144 480 1152 C 527 1160 576 1165 627 1165 C 724 1165 802 1156 862 1139 C 922 1121 968 1094 1002 1058 C 1034 1021 1056 974 1068 916 C 1079 858 1085 789 1085 709 L 1085 303 C 1085 275 1086 253 1088 237 C 1090 220 1095 207 1103 199 C 1110 189 1121 183 1136 180 C 1151 177 1172 176 1198 176 L 1198 2 C 1190 0 1180 -1 1167 -1 C 1153 -1 1136 -2 1116 -2 C 1084 -2 1058 0 1037 5 C 1015 9 997 17 983 28 C 968 38 956 51 946 67 C 936 83 928 103 922 127 C 904 103 883 81 859 63 C 835 45 805 30 771 18 C 735 5 694 -4 648 -10 C 601 -16 547 -20 487 -20 Z M 520 152 C 586 152 642 158 689 172 C 736 186 775 207 806 236 C 836 264 858 300 872 344 C 886 388 893 440 893 502 L 893 571 L 842 571 C 724 571 628 567 554 560 C 480 552 422 540 380 522 C 338 504 309 480 293 450 C 277 420 270 382 270 338 C 270 308 274 281 282 258 C 290 234 303 215 323 200 C 341 184 367 172 399 164 C 431 156 471 152 520 152 Z M 223 1356 C 243 1380 264 1403 286 1424 C 308 1444 330 1462 354 1478 C 377 1492 401 1504 425 1513 C 449 1521 474 1526 498 1526 C 533 1526 563 1520 588 1510 C 612 1499 635 1487 656 1475 C 676 1461 695 1449 715 1439 C 734 1428 756 1423 782 1423 C 808 1423 834 1433 862 1454 C 889 1475 917 1502 946 1536 L 1063 1442 C 1043 1416 1022 1392 1000 1370 C 978 1348 955 1328 932 1312 C 908 1294 884 1281 860 1271 C 836 1261 811 1257 787 1257 C 755 1257 726 1262 702 1273 C 678 1283 655 1295 634 1309 C 612 1321 590 1333 570 1344 C 549 1354 526 1360 502 1360 C 478 1360 453 1351 425 1334 C 397 1317 371 1292 346 1260 L 223 1356 Z" unicode="ã" />
<glyph horiz-adv-x="1284" d="M 487 -20 C 405 -20 337 -11 285 6 C 233 24 191 48 161 80 C 130 110 109 147 97 189 C 85 231 80 276 80 324 C 80 378 85 425 96 467 C 106 508 124 544 148 576 C 172 606 203 632 242 653 C 280 674 328 691 384 705 C 439 717 504 726 578 732 C 652 738 736 741 831 741 L 893 741 C 891 781 887 817 880 847 C 873 877 860 902 840 922 C 819 941 790 955 754 965 C 717 974 668 979 608 979 C 572 979 537 976 505 970 C 472 964 442 957 414 948 C 385 938 359 928 335 917 C 311 905 290 894 272 883 L 168 1038 C 186 1050 211 1064 243 1079 C 274 1094 310 1108 350 1121 C 390 1133 433 1144 480 1152 C 527 1160 576 1165 627 1165 C 724 1165 802 1156 862 1139 C 922 1121 968 1094 1002 1058 C 1034 1021 1056 974 1068 916 C 1079 858 1085 789 1085 709 L 1085 303 C 1085 275 1086 253 1088 237 C 1090 220 1095 207 1103 199 C 1110 189 1121 183 1136 180 C 1151 177 1172 176 1198 176 L 1198 2 C 1190 0 1180 -1 1167 -1 C 1153 -1 1136 -2 1116 -2 C 1084 -2 1058 0 1037 5 C 1015 9 997 17 983 28 C 968 38 956 51 946 67 C 936 83 928 103 922 127 C 904 103 883 81 859 63 C 835 45 805 30 771 18 C 735 5 694 -4 648 -10 C 601 -16 547 -20 487 -20 Z M 520 152 C 586 152 642 158 689 172 C 736 186 775 207 806 236 C 836 264 858 300 872 344 C 886 388 893 440 893 502 L 893 571 L 842 571 C 724 571 628 567 554 560 C 480 552 422 540 380 522 C 338 504 309 480 293 450 C 277 420 270 382 270 338 C 270 308 274 281 282 258 C 290 234 303 215 323 200 C 341 184 367 172 399 164 C 431 156 471 152 520 152 Z M 332 1491 L 514 1491 L 514 1262 L 332 1262 L 332 1491 Z M 774 1491 L 954 1491 L 954 1262 L 774 1262 L 774 1491 Z" unicode="ä" />
<glyph horiz-adv-x="1284" d="M 643 1231 C 597 1231 558 1237 526 1251 C 493 1265 466 1284 446 1308 C 424 1331 409 1359 399 1391 C 389 1423 385 1457 385 1495 C 385 1533 389 1568 399 1601 C 409 1633 424 1662 446 1686 C 466 1710 493 1728 526 1742 C 558 1756 597 1763 643 1763 C 686 1763 724 1756 756 1742 C 788 1728 815 1710 837 1686 C 857 1662 873 1633 883 1601 C 893 1568 899 1533 899 1495 C 899 1457 893 1423 883 1391 C 873 1359 857 1331 837 1308 C 815 1284 788 1265 756 1251 C 724 1237 686 1231 643 1231 Z M 643 1341 C 669 1341 691 1345 709 1353 C 727 1361 743 1372 755 1386 C 766 1400 774 1416 780 1435 C 786 1453 789 1473 789 1495 C 789 1516 786 1536 780 1555 C 774 1573 766 1590 755 1604 C 743 1618 727 1629 709 1637 C 691 1645 669 1649 643 1649 C 616 1649 593 1645 575 1637 C 556 1629 541 1618 530 1604 C 518 1590 509 1573 504 1555 C 498 1536 496 1516 496 1495 C 496 1473 498 1453 504 1435 C 509 1416 518 1400 530 1386 C 541 1372 556 1361 575 1353 C 593 1345 616 1341 643 1341 Z M 487 -20 C 405 -20 337 -11 285 6 C 233 24 191 48 161 80 C 130 110 109 147 97 189 C 85 231 80 276 80 324 C 80 378 85 425 96 467 C 106 508 124 544 148 576 C 172 606 203 632 242 653 C 280 674 328 691 384 705 C 439 717 504 726 578 732 C 652 738 736 741 831 741 L 893 741 C 891 781 887 817 880 847 C 873 877 860 902 840 922 C 819 941 790 955 754 965 C 717 974 668 979 608 979 C 572 979 537 976 505 970 C 472 964 442 957 414 948 C 385 938 359 928 335 917 C 311 905 290 894 272 883 L 168 1038 C 186 1050 211 1064 243 1079 C 274 1094 310 1108 350 1121 C 390 1133 433 1144 480 1152 C 527 1160 576 1165 627 1165 C 724 1165 802 1156 862 1139 C 922 1121 968 1094 1002 1058 C 1034 1021 1056 974 1068 916 C 1079 858 1085 789 1085 709 L 1085 303 C 1085 275 1086 253 1088 237 C 1090 220 1095 207 1103 199 C 1110 189 1121 183 1136 180 C 1151 177 1172 176 1198 176 L 1198 2 C 1190 0 1180 -1 1167 -1 C 1153 -1 1136 -2 1116 -2 C 1084 -2 1058 0 1037 5 C 1015 9 997 17 983 28 C 968 38 956 51 946 67 C 936 83 928 103 922 127 C 904 103 883 81 859 63 C 835 45 805 30 771 18 C 735 5 694 -4 648 -10 C 601 -16 547 -20 487 -20 Z M 520 152 C 586 152 642 158 689 172 C 736 186 775 207 806 236 C 836 264 858 300 872 344 C 886 388 893 440 893 502 L 893 571 L 842 571 C 724 571 628 567 554 560 C 480 552 422 540 380 522 C 338 504 309 480 293 450 C 277 420 270 382 270 338 C 270 308 274 281 282 258 C 290 234 303 215 323 200 C 341 184 367 172 399 164 C 431 156 471 152 520 152 Z" unicode="å" />
<glyph horiz-adv-x="2019" d="M 1444 -23 C 1378 -23 1319 -18 1269 -8 C 1218 2 1174 16 1137 34 C 1099 52 1066 73 1040 99 C 1014 125 992 154 975 186 C 951 142 924 107 893 81 C 861 54 826 33 787 19 C 747 3 702 -6 653 -12 C 604 -17 550 -20 492 -20 C 418 -20 356 -13 304 1 C 252 15 209 36 176 65 C 142 93 118 129 103 172 C 87 215 80 266 80 324 C 80 404 93 471 119 525 C 145 579 189 622 249 654 C 308 686 385 708 481 721 C 576 734 693 741 831 741 L 893 741 C 891 781 887 817 880 847 C 873 877 860 902 840 922 C 819 941 790 955 754 965 C 717 974 668 979 608 979 C 572 979 537 976 504 970 C 471 964 440 957 412 949 C 382 939 355 929 331 918 C 307 906 286 895 268 885 L 168 1038 C 186 1050 211 1064 243 1079 C 274 1094 310 1108 350 1121 C 390 1133 433 1144 480 1152 C 527 1160 576 1165 627 1165 C 683 1165 732 1161 774 1155 C 816 1148 853 1138 885 1125 C 915 1111 941 1095 962 1075 C 982 1055 999 1033 1012 1008 C 1049 1056 1102 1095 1171 1123 C 1239 1151 1328 1165 1438 1165 C 1518 1165 1586 1156 1642 1139 C 1697 1122 1743 1098 1779 1068 C 1815 1037 1842 1001 1862 959 C 1881 917 1895 871 1904 822 C 1912 772 1917 719 1918 663 C 1918 607 1918 551 1917 494 L 1077 494 C 1079 442 1086 394 1098 352 C 1110 310 1130 274 1158 244 C 1185 214 1222 190 1268 174 C 1314 158 1372 150 1444 150 C 1489 150 1529 152 1564 158 C 1599 164 1631 172 1659 182 C 1687 192 1712 203 1736 217 C 1759 231 1782 246 1804 262 L 1913 123 C 1882 99 1850 78 1818 60 C 1786 42 1751 27 1715 15 C 1677 2 1636 -7 1592 -13 C 1548 -19 1498 -23 1444 -23 Z M 522 152 C 587 152 643 158 690 172 C 737 186 776 207 806 236 C 836 264 858 300 872 344 C 886 388 893 440 893 502 L 893 571 L 842 571 C 726 571 632 567 558 560 C 484 553 425 541 383 524 C 340 506 310 483 294 453 C 278 423 270 384 270 338 C 270 308 274 281 282 258 C 290 234 303 215 323 200 C 341 184 367 172 399 164 C 431 156 472 152 522 152 Z M 1434 989 C 1368 989 1313 981 1270 966 C 1226 950 1191 929 1165 901 C 1137 872 1117 838 1104 799 C 1091 759 1083 716 1079 668 L 1729 668 C 1727 713 1723 755 1717 795 C 1711 834 1698 868 1679 897 C 1659 925 1629 948 1591 964 C 1553 980 1500 989 1434 989 Z" unicode="æ" />
<glyph horiz-adv-x="1165" d="M 598 -475 C 546 -475 500 -469 460 -458 C 420 -447 383 -432 350 -414 L 406 -309 C 434 -323 463 -335 494 -343 C 524 -351 556 -356 590 -356 C 622 -356 647 -353 667 -348 C 687 -343 702 -336 714 -328 C 725 -318 733 -307 737 -295 C 741 -283 743 -270 743 -256 C 743 -237 739 -222 733 -210 C 726 -198 715 -188 701 -182 C 685 -175 666 -171 642 -169 C 618 -167 589 -168 555 -170 L 506 -135 L 528 -12 C 442 -2 372 19 316 51 C 260 83 215 124 183 175 C 149 225 126 283 112 350 C 98 417 92 491 92 571 C 92 659 100 739 117 812 C 133 885 163 948 206 1001 C 248 1053 306 1093 379 1122 C 451 1150 543 1165 655 1165 C 705 1165 752 1160 794 1152 C 836 1144 875 1132 910 1118 C 944 1102 976 1084 1004 1063 C 1032 1042 1057 1019 1079 995 L 934 858 C 920 872 905 885 888 899 C 871 913 852 925 830 937 C 807 947 781 956 753 963 C 724 969 691 973 655 973 C 585 973 526 963 480 945 C 434 927 397 900 369 866 C 341 830 321 787 310 737 C 298 687 293 630 293 567 C 293 503 298 446 309 396 C 320 345 340 302 368 267 C 395 231 432 204 478 186 C 524 167 583 158 655 158 C 685 158 714 160 740 165 C 766 170 790 178 814 188 C 836 197 858 209 880 223 C 901 237 922 254 944 274 L 1077 147 C 1047 119 1018 95 989 75 C 959 54 928 37 894 23 C 860 9 823 -1 783 -9 C 743 -16 699 -20 649 -20 L 637 -90 C 668 -88 698 -89 728 -92 C 757 -94 783 -102 806 -114 C 828 -126 846 -144 860 -168 C 874 -192 881 -226 881 -268 C 881 -301 875 -330 865 -356 C 854 -382 837 -404 815 -422 C 792 -439 763 -452 727 -461 C 691 -470 648 -475 598 -475 Z" unicode="ç" />
<glyph horiz-adv-x="1229" d="M 235 1593 L 479 1593 L 782 1257 L 598 1257 L 235 1593 Z M 651 -23 C 573 -23 505 -16 447 -2 C 389 12 340 32 299 58 C 257 83 222 114 196 150 C 169 186 148 227 133 271 C 117 315 107 362 101 413 C 95 463 92 516 92 571 C 92 653 99 730 115 802 C 130 874 158 937 200 991 C 240 1045 297 1087 369 1118 C 441 1149 533 1165 647 1165 C 725 1165 791 1156 845 1139 C 899 1122 945 1098 981 1068 C 1017 1037 1045 1001 1065 959 C 1085 917 1099 871 1109 822 C 1118 772 1123 719 1125 663 C 1127 607 1127 551 1126 494 L 285 494 C 287 442 295 394 307 352 C 319 310 339 274 367 244 C 394 214 430 190 476 174 C 522 158 580 150 651 150 C 697 150 737 152 773 158 C 808 164 840 172 869 182 C 897 192 922 203 946 217 C 969 231 992 246 1014 262 L 1120 123 C 1090 99 1058 78 1026 60 C 993 42 958 27 921 15 C 883 2 842 -7 798 -13 C 754 -19 705 -23 651 -23 Z M 641 989 C 575 989 521 981 478 966 C 434 950 399 929 373 902 C 345 874 325 840 312 801 C 299 761 291 718 287 670 L 938 670 C 936 700 933 728 931 756 C 928 783 923 809 917 833 C 909 856 899 877 887 897 C 874 916 857 933 836 947 C 814 960 788 970 756 978 C 724 985 685 989 641 989 Z" unicode="è" />
<glyph horiz-adv-x="1229" d="M 651 -23 C 573 -23 505 -16 447 -2 C 389 12 340 32 299 58 C 257 83 222 114 196 150 C 169 186 148 227 133 271 C 117 315 107 362 101 413 C 95 463 92 516 92 571 C 92 653 99 730 115 802 C 130 874 158 937 200 991 C 240 1045 297 1087 369 1118 C 441 1149 533 1165 647 1165 C 725 1165 791 1156 845 1139 C 899 1122 945 1098 981 1068 C 1017 1037 1045 1001 1065 959 C 1085 917 1099 871 1109 822 C 1118 772 1123 719 1125 663 C 1127 607 1127 551 1126 494 L 285 494 C 287 442 295 394 307 352 C 319 310 339 274 367 244 C 394 214 430 190 476 174 C 522 158 580 150 651 150 C 697 150 737 152 773 158 C 808 164 840 172 869 182 C 897 192 922 203 946 217 C 969 231 992 246 1014 262 L 1120 123 C 1090 99 1058 78 1026 60 C 993 42 958 27 921 15 C 883 2 842 -7 798 -13 C 754 -19 705 -23 651 -23 Z M 641 989 C 575 989 521 981 478 966 C 434 950 399 929 373 902 C 345 874 325 840 312 801 C 299 761 291 718 287 670 L 938 670 C 936 700 933 728 931 756 C 928 783 923 809 917 833 C 909 856 899 877 887 897 C 874 916 857 933 836 947 C 814 960 788 970 756 978 C 724 985 685 989 641 989 Z M 741 1591 L 985 1591 L 622 1255 L 438 1255 L 741 1591 Z" unicode="é" />
<glyph horiz-adv-x="1229" d="M 651 -23 C 573 -23 505 -16 447 -2 C 389 12 340 32 299 58 C 257 83 222 114 196 150 C 169 186 148 227 133 271 C 117 315 107 362 101 413 C 95 463 92 516 92 571 C 92 653 99 730 115 802 C 130 874 158 937 200 991 C 240 1045 297 1087 369 1118 C 441 1149 533 1165 647 1165 C 725 1165 791 1156 845 1139 C 899 1122 945 1098 981 1068 C 1017 1037 1045 1001 1065 959 C 1085 917 1099 871 1109 822 C 1118 772 1123 719 1125 663 C 1127 607 1127 551 1126 494 L 285 494 C 287 442 295 394 307 352 C 319 310 339 274 367 244 C 394 214 430 190 476 174 C 522 158 580 150 651 150 C 697 150 737 152 773 158 C 808 164 840 172 869 182 C 897 192 922 203 946 217 C 969 231 992 246 1014 262 L 1120 123 C 1090 99 1058 78 1026 60 C 993 42 958 27 921 15 C 883 2 842 -7 798 -13 C 754 -19 705 -23 651 -23 Z M 641 989 C 575 989 521 981 478 966 C 434 950 399 929 373 902 C 345 874 325 840 312 801 C 299 761 291 718 287 670 L 938 670 C 936 700 933 728 931 756 C 928 783 923 809 917 833 C 909 856 899 877 887 897 C 874 916 857 933 836 947 C 814 960 788 970 756 978 C 724 985 685 989 641 989 Z M 502 1591 L 717 1591 L 1030 1255 L 837 1255 L 606 1462 L 379 1255 L 188 1255 L 502 1591 Z" unicode="ê" />
<glyph horiz-adv-x="1229" d="M 299 1491 L 481 1491 L 481 1262 L 299 1262 L 299 1491 Z M 741 1491 L 921 1491 L 921 1262 L 741 1262 L 741 1491 Z M 651 -23 C 573 -23 505 -16 447 -2 C 389 12 340 32 299 58 C 257 83 222 114 196 150 C 169 186 148 227 133 271 C 117 315 107 362 101 413 C 95 463 92 516 92 571 C 92 653 99 730 115 802 C 130 874 158 937 200 991 C 240 1045 297 1087 369 1118 C 441 1149 533 1165 647 1165 C 725 1165 791 1156 845 1139 C 899 1122 945 1098 981 1068 C 1017 1037 1045 1001 1065 959 C 1085 917 1099 871 1109 822 C 1118 772 1123 719 1125 663 C 1127 607 1127 551 1126 494 L 285 494 C 287 442 295 394 307 352 C 319 310 339 274 367 244 C 394 214 430 190 476 174 C 522 158 580 150 651 150 C 697 150 737 152 773 158 C 808 164 840 172 869 182 C 897 192 922 203 946 217 C 969 231 992 246 1014 262 L 1120 123 C 1090 99 1058 78 1026 60 C 993 42 958 27 921 15 C 883 2 842 -7 798 -13 C 754 -19 705 -23 651 -23 Z M 641 989 C 575 989 521 981 478 966 C 434 950 399 929 373 902 C 345 874 325 840 312 801 C 299 761 291 718 287 670 L 938 670 C 936 700 933 728 931 756 C 928 783 923 809 917 833 C 909 856 899 877 887 897 C 874 916 857 933 836 947 C 814 960 788 970 756 978 C 724 985 685 989 641 989 Z" unicode="ë" />
<glyph horiz-adv-x="516" d="M -109 1587 L 133 1587 L 356 1255 L 172 1255 L -109 1587 Z M 160 1139 L 356 1139 L 356 0 L 160 0 L 160 1139 Z" unicode="ì" />
<glyph horiz-adv-x="516" d="M 383 1587 L 627 1587 L 346 1255 L 164 1255 L 383 1587 Z M 160 1139 L 356 1139 L 356 0 L 160 0 L 160 1139 Z" unicode="í" />
<glyph horiz-adv-x="516" d="M 156 1587 L 358 1587 L 608 1255 L 418 1255 L 256 1464 L 90 1255 L -92 1255 L 156 1587 Z M 160 1139 L 356 1139 L 356 0 L 160 0 L 160 1139 Z" unicode="î" />
<glyph horiz-adv-x="516" d="M -18 1505 L 145 1505 L 145 1278 L -18 1278 L -18 1505 Z M 373 1505 L 537 1505 L 537 1278 L 373 1278 L 373 1505 Z M 160 1139 L 356 1139 L 356 0 L 160 0 L 160 1139 Z" unicode="ï" />
<glyph horiz-adv-x="1309" d="M 604 1352 L 758 1391 C 736 1416 712 1441 688 1465 C 663 1489 637 1514 610 1538 L 795 1616 C 825 1590 854 1563 882 1535 C 910 1506 938 1476 965 1444 L 1245 1516 L 1245 1372 L 1049 1323 C 1074 1279 1097 1231 1118 1180 C 1138 1128 1156 1073 1171 1014 C 1185 954 1197 889 1205 820 C 1213 751 1217 677 1217 598 C 1217 489 1205 395 1183 317 C 1160 239 1125 175 1079 125 C 1032 74 973 37 902 13 C 831 -11 747 -23 651 -23 C 550 -23 464 -10 393 16 C 322 42 264 79 220 129 C 175 177 142 237 122 307 C 102 377 92 457 92 547 C 92 633 100 711 118 781 C 136 851 165 911 205 961 C 245 1010 297 1048 362 1075 C 426 1102 506 1116 600 1116 C 650 1116 694 1113 733 1108 C 771 1103 806 1096 836 1087 C 866 1077 892 1064 914 1050 C 936 1035 955 1018 973 999 C 961 1045 946 1091 926 1136 C 906 1181 880 1226 850 1272 L 604 1210 L 604 1352 Z M 651 158 C 717 158 774 166 820 183 C 866 200 904 225 933 259 C 961 292 982 333 995 382 C 1007 431 1014 487 1014 551 C 1014 615 1007 672 995 721 C 982 769 961 810 933 843 C 904 875 866 900 820 917 C 774 933 717 942 651 942 C 585 942 530 933 485 917 C 439 900 403 875 375 843 C 346 810 325 769 312 721 C 299 672 293 615 293 551 C 293 487 299 431 312 382 C 325 333 346 292 375 259 C 403 225 439 200 485 183 C 530 166 585 158 651 158 Z" unicode="ð" />
<glyph horiz-adv-x="1294" d="M 147 1128 L 305 1139 L 322 1030 C 335 1048 352 1065 373 1081 C 394 1097 421 1112 455 1125 C 487 1137 527 1146 574 1154 C 620 1161 676 1165 741 1165 C 831 1165 903 1153 957 1131 C 1011 1108 1052 1076 1081 1035 C 1109 993 1128 944 1137 886 C 1146 828 1151 764 1151 694 L 1151 0 L 952 0 L 952 655 C 952 701 949 743 945 782 C 941 820 930 854 912 882 C 894 909 866 930 830 946 C 793 961 742 969 678 969 C 608 969 551 960 508 943 C 464 926 431 903 408 873 C 384 843 368 807 360 766 C 352 724 348 679 348 631 L 348 0 L 147 0 L 147 1128 Z M 223 1356 C 243 1380 264 1403 286 1424 C 308 1444 330 1462 354 1478 C 377 1492 401 1504 425 1513 C 449 1521 474 1526 498 1526 C 533 1526 563 1520 588 1510 C 612 1499 635 1487 656 1475 C 676 1461 695 1449 715 1439 C 734 1428 756 1423 782 1423 C 808 1423 834 1433 862 1454 C 889 1475 917 1502 946 1536 L 1063 1442 C 1043 1416 1022 1392 1000 1370 C 978 1348 955 1328 932 1312 C 908 1294 884 1281 860 1271 C 836 1261 811 1257 787 1257 C 755 1257 726 1262 702 1273 C 678 1283 655 1295 634 1309 C 612 1321 590 1333 570 1344 C 549 1354 526 1360 502 1360 C 478 1360 453 1351 425 1334 C 397 1317 371 1292 346 1260 L 223 1356 Z" unicode="ñ" />
<glyph horiz-adv-x="1309" d="M 653 -23 C 552 -23 466 -10 395 15 C 324 40 266 78 222 128 C 176 178 143 240 123 314 C 102 388 92 473 92 571 C 92 668 102 754 123 828 C 143 902 176 964 222 1014 C 266 1064 324 1101 395 1127 C 466 1152 552 1165 653 1165 C 753 1165 839 1152 911 1127 C 983 1101 1041 1064 1087 1014 C 1131 964 1164 902 1185 828 C 1206 754 1217 668 1217 571 C 1217 473 1206 388 1185 314 C 1164 240 1131 178 1087 128 C 1041 78 983 40 911 15 C 839 -10 753 -23 653 -23 Z M 653 158 C 720 158 777 167 823 185 C 869 203 906 229 935 264 C 963 298 983 341 995 392 C 1007 443 1014 501 1014 567 C 1014 632 1007 690 995 741 C 983 791 963 834 935 869 C 906 903 869 930 823 948 C 777 966 720 975 653 975 C 585 975 529 966 483 948 C 437 930 401 903 373 869 C 344 834 323 791 311 741 C 299 690 293 632 293 567 C 293 501 299 443 311 392 C 323 341 344 298 373 264 C 401 229 437 203 483 185 C 529 167 585 158 653 158 Z M 276 1591 L 520 1591 L 823 1255 L 639 1255 L 276 1591 Z" unicode="ò" />
<glyph horiz-adv-x="1309" d="M 653 -23 C 552 -23 466 -10 395 15 C 324 40 266 78 222 128 C 176 178 143 240 123 314 C 102 388 92 473 92 571 C 92 668 102 754 123 828 C 143 902 176 964 222 1014 C 266 1064 324 1101 395 1127 C 466 1152 552 1165 653 1165 C 753 1165 839 1152 911 1127 C 983 1101 1041 1064 1087 1014 C 1131 964 1164 902 1185 828 C 1206 754 1217 668 1217 571 C 1217 473 1206 388 1185 314 C 1164 240 1131 178 1087 128 C 1041 78 983 40 911 15 C 839 -10 753 -23 653 -23 Z M 653 158 C 720 158 777 167 823 185 C 869 203 906 229 935 264 C 963 298 983 341 995 392 C 1007 443 1014 501 1014 567 C 1014 632 1007 690 995 741 C 983 791 963 834 935 869 C 906 903 869 930 823 948 C 777 966 720 975 653 975 C 585 975 529 966 483 948 C 437 930 401 903 373 869 C 344 834 323 791 311 741 C 299 690 293 632 293 567 C 293 501 299 443 311 392 C 323 341 344 298 373 264 C 401 229 437 203 483 185 C 529 167 585 158 653 158 Z M 782 1591 L 1026 1591 L 663 1255 L 479 1255 L 782 1591 Z" unicode="ó" />
<glyph horiz-adv-x="1309" d="M 653 -23 C 552 -23 466 -10 395 15 C 324 40 266 78 222 128 C 176 178 143 240 123 314 C 102 388 92 473 92 571 C 92 668 102 754 123 828 C 143 902 176 964 222 1014 C 266 1064 324 1101 395 1127 C 466 1152 552 1165 653 1165 C 753 1165 839 1152 911 1127 C 983 1101 1041 1064 1087 1014 C 1131 964 1164 902 1185 828 C 1206 754 1217 668 1217 571 C 1217 473 1206 388 1185 314 C 1164 240 1131 178 1087 128 C 1041 78 983 40 911 15 C 839 -10 753 -23 653 -23 Z M 653 158 C 720 158 777 167 823 185 C 869 203 906 229 935 264 C 963 298 983 341 995 392 C 1007 443 1014 501 1014 567 C 1014 632 1007 690 995 741 C 983 791 963 834 935 869 C 906 903 869 930 823 948 C 777 966 720 975 653 975 C 585 975 529 966 483 948 C 437 930 401 903 373 869 C 344 834 323 791 311 741 C 299 690 293 632 293 567 C 293 501 299 443 311 392 C 323 341 344 298 373 264 C 401 229 437 203 483 185 C 529 167 585 158 653 158 Z M 543 1591 L 758 1591 L 1071 1255 L 878 1255 L 647 1462 L 420 1255 L 229 1255 L 543 1591 Z" unicode="ô" />
<glyph horiz-adv-x="1309" d="M 653 -23 C 552 -23 466 -10 395 15 C 324 40 266 78 222 128 C 176 178 143 240 123 314 C 102 388 92 473 92 571 C 92 668 102 754 123 828 C 143 902 176 964 222 1014 C 266 1064 324 1101 395 1127 C 466 1152 552 1165 653 1165 C 753 1165 839 1152 911 1127 C 983 1101 1041 1064 1087 1014 C 1131 964 1164 902 1185 828 C 1206 754 1217 668 1217 571 C 1217 473 1206 388 1185 314 C 1164 240 1131 178 1087 128 C 1041 78 983 40 911 15 C 839 -10 753 -23 653 -23 Z M 653 158 C 720 158 777 167 823 185 C 869 203 906 229 935 264 C 963 298 983 341 995 392 C 1007 443 1014 501 1014 567 C 1014 632 1007 690 995 741 C 983 791 963 834 935 869 C 906 903 869 930 823 948 C 777 966 720 975 653 975 C 585 975 529 966 483 948 C 437 930 401 903 373 869 C 344 834 323 791 311 741 C 299 690 293 632 293 567 C 293 501 299 443 311 392 C 323 341 344 298 373 264 C 401 229 437 203 483 185 C 529 167 585 158 653 158 Z M 231 1356 C 251 1380 272 1403 294 1424 C 316 1444 338 1462 362 1478 C 385 1492 409 1504 433 1513 C 457 1521 482 1526 506 1526 C 541 1526 571 1520 596 1510 C 620 1499 643 1487 664 1475 C 684 1461 703 1449 723 1439 C 742 1428 764 1423 790 1423 C 816 1423 842 1433 870 1454 C 897 1475 925 1502 954 1536 L 1071 1442 C 1051 1416 1030 1392 1008 1370 C 986 1348 963 1328 940 1312 C 916 1294 892 1281 868 1271 C 844 1261 819 1257 795 1257 C 763 1257 734 1262 710 1273 C 686 1283 663 1295 642 1309 C 620 1321 598 1333 578 1344 C 557 1354 534 1360 510 1360 C 486 1360 461 1351 433 1334 C 405 1317 379 1292 354 1260 L 231 1356 Z" unicode="õ" />
<glyph horiz-adv-x="1309" d="M 341 1491 L 523 1491 L 523 1262 L 341 1262 L 341 1491 Z M 783 1491 L 963 1491 L 963 1262 L 783 1262 L 783 1491 Z M 653 -23 C 552 -23 466 -10 395 15 C 324 40 266 78 222 128 C 176 178 143 240 123 314 C 102 388 92 473 92 571 C 92 668 102 754 123 828 C 143 902 176 964 222 1014 C 266 1064 324 1101 395 1127 C 466 1152 552 1165 653 1165 C 753 1165 839 1152 911 1127 C 983 1101 1041 1064 1087 1014 C 1131 964 1164 902 1185 828 C 1206 754 1217 668 1217 571 C 1217 473 1206 388 1185 314 C 1164 240 1131 178 1087 128 C 1041 78 983 40 911 15 C 839 -10 753 -23 653 -23 Z M 653 158 C 720 158 777 167 823 185 C 869 203 906 229 935 264 C 963 298 983 341 995 392 C 1007 443 1014 501 1014 567 C 1014 632 1007 690 995 741 C 983 791 963 834 935 869 C 906 903 869 930 823 948 C 777 966 720 975 653 975 C 585 975 529 966 483 948 C 437 930 401 903 373 869 C 344 834 323 791 311 741 C 299 690 293 632 293 567 C 293 501 299 443 311 392 C 323 341 344 298 373 264 C 401 229 437 203 483 185 C 529 167 585 158 653 158 Z" unicode="ö" />
<glyph horiz-adv-x="1440" d="M 608 420 L 831 420 L 831 205 L 608 205 L 608 420 Z M 211 817 L 1229 817 L 1229 627 L 211 627 L 211 817 Z M 608 1241 L 831 1241 L 831 1026 L 608 1026 L 608 1241 Z" unicode="÷" />
<glyph horiz-adv-x="1309" d="M 653 -23 C 605 -23 561 -20 521 -15 C 481 -9 444 -2 410 8 L 352 -86 L 170 -86 L 270 80 C 206 129 160 194 133 276 C 105 357 92 455 92 571 C 92 668 102 754 122 828 C 142 902 174 964 219 1014 C 263 1064 320 1101 392 1127 C 463 1152 550 1165 653 1165 C 701 1165 744 1162 784 1157 C 824 1152 861 1144 897 1133 L 954 1229 L 1137 1229 L 1038 1061 C 1100 1011 1146 946 1174 865 C 1202 783 1217 685 1217 571 C 1217 473 1207 388 1187 314 C 1167 240 1134 178 1090 128 C 1044 78 986 40 914 15 C 842 -10 755 -23 653 -23 Z M 653 154 C 721 154 778 163 825 181 C 871 199 909 226 938 262 C 966 296 987 339 999 391 C 1011 442 1018 501 1018 567 C 1018 638 1010 700 996 754 C 982 807 958 851 924 887 L 500 174 C 521 166 544 161 570 158 C 595 155 623 154 653 154 Z M 289 567 C 289 496 296 434 310 380 C 324 326 347 282 381 248 L 801 958 C 779 964 756 969 732 973 C 707 977 681 979 653 979 C 585 979 527 969 481 951 C 435 933 397 906 369 872 C 340 836 319 793 307 742 C 295 691 289 633 289 567 Z" unicode="ø" />
<glyph horiz-adv-x="1280" d="M 643 -20 C 570 -20 507 -15 454 -5 C 400 4 355 18 318 38 C 280 57 250 81 227 110 C 204 138 186 172 174 210 C 161 247 152 289 148 335 C 143 381 141 432 141 487 L 141 1139 L 340 1139 L 340 483 C 340 437 341 395 345 356 C 348 317 359 283 379 255 C 397 226 427 203 468 187 C 509 170 567 162 643 162 C 693 162 736 165 770 173 C 804 181 833 192 856 206 C 878 219 895 235 907 255 C 919 275 927 297 933 322 C 938 346 941 372 942 400 C 943 428 944 457 944 489 L 944 1139 L 1139 1139 L 1139 494 C 1139 438 1136 386 1132 339 C 1128 292 1120 250 1108 212 C 1095 173 1077 139 1055 111 C 1032 82 1002 58 966 39 C 929 19 884 4 831 -5 C 778 -15 715 -20 643 -20 Z M 262 1591 L 506 1591 L 809 1255 L 625 1255 L 262 1591 Z" unicode="ù" />
<glyph horiz-adv-x="1280" d="M 643 -20 C 570 -20 507 -15 454 -5 C 400 4 355 18 318 38 C 280 57 250 81 227 110 C 204 138 186 172 174 210 C 161 247 152 289 148 335 C 143 381 141 432 141 487 L 141 1139 L 340 1139 L 340 483 C 340 437 341 395 345 356 C 348 317 359 283 379 255 C 397 226 427 203 468 187 C 509 170 567 162 643 162 C 693 162 736 165 770 173 C 804 181 833 192 856 206 C 878 219 895 235 907 255 C 919 275 927 297 933 322 C 938 346 941 372 942 400 C 943 428 944 457 944 489 L 944 1139 L 1139 1139 L 1139 494 C 1139 438 1136 386 1132 339 C 1128 292 1120 250 1108 212 C 1095 173 1077 139 1055 111 C 1032 82 1002 58 966 39 C 929 19 884 4 831 -5 C 778 -15 715 -20 643 -20 Z M 768 1591 L 1012 1591 L 649 1255 L 465 1255 L 768 1591 Z" unicode="ú" />
<glyph horiz-adv-x="1280" d="M 643 -20 C 570 -20 507 -15 454 -5 C 400 4 355 18 318 38 C 280 57 250 81 227 110 C 204 138 186 172 174 210 C 161 247 152 289 148 335 C 143 381 141 432 141 487 L 141 1139 L 340 1139 L 340 483 C 340 437 341 395 345 356 C 348 317 359 283 379 255 C 397 226 427 203 468 187 C 509 170 567 162 643 162 C 693 162 736 165 770 173 C 804 181 833 192 856 206 C 878 219 895 235 907 255 C 919 275 927 297 933 322 C 938 346 941 372 942 400 C 943 428 944 457 944 489 L 944 1139 L 1139 1139 L 1139 494 C 1139 438 1136 386 1132 339 C 1128 292 1120 250 1108 212 C 1095 173 1077 139 1055 111 C 1032 82 1002 58 966 39 C 929 19 884 4 831 -5 C 778 -15 715 -20 643 -20 Z M 529 1591 L 744 1591 L 1057 1255 L 864 1255 L 633 1462 L 406 1255 L 215 1255 L 529 1591 Z" unicode="û" />
<glyph horiz-adv-x="1280" d="M 643 -20 C 570 -20 507 -15 454 -5 C 400 4 355 18 318 38 C 280 57 250 81 227 110 C 204 138 186 172 174 210 C 161 247 152 289 148 335 C 143 381 141 432 141 487 L 141 1139 L 340 1139 L 340 483 C 340 437 341 395 345 356 C 348 317 359 283 379 255 C 397 226 427 203 468 187 C 509 170 567 162 643 162 C 693 162 736 165 770 173 C 804 181 833 192 856 206 C 878 219 895 235 907 255 C 919 275 927 297 933 322 C 938 346 941 372 942 400 C 943 428 944 457 944 489 L 944 1139 L 1139 1139 L 1139 494 C 1139 438 1136 386 1132 339 C 1128 292 1120 250 1108 212 C 1095 173 1077 139 1055 111 C 1032 82 1002 58 966 39 C 929 19 884 4 831 -5 C 778 -15 715 -20 643 -20 Z M 326 1491 L 508 1491 L 508 1262 L 326 1262 L 326 1491 Z M 768 1491 L 948 1491 L 948 1262 L 768 1262 L 768 1491 Z" unicode="ü" />
<glyph horiz-adv-x="1114" d="M 262 -344 C 256 -344 249 -344 240 -344 C 231 -344 222 -344 212 -344 C 201 -344 191 -343 181 -343 C 171 -343 164 -342 158 -342 L 158 -180 L 246 -180 C 273 -180 296 -178 316 -175 C 335 -172 351 -167 365 -159 C 378 -151 389 -140 398 -127 C 407 -113 415 -96 422 -76 L 457 12 L 14 1139 L 227 1139 L 561 250 L 893 1139 L 1102 1139 L 618 -96 C 602 -140 583 -177 563 -209 C 543 -240 519 -266 492 -286 C 464 -306 431 -320 394 -330 C 356 -339 312 -344 262 -344 Z M 692 1591 L 936 1591 L 573 1255 L 389 1255 L 692 1591 Z" unicode="ý" />
<glyph horiz-adv-x="1343" d="M 147 1589 L 346 1589 L 346 1026 C 362 1050 382 1070 406 1088 C 430 1105 459 1120 493 1132 C 527 1143 566 1151 611 1157 C 655 1162 706 1165 764 1165 C 860 1165 939 1150 1002 1121 C 1064 1092 1114 1052 1152 1000 C 1188 947 1214 884 1229 812 C 1243 739 1251 659 1251 571 C 1251 484 1243 404 1228 332 C 1212 260 1186 198 1149 146 C 1111 93 1060 52 996 23 C 932 -5 852 -20 756 -20 C 696 -20 644 -17 600 -11 C 555 -5 517 2 485 14 C 452 25 425 39 403 57 C 381 75 362 95 348 119 L 348 -338 L 147 -338 L 147 1589 Z M 721 162 C 785 162 839 171 881 190 C 923 208 956 235 982 270 C 1006 304 1024 346 1034 396 C 1044 446 1049 502 1049 565 C 1049 627 1044 684 1034 734 C 1024 784 1007 828 983 864 C 958 899 924 926 882 946 C 840 965 786 975 721 975 C 653 975 596 967 549 953 C 502 939 464 916 434 884 C 404 851 382 809 368 757 C 354 705 348 641 348 565 C 348 489 354 426 367 375 C 380 323 402 282 432 251 C 461 219 499 196 547 182 C 594 168 652 162 721 162 Z" unicode="þ" />
<glyph horiz-adv-x="1114" d="M 262 -344 C 256 -344 249 -344 240 -344 C 231 -344 222 -344 212 -344 C 201 -344 191 -343 181 -343 C 171 -343 164 -342 158 -342 L 158 -180 L 246 -180 C 273 -180 296 -178 316 -175 C 335 -172 351 -167 365 -159 C 378 -151 389 -140 398 -127 C 407 -113 415 -96 422 -76 L 457 12 L 14 1139 L 227 1139 L 561 250 L 893 1139 L 1102 1139 L 618 -96 C 602 -140 583 -177 563 -209 C 543 -240 519 -266 492 -286 C 464 -306 431 -320 394 -330 C 356 -339 312 -344 262 -344 Z M 250 1491 L 432 1491 L 432 1262 L 250 1262 L 250 1491 Z M 692 1491 L 872 1491 L 872 1262 L 692 1262 L 692 1491 Z" unicode="ÿ" />
<glyph horiz-adv-x="1520" d="M 371 1763 L 1141 1763 L 1141 1593 L 371 1593 L 371 1763 Z M 653 1528 L 864 1528 L 1473 0 L 1260 0 L 1135 319 L 377 319 L 252 0 L 45 0 L 653 1528 Z M 1061 510 L 754 1280 L 446 510 L 1061 510 Z" unicode="Ā" />
<glyph horiz-adv-x="1284" d="M 258 1414 L 1028 1414 L 1028 1244 L 258 1244 L 258 1414 Z M 487 -20 C 405 -20 337 -11 285 6 C 233 24 191 48 161 80 C 130 110 109 147 97 189 C 85 231 80 276 80 324 C 80 378 85 425 96 467 C 106 508 124 544 148 576 C 172 606 203 632 242 653 C 280 674 328 691 384 705 C 439 717 504 726 578 732 C 652 738 736 741 831 741 L 893 741 C 891 781 887 817 880 847 C 873 877 860 902 840 922 C 819 941 790 955 754 965 C 717 974 668 979 608 979 C 572 979 537 976 505 970 C 472 964 442 957 414 948 C 385 938 359 928 335 917 C 311 905 290 894 272 883 L 168 1038 C 186 1050 211 1064 243 1079 C 274 1094 310 1108 350 1121 C 390 1133 433 1144 480 1152 C 527 1160 576 1165 627 1165 C 724 1165 802 1156 862 1139 C 922 1121 968 1094 1002 1058 C 1034 1021 1056 974 1068 916 C 1079 858 1085 789 1085 709 L 1085 303 C 1085 275 1086 253 1088 237 C 1090 220 1095 207 1103 199 C 1110 189 1121 183 1136 180 C 1151 177 1172 176 1198 176 L 1198 2 C 1190 0 1180 -1 1167 -1 C 1153 -1 1136 -2 1116 -2 C 1084 -2 1058 0 1037 5 C 1015 9 997 17 983 28 C 968 38 956 51 946 67 C 936 83 928 103 922 127 C 904 103 883 81 859 63 C 835 45 805 30 771 18 C 735 5 694 -4 648 -10 C 601 -16 547 -20 487 -20 Z M 520 152 C 586 152 642 158 689 172 C 736 186 775 207 806 236 C 836 264 858 300 872 344 C 886 388 893 440 893 502 L 893 571 L 842 571 C 724 571 628 567 554 560 C 480 552 422 540 380 522 C 338 504 309 480 293 450 C 277 420 270 382 270 338 C 270 308 274 281 282 258 C 290 234 303 215 323 200 C 341 184 367 172 399 164 C 431 156 471 152 520 152 Z" unicode="ā" />
<glyph horiz-adv-x="1520" d="M 755 1584 C 685 1584 627 1592 581 1609 C 534 1626 496 1650 466 1680 C 436 1710 412 1745 396 1785 C 380 1825 367 1869 358 1916 L 505 1946 C 511 1916 520 1888 531 1864 C 541 1840 556 1819 575 1802 C 593 1784 617 1771 646 1762 C 675 1752 711 1748 755 1748 C 797 1748 833 1752 862 1762 C 891 1771 915 1784 935 1802 C 953 1819 968 1840 979 1864 C 989 1888 998 1916 1005 1946 L 1155 1918 C 1145 1870 1131 1826 1114 1786 C 1097 1745 1074 1710 1044 1680 C 1013 1650 974 1626 928 1609 C 882 1592 824 1584 755 1584 Z M 653 1528 L 864 1528 L 1473 0 L 1260 0 L 1135 319 L 377 319 L 252 0 L 45 0 L 653 1528 Z M 1061 510 L 754 1280 L 446 510 L 1061 510 Z" unicode="Ă" />
<glyph horiz-adv-x="1284" d="M 642 1233 C 572 1233 514 1241 468 1258 C 421 1275 383 1299 353 1329 C 323 1359 299 1394 283 1434 C 267 1474 254 1518 245 1565 L 392 1595 C 398 1565 407 1537 418 1513 C 428 1489 443 1468 462 1451 C 480 1433 504 1420 533 1411 C 562 1401 598 1397 642 1397 C 684 1397 720 1401 749 1411 C 778 1420 802 1433 822 1451 C 840 1468 855 1489 866 1513 C 876 1537 885 1565 892 1595 L 1042 1567 C 1032 1519 1018 1475 1001 1435 C 984 1394 961 1359 931 1329 C 900 1299 861 1275 815 1258 C 769 1241 711 1233 642 1233 Z M 487 -20 C 405 -20 337 -11 285 6 C 233 24 191 48 161 80 C 130 110 109 147 97 189 C 85 231 80 276 80 324 C 80 378 85 425 96 467 C 106 508 124 544 148 576 C 172 606 203 632 242 653 C 280 674 328 691 384 705 C 439 717 504 726 578 732 C 652 738 736 741 831 741 L 893 741 C 891 781 887 817 880 847 C 873 877 860 902 840 922 C 819 941 790 955 754 965 C 717 974 668 979 608 979 C 572 979 537 976 505 970 C 472 964 442 957 414 948 C 385 938 359 928 335 917 C 311 905 290 894 272 883 L 168 1038 C 186 1050 211 1064 243 1079 C 274 1094 310 1108 350 1121 C 390 1133 433 1144 480 1152 C 527 1160 576 1165 627 1165 C 724 1165 802 1156 862 1139 C 922 1121 968 1094 1002 1058 C 1034 1021 1056 974 1068 916 C 1079 858 1085 789 1085 709 L 1085 303 C 1085 275 1086 253 1088 237 C 1090 220 1095 207 1103 199 C 1110 189 1121 183 1136 180 C 1151 177 1172 176 1198 176 L 1198 2 C 1190 0 1180 -1 1167 -1 C 1153 -1 1136 -2 1116 -2 C 1084 -2 1058 0 1037 5 C 1015 9 997 17 983 28 C 968 38 956 51 946 67 C 936 83 928 103 922 127 C 904 103 883 81 859 63 C 835 45 805 30 771 18 C 735 5 694 -4 648 -10 C 601 -16 547 -20 487 -20 Z M 520 152 C 586 152 642 158 689 172 C 736 186 775 207 806 236 C 836 264 858 300 872 344 C 886 388 893 440 893 502 L 893 571 L 842 571 C 724 571 628 567 554 560 C 480 552 422 540 380 522 C 338 504 309 480 293 450 C 277 420 270 382 270 338 C 270 308 274 281 282 258 C 290 234 303 215 323 200 C 341 184 367 172 399 164 C 431 156 471 152 520 152 Z" unicode="ă" />
<glyph horiz-adv-x="1520" d="M 653 1528 L 864 1528 L 1473 0 L 1409 0 C 1346 -38 1299 -75 1269 -113 C 1238 -151 1223 -186 1223 -219 C 1223 -231 1224 -243 1227 -255 C 1230 -267 1236 -277 1245 -286 C 1253 -294 1265 -301 1281 -307 C 1297 -312 1317 -315 1343 -315 C 1372 -315 1399 -312 1424 -307 C 1449 -302 1471 -297 1491 -291 L 1536 -412 C 1509 -425 1477 -435 1440 -443 C 1402 -451 1362 -455 1319 -455 C 1267 -455 1225 -449 1192 -439 C 1158 -429 1132 -415 1113 -397 C 1093 -378 1079 -356 1071 -331 C 1063 -306 1059 -279 1059 -250 C 1059 -219 1064 -190 1075 -162 C 1086 -134 1101 -109 1119 -86 C 1137 -62 1157 -40 1180 -21 C 1202 -2 1225 13 1249 27 L 1135 319 L 377 319 L 252 0 L 45 0 L 653 1528 Z M 1061 510 L 754 1280 L 446 510 L 1061 510 Z" unicode="Ą" />
<glyph horiz-adv-x="1284" d="M 487 -20 C 405 -20 337 -11 285 6 C 233 24 191 48 161 80 C 130 110 109 147 97 189 C 85 231 80 276 80 324 C 80 378 85 425 96 467 C 106 508 124 544 148 576 C 172 606 203 632 242 653 C 280 674 328 691 384 705 C 439 717 504 726 578 732 C 652 738 736 741 831 741 L 893 741 C 891 781 887 817 880 847 C 873 877 860 902 840 922 C 819 941 790 955 754 965 C 717 974 668 979 608 979 C 572 979 537 976 505 970 C 472 964 442 957 414 948 C 385 938 359 928 335 917 C 311 905 290 894 272 883 L 168 1038 C 186 1050 211 1064 243 1079 C 274 1094 310 1108 350 1121 C 390 1133 433 1144 480 1152 C 527 1160 576 1165 627 1165 C 724 1165 802 1156 862 1139 C 922 1121 968 1094 1002 1058 C 1034 1021 1056 974 1068 916 C 1079 858 1085 789 1085 709 L 1085 303 C 1085 275 1086 253 1088 237 C 1090 220 1095 207 1103 199 C 1110 189 1121 183 1136 180 C 1151 177 1172 176 1198 176 L 1198 2 C 1129 -37 1076 -75 1040 -112 C 1003 -149 985 -185 985 -219 C 985 -231 986 -243 989 -255 C 992 -267 998 -277 1008 -286 C 1017 -294 1030 -301 1046 -307 C 1062 -312 1084 -315 1112 -315 C 1142 -315 1170 -312 1196 -307 C 1222 -302 1245 -296 1264 -289 L 1313 -410 C 1285 -423 1251 -434 1212 -442 C 1173 -450 1131 -455 1087 -455 C 1033 -455 990 -449 956 -439 C 922 -429 895 -415 876 -397 C 856 -378 842 -356 834 -331 C 826 -306 823 -279 823 -250 C 823 -218 829 -188 841 -161 C 853 -134 869 -110 889 -88 C 907 -65 928 -45 950 -29 C 972 -12 994 1 1014 12 C 1002 16 992 21 983 27 C 974 33 967 39 961 47 C 951 58 943 70 937 83 C 931 95 926 110 922 127 C 904 103 883 81 859 63 C 835 45 805 30 771 18 C 735 5 694 -4 648 -10 C 601 -16 547 -20 487 -20 Z M 520 152 C 586 152 642 158 689 172 C 736 186 775 207 806 236 C 836 264 858 300 872 344 C 886 388 893 440 893 502 L 893 571 L 842 571 C 724 571 628 567 554 560 C 480 552 422 540 380 522 C 338 504 309 480 293 450 C 277 420 270 382 270 338 C 270 308 274 281 282 258 C 290 234 303 215 323 200 C 341 184 367 172 399 164 C 431 156 471 152 520 152 Z" unicode="ą" />
<glyph horiz-adv-x="1497" d="M 842 -23 C 710 -23 596 -6 501 27 C 405 61 327 111 266 177 C 204 243 158 324 128 422 C 98 520 84 632 84 760 C 84 893 101 1009 135 1107 C 169 1205 220 1287 286 1352 C 351 1416 431 1463 526 1495 C 621 1526 730 1542 852 1542 C 968 1542 1071 1525 1162 1492 C 1252 1459 1332 1409 1401 1343 L 1251 1194 C 1199 1242 1140 1278 1074 1304 C 1008 1330 933 1343 850 1343 C 664 1343 525 1294 432 1197 C 339 1099 293 953 293 758 C 293 662 303 577 325 504 C 347 431 381 370 427 321 C 472 271 530 234 600 209 C 670 184 754 172 852 172 C 906 172 954 176 996 184 C 1037 192 1074 204 1107 218 C 1139 232 1167 248 1192 267 C 1217 286 1241 306 1264 328 L 1411 186 C 1383 158 1353 132 1319 107 C 1285 82 1246 60 1201 41 C 1155 21 1103 6 1045 -5 C 986 -17 918 -23 842 -23 Z M 876 1942 L 1120 1942 L 757 1606 L 573 1606 L 876 1942 Z" unicode="Ć" />
<glyph horiz-adv-x="1165" d="M 647 -20 C 537 -20 447 -5 376 23 C 304 51 248 92 206 144 C 164 195 134 257 117 330 C 100 402 92 483 92 571 C 92 659 100 739 117 812 C 133 885 163 948 206 1001 C 248 1053 306 1093 379 1122 C 451 1150 543 1165 655 1165 C 705 1165 752 1160 794 1152 C 836 1144 875 1132 910 1118 C 944 1102 976 1084 1004 1063 C 1032 1042 1057 1019 1079 995 L 934 858 C 920 872 905 885 888 899 C 871 913 852 925 830 937 C 807 947 781 956 753 963 C 724 969 691 973 655 973 C 585 973 526 963 480 945 C 434 927 397 900 369 866 C 341 830 321 787 310 737 C 298 687 293 630 293 567 C 293 503 298 446 309 396 C 320 345 340 302 368 267 C 395 231 432 204 478 186 C 524 167 583 158 655 158 C 685 158 714 160 740 165 C 766 170 790 178 814 188 C 836 197 858 209 880 223 C 901 237 922 254 944 274 L 1077 147 C 1047 119 1018 95 989 75 C 959 54 928 37 894 23 C 860 9 822 -1 782 -9 C 742 -16 697 -20 647 -20 Z M 717 1591 L 961 1591 L 598 1255 L 414 1255 L 717 1591 Z" unicode="ć" />
<glyph horiz-adv-x="1497" d="" unicode="Ĉ" />
<glyph horiz-adv-x="1165" d="" unicode="ĉ" />
<glyph horiz-adv-x="1497" d="" unicode="Ċ" />
<glyph horiz-adv-x="1165" d="" unicode="ċ" />
<glyph horiz-adv-x="1497" d="M 323 1942 L 518 1942 L 747 1735 L 977 1942 L 1165 1942 L 852 1606 L 637 1606 L 323 1942 Z M 842 -23 C 710 -23 596 -6 501 27 C 405 61 327 111 266 177 C 204 243 158 324 128 422 C 98 520 84 632 84 760 C 84 893 101 1009 135 1107 C 169 1205 220 1287 286 1352 C 351 1416 431 1463 526 1495 C 621 1526 730 1542 852 1542 C 968 1542 1071 1525 1162 1492 C 1252 1459 1332 1409 1401 1343 L 1251 1194 C 1199 1242 1140 1278 1074 1304 C 1008 1330 933 1343 850 1343 C 664 1343 525 1294 432 1197 C 339 1099 293 953 293 758 C 293 662 303 577 325 504 C 347 431 381 370 427 321 C 472 271 530 234 600 209 C 670 184 754 172 852 172 C 906 172 954 176 996 184 C 1037 192 1074 204 1107 218 C 1139 232 1167 248 1192 267 C 1217 286 1241 306 1264 328 L 1411 186 C 1383 158 1353 132 1319 107 C 1285 82 1246 60 1201 41 C 1155 21 1103 6 1045 -5 C 986 -17 918 -23 842 -23 Z" unicode="Č" />
<glyph horiz-adv-x="1165" d="M 647 -20 C 537 -20 447 -5 376 23 C 304 51 248 92 206 144 C 164 195 134 257 117 330 C 100 402 92 483 92 571 C 92 659 100 739 117 812 C 133 885 163 948 206 1001 C 248 1053 306 1093 379 1122 C 451 1150 543 1165 655 1165 C 705 1165 752 1160 794 1152 C 836 1144 875 1132 910 1118 C 944 1102 976 1084 1004 1063 C 1032 1042 1057 1019 1079 995 L 934 858 C 920 872 905 885 888 899 C 871 913 852 925 830 937 C 807 947 781 956 753 963 C 724 969 691 973 655 973 C 585 973 526 963 480 945 C 434 927 397 900 369 866 C 341 830 321 787 310 737 C 298 687 293 630 293 567 C 293 503 298 446 309 396 C 320 345 340 302 368 267 C 395 231 432 204 478 186 C 524 167 583 158 655 158 C 685 158 714 160 740 165 C 766 170 790 178 814 188 C 836 197 858 209 880 223 C 901 237 922 254 944 274 L 1077 147 C 1047 119 1018 95 989 75 C 959 54 928 37 894 23 C 860 9 822 -1 782 -9 C 742 -16 697 -20 647 -20 Z M 164 1591 L 359 1591 L 588 1384 L 818 1591 L 1006 1591 L 693 1255 L 478 1255 L 164 1591 Z" unicode="č" />
<glyph horiz-adv-x="1559" d="M 172 1518 L 680 1518 C 776 1518 862 1513 939 1503 C 1016 1493 1084 1476 1144 1453 C 1202 1429 1253 1398 1295 1360 C 1337 1322 1371 1275 1399 1219 C 1425 1163 1445 1097 1458 1021 C 1470 945 1477 858 1477 760 C 1477 614 1461 493 1430 396 C 1399 299 1351 221 1285 163 C 1218 103 1133 61 1029 37 C 925 12 801 0 657 0 L 172 0 L 172 1518 Z M 668 190 C 782 190 878 200 955 220 C 1032 240 1094 273 1141 319 C 1187 363 1219 422 1239 494 C 1258 566 1268 655 1268 760 C 1268 866 1259 954 1242 1026 C 1225 1098 1195 1156 1151 1200 C 1107 1243 1047 1274 971 1293 C 895 1311 799 1321 682 1321 L 379 1321 L 379 190 L 668 190 Z M 354 1942 L 549 1942 L 778 1735 L 1008 1942 L 1196 1942 L 883 1606 L 668 1606 L 354 1942 Z" unicode="Ď" />
<glyph horiz-adv-x="1581" d="M 1346 1212 C 1369 1224 1388 1236 1403 1246 C 1418 1256 1430 1266 1439 1278 C 1447 1288 1453 1300 1457 1314 C 1460 1327 1462 1343 1462 1362 L 1362 1362 L 1362 1589 L 1575 1589 L 1575 1421 C 1575 1378 1572 1342 1568 1312 C 1563 1282 1554 1257 1542 1235 C 1528 1212 1510 1192 1487 1175 C 1463 1157 1433 1140 1395 1122 L 1346 1212 Z M 582 -20 C 486 -20 407 -5 344 23 C 281 52 231 93 194 146 C 156 198 130 261 115 334 C 99 407 92 487 92 575 C 92 661 99 741 115 813 C 131 885 158 947 196 999 C 234 1051 284 1091 348 1120 C 412 1148 492 1163 588 1163 C 647 1163 699 1160 744 1154 C 788 1148 827 1140 860 1129 C 892 1117 919 1103 941 1086 C 963 1068 981 1048 995 1026 L 995 1589 L 1196 1589 L 1196 8 L 1042 -6 L 1020 127 C 1002 101 980 79 955 61 C 930 43 900 28 866 16 C 830 4 789 -5 743 -11 C 696 -17 642 -20 582 -20 Z M 625 162 C 691 162 748 169 795 184 C 842 198 881 222 911 256 C 940 288 961 331 975 383 C 988 435 995 499 995 575 C 995 649 988 712 975 764 C 962 815 941 856 913 888 C 883 919 845 942 798 956 C 751 970 693 977 625 977 C 559 977 504 967 462 949 C 420 930 386 903 362 869 C 336 834 319 792 309 742 C 299 692 295 637 295 575 C 295 512 299 455 309 404 C 319 353 336 310 362 274 C 386 238 420 210 462 191 C 504 171 559 162 625 162 Z" unicode="ď" />
<glyph horiz-adv-x="1559" d="M 0 866 L 172 866 L 172 1518 L 680 1518 C 776 1518 862 1513 939 1503 C 1016 1493 1084 1476 1144 1453 C 1202 1429 1253 1398 1295 1360 C 1337 1322 1371 1275 1399 1219 C 1425 1163 1445 1097 1458 1021 C 1470 945 1477 858 1477 760 C 1477 614 1461 493 1429 396 C 1397 299 1347 221 1281 163 C 1213 103 1128 61 1025 37 C 922 12 799 0 657 0 L 172 0 L 172 694 L 0 694 L 0 866 Z M 668 190 C 782 190 878 200 955 220 C 1032 240 1094 273 1141 319 C 1187 363 1219 422 1239 494 C 1258 566 1268 655 1268 760 C 1268 866 1259 954 1242 1026 C 1225 1098 1195 1156 1151 1200 C 1107 1243 1047 1274 971 1293 C 895 1311 799 1321 682 1321 L 379 1321 L 379 866 L 707 866 L 707 694 L 379 694 L 379 190 L 668 190 Z" unicode="Đ" />
<glyph horiz-adv-x="1343" d="M 684 1434 L 995 1434 L 995 1589 L 1196 1589 L 1196 1434 L 1343 1434 L 1343 1260 L 1196 1260 L 1196 8 L 1042 -6 L 1020 127 C 1002 101 980 79 955 61 C 930 43 900 28 866 16 C 830 4 789 -5 743 -11 C 696 -17 642 -20 582 -20 C 486 -20 407 -5 344 23 C 281 52 231 93 194 146 C 156 198 130 261 115 334 C 99 407 92 487 92 575 C 92 661 99 741 115 813 C 131 885 158 947 196 999 C 234 1051 284 1091 348 1120 C 412 1148 492 1163 588 1163 C 647 1163 699 1160 744 1154 C 788 1148 827 1140 860 1129 C 892 1117 919 1103 941 1086 C 963 1068 981 1048 995 1026 L 995 1260 L 684 1260 L 684 1434 Z M 625 162 C 691 162 748 169 795 184 C 842 198 881 222 911 256 C 940 288 961 331 975 383 C 988 435 995 499 995 575 C 995 649 988 712 975 764 C 962 815 941 856 913 888 C 883 919 845 942 798 956 C 751 970 693 977 625 977 C 559 977 504 967 462 949 C 420 930 386 903 362 869 C 336 834 319 792 309 742 C 299 692 295 637 295 575 C 295 512 299 455 309 404 C 319 353 336 310 362 274 C 386 238 420 210 462 191 C 504 171 559 162 625 162 Z" unicode="đ" />
<glyph horiz-adv-x="1335" d="M 279 1763 L 1049 1763 L 1049 1593 L 279 1593 L 279 1763 Z M 172 1518 L 1210 1518 L 1210 1319 L 379 1319 L 379 883 L 1190 883 L 1190 686 L 379 686 L 379 190 L 1219 190 L 1219 0 L 172 0 L 172 1518 Z" unicode="Ē" />
<glyph horiz-adv-x="1229" d="M 225 1413 L 995 1413 L 995 1243 L 225 1243 L 225 1413 Z M 651 -23 C 573 -23 505 -16 447 -2 C 389 12 340 32 299 58 C 257 83 222 114 196 150 C 169 186 148 227 133 271 C 117 315 107 362 101 413 C 95 463 92 516 92 571 C 92 653 99 730 115 802 C 130 874 158 937 200 991 C 240 1045 297 1087 369 1118 C 441 1149 533 1165 647 1165 C 725 1165 791 1156 845 1139 C 899 1122 945 1098 981 1068 C 1017 1037 1045 1001 1065 959 C 1085 917 1099 871 1109 822 C 1118 772 1123 719 1125 663 C 1127 607 1127 551 1126 494 L 285 494 C 287 442 295 394 307 352 C 319 310 339 274 367 244 C 394 214 430 190 476 174 C 522 158 580 150 651 150 C 697 150 737 152 773 158 C 808 164 840 172 869 182 C 897 192 922 203 946 217 C 969 231 992 246 1014 262 L 1120 123 C 1090 99 1058 78 1026 60 C 993 42 958 27 921 15 C 883 2 842 -7 798 -13 C 754 -19 705 -23 651 -23 Z M 641 989 C 575 989 521 981 478 966 C 434 950 399 929 373 902 C 345 874 325 840 312 801 C 299 761 291 718 287 670 L 938 670 C 936 700 933 728 931 756 C 928 783 923 809 917 833 C 909 856 899 877 887 897 C 874 916 857 933 836 947 C 814 960 788 970 756 978 C 724 985 685 989 641 989 Z" unicode="ē" />
<glyph horiz-adv-x="1335" d="" unicode="Ĕ" />
<glyph horiz-adv-x="1229" d="" unicode="ĕ" />
<glyph horiz-adv-x="1335" d="M 563 1841 L 764 1841 L 764 1603 L 563 1603 L 563 1841 Z M 172 1518 L 1210 1518 L 1210 1319 L 379 1319 L 379 883 L 1190 883 L 1190 686 L 379 686 L 379 190 L 1219 190 L 1219 0 L 172 0 L 172 1518 Z" unicode="Ė" />
<glyph horiz-adv-x="1229" d="M 651 -23 C 573 -23 505 -16 447 -2 C 389 12 340 32 299 58 C 257 83 222 114 196 150 C 169 186 148 227 133 271 C 117 315 107 362 101 413 C 95 463 92 516 92 571 C 92 653 99 730 115 802 C 130 874 158 937 200 991 C 240 1045 297 1087 369 1118 C 441 1149 533 1165 647 1165 C 725 1165 791 1156 845 1139 C 899 1122 945 1098 981 1068 C 1017 1037 1045 1001 1065 959 C 1085 917 1099 871 1109 822 C 1118 772 1123 719 1125 663 C 1127 607 1127 551 1126 494 L 285 494 C 287 442 295 394 307 352 C 319 310 339 274 367 244 C 394 214 430 190 476 174 C 522 158 580 150 651 150 C 697 150 737 152 773 158 C 808 164 840 172 869 182 C 897 192 922 203 946 217 C 969 231 992 246 1014 262 L 1120 123 C 1090 99 1058 78 1026 60 C 993 42 958 27 921 15 C 883 2 842 -7 798 -13 C 754 -19 705 -23 651 -23 Z M 641 989 C 575 989 521 981 478 966 C 434 950 399 929 373 902 C 345 874 325 840 312 801 C 299 761 291 718 287 670 L 938 670 C 936 700 933 728 931 756 C 928 783 923 809 917 833 C 909 856 899 877 887 897 C 874 916 857 933 836 947 C 814 960 788 970 756 978 C 724 985 685 989 641 989 Z M 510 1491 L 711 1491 L 711 1253 L 510 1253 L 510 1491 Z" unicode="ė" />
<glyph horiz-adv-x="1335" d="M 172 1518 L 1210 1518 L 1210 1319 L 379 1319 L 379 883 L 1190 883 L 1190 686 L 379 686 L 379 190 L 1219 190 L 1219 0 L 1053 0 C 993 -37 947 -75 917 -113 C 887 -151 872 -187 872 -219 C 872 -232 873 -244 876 -256 C 879 -268 885 -278 895 -287 C 904 -295 917 -302 933 -307 C 949 -312 971 -315 999 -315 C 1015 -315 1032 -314 1049 -312 C 1065 -310 1082 -307 1098 -304 C 1113 -300 1127 -296 1141 -292 C 1154 -288 1166 -283 1176 -279 L 1225 -399 C 1193 -415 1155 -429 1111 -439 C 1066 -449 1021 -455 975 -455 C 921 -455 877 -449 843 -439 C 809 -429 782 -415 762 -397 C 742 -379 728 -357 720 -333 C 712 -308 709 -281 709 -252 C 709 -223 714 -196 724 -171 C 734 -145 746 -122 762 -101 C 777 -79 794 -59 814 -43 C 833 -26 852 -12 870 0 L 172 0 L 172 1518 Z" unicode="Ę" />
<glyph horiz-adv-x="1229" d="M 651 -23 C 573 -23 505 -16 447 -2 C 389 12 340 32 299 58 C 257 83 222 114 196 150 C 169 186 148 227 133 271 C 117 315 107 362 101 413 C 95 463 92 516 92 571 C 92 653 99 730 115 802 C 130 874 158 937 200 991 C 240 1045 297 1087 369 1118 C 441 1149 533 1165 647 1165 C 725 1165 791 1156 845 1139 C 899 1122 945 1098 981 1068 C 1017 1037 1045 1001 1065 959 C 1085 917 1099 871 1109 822 C 1118 772 1123 719 1125 663 C 1127 607 1127 551 1126 494 L 285 494 C 287 442 295 394 307 352 C 319 310 339 274 367 244 C 394 214 430 190 476 174 C 522 158 580 150 651 150 C 697 150 737 152 773 158 C 808 164 840 172 869 182 C 897 192 922 203 946 217 C 969 231 992 246 1014 262 L 1120 123 C 1089 99 1057 78 1025 60 C 993 42 958 26 922 14 C 852 -24 800 -63 766 -105 C 732 -147 715 -185 715 -219 C 715 -232 716 -244 719 -256 C 722 -268 728 -278 738 -287 C 746 -295 759 -302 776 -307 C 792 -312 814 -315 842 -315 C 858 -315 874 -314 891 -312 C 907 -310 924 -307 940 -304 C 955 -300 969 -296 983 -292 C 996 -288 1008 -283 1018 -279 L 1067 -399 C 1051 -407 1034 -414 1015 -421 C 995 -428 975 -434 954 -440 C 932 -444 909 -448 886 -451 C 862 -453 839 -455 817 -455 C 763 -455 719 -449 685 -439 C 651 -429 624 -415 604 -397 C 584 -379 570 -357 562 -333 C 554 -308 551 -281 551 -252 C 551 -227 554 -204 562 -182 C 569 -160 579 -139 592 -120 C 604 -100 617 -82 633 -66 C 649 -50 665 -35 682 -23 L 651 -23 Z M 641 989 C 575 989 521 981 478 966 C 434 950 399 929 373 902 C 345 874 325 840 312 801 C 299 761 291 718 287 670 L 938 670 C 936 700 933 728 931 756 C 928 783 923 809 917 833 C 909 856 899 877 887 897 C 874 916 857 933 836 947 C 814 960 788 970 756 978 C 724 985 685 989 641 989 Z" unicode="ę" />
<glyph horiz-adv-x="1335" d="M 241 1942 L 436 1942 L 665 1735 L 895 1942 L 1083 1942 L 770 1606 L 555 1606 L 241 1942 Z M 172 1518 L 1210 1518 L 1210 1319 L 379 1319 L 379 883 L 1190 883 L 1190 686 L 379 686 L 379 190 L 1219 190 L 1219 0 L 172 0 L 172 1518 Z" unicode="Ě" />
<glyph horiz-adv-x="1229" d="M 651 -23 C 573 -23 505 -16 447 -2 C 389 12 340 32 299 58 C 257 83 222 114 196 150 C 169 186 148 227 133 271 C 117 315 107 362 101 413 C 95 463 92 516 92 571 C 92 653 99 730 115 802 C 130 874 158 937 200 991 C 240 1045 297 1087 369 1118 C 441 1149 533 1165 647 1165 C 725 1165 791 1156 845 1139 C 899 1122 945 1098 981 1068 C 1017 1037 1045 1001 1065 959 C 1085 917 1099 871 1109 822 C 1118 772 1123 719 1125 663 C 1127 607 1127 551 1126 494 L 285 494 C 287 442 295 394 307 352 C 319 310 339 274 367 244 C 394 214 430 190 476 174 C 522 158 580 150 651 150 C 697 150 737 152 773 158 C 808 164 840 172 869 182 C 897 192 922 203 946 217 C 969 231 992 246 1014 262 L 1120 123 C 1090 99 1058 78 1026 60 C 993 42 958 27 921 15 C 883 2 842 -7 798 -13 C 754 -19 705 -23 651 -23 Z M 641 989 C 575 989 521 981 478 966 C 434 950 399 929 373 902 C 345 874 325 840 312 801 C 299 761 291 718 287 670 L 938 670 C 936 700 933 728 931 756 C 928 783 923 809 917 833 C 909 856 899 877 887 897 C 874 916 857 933 836 947 C 814 960 788 970 756 978 C 724 985 685 989 641 989 Z M 188 1591 L 383 1591 L 612 1384 L 842 1591 L 1030 1591 L 717 1255 L 502 1255 L 188 1591 Z" unicode="ě" />
<glyph horiz-adv-x="1604" d="" unicode="Ĝ" />
<glyph horiz-adv-x="1251" d="" unicode="ĝ" />
<glyph horiz-adv-x="1604" d="M 798 1584 C 728 1584 670 1592 624 1609 C 577 1626 539 1650 509 1680 C 479 1710 455 1745 439 1785 C 423 1825 410 1869 401 1916 L 548 1946 C 554 1916 563 1888 574 1864 C 584 1840 599 1819 618 1802 C 636 1784 660 1771 689 1762 C 718 1752 754 1748 798 1748 C 840 1748 876 1752 905 1762 C 934 1771 958 1784 978 1802 C 996 1819 1011 1840 1022 1864 C 1032 1888 1041 1916 1048 1946 L 1198 1918 C 1188 1870 1174 1826 1157 1786 C 1140 1745 1117 1710 1087 1680 C 1056 1650 1017 1626 971 1609 C 925 1592 867 1584 798 1584 Z M 840 -23 C 700 -23 583 -6 487 27 C 391 60 313 110 254 176 C 194 241 150 322 124 420 C 97 518 84 631 84 760 C 84 896 100 1014 134 1113 C 168 1211 217 1292 283 1356 C 347 1419 427 1466 522 1496 C 617 1526 726 1542 850 1542 C 924 1542 990 1536 1049 1526 C 1107 1515 1160 1501 1206 1483 C 1252 1465 1292 1444 1327 1420 C 1362 1396 1393 1372 1419 1346 L 1272 1194 C 1248 1214 1223 1234 1197 1252 C 1170 1270 1140 1285 1107 1299 C 1073 1312 1035 1323 993 1331 C 951 1339 903 1343 850 1343 C 660 1343 520 1294 428 1198 C 336 1102 291 955 291 758 C 291 657 300 569 320 495 C 339 420 371 358 415 309 C 459 259 516 222 587 198 C 657 174 744 162 848 162 C 942 162 1019 171 1080 190 C 1140 209 1188 238 1223 276 C 1257 313 1281 360 1295 416 C 1308 472 1315 538 1315 614 L 1315 657 L 825 657 L 825 842 L 1520 842 L 1520 651 C 1520 581 1516 516 1508 456 C 1500 395 1487 340 1468 291 C 1448 241 1421 196 1388 157 C 1355 118 1314 85 1264 59 C 1213 32 1153 12 1083 -2 C 1013 -16 932 -23 840 -23 Z" unicode="Ğ" />
<glyph horiz-adv-x="1251" d="M 604 416 C 568 416 534 417 504 419 C 473 421 444 424 416 430 C 407 419 400 408 396 396 C 391 384 389 372 389 360 C 389 343 392 330 399 320 C 405 310 417 302 435 297 C 452 291 475 287 504 285 C 533 283 570 283 616 283 C 722 283 811 278 883 268 C 954 258 1011 241 1055 218 C 1097 194 1128 163 1146 125 C 1164 87 1174 39 1174 -18 C 1174 -79 1163 -131 1143 -175 C 1122 -219 1089 -255 1043 -284 C 997 -312 937 -333 864 -347 C 791 -360 702 -367 598 -367 C 502 -367 419 -363 351 -355 C 283 -347 227 -332 183 -312 C 139 -290 106 -261 86 -225 C 65 -188 55 -141 55 -84 C 55 -52 58 -21 65 9 C 71 39 83 66 100 91 C 116 115 138 137 166 155 C 194 173 229 186 272 195 C 249 210 233 229 223 251 C 213 273 209 300 209 332 C 209 360 213 387 222 414 C 230 441 243 466 260 489 C 214 519 179 558 156 607 C 132 655 121 714 121 782 C 121 845 130 901 148 949 C 166 997 195 1037 235 1069 C 274 1101 324 1125 385 1141 C 445 1157 518 1165 604 1165 C 616 1165 629 1165 641 1165 C 653 1165 665 1164 678 1163 L 1126 1227 L 1126 1063 L 942 1063 C 988 1037 1025 1002 1051 958 C 1077 913 1090 854 1090 782 C 1090 656 1051 563 973 504 C 895 445 772 416 604 416 Z M 604 -209 C 678 -209 739 -205 787 -197 C 835 -189 873 -177 901 -163 C 928 -147 947 -128 957 -106 C 967 -84 973 -58 973 -29 C 973 1 966 25 954 44 C 942 62 921 77 893 88 C 863 98 825 105 778 109 C 731 113 673 115 604 115 C 526 115 465 110 419 102 C 373 94 338 82 314 68 C 290 52 274 34 267 14 C 259 -5 256 -27 256 -51 C 256 -81 262 -106 275 -126 C 287 -146 308 -163 336 -176 C 364 -188 400 -196 444 -201 C 488 -206 541 -209 604 -209 Z M 604 580 C 656 580 701 583 738 591 C 774 599 804 611 828 628 C 850 644 867 665 877 691 C 887 716 893 746 893 782 C 893 855 869 907 822 938 C 774 969 702 985 604 985 C 551 985 506 981 469 974 C 432 966 402 955 380 939 C 356 922 339 901 329 875 C 318 849 313 818 313 782 C 313 746 318 716 329 691 C 339 665 356 644 380 628 C 402 611 432 599 469 591 C 506 583 551 580 604 580 Z M 622 1233 C 552 1233 494 1241 448 1258 C 401 1275 363 1299 333 1329 C 303 1359 279 1394 263 1434 C 247 1474 234 1518 225 1565 L 372 1595 C 378 1565 387 1537 398 1513 C 408 1489 423 1468 442 1451 C 460 1433 484 1420 513 1411 C 542 1401 578 1397 622 1397 C 664 1397 700 1401 729 1411 C 758 1420 782 1433 802 1451 C 820 1468 835 1489 846 1513 C 856 1537 865 1565 872 1595 L 1022 1567 C 1012 1519 998 1475 981 1435 C 964 1394 941 1359 911 1329 C 880 1299 841 1275 795 1258 C 749 1241 691 1233 622 1233 Z" unicode="ğ" />
<glyph horiz-adv-x="1604" d="" unicode="Ġ" />
<glyph horiz-adv-x="1251" d="" unicode="ġ" />
<glyph horiz-adv-x="1604" d="M 681 -457 C 705 -445 724 -434 739 -424 C 753 -414 765 -403 774 -392 C 782 -380 788 -368 791 -355 C 794 -341 796 -325 796 -307 L 687 -307 L 687 -80 L 911 -80 L 911 -250 C 911 -292 908 -327 904 -357 C 899 -386 890 -412 877 -435 C 863 -457 845 -476 821 -494 C 797 -511 767 -529 730 -547 L 681 -457 Z M 840 -23 C 700 -23 583 -6 487 27 C 391 60 313 110 254 176 C 194 241 150 322 124 420 C 97 518 84 631 84 760 C 84 896 100 1014 134 1113 C 168 1211 217 1292 283 1356 C 347 1419 427 1466 522 1496 C 617 1526 726 1542 850 1542 C 924 1542 990 1536 1049 1526 C 1107 1515 1160 1501 1206 1483 C 1252 1465 1292 1444 1327 1420 C 1362 1396 1393 1372 1419 1346 L 1272 1194 C 1248 1214 1223 1234 1197 1252 C 1170 1270 1140 1285 1107 1299 C 1073 1312 1035 1323 993 1331 C 951 1339 903 1343 850 1343 C 660 1343 520 1294 428 1198 C 336 1102 291 955 291 758 C 291 657 300 569 320 495 C 339 420 371 358 415 309 C 459 259 516 222 587 198 C 657 174 744 162 848 162 C 942 162 1019 171 1080 190 C 1140 209 1188 238 1223 276 C 1257 313 1281 360 1295 416 C 1308 472 1315 538 1315 614 L 1315 657 L 825 657 L 825 842 L 1520 842 L 1520 651 C 1520 581 1516 516 1508 456 C 1500 395 1487 340 1468 291 C 1448 241 1421 196 1388 157 C 1355 118 1314 85 1264 59 C 1213 32 1153 12 1083 -2 C 1013 -16 932 -23 840 -23 Z" unicode="Ģ" />
<glyph horiz-adv-x="1251" d="M 511 1405 C 511 1447 513 1483 518 1513 C 522 1543 532 1569 546 1592 C 559 1614 577 1633 601 1651 C 625 1668 656 1686 694 1704 L 741 1614 C 717 1602 698 1591 683 1581 C 668 1571 656 1560 648 1550 C 639 1538 633 1526 630 1512 C 627 1498 626 1481 626 1462 L 735 1462 L 735 1253 L 511 1253 L 511 1405 Z M 604 416 C 568 416 534 417 504 419 C 473 421 444 424 416 430 C 407 419 400 408 396 396 C 391 384 389 372 389 360 C 389 343 392 330 399 320 C 405 310 417 302 435 297 C 452 291 475 287 504 285 C 533 283 570 283 616 283 C 722 283 811 278 883 268 C 954 258 1011 241 1055 218 C 1097 194 1128 163 1146 125 C 1164 87 1174 39 1174 -18 C 1174 -79 1163 -131 1143 -175 C 1122 -219 1089 -255 1043 -284 C 997 -312 937 -333 864 -347 C 791 -360 702 -367 598 -367 C 502 -367 419 -363 351 -355 C 283 -347 227 -332 183 -312 C 139 -290 106 -261 86 -225 C 65 -188 55 -141 55 -84 C 55 -52 58 -21 65 9 C 71 39 83 66 100 91 C 116 115 138 137 166 155 C 194 173 229 186 272 195 C 249 210 233 229 223 251 C 213 273 209 300 209 332 C 209 360 213 387 222 414 C 230 441 243 466 260 489 C 214 519 179 558 156 607 C 132 655 121 714 121 782 C 121 845 130 901 148 949 C 166 997 195 1037 235 1069 C 274 1101 324 1125 385 1141 C 445 1157 518 1165 604 1165 C 616 1165 629 1165 641 1165 C 653 1165 665 1164 678 1163 L 1126 1227 L 1126 1063 L 942 1063 C 988 1037 1025 1002 1051 958 C 1077 913 1090 854 1090 782 C 1090 656 1051 563 973 504 C 895 445 772 416 604 416 Z M 604 -209 C 678 -209 739 -205 787 -197 C 835 -189 873 -177 901 -163 C 928 -147 947 -128 957 -106 C 967 -84 973 -58 973 -29 C 973 1 966 25 954 44 C 942 62 921 77 893 88 C 863 98 825 105 778 109 C 731 113 673 115 604 115 C 526 115 465 110 419 102 C 373 94 338 82 314 68 C 290 52 274 34 267 14 C 259 -5 256 -27 256 -51 C 256 -81 262 -106 275 -126 C 287 -146 308 -163 336 -176 C 364 -188 400 -196 444 -201 C 488 -206 541 -209 604 -209 Z M 604 580 C 656 580 701 583 738 591 C 774 599 804 611 828 628 C 850 644 867 665 877 691 C 887 716 893 746 893 782 C 893 855 869 907 822 938 C 774 969 702 985 604 985 C 551 985 506 981 469 974 C 432 966 402 955 380 939 C 356 922 339 901 329 875 C 318 849 313 818 313 782 C 313 746 318 716 329 691 C 339 665 356 644 380 628 C 402 611 432 599 469 591 C 506 583 551 580 604 580 Z" unicode="ģ" />
<glyph horiz-adv-x="1612" d="" unicode="Ĥ" />
<glyph horiz-adv-x="1294" d="" unicode="ĥ" />
<glyph horiz-adv-x="1612" d="" unicode="Ħ" />
<glyph horiz-adv-x="1294" d="" unicode="ħ" />
<glyph horiz-adv-x="582" d="" unicode="Ĩ" />
<glyph horiz-adv-x="516" d="" unicode="ĩ" />
<glyph horiz-adv-x="582" d="M -90 1763 L 680 1763 L 680 1593 L -90 1593 L -90 1763 Z M 188 1518 L 393 1518 L 393 0 L 188 0 L 188 1518 Z" unicode="Ī" />
<glyph horiz-adv-x="516" d="M -123 1413 L 647 1413 L 647 1243 L -123 1243 L -123 1413 Z M 160 1139 L 356 1139 L 356 0 L 160 0 L 160 1139 Z" unicode="ī" />
<glyph horiz-adv-x="582" d="" unicode="Ĭ" />
<glyph horiz-adv-x="516" d="" unicode="ĭ" />
<glyph horiz-adv-x="582" d="M 291 -455 C 240 -455 198 -449 165 -439 C 131 -429 105 -415 85 -397 C 65 -378 51 -356 43 -331 C 35 -306 31 -279 31 -250 C 31 -220 35 -192 43 -166 C 51 -140 63 -116 78 -94 C 92 -71 109 -51 128 -33 C 146 -15 166 0 188 12 L 188 1518 L 393 1518 L 393 0 C 325 -40 275 -78 244 -114 C 212 -150 197 -185 197 -219 C 197 -231 198 -243 201 -255 C 204 -267 210 -277 219 -286 C 227 -294 239 -301 255 -307 C 271 -312 291 -315 317 -315 C 348 -315 377 -312 404 -306 C 430 -300 453 -294 473 -287 L 522 -408 C 494 -421 460 -432 420 -441 C 380 -450 337 -455 291 -455 Z" unicode="Į" />
<glyph horiz-adv-x="516" d="M 254 -455 C 203 -455 161 -449 128 -439 C 94 -429 68 -415 48 -397 C 28 -378 14 -356 6 -331 C -2 -306 -6 -279 -6 -250 C -6 -220 -1 -191 8 -165 C 17 -139 29 -115 45 -93 C 60 -71 78 -51 98 -33 C 118 -15 138 0 160 12 L 160 1139 L 356 1139 L 356 0 C 288 -40 238 -78 207 -114 C 175 -150 160 -185 160 -219 C 160 -231 161 -243 164 -255 C 167 -267 173 -277 182 -286 C 190 -294 202 -301 218 -307 C 234 -312 255 -315 281 -315 C 311 -315 340 -312 367 -306 C 393 -300 416 -294 436 -287 L 485 -408 C 456 -421 422 -432 382 -441 C 342 -450 300 -455 254 -455 Z M 158 1518 L 358 1518 L 358 1276 L 158 1276 L 158 1518 Z" unicode="į" />
<glyph horiz-adv-x="582" d="M 195 1841 L 396 1841 L 396 1603 L 195 1603 L 195 1841 Z M 188 1518 L 393 1518 L 393 0 L 188 0 L 188 1518 Z" unicode="İ" />
<glyph horiz-adv-x="516" d="M 160 1139 L 356 1139 L 356 0 L 160 0 L 160 1139 Z" unicode="ı" />
<glyph horiz-adv-x="1430" d="" unicode="Ĳ" />
<glyph horiz-adv-x="1034" d="" unicode="ĳ" />
<glyph horiz-adv-x="848" d="" unicode="Ĵ" />
<glyph horiz-adv-x="516" d="" unicode="ĵ" />
<glyph horiz-adv-x="1473" d="M 655 768 L 375 455 L 375 0 L 172 0 L 172 1518 L 375 1518 L 375 721 L 1090 1518 L 1327 1518 L 791 920 L 1401 0 L 1165 0 L 655 768 Z M 616 -457 C 640 -445 659 -434 674 -424 C 688 -414 700 -403 709 -392 C 717 -380 723 -368 726 -355 C 729 -341 731 -325 731 -307 L 622 -307 L 622 -80 L 846 -80 L 846 -250 C 846 -292 843 -327 839 -357 C 834 -386 825 -412 812 -435 C 798 -457 780 -476 756 -494 C 732 -511 702 -529 665 -547 L 616 -457 Z" unicode="Ķ" />
<glyph horiz-adv-x="1143" d="M 450 -457 C 474 -445 493 -434 508 -424 C 522 -414 534 -403 543 -392 C 551 -380 557 -368 560 -355 C 563 -341 565 -325 565 -307 L 456 -307 L 456 -80 L 680 -80 L 680 -250 C 680 -292 677 -327 673 -357 C 668 -386 659 -412 646 -435 C 632 -457 614 -476 590 -494 C 566 -511 536 -529 499 -547 L 450 -457 Z M 147 1589 L 344 1589 L 344 553 L 848 1139 L 1069 1139 L 666 666 L 1110 0 L 889 0 L 532 520 L 344 305 L 344 0 L 147 0 L 147 1589 Z" unicode="ķ" />
<glyph horiz-adv-x="1143" d="" unicode="ĸ" />
<glyph horiz-adv-x="1219" d="M 172 1518 L 379 1518 L 379 190 L 1169 190 L 1169 0 L 172 0 L 172 1518 Z M 491 1942 L 735 1942 L 372 1606 L 188 1606 L 491 1942 Z" unicode="Ĺ" />
<glyph horiz-adv-x="625" d="M 416 -2 C 368 -2 327 3 295 14 C 262 24 236 41 216 65 C 196 88 181 119 173 157 C 164 195 160 241 160 295 L 160 1589 L 356 1589 L 356 317 C 356 290 357 268 360 250 C 363 232 369 217 379 207 C 387 195 400 187 417 183 C 433 178 455 176 483 176 L 528 176 L 528 2 C 518 0 503 0 483 -1 C 463 -1 440 -2 416 -2 Z M 465 1997 L 709 1997 L 346 1661 L 162 1661 L 465 1997 Z" unicode="ĺ" />
<glyph horiz-adv-x="1219" d="M 172 1518 L 379 1518 L 379 190 L 1169 190 L 1169 0 L 172 0 L 172 1518 Z M 487 -457 C 511 -445 530 -434 545 -424 C 559 -414 571 -403 580 -392 C 588 -380 594 -368 597 -355 C 600 -341 602 -325 602 -307 L 493 -307 L 493 -80 L 717 -80 L 717 -250 C 717 -292 714 -327 710 -357 C 705 -386 696 -412 683 -435 C 669 -457 651 -476 627 -494 C 603 -511 573 -529 536 -547 L 487 -457 Z" unicode="Ļ" />
<glyph horiz-adv-x="625" d="M 192 -457 C 216 -445 235 -434 250 -424 C 264 -414 276 -403 285 -392 C 293 -380 299 -368 302 -355 C 305 -341 307 -325 307 -307 L 198 -307 L 198 -80 L 422 -80 L 422 -250 C 422 -292 419 -327 415 -357 C 410 -386 401 -412 388 -435 C 374 -457 356 -476 332 -494 C 308 -511 278 -529 241 -547 L 192 -457 Z M 416 -2 C 368 -2 327 3 295 14 C 262 24 236 41 216 65 C 196 88 181 119 173 157 C 164 195 160 241 160 295 L 160 1589 L 356 1589 L 356 317 C 356 290 357 268 360 250 C 363 232 369 217 379 207 C 387 195 400 187 417 183 C 433 178 455 176 483 176 L 528 176 L 528 2 C 518 0 503 0 483 -1 C 463 -1 440 -2 416 -2 Z" unicode="ļ" />
<glyph horiz-adv-x="1219" d="M 569 1212 C 592 1224 611 1236 626 1246 C 641 1256 653 1266 662 1278 C 670 1288 675 1300 679 1314 C 682 1327 684 1343 684 1362 L 584 1362 L 584 1589 L 797 1589 L 797 1421 C 797 1378 794 1342 790 1312 C 785 1282 776 1257 764 1235 C 750 1212 732 1192 708 1175 C 684 1157 654 1140 616 1122 L 569 1212 Z M 172 1518 L 379 1518 L 379 190 L 1169 190 L 1169 0 L 172 0 L 172 1518 Z" unicode="Ľ" />
<glyph horiz-adv-x="754" d="M 518 1212 C 540 1224 559 1236 574 1246 C 589 1256 601 1266 610 1278 C 618 1288 624 1300 628 1314 C 631 1327 633 1343 633 1362 L 532 1362 L 532 1589 L 745 1589 L 745 1421 C 745 1378 742 1342 738 1312 C 733 1282 724 1257 712 1235 C 698 1212 680 1192 657 1175 C 633 1157 603 1140 565 1122 L 518 1212 Z M 416 -2 C 368 -2 327 3 295 14 C 262 24 236 41 216 65 C 196 88 181 119 173 157 C 164 195 160 241 160 295 L 160 1589 L 356 1589 L 356 317 C 356 290 357 268 360 250 C 363 232 369 217 379 207 C 387 195 400 187 417 183 C 433 178 455 176 483 176 L 528 176 L 528 2 C 518 0 503 0 483 -1 C 463 -1 440 -2 416 -2 Z" unicode="ľ" />
<glyph horiz-adv-x="1313" d="" unicode="Ŀ" />
<glyph horiz-adv-x="1067" d="" unicode="ŀ" />
<glyph horiz-adv-x="1219" d="M 0 776 L 172 872 L 172 1518 L 379 1518 L 379 987 L 705 1169 L 705 991 L 379 809 L 379 190 L 1169 190 L 1169 0 L 172 0 L 172 694 L 0 598 L 0 776 Z" unicode="Ł" />
<glyph horiz-adv-x="752" d="M 47 932 L 244 1044 L 244 1589 L 444 1589 L 444 1161 L 662 1288 L 662 1116 L 444 991 L 444 311 C 444 283 445 261 448 243 C 450 225 456 210 465 199 C 473 187 486 179 502 175 C 518 170 539 168 567 168 L 614 168 L 614 2 C 604 0 590 0 570 -1 C 550 -1 527 -2 502 -2 C 454 -2 413 3 381 14 C 348 24 322 41 302 65 C 281 88 266 118 257 155 C 248 192 244 237 244 291 L 244 874 L 47 762 L 47 932 Z" unicode="ł" />
<glyph horiz-adv-x="1620" d="M 172 1518 L 397 1518 L 1247 348 L 1247 1518 L 1448 1518 L 1448 0 L 1257 0 L 373 1214 L 373 0 L 172 0 L 172 1518 Z M 936 1942 L 1180 1942 L 817 1606 L 633 1606 L 936 1942 Z" unicode="Ń" />
<glyph horiz-adv-x="1294" d="M 147 1128 L 305 1139 L 322 1030 C 335 1048 352 1065 373 1081 C 394 1097 421 1112 455 1125 C 487 1137 527 1146 574 1154 C 620 1161 676 1165 741 1165 C 831 1165 903 1153 957 1131 C 1011 1108 1052 1076 1081 1035 C 1109 993 1128 944 1137 886 C 1146 828 1151 764 1151 694 L 1151 0 L 952 0 L 952 655 C 952 701 949 743 945 782 C 941 820 930 854 912 882 C 894 909 866 930 830 946 C 793 961 742 969 678 969 C 608 969 551 960 508 943 C 464 926 431 903 408 873 C 384 843 368 807 360 766 C 352 724 348 679 348 631 L 348 0 L 147 0 L 147 1128 Z M 774 1591 L 1018 1591 L 655 1255 L 471 1255 L 774 1591 Z" unicode="ń" />
<glyph horiz-adv-x="1620" d="M 172 1518 L 397 1518 L 1247 348 L 1247 1518 L 1448 1518 L 1448 0 L 1257 0 L 373 1214 L 373 0 L 172 0 L 172 1518 Z M 688 -457 C 712 -445 731 -434 746 -424 C 760 -414 772 -403 781 -392 C 789 -380 795 -368 798 -355 C 801 -341 803 -325 803 -307 L 694 -307 L 694 -80 L 918 -80 L 918 -250 C 918 -292 915 -327 911 -357 C 906 -386 897 -412 884 -435 C 870 -457 852 -476 828 -494 C 804 -511 774 -529 737 -547 L 688 -457 Z" unicode="Ņ" />
<glyph horiz-adv-x="1294" d="M 147 1128 L 305 1139 L 322 1030 C 335 1048 352 1065 373 1081 C 394 1097 421 1112 455 1125 C 487 1137 527 1146 574 1154 C 620 1161 676 1165 741 1165 C 831 1165 903 1153 957 1131 C 1011 1108 1052 1076 1081 1035 C 1109 993 1128 944 1137 886 C 1146 828 1151 764 1151 694 L 1151 0 L 952 0 L 952 655 C 952 701 949 743 945 782 C 941 820 930 854 912 882 C 894 909 866 930 830 946 C 793 961 742 969 678 969 C 608 969 551 960 508 943 C 464 926 431 903 408 873 C 384 843 368 807 360 766 C 352 724 348 679 348 631 L 348 0 L 147 0 L 147 1128 Z M 524 -457 C 548 -445 567 -434 582 -424 C 596 -414 608 -403 617 -392 C 625 -380 631 -368 634 -355 C 637 -341 639 -325 639 -307 L 530 -307 L 530 -80 L 754 -80 L 754 -250 C 754 -292 751 -327 747 -357 C 742 -386 733 -412 720 -435 C 706 -457 688 -476 664 -494 C 640 -511 610 -529 573 -547 L 524 -457 Z" unicode="ņ" />
<glyph horiz-adv-x="1620" d="M 172 1518 L 397 1518 L 1247 348 L 1247 1518 L 1448 1518 L 1448 0 L 1257 0 L 373 1214 L 373 0 L 172 0 L 172 1518 Z M 383 1942 L 578 1942 L 807 1735 L 1037 1942 L 1225 1942 L 912 1606 L 697 1606 L 383 1942 Z" unicode="Ň" />
<glyph horiz-adv-x="1294" d="M 147 1128 L 305 1139 L 322 1030 C 335 1048 352 1065 373 1081 C 394 1097 421 1112 455 1125 C 487 1137 527 1146 574 1154 C 620 1161 676 1165 741 1165 C 831 1165 903 1153 957 1131 C 1011 1108 1052 1076 1081 1035 C 1109 993 1128 944 1137 886 C 1146 828 1151 764 1151 694 L 1151 0 L 952 0 L 952 655 C 952 701 949 743 945 782 C 941 820 930 854 912 882 C 894 909 866 930 830 946 C 793 961 742 969 678 969 C 608 969 551 960 508 943 C 464 926 431 903 408 873 C 384 843 368 807 360 766 C 352 724 348 679 348 631 L 348 0 L 147 0 L 147 1128 Z M 221 1591 L 416 1591 L 645 1384 L 875 1591 L 1063 1591 L 750 1255 L 535 1255 L 221 1591 Z" unicode="ň" />
<glyph horiz-adv-x="1763" d="" unicode="ŉ" />
<glyph horiz-adv-x="1618" d="" unicode="Ŋ" />
<glyph horiz-adv-x="1294" d="" unicode="ŋ" />
<glyph horiz-adv-x="1718" d="M 471 1763 L 1241 1763 L 1241 1593 L 471 1593 L 471 1763 Z M 858 -25 C 736 -25 628 -10 532 20 C 436 50 355 97 289 161 C 222 224 171 305 136 404 C 101 503 84 622 84 760 C 84 897 101 1015 136 1114 C 171 1212 222 1293 289 1357 C 355 1420 436 1467 532 1497 C 628 1527 736 1542 858 1542 C 979 1542 1087 1527 1183 1497 C 1279 1467 1360 1420 1427 1357 C 1493 1293 1544 1212 1579 1114 C 1614 1015 1632 897 1632 760 C 1632 622 1614 503 1579 404 C 1544 305 1493 224 1427 161 C 1360 97 1279 50 1183 20 C 1087 -10 979 -25 858 -25 Z M 858 168 C 956 168 1041 181 1113 207 C 1184 233 1243 271 1290 321 C 1336 371 1370 432 1392 505 C 1414 578 1425 662 1425 756 C 1425 850 1414 933 1392 1006 C 1370 1079 1336 1141 1290 1191 C 1243 1241 1184 1278 1113 1304 C 1041 1330 956 1343 858 1343 C 759 1343 674 1330 603 1304 C 531 1278 473 1241 427 1191 C 381 1141 347 1079 325 1006 C 303 933 293 850 293 756 C 293 662 303 578 325 505 C 347 432 381 371 427 321 C 473 271 531 233 603 207 C 674 181 759 168 858 168 Z" unicode="Ō" />
<glyph horiz-adv-x="1309" d="M 653 -23 C 552 -23 466 -10 395 15 C 324 40 266 78 222 128 C 176 178 143 240 123 314 C 102 388 92 473 92 571 C 92 668 102 754 123 828 C 143 902 176 964 222 1014 C 266 1064 324 1101 395 1127 C 466 1152 552 1165 653 1165 C 753 1165 839 1152 911 1127 C 983 1101 1041 1064 1087 1014 C 1131 964 1164 902 1185 828 C 1206 754 1217 668 1217 571 C 1217 473 1206 388 1185 314 C 1164 240 1131 178 1087 128 C 1041 78 983 40 911 15 C 839 -10 753 -23 653 -23 Z M 653 158 C 720 158 777 167 823 185 C 869 203 906 229 935 264 C 963 298 983 341 995 392 C 1007 443 1014 501 1014 567 C 1014 632 1007 690 995 741 C 983 791 963 834 935 869 C 906 903 869 930 823 948 C 777 966 720 975 653 975 C 585 975 529 966 483 948 C 437 930 401 903 373 869 C 344 834 323 791 311 741 C 299 690 293 632 293 567 C 293 501 299 443 311 392 C 323 341 344 298 373 264 C 401 229 437 203 483 185 C 529 167 585 158 653 158 Z M 266 1413 L 1036 1413 L 1036 1243 L 266 1243 L 266 1413 Z" unicode="ō" />
<glyph horiz-adv-x="1718" d="" unicode="Ŏ" />
<glyph horiz-adv-x="1309" d="" unicode="ŏ" />
<glyph horiz-adv-x="1718" d="M 706 1937 L 939 1937 L 620 1605 L 448 1605 L 706 1937 Z M 1193 1937 L 1425 1937 L 1109 1605 L 935 1605 L 1193 1937 Z M 858 -25 C 736 -25 628 -10 532 20 C 436 50 355 97 289 161 C 222 224 171 305 136 404 C 101 503 84 622 84 760 C 84 897 101 1015 136 1114 C 171 1212 222 1293 289 1357 C 355 1420 436 1467 532 1497 C 628 1527 736 1542 858 1542 C 979 1542 1087 1527 1183 1497 C 1279 1467 1360 1420 1427 1357 C 1493 1293 1544 1212 1579 1114 C 1614 1015 1632 897 1632 760 C 1632 622 1614 503 1579 404 C 1544 305 1493 224 1427 161 C 1360 97 1279 50 1183 20 C 1087 -10 979 -25 858 -25 Z M 858 168 C 956 168 1041 181 1113 207 C 1184 233 1243 271 1290 321 C 1336 371 1370 432 1392 505 C 1414 578 1425 662 1425 756 C 1425 850 1414 933 1392 1006 C 1370 1079 1336 1141 1290 1191 C 1243 1241 1184 1278 1113 1304 C 1041 1330 956 1343 858 1343 C 759 1343 674 1330 603 1304 C 531 1278 473 1241 427 1191 C 381 1141 347 1079 325 1006 C 303 933 293 850 293 756 C 293 662 303 578 325 505 C 347 432 381 371 427 321 C 473 271 531 233 603 207 C 674 181 759 168 858 168 Z" unicode="Ő" />
<glyph horiz-adv-x="1309" d="M 653 -23 C 552 -23 466 -10 395 15 C 324 40 266 78 222 128 C 176 178 143 240 123 314 C 102 388 92 473 92 571 C 92 668 102 754 123 828 C 143 902 176 964 222 1014 C 266 1064 324 1101 395 1127 C 466 1152 552 1165 653 1165 C 753 1165 839 1152 911 1127 C 983 1101 1041 1064 1087 1014 C 1131 964 1164 902 1185 828 C 1206 754 1217 668 1217 571 C 1217 473 1206 388 1185 314 C 1164 240 1131 178 1087 128 C 1041 78 983 40 911 15 C 839 -10 753 -23 653 -23 Z M 653 158 C 720 158 777 167 823 185 C 869 203 906 229 935 264 C 963 298 983 341 995 392 C 1007 443 1014 501 1014 567 C 1014 632 1007 690 995 741 C 983 791 963 834 935 869 C 906 903 869 930 823 948 C 777 966 720 975 653 975 C 585 975 529 966 483 948 C 437 930 401 903 373 869 C 344 834 323 791 311 741 C 299 690 293 632 293 567 C 293 501 299 443 311 392 C 323 341 344 298 373 264 C 401 229 437 203 483 185 C 529 167 585 158 653 158 Z M 502 1587 L 735 1587 L 416 1255 L 244 1255 L 502 1587 Z M 989 1587 L 1221 1587 L 905 1255 L 731 1255 L 989 1587 Z" unicode="ő" />
<glyph horiz-adv-x="2583" d="M 1438 201 C 1378 125 1300 69 1204 31 C 1107 -6 992 -25 858 -25 C 732 -25 622 -10 526 20 C 430 50 349 97 284 161 C 218 224 168 305 134 404 C 100 503 84 622 84 760 C 84 897 100 1015 134 1114 C 168 1212 218 1293 284 1357 C 349 1420 430 1467 526 1497 C 622 1527 732 1542 858 1542 C 991 1542 1106 1523 1203 1486 C 1299 1448 1378 1392 1438 1317 L 1438 1518 L 2458 1518 L 2458 1319 L 1626 1319 L 1626 879 L 2437 879 L 2437 688 L 1626 688 L 1626 190 L 2466 190 L 2466 0 L 1438 0 L 1438 201 Z M 858 168 C 960 168 1047 181 1119 207 C 1191 233 1249 271 1295 321 C 1340 371 1373 432 1394 505 C 1414 578 1425 662 1425 756 C 1425 850 1414 933 1394 1006 C 1373 1079 1340 1141 1295 1191 C 1249 1241 1191 1278 1119 1304 C 1047 1330 960 1343 858 1343 C 756 1343 669 1330 597 1304 C 525 1278 467 1241 423 1191 C 377 1141 344 1079 324 1006 C 303 933 293 850 293 756 C 293 662 303 578 324 505 C 344 432 377 371 423 321 C 467 271 525 233 597 207 C 669 181 756 168 858 168 Z" unicode="Œ" />
<glyph horiz-adv-x="2150" d="M 1573 -23 C 1509 -23 1452 -18 1403 -9 C 1353 0 1310 13 1274 31 C 1236 48 1204 69 1178 94 C 1152 118 1130 146 1112 176 C 1091 144 1066 115 1038 90 C 1010 65 977 44 940 28 C 902 11 859 -1 812 -10 C 764 -18 711 -23 653 -23 C 550 -23 463 -10 392 15 C 320 40 263 78 219 128 C 174 178 142 240 122 314 C 102 388 92 473 92 571 C 92 668 102 754 122 828 C 142 902 174 964 219 1014 C 263 1064 320 1101 392 1127 C 463 1152 550 1165 653 1165 C 769 1165 865 1147 940 1113 C 1014 1079 1072 1029 1112 965 C 1130 995 1152 1022 1178 1047 C 1204 1071 1236 1092 1274 1110 C 1310 1127 1353 1140 1402 1150 C 1450 1160 1506 1165 1569 1165 C 1649 1165 1716 1156 1772 1139 C 1827 1122 1873 1098 1909 1068 C 1945 1037 1972 1001 1992 959 C 2011 917 2025 871 2034 822 C 2042 772 2047 719 2048 663 C 2049 607 2049 551 2048 494 L 1208 494 C 1210 442 1218 394 1230 352 C 1242 310 1261 274 1289 244 C 1315 214 1352 190 1398 174 C 1444 158 1502 150 1573 150 C 1619 150 1659 152 1695 158 C 1730 164 1762 172 1790 182 C 1818 192 1843 203 1867 217 C 1890 231 1913 246 1935 262 L 2044 123 C 2013 99 1981 78 1949 60 C 1917 42 1882 27 1845 15 C 1807 2 1766 -7 1722 -13 C 1678 -19 1628 -23 1573 -23 Z M 653 158 C 720 158 777 167 823 185 C 869 203 906 229 935 264 C 963 298 983 341 995 392 C 1007 443 1014 501 1014 567 C 1014 632 1007 690 995 741 C 983 791 963 834 935 869 C 906 903 869 930 823 948 C 777 966 720 975 653 975 C 585 975 529 966 483 948 C 437 930 401 903 373 869 C 344 834 323 791 311 741 C 299 690 293 632 293 567 C 293 501 299 443 311 392 C 323 341 344 298 373 264 C 401 229 437 203 483 185 C 529 167 585 158 653 158 Z M 1563 989 C 1497 989 1443 981 1400 966 C 1357 950 1322 929 1296 901 C 1268 872 1248 838 1235 799 C 1222 759 1214 716 1210 668 L 1860 668 C 1857 712 1853 754 1847 794 C 1841 833 1828 867 1809 896 C 1789 924 1759 947 1721 964 C 1683 980 1630 989 1563 989 Z" unicode="œ" />
<glyph horiz-adv-x="1499" d="M 799 584 L 375 584 L 375 0 L 172 0 L 172 1518 L 848 1518 C 944 1518 1025 1508 1093 1488 C 1161 1468 1216 1438 1259 1400 C 1301 1361 1331 1313 1351 1256 C 1370 1198 1380 1133 1380 1059 C 1380 997 1373 941 1359 890 C 1345 838 1324 793 1295 754 C 1265 714 1227 681 1181 655 C 1135 629 1079 610 1014 598 L 1358 0 L 1137 0 L 799 584 Z M 846 774 C 898 774 944 778 984 787 C 1024 795 1059 810 1087 832 C 1114 852 1135 880 1149 916 C 1163 952 1171 997 1171 1051 C 1171 1105 1164 1149 1150 1185 C 1136 1220 1115 1248 1087 1269 C 1059 1289 1024 1304 983 1312 C 941 1320 894 1325 840 1325 L 375 1325 L 375 774 L 846 774 Z M 876 1942 L 1120 1942 L 757 1606 L 573 1606 L 876 1942 Z" unicode="Ŕ" />
<glyph horiz-adv-x="760" d="M 147 1128 L 305 1139 L 326 999 C 337 1019 354 1039 377 1057 C 399 1075 427 1091 460 1105 C 492 1119 530 1130 572 1138 C 614 1146 661 1151 711 1153 L 711 952 C 642 951 584 942 538 925 C 492 908 455 884 427 854 C 398 822 378 785 366 742 C 354 699 348 652 348 600 L 348 0 L 147 0 L 147 1128 Z M 528 1591 L 772 1591 L 409 1255 L 225 1255 L 528 1591 Z" unicode="ŕ" />
<glyph horiz-adv-x="1499" d="M 630 -457 C 654 -445 673 -434 688 -424 C 702 -414 714 -403 723 -392 C 731 -380 737 -368 740 -355 C 743 -341 745 -325 745 -307 L 636 -307 L 636 -80 L 860 -80 L 860 -250 C 860 -292 857 -327 853 -357 C 848 -386 839 -412 826 -435 C 812 -457 794 -476 770 -494 C 746 -511 716 -529 679 -547 L 630 -457 Z M 799 584 L 375 584 L 375 0 L 172 0 L 172 1518 L 848 1518 C 944 1518 1025 1508 1093 1488 C 1161 1468 1216 1438 1259 1400 C 1301 1361 1331 1313 1351 1256 C 1370 1198 1380 1133 1380 1059 C 1380 997 1373 941 1359 890 C 1345 838 1324 793 1295 754 C 1265 714 1227 681 1181 655 C 1135 629 1079 610 1014 598 L 1358 0 L 1137 0 L 799 584 Z M 846 774 C 898 774 944 778 984 787 C 1024 795 1059 810 1087 832 C 1114 852 1135 880 1149 916 C 1163 952 1171 997 1171 1051 C 1171 1105 1164 1149 1150 1185 C 1136 1220 1115 1248 1087 1269 C 1059 1289 1024 1304 983 1312 C 941 1320 894 1325 840 1325 L 375 1325 L 375 774 L 846 774 Z" unicode="Ŗ" />
<glyph horiz-adv-x="760" d="M 132 -457 C 156 -445 175 -434 190 -424 C 204 -414 216 -403 225 -392 C 233 -380 239 -368 242 -355 C 245 -341 247 -325 247 -307 L 138 -307 L 138 -80 L 362 -80 L 362 -250 C 362 -292 359 -327 355 -357 C 350 -386 341 -412 328 -435 C 314 -457 296 -476 272 -494 C 248 -511 218 -529 181 -547 L 132 -457 Z M 147 1128 L 305 1139 L 326 999 C 337 1019 354 1039 377 1057 C 399 1075 427 1091 460 1105 C 492 1119 530 1130 572 1138 C 614 1146 661 1151 711 1153 L 711 952 C 642 951 584 942 538 925 C 492 908 455 884 427 854 C 398 822 378 785 366 742 C 354 699 348 652 348 600 L 348 0 L 147 0 L 147 1128 Z" unicode="ŗ" />
<glyph horiz-adv-x="1499" d="M 323 1942 L 518 1942 L 747 1735 L 977 1942 L 1165 1942 L 852 1606 L 637 1606 L 323 1942 Z M 799 584 L 375 584 L 375 0 L 172 0 L 172 1518 L 848 1518 C 944 1518 1025 1508 1093 1488 C 1161 1468 1216 1438 1259 1400 C 1301 1361 1331 1313 1351 1256 C 1370 1198 1380 1133 1380 1059 C 1380 997 1373 941 1359 890 C 1345 838 1324 793 1295 754 C 1265 714 1227 681 1181 655 C 1135 629 1079 610 1014 598 L 1358 0 L 1137 0 L 799 584 Z M 846 774 C 898 774 944 778 984 787 C 1024 795 1059 810 1087 832 C 1114 852 1135 880 1149 916 C 1163 952 1171 997 1171 1051 C 1171 1105 1164 1149 1150 1185 C 1136 1220 1115 1248 1087 1269 C 1059 1289 1024 1304 983 1312 C 941 1320 894 1325 840 1325 L 375 1325 L 375 774 L 846 774 Z" unicode="Ř" />
<glyph horiz-adv-x="743" d="M 147 1128 L 305 1139 L 326 999 C 337 1019 354 1039 377 1057 C 399 1075 427 1091 460 1105 C 492 1119 530 1130 572 1138 C 614 1146 661 1151 711 1153 L 711 952 C 642 951 584 942 538 925 C 492 908 455 884 427 854 C 398 822 378 785 366 742 C 354 699 348 652 348 600 L 348 0 L 147 0 L 147 1128 Z M -47 1591 L 148 1591 L 377 1384 L 607 1591 L 795 1591 L 482 1255 L 267 1255 L -47 1591 Z" unicode="ř" />
<glyph horiz-adv-x="1460" d="M 727 -20 C 602 -20 486 -6 378 22 C 270 50 168 96 74 160 L 178 319 C 266 261 356 221 446 197 C 536 173 628 162 721 162 C 798 162 864 167 918 177 C 972 187 1016 203 1050 225 C 1084 246 1108 273 1124 307 C 1139 340 1147 380 1147 426 C 1147 472 1137 510 1117 540 C 1097 569 1068 593 1032 612 C 994 630 949 644 896 655 C 843 666 784 677 719 688 C 631 702 553 717 483 735 C 413 752 354 776 306 807 C 257 837 219 877 193 927 C 167 977 154 1041 154 1120 C 154 1196 165 1260 189 1314 C 213 1368 249 1412 297 1446 C 344 1479 403 1503 474 1519 C 545 1534 628 1542 723 1542 C 787 1542 846 1538 900 1531 C 954 1524 1004 1515 1050 1503 C 1095 1490 1136 1475 1174 1458 C 1212 1441 1246 1423 1276 1403 L 1163 1233 C 1137 1250 1107 1266 1074 1281 C 1041 1295 1006 1308 968 1319 C 930 1329 890 1337 849 1343 C 807 1349 765 1352 723 1352 C 657 1352 601 1347 555 1339 C 509 1330 471 1316 442 1298 C 412 1279 391 1255 378 1227 C 364 1198 358 1164 358 1124 C 358 1080 367 1045 385 1018 C 403 991 430 969 466 952 C 500 934 543 919 595 908 C 646 896 704 885 770 874 C 826 864 880 855 931 845 C 981 835 1028 823 1072 809 C 1115 794 1154 777 1188 757 C 1222 737 1252 712 1277 684 C 1301 654 1319 619 1332 579 C 1345 538 1352 490 1352 436 C 1352 360 1340 293 1316 236 C 1292 179 1254 132 1204 94 C 1153 56 1088 27 1009 8 C 930 -10 836 -20 727 -20 Z M 858 1942 L 1102 1942 L 739 1606 L 555 1606 L 858 1942 Z" unicode="Ś" />
<glyph horiz-adv-x="1098" d="M 543 -20 C 502 -20 461 -17 419 -13 C 377 -9 336 -2 294 8 C 252 18 210 31 170 48 C 129 65 89 87 51 113 L 154 268 C 220 226 287 196 357 179 C 427 162 493 154 555 154 C 603 154 645 156 680 161 C 714 165 743 174 765 187 C 787 199 803 215 813 237 C 823 259 829 287 829 322 C 829 348 824 370 814 388 C 804 406 789 421 768 433 C 746 444 718 454 683 462 C 648 470 605 478 555 487 C 487 499 426 512 372 526 C 317 540 270 559 232 584 C 192 608 162 641 141 681 C 119 721 109 774 109 840 C 109 892 117 938 133 978 C 149 1018 174 1053 210 1081 C 245 1108 291 1129 348 1143 C 404 1157 473 1165 555 1165 C 643 1165 724 1156 798 1139 C 871 1121 935 1097 989 1065 L 895 901 C 851 924 801 943 744 958 C 687 973 625 981 559 981 C 509 981 467 977 435 971 C 403 965 377 956 359 944 C 339 931 326 916 318 899 C 310 881 307 862 307 840 C 307 813 311 791 321 773 C 330 755 345 741 366 729 C 386 717 412 706 444 698 C 476 690 516 682 563 674 C 633 661 696 648 753 635 C 809 621 858 603 898 579 C 938 555 968 523 990 484 C 1011 445 1022 394 1022 330 C 1022 264 1012 209 994 165 C 976 121 947 85 909 58 C 869 30 819 10 759 -2 C 699 -14 627 -20 543 -20 Z M 680 1591 L 924 1591 L 561 1255 L 377 1255 L 680 1591 Z" unicode="ś" />
<glyph horiz-adv-x="1460" d="" unicode="Ŝ" />
<glyph horiz-adv-x="1098" d="" unicode="ŝ" />
<glyph horiz-adv-x="1460" d="M 739 -475 C 687 -475 641 -469 601 -458 C 561 -447 524 -432 492 -414 L 547 -309 C 575 -323 604 -335 635 -343 C 666 -351 698 -356 731 -356 C 763 -356 789 -353 809 -348 C 829 -343 844 -336 856 -328 C 867 -318 875 -307 879 -295 C 883 -283 885 -270 885 -256 C 885 -219 870 -194 842 -182 C 813 -170 764 -166 696 -170 L 647 -135 L 670 -18 C 556 -14 450 2 352 30 C 254 58 161 101 74 160 L 178 319 C 266 261 356 221 446 197 C 536 173 628 162 721 162 C 798 162 864 167 918 177 C 972 187 1016 203 1050 225 C 1084 246 1108 273 1124 307 C 1139 340 1147 380 1147 426 C 1147 472 1137 510 1117 540 C 1097 569 1068 593 1032 612 C 994 630 949 644 896 655 C 843 666 784 677 719 688 C 631 702 553 717 483 735 C 413 752 354 776 306 807 C 257 837 219 877 193 927 C 167 977 154 1041 154 1120 C 154 1196 165 1260 189 1314 C 213 1368 249 1412 297 1446 C 344 1479 403 1503 474 1519 C 545 1534 628 1542 723 1542 C 787 1542 846 1538 900 1531 C 954 1524 1004 1515 1050 1503 C 1095 1490 1136 1475 1174 1458 C 1212 1441 1246 1423 1276 1403 L 1163 1233 C 1137 1250 1107 1266 1074 1281 C 1041 1295 1006 1308 968 1319 C 930 1329 890 1337 849 1343 C 807 1349 765 1352 723 1352 C 657 1352 601 1347 555 1339 C 509 1330 471 1316 442 1298 C 412 1279 391 1255 378 1227 C 364 1198 358 1164 358 1124 C 358 1080 367 1045 385 1018 C 403 991 430 969 466 952 C 500 934 543 919 595 908 C 646 896 704 885 770 874 C 826 864 880 855 931 845 C 981 835 1028 823 1072 809 C 1115 794 1154 777 1188 757 C 1222 737 1252 712 1277 684 C 1301 654 1319 619 1332 579 C 1345 538 1352 490 1352 436 C 1352 364 1341 300 1319 245 C 1297 190 1264 144 1219 106 C 1173 68 1114 38 1044 18 C 973 -2 889 -14 791 -18 L 778 -90 C 809 -88 839 -89 869 -92 C 898 -94 924 -102 947 -114 C 969 -126 987 -144 1001 -168 C 1015 -192 1022 -226 1022 -268 C 1022 -301 1016 -330 1006 -356 C 995 -382 978 -404 956 -422 C 933 -439 904 -452 868 -461 C 832 -470 789 -475 739 -475 Z" unicode="Ş" />
<glyph horiz-adv-x="1098" d="M 561 -475 C 509 -475 463 -469 423 -458 C 383 -447 346 -432 313 -414 L 369 -309 C 397 -323 426 -335 457 -343 C 487 -351 519 -356 553 -356 C 585 -356 611 -353 631 -348 C 651 -343 666 -336 678 -328 C 689 -318 697 -307 701 -295 C 705 -283 707 -270 707 -256 C 707 -237 703 -222 696 -210 C 689 -198 678 -188 664 -182 C 648 -175 629 -171 605 -169 C 581 -167 552 -168 518 -170 L 469 -135 L 492 -18 C 454 -16 417 -13 379 -8 C 341 -2 304 5 267 15 C 229 25 192 38 156 54 C 120 70 85 89 51 113 L 154 268 C 220 226 287 196 357 179 C 427 162 493 154 555 154 C 603 154 645 156 680 161 C 714 165 743 174 765 187 C 787 199 803 215 813 237 C 823 259 829 287 829 322 C 829 348 824 370 814 388 C 804 406 789 421 768 433 C 746 444 718 454 683 462 C 648 470 605 478 555 487 C 487 499 426 512 372 526 C 317 540 270 559 232 584 C 192 608 162 641 141 681 C 119 721 109 774 109 840 C 109 892 117 938 133 978 C 149 1018 174 1053 210 1081 C 245 1108 291 1129 348 1143 C 404 1157 473 1165 555 1165 C 643 1165 724 1156 798 1139 C 871 1121 935 1097 989 1065 L 895 901 C 851 924 801 943 744 958 C 687 973 625 981 559 981 C 509 981 467 977 435 971 C 403 965 377 956 359 944 C 339 931 326 916 318 899 C 310 881 307 862 307 840 C 307 813 311 791 321 773 C 330 755 345 741 366 729 C 386 717 412 706 444 698 C 476 690 516 682 563 674 C 633 661 696 648 753 635 C 809 621 858 603 898 579 C 938 555 968 523 990 484 C 1011 445 1022 394 1022 330 C 1022 269 1014 217 998 175 C 982 132 958 97 925 70 C 891 42 849 21 797 7 C 745 -7 684 -15 612 -18 L 600 -90 C 631 -88 661 -89 691 -92 C 720 -94 746 -102 769 -114 C 791 -126 809 -144 823 -168 C 837 -192 844 -226 844 -268 C 844 -301 838 -330 828 -356 C 817 -382 800 -404 778 -422 C 755 -439 726 -452 690 -461 C 654 -470 611 -475 561 -475 Z" unicode="ş" />
<glyph horiz-adv-x="1460" d="M 727 -20 C 602 -20 486 -6 378 22 C 270 50 168 96 74 160 L 178 319 C 266 261 356 221 446 197 C 536 173 628 162 721 162 C 798 162 864 167 918 177 C 972 187 1016 203 1050 225 C 1084 246 1108 273 1124 307 C 1139 340 1147 380 1147 426 C 1147 472 1137 510 1117 540 C 1097 569 1068 593 1032 612 C 994 630 949 644 896 655 C 843 666 784 677 719 688 C 631 702 553 717 483 735 C 413 752 354 776 306 807 C 257 837 219 877 193 927 C 167 977 154 1041 154 1120 C 154 1196 165 1260 189 1314 C 213 1368 249 1412 297 1446 C 344 1479 403 1503 474 1519 C 545 1534 628 1542 723 1542 C 787 1542 846 1538 900 1531 C 954 1524 1004 1515 1050 1503 C 1095 1490 1136 1475 1174 1458 C 1212 1441 1246 1423 1276 1403 L 1163 1233 C 1137 1250 1107 1266 1074 1281 C 1041 1295 1006 1308 968 1319 C 930 1329 890 1337 849 1343 C 807 1349 765 1352 723 1352 C 657 1352 601 1347 555 1339 C 509 1330 471 1316 442 1298 C 412 1279 391 1255 378 1227 C 364 1198 358 1164 358 1124 C 358 1080 367 1045 385 1018 C 403 991 430 969 466 952 C 500 934 543 919 595 908 C 646 896 704 885 770 874 C 826 864 880 855 931 845 C 981 835 1028 823 1072 809 C 1115 794 1154 777 1188 757 C 1222 737 1252 712 1277 684 C 1301 654 1319 619 1332 579 C 1345 538 1352 490 1352 436 C 1352 360 1340 293 1316 236 C 1292 179 1254 132 1204 94 C 1153 56 1088 27 1009 8 C 930 -10 836 -20 727 -20 Z M 305 1942 L 500 1942 L 729 1735 L 959 1942 L 1147 1942 L 834 1606 L 619 1606 L 305 1942 Z" unicode="Š" />
<glyph horiz-adv-x="1098" d="M 543 -20 C 502 -20 461 -17 419 -13 C 377 -9 336 -2 294 8 C 252 18 210 31 170 48 C 129 65 89 87 51 113 L 154 268 C 220 226 287 196 357 179 C 427 162 493 154 555 154 C 603 154 645 156 680 161 C 714 165 743 174 765 187 C 787 199 803 215 813 237 C 823 259 829 287 829 322 C 829 348 824 370 814 388 C 804 406 789 421 768 433 C 746 444 718 454 683 462 C 648 470 605 478 555 487 C 487 499 426 512 372 526 C 317 540 270 559 232 584 C 192 608 162 641 141 681 C 119 721 109 774 109 840 C 109 892 117 938 133 978 C 149 1018 174 1053 210 1081 C 245 1108 291 1129 348 1143 C 404 1157 473 1165 555 1165 C 643 1165 724 1156 798 1139 C 871 1121 935 1097 989 1065 L 895 901 C 851 924 801 943 744 958 C 687 973 625 981 559 981 C 509 981 467 977 435 971 C 403 965 377 956 359 944 C 339 931 326 916 318 899 C 310 881 307 862 307 840 C 307 813 311 791 321 773 C 330 755 345 741 366 729 C 386 717 412 706 444 698 C 476 690 516 682 563 674 C 633 661 696 648 753 635 C 809 621 858 603 898 579 C 938 555 968 523 990 484 C 1011 445 1022 394 1022 330 C 1022 264 1012 209 994 165 C 976 121 947 85 909 58 C 869 30 819 10 759 -2 C 699 -14 627 -20 543 -20 Z M 127 1591 L 322 1591 L 551 1384 L 781 1591 L 969 1591 L 656 1255 L 441 1255 L 127 1591 Z" unicode="š" />
<glyph horiz-adv-x="1419" d="M 284 1942 L 479 1942 L 708 1735 L 938 1942 L 1126 1942 L 813 1606 L 598 1606 L 284 1942 Z M 606 1319 L 49 1319 L 49 1518 L 1372 1518 L 1372 1319 L 815 1319 L 815 0 L 606 0 L 606 1319 Z" unicode="Ť" />
</font>
</defs>
</svg>
