<?xml version="1.0" standalone="no"?>
<!DOCTYPE svg PUBLIC "-//W3C//DTD SVG 1.1//EN" "http://www.w3.org/Graphics/SVG/1.1/DTD/svg11.dtd" >
<svg xmlns="http://www.w3.org/2000/svg">
<metadata></metadata>
<defs>
<font id="dinregular" horiz-adv-x="1710" >
<font-face units-per-em="2048" ascent="1638" descent="-410" />
<missing-glyph horiz-adv-x="814" />
<glyph horiz-adv-x="0" />
<glyph horiz-adv-x="682" />
<glyph unicode=" "  horiz-adv-x="814" />
<glyph unicode="&#x09;" horiz-adv-x="814" />
<glyph unicode="&#xa0;" horiz-adv-x="814" />
<glyph unicode="!" horiz-adv-x="1035" d="M426 0v275h281v-275h-281zM432 2333h272l-35 -1677h-203z" />
<glyph unicode="&#x22;" horiz-adv-x="1385" d="M288 1776v557h259v-557h-259zM838 1776v557h260v-557h-260z" />
<glyph unicode="#" horiz-adv-x="2139" d="M253 744v210h326l77 462h-302v216h331l112 704h245l-114 -704h520l112 704h238l-110 -704h285v-216h-315l-76 -462h292v-210h-324l-118 -744h-243l118 744h-525l-113 -744h-243l118 744h-291zM819 954h522l75 462h-522z" />
<glyph unicode="$" horiz-adv-x="1952" d="M138 288l171 171q129 -129 261 -187t302 -66v869l-66 7q-124 11 -236.5 60.5t-188.5 115.5q-181 161 -181 436q0 279 176.5 455t482.5 200v293h195v-293q187 -10 329.5 -69.5t280.5 -181.5l-160 -162q-100 90 -208 139t-251 58v-848l102 -16q162 -28 255.5 -64.5 t167.5 -100.5q96 -82 148 -200t52 -262q0 -188 -89 -332t-250 -226t-377 -97v-360h-195v354q-230 9 -399 81.5t-322 225.5zM446 1704q0 -179 104 -269q121 -99 322 -128v826q-202 -17 -314 -131t-112 -298zM1045 206q222 15 348.5 128t126.5 301q0 93 -29 168.5t-85 124.5 q-20 17 -42 31.5t-39.5 24.5t-45 18.5t-42 13.5t-47.5 10.5l-45 7.5t-50.5 7t-49.5 7v-842z" />
<glyph unicode="%" horiz-adv-x="2728" d="M213 1570v344q0 132 57 233t158 155.5t228 54.5q126 0 226 -54.5t158 -156t58 -232.5v-344q0 -131 -58 -231.5t-158 -154t-226 -53.5q-127 0 -228 54t-158 154t-57 231zM400 1576q0 -282 256 -282q130 0 192 73.5t62 208.5v331q0 136 -62.5 210.5t-191.5 74.5 q-256 0 -256 -285v-331zM722 0l1094 2333h195l-1094 -2333h-195zM1635 419v344q0 132 57 233.5t157 155.5t228 54q126 0 226.5 -54t158.5 -155.5t58 -233.5v-344q0 -131 -58 -232.5t-158.5 -155t-226.5 -53.5q-128 0 -228 53.5t-157 154.5t-57 233zM1822 426 q0 -285 255 -285q129 0 192.5 74.5t63.5 210.5v331q0 135 -63.5 210t-192.5 75q-255 0 -255 -285v-331z" />
<glyph unicode="&#x26;" horiz-adv-x="2420" d="M253 659q0 57 9.5 111t24 99t40.5 89.5t51.5 79.5t63.5 73.5t70 66.5t78.5 63t81 58.5t85.5 57.5q-37 44 -51.5 61.5t-48 61.5t-49.5 69.5t-40 69t-35 78.5t-20 79t-9 88q0 103 39 193.5t107 155t163.5 102t205.5 37.5q108 0 202 -38t161 -103t105.5 -156t38.5 -194 q0 -68 -19 -129t-55 -112t-80.5 -93t-102.5 -82q-119 -79 -175 -119l597 -716q72 109 100.5 224t30.5 310h236q-5 -462 -216 -715l356 -429h-310l-210 256q-295 -275 -689 -275q-168 0 -306 49t-232.5 137.5t-146 214.5t-51.5 277zM494 666q0 -138 62.5 -244t174.5 -164 t255 -58q145 0 278 49.5t274 176.5l-644 774q-4 -3 -13 -9q-56 -39 -84.5 -59t-77 -58t-74 -65.5t-59.5 -69t-50.5 -80.5t-29 -89t-12.5 -104zM750 1867q0 -78 44.5 -156.5t165.5 -225.5l125 85q48 33 79.5 59t64.5 62.5t49 79t16 90.5q0 118 -79 198t-196 80 q-119 0 -194 -76.5t-75 -195.5z" />
<glyph unicode="'" horiz-adv-x="835" d="M288 1776v557h259v-557h-259z" />
<glyph unicode="(" horiz-adv-x="976" d="M301 312v1710q0 101 14 182t55 156q9 18 19 34t23 34t21 29.5t25.5 31t24.5 27.5t29 30.5t28 28.5l33.5 33.5t32.5 33.5l160 -162l-26.5 -26.5l-27 -27t-23 -24t-24 -26t-20 -24t-21 -27.5t-17 -26.5t-17.5 -31.5q-52 -108 -52 -265v-1671q0 -157 52 -265 q8 -16 17.5 -31.5t17 -27t21 -27.5t20 -24t24 -26t23 -23.5l27 -27l26.5 -26.5l-160 -162l-18 18q-60 61 -89.5 91.5t-66 78t-62.5 95.5q-41 75 -55 156t-14 182z" />
<glyph unicode=")" horiz-adv-x="976" d="M203 -141q11 11 42.5 41.5t43 43t33 37t36 46t26.5 45.5q45 92 45 259v1671q0 167 -45 259q-12 24 -26.5 45.5t-36 45.5t-33 37t-43 43.5t-42.5 41.5l167 168q5 -6 32.5 -33.5l33.5 -33.5t28 -28.5t29 -30.5t24.5 -27.5t25.5 -31t21 -29.5t23 -34t19 -34 q41 -74 53.5 -153.5t12.5 -184.5v-1710q0 -105 -12.5 -184.5t-53.5 -153.5q-26 -48 -62.5 -95.5t-66 -78t-89.5 -91.5l-18 -18z" />
<glyph unicode="*" horiz-adv-x="1552" d="M219 1547l394 213l-394 216l96 157l379 -232l-12 448h190l-13 -448l383 232l92 -157l-393 -216l393 -213l-92 -161l-383 233l13 -449h-190l12 449l-379 -233z" />
<glyph unicode="+" d="M170 766v220h577v571h219v-571h575v-220h-575v-576h-219v576h-577z" />
<glyph unicode="," horiz-adv-x="864" d="M288 288h288v-501l-288 -259v760z" />
<glyph unicode="-" horiz-adv-x="1395" d="M250 773v221h897v-221h-897z" />
<glyph unicode="." horiz-adv-x="883" d="M288 0v309h309v-309h-309z" />
<glyph unicode="/" horiz-adv-x="1163" d="M0 -243l934 2819h232l-934 -2819h-232z" />
<glyph unicode="0" d="M216 622v1088q0 143 49 263.5t134.5 203t203.5 129t253 46.5t252.5 -46t203 -129t134 -203.5t48.5 -263.5v-1088q0 -142 -48.5 -262.5t-134 -203.5t-203 -129t-252.5 -46t-253 46t-203.5 129t-134.5 203.5t-49 262.5zM453 635q0 -129 46 -228.5t138 -158t218.5 -58.5 t218.5 58.5t138 158t46 228.5v1063q0 129 -46 228.5t-138 157.5t-218.5 58t-218.5 -58t-138 -157.5t-46 -228.5v-1063z" />
<glyph unicode="1" d="M410 1688v269l435 376h237v-2333h-237v2070z" />
<glyph unicode="2" d="M222 0v210l922 1169q68 89 99.5 170t31.5 174q0 192 -108 305.5t-298 113.5q-67 0 -125.5 -14.5t-110.5 -47.5t-89.5 -81t-59.5 -119.5t-22 -159.5h-236q0 136 46 253t128.5 200.5t203.5 131t265 47.5q191 0 336 -76.5t225 -219.5t80 -333q0 -135 -43 -239t-144 -233 l-816 -1041h1003v-210h-1288z" />
<glyph unicode="3" d="M138 594h235q5 -85 32.5 -154t69.5 -115.5t98.5 -78t118.5 -45.5t130 -14q95 0 177 31t143 87.5t95.5 142.5t34.5 190q0 218 -113 335.5t-346 117.5h-50v207h50q209 0 312.5 110t103.5 312q0 102 -32 183.5t-87 134t-128.5 80.5t-159.5 28q-183 0 -292.5 -103.5 t-126.5 -285.5h-237q10 139 64 252.5t141.5 189.5t203 117t247.5 41q189 0 335 -78.5t226.5 -223t80.5 -332.5q0 -375 -314 -517q357 -133 357 -571q0 -126 -34.5 -232.5t-96.5 -184t-148 -132.5t-188.5 -81.5t-217.5 -26.5q-111 0 -210 23t-183.5 72t-147 121t-100.5 174 t-43 226z" />
<glyph unicode="4" d="M131 370v214l842 1749h253l-842 -1749h678v661h232v-661h285v-214h-285v-370h-232v370h-931z" />
<glyph unicode="5" d="M229 550h237q45 -363 396 -363q87 0 162 28t126 79q35 35 60 81.5t38 89.5t20 101.5t8.5 100.5t1.5 103q0 65 -4 121t-15 115.5t-29 106.5t-48.5 90.5t-71 72t-98 45.5t-127.5 17q-149 0 -250.5 -62.5t-136.5 -168.5h-213v1226h1179v-210h-966v-741q69 78 176 120t243 42 q127 0 230 -39t173 -110q49 -49 85 -109.5t56.5 -119.5t32.5 -131t16 -132t4 -133q0 -79 -3.5 -139t-15 -131t-31.5 -127.5t-54.5 -115t-83.5 -107.5q-172 -172 -464 -172q-148 0 -269.5 44t-198.5 122q-146 152 -165 406z" />
<glyph unicode="6" d="M213 653q0 122 36 246.5t111 276.5l574 1157h242l-520 -1048q112 49 245 49q134 0 247.5 -49.5t192 -137t122.5 -210t44 -265.5q0 -148 -45.5 -275t-127.5 -219.5t-204 -144.5t-268 -52q-196 0 -343.5 83.5t-226.5 236t-79 352.5zM450 662q0 -214 111 -343t298 -129 t300 129.5t113 342.5q0 98 -27 183.5t-78 150t-130.5 101.5t-177.5 37q-187 0 -298 -128t-111 -344z" />
<glyph unicode="7" d="M250 1757v576h1294v-210l-810 -2123h-249l809 2123h-812v-366h-232z" />
<glyph unicode="8" d="M166 642q0 99 27 187t76 157.5t111 124.5t138 99q-144 83 -224.5 212t-80.5 304q0 135 48.5 251.5t134 198.5t204.5 129t256 47t256 -47t203.5 -129t133.5 -198.5t49 -251.5q0 -176 -79 -305t-222 -211q76 -44 137.5 -99t109.5 -125t74 -157.5t26 -186.5 q0 -145 -53.5 -269t-145.5 -209.5t-218.5 -134t-270.5 -48.5t-271 48.5t-219.5 134t-146 209.5t-53.5 269zM403 644.5q0 -127.5 59.5 -231.5t163.5 -163.5t230 -59.5t229.5 59.5t162.5 163.5t59 232t-59 232.5t-162.5 164t-229.5 59.5t-230 -59.5t-163.5 -164.5 t-59.5 -232.5zM450 1723q0 -184 113 -300t293 -116t292.5 115.5t112.5 300.5q0 121 -51 216.5t-143.5 149t-210.5 53.5t-211 -53.5t-144 -149t-51 -216.5z" />
<glyph unicode="9" d="M203 1661q0 148 45.5 275t128 219t204 144.5t267.5 52.5q196 0 343.5 -83t227 -235t79.5 -352q0 -122 -36 -248t-112 -277l-574 -1157h-245l523 1048q-108 -48 -248 -48q-134 0 -247 49.5t-191 136.5t-121.5 209.5t-43.5 265.5zM438 1670q0 -98 27 -182.5t77 -149 t129 -101.5t177 -37q188 0 300.5 127.5t112.5 342.5q0 214 -113 343t-300 129t-298.5 -128.5t-111.5 -343.5z" />
<glyph unicode=":" horiz-adv-x="972" d="M378 0v309h307v-309h-307zM378 986v308h307v-308h-307z" />
<glyph unicode=";" horiz-adv-x="972" d="M378 986v308h307v-308h-307zM384 288h288v-501l-288 -259v760z" />
<glyph unicode="&#x3c;" horiz-adv-x="3364" d="M181 882l1307 1307h307l-1195 -1192h2586v-231h-2586l1195 -1192h-307z" />
<glyph unicode="=" d="M170 494v216h1371v-216h-1371zM170 1048v221h1371v-221h-1371z" />
<glyph unicode="&#x3e;" horiz-adv-x="3364" d="M181 766v231h2585l-1196 1192h308l1308 -1307l-1308 -1308h-308l1196 1192h-2585z" />
<glyph unicode="?" horiz-adv-x="1627" d="M250 1754q0 123 46.5 233.5t128 190.5t196 127t245.5 47q127 0 240 -44t195 -121.5t129.5 -189t47.5 -240.5q0 -106 -37.5 -197.5t-110.5 -199.5l-268 -387q-28 -42 -43.5 -95t-15.5 -96v-126h-237v131q0 93 24.5 162t78.5 145l265 384q56 81 82 141.5t26 137.5 q0 108 -48 196t-134.5 138.5t-193.5 50.5q-85 0 -157.5 -31.5t-121 -85t-75.5 -124t-27 -147.5h-235zM744 0v275h282v-275h-282z" />
<glyph unicode="@" horiz-adv-x="2336" d="M235 525v1101q0 339 184 528q178 182 506 182h485q321 0 504 -182q187 -188 187 -528v-1629l-227 3v181q-83 -105 -187 -154t-252 -49q-138 0 -254.5 52t-191.5 148q-82 100 -113 235.5t-31 365.5q0 222 30 362t104 238q71 96 190.5 149.5t262.5 53.5q141 0 247 -50.5 t191 -155.5v256q0 132 -28 216t-98 157q-131 131 -365 131h-425q-117 0 -202 -30.5t-155 -100.5q-74 -74 -102.5 -156t-28.5 -217v-1104q0 -106 16 -171.5t54.5 -116.5t116.5 -109l-162 -160q-103 76 -156.5 146.5t-76.5 164.5t-23 243zM1078 779q0 -71 4 -129.5t15 -121.5 t29 -112.5t48.5 -94.5t71.5 -75t99 -47.5t130 -17.5t130 17.5t99 47.5t71 75.5t48 94.5t29 112t14.5 121.5t3.5 129.5t-3.5 129.5t-14.5 122t-29 113t-48 95t-71 75.5t-99 47.5t-130 17.5t-130 -17.5t-99 -47.5t-71.5 -75.5t-48.5 -95t-29 -113t-15 -122t-4 -129.5z" />
<glyph unicode="A" horiz-adv-x="2001" d="M40 0l858 2333h209l856 -2333h-265l-188 528h-1019l-187 -528h-264zM566 744h872l-432 1232z" />
<glyph unicode="B" horiz-adv-x="2188" d="M338 0v2333h878q152 0 279 -43t217.5 -122t141 -196t50.5 -262q0 -180 -96 -317t-248 -193q173 -63 276 -207.5t103 -347.5q0 -156 -50 -278.5t-142 -202.5t-219.5 -122t-282.5 -42h-907zM587 222h635q216 0 342.5 117t126.5 314q0 196 -126 310.5t-343 114.5h-635v-856z M587 1301h610q99 0 181 24.5t144.5 73.5t97 127.5t34.5 180.5t-34.5 180t-97 126.5t-144.5 72.5t-181 24h-610v-809z" />
<glyph unicode="C" horiz-adv-x="2086" d="M250 991v175.5v175.5t3 148t8.5 136.5t15.5 113t26 108t39 90.5t54.5 91t72.5 81q117 118 271 180t326 62q209 0 377.5 -81.5t280 -239t150.5 -373.5h-255q-47 217 -193 344.5t-360 127.5q-117 0 -223 -42.5t-181 -121.5q-37 -38 -63 -76.5t-44.5 -90t-29.5 -105.5 t-17.5 -138t-8 -170.5t-1.5 -219t2 -219.5t8 -170.5t17 -137.5t29.5 -106t44.5 -90t63 -77q75 -78 181 -120.5t223 -42.5q215 0 363.5 128t196.5 344h248q-37 -216 -150 -373.5t-282 -239t-376 -81.5q-172 0 -326 62t-271 179q-41 41 -72.5 81.5t-54.5 91.5t-39 90.5 t-26 107.5t-15.5 113t-8.5 137t-3 148z" />
<glyph unicode="D" horiz-adv-x="2204" d="M338 0v2333h800q182 0 332.5 -55.5t255.5 -160.5q38 -38 69 -82t54 -85.5t40.5 -95t28.5 -95.5t19 -103.5t12 -101.5t6 -107t2 -103v-106v-46v-46v-109.5t-2 -108.5t-6 -114t-12 -109t-19 -111.5t-28.5 -103t-40.5 -101.5t-54 -89.5t-69 -83.5q-105 -106 -255.5 -161 t-332.5 -55h-800zM587 222h507q293 0 460 172q28 29 50.5 66t38 83.5t27.5 88.5t18.5 102t10.5 102.5t6 110.5t2 105.5v107.5v31.5v32.5v92.5t-1.5 89t-4 91t-7.5 85t-12.5 85t-19.5 76.5t-27 74t-35.5 63.5t-45.5 58.5q-167 171 -460 171h-507v-1888z" />
<glyph unicode="E" horiz-adv-x="1964" d="M338 0v2333h1448v-223h-1199v-822h1023v-222h-1023v-844h1199v-222h-1448z" />
<glyph unicode="F" horiz-adv-x="1899" d="M338 0v2333h1448v-223h-1199v-859h1023v-222h-1023v-1029h-249z" />
<glyph unicode="G" horiz-adv-x="2129" d="M250 991v175.5v175.5t3 148t8.5 136.5t15.5 113t26 108t39 90.5t54.5 91t72.5 81q118 118 270.5 180t326.5 62q164 0 305 -51.5t244.5 -144t172 -220.5t94.5 -282h-250q-49 222 -199 349t-367 127q-116 0 -222 -44t-182 -123q-37 -38 -63 -76t-44.5 -89.5t-29.5 -105 t-17.5 -137t-8 -170t-1.5 -219t1.5 -219.5t8 -170.5t17.5 -137.5t29.5 -106t44.5 -90t63 -77q75 -78 181 -120.5t223 -42.5q129 0 245 51.5t196 148.5q70 86 100.5 185.5t30.5 237.5v177h-572v219h822v-371q0 -203 -46.5 -345t-153.5 -256q-121 -133 -281 -201t-341 -68 q-172 0 -326 62t-271 179q-41 41 -72.5 81.5t-54.5 91.5t-39 90.5t-26 107.5t-15.5 113t-8.5 137t-3 148z" />
<glyph unicode="H" horiz-adv-x="2280" d="M338 0v2333h249v-1045h1107v1045h248v-2333h-248v1066h-1107v-1066h-249z" />
<glyph unicode="I" horiz-adv-x="923" d="M338 0v2333h249v-2333h-249z" />
<glyph unicode="J" horiz-adv-x="1641" d="M75 190l168 167q37 -37 67.5 -61t74 -47t99.5 -34.5t126 -11.5q228 0 353 140t125 398v1592h250v-1626q0 -166 -54 -302.5t-150.5 -229.5t-231 -143.5t-292.5 -50.5q-167 0 -297 50.5t-238 158.5z" />
<glyph unicode="K" horiz-adv-x="2129" d="M338 0v2333h249v-1339l1088 1339h304l-734 -901l840 -1432h-296l-711 1242l-491 -589v-653h-249z" />
<glyph unicode="L" horiz-adv-x="1876" d="M338 0v2333h249v-2111h1192v-222h-1441z" />
<glyph unicode="M" horiz-adv-x="2673" d="M338 0v2333h249l760 -1655l741 1655h248v-2333h-248v1773l-640 -1407h-213l-648 1407v-1773h-249z" />
<glyph unicode="N" horiz-adv-x="2398" d="M338 0v2333h235l1240 -1864v1864h248v-2333h-235l-1239 1870v-1870h-249z" />
<glyph unicode="O" horiz-adv-x="2129" d="M250 991v175.5v175.5t3 148t8.5 136.5t15.5 113t26 108t39 90.5t54.5 91t72.5 81q118 118 270.5 180t326 62t325.5 -62t270 -180q47 -46 81.5 -97t58 -97t39 -116t24 -121.5t12.5 -149.5t5 -164t1 -199t-1 -198.5t-5 -164t-12.5 -149.5t-24 -121.5t-39 -116t-58 -96.5 t-81.5 -98q-118 -118 -270 -179.5t-325.5 -61.5t-326 62t-270.5 179q-41 41 -72.5 81.5t-54.5 91.5t-39 90.5t-26 107.5t-15.5 113t-8.5 137t-3 148zM498 1166.5q0 -132.5 2 -219t8 -170t17 -137t29.5 -105t44.5 -89.5t63 -76q76 -79 182 -123t221.5 -44t221.5 44t182 123 q37 38 63 76t44.5 89.5t29 104.5t16.5 137.5t8 170t2 219t-2 219t-8 170t-16.5 137t-29 104.5t-44.5 90t-63 76q-76 79 -182 123t-221.5 44t-221.5 -44t-182 -123q-37 -38 -63 -76t-44.5 -89.5t-29.5 -105t-17.5 -137t-8 -170t-1.5 -219z" />
<glyph unicode="P" horiz-adv-x="2064" d="M338 0v2333h868q159 0 292.5 -48.5t228 -136.5t147 -216.5t52.5 -283.5t-52.5 -284t-147 -217.5t-228 -137.5t-292.5 -49h-619v-960h-249zM587 1182h595q110 0 200.5 30t157 87t102.5 146t36 203t-36 202.5t-102.5 145t-156.5 85.5t-201 29h-595v-928z" />
<glyph unicode="Q" horiz-adv-x="2126" d="M250 991v175.5v175.5t3 148t8.5 136.5t15.5 113t26 108t39 90.5t54.5 91t72.5 81q118 118 270.5 180t326 62t325.5 -62t270 -180q47 -46 81.5 -97t58 -97t39 -116t24 -121.5t12.5 -149.5t5 -164t1 -199q0 -93 -0.5 -142t-2 -124t-4.5 -115.5t-8.5 -99.5t-13.5 -94.5 t-20 -81.5t-28 -79.5t-37 -69.5t-48 -69l256 -254l-150 -152l-260 259q-211 -163 -500 -163q-174 0 -326.5 62t-270.5 179q-41 41 -72.5 81.5t-54.5 91.5t-39 90.5t-26 107.5t-15.5 113t-8.5 137t-3 148zM498 1166.5q0 -132.5 1.5 -219t8 -170t17.5 -137t29.5 -105 t44.5 -89.5t63 -76q76 -79 182 -123t222 -44q182 0 329 112l-294 295l150 150l287 -285q59 97 76.5 242t17.5 449q0 134 -2 219.5t-8 170t-16.5 137t-29 104.5t-44.5 90t-63 76q-76 79 -182 123t-221.5 44t-221.5 -44t-182 -123q-37 -38 -63 -76t-44.5 -89.5t-29.5 -105 t-17.5 -137t-8 -170t-1.5 -219z" />
<glyph unicode="R" horiz-adv-x="2148" d="M338 0v2333h894q152 0 279.5 -45t218.5 -127.5t142 -204.5t51 -271q0 -126 -37 -232.5t-104 -185t-160 -131.5t-206 -77l554 -1059h-292l-531 1035h-560v-1035h-249zM587 1254h623q102 0 187 27.5t147 79.5t96.5 134t34.5 187q0 139 -60 236.5t-163.5 144.5t-241.5 47 h-623v-856z" />
<glyph unicode="S" horiz-adv-x="1926" d="M138 288l171 171q142 -142 287.5 -199t347.5 -57q257 0 403.5 114.5t146.5 317.5q0 93 -28 169t-83.5 124t-115 69.5t-189.5 40.5l-272 44q-276 43 -428 176q-178 158 -178 436q0 148 52 270.5t148 208t236 132.5t311 47q223 0 383.5 -59t311.5 -195l-160 -162 q-113 103 -239.5 151.5t-304.5 48.5q-231 0 -361.5 -117.5t-130.5 -314.5q0 -179 104 -269q53 -46 137.5 -79.5t178.5 -48.5l254 -38q160 -24 256 -61.5t171 -103.5q96 -82 146.5 -200t50.5 -262q0 -203 -100.5 -353t-282.5 -229t-423 -79q-263 0 -449.5 71.5t-350.5 235.5z " />
<glyph unicode="T" horiz-adv-x="1795" d="M98 2110v223h1600v-223h-676v-2110h-249v2110h-675z" />
<glyph unicode="U" horiz-adv-x="2236" d="M304 770v1563h250v-1543q0 -175 69 -308t197 -206t297 -73t298 73t199.5 206t70.5 308v1543h248v-1563q0 -172 -61.5 -319.5t-169.5 -250.5t-259 -161t-326 -58t-326 58t-258 161t-168 250.5t-61 319.5z" />
<glyph unicode="V" horiz-adv-x="1788" d="M26 2333h262l606 -1887l607 1887h262l-766 -2333h-203z" />
<glyph unicode="W" horiz-adv-x="2796" d="M53 2333h265l455 -1880l515 1880h222l516 -1880l454 1880h266l-597 -2333h-232l-519 1867l-516 -1867h-232z" />
<glyph unicode="X" horiz-adv-x="1804" d="M50 0l713 1197l-669 1136h290l517 -920l518 920h288l-672 -1136l722 -1197h-288l-568 979l-570 -979h-281z" />
<glyph unicode="Y" horiz-adv-x="1683" d="M26 2333h268l551 -1117l544 1117h269l-688 -1370v-963h-248v963z" />
<glyph unicode="Z" horiz-adv-x="1820" d="M187 0v235l1167 1875h-1122v223h1403v-210l-1176 -1901h1176v-222h-1448z" />
<glyph unicode="[" horiz-adv-x="1025" d="M301 -243v2819h581v-210h-344v-2398h344v-211h-581z" />
<glyph unicode="\" horiz-adv-x="1163" d="M0 2566h232l931 -2809h-232z" />
<glyph unicode="]" horiz-adv-x="1025" d="M144 -40h354v2413h-354v203h581v-2819h-581v203z" />
<glyph unicode="^" horiz-adv-x="1758" d="M235 1354l538 998h216l534 -998h-241l-400 747l-404 -747h-243z" />
<glyph unicode="_" horiz-adv-x="1758" d="M0 -373h1760v-168h-1760v168z" />
<glyph unicode="`" horiz-adv-x="1638" d="M410 2448h281l288 -501h-216z" />
<glyph unicode="a" horiz-adv-x="1723" d="M166 456q0 214 146.5 339t412.5 125h485v155q0 180 -98 267t-315 87q-154 0 -244.5 -41.5t-162.5 -142.5l-161 147q104 136 235 188t336 52q322 0 483.5 -136.5t161.5 -401.5v-1094h-235v154q-98 -98 -200.5 -135.5t-265.5 -37.5q-168 0 -274.5 34t-181.5 113 q-58 58 -90 144.5t-32 183.5zM397 459q0 -141 89 -208t280 -67q60 0 102.5 3.5t91 13.5t90.5 32.5t78 57.5q82 77 82 279v174h-453q-360 0 -360 -285z" />
<glyph unicode="b" horiz-adv-x="1785" d="M294 0v2333h237v-907q93 117 201 161.5t254 44.5q120 0 224 -38t169 -103q59 -59 99.5 -138.5t61 -172t28.5 -181.5t8 -193t-8 -192.5t-28.5 -181t-61 -172.5t-99.5 -138q-65 -65 -169 -103t-224 -38q-145 0 -253.5 46t-201.5 167v-194h-237zM531 806q0 -73 4 -133.5 t15.5 -125.5t30 -115.5t50 -97t73 -77.5t101 -49t133 -18t132.5 18t100.5 48.5t72.5 77.5t49.5 97.5t29.5 115.5t15 125.5t4 134t-4 134t-15 125.5t-29.5 115.5t-49.5 97t-72.5 77t-100.5 48.5t-132.5 18t-133 -18t-101 -48.5t-73 -77t-50 -97t-30 -115.5t-15.5 -126 t-4 -134z" />
<glyph unicode="c" horiz-adv-x="1604" d="M206 806q0 162 35.5 297t99 232t152.5 164.5t196.5 100t230.5 32.5q169 0 288.5 -53t242.5 -187l-160 -150q-91 100 -173.5 140t-197.5 40q-118 0 -214 -46.5t-159 -137.5q-56 -79 -80.5 -179t-24.5 -253q0 -152 24.5 -253t80.5 -180q63 -90 158.5 -136.5t214.5 -46.5 q115 0 197.5 41t173.5 142l160 -154q-123 -133 -242 -185.5t-289 -52.5q-123 0 -230.5 32.5t-196.5 100t-152.5 164.5t-99 231.5t-35.5 296.5z" />
<glyph unicode="d" horiz-adv-x="1785" d="M210 806q0 104 8 193t28.5 181.5t61 172t98.5 138.5q65 65 169.5 103t224.5 38q145 0 253.5 -44.5t200.5 -161.5v907h237v-2333h-233v194q-93 -120 -203 -166.5t-255 -46.5q-120 0 -224.5 38t-169.5 103q-58 58 -98.5 138t-61 172.5t-28.5 181t-8 192.5zM446 806.5 q0 -73.5 4 -134t15.5 -125.5t30 -115.5t49.5 -97.5t72.5 -77.5t101 -48.5t133 -18t132.5 18t100.5 48.5t72.5 77.5t49.5 97.5t29.5 115.5t14.5 125.5t3.5 134t-3.5 134t-14.5 125.5t-29.5 115.5t-49.5 97t-72.5 77t-100.5 48.5t-132.5 18t-133 -18t-101 -48.5t-72.5 -77 t-49.5 -97t-30 -115.5t-15.5 -125.5t-4 -134z" />
<glyph unicode="e" horiz-adv-x="1736" d="M206 806q0 390 177 608t486 218q205 0 355 -95.5t228 -271t78 -414.5v-107h-1088q0 -267 122 -412t353 -145q137 0 231 42t193 141l160 -141q-87 -87 -166 -138.5t-184.5 -80.5t-240.5 -29q-161 0 -289.5 49.5t-221.5 149t-143 258.5t-50 368zM442 920h852 q-5 103 -14 154t-35 115q-47 111 -148.5 177t-228 66t-228.5 -66t-149 -177q-26 -64 -35 -115t-14 -154z" />
<glyph unicode="f" horiz-adv-x="1028" d="M141 1422v180h206v305q0 91 26 169t75.5 137t128.5 92.5t180 33.5h171v-203h-128q-216 0 -216 -235v-299h344v-180h-344v-1422h-237v1422h-206z" />
<glyph unicode="g" horiz-adv-x="1779" d="M210 819q0 106 8.5 195t29.5 178t60.5 165t97.5 134q65 65 169.5 103t224.5 38q145 0 251.5 -45t199.5 -165v191h234v-1663q0 -149 -46 -276t-131 -219t-212.5 -144t-282.5 -52q-178 0 -297 49t-250 167l153 152q50 -44 85.5 -70t81.5 -49t99 -32.5t121 -9.5q92 0 166 25 t125 69.5t85.5 107t50 135.5t15.5 157v253q-93 -118 -201 -164t-250 -46q-119 0 -222 39.5t-169 104.5q-58 58 -97.5 134t-60.5 165.5t-29.5 178t-8.5 194.5zM446 819.5q0 -70.5 4 -129t15 -122t29 -113.5t49 -96t72 -76.5t100.5 -48.5t132.5 -18t132 18t100.5 48.5t72 77 t48.5 96t29 113.5t14.5 122t3.5 128.5t-3.5 128.5t-14.5 122t-29 113.5t-48.5 96t-72 76.5t-100.5 48t-132 18t-132.5 -18t-100.5 -48t-72 -76.5t-49 -96t-29 -113.5t-15 -122t-4 -128.5z" />
<glyph unicode="h" horiz-adv-x="1840" d="M294 0v2333h237v-898q174 197 451 197q180 0 311.5 -73.5t200.5 -208t69 -315.5v-1035h-237v997q0 208 -103 316.5t-289 108.5t-294.5 -110t-108.5 -315v-997h-237z" />
<glyph unicode="i" horiz-adv-x="828" d="M282 2070v266h265v-266h-265zM294 0v1613h237v-1613h-237z" />
<glyph unicode="j" horiz-adv-x="828" d="M-50 -518h128q119 0 167.5 57t48.5 179v1884h237v-1893q0 -94 -24.5 -172t-74 -137t-128.5 -92t-182 -33h-172v207zM282 2070v266h265v-266h-265z" />
<glyph unicode="k" horiz-adv-x="1755" d="M294 0v2333h237v-1560l727 840h296l-548 -616l642 -997h-291l-512 826l-314 -360v-466h-237z" />
<glyph unicode="l" horiz-adv-x="972" d="M288 429v1904h237v-1895q0 -121 48.5 -178t167.5 -57h128v-203h-171q-104 0 -183 32t-128 90t-74 135.5t-25 171.5z" />
<glyph unicode="m" horiz-adv-x="2880" d="M294 0v1613h237v-178q86 98 202 147.5t253 49.5q168 0 295.5 -68.5t200.5 -200.5q188 269 529 269q129 0 236.5 -39.5t181.5 -110.5q173 -168 173 -450v-1032h-236v994q0 209 -105 318.5t-291 109.5q-181 0 -292.5 -107t-111.5 -296v-1019h-236v994q0 209 -105 318.5 t-291 109.5t-294.5 -110.5t-108.5 -317.5v-994h-237z" />
<glyph unicode="n" horiz-adv-x="1840" d="M294 0v1613h237v-178q173 197 451 197q263 0 413 -150q168 -164 168 -450v-1032h-237v994q0 209 -104.5 318.5t-290.5 109.5t-293 -110.5t-107 -317.5v-994h-237z" />
<glyph unicode="o" horiz-adv-x="1736" d="M210 806.5q0 101.5 8 183.5t28.5 166.5t60.5 158t99 133.5q184 184 463 184q277 0 461 -184q59 -60 99 -133.5t60.5 -158t28.5 -166.5t8 -183.5t-8 -184t-28.5 -167t-60.5 -158t-99 -134.5q-183 -182 -461 -182q-280 0 -463 182q-59 61 -99 134.5t-60.5 158t-28.5 167 t-8 184zM446 806.5q0 -80.5 4 -140t16.5 -130t40 -128t69.5 -99.5q118 -119 293 -119q86 0 161.5 31t132.5 88q34 34 58.5 80.5t38 92.5t21 106.5t9 107t1.5 110.5t-1.5 111t-9 107.5t-21 106t-38 92.5t-58.5 81q-57 57 -132.5 87.5t-161.5 30.5q-175 0 -293 -118 q-42 -42 -69.5 -99.5t-40 -128t-16.5 -130t-4 -140z" />
<glyph unicode="p" horiz-adv-x="1785" d="M294 -722v2335h237v-191q93 120 201 165t254 45q120 0 224 -38t169 -103q59 -59 99.5 -138.5t61 -172t28.5 -181.5t8 -193t-8 -192.5t-28.5 -181t-61 -172.5t-99.5 -138q-65 -65 -169 -103t-224 -38q-144 0 -253 45.5t-202 163.5v-912h-237zM531 806q0 -73 4 -133.5 t15.5 -125.5t30 -115.5t50 -97t73 -77.5t101 -49t133 -18t132.5 18t100.5 48.5t72.5 77.5t49.5 97.5t29.5 115.5t15 125.5t4 134t-4 134t-15 125.5t-29.5 115.5t-49.5 97t-72.5 77t-100.5 48.5t-132.5 18t-133 -18t-101 -48.5t-73 -77t-50 -97t-30 -115.5t-15.5 -126 t-4 -134z" />
<glyph unicode="q" horiz-adv-x="1785" d="M210 806q0 104 8 193t28.5 181.5t61 172t98.5 138.5q65 65 169.5 103t224.5 38q146 0 255.5 -45t202.5 -165v191h233v-2335h-237v912q-93 -118 -201.5 -163.5t-252.5 -45.5q-120 0 -224.5 38t-169.5 103q-58 58 -98.5 138t-61 172.5t-28.5 181t-8 192.5zM446 806.5 q0 -73.5 4 -134t15.5 -125.5t30 -115.5t49.5 -97.5t72.5 -77.5t101 -48.5t133 -18t132.5 18t100.5 48.5t72.5 77.5t49.5 97.5t29.5 115.5t14.5 125.5t3.5 134t-3.5 134t-14.5 125.5t-29.5 115.5t-49.5 97t-72.5 77t-100.5 48.5t-132.5 18t-133 -18t-101 -48.5t-72.5 -77 t-49.5 -97t-30 -115.5t-15.5 -125.5t-4 -134z" />
<glyph unicode="r" horiz-adv-x="1379" d="M294 0v1613h237v-197q66 100 188 158t263 58q121 0 212.5 -33.5t175.5 -116.5l-173 -178q-67 67 -127.5 92.5t-152.5 25.5q-115 0 -203.5 -57t-135.5 -155t-47 -221v-989h-237z" />
<glyph unicode="s" horiz-adv-x="1624" d="M141 213l157 157q176 -186 502 -186q203 0 316 72.5t113 212.5q0 107 -65 165t-204 70l-266 24q-481 39 -481 432q0 144 76.5 252t210.5 164t306 56q176 0 325 -43.5t255 -130.5l-154 -154q-168 128 -429 128q-174 0 -267.5 -70.5t-93.5 -195.5q0 -106 67 -164.5 t216 -70.5l257 -24q88 -8 158.5 -26t130.5 -51.5t100.5 -81.5t63.5 -118t23 -158q0 -153 -82.5 -265t-229.5 -169t-343 -57q-211 0 -372 54t-290 178z" />
<glyph unicode="t" horiz-adv-x="1086" d="M131 1422v180h203v505h236v-505h344v-180h-344v-984q0 -112 55 -173.5t165 -61.5h124v-203h-167q-100 0 -180 33.5t-130 92.5t-76.5 137t-26.5 169v990h-203z" />
<glyph unicode="u" horiz-adv-x="1840" d="M278 584v1029h237v-994q0 -210 103.5 -319.5t288.5 -109.5q187 0 295 111t108 318v994h237v-1613h-233v181q-87 -98 -203 -149t-252 -51q-130 0 -237 38.5t-180 111.5q-164 159 -164 453z" />
<glyph unicode="v" horiz-adv-x="1464" d="M37 1613h254l440 -1295l442 1295h256l-594 -1613h-209z" />
<glyph unicode="w" horiz-adv-x="2371" d="M37 1613h254l371 -1295l423 1295h203l426 -1295l366 1295h256l-507 -1613h-219l-424 1251l-420 -1251h-219z" />
<glyph unicode="x" horiz-adv-x="1564" d="M109 0l547 822l-525 791h285l371 -597l363 597h285l-525 -791l548 -822h-285l-386 626l-393 -626h-285z" />
<glyph unicode="y" horiz-adv-x="1464" d="M37 1613h254l443 -1295l439 1295h256l-735 -2003q-44 -124 -115 -189q-116 -112 -313 -112h-103v209h72q62 0 103 10t71.5 35.5t50.5 61t41 93.5l115 314z" />
<glyph unicode="z" horiz-adv-x="1504" d="M163 0v203l899 1200h-849v210h1121v-200l-902 -1203h902v-210h-1171z" />
<glyph unicode="{" horiz-adv-x="1158" d="M157 1062v210h86q45 0 83.5 16t63.5 42q60 59 60 196v628q0 126 21.5 197.5t75.5 125.5q52 52 130.5 75.5t200.5 23.5h122v-210h-75q-86 0 -128 -9.5t-66 -33.5q-27 -27 -36.5 -74t-9.5 -139v-616q0 -68 -14.5 -121t-43 -91t-64 -65t-85.5 -51q50 -23 85.5 -50t64 -65 t43 -91t14.5 -122v-616q0 -91 9.5 -138.5t36.5 -73.5q24 -24 65.5 -33t128.5 -9h75v-211h-122q-122 0 -200.5 23.5t-130.5 75.5q-54 54 -75.5 126t-21.5 199v625q0 138 -60 197q-26 26 -64.5 42.5t-82.5 16.5h-86z" />
<glyph unicode="|" horiz-adv-x="1067" d="M416 -243v2819h237v-2819h-237z" />
<glyph unicode="}" horiz-adv-x="1158" d="M157 -32h78q86 0 126.5 9t64.5 33q27 27 38 75t11 137v616q0 69 14.5 122t43 91t64 65t85.5 50q-50 24 -85.5 51t-64 65t-43 91t-14.5 121v616q0 90 -11 138t-38 75q-25 25 -65.5 34t-125.5 9h-78v210h125q122 0 200.5 -23.5t130.5 -75.5q54 -54 75.5 -125.5t21.5 -197.5 v-628q0 -137 60 -196q25 -26 63.5 -42t83.5 -16h83v-210h-83q-44 0 -82.5 -16.5t-64.5 -42.5q-60 -59 -60 -197v-625q0 -127 -21.5 -199t-75.5 -126q-52 -52 -130.5 -75.5t-200.5 -23.5h-125v211z" />
<glyph unicode="~" horiz-adv-x="1764" d="M160 869q92 92 160.5 140t127 65t136.5 17q54 0 116.5 -16t105 -33t122.5 -53q58 -28 89.5 -41t77.5 -25.5t87 -12.5q73 0 128.5 28.5t147.5 120.5l148 -149q-91 -91 -160 -139.5t-127.5 -65.5t-136.5 -17q-54 0 -116.5 15.5t-107.5 33.5t-123 53q-57 27 -89.5 41 t-78.5 26t-88 12q-73 0 -128 -28t-147 -119z" />
<glyph unicode="&#xa1;" horiz-adv-x="1035" d="M325 1338v275h281v-275h-281zM331 -722l32 1679h203l37 -1679h-272z" />
<glyph unicode="&#xa2;" horiz-adv-x="1630" d="M206 1200q0 175 42.5 319t120 246.5t187 166.5t244.5 84v317h194v-311q145 -9 253.5 -64.5t221.5 -178.5l-162 -150q-81 91 -155 131.5t-173 47.5v-1218q99 8 173 48t155 132l162 -151q-113 -122 -221.5 -177t-253.5 -64v-378h-194v384q-135 20 -244.5 84t-187 166.5 t-120 246.5t-42.5 319zM442 1200q0 -151 25.5 -252t82.5 -182q102 -141 263 -169v1205q-161 -29 -263 -170q-57 -80 -82.5 -181t-25.5 -251z" />
<glyph unicode="&#xa3;" horiz-adv-x="1795" d="M154 1082v176h206v368q0 165 54.5 302t151.5 229.5t231.5 143.5t293.5 51q167 0 297 -51t238 -159l-172 -166q-37 37 -66.5 60.5t-72.5 47t-98.5 35t-125.5 11.5q-228 0 -353 -140t-125 -398v-334h478v-176h-478v-860h1013v-222h-1266v1082h-206z" />
<glyph unicode="&#xa4;" horiz-adv-x="2161" d="M256 213l242 243q-68 92 -106 202.5t-38 229.5t38 229.5t106 202.5l-242 240l150 150l244 -238q90 67 200.5 104t231.5 37q239 0 428 -141l247 238l150 -150l-243 -240q144 -194 144 -432t-144 -432l243 -243l-150 -151l-247 242q-193 -144 -428 -144q-120 0 -230.5 38 t-201.5 106l-244 -242zM570 888q0 -104 40.5 -198.5t109 -162.5t163.5 -108.5t198.5 -40.5t197.5 40t162 108.5t108 163t40 198.5t-40 198t-108 161.5t-162 107.5t-197.5 40t-198.5 -40t-163.5 -107.5t-109 -161.5t-40.5 -198z" />
<glyph unicode="&#xa5;" horiz-adv-x="1683" d="M26 2333h268l551 -1117l547 1117h266l-514 -1019h328v-176h-418l-84 -175v-169h502v-181h-502v-613h-252v613h-505v181h505v169l-86 175h-419v176h328z" />
<glyph unicode="&#xa6;" horiz-adv-x="1097" d="M416 -243v1147h237v-1147h-237zM416 1429v1147h237v-1147h-237z" />
<glyph unicode="&#xa7;" horiz-adv-x="1824" d="M285 826q0 97 28 184.5t77.5 154t109.5 116t129 82.5q-73 33 -127 73.5t-95 94.5t-61.5 125.5t-20.5 159.5q0 157 75 279.5t209 189.5t305 67q170 0 302.5 -61.5t210 -178.5t83.5 -274h-235q-22 304 -361 304q-167 0 -260.5 -82.5t-93.5 -240.5q0 -237 275 -315l256 -72 q213 -61 331.5 -219.5t118.5 -380.5q0 -97 -28.5 -184.5t-77.5 -154t-108 -116.5t-127 -83q145 -53 231 -175t86 -297q0 -125 -47 -231t-128 -178.5t-192 -113t-236 -40.5q-99 0 -188 21t-165.5 64.5t-133.5 105.5t-92 148t-41 189h240q15 -151 114.5 -231.5t265.5 -80.5 q168 0 266 91t98 253q0 115 -76.5 205.5t-212.5 129.5l-255 72q-215 61 -332 218t-117 382zM525 829q0 -183 107 -301q108 -118 282 -118q85 0 158 30.5t125 87.5t78 128t26 173q0 100 -23 172t-81 130q-117 117 -283 117q-175 0 -282 -117q-57 -61 -82 -131.5t-25 -170.5z " />
<glyph unicode="&#xa8;" horiz-adv-x="1638" d="M354 1973v291h236v-291h-236zM1048 1973v291h237v-291h-237z" />
<glyph unicode="&#xa9;" horiz-adv-x="2886" d="M256 1166.5q0 161.5 42.5 315.5t119 284t185.5 239t239 185.5t284 119t315.5 42.5t315.5 -42.5t284 -119t239.5 -185.5t185.5 -239t118.5 -284t42.5 -315.5t-42.5 -315.5t-118.5 -284t-185.5 -239.5t-239.5 -185.5t-284 -118.5t-315.5 -42.5t-315.5 42.5t-284 118.5 t-239 185.5t-185.5 239.5t-119 284t-42.5 315.5zM450 1166.5q0 -136.5 35.5 -267t99 -241t155 -204t200 -159t237.5 -102t264.5 -36.5t265 36.5t238.5 102t201 159t156.5 204t100 241t35.5 267t-35.5 267t-100 241t-156.5 204t-201 159t-238.5 102t-265 36.5t-264.5 -36.5 t-237.5 -102t-200 -159t-155 -204t-99 -241t-35.5 -267zM875 1166.5q0 144.5 38 266.5t110 211.5t183.5 140t251.5 50.5q133 0 229 -40.5t201 -133.5l-118 -117q-82 70 -151.5 98t-160.5 28q-87 0 -155.5 -26t-114 -71.5t-75 -110t-42 -137.5t-12.5 -158.5t12.5 -158 t42 -137t75 -109.5t114 -70.5t155.5 -25.5q92 0 161.5 27t150.5 97l118 -118q-100 -90 -198.5 -130.5t-231.5 -40.5q-140 0 -251.5 50t-183.5 139t-110 210.5t-38 266z" />
<glyph unicode="&#xaa;" horiz-adv-x="1470" d="M184 1406q0 172 115.5 272.5t326.5 100.5h377v119q0 141 -74 208t-244 67q-121 0 -192 -31.5t-130 -112.5l-134 120q86 109 192.5 153t266.5 44q255 0 382 -110.5t127 -321.5v-869h-191v118q-75 -73 -157.5 -103.5t-206.5 -30.5q-131 0 -214.5 28t-145.5 90 q-47 49 -72.5 116.5t-25.5 142.5zM378 1413q0 -109 67.5 -161t213.5 -52q99 0 163.5 15t118.5 67q62 57 62 219v131h-350q-275 0 -275 -219z" />
<glyph unicode="&#xab;" horiz-adv-x="1814" d="M131 878l688 688v-294l-393 -394l393 -396v-292zM872 878l688 688v-294l-397 -394l397 -396v-292z" />
<glyph unicode="&#xac;" d="M166 787v219h1378v-668h-221v449h-1157z" />
<glyph unicode="&#xad;" horiz-adv-x="1395" d="M250 773v221h897v-221h-897z" />
<glyph unicode="&#xae;" horiz-adv-x="2886" d="M256 1166.5q0 161.5 42.5 315.5t119 284t185.5 239t239 185.5t284 119t315.5 42.5t315.5 -42.5t284 -119t239.5 -185.5t185.5 -239t118.5 -284t42.5 -315.5t-42.5 -315.5t-118.5 -284t-185.5 -239.5t-239.5 -185.5t-284 -118.5t-315.5 -42.5t-315.5 42.5t-284 118.5 t-239 185.5t-185.5 239.5t-119 284t-42.5 315.5zM446 1166.5q0 -137.5 36 -268.5t100 -242t156 -204.5t201 -159t238 -102t264.5 -36.5t265 36.5t239 102t202 159t157 204.5t101 242t36.5 268t-36.5 268.5t-101 242.5t-157 204.5t-202 159t-239 102t-265 36.5t-264.5 -36.5 t-238 -102t-201 -159t-156 -204.5t-100 -242t-36 -268.5zM1054 518v1301h444q111 0 205 -51.5t149 -141.5t55 -197q0 -137 -75.5 -227.5t-202.5 -129.5l310 -554h-209l-298 530h-197v-530h-181zM1235 1203h243q108 0 176.5 63.5t68.5 162.5t-68.5 164t-176.5 65h-243v-455z " />
<glyph unicode="&#xaf;" horiz-adv-x="1638" d="M325 2011v187h989v-187h-989z" />
<glyph unicode="&#xb0;" horiz-adv-x="1516" d="M219 1825.5q0 109.5 43 209t115.5 171.5t172.5 114.5t210 42.5t209.5 -42.5t171.5 -114.5t114.5 -171.5t42.5 -209t-42.5 -209t-114.5 -171.5t-171.5 -114.5t-209.5 -42.5t-210 42.5t-172.5 114.5t-115.5 171.5t-43 209zM419 1826q0 -148 98 -248t243 -100t241.5 100 t96.5 248q0 147 -98 247t-243 100t-241.5 -99.5t-96.5 -247.5z" />
<glyph unicode="&#xb1;" d="M170 0v219h1371v-219h-1371zM170 947v219h577v573h219v-573h575v-219h-575v-581h-219v581h-577z" />
<glyph unicode="&#xb2;" horiz-adv-x="1120" d="M157 934v170l541 662q40 50 57.5 94t17.5 97q0 100 -56.5 159.5t-156.5 59.5q-44 0 -81 -12t-67 -37t-47.5 -68.5t-17.5 -101.5h-190q0 175 112.5 282t290.5 107q179 0 291 -106t112 -283q0 -86 -29.5 -151.5t-98.5 -151.5l-451 -550h579v-170h-806z" />
<glyph unicode="&#xb3;" horiz-adv-x="1166" d="M157 1307h190q3 -55 23.5 -98.5t54 -69t74.5 -38.5t88 -13q104 0 169.5 64t65.5 174q0 113 -63 176.5t-183 63.5h-29v164h29q110 0 167 60t57 164q0 106 -61.5 164t-154.5 58q-96 0 -155 -55t-66 -151h-185q6 114 61.5 200.5t145 131t199.5 44.5q177 0 289.5 -108 t112.5 -281q0 -220 -176 -303q200 -84 200 -328q0 -98 -33.5 -176.5t-91.5 -129t-134 -77t-164 -26.5q-85 0 -160 23.5t-134.5 70t-96 123t-39.5 173.5z" />
<glyph unicode="&#xb4;" horiz-adv-x="1638" d="M659 1947l288 501h282l-354 -501h-216z" />
<glyph unicode="&#xb5;" horiz-adv-x="1836" d="M272 -722v2335h235v-994q0 -209 105.5 -319t291.5 -110t294.5 111t108.5 318v994h237v-1613h-237v181q-175 -200 -451 -200q-219 0 -349 120v-823h-235z" />
<glyph unicode="&#xb6;" horiz-adv-x="1974" d="M138 1698q0 131 48.5 246.5t137.5 202t224.5 136.5t299.5 50h790v-3055h-235v2832h-384v-2832h-237v1791q-115 0 -217.5 34t-179.5 94.5t-133.5 139.5t-85 171.5t-28.5 189.5z" />
<glyph unicode="&#xb7;" horiz-adv-x="883" d="M288 731v307h309v-307h-309z" />
<glyph unicode="&#xb8;" horiz-adv-x="1638" d="M573 -707l233 488h220l-194 -488h-259z" />
<glyph unicode="&#xb9;" horiz-adv-x="854" d="M141 1885v216l272 232h187v-1399h-187v1189z" />
<glyph unicode="&#xba;" horiz-adv-x="1489" d="M219 1688q0 167 33.5 292t125.5 218q147 148 366 148t366 -148q92 -93 125.5 -218t33.5 -292q0 -169 -33.5 -293.5t-125.5 -218.5q-144 -144 -366 -144t-366 144q-92 94 -125.5 218.5t-33.5 293.5zM416 1688q0 -63 3 -109t12 -101t30.5 -100t53.5 -77q45 -45 104.5 -70 t124.5 -25t124.5 25t104.5 70q32 32 54 77t31.5 99.5t13 102t3.5 108.5t-3.5 109t-13 102.5t-31.5 99.5t-54 78q-45 44 -104 68.5t-125 24.5t-125 -24.5t-104 -68.5q-32 -33 -53.5 -77.5t-30.5 -100.5t-12 -102t-3 -109z" />
<glyph unicode="&#xbb;" horiz-adv-x="1814" d="M256 190v292l397 396l-397 394v294l688 -688zM997 190v292l392 396l-392 394v294l688 -688z" />
<glyph unicode="&#xbc;" horiz-adv-x="2545" d="M141 1885v216l272 232h187v-1399h-187v1189zM566 0l1092 2333h196l-1091 -2333h-197zM1514 210v174l494 1014h203l-491 -1014h357v344h184v-344h153v-174h-153v-210h-184v210h-563z" />
<glyph unicode="&#xbd;" horiz-adv-x="2587" d="M141 1885v216l272 232h187v-1399h-187v1189zM528 0l1091 2333h197l-1091 -2333h-197zM1626 0v170l540 662q41 50 58.5 93.5t17.5 96.5q0 100 -57 160t-156 60q-44 0 -81 -12.5t-67.5 -37.5t-47.5 -68.5t-17 -101.5h-190q0 175 112.5 283t290.5 108t290.5 -106.5 t112.5 -284.5q0 -86 -29.5 -150t-98.5 -150l-450 -552h578v-170h-806z" />
<glyph unicode="&#xbe;" horiz-adv-x="2692" d="M157 1307h190q3 -55 23.5 -98.5t54 -69t74.5 -38.5t88 -13q104 0 169.5 64t65.5 174q0 113 -63 176.5t-183 63.5h-29v164h29q110 0 167 60t57 164q0 106 -61.5 164t-154.5 58q-96 0 -155 -55t-66 -151h-185q6 114 61.5 200.5t145 131t199.5 44.5q177 0 289.5 -108 t112.5 -281q0 -220 -176 -303q200 -84 200 -328q0 -98 -33.5 -176.5t-91.5 -129t-134 -77t-164 -26.5q-85 0 -160 23.5t-134.5 70t-96 123t-39.5 173.5zM738 0l1094 2333h197l-1095 -2333h-196zM1661 210v174l496 1014h203l-496 -1014h362v344h182v-344h155v-174h-155v-210 h-182v210h-565z" />
<glyph unicode="&#xbf;" horiz-adv-x="1627" d="M150 -141q0 106 38 195t113 199l269 385q28 42 43.5 95t15.5 96v131h237v-134q0 -92 -25.5 -160.5t-80.5 -147.5l-266 -380q-55 -81 -81 -141.5t-26 -137.5q0 -108 49 -196.5t136 -139.5t194 -51q85 0 157 31.5t119.5 84.5t74.5 123.5t27 147.5h235q0 -124 -46.5 -234.5 t-127 -191t-194.5 -127.5t-245 -47q-127 0 -240.5 45t-196 123.5t-131 190.5t-48.5 241zM606 1338v275h279v-275h-279z" />
<glyph unicode="&#xc0;" horiz-adv-x="2001" d="M40 0l858 2333h209l856 -2333h-265l-188 528h-1019l-187 -528h-264zM566 744h872l-432 1232zM579 3061h283l288 -503h-216z" />
<glyph unicode="&#xc1;" horiz-adv-x="2001" d="M40 0l858 2333h209l856 -2333h-265l-188 528h-1019l-187 -528h-264zM566 744h872l-432 1232zM829 2558l288 503h281l-353 -503h-216z" />
<glyph unicode="&#xc2;" horiz-adv-x="2001" d="M40 0l858 2333h209l856 -2333h-265l-188 528h-1019l-187 -528h-264zM469 2558l409 503h223l409 -503h-225l-296 341l-295 -341h-225zM566 744h872l-432 1232z" />
<glyph unicode="&#xc3;" horiz-adv-x="2001" d="M40 0l858 2333h209l856 -2333h-265l-188 528h-1019l-187 -528h-264zM462 2762q54 53 98.5 87.5t82.5 51.5t67 23t63 6q65 0 114.5 -18.5t118.5 -60.5q56 -35 96 -50t87 -15q44 0 86.5 19.5t106.5 84.5l122 -117q-100 -101 -172 -134.5t-140 -33.5q-64 0 -115 18t-117 57 q-39 23 -62.5 35t-57 23t-64.5 11q-47 0 -86 -18.5t-106 -85.5zM566 744h872l-432 1232z" />
<glyph unicode="&#xc4;" horiz-adv-x="2001" d="M40 0l858 2333h209l856 -2333h-265l-188 528h-1019l-187 -528h-264zM525 2586v291h235v-291h-235zM566 744h872l-432 1232zM1219 2586v291h235v-291h-235z" />
<glyph unicode="&#xc5;" horiz-adv-x="2001" d="M40 0l858 2333h209l856 -2333h-265l-188 528h-1019l-187 -528h-264zM566 744h872l-432 1232zM603 2841.5q0 104.5 51.5 193.5t140.5 140.5t194 51.5t194 -51t141 -139.5t52 -194.5q0 -105 -52 -195t-141.5 -143t-194 -53t-193.5 53t-140.5 143t-51.5 194.5zM763 2842 q0 -94 66 -161t159.5 -67t160.5 67t67 161q0 93 -66.5 157.5t-160.5 64.5t-160 -64.5t-66 -157.5z" />
<glyph unicode="&#xc6;" horiz-adv-x="3020" d="M26 0l1232 2333h1584v-223h-1200v-828h1022v-223h-1022v-837h1200v-222h-1447v554h-808l-289 -554h-272zM694 770h701v1340z" />
<glyph unicode="&#xc7;" horiz-adv-x="2086" d="M250 991v175.5v175.5t3 148t8.5 136.5t15.5 113t26 108t39 90.5t54.5 91t72.5 81q117 118 271 180t326 62q209 0 377.5 -81.5t280 -239t150.5 -373.5h-255q-47 217 -193 344.5t-360 127.5q-117 0 -223 -42.5t-181 -121.5q-37 -38 -63 -76.5t-44.5 -90t-29.5 -105.5 t-17.5 -138t-8 -170.5t-1.5 -219t1.5 -219.5t8 -170.5t17.5 -137.5t29.5 -106t44.5 -90t63 -77q75 -78 181 -120.5t223 -42.5q215 0 363.5 128t196.5 344h248q-37 -216 -150 -373.5t-282 -239t-376 -81.5q-172 0 -326 62t-271 179q-41 41 -72.5 81.5t-54.5 91.5t-39 90.5 t-26 107.5t-15.5 113t-8.5 137t-3 148zM760 -707l234 488h219l-194 -488h-259z" />
<glyph unicode="&#xc8;" horiz-adv-x="1964" d="M338 0v2333h1448v-223h-1199v-822h1023v-222h-1023v-844h1199v-222h-1448zM616 3061h282l288 -503h-216z" />
<glyph unicode="&#xc9;" horiz-adv-x="1964" d="M338 0v2333h1448v-223h-1199v-822h1023v-222h-1023v-844h1199v-222h-1448zM866 2558l288 503h281l-353 -503h-216z" />
<glyph unicode="&#xca;" horiz-adv-x="1964" d="M338 0v2333h1448v-223h-1199v-822h1023v-222h-1023v-844h1199v-222h-1448zM504 2558l410 503h224l409 -503h-227l-294 341l-295 -341h-227z" />
<glyph unicode="&#xcb;" horiz-adv-x="1964" d="M338 0v2333h1448v-223h-1199v-822h1023v-222h-1023v-844h1199v-222h-1448zM560 2586v291h237v-291h-237zM1254 2586v291h237v-291h-237z" />
<glyph unicode="&#xcc;" horiz-adv-x="923" d="M338 0v2333h249v-2333h-249zM338 3061h281l288 -503h-216z" />
<glyph unicode="&#xcd;" horiz-adv-x="923" d="M338 0v2333h249v-2333h-249zM338 2558l288 503h281l-353 -503h-216z" />
<glyph unicode="&#xce;" horiz-adv-x="923" d="M338 0v2333h249v-2333h-249zM338 2558l409 503h223l409 -503h-225l-295 341l-296 -341h-225z" />
<glyph unicode="&#xcf;" horiz-adv-x="923" d="M338 0v2333h249v-2333h-249zM338 2586v291h235v-291h-235zM1032 2586v291h237v-291h-237z" />
<glyph unicode="&#xd0;" horiz-adv-x="2249" d="M128 1082v193h256v1058h802q217 0 388 -89.5t284 -261.5q35 -54 57 -95.5t39.5 -96.5t26 -103t13.5 -132.5t6.5 -166t1.5 -222.5q0 -169 -3.5 -274t-11.5 -191.5t-25.5 -145t-41 -107t-62.5 -104.5q-113 -158 -287.5 -251t-404.5 -93h-782v1082h-256zM635 219h506 q169 0 299 62t211 181q30 46 47.5 86.5t29.5 86.5t17 123.5t7 161t2 234.5q0 125 -1 196.5t-5 150.5t-11.5 123.5t-21 93.5t-32.5 85t-48 75q-92 126 -209.5 181t-284.5 55h-506v-839h528v-193h-528v-863z" />
<glyph unicode="&#xd1;" horiz-adv-x="2398" d="M338 0v2333h235l1240 -1864v1864h248v-2333h-235l-1239 1870v-1870h-249zM672 2762q53 53 98 87.5t82.5 51.5t66.5 23t63 6q66 0 115.5 -18.5t118.5 -60.5q56 -35 96 -50t86 -15q45 0 87.5 19.5t106.5 84.5l122 -117q-101 -101 -172 -134.5t-139 -33.5q-64 0 -116 18 t-117 57q-40 23 -63 35t-57 23t-64 11q-47 0 -86 -18.5t-106 -85.5z" />
<glyph unicode="&#xd2;" horiz-adv-x="2129" d="M250 991v175.5v175.5t3 148t8.5 136.5t15.5 113t26 108t39 90.5t54.5 91t72.5 81q118 118 270.5 180t326 62t325.5 -62t270 -180q47 -46 81.5 -97t58 -97t39 -116t24 -121.5t12.5 -149.5t5 -164t1 -199t-1 -198.5t-5 -164t-12.5 -149.5t-24 -121.5t-39 -116t-58 -96.5 t-81.5 -98q-118 -118 -270 -179.5t-325.5 -61.5t-326 62t-270.5 179q-41 41 -72.5 81.5t-54.5 91.5t-39 90.5t-26 107.5t-15.5 113t-8.5 137t-3 148zM498 1166.5q0 -132.5 1.5 -219t8 -170t17.5 -137t29.5 -105t44.5 -89.5t63 -76q76 -79 182 -123t221.5 -44t221.5 44 t182 123q37 38 63 76t44.5 89.5t29 104.5t16.5 137.5t8 170t2 219t-2 219t-8 170t-16.5 137t-29 104.5t-44.5 90t-63 76q-76 79 -182 123t-221.5 44t-221.5 -44t-182 -123q-37 -38 -63 -76t-44.5 -89.5t-29.5 -105t-17.5 -137t-8 -170t-1.5 -219zM656 3061h282l288 -503 h-216z" />
<glyph unicode="&#xd3;" horiz-adv-x="2129" d="M250 991v175.5v175.5t3 148t8.5 136.5t15.5 113t26 108t39 90.5t54.5 91t72.5 81q118 118 270.5 180t326 62t325.5 -62t270 -180q47 -46 81.5 -97t58 -97t39 -116t24 -121.5t12.5 -149.5t5 -164t1 -199t-1 -198.5t-5 -164t-12.5 -149.5t-24 -121.5t-39 -116t-58 -96.5 t-81.5 -98q-118 -118 -270 -179.5t-325.5 -61.5t-326 62t-270.5 179q-41 41 -72.5 81.5t-54.5 91.5t-39 90.5t-26 107.5t-15.5 113t-8.5 137t-3 148zM498 1166.5q0 -132.5 1.5 -219t8 -170t17.5 -137t29.5 -105t44.5 -89.5t63 -76q76 -79 182 -123t221.5 -44t221.5 44 t182 123q37 38 63 76t44.5 89.5t29 104.5t16.5 137.5t8 170t2 219t-2 219t-8 170t-16.5 137t-29 104.5t-44.5 90t-63 76q-76 79 -182 123t-221.5 44t-221.5 -44t-182 -123q-37 -38 -63 -76t-44.5 -89.5t-29.5 -105t-17.5 -137t-8 -170t-1.5 -219zM904 2558l288 503h283 l-355 -503h-216z" />
<glyph unicode="&#xd4;" horiz-adv-x="2129" d="M250 991v175.5v175.5t3 148t8.5 136.5t15.5 113t26 108t39 90.5t54.5 91t72.5 81q118 118 270.5 180t326 62t325.5 -62t270 -180q47 -46 81.5 -97t58 -97t39 -116t24 -121.5t12.5 -149.5t5 -164t1 -199t-1 -198.5t-5 -164t-12.5 -149.5t-24 -121.5t-39 -116t-58 -96.5 t-81.5 -98q-118 -118 -270 -179.5t-325.5 -61.5t-326 62t-270.5 179q-41 41 -72.5 81.5t-54.5 91.5t-39 90.5t-26 107.5t-15.5 113t-8.5 137t-3 148zM498 1166.5q0 -132.5 1.5 -219t8 -170t17.5 -137t29.5 -105t44.5 -89.5t63 -76q76 -79 182 -123t221.5 -44t221.5 44 t182 123q37 38 63 76t44.5 89.5t29 104.5t16.5 137.5t8 170t2 219t-2 219t-8 170t-16.5 137t-29 104.5t-44.5 90t-63 76q-76 79 -182 123t-221.5 44t-221.5 -44t-182 -123q-37 -38 -63 -76t-44.5 -89.5t-29.5 -105t-17.5 -137t-8 -170t-1.5 -219zM544 2558l410 503h222 l410 -503h-226l-294 341l-296 -341h-226z" />
<glyph unicode="&#xd5;" horiz-adv-x="2129" d="M250 991v175.5v175.5t3 148t8.5 136.5t15.5 113t26 108t39 90.5t54.5 91t72.5 81q118 118 270.5 180t326 62t325.5 -62t270 -180q47 -46 81.5 -97t58 -97t39 -116t24 -121.5t12.5 -149.5t5 -164t1 -199t-1 -198.5t-5 -164t-12.5 -149.5t-24 -121.5t-39 -116t-58 -96.5 t-81.5 -98q-118 -118 -270 -179.5t-325.5 -61.5t-326 62t-270.5 179q-41 41 -72.5 81.5t-54.5 91.5t-39 90.5t-26 107.5t-15.5 113t-8.5 137t-3 148zM498 1166.5q0 -132.5 1.5 -219t8 -170t17.5 -137t29.5 -105t44.5 -89.5t63 -76q76 -79 182 -123t221.5 -44t221.5 44 t182 123q37 38 63 76t44.5 89.5t29 104.5t16.5 137.5t8 170t2 219t-2 219t-8 170t-16.5 137t-29 104.5t-44.5 90t-63 76q-76 79 -182 123t-221.5 44t-221.5 -44t-182 -123q-37 -38 -63 -76t-44.5 -89.5t-29.5 -105t-17.5 -137t-8 -170t-1.5 -219zM538 2762q53 53 98 87.5 t82.5 51.5t66.5 23t63 6q66 0 115 -18.5t119 -60.5q55 -35 96 -50t88 -15q44 0 85.5 19.5t106.5 84.5l121 -117q-100 -101 -171.5 -134.5t-138.5 -33.5q-64 0 -116 18t-118 57q-39 23 -62 35t-57 23t-65 11q-46 0 -85.5 -18.5t-106.5 -85.5z" />
<glyph unicode="&#xd6;" horiz-adv-x="2129" d="M250 991v175.5v175.5t3 148t8.5 136.5t15.5 113t26 108t39 90.5t54.5 91t72.5 81q118 118 270.5 180t326 62t325.5 -62t270 -180q47 -46 81.5 -97t58 -97t39 -116t24 -121.5t12.5 -149.5t5 -164t1 -199t-1 -198.5t-5 -164t-12.5 -149.5t-24 -121.5t-39 -116t-58 -96.5 t-81.5 -98q-118 -118 -270 -179.5t-325.5 -61.5t-326 62t-270.5 179q-41 41 -72.5 81.5t-54.5 91.5t-39 90.5t-26 107.5t-15.5 113t-8.5 137t-3 148zM498 1166.5q0 -132.5 1.5 -219t8 -170t17.5 -137t29.5 -105t44.5 -89.5t63 -76q76 -79 182 -123t221.5 -44t221.5 44 t182 123q37 38 63 76t44.5 89.5t29 104.5t16.5 137.5t8 170t2 219t-2 219t-8 170t-16.5 137t-29 104.5t-44.5 90t-63 76q-76 79 -182 123t-221.5 44t-221.5 -44t-182 -123q-37 -38 -63 -76t-44.5 -89.5t-29.5 -105t-17.5 -137t-8 -170t-1.5 -219zM600 2586v291h235v-291 h-235zM1294 2586v291h236v-291h-236z" />
<glyph unicode="&#xd7;" d="M213 390l494 495l-494 494l147 147l496 -497l494 497l148 -147l-498 -494l498 -495l-148 -147l-494 495l-496 -495z" />
<glyph unicode="&#xd8;" horiz-adv-x="2136" d="M250 991v175.5v175.5t3 148t8.5 136.5t15.5 113t26 108t39 90.5t54.5 91t72.5 81q118 118 270.5 180t326.5 62q231 0 409 -101l111 226h212l-163 -341q4 -3 8.5 -7t9 -9.5t8.5 -9.5q47 -46 81.5 -97t58 -97t39 -116t24 -121.5t12.5 -149.5t5 -164t1 -199t-1 -198.5 t-5 -164t-12.5 -149.5t-24 -121.5t-39 -116t-58 -96.5t-81.5 -98q-118 -118 -270 -179.5t-325 -61.5q-229 0 -413 104l-109 -229h-213l163 341l-25 25q-41 41 -72.5 81.5t-54.5 91.5t-39 90.5t-26 107.5t-15.5 113t-8.5 137t-3 148zM498 1166q0 -337 21 -487.5t94 -249.5 l766 1606q-145 95 -313 95q-116 0 -222 -44t-182 -123q-37 -38 -63 -76t-44.5 -89.5t-29.5 -105t-17.5 -137t-8 -170t-1.5 -219.5zM750 298q146 -95 316 -95q115 0 221 44t182 123q32 32 55 66.5t40.5 70.5t29 86.5t18.5 100.5t10.5 128t5 153.5t1.5 190.5q0 141 -2 229 t-8.5 173.5t-19 141t-32.5 104.5t-50 90z" />
<glyph unicode="&#xd9;" horiz-adv-x="2233" d="M304 770v1563h250v-1543q0 -175 69 -308t197 -206t297 -73t298 73t199.5 206t70.5 308v1543h248v-1563q0 -172 -61.5 -319.5t-169.5 -250.5t-259 -161t-326 -58t-326 58t-258 161t-168 250.5t-61 319.5zM707 3061h282l289 -503h-216z" />
<glyph unicode="&#xda;" horiz-adv-x="2233" d="M304 770v1563h250v-1543q0 -175 69 -308t197 -206t297 -73t298 73t199.5 206t70.5 308v1543h248v-1563q0 -172 -61.5 -319.5t-169.5 -250.5t-259 -161t-326 -58t-326 58t-258 161t-168 250.5t-61 319.5zM957 2558l288 503h281l-353 -503h-216z" />
<glyph unicode="&#xdb;" horiz-adv-x="2233" d="M304 770v1563h250v-1543q0 -175 69 -308t197 -206t297 -73t298 73t199.5 206t70.5 308v1543h248v-1563q0 -172 -61.5 -319.5t-169.5 -250.5t-259 -161t-326 -58t-326 58t-258 161t-168 250.5t-61 319.5zM597 2558l409 503h223l409 -503h-225l-296 341l-295 -341h-225z " />
<glyph unicode="&#xdc;" horiz-adv-x="2233" d="M304 770v1563h250v-1543q0 -175 69 -308t197 -206t297 -73t298 73t199.5 206t70.5 308v1543h248v-1563q0 -172 -61.5 -319.5t-169.5 -250.5t-259 -161t-326 -58t-326 58t-258 161t-168 250.5t-61 319.5zM653 2586v291h235v-291h-235zM1347 2586v291h235v-291h-235z" />
<glyph unicode="&#xdd;" horiz-adv-x="1686" d="M26 2333h268l551 -1117l544 1117h269l-688 -1370v-963h-248v963zM682 2558l288 503h281l-353 -503h-216z" />
<glyph unicode="&#xde;" horiz-adv-x="2102" d="M338 0v2333h249v-469h619q159 0 292.5 -49t228 -137.5t147 -217.5t52.5 -284t-52.5 -283.5t-147 -216.5t-228 -136.5t-292.5 -48.5h-619v-491h-249zM587 714h595q111 0 201 29t156.5 85.5t102.5 145t36 202.5t-36 202.5t-102.5 145t-156.5 85.5t-201 29h-595v-924z" />
<glyph unicode="&#xdf;" horiz-adv-x="1820" d="M294 0v1717q0 202 81 347t229 219t350 74q105 0 198.5 -20t173.5 -63t137.5 -106t90 -154t32.5 -201q0 -257 -207 -391q117 -63 162 -149t45 -244v-567q0 -109 -33.5 -198t-94.5 -146q-67 -61 -146.5 -89.5t-191.5 -28.5h-176v203h131q68 0 109 14.5t85 51.5 q81 67 81 219v554q0 71 -15.5 118.5t-52.5 84.5q-69 69 -194 69h-144v196h118q129 0 208.5 81t79.5 217q0 70 -27.5 136t-74.5 110q-99 95 -307 95q-107 0 -186 -32t-127 -91t-71 -138.5t-23 -180.5v-1707h-240z" />
<glyph unicode="&#xe0;" horiz-adv-x="1723" d="M166 456q0 214 146.5 339t412.5 125h485v155q0 180 -98 267t-315 87q-154 0 -244.5 -41.5t-162.5 -142.5l-161 147q104 136 235 188t336 52q322 0 483.5 -136.5t161.5 -401.5v-1094h-235v154q-98 -98 -200.5 -135.5t-265.5 -37.5q-168 0 -274.5 34t-181.5 113 q-58 58 -90 144.5t-32 183.5zM397 459q0 -141 89 -208t280 -67q60 0 102.5 3.5t91 13.5t90.5 32.5t78 57.5q82 77 82 279v174h-453q-360 0 -360 -285zM416 2448h282l288 -501h-216z" />
<glyph unicode="&#xe1;" horiz-adv-x="1723" d="M166 456q0 214 146.5 339t412.5 125h485v155q0 180 -98 267t-315 87q-154 0 -244.5 -41.5t-162.5 -142.5l-161 147q104 136 235 188t336 52q322 0 483.5 -136.5t161.5 -401.5v-1094h-235v154q-98 -98 -200.5 -135.5t-265.5 -37.5q-168 0 -274.5 34t-181.5 113 q-58 58 -90 144.5t-32 183.5zM397 459q0 -141 89 -208t280 -67q60 0 102.5 3.5t91 13.5t90.5 32.5t78 57.5q82 77 82 279v174h-453q-360 0 -360 -285zM666 1947l288 501h281l-353 -501h-216z" />
<glyph unicode="&#xe2;" horiz-adv-x="1723" d="M166 456q0 214 146.5 339t412.5 125h485v155q0 180 -98 267t-315 87q-154 0 -244.5 -41.5t-162.5 -142.5l-161 147q104 136 235 188t336 52q322 0 483.5 -136.5t161.5 -401.5v-1094h-235v154q-98 -98 -200.5 -135.5t-265.5 -37.5q-168 0 -274.5 34t-181.5 113 q-58 58 -90 144.5t-32 183.5zM304 1947l410 501h224l409 -501h-227l-294 341l-295 -341h-227zM397 459q0 -141 89 -208t280 -67q60 0 102.5 3.5t91 13.5t90.5 32.5t78 57.5q82 77 82 279v174h-453q-360 0 -360 -285z" />
<glyph unicode="&#xe3;" horiz-adv-x="1723" d="M166 456q0 214 146.5 339t412.5 125h485v155q0 180 -98 267t-315 87q-154 0 -244.5 -41.5t-162.5 -142.5l-161 147q104 136 235 188t336 52q322 0 483.5 -136.5t161.5 -401.5v-1094h-235v154q-98 -98 -200.5 -135.5t-265.5 -37.5q-168 0 -274.5 34t-181.5 113 q-58 58 -90 144.5t-32 183.5zM298 2149q53 53 98 88t83 51.5t67 22.5t64 6q65 0 113.5 -18t118.5 -61q55 -34 96 -49.5t88 -15.5q44 0 86.5 19.5t106.5 84.5l122 -117q-101 -100 -172.5 -134t-139.5 -34q-64 0 -115 18t-117 57q-40 23 -63 35.5t-56.5 23t-64.5 10.5 q-47 0 -87 -18.5t-107 -85.5zM397 459q0 -141 89 -208t280 -67q60 0 102.5 3.5t91 13.5t90.5 32.5t78 57.5q82 77 82 279v174h-453q-360 0 -360 -285z" />
<glyph unicode="&#xe4;" horiz-adv-x="1723" d="M166 456q0 214 146.5 339t412.5 125h485v155q0 180 -98 267t-315 87q-154 0 -244.5 -41.5t-162.5 -142.5l-161 147q104 136 235 188t336 52q322 0 483.5 -136.5t161.5 -401.5v-1094h-235v154q-98 -98 -200.5 -135.5t-265.5 -37.5q-168 0 -274.5 34t-181.5 113 q-58 58 -90 144.5t-32 183.5zM360 1973v291h237v-291h-237zM397 459q0 -141 89 -208t280 -67q60 0 102.5 3.5t91 13.5t90.5 32.5t78 57.5q82 77 82 279v174h-453q-360 0 -360 -285zM1054 1973v291h237v-291h-237z" />
<glyph unicode="&#xe5;" horiz-adv-x="1723" d="M166 456q0 214 146.5 339t412.5 125h485v155q0 180 -98 267t-315 87q-154 0 -244.5 -41.5t-162.5 -142.5l-161 147q104 136 235 188t336 52q322 0 483.5 -136.5t161.5 -401.5v-1094h-235v154q-98 -98 -200.5 -135.5t-265.5 -37.5q-168 0 -274.5 34t-181.5 113 q-58 58 -90 144.5t-32 183.5zM397 459q0 -141 89 -208t280 -67q60 0 102.5 3.5t91 13.5t90.5 32.5t78 57.5q82 77 82 279v174h-453q-360 0 -360 -285zM438 2251q0 105 52 194t141.5 141t194.5 52q104 0 193.5 -51t141.5 -140.5t52 -195.5q0 -105 -52 -195t-141.5 -142.5 t-194 -52.5t-194 52.5t-141.5 142.5t-52 195zM600 2251q0 -93 66 -159t159.5 -66t159.5 66t66 159t-65.5 158t-159.5 65t-160 -65t-66 -158z" />
<glyph unicode="&#xe6;" horiz-adv-x="2736" d="M166 456q0 214 146.5 339t412.5 125h485v155q0 180 -98 267t-315 87q-154 0 -244.5 -41.5t-162.5 -142.5l-161 147q104 136 235 188t336 52q433 0 566 -253q85 123 213 188t291 65q206 0 356 -95.5t228.5 -271t78.5 -414.5v-107h-1091q0 -266 123.5 -411.5t354.5 -145.5 q136 0 228 41.5t191 141.5l165 -141q-86 -86 -167 -138t-188 -81t-242 -29q-193 0 -339 69t-234 209q-108 -154 -242.5 -216t-347.5 -62q-168 0 -274.5 34t-181.5 113q-58 58 -90 144.5t-32 183.5zM397 459q0 -141 89 -208t280 -67q60 0 102.5 3.5t91 13.5t90.5 32.5 t78 57.5q82 77 82 279v174h-453q-360 0 -360 -285zM1442 920h856q-5 103 -14 154t-36 115q-47 111 -149 177t-228.5 66t-227.5 -66t-149 -177q-27 -66 -37.5 -118t-14.5 -151z" />
<glyph unicode="&#xe7;" horiz-adv-x="1617" d="M206 806q0 162 35.5 297t99 232t152.5 164.5t196.5 100t230.5 32.5q169 0 288.5 -53t242.5 -187l-160 -150q-91 100 -173.5 140t-197.5 40q-118 0 -214 -46.5t-159 -137.5q-56 -79 -80.5 -179t-24.5 -253q0 -152 24.5 -253t80.5 -180q63 -90 158.5 -136.5t214.5 -46.5 q115 0 197.5 41t173.5 142l160 -154q-123 -133 -242 -185.5t-289 -52.5q-123 0 -230.5 32.5t-196.5 100t-152.5 164.5t-99 231.5t-35.5 296.5zM573 -707l233 488h220l-194 -488h-259z" />
<glyph unicode="&#xe8;" horiz-adv-x="1736" d="M206 806q0 390 177 608t486 218q205 0 355 -95.5t228 -271t78 -414.5v-107h-1088q0 -267 122 -412t353 -145q137 0 231 42t193 141l160 -141q-87 -87 -166 -138.5t-184.5 -80.5t-240.5 -29q-161 0 -289.5 49.5t-221.5 149t-143 258.5t-50 368zM442 920h852 q-5 103 -14 154t-35 115q-47 111 -148.5 177t-228 66t-228.5 -66t-149 -177q-26 -64 -35 -115t-14 -154zM469 2448h281l288 -501h-216z" />
<glyph unicode="&#xe9;" horiz-adv-x="1736" d="M206 806q0 390 177 608t486 218q205 0 355 -95.5t228 -271t78 -414.5v-107h-1088q0 -267 122 -412t353 -145q137 0 231 42t193 141l160 -141q-87 -87 -166 -138.5t-184.5 -80.5t-240.5 -29q-161 0 -289.5 49.5t-221.5 149t-143 258.5t-50 368zM442 920h852 q-5 103 -14 154t-35 115q-47 111 -148.5 177t-228 66t-228.5 -66t-149 -177q-26 -64 -35 -115t-14 -154zM718 1947l288 501h282l-354 -501h-216z" />
<glyph unicode="&#xea;" horiz-adv-x="1736" d="M206 806q0 390 177 608t486 218q205 0 355 -95.5t228 -271t78 -414.5v-107h-1088q0 -267 122 -412t353 -145q137 0 231 42t193 141l160 -141q-87 -87 -166 -138.5t-184.5 -80.5t-240.5 -29q-161 0 -289.5 49.5t-221.5 149t-143 258.5t-50 368zM357 1947l409 501h223 l409 -501h-225l-295 341l-294 -341h-227zM442 920h852q-5 103 -14 154t-35 115q-47 111 -148.5 177t-228 66t-228.5 -66t-149 -177q-26 -64 -35 -115t-14 -154z" />
<glyph unicode="&#xeb;" horiz-adv-x="1736" d="M206 806q0 390 177 608t486 218q205 0 355 -95.5t228 -271t78 -414.5v-107h-1088q0 -267 122 -412t353 -145q137 0 231 42t193 141l160 -141q-87 -87 -166 -138.5t-184.5 -80.5t-240.5 -29q-161 0 -289.5 49.5t-221.5 149t-143 258.5t-50 368zM413 1973v291h237v-291 h-237zM442 920h852q-5 103 -14 154t-35 115q-47 111 -148.5 177t-228 66t-228.5 -66t-149 -177q-26 -64 -35 -115t-14 -154zM1107 1973v291h237v-291h-237z" />
<glyph unicode="&#xec;" horiz-adv-x="828" d="M294 0v1613h237v-1613h-237zM294 2448h282l290 -501h-216z" />
<glyph unicode="&#xed;" horiz-adv-x="828" d="M294 0v1613h237v-1613h-237zM294 1947l290 501h282l-356 -501h-216z" />
<glyph unicode="&#xee;" horiz-adv-x="828" d="M294 0v1613h237v-1613h-237zM294 1947l410 501h224l410 -501h-228l-294 341l-294 -341h-228z" />
<glyph unicode="&#xef;" horiz-adv-x="828" d="M294 0v1613h237v-1613h-237zM294 1973v291h237v-291h-237zM989 1973v291h237v-291h-237z" />
<glyph unicode="&#xf0;" horiz-adv-x="1736" d="M216 799.5q0 101.5 7.5 183t27.5 166t60 157.5t99 132q73 76 175.5 120t224.5 52q155 6 244 -34l-188 325h-381v169h288l-154 269h247l153 -269h269v-169h-178l207 -363q87 -153 131.5 -267t59.5 -217t15 -254q0 -101 -8 -183t-28.5 -166.5t-60.5 -158t-100 -132.5 q-174 -179 -457 -179q-285 0 -459 179q-59 59 -99 132.5t-60 158.5t-27.5 166t-7.5 182.5zM453 800q0 -65 1.5 -110.5t8.5 -105.5t20 -104.5t37.5 -90.5t58.5 -80q119 -119 290 -119q173 0 291 119q34 34 58.5 80t38 91t20.5 104.5t9 105.5t2 110t-2 110.5t-9 106.5 t-20.5 105.5t-38 91.5t-58.5 80q-118 119 -291 119q-171 0 -290 -119q-34 -34 -58.5 -80.5t-37.5 -91t-20 -105.5t-8.5 -106.5t-1.5 -110.5z" />
<glyph unicode="&#xf1;" horiz-adv-x="1840" d="M294 0v1613h237v-178q173 197 451 197q263 0 413 -150q168 -164 168 -450v-1032h-237v994q0 209 -104.5 318.5t-290.5 109.5t-293 -110.5t-107 -317.5v-994h-237zM406 2149q54 53 99 88t83 51.5t67 22.5t63 6q66 0 114.5 -18t117.5 -61q56 -34 97 -49.5t87 -15.5 q45 0 86.5 19.5t105.5 84.5l122 -117q-100 -100 -171.5 -134t-138.5 -34q-64 0 -116.5 18t-117.5 57q-41 24 -62.5 35.5t-55.5 22.5t-64 11q-47 0 -87 -18.5t-107 -85.5z" />
<glyph unicode="&#xf2;" horiz-adv-x="1736" d="M210 806.5q0 101.5 8 183.5t28.5 166.5t60.5 158t99 133.5q184 184 463 184q277 0 461 -184q59 -60 99 -133.5t60.5 -158t28.5 -166.5t8 -183.5t-8 -184t-28.5 -167t-60.5 -158t-99 -134.5q-183 -182 -461 -182q-280 0 -463 182q-59 61 -99 134.5t-60.5 158t-28.5 167 t-8 184zM426 2448h281l290 -501h-218zM446 806.5q0 -80.5 4 -140t16.5 -130t40 -128t69.5 -99.5q118 -119 293 -119q86 0 161.5 31t132.5 88q34 34 58.5 80.5t38 92.5t21 106.5t9 107t1.5 110.5t-1.5 111t-9 107.5t-21 106t-38 92.5t-58.5 81q-57 57 -132.5 87.5 t-161.5 30.5q-175 0 -293 -118q-42 -42 -69.5 -99.5t-40 -128t-16.5 -130t-4 -140z" />
<glyph unicode="&#xf3;" horiz-adv-x="1736" d="M210 806.5q0 101.5 8 183.5t28.5 166.5t60.5 158t99 133.5q184 184 463 184q277 0 461 -184q59 -60 99 -133.5t60.5 -158t28.5 -166.5t8 -183.5t-8 -184t-28.5 -167t-60.5 -158t-99 -134.5q-183 -182 -461 -182q-280 0 -463 182q-59 61 -99 134.5t-60.5 158t-28.5 167 t-8 184zM446 806.5q0 -80.5 4 -140t16.5 -130t40 -128t69.5 -99.5q118 -119 293 -119q86 0 161.5 31t132.5 88q34 34 58.5 80.5t38 92.5t21 106.5t9 107t1.5 110.5t-1.5 111t-9 107.5t-21 106t-38 92.5t-58.5 81q-57 57 -132.5 87.5t-161.5 30.5q-175 0 -293 -118 q-42 -42 -69.5 -99.5t-40 -128t-16.5 -130t-4 -140zM707 1947l290 501h281l-353 -501h-218z" />
<glyph unicode="&#xf4;" horiz-adv-x="1736" d="M210 806.5q0 101.5 8 183.5t28.5 166.5t60.5 158t99 133.5q184 184 463 184q277 0 461 -184q59 -60 99 -133.5t60.5 -158t28.5 -166.5t8 -183.5t-8 -184t-28.5 -167t-60.5 -158t-99 -134.5q-183 -182 -461 -182q-280 0 -463 182q-59 61 -99 134.5t-60.5 158t-28.5 167 t-8 184zM347 1947l410 501h222l410 -501h-226l-294 341l-296 -341h-226zM446 806.5q0 -80.5 4 -140t16.5 -130t40 -128t69.5 -99.5q118 -119 293 -119q86 0 161.5 31t132.5 88q34 34 58.5 80.5t38 92.5t21 106.5t9 107t1.5 110.5t-1.5 111t-9 107.5t-21 106t-38 92.5 t-58.5 81q-57 57 -132.5 87.5t-161.5 30.5q-175 0 -293 -118q-42 -42 -69.5 -99.5t-40 -128t-16.5 -130t-4 -140z" />
<glyph unicode="&#xf5;" horiz-adv-x="1736" d="M210 806.5q0 101.5 8 183.5t28.5 166.5t60.5 158t99 133.5q184 184 463 184q277 0 461 -184q59 -60 99 -133.5t60.5 -158t28.5 -166.5t8 -183.5t-8 -184t-28.5 -167t-60.5 -158t-99 -134.5q-183 -182 -461 -182q-280 0 -463 182q-59 61 -99 134.5t-60.5 158t-28.5 167 t-8 184zM341 2149q53 53 98 88t83 51.5t67 22.5t64 6q65 0 113.5 -18t118.5 -61q55 -34 96 -49.5t88 -15.5q44 0 85.5 19.5t106.5 84.5l121 -117q-100 -100 -171.5 -134t-138.5 -34q-64 0 -116 18t-118 57q-40 24 -62 35.5t-55.5 22.5t-64.5 11q-47 0 -87 -18.5t-107 -85.5z M446 806.5q0 -80.5 4 -140t16.5 -130t40 -128t69.5 -99.5q118 -119 293 -119q86 0 161.5 31t132.5 88q34 34 58.5 80.5t38 92.5t21 106.5t9 107t1.5 110.5t-1.5 111t-9 107.5t-21 106t-38 92.5t-58.5 81q-57 57 -132.5 87.5t-161.5 30.5q-175 0 -293 -118 q-42 -42 -69.5 -99.5t-40 -128t-16.5 -130t-4 -140z" />
<glyph unicode="&#xf6;" horiz-adv-x="1736" d="M210 806.5q0 101.5 8 183.5t28.5 166.5t60.5 158t99 133.5q184 184 463 184q277 0 461 -184q59 -60 99 -133.5t60.5 -158t28.5 -166.5t8 -183.5t-8 -184t-28.5 -167t-60.5 -158t-99 -134.5q-183 -182 -461 -182q-280 0 -463 182q-59 61 -99 134.5t-60.5 158t-28.5 167 t-8 184zM403 1973v291h235v-291h-235zM446 806.5q0 -80.5 4 -140t16.5 -130t40 -128t69.5 -99.5q118 -119 293 -119q86 0 161.5 31t132.5 88q34 34 58.5 80.5t38 92.5t21 106.5t9 107t1.5 110.5t-1.5 111t-9 107.5t-21 106t-38 92.5t-58.5 81q-57 57 -132.5 87.5 t-161.5 30.5q-175 0 -293 -118q-42 -42 -69.5 -99.5t-40 -128t-16.5 -130t-4 -140zM1098 1973v291h236v-291h-236z" />
<glyph unicode="&#xf7;" d="M166 773v221h1378v-221h-1378zM714 160v282h283v-282h-283zM714 1323v283h283v-283h-283z" />
<glyph unicode="&#xf8;" horiz-adv-x="1736" d="M210 806q0 102 8 184t28.5 166.5t60.5 158t99 133.5q184 184 463 184q195 0 344 -88l128 213h182l-185 -315q56 -60 94.5 -132.5t58.5 -156t27.5 -165t7.5 -182.5t-8 -183.5t-28.5 -167t-60.5 -158t-99 -134.5q-183 -182 -461 -182q-196 0 -344 88l-125 -213h-187 l187 314q-57 59 -95.5 132t-58.5 156.5t-28 165.5t-8 182zM446 806q0 -140 16.5 -248t65.5 -188l576 984q-97 68 -235 68q-175 0 -293 -118q-42 -42 -69.5 -99.5t-40 -128t-16.5 -130t-4 -140.5zM632 262q102 -72 237 -72q86 0 161.5 31t132.5 88q34 34 58.5 80.5t38 92.5 t21 106.5t9 107t1.5 110.5q0 145 -15 250.5t-63 185.5z" />
<glyph unicode="&#xf9;" horiz-adv-x="1844" d="M278 584v1029h237v-994q0 -210 103.5 -319.5t288.5 -109.5q187 0 295 111t108 318v994h237v-1613h-233v181q-87 -98 -203 -149t-252 -51q-130 0 -237 38.5t-180 111.5q-164 159 -164 453zM501 2448h281l290 -501h-216z" />
<glyph unicode="&#xfa;" horiz-adv-x="1844" d="M278 584v1029h237v-994q0 -210 103.5 -319.5t288.5 -109.5q187 0 295 111t108 318v994h237v-1613h-233v181q-87 -98 -203 -149t-252 -51q-130 0 -237 38.5t-180 111.5q-164 159 -164 453zM750 1947l288 501h282l-354 -501h-216z" />
<glyph unicode="&#xfb;" horiz-adv-x="1844" d="M278 584v1029h237v-994q0 -210 103.5 -319.5t288.5 -109.5q187 0 295 111t108 318v994h237v-1613h-233v181q-87 -98 -203 -149t-252 -51q-130 0 -237 38.5t-180 111.5q-164 159 -164 453zM390 1947l410 501h222l410 -501h-226l-296 341l-294 -341h-226z" />
<glyph unicode="&#xfc;" horiz-adv-x="1844" d="M278 584v1029h237v-994q0 -210 103.5 -319.5t288.5 -109.5q187 0 295 111t108 318v994h237v-1613h-233v181q-87 -98 -203 -149t-252 -51q-130 0 -237 38.5t-180 111.5q-164 159 -164 453zM446 1973v291h236v-291h-236zM1141 1973v291h235v-291h-235z" />
<glyph unicode="&#xfd;" horiz-adv-x="1460" d="M37 1613h254l443 -1295l439 1295h256l-735 -2003q-44 -124 -115 -189q-116 -112 -313 -112h-103v209h72q62 0 103 10t71.5 35.5t50.5 61t41 93.5l115 314zM570 1947l289 501h282l-354 -501h-217z" />
<glyph unicode="&#xfe;" horiz-adv-x="1788" d="M294 -722v3055h237v-907q93 117 201 161.5t254 44.5q120 0 224 -38t169 -103q59 -59 99.5 -138.5t61 -172t28.5 -181.5t8 -193t-8 -192.5t-28.5 -181t-61 -172.5t-99.5 -138q-65 -65 -169 -103t-224 -38q-144 0 -253 45.5t-202 163.5v-912h-237zM531 806q0 -73 4 -133.5 t15.5 -125.5t30 -115.5t50 -97t73 -77.5t101 -49t133 -18t132.5 18t100.5 48.5t72.5 77.5t49.5 97.5t29.5 115.5t15 125.5t4 134t-4 134t-15 125.5t-29.5 115.5t-49.5 97t-72.5 77t-100.5 48.5t-132.5 18t-133 -18t-101 -48.5t-73 -77t-50 -97t-30 -115.5t-15.5 -126 t-4 -134z" />
<glyph unicode="&#xff;" horiz-adv-x="1460" d="M37 1613h254l443 -1295l439 1295h256l-735 -2003q-44 -124 -115 -189q-116 -112 -313 -112h-103v209h72q62 0 103 10t71.5 35.5t50.5 61t41 93.5l115 314zM266 1973v291h235v-291h-235zM960 1973v291h237v-291h-237z" />
<glyph unicode="&#x152;" horiz-adv-x="3240" d="M250 1166.5q0 130.5 0.5 198.5t4.5 165t12.5 150t24 122t39.5 115.5t58 96.5t80 96q118 118 269 180t324 62q355 0 567 -261v242h1422v-219h-1173q0 -129 2 -417.5t2 -414.5h995v-210h-995q0 -130 -2 -426.5t-2 -426.5h1180v-219h-1429v243q-105 -129 -253.5 -195.5 t-313.5 -66.5q-173 0 -324 61.5t-269 179.5q-46 46 -80 96.5t-58 97t-39.5 115.5t-24 122t-12.5 150t-4.5 165t-0.5 198.5zM498 1166.5q0 -132.5 1.5 -219t8 -170t17.5 -137t29.5 -105t44.5 -89.5t63 -76q76 -79 182 -123t221.5 -44t221.5 44t182 123q32 32 55 66.5 t40.5 70.5t29 86.5t18.5 100.5t10.5 128t5 153.5t1.5 191t-1.5 191t-5 153t-10.5 128t-18.5 100.5t-29 86.5t-40.5 70.5t-55 67q-76 79 -182 123t-221.5 44t-221.5 -44t-182 -123q-37 -38 -63 -76t-44.5 -89.5t-29.5 -105t-17.5 -137t-8 -170t-1.5 -219z" />
<glyph unicode="&#x153;" horiz-adv-x="2820" d="M210 806.5q0 101.5 8 183.5t28.5 166.5t60.5 158t99 133.5q184 184 463 184q183 0 329 -82.5t221 -229.5q82 153 217.5 232.5t317.5 79.5q205 0 354.5 -95.5t227.5 -271t78 -414.5v-107h-1088q0 -267 122.5 -412t353.5 -145q137 0 231 42t193 141l160 -141 q-87 -87 -166 -138.5t-184.5 -80.5t-240.5 -29q-200 0 -346.5 78t-232.5 232q-75 -147 -219.5 -228.5t-327.5 -81.5q-280 0 -463 182q-59 61 -99 134.5t-60.5 158t-28.5 167t-8 184zM446 806.5q0 -80.5 4 -140t16.5 -130t40 -128t69.5 -99.5q118 -119 293 -119 q86 0 161.5 31t132.5 88q34 34 58.5 80.5t38 92.5t21 106.5t9 107t1.5 110.5t-1.5 111t-9 107.5t-21 106t-38 92.5t-58.5 81q-57 57 -132.5 87.5t-161.5 30.5q-175 0 -293 -118q-42 -42 -69.5 -99.5t-40 -128t-16.5 -130t-4 -140zM1526 920h856q-4 99 -14.5 151t-37.5 118 q-48 111 -149 177t-227.5 66t-228.5 -66t-149 -177q-27 -64 -36 -115t-14 -154z" />
<glyph unicode="&#x178;" horiz-adv-x="1686" d="M26 2333h268l551 -1117l544 1117h269l-688 -1370v-963h-248v963zM378 2586v291h235v-291h-235zM1072 2586v291h235v-291h-235z" />
<glyph unicode="&#x2c6;" horiz-adv-x="1638" d="M298 1947l409 501h224l410 -501h-227l-295 341l-294 -341h-227z" />
<glyph unicode="&#x2dc;" horiz-adv-x="1638" d="M291 2149q54 53 99 88t83 51.5t67 22.5t63 6q66 0 114.5 -18t117.5 -61q55 -34 96 -49.5t88 -15.5q45 0 87 19.5t107 84.5l121 -117q-100 -100 -172 -134t-140 -34q-63 0 -114.5 18t-117.5 57q-39 23 -62 35t-57 23t-65 11q-47 0 -86.5 -18.5t-106.5 -85.5z" />
<glyph unicode="&#x2000;" horiz-adv-x="1613" />
<glyph unicode="&#x2001;" horiz-adv-x="3227" />
<glyph unicode="&#x2002;" horiz-adv-x="1613" />
<glyph unicode="&#x2003;" horiz-adv-x="3227" />
<glyph unicode="&#x2004;" horiz-adv-x="1075" />
<glyph unicode="&#x2005;" horiz-adv-x="806" />
<glyph unicode="&#x2006;" horiz-adv-x="537" />
<glyph unicode="&#x2007;" horiz-adv-x="537" />
<glyph unicode="&#x2008;" horiz-adv-x="403" />
<glyph unicode="&#x2009;" horiz-adv-x="645" />
<glyph unicode="&#x200a;" horiz-adv-x="179" />
<glyph unicode="&#x2010;" horiz-adv-x="1395" d="M250 773v221h897v-221h-897z" />
<glyph unicode="&#x2011;" horiz-adv-x="1395" d="M250 773v221h897v-221h-897z" />
<glyph unicode="&#x2012;" horiz-adv-x="1395" d="M250 773v221h897v-221h-897z" />
<glyph unicode="&#x2013;" d="M170 773v221h1371v-221h-1371z" />
<glyph unicode="&#x2014;" horiz-adv-x="2993" d="M250 773v224h2496v-224h-2496z" />
<glyph unicode="&#x2018;" horiz-adv-x="860" d="M288 2058v275l285 259v-534h-285z" />
<glyph unicode="&#x2019;" horiz-adv-x="860" d="M288 1798v535h285v-275z" />
<glyph unicode="&#x201a;" horiz-adv-x="860" d="M288 -259v534h285v-275z" />
<glyph unicode="&#x201c;" horiz-adv-x="1420" d="M288 2058v275l285 259v-534h-285zM845 2058v275l289 259v-534h-289z" />
<glyph unicode="&#x201d;" horiz-adv-x="1420" d="M288 1798v535h285v-275zM845 1798v535h289v-275z" />
<glyph unicode="&#x201e;" horiz-adv-x="1420" d="M288 -259v534h285v-275zM845 -259v534h289v-275z" />
<glyph unicode="&#x2022;" horiz-adv-x="1742" d="M338 1094.5q0 108.5 42 207.5t114 170.5t171 114t207 42.5t207 -42.5t171 -114t114 -170.5t42 -207.5t-42 -207.5t-114 -170.5t-171 -114t-207 -42.5t-207 42.5t-171 114t-114 170.5t-42 207.5z" />
<glyph unicode="&#x2026;" horiz-adv-x="2480" d="M288 0v301h302v-301h-302zM1088 0v301h301v-301h-301zM1891 0v301h301v-301h-301z" />
<glyph unicode="&#x202f;" horiz-adv-x="645" />
<glyph unicode="&#x2039;" horiz-adv-x="1073" d="M131 878l688 688v-294l-393 -394l393 -396v-292z" />
<glyph unicode="&#x203a;" horiz-adv-x="1073" d="M256 190v292l397 396l-397 394v294l688 -688z" />
<glyph unicode="&#x205f;" horiz-adv-x="806" />
<glyph unicode="&#x2122;" horiz-adv-x="2748" d="M118 2160v173h967v-173h-391v-1226h-190v1226h-386zM1330 934v1399h190l427 -848l426 848h185v-1399h-185v1008l-335 -660h-184l-334 660v-1008h-190z" />
<glyph unicode="&#x25fc;" horiz-adv-x="1604" d="M0 0v1606h1606v-1606h-1606z" />
<glyph unicode="&#xfb01;" horiz-adv-x="1840" d="M138 1422v180h206v305q0 91 26 169t75.5 137t128.5 92.5t180 33.5h171v-203h-128q-110 0 -164 -61t-54 -174v-299h346v-180h-346v-1422h-235v1422h-206zM1291 2094v242h269v-242h-269zM1307 0v1602h237v-1602h-237z" />
<glyph unicode="&#xfb02;" horiz-adv-x="1971" d="M138 1422v180h206v305q0 91 26 169t75.5 137t128.5 92.5t180 33.5h171v-203h-128q-110 0 -164 -61t-54 -174v-299h346v-180h-346v-1422h-235v1422h-206zM1294 429v1904h236v-1895q0 -121 49 -178t168 -57h131v-203h-171q-103 0 -182.5 32t-129.5 90t-75.5 135.5 t-25.5 171.5z" />
</font>
</defs>
</svg>
