<?xml version="1.0" encoding="utf-8"?>
<!-- Generator: Adobe Illustrator 16.0.3, SVG Export Plug-In . SVG Version: 6.00 Build 0)  -->
<!DOCTYPE svg PUBLIC "-//W3C//DTD SVG 1.1//EN" "http://www.w3.org/Graphics/SVG/1.1/DTD/svg11.dtd">
<svg version="1.1" id="Layer_1" xmlns="http://www.w3.org/2000/svg" xmlns:xlink="http://www.w3.org/1999/xlink" x="0px" y="0px"
	 width="1000px" height="1000px" viewBox="0 0 1000 1000" enable-background="new 0 0 1000 1000" xml:space="preserve">
<g id="Layer_1_1_" display="none">
	<g display="inline">
		<path fill="#010101" d="M272.647,504.938c-32.548,0-58.934,26.383-58.934,58.934c0,32.535,26.386,58.934,58.934,58.934
			c32.551,0,58.937-26.397,58.937-58.934C331.584,531.32,305.198,504.938,272.647,504.938z M272.647,603.104
			c-21.667,0-39.236-17.562-39.236-39.232s17.569-39.24,39.236-39.24c21.671,0,39.231,17.569,39.231,39.24
			C311.879,585.543,294.318,603.104,272.647,603.104z"/>
		<path fill="#010101" d="M780.201,504.938c-32.544,0-58.935,26.383-58.935,58.934c0,32.535,26.391,58.934,58.935,58.934
			c32.551,0,58.939-26.397,58.939-58.934C839.143,531.32,812.752,504.938,780.201,504.938z M780.201,603.104
			c-21.664,0-39.24-17.562-39.24-39.232s17.576-39.24,39.24-39.24c21.67,0,39.23,17.569,39.23,39.24
			C819.433,585.543,801.871,603.104,780.201,603.104z"/>
		<path fill="#010101" d="M884.641,579.502c0.396-4.41-9.632-15.233-9.227-18.039c0.406-2.805,5.213-22.457,4.006-30.467
			c-1.2-8.027-2.4-15.632-4.801-28.064c-2.407-12.433-33.28-23.252-60.142-29.673c-26.858-6.409-143.129-20.844-155.549-21.643
			c-12.429-0.803-79.793-42.905-92.214-49.313c-12.429-6.417-26.868-18.043-96.223-22.458
			c-69.359-4.402-128.689,2.007-154.75,10.832c-26.058,8.813-91.002,41.295-103.832,46.504c-12.826,5.218-63.74,8.821-63.74,8.821
			c-0.458,0.45-0.831,1.05-1.958,2.931c-1.135,1.882-22.903,53.599-27.715,63.223c-4.808,9.615-0.397,14.836,0,22.846
			c0.397,8.027,5.209,29.27,6.409,33.281c1.155,3.817,77.126,12.754,84.086,13.563c-1.609-5.708-2.493-11.739-2.493-17.975
			c0-36.54,29.613-66.157,66.149-66.157c36.532,0,66.148,29.617,66.148,66.157c0,8.132-1.479,15.932-4.163,23.146
			c0.786,0.033,1.558,0.064,2.363,0.105c74.929,3.543,257.576,3.738,382.059,3.381c-3.6-8.147-5.603-17.155-5.603-26.633
			c0-36.54,29.616-66.157,66.147-66.157c36.532,0,66.148,29.617,66.148,66.157c0,9.267-1.913,18.08-5.352,26.09
			c2.709-0.023,4.144-0.041,4.144-0.041C885.84,586.32,884.641,579.502,884.641,579.502z"/>
	</g>
</g>
<g id="Layer_2">
	<g display="none">
		<path display="inline" fill="#010101" d="M861.854,513.017c-41.792,0-75.681,33.883-75.681,75.677
			c0,41.803,33.89,75.691,75.681,75.691c41.805,0,75.682-33.89,75.682-75.691C937.535,546.899,903.656,513.017,861.854,513.017z
			 M861.854,639.077c-27.826,0-50.384-22.557-50.384-50.383c0-27.829,22.558-50.386,50.384-50.386
			c27.827,0,50.385,22.557,50.385,50.386C912.238,616.52,889.681,639.077,861.854,639.077z"/>
		<path display="inline" fill="#010101" d="M995.969,608.783c0.523-5.665-12.354-19.567-11.832-23.174
			c0.521-3.607,6.689-28.831,5.143-39.129c-1.548-10.296-3.085-20.081-6.17-36.041c-3.092-15.963-42.73-29.859-77.228-38.097
			c-34.495-8.237-183.81-26.772-199.762-27.801c-15.972-1.034-102.464-55.088-118.414-63.331c-4.86-2.504-9.952-5.628-17.196-8.921
			c-17.187-8.892-66.296-21.132-138.815-24.994c-72.593-3.857-246.352,9.012-269.011,11.844
			c-22.651,2.833-53.599,9.982-65.699,11.53c-12.1,1.542-24.455,7.207-24.455,7.207l5.403,3.09
			c-1.285,0.511-24.654,52.057-42.413,69.304c-17.765,17.243-16.993,24.968-16.48,43.247c0.178,6.205-0.276,11.44-1.008,15.793
			c-2.593,5.855-4.705,10.496-5.938,12.974c-3.136,6.273-3.219,11.08-2.479,15.651c-0.794,2.539-1.74,4.724-2.931,5.779
			c-3.461,3.063,0.26,18.281,2.545,34.756c0.992,7.16,5.755,11.875,10.824,14.917c0.1,0.375,0.194,0.71,0.278,0.973
			c0.303,1.025,4.819,2.342,11.827,3.784c0.987,0.231,1.573,0.323,1.573,0.323l0,0c27.362,5.428,87.64,12.512,94.571,13.328
			c-2.07-7.35-3.204-15.094-3.204-23.101c0-46.915,38.036-84.943,84.954-84.943c46.92,0,84.948,38.028,84.948,84.943
			c0,10.462-1.896,20.467-5.352,29.729c1.015,0.041,2.008,0.084,3.037,0.135c96.222,4.547,330.788,4.797,490.641,4.359
			c-4.62-10.474-7.193-22.036-7.193-34.223c0-46.915,38.029-84.943,84.944-84.943c46.924,0,84.954,38.028,84.954,84.943
			c0,11.905-2.458,23.228-6.87,33.513c3.47-0.021,5.332-0.041,5.332-0.041C997.517,617.533,995.969,608.783,995.969,608.783z"/>
		<path display="inline" fill="#010101" d="M210.056,513.017c-41.797,0-75.681,33.883-75.681,75.677
			c0,41.803,33.884,75.691,75.681,75.691s75.681-33.89,75.681-75.691C285.737,546.899,251.854,513.017,210.056,513.017z
			 M210.056,639.077c-27.827,0-50.385-22.557-50.385-50.383c0-27.829,22.558-50.386,50.385-50.386
			c27.827,0,50.385,22.557,50.385,50.386C260.441,616.52,237.883,639.077,210.056,639.077z"/>
	</g>
	<g display="none">
		<path display="inline" fill="#010101" d="M811.201,514.012c-42.352,0-76.676,34.323-76.676,76.678
			c0,42.332,34.323,76.667,76.676,76.667c42.334,0,76.657-34.335,76.657-76.667C887.858,548.337,853.534,514.012,811.201,514.012z
			 M811.201,641.731c-28.199,0-51.043-22.862-51.043-51.042c0-28.2,22.844-51.042,51.043-51.042
			c28.181,0,51.043,22.842,51.043,51.042C862.245,618.869,839.382,641.731,811.201,641.731z"/>
		<path display="inline" fill="#010101" d="M947.053,611.027c0.527-5.742-12.517-19.821-11.99-23.473
			c0.527-3.652,6.775-29.204,5.225-39.631c-1.574-10.429-3.135-20.35-6.271-36.517c-3.124-16.168-43.282-30.25-78.229-38.592
			c-34.945-8.343-137.145-27.12-153.313-28.16c-16.17-1.049-103.792-55.806-119.962-64.159c-4.913-2.535-10.074-5.7-17.41-9.038
			c-17.411-9.005-67.156-21.403-140.621-25.319c-73.538-3.905-188.863,9.129-211.819,11.999
			c-22.945,2.872-24.507,8.604-36.766,10.17c-12.254,1.562-24.771,7.304-24.771,7.304l5.473,3.129
			c-1.304,0.517-54.762,54.245-72.751,71.711c-18.001,17.468-17.214,25.292-16.697,43.811c0.182,6.285-0.278,11.59-1.018,16.004
			c-2.627,5.938-4.769,10.633-6.016,13.137c-3.177,6.352-3.264,11.225-2.509,15.849c-0.808,2.577-1.765,4.801-2.975,5.856
			c-3.502,3.104,0.27,18.517,2.581,35.215c1.004,7.251,5.83,12.021,10.966,15.104c0.098,0.394,0.196,0.723,0.279,0.992
			c0.304,1.035,4.884,2.368,11.979,3.839c1.003,0.227,1.599,0.318,1.599,0.318l0,0c27.714,5.505,67.138,12.684,74.158,13.491
			c-2.095-7.428-3.249-15.271-3.249-23.38c0-47.524,38.53-86.06,86.06-86.06c47.53,0,86.055,38.537,86.055,86.06
			c0,10.594-1.925,20.73-5.421,30.103c1.025,0.042,2.033,0.095,3.076,0.146c97.472,4.604,246.999,4.843,408.928,4.409
			c-4.675-10.616-7.281-22.327-7.281-34.657c0-47.524,38.524-86.06,86.051-86.06c47.525,0,86.05,38.537,86.05,86.06
			c0,12.052-2.484,23.524-6.952,33.933c3.516-0.021,5.39-0.042,5.39-0.042C948.626,619.895,947.053,611.027,947.053,611.027z"/>
		<path display="inline" fill="#010101" d="M239.009,514.012c-42.343,0-76.667,34.323-76.667,76.678
			c0,42.332,34.324,76.667,76.667,76.667c42.341,0,76.667-34.335,76.667-76.667C315.676,548.337,281.351,514.012,239.009,514.012z
			 M239.009,641.731c-28.19,0-51.038-22.862-51.038-51.042c0-28.2,22.847-51.042,51.038-51.042s51.042,22.842,51.042,51.042
			C290.052,618.869,267.2,641.731,239.009,641.731z"/>
	</g>
	<g display="none">
		<path display="inline" fill="#010101" d="M998.629,567.51c-1.363-7.095-12.826-25.918-12.826-25.918s4.646-15.816-9.003-47.749
			c-13.641-31.915-107.224-52.646-111.858-54.832c-4.635-2.181-17.462-4.365-43.104-26.739
			c-25.65-22.37-138.881-87.304-138.881-87.304c-40.917-28.106-67.119-26.739-118.139-31.104
			c-51.012-4.365-354.682-11.459-397.245-11.459c-42.56,0-76.937,16.372-76.937,16.372s-26.195-1.639-36.833,0
			c-10.642,1.632-26.19,80.211-33.559,112.134c-7.368,31.922-5.727,109.683-5.727,133.413c0,23.742-12.278,42.563-12.278,42.563
			c-1.642,9.546,0,10.367,5.727,22.371c5.727,12.011,100.129,16.373,130.416,16.373c0.177,0,0.394,0,0.611,0
			c-1.115-5.512-1.703-11.209-1.703-17.054c0-47.243,38.296-85.536,85.534-85.536c47.239,0,85.53,38.293,85.53,85.536
			c0,6.04-0.637,11.941-1.827,17.629c176.947,0.671,432.499,11.518,458.832,11.692c7.163,0.054,16.946,0.24,28.233,0.496
			c-3.077-8.827-4.776-18.302-4.776-28.18c0-47.234,38.3-85.536,85.534-85.536c47.243,0,85.534,38.302,85.534,85.536
			c0,9.939-1.717,19.477-4.83,28.338c13.834-2.264,29.448-5.412,33.206-7.747c5.73-3.538,6.819-8.182,5.457-10.366
			c-1.371-2.176-2.186-7.633,1.088-20.186C998.081,587.711,999.992,574.603,998.629,567.51z"/>
		<path display="inline" fill="#010101" d="M222.825,536.956c-39.557,0-71.622,32.075-71.622,71.621
			c0,39.557,32.064,71.62,71.622,71.62c39.553,0,71.616-32.065,71.616-71.62C294.441,569.029,262.376,536.956,222.825,536.956z
			 M222.825,655.644c-25.992,0-47.066-21.07-47.066-47.066c0-25.997,21.074-47.066,47.066-47.066
			c25.991,0,47.062,21.069,47.062,47.066C269.887,634.573,248.816,655.644,222.825,655.644z"/>
		<path display="inline" fill="#010101" d="M874.671,536.956c-39.548,0-71.614,32.065-71.614,71.621
			c0,39.548,32.066,71.62,71.614,71.62c39.556,0,71.63-32.074,71.63-71.62C946.301,569.021,914.227,536.956,874.671,536.956z
			 M874.671,655.644c-25.988,0-47.058-21.07-47.058-47.066s21.069-47.066,47.058-47.066c25.995,0,47.075,21.07,47.075,47.066
			S900.666,655.644,874.671,655.644z"/>
	</g>
	<g>
		<path fill="#010101" d="M845.854,520.266c-40.921,0-74.086,33.177-74.086,74.085c0,40.921,33.165,74.087,74.086,74.087
			s74.085-33.166,74.085-74.087C919.939,553.441,886.775,520.266,845.854,520.266z M845.854,651.341
			c-31.475,0-56.99-25.515-56.99-56.99c0-31.475,25.516-56.99,56.99-56.99s56.99,25.516,56.99,56.99
			C902.845,625.826,877.329,651.341,845.854,651.341z"/>
		<path fill="#010101" d="M205.432,520.266c-40.914,0-74.085,33.177-74.085,74.085c0,40.921,33.171,74.087,74.085,74.087
			c40.92,0,74.092-33.166,74.092-74.087C279.524,553.441,246.353,520.266,205.432,520.266z M205.432,651.341
			c-31.475,0-56.99-25.515-56.99-56.99c0-31.475,25.516-56.99,56.99-56.99c31.475,0,56.991,25.516,56.991,56.99
			C262.423,625.826,236.907,651.341,205.432,651.341z"/>
		<path fill="#010101" d="M988.289,600.057c-3.592-2.493-2.451-28.855-0.675-32.773c1.775-3.92-0.358-16.377-1.776-23.858
			c-1.436-7.491-13.545-13.187-13.545-13.187s0.72-9.619-8.896-30.635c-9.614-21.009-243.283-53.784-255.75-55.206
			c-12.467-1.426-36.325-13.893-71.233-33.836c-34.91-19.948-83.342-35.976-91.183-40.25c-7.838-4.273-19.229,0-19.229,0
			s-7.481,7.122-7.481,9.261c0,2.134,3.201,7.481-0.719,9.615c-3.908,2.141-4.628,13.386-4.628,13.386l77.658,37.551l-9.626,6.054
			c0,0-71.238-6.414-111.128-8.902c-39.89-2.498-152.091-6.414-160.286-6.414c-8.188,0-8.902-6.767-11.395-8.547
			c-2.494-1.78-6.772-9.979-6.772-9.979s-16.027,2.853-19.588-1.42c-3.559-4.274-8.9-9.261-17.094-8.194
			c-8.193,1.072-8.193,9.266-13.534,12.114c-5.341,2.848-34.91,8.548-60.198,8.548c-25.283,0-121.81,16.382-131.43,16.741
			c-9.614,0.355-27.069,49.865-28.495,59.125c-1.42,9.261-17.809,29.563-17.809,29.563v29.561
			c6.055,24.936,19.948,35.977,29.917,38.828c9.435,2.685,82.543,13.354,90.474,14.496c-1.163-5.598-1.781-11.4-1.781-17.349
			c0-46.815,37.957-84.773,84.773-84.773c46.821,0,84.767,37.958,84.767,84.773c0,10.132-1.78,19.843-5.04,28.844
			c64.048,0,214.524,0,312.426,0c50.227,0,111.328,0,167.114,0c-3.264-9.001-5.04-18.712-5.04-28.844
			c0-46.815,37.953-84.773,84.769-84.773s84.77,37.958,84.77,84.773c0,10.132-1.776,19.843-5.041,28.844c0.603,0,1.003,0,1.131,0
			c3.55,0,63.752-12.098,68.381-15.309C999.721,604.684,991.883,602.549,988.289,600.057z"/>
	</g>
</g>
</svg>
