<?xml version="1.0" encoding="utf-8"?>
<!-- Generator: Adobe Illustrator 16.0.3, SVG Export Plug-In . SVG Version: 6.00 Build 0)  -->
<!DOCTYPE svg PUBLIC "-//W3C//DTD SVG 1.1//EN" "http://www.w3.org/Graphics/SVG/1.1/DTD/svg11.dtd">
<svg version="1.1" id="Layer_1" xmlns="http://www.w3.org/2000/svg" xmlns:xlink="http://www.w3.org/1999/xlink" x="0px" y="0px"
	 width="300px" height="300px" viewBox="0 0 300 300" enable-background="new 0 0 300 300" xml:space="preserve">
<g id="Layer_1_1_" display="none">
	<path display="inline" d="M248.213,133.367c-9.59-54.39-61.455-90.706-115.846-81.116c-54.39,9.591-90.706,61.456-81.115,115.847
		c9.59,54.389,61.456,90.707,115.846,81.115C221.486,239.623,257.803,187.756,248.213,133.367z M66.628,137.552
		c5.251-34.642,32.013-63.64,68.427-70.06c35.99-6.347,70.664,11.258,87.669,41.363c0,0,8.68,16.596-11.869,11.455
		c-12.977-3.246-49.479-6.386-66.918-3.311c-17.44,3.075-43.941,15.605-61.614,25.068C64.65,151.53,66.628,137.552,66.628,137.552z
		 M145.667,234c-34.263-1.588-64.553-24.172-75.585-57.053c-3.038-10.125,3.479-9.158,10.099-7.604
		c6.621,1.554,47.945,9.677,55.567,27.199c9.742,22.392,10.888,30.894,11.301,33.238C147.462,232.125,145.667,234,145.667,234z
		 M173.654,159.438c-1.527,4.201-4.135,7.924-7.559,10.797c-3.425,2.869-7.541,4.793-11.945,5.567
		c-4.399,0.777-8.926,0.382-13.126-1.147c-4.197-1.525-7.922-4.135-10.793-7.557c-2.873-3.425-4.792-7.543-5.57-11.945
		c-0.774-4.4-0.379-8.929,1.15-13.128c1.525-4.198,4.135-7.921,7.558-10.794c3.423-2.872,7.542-4.792,11.942-5.569
		c4.402-0.775,8.93-0.379,13.13,1.149c4.197,1.527,7.923,4.135,10.791,7.558c2.877,3.423,4.797,7.542,5.57,11.943
		C175.582,150.712,175.184,155.24,173.654,159.438z M182.031,227.588c0,0-2.328-1.148-2.74-3.492
		c-0.414-2.346-2.244-10.725-0.75-35.098c1.17-19.072,37.225-40.843,42.914-44.566c5.689-3.723,11.482-6.861,12.09,3.692
		C234.424,182.795,213.686,214.377,182.031,227.588z M144.122,132.647c-2.396,0.746-4.645,1.97-6.562,3.579
		c-2.544,2.136-4.489,4.912-5.623,8.029c-1.136,3.12-1.431,6.497-0.854,9.767c0.435,2.467,1.371,4.85,2.725,6.959l10.881-12.084
		L144.122,132.647z M153.846,147.281l14.354,7.636c0.552-2.448,0.616-5.008,0.183-7.473c-0.576-3.271-2.01-6.343-4.143-8.884
		c-2.135-2.543-4.912-4.488-8.03-5.623c-2.366-0.86-4.856-1.24-7.391-1.119L153.846,147.281z M136.875,164.634
		c1.843,1.702,4.027,3.037,6.381,3.896c2.078,0.756,4.256,1.14,6.472,1.14l0,0c1.102,0,2.209-0.097,3.292-0.287
		c3.274-0.577,6.347-2.011,8.885-4.143c1.919-1.609,3.515-3.611,4.664-5.841l-15.904-3.381L136.875,164.634z"/>
</g>
<g id="Layer_3" display="none">
	<g display="inline">
		<g>
			<path d="M127.411,127.475l-6.964-6.22c-11.91-9.955-24.336,6.471-38.092-6.57c-9.705-9.196-13.214-22.491-10.126-34.588
				c0,0,5.395,5.029,18.484,17.232c20.037-4.033,24.673-23.202,24.673-23.202L95.283,55.378c11.852-3.93,25.505-1.519,35.21,7.68
				c13.625,12.908,0.033,30.058,9.215,37.544l5.46,5.263L127.411,127.475z M206.199,161.705l17.638,17.345
				c5.699,5.314,6.015,14.251,0.695,19.953c-5.321,5.699-14.257,6.015-19.955,0.695l-12.24-11.814L206.199,161.705z"/>
		</g>
		<path d="M207.016,145.349c0-5.644-3.199-10.535-7.877-12.979c-0.25-6.57-4.813-12.018-10.943-13.607
			c-0.045-0.041-0.088-0.079-0.129-0.119c-1.629-6.314-7.346-10.983-14.166-10.983c-0.16,0-0.314,0.02-0.473,0.025
			c-0.172-0.099-0.34-0.198-0.509-0.293c-2.582-4.167-7.183-6.955-12.444-6.955c-6.252,0-13.138,10.764-20.14,18.922
			c-2.067,2.752-4.324,5.389-6.179,7.57c-4.049,4.814-5.213,7.044-8.423,5.349c-2.756-1.985-8.926-7.995-10.184-8.647
			c-9.908,11.542-12.648,36.913-9.89,49.362c3.173,14.331-21.443,45.324-21.443,45.324l38.265,29.584
			c0.875,0.877,17.536-23.557,30.512-29.411c22.493-10.149,27.757-18.634,45.43-52.343
			C200.384,162.408,207.016,149.374,207.016,145.349z"/>
	</g>
</g>
<g id="Layer_2">
	<g>
		<g>
			<g>
				<path d="M249.041,46.58c0,0-49.654,38.848-59.964,43.18c-7.204,3.056-35.932,3.603-52.205,3.69
					c-11.537-0.543-25.677,0.323-30.601,3.922l-85.498,62.105c-7.842,5.703-9.58,14.96-4.697,21.623
					c4.873,6.698,14.083,8.692,22.482,2.548l51.023-36.754l1.463-0.945c-4.56-13.567,2.232-24.921,13.251-28.609
					c2.729-0.951,36.077-3.614,37.026-3.614c0.947,0,3.348,0.817,3.348,3.528c0,2.706-2.777,3.346-2.777,3.346l-32.524,3.021
					c-18.296,2.285-16.479,28.568,1.415,28.817c19.513,0.268,71.456,0.568,81.946,0.16c10.489-0.456,27.176-8.068,27.176-8.068
					l68.212-48.522L249.041,46.58z"/>
			</g>
		</g>
		<g>
			<path d="M203.133,242.75c0,0-121.855-0.034-121.932,0 M46.456,243.813c-2.017-0.29-14.866-1.503-18.291-2.133
				c-3.424-0.628-3.887-2.709-4.439-3.886c-1.29-1.72-3.516-4.626-3.55-5.748c-0.036-1.126-0.68-3.665-0.219-6.195
				c0.458-2.531,5.89-14.26,8.829-15.675c18.847-8.381,57.626-11.856,57.626-11.856l45.359-21.555
				c21.716-8.281,76.38-2.696,85.567,0c9.186,2.697,35.523,15.863,35.523,15.863l20.629,2.9c0,0,3.298,0.409,4.091,2.473
				c0.978,2.548,0.75,2.689,1.096,5.135l0.45,11.661c-0.348,3.271,1.575,2.467,2.379,5.081c0.809,2.608-1.534,8.69-2.055,10.136
				c-0.702,1.987,0.629,2.635,0.515,3.803c-0.574,2.166-2.3,0.911-3.093,1.269c-0.79,0.352-37.479,6.937-38.183,7.122"/>
			<path d="M202.891,242.318c2.501,7.36,9.563,12.666,17.877,12.666c8.362,0,15.448-5.36,17.919-12.773 M46.456,243.813
				c2.972,6.393,9.535,10.834,17.146,10.834c8.03,0,14.885-4.94,17.601-11.898"/>
		</g>
	</g>
</g>
</svg>
