<?xml version="1.0" encoding="utf-8"?>
<!-- Generator: Adobe Illustrator 16.0.3, SVG Export Plug-In . SVG Version: 6.00 Build 0)  -->
<!DOCTYPE svg PUBLIC "-//W3C//DTD SVG 1.1//EN" "http://www.w3.org/Graphics/SVG/1.1/DTD/svg11.dtd">
<svg version="1.1" id="Layer_1" xmlns="http://www.w3.org/2000/svg" xmlns:xlink="http://www.w3.org/1999/xlink" x="0px" y="0px"
	 width="1000px" height="1000px" viewBox="0 0 1000 1000" enable-background="new 0 0 1000 1000" xml:space="preserve">
<g id="Layer_1_1_" display="none">
	<g display="inline">
		<path fill="#010101" d="M272.647,504.938c-32.548,0-58.934,26.383-58.934,58.934c0,32.535,26.386,58.934,58.934,58.934
			c32.551,0,58.937-26.397,58.937-58.934C331.584,531.32,305.198,504.938,272.647,504.938z M272.647,603.104
			c-21.667,0-39.236-17.562-39.236-39.232s17.569-39.24,39.236-39.24c21.671,0,39.231,17.569,39.231,39.24
			C311.879,585.543,294.318,603.104,272.647,603.104z"/>
		<path fill="#010101" d="M780.201,504.938c-32.544,0-58.935,26.383-58.935,58.934c0,32.535,26.391,58.934,58.935,58.934
			c32.551,0,58.939-26.397,58.939-58.934C839.143,531.32,812.752,504.938,780.201,504.938z M780.201,603.104
			c-21.664,0-39.24-17.562-39.24-39.232s17.576-39.24,39.24-39.24c21.67,0,39.23,17.569,39.23,39.24
			C819.433,585.543,801.871,603.104,780.201,603.104z"/>
		<path fill="#010101" d="M884.641,579.502c0.396-4.41-9.632-15.233-9.227-18.039c0.406-2.805,5.213-22.457,4.006-30.467
			c-1.2-8.027-2.4-15.632-4.801-28.064c-2.407-12.433-33.28-23.252-60.142-29.673c-26.858-6.409-143.129-20.844-155.549-21.643
			c-12.429-0.803-79.793-42.905-92.214-49.313c-12.429-6.417-26.868-18.043-96.223-22.458
			c-69.359-4.402-128.689,2.007-154.75,10.832c-26.058,8.813-91.002,41.295-103.832,46.504c-12.826,5.218-63.74,8.821-63.74,8.821
			c-0.458,0.45-0.831,1.05-1.958,2.931c-1.135,1.882-22.903,53.599-27.715,63.223c-4.808,9.615-0.397,14.836,0,22.846
			c0.397,8.027,5.209,29.27,6.409,33.281c1.155,3.817,77.126,12.754,84.086,13.563c-1.609-5.708-2.493-11.739-2.493-17.975
			c0-36.54,29.613-66.157,66.149-66.157c36.532,0,66.148,29.617,66.148,66.157c0,8.132-1.479,15.932-4.163,23.146
			c0.786,0.033,1.558,0.064,2.363,0.105c74.929,3.543,257.576,3.738,382.059,3.381c-3.6-8.147-5.603-17.155-5.603-26.633
			c0-36.54,29.616-66.157,66.147-66.157c36.532,0,66.148,29.617,66.148,66.157c0,9.267-1.913,18.08-5.352,26.09
			c2.709-0.023,4.144-0.041,4.144-0.041C885.84,586.32,884.641,579.502,884.641,579.502z"/>
	</g>
</g>
<g id="Layer_2">
	<g display="none">
		<path display="inline" fill="#010101" d="M863.191,507.492c-41.954,0-75.974,34.015-75.974,75.97
			c0,41.966,34.021,75.985,75.974,75.985c41.966,0,75.975-34.021,75.975-75.985C939.166,541.507,905.155,507.492,863.191,507.492z
			 M863.191,634.041c-27.935,0-50.58-22.644-50.58-50.578c0-27.937,22.646-50.58,50.58-50.58s50.579,22.644,50.579,50.58
			C913.771,611.396,891.126,634.041,863.191,634.041z"/>
		<path display="inline" fill="#010101" d="M997.825,603.63c0.525-5.687-12.402-19.643-11.878-23.264
			c0.522-3.621,6.716-28.942,5.162-39.28c-1.553-10.336-3.097-20.158-6.193-36.181c-3.104-16.024-42.896-29.975-77.526-38.244
			c-34.629-8.269-184.521-26.875-200.535-27.908c-16.033-1.039-102.86-55.302-118.873-63.576c-4.879-2.514-9.989-5.65-17.262-8.956
			c-17.254-8.925-66.553-21.213-139.353-25.09c-72.875-3.873-247.306,9.046-270.052,11.89
			c-22.739,2.844-53.806,10.021-65.953,11.574c-12.146,1.548-24.55,7.235-24.55,7.235l5.424,3.102
			c-1.29,0.513-24.75,52.259-42.578,69.573c-17.833,17.31-17.058,25.064-16.543,43.414c0.179,6.229-0.277,11.484-1.012,15.854
			c-2.603,5.878-4.723,10.537-5.96,13.024c-3.147,6.298-3.231,11.122-2.488,15.711c-0.797,2.549-1.747,4.742-2.942,5.802
			c-3.475,3.075,0.261,18.353,2.555,34.891c0.996,7.188,5.777,11.921,10.866,14.976c0.101,0.376,0.195,0.712,0.279,0.976
			c0.304,1.029,4.837,2.352,11.873,3.799c0.991,0.232,1.579,0.324,1.579,0.324l0,0c27.468,5.448,87.979,12.561,94.937,13.381
			c-2.078-7.378-3.216-15.152-3.216-23.19c0-47.098,38.183-85.272,85.283-85.272c47.102,0,85.277,38.175,85.277,85.272
			c0,10.502-1.903,20.545-5.373,29.843c1.019,0.042,2.016,0.084,3.049,0.136c96.595,4.564,332.069,4.815,492.54,4.376
			c-4.638-10.514-7.221-22.121-7.221-34.354c0-47.098,38.176-85.272,85.272-85.272c47.106,0,85.283,38.175,85.283,85.272
			c0,11.951-2.467,23.317-6.896,33.642c3.482-0.02,5.353-0.041,5.353-0.041C999.379,612.414,997.825,603.63,997.825,603.63z"/>
		<path display="inline" fill="#010101" d="M208.87,507.492c-41.959,0-75.974,34.015-75.974,75.97
			c0,41.966,34.015,75.985,75.974,75.985c41.959,0,75.974-34.021,75.974-75.985C284.844,541.507,250.83,507.492,208.87,507.492z
			 M208.87,634.041c-27.935,0-50.58-22.644-50.58-50.578c0-27.937,22.646-50.58,50.58-50.58s50.58,22.644,50.58,50.58
			C259.45,611.396,236.805,634.041,208.87,634.041z"/>
	</g>
	<g>
		<path fill="#010101" d="M812.343,508.492c-42.516,0-76.974,34.456-76.974,76.974c0,42.497,34.457,76.965,76.974,76.965
			c42.497,0,76.954-34.468,76.954-76.965C889.297,542.949,854.839,508.492,812.343,508.492z M812.343,636.706
			c-28.309,0-51.24-22.95-51.24-51.24c0-28.31,22.932-51.238,51.24-51.238c28.289,0,51.24,22.929,51.24,51.238
			C863.584,613.756,840.632,636.706,812.343,636.706z"/>
		<path fill="#010101" d="M948.721,605.883c0.528-5.764-12.565-19.898-12.037-23.563c0.528-3.666,6.802-29.317,5.244-39.784
			c-1.58-10.47-3.147-20.428-6.294-36.658c-3.137-16.231-43.451-30.368-78.531-38.741c-35.081-8.375-137.676-27.225-153.907-28.269
			c-16.232-1.053-104.194-56.021-120.427-64.408c-4.932-2.544-10.113-5.722-17.478-9.072c-17.479-9.04-67.416-21.485-141.165-25.417
			c-73.822-3.92-189.594,9.165-212.639,12.046c-23.034,2.883-24.602,8.637-36.908,10.209c-12.301,1.567-24.867,7.332-24.867,7.332
			l5.494,3.142c-1.309,0.519-54.973,54.455-73.033,71.989c-18.071,17.535-17.281,25.39-16.761,43.98
			c0.182,6.309-0.28,11.635-1.022,16.066c-2.637,5.96-4.787,10.674-6.039,13.188c-3.189,6.376-3.277,11.268-2.519,15.91
			c-0.811,2.587-1.771,4.818-2.986,5.879c-3.515,3.115,0.271,18.589,2.591,35.351c1.008,7.279,5.852,12.067,11.008,15.163
			c0.099,0.396,0.197,0.727,0.281,0.997c0.305,1.038,4.902,2.376,12.025,3.853c1.008,0.229,1.605,0.32,1.605,0.32l0,0
			c27.821,5.526,67.398,12.732,74.445,13.544c-2.103-7.458-3.262-15.332-3.262-23.471c0-47.708,38.679-86.393,86.394-86.393
			c47.714,0,86.389,38.686,86.389,86.393c0,10.634-1.933,20.811-5.442,30.219c1.029,0.042,2.041,0.095,3.088,0.146
			c97.85,4.621,247.955,4.861,410.512,4.426c-4.693-10.657-7.311-22.413-7.311-34.791c0-47.708,38.674-86.393,86.384-86.393
			s86.383,38.686,86.383,86.393c0,12.098-2.493,23.615-6.979,34.063c3.529-0.021,5.41-0.042,5.41-0.042
			C950.299,614.784,948.721,605.883,948.721,605.883z"/>
		<path fill="#010101" d="M237.936,508.492c-42.507,0-76.964,34.456-76.964,76.974c0,42.497,34.457,76.965,76.964,76.965
			c42.505,0,76.963-34.468,76.963-76.965C314.898,542.949,280.441,508.492,237.936,508.492z M237.936,636.706
			c-28.299,0-51.235-22.95-51.235-51.24c0-28.31,22.936-51.238,51.235-51.238s51.239,22.929,51.239,51.238
			C289.176,613.756,266.235,636.706,237.936,636.706z"/>
	</g>
</g>
</svg>
