<?xml version="1.0" encoding="utf-8"?>
<!-- Generator: Adobe Illustrator 16.0.3, SVG Export Plug-In . SVG Version: 6.00 Build 0)  -->
<!DOCTYPE svg PUBLIC "-//W3C//DTD SVG 1.1//EN" "http://www.w3.org/Graphics/SVG/1.1/DTD/svg11.dtd">
<svg version="1.1" id="Layer_1" xmlns="http://www.w3.org/2000/svg" xmlns:xlink="http://www.w3.org/1999/xlink" x="0px" y="0px"
	 width="300px" height="300px" viewBox="0 0 300 300" enable-background="new 0 0 300 300" xml:space="preserve">
<g id="Layer_1_1_" display="none">
	<path display="inline" d="M248.213,133.367c-9.59-54.39-61.455-90.706-115.846-81.116c-54.39,9.591-90.706,61.456-81.115,115.847
		c9.59,54.389,61.456,90.707,115.846,81.115C221.486,239.623,257.803,187.756,248.213,133.367z M66.628,137.552
		c5.251-34.642,32.013-63.64,68.427-70.06c35.99-6.347,70.664,11.258,87.669,41.363c0,0,8.68,16.596-11.869,11.455
		c-12.977-3.246-49.479-6.386-66.918-3.311c-17.44,3.075-43.941,15.605-61.614,25.068C64.65,151.53,66.628,137.552,66.628,137.552z
		 M145.667,234c-34.263-1.588-64.553-24.172-75.585-57.053c-3.038-10.125,3.479-9.158,10.099-7.604
		c6.621,1.554,47.945,9.677,55.567,27.199c9.742,22.392,10.888,30.894,11.301,33.238C147.462,232.125,145.667,234,145.667,234z
		 M173.654,159.438c-1.527,4.201-4.135,7.924-7.559,10.797c-3.425,2.869-7.541,4.793-11.945,5.567
		c-4.399,0.777-8.926,0.382-13.126-1.147c-4.197-1.525-7.922-4.135-10.793-7.557c-2.873-3.425-4.792-7.543-5.57-11.945
		c-0.774-4.4-0.379-8.929,1.15-13.128c1.525-4.198,4.135-7.921,7.558-10.794c3.423-2.872,7.542-4.792,11.942-5.569
		c4.402-0.775,8.93-0.379,13.13,1.149c4.197,1.527,7.923,4.135,10.791,7.558c2.877,3.423,4.797,7.542,5.57,11.943
		C175.582,150.712,175.184,155.24,173.654,159.438z M182.031,227.588c0,0-2.328-1.148-2.74-3.492
		c-0.414-2.346-2.244-10.725-0.75-35.098c1.17-19.072,37.225-40.843,42.914-44.566c5.689-3.723,11.482-6.861,12.09,3.692
		C234.424,182.795,213.686,214.377,182.031,227.588z M144.122,132.647c-2.396,0.746-4.645,1.97-6.562,3.579
		c-2.544,2.136-4.489,4.912-5.623,8.029c-1.136,3.12-1.431,6.497-0.854,9.767c0.435,2.467,1.371,4.85,2.725,6.959l10.881-12.084
		L144.122,132.647z M153.846,147.281l14.354,7.636c0.552-2.448,0.616-5.008,0.183-7.473c-0.576-3.271-2.01-6.343-4.143-8.884
		c-2.135-2.543-4.912-4.488-8.03-5.623c-2.366-0.86-4.856-1.24-7.391-1.119L153.846,147.281z M136.875,164.634
		c1.843,1.702,4.027,3.037,6.381,3.896c2.078,0.756,4.256,1.14,6.472,1.14l0,0c1.102,0,2.209-0.097,3.292-0.287
		c3.274-0.577,6.347-2.011,8.885-4.143c1.919-1.609,3.515-3.611,4.664-5.841l-15.904-3.381L136.875,164.634z"/>
</g>
<g id="Layer_3">
	<g>
		<g>
			<path d="M116.386,115.981l-10.403-9.292c-17.793-14.872-36.357,9.667-56.907-9.815c-14.499-13.738-19.74-33.6-15.127-51.671
				c0,0,8.06,7.513,27.613,25.743c29.934-6.025,36.86-34.663,36.86-34.663L68.389,8.274c17.706-5.871,38.103-2.27,52.601,11.474
				c20.355,19.283,0.049,44.904,13.767,56.088l8.157,7.863L116.386,115.981z M234.09,167.119l26.35,25.911
				c8.514,7.939,8.985,21.29,1.038,29.809c-7.949,8.515-21.299,8.985-29.812,1.039l-18.286-17.65L234.09,167.119z"/>
		</g>
		<path d="M235.31,142.684c0-8.432-4.78-15.739-11.768-19.39c-0.374-9.815-7.191-17.954-16.349-20.328
			c-0.067-0.062-0.132-0.118-0.193-0.178c-2.433-9.433-10.974-16.408-21.162-16.408c-0.239,0-0.47,0.03-0.707,0.037
			c-0.256-0.148-0.507-0.296-0.76-0.438c-3.857-6.225-10.73-10.39-18.591-10.39c-9.34,0-19.626,16.081-30.087,28.268
			c-3.088,4.111-6.46,8.051-9.23,11.31c-6.05,7.192-7.789,10.523-12.584,7.991c-4.117-2.965-13.334-11.943-15.214-12.918
			c-14.801,17.243-18.895,55.146-14.774,73.743c4.74,21.41-32.035,67.711-32.035,67.711l57.165,44.196
			c1.308,1.311,26.198-35.191,45.583-43.938c33.604-15.163,41.467-27.838,67.869-78.196
			C225.401,168.169,235.31,148.697,235.31,142.684z"/>
	</g>
</g>
<g id="Layer_2" display="none">
	<g display="inline">
		<g>
			<g>
				<path d="M218.271,79.194c0,0-34.112,26.689-41.195,29.665c-4.949,2.099-24.686,2.475-35.865,2.535
					c-7.926-0.373-17.64,0.222-21.023,2.695L61.45,156.756c-5.387,3.918-6.581,10.277-3.227,14.855
					c3.348,4.602,9.675,5.972,15.446,1.75l35.053-25.25l1.005-0.649c-3.132-9.321,1.534-17.121,9.104-19.655
					c1.875-0.653,24.785-2.483,25.437-2.483c0.651,0,2.3,0.562,2.3,2.424c0,1.859-1.908,2.299-1.908,2.299l-22.344,2.075
					c-12.57,1.57-11.321,19.627,0.972,19.798c13.406,0.184,49.091,0.391,56.298,0.11c7.206-0.313,18.67-5.543,18.67-5.543
					l46.862-33.335L218.271,79.194z"/>
			</g>
		</g>
		<g>
			<path d="M186.732,213.965c0,0-83.715-0.023-83.769,0 M79.094,214.695c-1.386-0.199-10.213-1.032-12.566-1.465
				c-2.352-0.432-2.67-1.861-3.05-2.67c-0.886-1.182-2.415-3.178-2.439-3.949c-0.025-0.773-0.467-2.518-0.151-4.256
				c0.315-1.739,4.047-9.797,6.066-10.769c12.948-5.758,39.59-8.146,39.59-8.146l31.162-14.809c14.919-5.689,52.474-1.853,58.785,0
				c6.311,1.854,24.405,10.898,24.405,10.898l14.172,1.992c0,0,2.266,0.281,2.811,1.699c0.672,1.75,0.516,1.848,0.753,3.527
				l0.31,8.012c-0.239,2.247,1.082,1.694,1.634,3.49c0.556,1.792-1.054,5.971-1.411,6.964c-0.482,1.365,0.432,1.81,0.354,2.612
				c-0.395,1.488-1.58,0.626-2.125,0.871c-0.543,0.242-25.748,4.766-26.231,4.894"/>
			<path d="M186.566,213.668c1.718,5.057,6.569,8.702,12.281,8.702c5.745,0,10.613-3.683,12.311-8.775 M79.094,214.695
				c2.042,4.392,6.55,7.443,11.779,7.443c5.517,0,10.226-3.395,12.092-8.175"/>
		</g>
	</g>
</g>
</svg>
