<?xml version="1.0" encoding="utf-8"?>
<!-- Generator: Adobe Illustrator 16.0.3, SVG Export Plug-In . SVG Version: 6.00 Build 0)  -->
<!DOCTYPE svg PUBLIC "-//W3C//DTD SVG 1.1//EN" "http://www.w3.org/Graphics/SVG/1.1/DTD/svg11.dtd">
<svg version="1.1" id="Layer_1" xmlns="http://www.w3.org/2000/svg" xmlns:xlink="http://www.w3.org/1999/xlink" x="0px" y="0px"
	 width="1000px" height="1000px" viewBox="0 0 1000 1000" enable-background="new 0 0 1000 1000" xml:space="preserve">
<g id="Layer_1_1_" display="none">
	<g display="inline">
		<path fill="#010101" d="M272.647,504.938c-32.548,0-58.934,26.383-58.934,58.934c0,32.535,26.386,58.934,58.934,58.934
			c32.551,0,58.937-26.397,58.937-58.934C331.584,531.32,305.198,504.938,272.647,504.938z M272.647,603.104
			c-21.667,0-39.236-17.562-39.236-39.232s17.569-39.24,39.236-39.24c21.671,0,39.231,17.569,39.231,39.24
			C311.879,585.543,294.318,603.104,272.647,603.104z"/>
		<path fill="#010101" d="M780.201,504.938c-32.544,0-58.935,26.383-58.935,58.934c0,32.535,26.391,58.934,58.935,58.934
			c32.551,0,58.939-26.397,58.939-58.934C839.143,531.32,812.752,504.938,780.201,504.938z M780.201,603.104
			c-21.664,0-39.24-17.562-39.24-39.232s17.576-39.24,39.24-39.24c21.67,0,39.23,17.569,39.23,39.24
			C819.433,585.543,801.871,603.104,780.201,603.104z"/>
		<path fill="#010101" d="M884.641,579.502c0.396-4.41-9.632-15.233-9.227-18.039c0.406-2.805,5.213-22.457,4.006-30.467
			c-1.2-8.027-2.4-15.632-4.801-28.064c-2.407-12.433-33.28-23.252-60.142-29.673c-26.858-6.409-143.129-20.844-155.549-21.643
			c-12.429-0.803-79.793-42.905-92.214-49.313c-12.429-6.417-26.868-18.043-96.223-22.458
			c-69.359-4.402-128.689,2.007-154.75,10.832c-26.058,8.813-91.002,41.295-103.832,46.504c-12.826,5.218-63.74,8.821-63.74,8.821
			c-0.458,0.45-0.831,1.05-1.958,2.931c-1.135,1.882-22.903,53.599-27.715,63.223c-4.808,9.615-0.397,14.836,0,22.846
			c0.397,8.027,5.209,29.27,6.409,33.281c1.155,3.817,77.126,12.754,84.086,13.563c-1.609-5.708-2.493-11.739-2.493-17.975
			c0-36.54,29.613-66.157,66.149-66.157c36.532,0,66.148,29.617,66.148,66.157c0,8.132-1.479,15.932-4.163,23.146
			c0.786,0.033,1.558,0.064,2.363,0.105c74.929,3.543,257.576,3.738,382.059,3.381c-3.6-8.147-5.603-17.155-5.603-26.633
			c0-36.54,29.616-66.157,66.147-66.157c36.532,0,66.148,29.617,66.148,66.157c0,9.267-1.913,18.08-5.352,26.09
			c2.709-0.023,4.144-0.041,4.144-0.041C885.84,586.32,884.641,579.502,884.641,579.502z"/>
	</g>
</g>
<g id="Layer_2">
	<g>
		<path fill="#010101" d="M861.446,507.659c-41.752,0-75.607,33.851-75.607,75.604c0,41.764,33.856,75.619,75.607,75.619
			c41.765,0,75.609-33.857,75.609-75.619C937.056,541.51,903.209,507.659,861.446,507.659z M861.446,633.6
			c-27.8,0-50.336-22.535-50.336-50.335c0-27.803,22.536-50.337,50.336-50.337c27.801,0,50.336,22.534,50.336,50.337
			C911.782,611.063,889.247,633.6,861.446,633.6z"/>
		<path fill="#010101" d="M995.434,603.334c0.522-5.658-12.344-19.548-11.821-23.151c0.52-3.604,6.684-28.804,5.138-39.091
			c-1.546-10.286-3.082-20.062-6.164-36.007c-3.089-15.948-42.69-29.831-77.153-38.061c-34.463-8.229-183.634-26.746-199.57-27.773
			c-15.957-1.034-102.366-55.036-118.301-63.271c-4.856-2.501-9.942-5.622-17.18-8.913c-17.17-8.883-66.232-21.112-138.682-24.969
			c-72.523-3.854-246.116,9.003-268.752,11.833c-22.63,2.83-53.548,9.973-65.636,11.519c-12.088,1.541-24.431,7.2-24.431,7.2
			l5.398,3.086c-1.284,0.511-24.63,52.007-42.373,69.238c-17.748,17.227-16.977,24.944-16.464,43.206
			c0.178,6.199-0.276,11.429-1.007,15.779c-2.59,5.849-4.701,10.485-5.932,12.961c-3.132,6.268-3.216,11.069-2.476,15.636
			c-0.793,2.536-1.738,4.719-2.928,5.773c-3.458,3.061,0.26,18.265,2.542,34.724c0.992,7.152,5.75,11.863,10.814,14.902
			c0.1,0.375,0.194,0.709,0.277,0.971c0.303,1.025,4.814,2.341,11.816,3.781c0.986,0.231,1.571,0.323,1.571,0.323l0,0
			c27.336,5.422,87.556,12.5,94.48,13.315c-2.068-7.343-3.201-15.079-3.201-23.078c0-46.871,37.999-84.862,84.873-84.862
			c46.875,0,84.867,37.991,84.867,84.862c0,10.451-1.895,20.446-5.347,29.699c1.014,0.041,2.006,0.084,3.034,0.135
			c96.13,4.543,330.471,4.792,490.17,4.354c-4.615-10.463-7.187-22.015-7.187-34.188c0-46.871,37.993-84.862,84.862-84.862
			c46.88,0,84.874,37.991,84.874,84.862c0,11.894-2.456,23.205-6.864,33.479c3.467-0.02,5.327-0.041,5.327-0.041
			C996.979,612.076,995.434,603.334,995.434,603.334z"/>
		<path fill="#010101" d="M210.273,507.659c-41.757,0-75.609,33.851-75.609,75.604c0,41.764,33.852,75.619,75.609,75.619
			c41.758,0,75.608-33.857,75.608-75.619C285.882,541.51,252.031,507.659,210.273,507.659z M210.273,633.6
			c-27.8,0-50.337-22.535-50.337-50.335c0-27.803,22.537-50.337,50.337-50.337c27.8,0,50.336,22.534,50.336,50.337
			C260.61,611.063,238.073,633.6,210.273,633.6z"/>
	</g>
</g>
</svg>
