<?xml version="1.0" encoding="utf-8"?>
<!-- Generator: Adobe Illustrator 16.0.3, SVG Export Plug-In . SVG Version: 6.00 Build 0)  -->
<!DOCTYPE svg PUBLIC "-//W3C//DTD SVG 1.1//EN" "http://www.w3.org/Graphics/SVG/1.1/DTD/svg11.dtd">
<svg version="1.1" xmlns="http://www.w3.org/2000/svg" xmlns:xlink="http://www.w3.org/1999/xlink" x="0px" y="0px" width="1000px"
	 height="1000px" viewBox="0 0 1000 1000" enable-background="new 0 0 1000 1000" xml:space="preserve">
<g id="Layer_1" display="none">
	<g display="inline">
		<path fill="#010101" d="M272.647,504.938c-32.548,0-58.934,26.383-58.934,58.934c0,32.535,26.386,58.934,58.934,58.934
			c32.551,0,58.937-26.398,58.937-58.934C331.584,531.32,305.198,504.938,272.647,504.938z M272.647,603.104
			c-21.667,0-39.236-17.561-39.236-39.232c0-21.671,17.569-39.24,39.236-39.24c21.671,0,39.231,17.569,39.231,39.24
			C311.879,585.543,294.318,603.104,272.647,603.104z"/>
		<path fill="#010101" d="M780.201,504.938c-32.544,0-58.934,26.383-58.934,58.934c0,32.535,26.39,58.934,58.934,58.934
			c32.551,0,58.94-26.398,58.94-58.934C839.142,531.32,812.752,504.938,780.201,504.938z M780.201,603.104
			c-21.664,0-39.24-17.561-39.24-39.232c0-21.671,17.576-39.24,39.24-39.24c21.67,0,39.231,17.569,39.231,39.24
			C819.433,585.543,801.871,603.104,780.201,603.104z"/>
		<path fill="#010101" d="M884.641,579.502c0.396-4.41-9.632-15.233-9.227-18.039c0.406-2.805,5.213-22.457,4.006-30.467
			c-1.2-8.027-2.4-15.632-4.801-28.064c-2.407-12.433-33.28-23.252-60.141-29.673c-26.859-6.409-143.129-20.844-155.549-21.643
			c-12.429-0.803-79.793-42.905-92.214-49.313c-12.429-6.417-26.868-18.043-96.223-22.458
			c-69.359-4.402-128.689,2.007-154.75,10.832c-26.058,8.813-91.002,41.295-103.832,46.504c-12.826,5.217-63.74,8.821-63.74,8.821
			c-0.458,0.45-0.831,1.05-1.958,2.931c-1.135,1.881-22.903,53.598-27.715,63.222c-4.808,9.615-0.397,14.836,0,22.846
			c0.397,8.027,5.209,29.269,6.409,33.281c1.155,3.818,77.126,12.754,84.086,13.564c-1.609-5.708-2.493-11.74-2.493-17.975
			c0-36.54,29.613-66.157,66.149-66.157c36.532,0,66.148,29.617,66.148,66.157c0,8.132-1.479,15.932-4.163,23.146
			c0.786,0.033,1.557,0.064,2.363,0.105c74.929,3.543,257.576,3.738,382.059,3.381c-3.6-8.148-5.603-17.155-5.603-26.633
			c0-36.54,29.616-66.157,66.148-66.157s66.148,29.617,66.148,66.157c0,9.267-1.913,18.08-5.351,26.09
			c2.708-0.024,4.143-0.041,4.143-0.041C885.84,586.32,884.641,579.502,884.641,579.502z"/>
	</g>
</g>
<g id="Layer_2">
	<g display="none">
		<path display="inline" fill="#010101" d="M781.883,506c-32.547,0-58.939,26.388-58.939,58.936
			c0,32.555,26.393,58.947,58.939,58.947c32.556,0,58.939-26.393,58.939-58.947C840.822,532.388,814.438,506,781.883,506z
			 M781.883,604.174c-21.671,0-39.238-17.567-39.238-39.238c0-21.672,17.567-39.239,39.238-39.239s39.238,17.567,39.238,39.239
			C821.121,586.606,803.554,604.174,781.883,604.174z"/>
		<path display="inline" fill="#010101" d="M886.329,580.581c0.407-4.411-9.622-15.238-9.215-18.047
			c0.406-2.809,5.21-22.453,4.005-30.472s-2.402-15.639-4.804-28.069c-2.409-12.431-33.279-23.254-60.144-29.669
			c-26.864-6.415-143.147-20.849-155.57-21.65c-12.439-0.806-79.797-42.902-92.219-49.321c-3.785-1.95-7.75-4.383-13.392-6.948
			c-13.384-6.924-51.63-16.457-108.106-19.464c-56.534-3.004-191.854,7.018-209.5,9.224c-17.641,2.206-41.742,7.774-51.165,8.979
			c-9.423,1.201-19.045,5.613-19.045,5.613l4.208,2.406c-1.001,0.398-19.2,40.541-33.031,53.973
			c-13.835,13.428-13.233,19.444-12.834,33.679c0.139,4.832-0.215,8.91-0.785,12.3c-2.019,4.56-3.664,8.174-4.624,10.104
			c-2.442,4.885-2.507,8.629-1.93,12.188c-0.619,1.978-1.355,3.679-2.283,4.501c-2.695,2.386,0.203,14.238,1.982,27.068
			c0.773,5.576,4.482,9.248,8.43,11.617c0.078,0.292,0.151,0.553,0.216,0.757c0.236,0.798,3.753,1.824,9.211,2.947
			c0.769,0.18,1.225,0.252,1.225,0.252l0,0c21.309,4.226,68.252,9.744,73.65,10.38c-1.612-5.724-2.495-11.755-2.495-17.991
			c0-36.537,29.621-66.152,66.16-66.152c36.54,0,66.156,29.615,66.156,66.152c0,8.148-1.477,15.939-4.168,23.152
			c0.79,0.032,1.563,0.065,2.365,0.105c74.936,3.541,257.611,3.736,382.101,3.395c-3.598-8.156-5.602-17.161-5.602-26.652
			c0-36.537,29.616-66.152,66.152-66.152c36.544,0,66.161,29.615,66.161,66.152c0,9.272-1.914,18.089-5.35,26.099
			c2.702-0.016,4.152-0.032,4.152-0.032C887.534,587.396,886.329,580.581,886.329,580.581z"/>
		<path display="inline" fill="#010101" d="M274.276,506c-32.551,0-58.939,26.388-58.939,58.936
			c0,32.555,26.388,58.947,58.939,58.947s58.939-26.393,58.939-58.947C333.215,532.388,306.827,506,274.276,506z M274.276,604.174
			c-21.671,0-39.239-17.567-39.239-39.238c0-21.672,17.568-39.239,39.239-39.239s39.239,17.567,39.239,39.239
			C313.515,586.606,295.947,604.174,274.276,604.174z"/>
	</g>
	<g display="none">
		<path display="inline" fill="#010101" d="M742.436,506.775c-32.983,0-59.714,26.731-59.714,59.715
			c0,32.968,26.73,59.707,59.714,59.707c32.968,0,59.699-26.739,59.699-59.707C802.135,533.507,775.403,506.775,742.436,506.775z
			 M742.436,606.241c-21.961,0-39.751-17.805-39.751-39.751c0-21.962,17.79-39.75,39.751-39.75c21.946,0,39.751,17.788,39.751,39.75
			C782.187,588.437,764.382,606.241,742.436,606.241z"/>
		<path display="inline" fill="#010101" d="M848.234,582.329c0.41-4.472-9.748-15.436-9.338-18.28
			c0.411-2.844,5.277-22.743,4.069-30.863c-1.226-8.122-2.442-15.848-4.883-28.439c-2.433-12.592-33.708-23.558-60.923-30.055
			s-106.805-21.12-119.397-21.93c-12.593-0.817-80.831-43.46-93.424-49.966c-3.826-1.974-7.846-4.439-13.559-7.038
			c-13.559-7.013-52.299-16.668-109.512-19.718c-57.27-3.041-147.083,7.11-164.961,9.345c-17.869,2.236-19.085,6.7-28.632,7.92
			c-9.543,1.216-19.291,5.688-19.291,5.688l4.262,2.437c-1.015,0.403-42.647,42.245-56.657,55.847
			c-14.019,13.604-13.406,19.698-13.003,34.119c0.141,4.895-0.217,9.027-0.793,12.464c-2.046,4.624-3.714,8.281-4.685,10.231
			c-2.474,4.946-2.542,8.741-1.954,12.343c-0.629,2.006-1.374,3.738-2.317,4.56c-2.727,2.417,0.21,14.421,2.01,27.425
			c0.782,5.646,4.54,9.361,8.54,11.763c0.077,0.306,0.153,0.563,0.218,0.773c0.237,0.806,3.803,1.844,9.329,2.989
			c0.782,0.177,1.245,0.248,1.245,0.248l0,0c21.583,4.287,52.286,9.878,57.753,10.507c-1.631-5.785-2.53-11.893-2.53-18.208
			c0-37.011,30.006-67.021,67.022-67.021c37.015,0,67.018,30.011,67.018,67.021c0,8.25-1.499,16.145-4.222,23.444
			c0.798,0.032,1.583,0.073,2.396,0.113c75.909,3.585,192.357,3.771,318.465,3.433c-3.641-8.267-5.671-17.387-5.671-26.99
			c0-37.011,30.002-67.021,67.014-67.021s67.014,30.011,67.014,67.021c0,9.386-1.934,18.32-5.414,26.426
			c2.738-0.016,4.197-0.032,4.197-0.032C849.459,589.234,848.234,582.329,848.234,582.329z"/>
		<path display="inline" fill="#010101" d="M296.824,506.775c-32.976,0-59.707,26.731-59.707,59.715
			c0,32.968,26.731,59.707,59.707,59.707c32.975,0,59.706-26.739,59.706-59.707C356.53,533.507,329.799,506.775,296.824,506.775z
			 M296.824,606.241c-21.954,0-39.747-17.805-39.747-39.751c0-21.962,17.793-39.75,39.747-39.75c21.954,0,39.75,17.788,39.75,39.75
			C336.575,588.437,318.778,606.241,296.824,606.241z"/>
	</g>
	<g>
		<path fill="#010101" d="M888.4,548.438c-1.061-5.525-9.988-20.184-9.988-20.184s3.617-12.317-7.012-37.186
			c-10.623-24.854-83.504-41-87.113-42.702c-3.609-1.698-13.599-3.399-33.568-20.824c-19.977-17.421-108.158-67.99-108.158-67.99
			c-31.866-21.889-52.271-20.824-92.004-24.224c-39.727-3.399-276.219-8.924-309.366-8.924c-33.145,0-59.917,12.75-59.917,12.75
			s-20.4-1.277-28.685,0c-8.287,1.271-20.396,62.466-26.135,87.327c-5.738,24.861-4.46,85.419-4.46,103.9
			c0,18.489-9.562,33.147-9.562,33.147c-1.278,7.434,0,8.074,4.46,17.422c4.46,9.354,77.979,12.751,101.565,12.751
			c0.138,0,0.307,0,0.476,0c-0.868-4.292-1.326-8.729-1.326-13.281c0-36.792,29.824-66.613,66.612-66.613
			c36.789,0,66.609,29.821,66.609,66.613c0,4.704-0.496,9.3-1.423,13.729c137.803,0.523,336.821,8.97,357.329,9.106
			c5.579,0.042,13.198,0.187,21.988,0.387c-2.397-6.875-3.72-14.253-3.72-21.947c0-36.785,29.827-66.613,66.612-66.613
			c36.792,0,66.612,29.828,66.612,66.613c0,7.742-1.336,15.168-3.761,22.07c10.773-1.763,22.933-4.215,25.86-6.033
			c4.463-2.756,5.311-6.373,4.25-8.074c-1.068-1.694-1.702-5.944,0.847-15.72C887.974,564.171,889.462,553.962,888.4,548.438z"/>
		<path fill="#010101" d="M284.22,524.644c-30.806,0-55.777,24.979-55.777,55.777c0,30.806,24.971,55.776,55.777,55.776
			c30.803,0,55.773-24.971,55.773-55.776C339.993,549.622,315.022,524.644,284.22,524.644z M284.22,617.075
			c-20.242,0-36.654-16.409-36.654-36.654c0-20.246,16.412-36.654,36.654-36.654s36.651,16.408,36.651,36.654
			C320.871,600.666,304.462,617.075,284.22,617.075z"/>
		<path fill="#010101" d="M791.864,524.644c-30.799,0-55.771,24.972-55.771,55.777c0,30.799,24.972,55.776,55.771,55.776
			c30.806,0,55.784-24.978,55.784-55.776C847.648,549.615,822.67,524.644,791.864,524.644z M791.864,617.075
			c-20.239,0-36.647-16.409-36.647-36.654s16.408-36.654,36.647-36.654c20.245,0,36.661,16.409,36.661,36.654
			S812.109,617.075,791.864,617.075z"/>
	</g>
</g>
</svg>
