<?xml version="1.0" encoding="utf-8"?>
<!-- Generator: Adobe Illustrator 16.0.3, SVG Export Plug-In . SVG Version: 6.00 Build 0)  -->
<!DOCTYPE svg PUBLIC "-//W3C//DTD SVG 1.1//EN" "http://www.w3.org/Graphics/SVG/1.1/DTD/svg11.dtd">
<svg version="1.1" id="Layer_1" xmlns="http://www.w3.org/2000/svg" xmlns:xlink="http://www.w3.org/1999/xlink" x="0px" y="0px"
	 width="1000px" height="1000px" viewBox="0 0 1000 1000" enable-background="new 0 0 1000 1000" xml:space="preserve">
<g>
	<path fill="#010101" d="M206.828,506.188c-41.952,0-75.961,34.005-75.961,75.96c0,41.936,34.01,75.961,75.961,75.961
		c41.956,0,75.965-34.024,75.965-75.961C282.792,540.192,248.783,506.188,206.828,506.188z M206.828,632.716
		c-27.927,0-50.572-22.635-50.572-50.567c0-27.932,22.645-50.577,50.572-50.577c27.932,0,50.565,22.646,50.565,50.577
		C257.394,610.081,234.759,632.716,206.828,632.716z"/>
	<path fill="#010101" d="M861.023,506.188c-41.946,0-75.962,34.005-75.962,75.96c0,41.936,34.016,75.961,75.962,75.961
		c41.955,0,75.968-34.024,75.968-75.961C936.994,540.192,902.979,506.188,861.023,506.188z M861.023,632.716
		c-27.923,0-50.577-22.635-50.577-50.567c0-27.932,22.654-50.577,50.577-50.577c27.931,0,50.564,22.646,50.564,50.577
		C911.59,610.081,888.954,632.716,861.023,632.716z"/>
	<path fill="#010101" d="M995.638,602.295c0.511-5.685-12.415-19.635-11.893-23.251c0.523-3.615,6.719-28.945,5.163-39.27
		c-1.547-10.347-3.094-20.148-6.188-36.173c-3.103-16.024-42.896-29.97-77.518-38.246c-34.618-8.261-184.481-26.866-200.49-27.896
		c-16.02-1.034-102.847-55.301-118.855-63.56c-16.021-8.271-34.631-23.257-124.023-28.947
		c-89.399-5.674-165.871,2.587-199.46,13.961c-33.586,11.36-117.294,53.226-133.831,59.94c-16.532,6.725-82.156,11.37-82.156,11.37
		c-0.59,0.581-1.071,1.354-2.524,3.777c-1.462,2.426-29.52,69.085-35.722,81.489c-6.197,12.394-0.512,19.122,0,29.446
		c0.512,10.347,6.714,37.726,8.26,42.896c1.489,4.921,99.41,16.438,108.381,17.482c-2.075-7.357-3.213-15.131-3.213-23.168
		c0-47.097,38.168-85.271,85.26-85.271c47.086,0,85.259,38.174,85.259,85.271c0,10.481-1.906,20.535-5.366,29.833
		c1.013,0.043,2.008,0.083,3.046,0.136c96.577,4.566,331.995,4.818,492.443,4.357c-4.64-10.501-7.222-22.111-7.222-34.327
		c0-47.098,38.173-85.271,85.259-85.271c47.087,0,85.26,38.174,85.26,85.271c0,11.943-2.466,23.304-6.897,33.628
		c3.491-0.03,5.341-0.054,5.341-0.054C997.183,611.083,995.638,602.295,995.638,602.295z"/>
</g>
</svg>
