<?xml version="1.0" encoding="utf-8"?>
<!-- Generator: Adobe Illustrator 16.0.3, SVG Export Plug-In . SVG Version: 6.00 Build 0)  -->
<!DOCTYPE svg PUBLIC "-//W3C//DTD SVG 1.1//EN" "http://www.w3.org/Graphics/SVG/1.1/DTD/svg11.dtd">
<svg version="1.1" id="Layer_1" xmlns="http://www.w3.org/2000/svg" xmlns:xlink="http://www.w3.org/1999/xlink" x="0px" y="0px"
	 width="1000px" height="1000px" viewBox="0 0 1000 1000" enable-background="new 0 0 1000 1000" xml:space="preserve">
<g id="Layer_1_1_" display="none">
	<g display="inline">
		<path fill="#010101" d="M272.647,504.938c-32.548,0-58.934,26.383-58.934,58.934c0,32.535,26.386,58.934,58.934,58.934
			c32.551,0,58.937-26.397,58.937-58.934C331.584,531.32,305.198,504.938,272.647,504.938z M272.647,603.104
			c-21.667,0-39.236-17.562-39.236-39.232s17.569-39.24,39.236-39.24c21.671,0,39.231,17.569,39.231,39.24
			C311.879,585.543,294.318,603.104,272.647,603.104z"/>
		<path fill="#010101" d="M780.201,504.938c-32.544,0-58.935,26.383-58.935,58.934c0,32.535,26.391,58.934,58.935,58.934
			c32.551,0,58.939-26.397,58.939-58.934C839.143,531.32,812.752,504.938,780.201,504.938z M780.201,603.104
			c-21.664,0-39.24-17.562-39.24-39.232s17.576-39.24,39.24-39.24c21.67,0,39.23,17.569,39.23,39.24
			C819.433,585.543,801.871,603.104,780.201,603.104z"/>
		<path fill="#010101" d="M884.641,579.502c0.396-4.41-9.632-15.233-9.227-18.039c0.406-2.805,5.213-22.457,4.006-30.467
			c-1.2-8.027-2.4-15.632-4.801-28.064c-2.407-12.433-33.28-23.252-60.142-29.673c-26.858-6.409-143.129-20.844-155.549-21.643
			c-12.429-0.803-79.793-42.905-92.214-49.313c-12.429-6.417-26.868-18.043-96.223-22.458
			c-69.359-4.402-128.689,2.007-154.75,10.832c-26.058,8.813-91.002,41.295-103.832,46.504c-12.826,5.218-63.74,8.821-63.74,8.821
			c-0.458,0.45-0.831,1.05-1.958,2.931c-1.135,1.882-22.903,53.599-27.715,63.223c-4.808,9.615-0.397,14.836,0,22.846
			c0.397,8.027,5.209,29.27,6.409,33.281c1.155,3.817,77.126,12.754,84.086,13.563c-1.609-5.708-2.493-11.739-2.493-17.975
			c0-36.54,29.613-66.157,66.149-66.157c36.532,0,66.148,29.617,66.148,66.157c0,8.132-1.479,15.932-4.163,23.146
			c0.786,0.033,1.558,0.064,2.363,0.105c74.929,3.543,257.576,3.738,382.059,3.381c-3.6-8.147-5.603-17.155-5.603-26.633
			c0-36.54,29.616-66.157,66.147-66.157c36.532,0,66.148,29.617,66.148,66.157c0,9.267-1.913,18.08-5.352,26.09
			c2.709-0.023,4.144-0.041,4.144-0.041C885.84,586.32,884.641,579.502,884.641,579.502z"/>
	</g>
</g>
<g id="Layer_2">
	<g display="none">
		<path display="inline" fill="#010101" d="M846.418,511.654c-39.998,0-72.433,32.43-72.433,72.429
			c0,40.01,32.436,72.443,72.433,72.443c40.01,0,72.434-32.436,72.434-72.443C918.852,544.084,886.426,511.654,846.418,511.654z
			 M846.418,632.305c-26.633,0-48.222-21.588-48.222-48.22c0-26.635,21.589-48.224,48.222-48.224
			c26.632,0,48.222,21.589,48.222,48.224C894.64,610.716,873.05,632.305,846.418,632.305z"/>
		<path display="inline" fill="#010101" d="M974.776,603.311c0.501-5.421-11.825-18.727-11.324-22.179
			c0.498-3.452,6.402-27.594,4.922-37.449c-1.481-9.854-2.952-19.219-5.905-34.494c-2.959-15.278-40.896-28.578-73.913-36.461
			c-33.015-7.884-175.92-25.623-191.187-26.607c-15.287-0.99-98.066-52.724-113.332-60.613c-4.652-2.396-9.524-5.386-16.458-8.539
			c-16.449-8.509-63.45-20.225-132.856-23.92c-69.478-3.692-235.778,8.625-257.464,11.336c-21.679,2.711-51.298,9.554-62.879,11.035
			c-11.58,1.476-23.405,6.898-23.405,6.898l5.171,2.957c-1.23,0.489-23.596,49.823-40.593,66.33
			C38.55,468.106,39.29,475.5,39.78,492.994c0.171,5.938-0.265,10.949-0.965,15.116c-2.481,5.604-4.503,10.045-5.683,12.417
			c-3.001,6.004-3.081,10.604-2.372,14.979c-0.76,2.431-1.665,4.521-2.805,5.532c-3.313,2.932,0.249,17.496,2.436,33.264
			c0.95,6.854,5.508,11.365,10.36,14.277c0.096,0.358,0.186,0.679,0.266,0.93c0.29,0.981,4.612,2.242,11.32,3.622
			c0.945,0.222,1.505,0.31,1.505,0.31l0,0c26.188,5.194,83.878,11.976,90.512,12.757c-1.98-7.034-3.066-14.446-3.066-22.109
			c0-44.902,36.403-81.298,81.307-81.298c44.907,0,81.302,36.396,81.302,81.298c0,10.013-1.815,19.588-5.123,28.452
			c0.971,0.039,1.921,0.08,2.907,0.129c92.092,4.352,316.59,4.591,469.581,4.172c-4.422-10.023-6.885-21.09-6.885-32.753
			c0-44.902,36.397-81.298,81.298-81.298c44.911,0,81.309,36.396,81.309,81.298c0,11.395-2.353,22.23-6.575,32.074
			c3.32-0.02,5.103-0.04,5.103-0.04C976.258,611.686,974.776,603.311,974.776,603.311z"/>
		<path display="inline" fill="#010101" d="M222.597,511.654c-40.003,0-72.433,32.43-72.433,72.429
			c0,40.01,32.43,72.443,72.433,72.443c40.004,0,72.433-32.436,72.433-72.443C295.03,544.084,262.601,511.654,222.597,511.654z
			 M222.597,632.305c-26.632,0-48.222-21.588-48.222-48.22c0-26.635,21.59-48.224,48.222-48.224s48.223,21.589,48.223,48.224
			C270.819,610.716,249.229,632.305,222.597,632.305z"/>
	</g>
	<g display="none">
		<path display="inline" fill="#010101" d="M797.939,512.607c-40.533,0-73.385,32.851-73.385,73.387
			c0,40.516,32.85,73.377,73.385,73.377c40.517,0,73.367-32.861,73.367-73.377C871.307,545.459,838.455,512.607,797.939,512.607z
			 M797.939,634.846c-26.989,0-48.852-21.881-48.852-48.852c0-26.99,21.862-48.851,48.852-48.851
			c26.971,0,48.852,21.86,48.852,48.851C846.792,612.965,824.91,634.846,797.939,634.846z"/>
		<path display="inline" fill="#010101" d="M927.96,605.459c0.504-5.495-11.979-18.971-11.476-22.466
			c0.504-3.494,6.484-27.949,5-37.929c-1.506-9.981-3-19.476-6.001-34.949c-2.99-15.475-41.425-28.953-74.871-36.936
			c-33.445-7.985-131.258-25.956-146.732-26.952c-15.476-1.003-99.337-53.41-114.813-61.405c-4.702-2.426-9.643-5.456-16.663-8.649
			c-16.664-8.618-64.273-20.484-134.585-24.232c-70.381-3.737-180.756,8.737-202.728,11.484c-21.96,2.749-23.455,8.234-35.188,9.734
			c-11.728,1.494-23.708,6.99-23.708,6.99l5.238,2.995c-1.247,0.495-52.411,51.917-69.628,68.633
			c-17.229,16.718-16.475,24.207-15.98,41.931c0.174,6.015-0.266,11.093-0.974,15.317c-2.515,5.683-4.564,10.176-5.758,12.572
			c-3.041,6.079-3.124,10.743-2.401,15.169c-0.773,2.466-1.689,4.594-2.848,5.604c-3.351,2.971,0.258,17.723,2.471,33.704
			c0.96,6.938,5.58,11.504,10.495,14.455c0.094,0.377,0.188,0.692,0.268,0.951c0.291,0.989,4.674,2.266,11.465,3.673
			c0.961,0.218,1.53,0.305,1.53,0.305l0,0c26.524,5.27,64.256,12.14,70.975,12.913c-2.005-7.11-3.109-14.617-3.109-22.377
			c0-45.484,36.876-82.365,82.366-82.365c45.49,0,82.361,36.882,82.361,82.365c0,10.139-1.842,19.841-5.188,28.811
			c0.98,0.04,1.945,0.09,2.944,0.14c93.288,4.405,236.396,4.635,391.376,4.22c-4.475-10.161-6.97-21.369-6.97-33.17
			c0-45.484,36.871-82.365,82.357-82.365c45.485,0,82.356,36.882,82.356,82.365c0,11.534-2.378,22.515-6.653,32.476
			c3.365-0.019,5.158-0.039,5.158-0.039C929.465,613.945,927.96,605.459,927.96,605.459z"/>
		<path display="inline" fill="#010101" d="M250.308,512.607c-40.526,0-73.377,32.851-73.377,73.387
			c0,40.516,32.851,73.377,73.377,73.377c40.524,0,73.375-32.861,73.375-73.377C323.683,545.459,290.832,512.607,250.308,512.607z
			 M250.308,634.846c-26.98,0-48.847-21.881-48.847-48.852c0-26.99,21.867-48.851,48.847-48.851s48.851,21.86,48.851,48.851
			C299.159,612.965,277.288,634.846,250.308,634.846z"/>
	</g>
	<g display="none">
		<path display="inline" fill="#010101" d="M977.322,563.81c-1.305-6.791-12.275-24.806-12.275-24.806s4.445-15.138-8.617-45.699
			c-13.055-30.545-102.621-50.387-107.057-52.479c-4.437-2.087-16.713-4.178-41.254-25.592
			c-24.551-21.41-132.921-83.557-132.921-83.557c-39.16-26.9-64.237-25.591-113.067-29.77
			c-48.822-4.177-339.458-10.967-380.193-10.967c-40.733,0-73.635,15.669-73.635,15.669s-25.07-1.569-35.252,0
			c-10.185,1.562-25.065,76.768-32.118,107.321c-7.052,30.552-5.481,104.976-5.481,127.687c0,22.723-11.751,40.736-11.751,40.736
			c-1.571,9.136,0,9.922,5.481,21.411c5.481,11.495,95.832,15.67,124.818,15.67c0.17,0,0.377,0,0.585,0
			c-1.067-5.274-1.629-10.728-1.629-16.321c0-45.216,36.652-81.864,81.863-81.864s81.858,36.648,81.858,81.864
			c0,5.78-0.61,11.429-1.749,16.872c169.352,0.643,413.935,11.023,439.138,11.19c6.855,0.052,16.219,0.23,27.021,0.476
			c-2.945-8.449-4.571-17.517-4.571-26.972c0-45.206,36.655-81.863,81.862-81.863c45.216,0,81.863,36.657,81.863,81.863
			c0,9.514-1.644,18.641-4.623,27.122c13.24-2.166,28.184-5.18,31.781-7.414c5.484-3.387,6.526-7.831,5.223-9.922
			c-1.313-2.082-2.092-7.305,1.041-19.318C976.798,583.144,978.627,570.598,977.322,563.81z"/>
		<path display="inline" fill="#010101" d="M234.818,534.566c-37.859,0-68.547,30.699-68.547,68.548
			c0,37.858,30.688,68.546,68.547,68.546c37.855,0,68.542-30.688,68.542-68.546C303.36,565.264,272.671,534.566,234.818,534.566z
			 M234.818,648.16c-24.876,0-45.046-20.166-45.046-45.046c0-24.882,20.169-45.046,45.046-45.046
			c24.876,0,45.042,20.164,45.042,45.046C279.86,627.994,259.694,648.16,234.818,648.16z"/>
		<path display="inline" fill="#010101" d="M858.685,534.566c-37.851,0-68.54,30.69-68.54,68.548
			c0,37.85,30.689,68.546,68.54,68.546c37.858,0,68.556-30.697,68.556-68.546C927.24,565.256,896.543,534.566,858.685,534.566z
			 M858.685,648.16c-24.873,0-45.038-20.166-45.038-45.046c0-24.881,20.165-45.046,45.038-45.046
			c24.88,0,45.055,20.165,45.055,45.046C903.739,627.994,883.564,648.16,858.685,648.16z"/>
	</g>
	<g display="none">
		<path display="inline" fill="#010101" d="M831.105,518.593c-39.164,0-70.906,31.753-70.906,70.905
			c0,39.164,31.742,70.907,70.906,70.907s70.905-31.743,70.905-70.907C902.011,550.345,870.27,518.593,831.105,518.593z
			 M831.105,644.042c-30.124,0-54.544-24.419-54.544-54.544c0-30.123,24.42-54.544,54.544-54.544
			c30.123,0,54.544,24.421,54.544,54.544C885.649,619.623,861.229,644.042,831.105,644.042z"/>
		<path display="inline" fill="#010101" d="M218.171,518.593c-39.158,0-70.905,31.753-70.905,70.905
			c0,39.164,31.747,70.907,70.905,70.907c39.164,0,70.912-31.743,70.912-70.907C289.083,550.345,257.335,518.593,218.171,518.593z
			 M218.171,644.042c-30.124,0-54.544-24.419-54.544-54.544c0-30.123,24.42-54.544,54.544-54.544
			c30.124,0,54.545,24.421,54.545,54.544C272.717,619.623,248.295,644.042,218.171,644.042z"/>
		<path display="inline" fill="#010101" d="M967.426,594.959c-3.438-2.386-2.346-27.616-0.646-31.367
			c1.699-3.751-0.344-15.674-1.7-22.834c-1.374-7.169-12.963-12.62-12.963-12.62s0.688-9.206-8.516-29.32
			c-9.201-20.107-232.841-51.475-244.772-52.836c-11.932-1.365-34.766-13.296-68.175-32.383
			c-33.412-19.092-79.766-34.432-87.27-38.523c-7.501-4.089-18.403,0-18.403,0s-7.16,6.816-7.16,8.864
			c0,2.042,3.064,7.159-0.688,9.202c-3.741,2.048-4.43,12.812-4.43,12.812l74.325,35.938l-9.213,5.794
			c0,0-68.181-6.139-106.359-8.52c-38.178-2.391-145.563-6.139-153.406-6.139c-7.837,0-8.52-6.476-10.905-8.18
			c-2.387-1.704-6.482-9.55-6.482-9.55s-15.339,2.73-18.747-1.36c-3.406-4.09-8.519-8.864-16.36-7.842
			c-7.842,1.026-7.842,8.868-12.953,11.594s-33.412,8.182-57.615,8.182c-24.198,0-116.581,15.678-125.789,16.021
			c-9.201,0.34-25.908,47.725-27.271,56.588c-1.359,8.863-17.044,28.294-17.044,28.294v28.292
			c5.795,23.864,19.092,34.432,28.632,37.161c9.03,2.569,79,12.781,86.59,13.873c-1.112-5.357-1.705-10.91-1.705-16.604
			c0-44.807,36.328-81.135,81.135-81.135c44.811,0,81.128,36.328,81.128,81.135c0,9.697-1.703,18.991-4.823,27.605
			c61.298,0,205.317,0,299.015,0c48.07,0,106.55,0,159.941,0c-3.124-8.614-4.823-17.908-4.823-27.605
			c0-44.807,36.323-81.135,81.13-81.135c44.806,0,81.131,36.328,81.131,81.135c0,9.697-1.7,18.991-4.825,27.605
			c0.577,0,0.96,0,1.083,0c3.397,0,61.015-11.578,65.446-14.651C978.367,599.388,970.865,597.345,967.426,594.959z"/>
	</g>
	<g>
		<path fill="#010101" d="M986.233,585.646c0-4.144,5.382-28.959,4.938-38.147c-0.446-9.197-11.678-15.627-11.678-15.627
			s-1.8-3.214-7.629-28.03c-5.839-24.814-144.631-38.603-190.891-45.036c-46.262-6.429-92.067-11.028-105.09-11.489
			c-13.021-0.461-41.768-26.194-119.456-62.037c-77.698-35.843-169.76-27.11-238.924-19.302
			c-69.164,7.813-180.086,58.364-191.767,62.498c-11.673,4.133-78.139,8.729-78.139,8.729
			c-15.723,26.66-11.226,62.502-13.027,70.316c-1.792,7.813-9.875,11.028-16.615,15.161c-6.733,4.135-11.797,40.238-11.797,42.997
			c0,2.761,10.78,22.057,18.415,28.95c6.448,5.829,83.604,9.421,103.123,11.9c-1.709-6.673-2.633-13.671-2.633-20.884
			c0-45.313,35.892-82.035,80.167-82.035c44.271,0,80.163,36.723,80.163,82.035c0,11.696-2.416,22.829-6.734,32.899
			c6.386,0.214,11.972,0.291,16.393,0.176c26.185-0.62,279.744-0.388,440.329-0.176c-4.31-10.078-6.729-21.203-6.729-32.899
			c0-45.313,35.892-82.035,80.167-82.035c44.266,0,80.166,36.723,80.166,82.035c0,10.998-2.139,21.484-5.983,31.079
			c18.938-3.32,105.961-0.892,109.58-4.57C997.562,607.101,986.233,589.771,986.233,585.646z"/>
		<path fill="#010101" d="M809.265,515.334c-39.579,0-71.686,32.086-71.686,71.687c0,39.58,32.106,71.686,71.686,71.686
			c39.599,0,71.695-32.105,71.695-71.686C880.96,547.423,848.863,515.334,809.265,515.334z M809.265,642.159
			c-30.449,0-55.139-24.69-55.139-55.139c0-30.46,24.689-55.149,55.139-55.149c30.459,0,55.149,24.689,55.149,55.149
			C864.414,617.47,839.726,642.159,809.265,642.159z"/>
		<path fill="#010101" d="M204.85,515.334c-39.594,0-71.69,32.086-71.69,71.687c0,39.58,32.097,71.686,71.69,71.686
			c39.59,0,71.686-32.105,71.686-71.686C276.536,547.423,244.44,515.334,204.85,515.334z M204.85,642.159
			c-30.459,0-55.144-24.69-55.144-55.139c0-30.46,24.685-55.149,55.144-55.149c30.455,0,55.144,24.689,55.144,55.149
			C259.994,617.47,235.305,642.159,204.85,642.159z"/>
	</g>
</g>
</svg>
