<?xml version="1.0" encoding="utf-8"?>
<!-- Generator: Adobe Illustrator 16.0.3, SVG Export Plug-In . SVG Version: 6.00 Build 0)  -->
<!DOCTYPE svg PUBLIC "-//W3C//DTD SVG 1.1//EN" "http://www.w3.org/Graphics/SVG/1.1/DTD/svg11.dtd">
<svg version="1.1" id="Layer_1" xmlns="http://www.w3.org/2000/svg" xmlns:xlink="http://www.w3.org/1999/xlink" x="0px" y="0px"
	 width="300px" height="300px" viewBox="0 0 300 300" enable-background="new 0 0 300 300" xml:space="preserve">
<g id="Layer_1_1_">
	<path d="M290.553,125.901C276.84,48.127,202.676-3.802,124.901,9.911C47.127,23.625-4.802,97.789,8.912,175.563
		c13.713,77.772,87.878,129.705,165.651,115.989C252.336,277.84,304.266,203.674,290.553,125.901z M30.899,131.885
		c7.508-49.535,45.776-91,97.846-100.18c51.463-9.076,101.044,16.098,125.361,59.146c0,0,12.411,23.731-16.973,16.38
		c-18.556-4.642-70.752-9.132-95.688-4.734c-24.938,4.397-62.832,22.314-88.103,35.845C28.07,151.873,30.899,131.885,30.899,131.885
		z M143.919,269.799c-48.994-2.271-92.306-34.563-108.081-81.581c-4.344-14.478,4.975-13.096,14.441-10.874
		s68.558,13.837,79.457,38.894c13.931,32.018,15.569,44.175,16.159,47.528C146.486,267.118,143.919,269.799,143.919,269.799z
		 M183.939,163.18c-2.185,6.008-5.913,11.331-10.809,15.439c-4.897,4.103-10.783,6.854-17.081,7.961
		c-6.291,1.111-12.764,0.546-18.77-1.641c-6.001-2.182-11.328-5.913-15.433-10.806c-4.108-4.897-6.852-10.786-7.964-17.081
		c-1.107-6.292-0.542-12.768,1.644-18.773c2.181-6.002,5.913-11.326,10.808-15.435c4.895-4.107,10.785-6.852,17.076-7.963
		c6.294-1.109,12.77-0.542,18.775,1.643c6.002,2.183,11.329,5.912,15.431,10.808c4.113,4.894,6.859,10.784,7.965,17.077
		C186.695,150.703,186.126,157.179,183.939,163.18z M195.918,260.631c0,0-3.329-1.643-3.919-4.994
		c-0.592-3.354-3.209-15.335-1.072-50.188c1.673-27.271,53.229-58.402,61.364-63.726c8.136-5.324,16.419-9.812,17.287,5.279
		C270.835,196.58,241.181,241.739,195.918,260.631z M141.71,124.872c-3.426,1.067-6.642,2.817-9.383,5.118
		c-3.638,3.054-6.419,7.024-8.041,11.481c-1.625,4.461-2.046,9.291-1.221,13.965c0.622,3.527,1.961,6.935,3.897,9.951l15.559-17.28
		L141.71,124.872z M155.614,145.797l20.525,10.918c0.789-3.501,0.882-7.161,0.262-10.686c-0.824-4.678-2.874-9.07-5.924-12.703
		c-3.053-3.637-7.024-6.417-11.482-8.041c-3.384-1.229-6.944-1.772-10.569-1.6L155.614,145.797z M131.347,170.61
		c2.635,2.434,5.758,4.343,9.125,5.57c2.971,1.081,6.086,1.63,9.254,1.63l0,0c1.576,0,3.16-0.139,4.707-0.411
		c4.683-0.825,9.075-2.875,12.705-5.923c2.743-2.302,5.025-5.164,6.669-8.353l-22.742-4.834L131.347,170.61z"/>
</g>
<g id="Layer_3" display="none">
	<g display="inline">
		<g>
			<path d="M127.411,127.475l-6.964-6.22c-11.91-9.955-24.336,6.471-38.092-6.57c-9.705-9.196-13.214-22.491-10.126-34.588
				c0,0,5.395,5.029,18.484,17.232c20.037-4.033,24.673-23.202,24.673-23.202L95.283,55.378c11.852-3.93,25.505-1.519,35.21,7.68
				c13.625,12.908,0.033,30.058,9.215,37.544l5.46,5.263L127.411,127.475z M206.199,161.705l17.638,17.345
				c5.699,5.314,6.015,14.251,0.695,19.953c-5.321,5.699-14.257,6.015-19.955,0.695l-12.24-11.814L206.199,161.705z"/>
		</g>
		<path d="M207.016,145.349c0-5.644-3.199-10.535-7.877-12.979c-0.25-6.57-4.813-12.018-10.943-13.607
			c-0.045-0.041-0.088-0.079-0.129-0.119c-1.629-6.314-7.346-10.983-14.166-10.983c-0.16,0-0.314,0.02-0.473,0.025
			c-0.172-0.099-0.34-0.198-0.509-0.293c-2.582-4.167-7.183-6.955-12.444-6.955c-6.252,0-13.138,10.764-20.14,18.922
			c-2.067,2.752-4.324,5.389-6.179,7.57c-4.049,4.814-5.213,7.044-8.423,5.349c-2.756-1.985-8.926-7.995-10.184-8.647
			c-9.908,11.542-12.648,36.913-9.89,49.362c3.173,14.331-21.443,45.324-21.443,45.324l38.265,29.584
			c0.875,0.877,17.536-23.557,30.512-29.411c22.493-10.149,27.757-18.634,45.43-52.343
			C200.384,162.408,207.016,149.374,207.016,145.349z"/>
	</g>
</g>
<g id="Layer_2" display="none">
	<g display="inline">
		<g>
			<g>
				<path d="M218.271,79.194c0,0-34.112,26.689-41.195,29.665c-4.949,2.099-24.686,2.475-35.865,2.535
					c-7.926-0.373-17.64,0.222-21.023,2.695L61.45,156.756c-5.387,3.918-6.581,10.277-3.227,14.855
					c3.348,4.602,9.675,5.972,15.446,1.75l35.053-25.25l1.005-0.649c-3.132-9.321,1.534-17.121,9.104-19.655
					c1.875-0.653,24.785-2.483,25.437-2.483c0.651,0,2.3,0.562,2.3,2.424c0,1.859-1.908,2.299-1.908,2.299l-22.344,2.075
					c-12.57,1.57-11.321,19.627,0.972,19.798c13.406,0.184,49.091,0.391,56.298,0.11c7.206-0.313,18.67-5.543,18.67-5.543
					l46.862-33.335L218.271,79.194z"/>
			</g>
		</g>
		<g>
			<path d="M186.732,213.965c0,0-83.715-0.023-83.769,0 M79.094,214.695c-1.386-0.199-10.213-1.032-12.566-1.465
				c-2.352-0.432-2.67-1.861-3.05-2.67c-0.886-1.182-2.415-3.178-2.439-3.949c-0.025-0.773-0.467-2.518-0.151-4.256
				c0.315-1.739,4.047-9.797,6.066-10.769c12.948-5.758,39.59-8.146,39.59-8.146l31.162-14.809c14.919-5.689,52.474-1.853,58.785,0
				c6.311,1.854,24.405,10.898,24.405,10.898l14.172,1.992c0,0,2.266,0.281,2.811,1.699c0.672,1.75,0.516,1.848,0.753,3.527
				l0.31,8.012c-0.239,2.247,1.082,1.694,1.634,3.49c0.556,1.792-1.054,5.971-1.411,6.964c-0.482,1.365,0.432,1.81,0.354,2.612
				c-0.395,1.488-1.58,0.626-2.125,0.871c-0.543,0.242-25.748,4.766-26.231,4.894"/>
			<path d="M186.566,213.668c1.718,5.057,6.569,8.702,12.281,8.702c5.745,0,10.613-3.683,12.311-8.775 M79.094,214.695
				c2.042,4.392,6.55,7.443,11.779,7.443c5.517,0,10.226-3.395,12.092-8.175"/>
		</g>
	</g>
</g>
</svg>
