<?xml version="1.0" encoding="utf-8"?>
<!-- Generator: Adobe Illustrator 16.0.3, SVG Export Plug-In . SVG Version: 6.00 Build 0)  -->
<!DOCTYPE svg PUBLIC "-//W3C//DTD SVG 1.1//EN" "http://www.w3.org/Graphics/SVG/1.1/DTD/svg11.dtd">
<svg version="1.1" id="Layer_1" xmlns="http://www.w3.org/2000/svg" xmlns:xlink="http://www.w3.org/1999/xlink" x="0px" y="0px"
	 width="1000px" height="1000px" viewBox="0 0 1000 1000" enable-background="new 0 0 1000 1000" xml:space="preserve">
<g id="Layer_1_1_" display="none">
	<g display="inline">
		<path fill="#010101" d="M272.647,504.938c-32.548,0-58.934,26.383-58.934,58.934c0,32.535,26.386,58.934,58.934,58.934
			c32.551,0,58.937-26.397,58.937-58.934C331.584,531.32,305.198,504.938,272.647,504.938z M272.647,603.104
			c-21.667,0-39.236-17.562-39.236-39.232s17.569-39.24,39.236-39.24c21.671,0,39.231,17.569,39.231,39.24
			C311.879,585.543,294.318,603.104,272.647,603.104z"/>
		<path fill="#010101" d="M780.201,504.938c-32.544,0-58.935,26.383-58.935,58.934c0,32.535,26.391,58.934,58.935,58.934
			c32.551,0,58.939-26.397,58.939-58.934C839.143,531.32,812.752,504.938,780.201,504.938z M780.201,603.104
			c-21.664,0-39.24-17.562-39.24-39.232s17.576-39.24,39.24-39.24c21.67,0,39.23,17.569,39.23,39.24
			C819.433,585.543,801.871,603.104,780.201,603.104z"/>
		<path fill="#010101" d="M884.641,579.502c0.396-4.41-9.632-15.233-9.227-18.039c0.406-2.805,5.213-22.457,4.006-30.467
			c-1.2-8.027-2.4-15.632-4.801-28.064c-2.407-12.433-33.28-23.252-60.142-29.673c-26.858-6.409-143.129-20.844-155.549-21.643
			c-12.429-0.803-79.793-42.905-92.214-49.313c-12.429-6.417-26.868-18.043-96.223-22.458
			c-69.359-4.402-128.689,2.007-154.75,10.832c-26.058,8.813-91.002,41.295-103.832,46.504c-12.826,5.218-63.74,8.821-63.74,8.821
			c-0.458,0.45-0.831,1.05-1.958,2.931c-1.135,1.882-22.903,53.599-27.715,63.223c-4.808,9.615-0.397,14.836,0,22.846
			c0.397,8.027,5.209,29.27,6.409,33.281c1.155,3.817,77.126,12.754,84.086,13.563c-1.609-5.708-2.493-11.739-2.493-17.975
			c0-36.54,29.613-66.157,66.149-66.157c36.532,0,66.148,29.617,66.148,66.157c0,8.132-1.479,15.932-4.163,23.146
			c0.786,0.033,1.558,0.064,2.363,0.105c74.929,3.543,257.576,3.738,382.059,3.381c-3.6-8.147-5.603-17.155-5.603-26.633
			c0-36.54,29.616-66.157,66.147-66.157c36.532,0,66.148,29.617,66.148,66.157c0,9.267-1.913,18.08-5.352,26.09
			c2.709-0.023,4.144-0.041,4.144-0.041C885.84,586.32,884.641,579.502,884.641,579.502z"/>
	</g>
</g>
<g id="Layer_2">
	<g display="none">
		<path display="inline" fill="#010101" d="M833.678,512.286c-38.536,0-69.784,31.243-69.784,69.78
			c0,38.547,31.249,69.795,69.784,69.795c38.547,0,69.785-31.25,69.785-69.795C903.463,543.529,872.223,512.286,833.678,512.286z
			 M833.678,628.525c-25.659,0-46.459-20.799-46.459-46.457c0-25.661,20.8-46.46,46.459-46.46c25.658,0,46.458,20.799,46.458,46.46
			C880.136,607.726,859.336,628.525,833.678,628.525z"/>
		<path display="inline" fill="#010101" d="M957.344,600.591c0.481-5.223-11.394-18.042-10.911-21.367
			c0.479-3.327,6.169-26.585,4.742-36.08c-1.427-9.494-2.845-18.517-5.689-33.233c-2.851-14.719-39.401-27.533-71.21-35.128
			c-31.808-7.595-169.488-24.686-184.197-25.634c-14.728-0.954-94.48-50.796-109.188-58.396c-4.481-2.309-9.176-5.189-15.855-8.226
			c-15.848-8.199-61.131-19.485-128-23.046c-66.937-3.557-227.157,8.309-248.05,10.921c-20.887,2.612-49.423,9.204-60.58,10.631
			c-11.157,1.422-22.549,6.646-22.549,6.646l4.982,2.849c-1.186,0.471-22.733,48.001-39.109,63.904
			c-16.381,15.899-15.668,23.022-15.196,39.877c0.164,5.721-0.255,10.549-0.93,14.563c-2.391,5.398-4.338,9.678-5.475,11.962
			c-2.891,5.785-2.968,10.217-2.286,14.432c-0.732,2.342-1.604,4.355-2.703,5.329c-3.191,2.825,0.24,16.857,2.347,32.048
			c0.915,6.603,5.307,10.95,9.981,13.755c0.092,0.346,0.179,0.655,0.256,0.896c0.279,0.946,4.444,2.16,10.906,3.489
			c0.911,0.214,1.451,0.299,1.451,0.299l0,0c25.23,5.004,80.811,11.537,87.203,12.29c-1.909-6.777-2.955-13.918-2.955-21.301
			c0-43.261,35.072-78.325,78.334-78.325c43.265,0,78.329,35.064,78.329,78.325c0,9.646-1.748,18.871-4.935,27.411
			c0.935,0.038,1.851,0.078,2.8,0.125c88.725,4.192,305.015,4.423,452.412,4.02c-4.26-9.657-6.633-20.319-6.633-31.556
			c0-43.261,35.066-78.325,78.325-78.325c43.269,0,78.336,35.064,78.336,78.325c0,10.978-2.267,21.417-6.336,30.901
			c3.2-0.019,4.917-0.038,4.917-0.038C958.77,608.659,957.344,600.591,957.344,600.591z"/>
		<path display="inline" fill="#010101" d="M232.665,512.286c-38.541,0-69.785,31.243-69.785,69.78
			c0,38.547,31.244,69.795,69.785,69.795c38.541,0,69.784-31.25,69.784-69.795C302.449,543.529,271.206,512.286,232.665,512.286z
			 M232.665,628.525c-25.659,0-46.459-20.799-46.459-46.457c0-25.661,20.8-46.46,46.459-46.46s46.459,20.799,46.459,46.46
			C279.124,607.726,258.324,628.525,232.665,628.525z"/>
	</g>
	<g display="none">
		<path display="inline" fill="#010101" d="M786.972,513.204c-39.052,0-70.702,31.649-70.702,70.703
			c0,39.034,31.649,70.694,70.702,70.694c39.035,0,70.685-31.66,70.685-70.694C857.656,544.854,826.006,513.204,786.972,513.204z
			 M786.972,630.973c-26.002,0-47.065-21.08-47.065-47.065c0-26.003,21.063-47.064,47.065-47.064
			c25.984,0,47.065,21.062,47.065,47.064C834.038,609.893,812.956,630.973,786.972,630.973z"/>
		<path display="inline" fill="#010101" d="M912.238,602.661c0.486-5.295-11.541-18.277-11.056-21.645s6.247-26.928,4.816-36.542
			c-1.45-9.617-2.891-18.764-5.781-33.672c-2.881-14.909-39.91-27.894-72.133-35.585c-32.223-7.693-126.459-25.006-141.368-25.966
			c-14.91-0.966-95.705-51.457-110.615-59.16c-4.53-2.336-9.289-5.256-16.054-8.333c-16.055-8.303-61.923-19.735-129.664-23.346
			c-67.808-3.601-174.147,8.418-195.315,11.064c-21.157,2.647-22.597,7.933-33.901,9.378c-11.299,1.439-22.841,6.734-22.841,6.734
			l5.046,2.886c-1.202,0.477-50.495,50.018-67.083,66.124c-16.599,16.107-15.873,23.322-15.396,40.397
			c0.167,5.795-0.257,10.687-0.939,14.757c-2.422,5.475-4.397,9.804-5.547,12.113c-2.93,5.856-3.01,10.35-2.314,14.613
			c-0.745,2.377-1.626,4.427-2.743,5.4c-3.229,2.861,0.249,17.074,2.38,32.471c0.925,6.686,5.375,11.084,10.111,13.928
			c0.091,0.363,0.181,0.667,0.258,0.916c0.28,0.953,4.503,2.183,11.046,3.539c0.926,0.209,1.474,0.294,1.474,0.294l0,0
			c25.555,5.075,61.907,11.695,68.38,12.439c-1.932-6.85-2.996-14.082-2.996-21.559c0-43.82,35.528-79.354,79.355-79.354
			c43.826,0,79.35,35.534,79.35,79.354c0,9.769-1.775,19.115-4.999,27.758c0.945,0.038,1.875,0.087,2.836,0.134
			c89.877,4.245,227.753,4.466,377.066,4.065c-4.311-9.789-6.715-20.587-6.715-31.957c0-43.82,35.522-79.354,79.346-79.354
			s79.346,35.534,79.346,79.354c0,11.113-2.291,21.691-6.41,31.289c3.242-0.019,4.969-0.038,4.969-0.038
			C913.688,610.837,912.238,602.661,912.238,602.661z"/>
		<path display="inline" fill="#010101" d="M259.362,513.204c-39.044,0-70.694,31.649-70.694,70.703
			c0,39.034,31.65,70.694,70.694,70.694c39.042,0,70.693-31.66,70.693-70.694C330.055,544.854,298.405,513.204,259.362,513.204z
			 M259.362,630.973c-25.994,0-47.061-21.08-47.061-47.065c0-26.003,21.067-47.064,47.061-47.064
			c25.994,0,47.064,21.062,47.064,47.064C306.428,609.893,285.356,630.973,259.362,630.973z"/>
	</g>
	<g display="none">
		<path display="inline" fill="#010101" d="M959.796,562.534c-1.257-6.542-11.826-23.899-11.826-23.899s4.282-14.584-8.302-44.028
			c-12.578-29.428-98.87-48.544-103.144-50.56c-4.273-2.011-16.101-4.025-39.745-24.656
			c-23.652-20.626-128.061-80.501-128.061-80.501c-37.729-25.916-61.89-24.655-108.934-28.681
			c-47.037-4.025-327.047-10.567-366.293-10.567c-39.244,0-70.942,15.096-70.942,15.096s-24.154-1.512-33.964,0
			c-9.812,1.505-24.149,73.961-30.944,103.397c-6.794,29.435-5.28,101.137-5.28,123.018c0,21.892-11.322,39.247-11.322,39.247
			c-1.514,8.802,0,9.559,5.281,20.628c5.281,11.074,92.328,15.098,120.254,15.098c0.164,0,0.364,0,0.564,0
			c-1.028-5.082-1.57-10.336-1.57-15.726c0-43.563,35.312-78.871,78.87-78.871c43.558,0,78.866,35.309,78.866,78.871
			c0,5.569-0.587,11.011-1.685,16.256c163.16,0.618,398.801,10.62,423.082,10.781c6.604,0.05,15.625,0.222,26.033,0.458
			c-2.838-8.141-4.404-16.876-4.404-25.985c0-43.554,35.315-78.871,78.87-78.871c43.562,0,78.869,35.317,78.869,78.871
			c0,9.166-1.583,17.959-4.454,26.131c12.756-2.087,27.154-4.99,30.619-7.144c5.284-3.263,6.288-7.545,5.032-9.559
			c-1.265-2.007-2.016-7.038,1.003-18.612C959.29,581.161,961.053,569.074,959.796,562.534z"/>
		<path display="inline" fill="#010101" d="M244.439,534.36c-36.475,0-66.042,29.576-66.042,66.041
			c0,36.475,29.566,66.04,66.042,66.04c36.471,0,66.036-29.566,66.036-66.04C310.475,563.936,280.908,534.36,244.439,534.36z
			 M244.439,643.801c-23.967,0-43.399-19.429-43.399-43.399c0-23.972,19.432-43.399,43.399-43.399
			c23.966,0,43.395,19.428,43.395,43.399C287.834,624.372,268.406,643.801,244.439,643.801z"/>
		<path display="inline" fill="#010101" d="M845.496,534.36c-36.467,0-66.034,29.568-66.034,66.041
			c0,36.467,29.567,66.04,66.034,66.04c36.474,0,66.049-29.575,66.049-66.04C911.545,563.928,881.97,534.36,845.496,534.36z
			 M845.496,643.801c-23.964,0-43.392-19.429-43.392-43.399s19.428-43.399,43.392-43.399c23.97,0,43.407,19.429,43.407,43.399
			S869.466,643.801,845.496,643.801z"/>
	</g>
	<g display="none">
		<path display="inline" fill="#010101" d="M818.925,518.971c-37.732,0-68.313,30.593-68.313,68.313
			c0,37.731,30.581,68.313,68.313,68.313s68.313-30.582,68.313-68.313C887.238,549.562,856.657,518.971,818.925,518.971z
			 M818.925,639.834c-29.022,0-52.55-23.527-52.55-52.55s23.527-52.55,52.55-52.55s52.55,23.527,52.55,52.55
			S847.947,639.834,818.925,639.834z"/>
		<path display="inline" fill="#010101" d="M228.401,518.971c-37.726,0-68.313,30.593-68.313,68.313
			c0,37.731,30.586,68.313,68.313,68.313c37.732,0,68.319-30.582,68.319-68.313C296.72,549.562,266.134,518.971,228.401,518.971z
			 M228.401,639.834c-29.022,0-52.55-23.527-52.55-52.55s23.527-52.55,52.55-52.55s52.551,23.527,52.551,52.55
			S257.424,639.834,228.401,639.834z"/>
		<path display="inline" fill="#010101" d="M950.261,592.545c-3.312-2.299-2.259-26.607-0.622-30.221
			c1.638-3.614-0.33-15.101-1.637-21.999c-1.324-6.907-12.49-12.159-12.49-12.159s0.664-8.869-8.203-28.247
			c-8.865-19.372-224.328-49.593-235.823-50.904c-11.496-1.315-33.495-12.811-65.683-31.2
			c-32.19-18.394-76.849-33.172-84.079-37.114c-7.227-3.94-17.729,0-17.729,0s-6.898,6.567-6.898,8.54
			c0,1.968,2.952,6.898-0.663,8.866c-3.604,1.974-4.268,12.343-4.268,12.343l71.607,34.625l-8.875,5.582
			c0,0-65.688-5.914-102.471-8.208c-36.782-2.303-140.241-5.915-147.797-5.915c-7.55,0-8.208-6.239-10.507-7.881
			c-2.3-1.642-6.245-9.202-6.245-9.202s-14.778,2.63-18.062-1.31c-3.281-3.94-8.207-8.54-15.762-7.556
			c-7.555,0.989-7.555,8.544-12.479,11.17c-4.924,2.625-32.19,7.882-55.508,7.882c-23.313,0-112.319,15.105-121.189,15.437
			c-8.865,0.327-24.96,45.979-26.274,54.519c-1.31,8.539-16.421,27.259-16.421,27.259v27.258
			c5.583,22.992,18.394,33.173,27.585,35.803c8.7,2.476,76.112,12.314,83.424,13.366c-1.072-5.161-1.642-10.512-1.642-15.997
			c0-43.168,34.999-78.168,78.168-78.168c43.172,0,78.162,35,78.162,78.168c0,9.343-1.641,18.297-4.647,26.597
			c59.057,0,197.81,0,288.082,0c46.313,0,102.654,0,154.094,0c-3.01-8.3-4.646-17.254-4.646-26.597
			c0-43.168,34.995-78.168,78.163-78.168s78.164,35,78.164,78.168c0,9.343-1.637,18.297-4.647,26.597c0.556,0,0.925,0,1.043,0
			c3.273,0,58.784-11.154,63.053-14.116C960.803,596.812,953.575,594.844,950.261,592.545z"/>
	</g>
	<g display="none">
		<path display="inline" fill="#010101" d="M968.381,583.572c0-3.992,5.186-27.9,4.758-36.753
			c-0.43-8.861-11.25-15.056-11.25-15.056s-1.734-3.097-7.351-27.006c-5.625-23.907-139.342-37.191-183.911-43.389
			c-44.569-6.194-88.7-10.625-101.247-11.069c-12.546-0.444-40.24-25.237-115.089-59.768
			c-74.857-34.533-163.553-26.12-230.188-18.597c-66.635,7.528-173.501,56.23-184.755,60.212c-11.246,3.982-75.282,8.41-75.282,8.41
			c-15.148,25.685-10.816,60.217-12.551,67.745C49.789,515.83,42,518.928,35.507,522.91c-6.487,3.983-11.366,38.767-11.366,41.426
			s10.386,21.249,17.741,27.891c6.212,5.616,80.547,9.077,99.353,11.466c-1.646-6.429-2.537-13.171-2.537-20.12
			c0-43.656,34.579-79.036,77.235-79.036c42.652,0,77.232,35.38,77.232,79.036c0,11.268-2.328,21.994-6.488,31.696
			c6.152,0.206,11.535,0.28,15.793,0.169c25.228-0.598,269.515-0.373,424.229-0.169c-4.152-9.71-6.483-20.429-6.483-31.696
			c0-43.656,34.579-79.036,77.236-79.036c42.647,0,77.234,35.38,77.234,79.036c0,10.596-2.061,20.698-5.764,29.942
			c18.244-3.199,102.086-0.859,105.573-4.403C979.295,604.242,968.381,587.546,968.381,583.572z"/>
		<path display="inline" fill="#010101" d="M797.883,515.831c-38.132,0-69.064,30.913-69.064,69.065
			c0,38.133,30.933,69.064,69.064,69.064c38.151,0,69.074-30.932,69.074-69.064C866.957,546.746,836.034,515.831,797.883,515.831z
			 M797.883,638.02c-29.336,0-53.123-23.788-53.123-53.123c0-29.347,23.787-53.133,53.123-53.133
			c29.345,0,53.133,23.786,53.133,53.133C851.016,614.232,827.23,638.02,797.883,638.02z"/>
		<path display="inline" fill="#010101" d="M215.567,515.831c-38.146,0-69.069,30.913-69.069,69.065
			c0,38.133,30.923,69.064,69.069,69.064c38.143,0,69.064-30.932,69.064-69.064C284.631,546.746,253.709,515.831,215.567,515.831z
			 M215.567,638.02c-29.346,0-53.128-23.788-53.128-53.123c0-29.347,23.782-53.133,53.128-53.133
			c29.341,0,53.128,23.786,53.128,53.133C268.695,614.232,244.908,638.02,215.567,638.02z"/>
	</g>
	<g>
		<path fill="#010101" d="M195.713,496.016c-47.177,0-85.417,38.245-85.417,85.414c0,47.178,38.241,85.413,85.417,85.413
			c47.173,0,85.414-38.235,85.414-85.413C281.127,534.261,242.887,496.016,195.713,496.016z M195.713,636.271
			c-30.285,0-54.836-24.557-54.836-54.842s24.552-54.834,54.836-54.834c30.281,0,54.834,24.548,54.834,54.834
			C250.547,611.715,225.996,636.271,195.713,636.271z"/>
		<path fill="#010101" d="M852.213,496.016c-47.177,0-85.423,38.245-85.423,85.414c0,47.178,38.246,85.413,85.423,85.413
			c47.168,0,85.412-38.235,85.412-85.413C937.625,534.261,899.381,496.016,852.213,496.016z M852.213,636.271
			c-30.285,0-54.842-24.557-54.842-54.842s24.557-54.834,54.842-54.834s54.825,24.548,54.825,54.834
			C907.038,611.715,882.498,636.271,852.213,636.271z"/>
		<path fill="#010101" d="M995.726,521.84c0.365-30.785-8.442-56.115-11.914-67.535c-3.479-11.422-9.94-14.897-46.188-27.81
			c-36.245-12.912-181.748-36.75-206.588-40.226c-24.826-3.475-63.062-33.271-87.895-47.672
			c-24.824-14.402-89.384-46.677-115.207-56.613c-25.825-9.932-286.534-2.976-314.842,0c-28.305,2.979-55.12,12.417-69.026,14.402
			c-13.902,1.991-49.163,9.932-49.163,9.932l9.932,6.956c0,0-71.511,88.889-71.511,91.869s-2.48,6.457-3.332,10.928
			c-0.848,4.465-1.134,29.295-0.144,37.74c0.996,8.436-3.476,27.305-5.46,34.763c-1.986,7.442-18.374,19.864-18.374,19.864
			c-2.11,14.402-1.615,27.68,6.577,48.542c8.196,20.853,48.047,21.969,48.047,21.969s1.861,5.961,9.312,10.056
			c3.427,1.884,13.01,4.008,22.352,5.748c-0.558-4.363-0.875-8.808-0.875-13.322c0-57.591,46.691-104.281,104.285-104.281
			c57.591,0,104.281,46.691,104.281,104.281c0,5.247-0.396,10.387-1.141,15.419c44.428,0.089,188.7,0.348,248.203,0.348
			c32.588,0,119.35,1.188,203.485,2.472c-1.053-5.926-1.624-12.011-1.624-18.238c0-57.591,46.687-104.281,104.285-104.281
			c57.6,0,104.286,46.691,104.286,104.281c0,3.926-0.232,7.78-0.66,11.59c13.794-4.736,27.501-17.087,33.435-24.494
			C997.715,559.21,995.483,543.194,995.726,521.84z"/>
	</g>
</g>
</svg>
